<svg width="14" height="12" viewBox="0 0 14 12" fill="none"
    xmlns="http://www.w3.org/2000/svg">
    <path fill-rule="evenodd" clip-rule="evenodd" d="M8.3412 11.3089C8.53956 11.527 8.8826 11.527 9.08097 11.3089L13.6162 6.32267C13.7897 6.13193 13.7897 5.84055 13.6162 5.64981L9.08097 0.663571C8.8826 0.445476 8.53956 0.445476 8.3412 0.663571L7.92819 1.11765C7.75471 1.30839 7.75471 1.59977 7.92819 1.79051L10.9666 5.13105H0.5C0.223858 5.13105 0 5.35491 0 5.63105V6.34131C0 6.61745 0.223858 6.84131 0.500001 6.84131H10.9667L7.92819 10.182C7.75471 10.3727 7.7547 10.6641 7.92819 10.8548L8.3412 11.3089Z" fill="white"/>
</svg>
