<svg width="40" height="40" viewBox="0 0 40 40" fill="none"
    xmlns="http://www.w3.org/2000/svg">
    <rect width="40" height="40" rx="20" fill="#F6DBDF"/>
    <path d="M17.0382 25.3537C17.149 25.4072 17.2204 25.523 17.2204 25.6484V27.6249C17.2204 27.831 17.3877 27.9982 17.5938 27.9982H22.4068C22.6129 27.9982 22.7802 27.831 22.7802 27.6249V25.6484C22.7802 25.523 22.8524 25.407 22.9644 25.353C25.3059 24.2208 26.819 21.8105 26.819 19.2123C26.819 15.3082 23.5206 12.1632 19.5647 12.4071C16.1477 12.6201 13.4099 15.357 13.1953 18.7735C13.0206 21.5589 14.5292 24.1419 17.0382 25.3537ZM13.9405 18.8203C14.1314 15.7786 16.5693 13.3419 19.611 13.1523C23.1416 12.9357 26.0725 15.7353 26.0725 19.2123C26.0725 21.526 24.725 23.6725 22.6396 24.6807C22.2715 24.8584 22.0335 25.2382 22.0335 25.6484V27.2515H17.9671V25.6484C17.9671 25.2385 17.7299 24.8587 17.3628 24.6815C15.1282 23.602 13.7847 21.3013 13.9405 18.8203Z" fill="#D60000"/>
    <path d="M22.5784 29.2781C22.5784 29.072 22.4112 28.9048 22.2051 28.9048H17.7952C17.5891 28.9048 17.4219 29.072 17.4219 29.2781C17.4219 29.4842 17.5891 29.6515 17.7952 29.6515H22.2053C22.4114 29.6515 22.5784 29.4842 22.5784 29.2781Z" fill="#D60000"/>
    <path d="M21.2735 30.8266C21.2735 30.6205 21.1063 30.4532 20.9002 30.4532H19.0979C18.8919 30.4532 18.7246 30.6205 18.7246 30.8266C18.7246 31.0327 18.8919 31.1999 19.0979 31.1999H20.9002C21.1063 31.1999 21.2735 31.0327 21.2735 30.8266Z" fill="#D60000"/>
    <path d="M17.8405 19.2072L19.6273 20.5495V23.816C19.6273 24.0221 19.7945 24.1893 20.0006 24.1893C20.2067 24.1893 20.374 24.0221 20.374 23.816V20.5495L22.1608 19.2072C22.3255 19.0835 22.3589 18.8493 22.2349 18.6843C22.1112 18.5198 21.877 18.4864 21.712 18.6101L20.0006 19.8962L18.2892 18.6104C18.1245 18.4867 17.8903 18.52 17.7663 18.6846C17.6424 18.8496 17.6757 19.0835 17.8405 19.2072Z" fill="#D60000"/>
    <path d="M11.5319 18.7467H10.053C9.84694 18.7467 9.67969 18.914 9.67969 19.12C9.67969 19.3261 9.84694 19.4934 10.053 19.4934H11.5319C11.738 19.4934 11.9053 19.3261 11.9053 19.12C11.9053 18.914 11.738 18.7467 11.5319 18.7467Z" fill="#D60000"/>
    <path d="M29.946 19.4934C30.1521 19.4934 30.3193 19.3261 30.3193 19.12C30.3193 18.914 30.1521 18.7467 29.946 18.7467H28.4671C28.261 18.7467 28.0938 18.914 28.0938 19.12C28.0938 19.3261 28.261 19.4934 28.4671 19.4934H29.946Z" fill="#D60000"/>
    <path d="M12.967 26.5273C13.0625 26.5273 13.1581 26.4909 13.231 26.418L14.2766 25.3722C14.4225 25.2263 14.4225 24.9901 14.2766 24.8443C14.1308 24.6984 13.8946 24.6984 13.7487 24.8443L12.7031 25.8901C12.5573 26.0359 12.5573 26.2721 12.7031 26.418C12.7761 26.4907 12.8714 26.5273 12.967 26.5273Z" fill="#D60000"/>
    <path d="M25.9865 13.5055C26.0821 13.5055 26.1776 13.4692 26.2506 13.3963L27.2962 12.3507C27.442 12.2048 27.442 11.9686 27.2962 11.8228C27.1503 11.6769 26.9141 11.6769 26.7683 11.8228L25.7227 12.8684C25.5768 13.0142 25.5768 13.2504 25.7227 13.3963C25.7953 13.4692 25.8909 13.5055 25.9865 13.5055Z" fill="#D60000"/>
    <path d="M19.9983 11.025C20.2044 11.025 20.3717 10.8578 20.3717 10.6517V9.17302C20.3717 8.96694 20.2044 8.79968 19.9983 8.79968C19.7923 8.79968 19.625 8.96694 19.625 9.17302V10.6517C19.625 10.858 19.7923 11.025 19.9983 11.025Z" fill="#D60000"/>
    <path d="M26.2506 24.844C26.1047 24.6982 25.8685 24.6982 25.7227 24.844C25.5768 24.9899 25.5768 25.2261 25.7227 25.3719L26.7683 26.4178C26.8412 26.4907 26.9368 26.527 27.0323 26.527C27.1279 26.527 27.2235 26.4907 27.2964 26.4178C27.4423 26.2719 27.4423 26.0357 27.2964 25.8899L26.2506 24.844Z" fill="#D60000"/>
    <path d="M13.7485 13.3963C13.8214 13.4692 13.917 13.5055 14.0126 13.5055C14.1081 13.5055 14.2037 13.4692 14.2766 13.3963C14.4225 13.2504 14.4225 13.0142 14.2766 12.8684L13.231 11.8228C13.0852 11.6769 12.849 11.6769 12.7031 11.8228C12.5573 11.9686 12.5573 12.2048 12.7031 12.3507L13.7485 13.3963Z" fill="#D60000"/>
</svg>
