<svg xmlns="http://www.w3.org/2000/svg"
    xmlns:xlink="http://www.w3.org/1999/xlink" width="102px" height="31px" viewBox="0 0 102 31" version="1.1">
    <!-- Generator: Sketch 50.2 (55047) - http://www.bohemiancoding.com/sketch -->
    <title>Logo</title>
    <desc>Created with Sketch.</desc>
    <defs>
        <polygon id="path-1" points="0.0130062283 0.13433425 21.2631823 0.13433425 21.2631823 21.4185152 0.0130062283 21.4185152"/>
        <polygon id="path-3" points="0 41.0521542 116.039345 41.0521542 116.039345 0.141005225 0 0.141005225"/>
    </defs>
    <g id="Page-1" stroke="none" stroke-width="1" fill="none" fill-rule="evenodd">
        <g id="Landing-Step-1" transform="translate(-170.000000, -23.000000)">
            <g id="Top-Nav">
                <g id="Logo" transform="translate(170.000000, 12.000000)">
                    <polygon id="Fill-1" fill="#2AC768" points="0 12 0 40 16 40 16 34.0367138 6.36262774 34.0367138 6.36262774 12"/>
                    <g id="Group-18">
                        <path d="M30.9901068,28.0069398 C30.9096238,26.4723924 29.8631227,24.6143362 26.9655129,24.6143362 C24.3898351,24.6143362 23.101885,26.5125521 22.9811605,28.0069398 L30.9901068,28.0069398 Z M36.5440998,34.6709984 C35.578304,38.1441445 32.3987814,41.0521542 27.3276864,41.0521542 C21.8141572,41.0521542 16.9040281,37.0941911 16.9040281,30.3495899 C16.9040281,23.8876684 21.6932104,19.7679509 26.8850299,19.7679509 C33.0828868,19.7679509 36.9062732,23.6045424 36.9062732,30.066687 C36.9062732,30.9149494 36.8260126,31.8439775 36.7855488,31.9649029 L22.860436,31.9649029 C22.9811605,34.2267873 25.0336989,35.8421004 27.4081693,35.8421004 C29.6216738,35.8421004 30.8693824,34.7921469 31.4327633,33.2169936 L36.5440998,34.6709984 Z" id="Fill-2" fill="#2AC768"/>
                        <path d="M44.1510314,40.4462556 L38.0336575,40.4462556 L38.0336575,20.3737602 L43.9498239,20.3737602 L43.9498239,22.6758044 C45.0363442,20.7775885 47.4915199,19.8485604 49.5440584,19.8485604 C54.5749119,19.8485604 56.8284355,23.4430781 56.8284355,27.8454754 L56.8284355,40.4462556 L50.711284,40.4462556 L50.711284,28.8954289 C50.711284,26.9164473 49.6647829,25.4220596 47.4512784,25.4220596 C45.4389815,25.4220596 44.1510314,26.9164473 44.1510314,28.9360348 L44.1510314,40.4462556 Z" id="Fill-4" fill="#2AC768"/>
                        <path d="M68.5406441,35.3979785 C70.9151145,35.3979785 73.048136,33.7016767 73.048136,30.3898388 C73.048136,27.0376181 70.9151145,25.4220819 68.5406441,25.4220819 C66.1661737,25.4220819 64.03293,27.0376181 64.03293,30.3898388 C64.03293,33.7016767 66.1661737,35.3979785 68.5406441,35.3979785 Z M79.0045438,36.8517602 C79.0045438,38.6694336 79.1252683,40.0018438 79.1655098,40.4462779 L73.2898072,40.4462779 C73.2493434,40.203981 73.1286189,39.3153357 73.1286189,38.5079023 C72.2030646,39.8809184 70.1907677,40.8907121 67.7758334,40.8907121 C62.1415798,40.8907121 57.8753146,36.5286976 57.8753146,30.3496791 C57.8753146,24.3721285 61.9001309,19.8891886 67.5748483,19.8891886 C70.9955975,19.8891886 72.4847551,21.181439 72.967653,21.9487127 L72.967653,11.2057656 L79.0045438,11.2057656 L79.0045438,36.8517602 Z" id="Fill-6" fill="#2AC768"/>
                        <g id="Group-10" transform="translate(80.038328, 19.633639)">
                            <mask id="mask-2" fill="white">
                                <use xlink:href="#path-1"/>
                            </mask>
                            <g id="Clip-9"/>
                            <path d="M15.1458084,10.7561329 C15.1458084,7.36352936 12.9725455,5.78837605 10.6380942,5.78837605 C8.34410684,5.78837605 6.13060242,7.36352936 6.13060242,10.7561329 C6.13060242,14.1081306 8.34410684,15.7642726 10.6380942,15.7642726 C12.9725455,15.7642726 15.1458084,14.1487365 15.1458084,10.7561329 M21.2631823,10.7561329 C21.2631823,16.9759805 16.634966,21.4185375 10.6380942,21.4185375 C4.68168635,21.4185375 0.0130062283,16.9759805 0.0130062283,10.7561329 C0.0130062283,4.53650846 4.68168635,0.13433425 10.6380942,0.13433425 C16.634966,0.13433425 21.2631823,4.53650846 21.2631823,10.7561329" id="Fill-8" fill="#2AC768" mask="url(#mask-2)"/>
                        </g>
                        <mask id="mask-4" fill="white">
                            <use xlink:href="#path-3"/>
                        </mask>
                        <g id="Clip-15"/>
                    </g>
                </g>
            </g>
        </g>
    </g>
</svg>