<?xml version="1.0" encoding="UTF-8"?> <svg xmlns="http://www.w3.org/2000/svg" xmlns:xlink="http://www.w3.org/1999/xlink" id="svg" width="400" height="87.26033233915636" viewBox="0, 0, 400,87.26033233915636"><g id="svgg"><path id="path0" d="M175.000 48.250 L 175.000 63.000 176.917 63.000 L 178.833 63.000 178.833 56.083 L 178.833 49.167 184.755 49.167 L 190.678 49.167 190.630 47.292 L 190.583 45.417 184.708 45.373 L 178.833 45.329 178.833 41.248 L 178.833 37.167 188.583 37.167 L 198.333 37.167 198.333 35.333 L 198.333 33.500 186.667 33.500 L 175.000 33.500 175.000 48.250 M385.417 39.674 C 380.622 40.314,378.139 42.777,378.379 46.657 C 378.626 50.663,380.596 51.775,388.136 52.164 C 394.754 52.505,396.855 53.790,395.923 56.927 C 394.730 60.945,386.664 61.268,380.305 57.552 C 379.786 57.248,379.284 57.000,379.190 57.000 C 378.948 57.000,377.302 59.846,377.399 60.097 C 377.610 60.647,381.550 62.426,383.667 62.928 C 384.354 63.091,384.954 63.277,385.000 63.341 C 385.483 64.015,392.883 64.008,394.145 63.333 C 394.294 63.253,394.992 62.920,395.694 62.594 C 398.690 61.204,399.917 59.335,399.917 56.163 C 399.917 51.001,397.174 49.171,388.917 48.824 C 384.028 48.618,382.500 48.143,382.238 46.747 C 381.463 42.614,389.545 41.758,395.654 45.326 C 397.122 46.183,396.941 46.249,397.975 44.480 C 399.004 42.719,399.050 42.863,397.148 41.843 C 393.868 40.084,389.039 39.191,385.417 39.674 M215.500 51.583 L 215.500 63.000 217.500 63.000 L 219.500 63.000 219.500 51.583 L 219.500 40.167 217.500 40.167 L 215.500 40.167 215.500 51.583 M245.167 51.583 L 245.167 63.000 247.000 63.000 L 248.833 63.000 248.833 55.130 C 248.833 47.632,248.847 47.279,249.121 47.671 C 249.421 48.101,253.408 52.559,255.314 54.595 C 255.920 55.242,257.873 57.399,259.652 59.386 L 262.887 63.000 264.110 63.000 L 265.333 63.000 265.333 51.583 L 265.333 40.167 263.333 40.167 L 261.333 40.167 261.328 47.958 L 261.323 55.750 260.953 55.314 C 260.750 55.074,260.440 54.699,260.266 54.481 C 259.737 53.819,257.614 51.489,256.418 50.258 C 255.800 49.621,254.646 48.346,253.855 47.425 C 253.065 46.504,252.380 45.712,252.334 45.667 C 252.288 45.621,251.918 45.208,251.512 44.750 C 251.106 44.292,249.968 43.073,248.983 42.042 L 247.193 40.167 246.180 40.167 L 245.167 40.167 245.167 51.583 M295.891 44.392 C 289.966 56.085,286.667 62.682,286.667 62.833 C 286.667 62.935,287.423 62.999,288.625 62.998 L 290.583 62.996 292.000 60.250 L 293.417 57.504 299.336 57.502 L 305.255 57.500 306.627 60.250 L 307.999 63.000 310.094 63.000 L 312.189 63.000 312.072 62.625 C 311.908 62.099,310.020 58.337,309.667 57.833 C 309.506 57.604,307.766 54.229,305.799 50.333 C 303.832 46.438,301.827 42.556,301.343 41.708 L 300.462 40.167 299.247 40.167 L 298.031 40.167 295.891 44.392 M333.500 51.583 L 333.500 63.000 335.417 63.000 L 337.333 63.000 337.333 55.343 L 337.333 47.687 338.208 48.626 C 338.690 49.142,339.245 49.719,339.443 49.907 C 339.642 50.096,340.901 51.487,342.243 53.000 C 343.585 54.512,345.378 56.500,346.227 57.417 C 347.077 58.333,348.554 59.961,349.511 61.034 L 351.250 62.985 352.375 62.992 L 353.500 63.000 353.500 51.583 L 353.500 40.167 351.668 40.167 L 349.837 40.167 349.793 47.984 L 349.750 55.801 348.750 54.658 C 347.377 53.089,341.981 47.115,340.103 45.083 C 339.256 44.167,337.905 42.685,337.101 41.792 L 335.640 40.167 334.570 40.167 L 333.500 40.167 333.500 51.583 M300.375 48.000 C 300.874 48.962,301.786 50.706,302.402 51.875 L 303.522 54.000 299.414 54.000 C 296.928 54.000,295.327 53.938,295.361 53.844 C 295.637 53.067,299.276 46.054,299.359 46.139 C 299.419 46.200,299.876 47.038,300.375 48.000 " stroke="none" fill="#54c4cc" fill-rule="evenodd"></path><path id="path1" d="M152.833 43.583 L 152.833 87.167 153.917 87.167 L 155.000 87.167 155.000 43.583 L 155.000 0.000 153.917 0.000 L 152.833 0.000 152.833 43.583 M1.243 17.500 C 1.463 18.264,1.696 24.689,1.644 28.542 L 1.583 33.000 2.542 33.000 C 3.255 33.000,3.500 32.940,3.500 32.765 C 3.500 31.893,4.111 28.103,4.501 26.555 C 5.370 23.108,6.426 21.505,8.531 20.439 C 10.896 19.242,10.540 19.277,21.061 19.210 L 30.538 19.149 30.153 19.783 C 29.941 20.131,29.715 20.454,29.651 20.500 C 29.586 20.546,28.826 21.746,27.960 23.167 C 23.796 29.999,22.642 31.856,21.299 33.876 C 20.776 34.663,19.658 36.457,18.813 37.862 C 16.783 41.240,15.840 42.759,14.587 44.667 C 13.407 46.465,9.073 53.474,8.026 55.281 C 7.644 55.939,7.235 56.577,7.117 56.697 C 6.916 56.902,5.600 59.005,1.625 65.470 C 0.214 67.764,0.000 68.210,0.000 68.848 L 0.000 69.583 18.431 69.583 L 36.863 69.583 36.774 69.000 C 36.497 67.186,36.298 61.756,36.371 58.042 L 36.455 53.833 35.514 53.833 L 34.573 53.833 34.283 56.138 C 33.205 64.698,31.079 67.162,24.333 67.667 C 20.670 67.942,7.262 67.881,7.552 67.591 C 7.685 67.458,8.414 66.314,9.172 65.050 C 9.929 63.785,11.551 61.122,12.775 59.132 C 13.999 57.142,15.000 55.470,15.000 55.417 C 15.000 55.363,15.131 55.177,15.292 55.003 C 15.564 54.708,19.247 48.790,19.961 47.500 C 20.471 46.580,22.536 43.259,22.656 43.167 C 22.716 43.121,23.181 42.408,23.688 41.583 C 26.089 37.683,29.332 32.350,29.666 31.750 C 29.871 31.383,30.092 31.046,30.157 31.000 C 30.298 30.901,32.910 26.711,34.157 24.583 C 35.409 22.448,37.355 19.297,37.614 18.987 C 37.734 18.842,37.833 18.392,37.833 17.987 L 37.833 17.250 19.502 17.250 C 3.287 17.250,1.179 17.279,1.243 17.500 M43.667 18.028 L 43.667 18.807 44.792 18.914 C 47.639 19.185,48.497 19.578,49.167 20.917 L 49.583 21.750 49.628 42.917 C 49.659 57.556,49.618 64.350,49.493 64.948 C 49.100 66.845,48.117 67.540,45.375 67.861 L 43.667 68.061 43.667 68.827 L 43.667 69.592 63.016 69.588 L 82.365 69.583 82.271 68.833 C 81.996 66.645,81.801 61.177,81.885 58.034 L 81.980 54.484 81.039 54.534 L 80.099 54.583 79.808 56.696 C 78.517 66.096,76.267 67.835,65.417 67.818 C 59.602 67.809,58.288 67.493,57.500 65.917 L 57.083 65.083 57.036 54.625 L 56.988 44.167 59.977 44.167 C 64.353 44.167,65.926 44.788,67.012 46.947 C 67.235 47.388,67.463 47.788,67.519 47.833 C 67.698 47.978,68.145 50.026,68.338 51.583 C 68.642 54.029,68.525 53.833,69.683 53.833 L 70.693 53.833 70.603 53.375 C 70.356 52.114,70.128 43.508,70.207 38.375 L 70.295 32.667 69.333 32.667 L 68.372 32.667 68.255 33.792 C 68.102 35.258,67.687 37.462,67.499 37.810 C 67.417 37.960,67.153 38.542,66.912 39.103 C 65.836 41.609,64.548 42.223,60.202 42.304 L 56.988 42.364 57.036 32.057 L 57.083 21.750 57.500 20.917 C 57.808 20.301,58.113 19.974,58.667 19.667 L 59.417 19.250 65.165 19.198 C 75.831 19.102,77.293 20.126,78.329 28.417 C 78.633 30.849,78.523 30.667,79.681 30.667 C 80.562 30.667,80.678 30.630,80.605 30.375 C 80.269 29.217,80.359 22.836,80.774 18.333 L 80.873 17.250 62.270 17.250 L 43.667 17.250 43.667 18.028 M88.667 18.042 C 88.667 18.573,88.737 18.833,88.879 18.833 C 91.883 18.833,93.758 19.755,94.298 21.495 C 94.746 22.940,94.736 63.424,94.287 64.874 C 93.713 66.731,92.576 67.540,90.089 67.861 L 88.667 68.044 88.667 68.814 L 88.667 69.583 96.000 69.588 L 103.333 69.593 103.333 68.823 L 103.333 68.053 101.777 67.862 C 99.031 67.525,97.923 66.918,97.188 65.351 L 96.750 64.417 96.710 43.500 L 96.670 22.583 97.926 24.500 C 98.617 25.554,100.013 27.729,101.029 29.333 C 102.993 32.434,104.289 34.431,106.375 37.570 C 107.085 38.639,107.667 39.550,107.667 39.593 C 107.667 39.695,112.396 47.064,112.652 47.361 C 112.757 47.483,114.075 49.533,115.579 51.917 C 119.365 57.915,120.214 59.237,120.343 59.333 C 120.477 59.435,122.926 63.202,123.018 63.450 C 123.054 63.547,124.021 65.096,125.167 66.892 L 127.250 70.158 128.287 70.162 L 129.325 70.167 129.372 46.458 C 129.425 20.087,129.350 21.751,130.532 20.406 C 131.333 19.493,132.025 19.225,134.375 18.917 L 135.167 18.813 135.167 18.031 L 135.167 17.250 127.917 17.250 L 120.667 17.250 120.667 18.030 L 120.667 18.809 121.625 18.909 C 124.795 19.237,126.092 19.931,126.785 21.669 C 127.064 22.368,127.086 23.536,127.123 39.583 L 127.163 56.750 126.456 55.629 C 125.537 54.170,121.861 48.470,119.118 44.250 C 117.926 42.417,116.463 40.129,115.867 39.167 C 114.418 36.828,113.313 35.145,113.004 34.804 C 112.864 34.651,111.966 33.263,111.007 31.721 C 109.215 28.836,105.977 23.822,105.670 23.456 C 105.574 23.343,104.643 21.904,103.600 20.260 L 101.704 17.269 95.185 17.260 L 88.667 17.250 88.667 18.042 " stroke="none" fill="#040404" fill-rule="evenodd"></path></g></svg> 