<svg width="567" height="159" viewBox="0 0 567 159" fill="none"
	xmlns="http://www.w3.org/2000/svg">
	<path d="M198 0.199997V152H241.6V0.199997H198Z" fill="#E30613"/>
	<path d="M265.3 0.199997V152H308.9V0.199997H265.3Z" fill="#E30613"/>
	<path d="M359.6 100.9C360.6 122.9 371.7 132.9 391.7 132.9C406.1 132.9 417.7 124.4 419.9 116.6H451.5C441.4 146.4 419.9 159 390.3 159C349.2 159 323.6 131.7 323.6 92.6C323.6 54.8 350.6 26 390.3 26C434.7 26 456.2 62.1 453.7 100.9H359.6ZM417.9 78.9C414.6 61.3 406.8 52.1 389.4 52.1C366.7 52.1 360.1 69.2 359.6 78.9H417.9Z" fill="#E30613"/>
	<path d="M471 36.1H509.9V57.6H510.5C517.9 43.1 538.1 33 558 33C561 33 564 33.4 566.9 34.1V63.7C562 63 557.1 62.6 552.2 62.6C522.2 62.6 511.9 79.4 511.9 99.8V152H471V36.1Z" fill="#E30613"/>
	<path d="M96.5 154.9L131.7 115.8L148 152H192.5V151.8L128 0.199997H65.1L0.600006 151.8H0.700006V152H45L61.3 115.8L96.5 154.9ZM76 81.7L96.5 34.1L117 81.7L96.5 110.6L76 81.7Z" fill="#E30613"/>
</svg>
