<svg class="navlogo-svg" version="1.1" id="Layer_1"
  xmlns="http://www.w3.org/2000/svg"
  xmlns:xlink="http://www.w3.org/1999/xlink" x="0px" y="0px" width="83.1px" height="76px" viewBox="0 0 113 103" style="enable-background:new 0 0 113 103;" xml:space="preserve">
  <style type="text/css">
 .st0 {
 fill: #FFFFFF;
 }
 
 .st1 {
 fill: #FFC20E;
 }
 
 .st2 {
 fill: #111111;
 }
  </style>
  <g>
    <path class="st0" d="M56.5,102.8c-29,0-48.9-7-50.5-7.5c-2.1-0.7-5.6-2.5-5.6-6.8V14.9c0-2.2,1-5.2,5.6-6.8
 C7.7,7.4,27,0.3,56.5,0.3c29.5,0,48.8,7.1,50.6,7.8c4.6,1.6,5.6,4.5,5.6,6.8v73.6c0,3.2-1.9,5.5-5.5,6.8
 C105.5,95.9,87.2,102.8,56.5,102.8z"></path>
    <g>
      <path class="st1" d="M109.5,89.3c0,1.5-1.1,2.2-2.8,2.8c0,0-18.4,7.5-50.2,7.5c-29.9,0-50.2-7.5-50.2-7.5
 c-1.6-0.5-2.8-1.3-2.8-2.8V14.1c0-1.5,1.2-2.3,2.8-2.8c0,0,19.7-7.7,50.2-7.7c30.5,0,50.2,7.7,50.2,7.7c1.6,0.5,2.8,1.3,2.8,2.8
 V89.3z"></path>
    </g>
    <g>
      <path class="st0" d="M17.5,71.2h9v2.6h-5.4v2.7h5.3v2.6h-5.3v4.9h-3.5V71.2z"></path>
      <path class="st0" d="M30.2,71.2h3.5v12.9h-3.5V71.2z"></path>
      <path class="st0" d="M37.9,71.2h4.4l3.2,6.3c0.4,0.8,0.8,1.8,1.1,2.8h0.2c-0.1-0.6-0.2-1.5-0.2-2.7v-6.3h3.3v12.9h-4.5l-3.3-6.6
 c-0.5-1-0.9-2-0.9-2.5h-0.1c0,0.7,0.1,1.2,0.1,2v7.1h-3.3V71.2z"></path>
      <path class="st0" d="M66.5,84.1h-3.7L62,81.4h-4.8l-0.9,2.6h-3.5l4.7-12.9H62L66.5,84.1z M61.2,78.9l-1-3c-0.3-0.8-0.5-1.6-0.5-2
 h-0.1c-0.1,0.7-0.4,1.5-0.6,2l-1,3H61.2z"></path>
      <path class="st0" d="M69.5,71.2h4.4l3.2,6.3c0.4,0.8,0.8,1.8,1.1,2.8h0.2c-0.1-0.6-0.2-1.5-0.2-2.7v-6.3h3.3v12.9H77l-3.3-6.6
 c-0.5-1-0.9-2-0.9-2.5h-0.1c0,0.7,0.1,1.2,0.1,2v7.1h-3.3V71.2z"></path>
      <path class="st0" d="M88.1,79.9c0,0.5,0.5,1.8,2.1,1.8c1,0,1.8-0.4,1.8-1.2c0-0.7-0.4-1-1.7-1.4l-2.1-0.7c-1.6-0.6-3-1.7-3-3.5
 c0-2.7,2.4-4,5.4-4c3.7,0,4.3,2.2,4.6,2.9l-3.1,1c-0.1-0.4-0.5-1.4-1.7-1.4c-1.2,0-1.7,0.5-1.7,1.1c0,0.7,0.4,0.9,1.7,1.4l2.4,0.9
 c1.7,0.6,2.7,1.6,2.7,3.3c0,1.9-1.3,4.2-5.5,4.2c-3.9,0-4.7-2.4-5-3.2L88.1,79.9z"></path>
    </g>
    <g>
      <g>
        <path class="st2" d="M16.7,34.7c1.6-4.8,5.3-9,12.4-9c9.3,0,11.6,6.4,11.6,12.5v15.7c0,3.3,0.2,8.2,0.2,8.9h-3.6L37.1,57
 c-2.9,3.2-6.3,6.6-11.9,6.6c-6.4,0-10.2-4.4-10.2-10.2c0-11.1,10.2-12.4,19.6-12.4h2.5c-0.2-6.5-0.4-12-8.4-12
 c-5.6,0-7.4,4-8.7,6.9L16.7,34.7z M37.1,43.9h-2.4c-9.1,0-15.8,1.2-15.8,9c0,5.4,3.7,7.1,6.9,7.1c4.5,0,6.9-2.5,11.3-6.7V43.9z"></path>
        <path class="st2" d="M43.4,26.4h4.4l9,14.5l9.7-14.5h4.1L59.2,43.5l12.3,19.3H67L56.8,46.4L46.2,62.8h-4.4l12.6-19.1L43.4,26.4z"></path>
        <path class="st2" d="M83.8,25.7c12.1,0,14.7,11.7,14.7,19.1c0,9.2-4.2,18.8-14.7,18.8c-10.5,0-14.7-9.6-14.7-18.8
 C69.1,37.4,71.7,25.7,83.8,25.7z M83.8,60.3c6.7,0,10.9-5.5,10.9-16.3c0-7.4-3-15-10.9-15c-7.9,0-10.9,7.6-10.9,15
 C72.9,54.8,77.1,60.3,83.8,60.3z"></path>
      </g>
      <g>
        <path class="st2" d="M96.3,28c0-1.5,1.2-2.3,2.4-2.3c1.2,0,2.4,0.8,2.4,2.3c0,1.5-1.2,2.3-2.4,2.3C97.4,30.3,96.3,29.4,96.3,28z
 M100.3,28c0-1-0.7-1.7-1.6-1.7C97.8,26.3,97,27,97,28c0,1,0.7,1.7,1.6,1.7C99.5,29.7,100.3,29,100.3,28z M98.3,29.2h-0.6v-2.5
 h0.9c0.7,0,1.1,0.2,1.1,0.8c0,0.5-0.3,0.6-0.7,0.7l0.6,1.1H99l-0.6-1h-0.2V29.2z M98.8,27.7c0.2,0,0.3-0.1,0.3-0.3
 c0-0.2-0.3-0.3-0.5-0.3h-0.3v0.6H98.8z"></path>
      </g>
    </g>
  </g>
</svg>