<?xml version="1.0" encoding="utf-8"?>
<!-- Generator: Adobe Illustrator 23.0.3, SVG Export Plug-In . SVG Version: 6.00 Build 0)  -->
<svg version="1.1" id="Layer_1" xmlns="http://www.w3.org/2000/svg" xmlns:xlink="http://www.w3.org/1999/xlink" x="0px" y="0px"
	 viewBox="0 0 198.65 67.2" style="enable-background:new 0 0 198.65 67.2;" xml:space="preserve">
<style type="text/css">
	.st0{fill:#DA291C;}
	.st1{fill:#001871;}
</style>
<g>
	<path class="st0" d="M180.1,50.6c5.15-4.93,17.21-16.49,17.21-28.54c0-12.15-9.69-22.03-21.59-22.03c-11.91,0-21.6,9.88-21.6,22.03
		h4.79c0-9.51,7.54-17.24,16.8-17.24c9.26,0,16.97,7.73,16.97,17.24c0,10.01-10.96,20.23-15.62,25.08l-3.9,3.98h6.41L180.1,50.6"/>
	<path class="st0" d="M164.44,54.75l13.91-13.9c4.06-4.01,10.86-10.72,10.86-18.7c0-7.48-6.09-13.57-13.57-13.57
		c-7.46,0-13.53,6.05-13.57,13.5h4.76c0.04-4.82,3.98-8.74,8.81-8.74c4.86,0,8.81,3.95,8.81,8.81c0,5.99-5.68,11.6-9.45,15.31
		l-21.72,21.71h6.73l0,0h38.55v-4.42H164.44"/>
	<g>
		<g>
			<path class="st1" d="M25.63,40c0,0-0.22-0.15-0.43-0.3c0.2-0.17,0.4-0.35,0.4-0.35c1.95-1.72,2.11-4.56,2.11-7.56
				c0-7.66-2.23-9.75-10.38-9.75H0v37.13h16.12c8.62,0,12.46-1.56,12.46-10.82C28.58,44.56,28.08,41.69,25.63,40z M5.84,27.79
				c0.21,0,0.42,0,0.42,0h9.52c2.61,0,4.25,0.03,5.03,0.59c0.73,0.53,0.86,1.66,0.86,3.85c0,4.37-0.51,4.97-4.19,4.97
				c0,0-10.91,0-11.63,0V27.79z M17.62,53.46c0,0-11.06,0-11.77,0V42.8c0.21,0,0.42,0,0.42,0h8.95c3.27,0,5.22,0.13,6.19,0.81
				c0.92,0.65,1.09,1.93,1.09,4.21C22.49,52.66,22.35,53.46,17.62,53.46z"/>
		</g>
		<g>
			<path class="st1" d="M53.96,22.04h-7.78L32.44,59.17h6.17c0,0,3.11-8.51,3.29-8.98c0.51,0,16.19,0,16.34,0
				c0.17,0.47,3.33,8.98,3.33,8.98h6.17L53.96,22.04z M50.07,28.01c0.62,1.69,5.82,15.75,6.16,16.66c-0.92,0-11.37,0-12.28,0
				L50.07,28.01z"/>
		</g>
		<g>
			<path class="st1" d="M102.88,22.04h-5.51c0,0,0,26.23,0,28.71c-1.3-2.15-17.44-28.71-17.44-28.71h-7.6v37.13h5.93
				c0,0,0-26.27,0-28.76c1.3,2.15,17.42,28.76,17.42,28.76h7.58V22.04H102.88z"/>
		</g>
		<g>
			<path class="st1" d="M143.45,22.04h-7.04c0,0-14.91,14.92-15.13,15.14c-0.23,0-1.29,0-1.77,0c0-0.72,0-15.13,0-15.13h-5.89v37.13
				h5.89c0,0,0-15.64,0-16.37c0.3,0,0.55,0,0.7,0c0.22,0.22,16.36,16.37,16.36,16.37h7.95c0,0-18.12-18.12-18.64-18.64
				c0.52-0.52,18.48-18.49,18.48-18.49H143.45z"/>
		</g>
	</g>
	<g>
		<path class="st0" d="M180.18,50.6c5.15-4.94,17.21-16.5,17.21-28.55C197.39,9.89,187.7,0,175.79,0
			c-11.92,0-21.61,9.89-21.61,22.04h4.79c0-9.51,7.54-17.25,16.81-17.25c9.26,0,16.97,7.74,16.97,17.25
			c0,10.01-10.97,20.24-15.62,25.09l-3.9,3.98h6.41L180.18,50.6z"/>
	</g>
	<g>
		<rect x="152.58" y="62.78" class="st0" width="46.07" height="4.41"/>
	</g>
	<g>
		<path class="st0" d="M164.5,54.74l13.91-13.91c4.07-4.01,10.87-10.73,10.87-18.71c0-7.48-6.09-13.57-13.57-13.57
			c-7.46,0-13.53,6.05-13.58,13.5h4.76c0.04-4.83,3.98-8.74,8.82-8.74c4.86,0,8.82,3.96,8.82,8.82c0,5.99-5.69,11.61-9.45,15.32
			l-21.72,21.72h6.73l0,0h38.57v-4.42H164.5z"/>
	</g>
</g>
</svg>
