<svg width="210px" height="90" viewBox="0 0 312 87" fill="none" xmlns="http://www.w3.org/2000/svg">
<path d="M282.795 21.7246H278.445V49.8453H282.795V21.7246Z" fill="#5B6670"/>
<path d="M311.097 21.8624L304.504 21.7236L291.12 32.9441L287.742 35.7897L291.12 38.6238L304.504 49.8443H311.259L294.509 35.7897L311.097 21.8624Z" fill="#5B6670"/>
<path d="M31.9264 0C18.3577 0 6.767 8.46743 2.13999 20.4051L19.4797 26.9523C21.4578 22.013 26.2814 18.5312 31.9264 18.5312C39.3296 18.5312 45.3215 24.5347 45.3215 31.9264C45.3215 39.3296 39.318 45.3216 31.9264 45.3216C24.5231 45.3216 18.5312 39.318 18.5312 31.9264C18.5312 31.5793 18.5427 31.2323 18.5659 30.8853L0.0231334 30.7002C0.0115658 31.1051 0 31.5099 0 31.9264C0 49.5553 14.2975 63.8527 31.9264 63.8527C49.5553 63.8527 63.8527 49.5553 63.8527 31.9264C63.8527 14.2859 49.5553 0 31.9264 0Z" fill="#002F87"/>
<path d="M115.711 26.3851H115.757V26.2578C115.746 26.2925 115.723 26.3388 115.711 26.3851Z" fill="#AE509E"/>
<path d="M148.528 31.1848V28.7209C148.528 24.1633 145.879 21.8498 140.593 21.792C140.523 21.792 140.466 21.792 140.396 21.792L115.734 21.8151L115.723 49.8548H140.396C145.821 49.8548 148.54 47.5066 148.54 42.7986V40.4504C148.227 38.3335 147.233 36.876 145.532 36.0663C147.221 35.5458 148.227 33.9148 148.528 31.1848ZM140.639 45.1699H120.396V38.1138H140.732C142.791 38.1138 143.82 39.2936 143.82 41.665C143.809 44.0016 142.756 45.1699 140.639 45.1699ZM140.72 33.4405H120.373V26.4306H140.72C142.779 26.4306 143.809 27.5989 143.809 29.9355C143.809 32.2722 142.779 33.4405 140.72 33.4405Z" fill="#5B6670"/>
<path d="M78.6562 68.2151H78.7025V68.0879C78.6909 68.1226 78.6678 68.1689 78.6562 68.2151Z" fill="#AE509E"/>
<path d="M78.3516 26.386H78.3978V26.2588C78.3863 26.2935 78.3631 26.3398 78.3516 26.386Z" fill="#AE509E"/>
<path d="M111.169 31.1858V28.7219C111.169 24.1643 108.52 21.8508 103.233 21.793C103.164 21.793 103.106 21.793 103.037 21.793L78.3748 21.8161L78.3633 49.8558H103.037C108.462 49.8558 111.18 47.5076 111.18 42.7996V40.4514C110.868 38.3345 109.873 36.877 108.173 36.0673C109.862 35.5468 110.868 33.9157 111.169 31.1858ZM103.28 45.1709H83.0366V38.1147H103.372C105.431 38.1147 106.461 39.2946 106.461 41.666C106.449 44.0026 105.397 45.1709 103.28 45.1709ZM103.361 33.4415H83.0134V26.4315H103.361C105.42 26.4315 106.449 27.5999 106.449 29.9365C106.449 32.2731 105.42 33.4415 103.361 33.4415Z" fill="#5B6670"/>
<path d="M167.336 26.3851H167.382V26.2578C167.359 26.2925 167.348 26.3388 167.336 26.3851Z" fill="#AE509E"/>
<path d="M200.141 31.1848V28.7209C200.141 24.1633 197.492 21.8498 192.206 21.792C192.137 21.792 192.079 21.792 192.009 21.792L167.347 21.8151L167.336 49.8548H192.009C197.435 49.8548 200.153 47.5066 200.153 42.7986V40.4504C199.841 38.3335 198.846 36.876 197.145 36.0663C198.834 35.5458 199.841 33.9148 200.141 31.1848ZM192.252 45.1699H172.009V38.1138H192.345C194.404 38.1138 195.433 39.2936 195.433 41.665C195.433 44.0016 194.369 45.1699 192.252 45.1699ZM192.333 33.4405H171.986V26.4306H192.333C194.392 26.4306 195.422 27.5989 195.422 29.9355C195.433 32.2722 194.404 33.4405 192.333 33.4405Z" fill="#5B6670"/>
<path d="M265.663 47.2994L244.749 28.9764V49.8558H240.156V24.6386C240.156 22.7415 240.931 21.8045 242.493 21.8045H243.707C244.54 21.8855 245.616 22.406 246.923 23.3546L268.3 42.4757V21.793H272.973V47.0564C272.973 48.9188 272.21 49.8558 270.671 49.8558H269.758C268.728 49.7632 267.363 48.9188 265.663 47.2994Z" fill="#5B6670"/>
<path d="M231.847 49.8446H236.52L224.826 26.4203C224.409 25.6106 224.039 24.9281 223.715 24.3729C223.391 23.8177 223.114 23.4012 222.859 23.1236C222.165 22.3486 221.263 21.8859 220.141 21.7471C219.03 21.8859 218.128 22.3601 217.423 23.1699C216.89 23.783 216.243 24.8703 215.456 26.4319L203.727 49.8561H208.365L210.528 45.5762H229.696L231.847 49.8446ZM212.472 41.7589L219.03 28.7686C219.47 27.8779 219.863 27.4383 220.199 27.4383C220.499 27.4383 220.881 27.8779 221.332 28.7686L227.81 41.7589H212.472Z" fill="#5B6670"/>
<path d="M110.415 80.8379V79.5049L112.14 79.2087V67.0745L110.415 66.7783V65.4347H122.243V69.1374H120.455L120.286 67.0745H114.224V72.0572H120.116V73.697H114.224V79.2087H120.413L120.582 77.1458H122.359V80.8379H110.415ZM124.115 79.5049L125.84 79.2087V71.0311L124.115 70.7349V69.3913H127.702L127.85 71.0945C128.231 70.488 128.707 70.019 129.278 69.6875C129.856 69.349 130.512 69.1797 131.246 69.1797C132.48 69.1797 133.436 69.5429 134.113 70.2694C134.79 70.9888 135.128 72.1031 135.128 73.6124V79.2087L136.853 79.5049V80.8379H131.32V79.5049L133.044 79.2087V73.6547C133.044 72.6461 132.843 71.9303 132.441 71.5071C132.046 71.084 131.44 70.8724 130.622 70.8724C130.022 70.8724 129.49 71.017 129.024 71.3061C128.566 71.5953 128.199 71.9902 127.924 72.491V79.2087L129.648 79.5049V80.8379H124.115V79.5049ZM143.295 70.9359V69.3913H145.083V68.1536C145.083 66.87 145.46 65.8755 146.215 65.1702C146.97 64.465 148.014 64.1123 149.347 64.1123C149.812 64.1123 150.277 64.1688 150.743 64.2816C151.208 64.3944 151.744 64.5531 152.351 64.7577L152.002 66.4503C151.628 66.3022 151.23 66.1753 150.806 66.0695C150.383 65.9637 149.95 65.9108 149.505 65.9108C148.673 65.9108 148.073 66.0942 147.707 66.4609C147.347 66.8276 147.167 67.3919 147.167 68.1536V69.3913H153.695V79.2087L155.419 79.5049V80.8379H149.886V79.5049L151.61 79.2087V70.9359H147.167V79.2087L148.892 79.5049V80.8379H143.359V79.5049L145.083 79.2087V70.9359H143.295ZM156.593 65.678V64.3345H160.402V79.2087L162.126 79.5049V80.8379H156.593V79.5049L158.318 79.2087V65.9743L156.593 65.678ZM163.713 79.5049L165.437 79.2087V71.0311L163.713 70.7349V69.3913H167.521V79.2087L169.246 79.5049V80.8379H163.713V79.5049ZM167.521 66.4609H165.437V64.3345H167.521V66.4609ZM178.312 80.8379C178.249 80.5276 178.199 80.249 178.164 80.0021C178.129 79.7553 178.104 79.5085 178.09 79.2616C177.688 79.7765 177.184 80.2067 176.577 80.5523C175.978 80.8908 175.336 81.0601 174.652 81.0601C173.46 81.0601 172.554 80.7709 171.933 80.1926C171.312 79.6072 171.002 78.7855 171.002 77.7276C171.002 76.6415 171.439 75.8058 172.314 75.2204C173.195 74.628 174.401 74.3317 175.932 74.3317H178.079V72.9988C178.079 72.3288 177.868 71.7998 177.445 71.4119C177.021 71.017 176.433 70.8195 175.678 70.8195C175.156 70.8195 174.694 70.8865 174.292 71.0205C173.897 71.1545 173.576 71.3379 173.329 71.5706L173.107 72.7766H171.499V70.555C172.021 70.1389 172.652 69.8074 173.393 69.5606C174.133 69.3067 174.937 69.1797 175.805 69.1797C177.103 69.1797 178.153 69.5112 178.957 70.1742C179.761 70.8371 180.163 71.7857 180.163 73.0199V78.5316C180.163 78.6798 180.163 78.8243 180.163 78.9654C180.17 79.1064 180.181 79.2475 180.195 79.3886L181.041 79.5049V80.8379H178.312ZM174.959 79.3145C175.65 79.3145 176.281 79.1488 176.852 78.8173C177.423 78.4858 177.832 78.0873 178.079 77.6218V75.7388H175.858C175.004 75.7388 174.327 75.9362 173.827 76.3312C173.333 76.7261 173.086 77.2057 173.086 77.77C173.086 78.2707 173.241 78.6551 173.551 78.9231C173.862 79.184 174.331 79.3145 174.959 79.3145ZM182.491 65.678V64.3345H186.299V79.2087L188.024 79.5049V80.8379H182.491V79.5049L184.215 79.2087V65.9743L182.491 65.678ZM202.475 80.8379C202.411 80.5276 202.362 80.249 202.327 80.0021C202.291 79.7553 202.267 79.5085 202.253 79.2616C201.851 79.7765 201.346 80.2067 200.74 80.5523C200.14 80.8908 199.498 81.0601 198.814 81.0601C197.622 81.0601 196.716 80.7709 196.096 80.1926C195.475 79.6072 195.165 78.7855 195.165 77.7276C195.165 76.6415 195.602 75.8058 196.476 75.2204C197.358 74.628 198.564 74.3317 200.094 74.3317H202.242V72.9988C202.242 72.3288 202.03 71.7998 201.607 71.4119C201.184 71.017 200.595 70.8195 199.841 70.8195C199.319 70.8195 198.857 70.8865 198.455 71.0205C198.06 71.1545 197.739 71.3379 197.492 71.5706L197.27 72.7766H195.662V70.555C196.184 70.1389 196.815 69.8074 197.555 69.5606C198.296 69.3067 199.1 69.1797 199.967 69.1797C201.265 69.1797 202.316 69.5112 203.12 70.1742C203.924 70.8371 204.326 71.7857 204.326 73.0199V78.5316C204.326 78.6798 204.326 78.8243 204.326 78.9654C204.333 79.1064 204.344 79.2475 204.358 79.3886L205.204 79.5049V80.8379H202.475ZM199.121 79.3145C199.812 79.3145 200.444 79.1488 201.015 78.8173C201.586 78.4858 201.995 78.0873 202.242 77.6218V75.7388H200.02C199.167 75.7388 198.49 75.9362 197.989 76.3312C197.496 76.7261 197.249 77.2057 197.249 77.77C197.249 78.2707 197.404 78.6551 197.714 78.9231C198.024 79.184 198.493 79.3145 199.121 79.3145ZM210.695 70.7349L209.319 70.9464L211.679 77.4632L211.869 78.2883H211.932L212.133 77.4632L214.419 70.9464L213.033 70.7349V69.3913H217.455V70.7349L216.513 70.8935L212.673 80.8379H211.097L207.214 70.8935L206.273 70.7349V69.3913H210.695V70.7349ZM236.518 65.4347V68.8412H234.741L234.582 67.0745H231.165V79.2087L232.89 79.5049V80.8379H227.357V79.5049L229.081 79.2087V67.0745H225.654L225.505 68.8412H223.718V65.4347H236.518ZM237.661 79.5049L239.385 79.2087V67.0745L237.661 66.7783V65.4347H249.562V69.1374H247.785L247.616 67.0745H241.469V72.3852H247.425V74.025H241.469V79.2087L243.194 79.5049V80.8379H237.661V79.5049ZM263.283 65.4347C264.891 65.4347 266.147 65.7838 267.05 66.4821C267.959 67.1732 268.414 68.2135 268.414 69.6029C268.414 70.287 268.196 70.9006 267.758 71.4437C267.328 71.9797 266.757 72.3781 266.045 72.6391C266.968 72.8366 267.698 73.2915 268.234 74.0038C268.77 74.7161 269.038 75.5448 269.038 76.4899C269.038 77.9004 268.58 78.9795 267.663 79.7271C266.746 80.4676 265.505 80.8379 263.939 80.8379H256.534V79.5049L258.258 79.2087V67.0745L256.534 66.7783V65.4347H258.258H263.283ZM260.342 73.6124V79.2087H263.939C264.891 79.2087 265.628 78.976 266.15 78.5105C266.679 78.038 266.944 77.3715 266.944 76.511C266.944 75.6083 266.722 74.8995 266.277 74.3846C265.84 73.8698 265.166 73.6124 264.257 73.6124H260.342ZM260.342 71.9832H263.823C264.571 71.962 265.174 71.7399 265.632 71.3167C266.097 70.8935 266.33 70.3082 266.33 69.5606C266.33 68.7283 266.069 68.1077 265.547 67.6987C265.025 67.2825 264.271 67.0745 263.283 67.0745H260.342V71.9832ZM278.433 80.8379C278.369 80.5276 278.32 80.249 278.285 80.0021C278.249 79.7553 278.225 79.5085 278.21 79.2616C277.808 79.7765 277.304 80.2067 276.698 80.5523C276.098 80.8908 275.456 81.0601 274.772 81.0601C273.58 81.0601 272.674 80.7709 272.053 80.1926C271.433 79.6072 271.123 78.7855 271.123 77.7276C271.123 76.6415 271.56 75.8058 272.434 75.2204C273.316 74.628 274.522 74.3317 276.052 74.3317H278.2V72.9988C278.2 72.3288 277.988 71.7998 277.565 71.4119C277.142 71.017 276.553 70.8195 275.798 70.8195C275.277 70.8195 274.815 70.8865 274.413 71.0205C274.018 71.1545 273.697 71.3379 273.45 71.5706L273.228 72.7766H271.62V70.555C272.142 70.1389 272.773 69.8074 273.513 69.5606C274.254 69.3067 275.058 69.1797 275.925 69.1797C277.223 69.1797 278.274 69.5112 279.078 70.1742C279.882 70.8371 280.284 71.7857 280.284 73.0199V78.5316C280.284 78.6798 280.284 78.8243 280.284 78.9654C280.291 79.1064 280.302 79.2475 280.316 79.3886L281.162 79.5049V80.8379H278.433ZM275.079 79.3145C275.77 79.3145 276.401 79.1488 276.973 78.8173C277.544 78.4858 277.953 78.0873 278.2 77.6218V75.7388H275.978C275.125 75.7388 274.448 75.9362 273.947 76.3312C273.453 76.7261 273.207 77.2057 273.207 77.77C273.207 78.2707 273.362 78.6551 273.672 78.9231C273.982 79.184 274.451 79.3145 275.079 79.3145ZM282.59 79.5049L284.315 79.2087V71.0311L282.59 70.7349V69.3913H286.177L286.325 71.0945C286.706 70.488 287.182 70.019 287.753 69.6875C288.331 69.349 288.987 69.1797 289.721 69.1797C290.955 69.1797 291.91 69.5429 292.587 70.2694C293.265 70.9888 293.603 72.1031 293.603 73.6124V79.2087L295.327 79.5049V80.8379H289.795V79.5049L291.519 79.2087V73.6547C291.519 72.6461 291.318 71.9303 290.916 71.5071C290.521 71.084 289.915 70.8724 289.096 70.8724C288.497 70.8724 287.964 71.017 287.499 71.3061C287.041 71.5953 286.674 71.9902 286.399 72.491V79.2087L288.123 79.5049V80.8379H282.59V79.5049ZM296.555 65.678V64.3345H300.363V73.898H301.696L304.14 70.8724L303.093 70.7349V69.3913H307.885V70.7349L306.488 71.0099L303.473 74.6068L307.144 79.251L308.446 79.5049V80.8379H303.696V79.5049L304.764 79.3674L301.728 75.5589H300.363V79.2087L302.088 79.5049V80.8379H296.555V79.5049L298.279 79.2087V65.9743L296.555 65.678Z" fill="#727A83"/>
</svg>