<svg width="210" height="90" xmlns="http://www.w3.org/2000/svg" xmlns:xlink="http://www.w3.org/1999/xlink" viewBox="0 0 1200 400"><path fill="#1b4949" d="M0 0h1200v400H0z"></path><defs><path id="a" d="M-32.9 4h1265.7v422H-32.9z"></path></defs><clipPath id="b"><use xlink:href="#a" overflow="visible"></use></clipPath><g clip-path="url(#b)"><defs><path id="c" d="M-32.9 4h1265.7v422H-32.9z"></path></defs><clipPath id="d"><use xlink:href="#c" overflow="visible"></use></clipPath><path d="M118 275.3V109.6h70.9c17.1 0 30.5 3.6 40.3 10.7 9.8 7.2 14.7 17.1 14.7 29.9 0 8.2-1.8 14.9-5.5 20.2-3.7 5.3-9 10.1-15.9 14.4 18.9 8 28.4 21.6 28.4 40.7 0 15.1-5.7 27.1-17.2 36.2-11.5 9-25.6 13.5-42.4 13.5H118zm38.1-135.9v32.8h32.1c6.3 0 11.3-1.5 14.9-4.5 3.6-3 5.4-7 5.4-12.1s-1.8-9-5.3-11.9c-3.5-2.8-8.5-4.3-15-4.3h-32.1zm0 64v40.2h34c16 0 24-6.6 24-19.9 0-6.3-2-11.3-5.9-14.9-3.9-3.6-10-5.4-18.1-5.4h-34zm110.3-93.8H302v165.6h-35.6zm55.4 119.2v-70.9h35.6v63.3c0 7.5 1.8 13.4 5.4 17.6 3.6 4.2 8.7 6.2 15.4 6.2 7.7 0 13.6-2.8 17.6-8.5 4-5.7 6-13 6-21.9V158h35.6v117.4h-35.6v-17.1c-3.9 6.5-8.5 11.5-14 15s-12.9 5.3-22.3 5.3c-12.5 0-22.9-4.4-31.2-13.3s-12.5-21.1-12.5-36.5m249.8-24.9h-86.9c.9 7.1 4 12.7 9.4 16.7 5.3 4.1 11.6 6.1 18.8 6.1 12.6 0 22.6-6.2 29.8-18.5l25.6 14.6c-11.1 22.8-30 34.2-56.8 34.2-16.5 0-30.6-5.8-42.5-17.4-11.9-11.6-17.8-26.5-17.8-44.5 0-18.3 5.9-33.2 17.7-44.7 11.8-11.5 26.8-17.2 44.9-17.2 17.2 0 31.2 5.6 41.8 16.9 10.6 11.2 15.9 25.2 15.9 41.8v12zm-58.4-43.2c-6.5 0-12.1 1.6-16.9 4.9-4.8 3.2-8.2 7.7-10.2 13.4h53.6c-1.4-5.7-4.5-10.2-9.2-13.4-4.8-3.3-10.6-4.9-17.3-4.9m103.8 27c0 3.1 2.1 5.6 6.2 7.5 4.2 1.9 10.4 3.8 18.7 5.7 14.2 3.1 24.4 7.6 30.6 13.5 6.2 5.9 9.4 14 9.4 24.1 0 11.6-4.4 21.1-13.3 28.6s-20.4 11.3-34.5 11.3c-27 0-45.7-12.2-56.4-36.5L605 225c6.5 16.3 16.3 24.5 29.6 24.5 4.5 0 8-.8 10.7-2.4 2.7-1.6 4-3.9 4-6.8 0-3.4-1.7-6.1-5.2-8.1s-9.2-3.8-17.2-5.3c-12.2-2.3-22.1-6.6-29.7-12.9-7.6-6.3-11.4-14.6-11.4-24.7 0-10.6 4.3-19.1 12.8-25.3 8.5-6.2 19.1-9.4 31.5-9.4 12.9 0 23.2 2.4 30.7 7.2 7.5 4.8 14 12.4 19.4 22.9l-25.4 14.8c-2.2-6.5-5.4-11.4-9.7-14.8-4.3-3.4-9.2-5.1-14.6-5.1-9 0-13.5 2.7-13.5 8.1m70.6-2.3v-27.5h16.9v-31.6H740v31.6h24.3v27.5H740v46.4c0 4.6 1.2 8.3 3.5 11 2.3 2.7 5.5 4 9.5 4 4.2 0 7.9-.6 11.1-1.8l3.5 29.6c-7.1 2.6-15 3.9-23.8 3.9-10.9 0-20.2-3.2-27.8-9.5-7.6-6.3-11.4-16.4-11.4-30.3v-53.4h-17zm205 18.5h-86.9c.9 7.1 4 12.7 9.4 16.7 5.3 4.1 11.6 6.1 18.8 6.1 12.6 0 22.6-6.2 29.8-18.5l25.6 14.6c-11.1 22.8-30 34.2-56.8 34.2-16.5 0-30.6-5.8-42.5-17.4-11.9-11.6-17.8-26.5-17.8-44.5 0-18.3 5.9-33.2 17.7-44.7 11.8-11.5 26.8-17.2 44.9-17.2 17.2 0 31.2 5.6 41.8 16.9 10.6 11.2 15.9 25.2 15.9 41.8v12zm-58.4-43.2c-6.5 0-12.1 1.6-16.9 4.9-4.8 3.2-8.2 7.7-10.2 13.4h53.6c-1.4-5.7-4.5-10.2-9.2-13.4-4.8-3.3-10.5-4.9-17.3-4.9m72.7 162.9V157.9h35.6v13.4c9.2-11.1 22.2-16.6 38.8-16.6 14.3 0 26.9 5.5 37.7 16.4 10.8 10.9 16.2 26.1 16.2 45.5 0 19.3-5.5 34.4-16.5 45.4s-23.7 16.5-38 16.5c-15.9 0-28.6-5.2-38.1-15.5v60.5h-35.7zm83.8-128.3c-5.7-5.4-12.6-8.1-20.8-8.1-8.2 0-15.1 2.7-20.8 8.1-5.7 5.4-8.5 12.5-8.5 21.3s2.8 15.9 8.5 21.3 12.6 8.1 20.8 8.1c8.2 0 15.1-2.7 20.8-8.1 5.7-5.4 8.5-12.5 8.5-21.3s-2.8-15.9-8.5-21.3m54.8 43.5h36.5v36.5h-36.5z" clip-path="url(#d)" fill="#ffd37f"></path></g></svg>