<svg width="210" height="90" id="Layer_1" data-name="Layer 1" xmlns="http://www.w3.org/2000/svg" viewBox="0 0 419.77 119.37"><g id="Group_1" data-name="Group 1"><path id="Path_1" data-name="Path 1" d="M114.65,71.76a4.5,4.5,0,0,1-3.54-4.42,8.3,8.3,0,0,1,.21-1.4,4.18,4.18,0,0,1,4.32-3.22,13.35,13.35,0,0,1,1.77.21,53.9,53.9,0,0,0,14.86,2.48c8.51,0,11.2-3.34,11.2-7.64,0-4-2.69-6-12-7.75-13.45-2.6-19.91-7.77-19.91-17.55a14.61,14.61,0,0,1,5.6-11.86c3.66-2.9,8.84-4.4,15.72-4.4A49.63,49.63,0,0,1,146.26,18a4.38,4.38,0,0,1,3.54,4.4c0,.34-.1.76-.1,1.19A4.25,4.25,0,0,1,145.27,27a4.86,4.86,0,0,1-1.77-.21,39.35,39.35,0,0,0-10.61-1.61c-7.77,0-11.43,2.37-11.43,7.07,0,4.21,4.1,6.58,12,8.09,13.13,2.47,19.92,7,19.92,17.23,0,8.07-5.61,16.79-21.11,16.79A65.39,65.39,0,0,1,114.65,71.76Z" fill="#0c213f"/><path id="Path_2" data-name="Path 2" d="M206.07,20.58a5.13,5.13,0,0,1-.32,1.77L188.64,71.46C185,81.94,180,92.3,165.44,92.53h-.32a4.24,4.24,0,0,1-4.68-3.75h0a4.42,4.42,0,0,1,0-.63v-.32c0-2.35,1.4-4.07,4.71-4.28,6.52-.32,9.73-2.36,14.15-14.87l.32-.84a14.58,14.58,0,0,1-6.85-7.38v-.11L156.69,22.61a4.16,4.16,0,0,1-.43-1.93,4.47,4.47,0,0,1,4.63-4.28l.29,0a5.16,5.16,0,0,1,4.92,3l15.28,36c1,2.14,1.07,2.46,1.28,2.46s.21-.32.74-1.51l.11-.1,12.61-36.24a5.07,5.07,0,0,1,5.31-3.73,4.32,4.32,0,0,1,4.62,4C206.06,20.44,206.06,20.51,206.07,20.58Z" fill="#0c213f"/><path id="Path_3" data-name="Path 3" d="M259.46,44.94A84.47,84.47,0,0,1,259,55.73c-1.59,11.35-10.35,18.09-23.34,18.09s-21.87-6.74-23.44-18.09a73.38,73.38,0,0,1-.53-10.79V4.05a4.94,4.94,0,0,1,9.71,0V19.16A43.58,43.58,0,0,1,236,16.05c12.77,0,21.32,6.74,23,18.08A83,83,0,0,1,259.46,44.94Zm-9.71,0a75.68,75.68,0,0,0-.41-9.64c-1-6.83-5.61-10.37-13.73-10.37a53.4,53.4,0,0,0-14.26,2.78V44.94a81.13,81.13,0,0,0,.43,9.61c.95,6.85,5.59,10.39,13.83,10.39s12.78-3.54,13.73-10.39a75.21,75.21,0,0,0,.41-9.61Z" fill="#0c213f"/><path id="Path_4" data-name="Path 4" d="M355.11,70.19V41.88c0-7.43-1-11-3.54-13.25s-5.93-3.35-10.62-3.35-8.19,1.08-10.61,3.35-3.45,5.82-3.45,13.25V70.19a5,5,0,0,1-9.91,0V41.88c0-8.51,1.08-14.77,6.25-19.62,4.31-3.87,10.35-5.93,17.69-5.93s13.37,2.05,17.57,5.93c5.3,4.85,6.37,11.11,6.37,19.62V70.19a4.47,4.47,0,0,1-4.8,4.1C357.27,74.29,355.11,72.67,355.11,70.19Z" fill="#0c213f"/><path id="Path_5" data-name="Path 5" d="M419,69.55A4.61,4.61,0,0,1,414.23,74L414,74a5.82,5.82,0,0,1-4.31-1.76L389.89,50.9c-2.42-2.6-2.42-2.92-4.19-2.92h-4.53V69.89c0,2.48-2.26,4.09-4.95,4.09s-5-1.61-5-4.09V4.11a5.06,5.06,0,0,1,9.92,0V39h4.11c1.5,0,2.37-.63,5.07-3.24l17.7-17.56a5.85,5.85,0,0,1,4.52-1.77,4.57,4.57,0,0,1,5,4.13v.11A4.48,4.48,0,0,1,416,24.05L400.51,39.58a29.27,29.27,0,0,1-5.31,3.88A25.48,25.48,0,0,1,400.6,48l17.14,18.55A4.54,4.54,0,0,1,419,69.55Z" fill="#0c213f"/><path id="Path_6" data-name="Path 6" d="M48.73,57.18a6.33,6.33,0,0,0-2.89.8c-6.4,3.13-11.46,4.83-16.65,4.83-9.41,0-14.45-3.54-16.4-12.09a50.74,50.74,0,0,1-.4-23.88c1.66-9.18,7.43-13,16.84-13s14.6,4.34,15.67,12.72A19,19,0,0,1,45,29c0,2.47,0,3.69-2.18,4.26,0,0-17.69,2.87-21.85,4s-3,5.52-3,5.52.28,3.88,5.11,3.42,18.4-2.6,18.4-2.6c8.28-.66,14.6-3.72,14.7-14.16a27.31,27.31,0,0,0-.37-4.33C54.1,11.22,44.05,3,29.23,3S3.82,12.37,1.4,26.08A59.18,59.18,0,0,0,0,38.31a61,61,0,0,0,1.45,13c2.76,13.57,12.79,22.4,27.74,22.4A47.94,47.94,0,0,0,50.9,67.92a5.47,5.47,0,0,0,3-5,7.41,7.41,0,0,0-.6-2.62A4.72,4.72,0,0,0,48.73,57.18Z" fill="#0c213f"/><path id="Path_7" data-name="Path 7" d="M99.82,22.19c-4.19-3.88-10.33-5.91-17.53-5.91a59.13,59.13,0,0,0-17.45,2.26,4.37,4.37,0,0,0-3.54,4.3,8.59,8.59,0,0,0,.22,1.51,4.5,4.5,0,0,0,4.61,3.22,5.93,5.93,0,0,0,1.51-.22,48.43,48.43,0,0,1,14.65-2.14c4.61,0,8.17,1.07,10.44,3.33,1.92,1.61,2.9,4,3.22,8.07,0,.83.23,8,.21,8.4v3.88c0,7.43-.85,11-3.43,13.23-2.27,2.26-5.83,3.33-10.44,3.33-8,0-12.6-2.37-14.16-7.08a11.42,11.42,0,0,1-.42-3.54,12.6,12.6,0,0,1,.42-3.66C68.88,48.91,70.29,44,82.29,44c.35,0,2.79,0,3.8.11a5.53,5.53,0,0,0,1.52,0A4.54,4.54,0,0,0,91.54,40a9.64,9.64,0,0,0,0-1.52c-.41-2.11-4.09-2.92-6.3-3.05h0a29.11,29.11,0,0,0-3.1-.14c-12.91,0-20.66,4.53-23.35,13.57a21.48,21.48,0,0,0,0,12.05C60,65,64.81,74.49,82.36,74.49c7.2,0,13.34-2.06,17.53-5.93,5.2-4.88,6.26-11.16,6.26-19.67V41.81C106.16,33.28,105.09,27,99.82,22.19Z" fill="#0c213f"/><path id="Path_8" data-name="Path 8" d="M305.44,21.92C301.25,18.05,295.11,16,287.89,16a58.93,58.93,0,0,0-17.42,2.26,4.36,4.36,0,0,0-3.54,4.3,8.69,8.69,0,0,0,.21,1.52,4.55,4.55,0,0,0,4.64,3.22,6.31,6.31,0,0,0,1.5-.21,48.06,48.06,0,0,1,14.63-2.16c4.64,0,8.19,1.08,10.46,3.35,1.93,1.61,2.9,4,3.22,8.06,0,.84.23,8,.21,8.41v3.87c0,7.42-.87,11-3.43,13.24-2.26,2.26-5.82,3.32-10.46,3.32-8,0-12.58-2.37-14.15-7.07a10.9,10.9,0,0,1-.44-3.54,12.2,12.2,0,0,1,.44-3.66c.74-2.25,2.14-7.2,14.15-7.2.37,0,2.82,0,3.82.1a6.52,6.52,0,0,0,1.53,0,4.56,4.56,0,0,0,3.92-4.07,8.39,8.39,0,0,0-.08-1.5c-.41-2.12-4.07-2.94-6.29-3h0a26.88,26.88,0,0,0-3.11-.15c-12.91,0-20.66,4.53-23.35,13.55a21.73,21.73,0,0,0,0,12.07c1.18,4.09,6,13.55,23.56,13.55,7.22,0,13.36-2,17.55-5.91,5.31-4.84,6.25-11.09,6.25-19.58V41.65C311.69,33,310.72,26.77,305.44,21.92Z" fill="#0c213f"/></g><g id="Symbols"><g id="Sticky:-Head"><g id="Brabank-Logo"><g id="Group_2" data-name="Group 2"><path id="Bank" d="M306.59,103.82h0l8,0a3.88,3.88,0,0,0,3.44-3,2.9,2.9,0,0,0-.34-2.57,2,2,0,0,0-1.7-.8h-7.65Zm6,10.35a4,4,0,0,0,3.62-2.79,2.66,2.66,0,0,0-.33-2.34,2.26,2.26,0,0,0-1.88-.87h-8.65l-1.69,6Zm-16.44,5.19h0L303.56,92H317.7a8,8,0,0,1,5.92,2.34,6.1,6.1,0,0,1,1.56,4.7c-.24,3.24-1.68,5.2-4.8,6.57l-.22.1.22.09c2.61,1.06,3.59,3.31,2.75,6.35a10.22,10.22,0,0,1-9.32,7.19Zm90.43,0L393.9,92h6.69l-7.29,27.36ZM404,119.3,398.9,108a3.75,3.75,0,0,1,.83-4.28L411.9,92h7.87l-14.06,12.35c-1.16,1-1.1,1.75-.54,3l5.94,11.93ZM364.8,98.49l-5.59,20.87h-6l6.33-23.14a5.46,5.46,0,0,1,5.43-4,6.25,6.25,0,0,1,5.66,4.13c.8,2.16,5.66,16.14,5.71,16.28l.12.32L381.75,92h6.07q-3.13,11.53-6.28,23c-.56,2.07-2.63,4.31-5,4.31-3.48,0-4.83-2.19-5.77-4.56-.82-2.07-5.86-15.88-5.91-16Zm-21.4,10a.14.14,0,0,0,0-.12L342.32,99a.16.16,0,0,0-.17-.13.15.15,0,0,0-.12.07l-6.12,9.34a.11.11,0,0,0,0,.08.16.16,0,0,0,.16.16h7.24A.17.17,0,0,0,343.4,108.45Zm4.35-12.53,3.35,23.45h-6.35l-.74-6.16a.15.15,0,0,0-.15-.14h-11l-.13.08-4.08,6.21h-6.56l16.36-24c1.7-2.49,3.47-3.48,5.72-3.22a4.24,4.24,0,0,1,3.6,3.77Z" fill="#0c213f"/><path id="Combined-Shape" d="M255.36,119.36h0l-5.85-11a2.31,2.31,0,0,1,2.3-3.19h5.12a5,5,0,0,0,4.39-3.55,2.87,2.87,0,0,0-.52-2.54,3.81,3.81,0,0,0-2.94-1.47h-8.1a.16.16,0,0,0-.15.12l-5.91,21.64h-6.18L244.9,92H258a10,10,0,0,1,7.65,3.18,7.36,7.36,0,0,1,1.7,6c-.81,5.5-4.56,9-10,9.37h-.11l-.23,0,4.78,8.8Zm-36.17-15.54h0l8,0a3.88,3.88,0,0,0,3.44-3,2.93,2.93,0,0,0-.34-2.57,2,2,0,0,0-1.7-.8h-7.65Zm6,10.35h0a4,4,0,0,0,3.62-2.79,2.66,2.66,0,0,0-.33-2.34,2.27,2.27,0,0,0-1.87-.87H218l-1.69,6Zm-16.44,5.19h0L216.16,92h14.12a8,8,0,0,1,5.92,2.34,6,6,0,0,1,1.58,4.7c-.25,3.24-1.68,5.2-4.8,6.57l-.23.09.23.1c2.61,1.06,3.58,3.31,2.75,6.34a10.22,10.22,0,0,1-9.33,7.2Zm75.78-10.94a.15.15,0,0,0,0-.13l-1.12-9.37a.16.16,0,0,0-.12-.13.15.15,0,0,0-.17.06L277,108.22a.15.15,0,0,0,.06.22.11.11,0,0,0,.08,0h7.26A.17.17,0,0,0,284.55,108.42Zm4.36-12.57,3.37,23.52h-6.35l-.74-6.17a.16.16,0,0,0-.16-.14H274l-.13.07-4.09,6.24h-6.58L279.58,95.3c1.7-2.51,3.47-3.5,5.73-3.23A4.24,4.24,0,0,1,288.91,95.85Z" fill="#0c213f"/></g></g></g></g><path d="M19.43,111.05a1.31,1.31,0,0,1-1,.36H7.88a5.69,5.69,0,0,0,1.3,3.89,4.65,4.65,0,0,0,3.63,1.38,7.78,7.78,0,0,0,4.42-1.36,1.38,1.38,0,0,1,.75-.24,1,1,0,0,1,.78.38,1.32,1.32,0,0,1,.31.88,1.66,1.66,0,0,1-.68,1.33,7.1,7.1,0,0,1-2.53,1.22,11.37,11.37,0,0,1-3.25.48,8.87,8.87,0,0,1-4.28-1,6.89,6.89,0,0,1-2.84-2.82,8.7,8.7,0,0,1-1-4.25,10.66,10.66,0,0,1,1-4.78,7.76,7.76,0,0,1,2.91-3.24,8,8,0,0,1,4.32-1.16,6.67,6.67,0,0,1,5.22,2A8.52,8.52,0,0,1,19.78,110,1.41,1.41,0,0,1,19.43,111.05Zm-9.85-5.18A6.22,6.22,0,0,0,8,109.44h8.77a5.14,5.14,0,0,0-1-3.57,3.62,3.62,0,0,0-2.94-1.22A4.45,4.45,0,0,0,9.58,105.87Z" fill="#0c213f"/><path d="M42.58,103.59A5.93,5.93,0,0,1,44,107.91c0,.45,0,.79,0,1l-.68,8.74a1.71,1.71,0,0,1-.56,1.21,1.89,1.89,0,0,1-1.27.42,1.71,1.71,0,0,1-1.23-.42,1.43,1.43,0,0,1-.37-1.21l.68-8.57a6.24,6.24,0,0,0,0-.71c0-2.32-1.11-3.47-3.33-3.47a4.49,4.49,0,0,0-3.35,1.26,5.32,5.32,0,0,0-1.41,3.5l-.65,8a1.71,1.71,0,0,1-.56,1.21,1.89,1.89,0,0,1-1.27.42,1.65,1.65,0,0,1-1.21-.42,1.57,1.57,0,0,1-.39-1.21l1.12-13.91a1.49,1.49,0,0,1,.58-1.14,2,2,0,0,1,1.29-.42,1.47,1.47,0,0,1,1.12.41,1.39,1.39,0,0,1,.38,1.12l-.1,1.19a5.7,5.7,0,0,1,2.29-2.06,7.06,7.06,0,0,1,3.25-.73A5.7,5.7,0,0,1,42.58,103.59Z" fill="#0c213f"/><path d="M84.62,95.4A1.44,1.44,0,0,1,85,96.55l-1.67,21.12a1.59,1.59,0,0,1-.54,1.21,1.92,1.92,0,0,1-1.26.42,1.66,1.66,0,0,1-1.19-.42,1.43,1.43,0,0,1-.37-1.21l.06-1.06a5.3,5.3,0,0,1-2.21,2,6.7,6.7,0,0,1-3.12.73,7,7,0,0,1-3.69-1,6.47,6.47,0,0,1-2.5-2.77,9.47,9.47,0,0,1-.88-4.22,11.34,11.34,0,0,1,1-4.86,7.6,7.6,0,0,1,2.77-3.26,7.39,7.39,0,0,1,4.1-1.16,6.62,6.62,0,0,1,3.23.76,5.47,5.47,0,0,1,2.17,2.2l.69-8.6a1.46,1.46,0,0,1,.54-1.13A2,2,0,0,1,83.4,95,1.62,1.62,0,0,1,84.62,95.4Zm-5.34,19.53a7.59,7.59,0,0,0,1.3-4.67,6,6,0,0,0-1.19-4,4.74,4.74,0,0,0-7,.32,7.56,7.56,0,0,0-1.29,4.66,6,6,0,0,0,1.21,4,4.65,4.65,0,0,0,7-.31Z" fill="#0c213f"/><path d="M108.23,111.05a1.29,1.29,0,0,1-1,.36H96.69A5.64,5.64,0,0,0,98,115.3a4.68,4.68,0,0,0,3.64,1.38,7.78,7.78,0,0,0,4.42-1.36,1.38,1.38,0,0,1,.75-.24,1,1,0,0,1,.78.38,1.37,1.37,0,0,1,.31.88,1.66,1.66,0,0,1-.68,1.33,7.16,7.16,0,0,1-2.54,1.22,11.3,11.3,0,0,1-3.24.48,8.91,8.91,0,0,1-4.29-1,7,7,0,0,1-2.84-2.82,8.7,8.7,0,0,1-1-4.25,10.66,10.66,0,0,1,1-4.78,7.81,7.81,0,0,1,2.9-3.24,8.07,8.07,0,0,1,4.32-1.16,6.64,6.64,0,0,1,5.22,2,8.53,8.53,0,0,1,1.82,5.87A1.37,1.37,0,0,1,108.23,111.05Zm-9.84-5.18a6.1,6.1,0,0,0-1.56,3.57h8.77a5.19,5.19,0,0,0-1-3.57,3.62,3.62,0,0,0-2.94-1.22A4.45,4.45,0,0,0,98.39,105.87Z" fill="#0c213f"/><path d="M117.62,118.89a1.36,1.36,0,0,1-.39-1.22l1.7-21.08a1.53,1.53,0,0,1,.57-1.23,2.08,2.08,0,0,1,1.26-.4,1.72,1.72,0,0,1,1.18.4,1.51,1.51,0,0,1,.42,1.23l-1.7,21.08a1.67,1.67,0,0,1-.58,1.24,2,2,0,0,1-1.26.39A1.75,1.75,0,0,1,117.62,118.89Z" fill="#0c213f"/><path d="M159.73,108c0,.43,0,.76,0,1l-.68,8.78a1.58,1.58,0,0,1-.49,1.15,1.77,1.77,0,0,1-1.21.41,1.57,1.57,0,0,1-1.19-.46,1.41,1.41,0,0,1-.37-1.17l.07-1.16a5.11,5.11,0,0,1-2,2.13,5.68,5.68,0,0,1-2.92.73,6.18,6.18,0,0,1-4.1-1.35,4.28,4.28,0,0,1-1.61-3.45,4.4,4.4,0,0,1,1-3,6,6,0,0,1,3.15-1.61,26.24,26.24,0,0,1,5.8-.51h1.22l.07-.85a3.76,3.76,0,0,0-.68-2.84,3.44,3.44,0,0,0-2.65-.9,10.44,10.44,0,0,0-5,1.5,1.4,1.4,0,0,1-.68.17,1.11,1.11,0,0,1-.85-.38,1.25,1.25,0,0,1-.34-.88,1.57,1.57,0,0,1,.85-1.36,10,10,0,0,1,2.91-1.29,12.39,12.39,0,0,1,3.42-.48Q159.73,102.13,159.73,108Zm-5,7.58a5.12,5.12,0,0,0,1.39-3.23l.07-1h-.95a22.48,22.48,0,0,0-4,.27,4,4,0,0,0-2,.88,2.62,2.62,0,0,0,.22,3.59,3.41,3.41,0,0,0,2.27.7A4,4,0,0,0,154.73,115.56Z" fill="#0c213f"/><path d="M183.42,102.33a1.71,1.71,0,0,1,1.13.41,1.3,1.3,0,0,1,.47,1,1.57,1.57,0,0,1-.2.72l-7.14,13.6a2.15,2.15,0,0,1-.89,1,2.44,2.44,0,0,1-1.19.32,2.07,2.07,0,0,1-1.2-.36,2,2,0,0,1-.77-1l-5-13.56a1.4,1.4,0,0,1-.1-.51,1.38,1.38,0,0,1,.56-1.11,1.92,1.92,0,0,1,1.24-.46,1.5,1.5,0,0,1,.85.26,1.4,1.4,0,0,1,.54.76l4.15,11.94,6.09-12A1.51,1.51,0,0,1,183.42,102.33Z" fill="#0c213f"/></svg>