<svg xmlns="http://www.w3.org/2000/svg" enable-background="new 0 0 491.2 148.5" version="1.1" viewBox="0 0 491.2 148.5" xml:space="preserve">
<style type="text/css">
	.st0{fill:#1D1D1B;}
	.st1{fill:#00975F;}
	.st2{fill:url(#d);}
	.st3{fill:url(#c);}
	.st4{fill:url(#b);}
	.st5{fill:url(#a);}
	.st6{fill:#FFFFFF;}
</style>
								<path class="st0" d="m103.3 116.7c-0.9 0-1.9 0.1-2.4 0.1-0.1 2.5-0.1 3.8-0.1 6.7 0 3.5 0 4.8 0.1 7.6h2.8c3.3 0 4.9-1 4.9-3 0-2.2-2.1-3.3-4.8-3.3h-1.6l1.1-2.9h1.2c1.4 0 3.2-0.7 3.2-2.5 0.1-1.9-1.6-2.7-4.4-2.7m3-2.5c3.6 0 7.6 1.3 7.6 4.6 0 1.8-1.6 3.4-3.9 4.2 3.1 1.1 4.8 2.9 4.8 5.2 0 4.1-4.9 5.4-9.6 5.4h-10.5c0.2-2.5 0.3-6.2 0.3-10.2 0-2.7 0-6.7-0.3-9.3h11.6z"/>
								<path class="st0" d="m136.3 114.2c-0.2 2.2-0.3 7.3-0.3 9.3 0 1.8 0 7.6 0.3 10.2h-4.6l-7.4-10.9c-0.6-0.9-1-1.7-1.2-2.7v6.2c0 2.4 0.1 5.7 0.3 7.4h-5.2c0.3-3 0.4-8.5 0.4-10.2 0-1.8-0.1-7.1-0.3-9.3h6l6.2 10.1c0.3 0.5 0.4 0.8 0.6 1.2v-11.3h5.2z"/>
								<path class="st0" d="m147 117c0 1.3-0.1 2.6-0.1 3.8 0 0.9 0 1.7 0.1 2.3h1.9c2.1 0 4.9-0.6 4.9-3.2s-2.9-3-5.1-3c-0.3 0-1.4 0-1.7 0.1m3.5-2.8c4.2 0 9.3 1.2 9.3 5.7 0 4-3.6 6-11 6h-2c0.1 2.7 0.1 6 0.3 7.9h-6.4c0.3-2.7 0.3-7.1 0.3-10.2 0-2.8-0.1-7.4-0.3-9.3h9.8z"/>
								<path class="st0" d="m176.6 117c0 1.3-0.1 2.6-0.1 3.8 0 0.9 0 1.7 0.1 2.3h1.9c2.1 0 4.9-0.6 4.9-3.2s-2.9-3-5.1-3c-0.4 0-1.4 0-1.7 0.1m3.5-2.8c4.2 0 9.3 1.2 9.3 5.7 0 4-3.6 6-11 6h-2c0.1 2.7 0.1 6 0.3 7.9h-6.4c0.3-2.7 0.3-7.1 0.3-10.2 0-2.8-0.1-7.4-0.3-9.3h9.8z"/>
								<path class="st0" d="m200.3 126.5c-0.8-1.9-1.8-4.2-2.3-5.9-0.5 1.7-1.7 4.2-2.3 5.9 0.7 0 1.7 0.1 2.4 0.1 0.8 0 1.3 0 2.2-0.1m0.5-12.3c0.7 2.3 7.2 16.4 8.6 19.5h-6.4c-0.2-0.8-0.8-1.8-1.7-4.3h-3.3c-1.3 0-2.2 0-3.3 0.1-0.6 1.6-1.1 2.9-1.6 4.2h-5.6c1.1-2.4 7.5-16.4 8.6-19.5h4.7z"/>
								<path class="st0" d="m221.4 114.2c4.3 0 9.4 1.5 9.4 6.1 0 2.4-1.8 4.2-4.6 5.3 0.6 1 5.3 7.2 6.3 8.2h-7c-1.2-2.4-3.6-6.4-5.9-9.8 2.8 0.4 5.2-1 5.2-3.7 0-2.6-3-3.3-4.4-3.3h-2.3c-0.1 2.4-0.1 5.2-0.1 6.6 0 1.7 0 7.3 0.3 10.2h-6.5c0.3-2.9 0.4-6.3 0.4-10.2 0-3.3 0-7.3-0.3-9.3h9.5z"/>
								<path class="st0" d="m241.4 114.2c-0.2 2.2-0.3 7.4-0.3 9.3 0 1.7 0 7.5 0.3 10.2h-6.4c0.3-3 0.4-8.5 0.4-10.2 0-1.8-0.1-7.1-0.3-9.3h6.3z"/>
								<path class="st0" d="m254.3 116.7c-0.9 0-1.9 0.1-2.4 0.1-0.1 2.5-0.1 3.8-0.1 6.7 0 3.5 0 4.8 0.1 7.6h2.8c3.3 0 4.9-1 4.9-3 0-2.2-2.1-3.3-4.8-3.3h-1.6l1.1-2.9h1.2c1.4 0 3.2-0.7 3.2-2.5 0.1-1.9-1.6-2.7-4.4-2.7m2.9-2.5c3.6 0 7.6 1.3 7.6 4.6 0 1.8-1.6 3.4-3.9 4.2 3.1 1.1 4.9 2.9 4.9 5.2 0 4.1-4.9 5.4-9.6 5.4h-10.6c0.3-2.5 0.3-6.2 0.3-10.2 0-2.7 0-6.7-0.3-9.3h11.6z"/>
								<path class="st0" d="m279.2 126.5c-0.8-1.9-1.8-4.2-2.3-5.9-0.5 1.7-1.7 4.2-2.3 5.9 0.7 0 1.7 0.1 2.4 0.1 0.8 0 1.3 0 2.2-0.1m0.5-12.3c0.7 2.3 7.2 16.4 8.6 19.5h-6.3c-0.3-0.8-0.8-1.8-1.7-4.3h-3.3c-1.3 0-2.2 0-3.3 0.1-0.6 1.6-1.1 2.9-1.6 4.2h-5.6c1.1-2.4 7.5-16.4 8.7-19.5h4.5z"/>
								<path class="st0" d="m298.4 113.7c2.5 0 4.9 0.4 6.4 0.8v5c-2.1-1.2-4.2-2.3-7-2.3-2.2 0-2.4 0.9-2.4 1.5 0 3.3 11.1 3.3 11.1 9.2 0 3.8-3.6 6.3-9.6 6.3-2.7 0-5.2-0.5-7-1.2v-4.8c4.1 1.9 6.3 2.5 8.1 2.5 1.5 0 2.6-0.7 2.6-2 0-3.7-11.1-3.4-11.1-9.7 0.3-3.3 3.8-5.3 8.9-5.3"/>
								<path class="st0" d="m338.2 124.3c-0.1 1.9-0.2 6-0.3 8.3-2.1 1.1-5.4 1.7-8.6 1.7-7.2 0-11.9-4.6-11.9-10.2 0-5.9 4.9-10.4 12.8-10.4 1.8 0 4.5 0.3 6.4 0.8l-1.4 3.8c-1.3-0.8-3.6-1.5-5.1-1.5-4.6 0-6.2 4-6.2 7.3 0 5.5 2.9 7.2 6.2 7.2 0.4 0 1.7 0 2.1-0.1 0-2.4 0-5.4-0.2-7h6.2z"/>
								<path class="st0" d="m351.7 114.2c4.3 0 9.4 1.5 9.4 6.1 0 2.4-1.8 4.2-4.6 5.3 0.6 1 5.3 7.2 6.3 8.2h-7c-1.2-2.4-3.6-6.4-5.9-9.8 2.8 0.4 5.2-1 5.2-3.7 0-2.6-3-3.3-4.4-3.3h-2.3c-0.1 2.4-0.1 5.2-0.1 6.6 0 1.7 0 7.3 0.3 10.2h-6.5c0.3-2.9 0.4-6.3 0.4-10.2 0-3.3 0-7.3-0.3-9.3h9.5z"/>
								<path class="st0" d="m374.3 116.2c-2.8 0-4.6 2.8-4.6 7.8s1.8 7.7 4.6 7.7 4.5-2.7 4.5-7.7-1.7-7.8-4.5-7.8m0 18.1c-6.1 0-10.6-4.2-10.6-10.3s4.6-10.3 10.6-10.3 10.6 4.1 10.6 10.3c0 6.1-4.5 10.3-10.6 10.3"/>
								<path class="st0" d="m394 114.2c-0.1 1.3-0.1 2.6-0.1 4v9.3c0 2.5 0.8 4 3.3 4 2.2 0 4.3-0.9 4.3-4.9v-9.4c0-2 0-2.2-0.2-3h5.4c-0.2 1.7-0.2 4.9-0.2 8v5.5c0 4.5-3.1 6.4-9.4 6.4-5.6 0-9.1-1.2-9.1-6.7v-7.1c0-1.8-0.1-4.8-0.3-6.2h6.3z"/>
								<path class="st0" d="m416.6 117c0 1.3-0.1 2.6-0.1 3.8 0 0.9 0 1.7 0.1 2.3h1.9c2.1 0 4.9-0.6 4.9-3.2s-2.9-3-5.1-3c-0.3 0-1.4 0-1.7 0.1m3.5-2.8c4.2 0 9.3 1.2 9.3 5.7 0 4-3.6 6-11 6h-1.9c0.1 2.7 0.1 6 0.3 7.9h-6.4c0.3-2.7 0.3-7.1 0.3-10.2 0-2.8-0.1-7.4-0.3-9.3h9.7z"/>
					<rect class="st1" x="441.2" y="98.8" width="49.7" height="49.7"/>
							<linearGradient id="d" x1="475.41" x2="475.41" y1="142.19" y2="104.05" gradientUnits="userSpaceOnUse">
								<stop stop-color="#00A97C" offset="0"/>
								<stop stop-color="#00975F" offset="1"/>
							</linearGradient>
							<path class="st2" d="m479.8 112.3c-3.1 1.8-4 1.9-7.3 3.9l0.2-0.4c1.7-1.9 2.5-2.7 3.7-4.4-3.1 0.2-7.5 0.5-10.7 1.2l0.2-0.3c2.9-1.4 8.3-2.8 11-3.2-0.7-0.9-6.1-3.9-7.5-4.5l0.2-0.3c4.1 0.5 9.6 2.4 12 3.9 1-0.3 2-0.4 3.9-0.5 0 0-0.3 1.1-2.3 2.5 0.5 1.4-0.7 8.9-1.7 10.8-0.3-3.1-0.5-7-1.7-8.7z"/>
							<linearGradient id="c" x1="451.74" x2="451.74" y1="142.2" y2="104.04" gradientUnits="userSpaceOnUse">
								<stop stop-color="#00A97C" offset="0"/>
								<stop stop-color="#00975F" offset="1"/>
							</linearGradient>
							<path class="st3" d="m457.3 139.1l0.2-0.3c-1.6-0.6-3.3-1.1-4.6-2.4 0.4-1.2 0.9-2.1 1.7-3.2l0.2-0.3c-1.4 0.2-2.7 0.7-3.9 1-1-1.7-1.3-4-1.8-6.2l-0.2 0.3c-0.3 2.5-0.4 4.3 0 6.3-1 0.3-1.9 0.3-2.7 0.7l-0.2 0.3c1.3 0.8 2.3 1.4 3.8 2.1 0.8 1.7 1.6 2.8 2.9 4.1l0.2-0.3c-0.2-1-0.5-1.7-0.4-2.8 1.6 0.4 3 0.7 4.8 0.7z"/>
							<linearGradient id="b" x1="459.11" x2="459.11" y1="142.2" y2="104.04" gradientUnits="userSpaceOnUse">
								<stop stop-color="#00A97C" offset="0"/>
								<stop stop-color="#00975F" offset="1"/>
							</linearGradient>
							<path class="st4" d="m461.9 114.2s-0.7 1.2-1.2 2.7h-0.1c3.8 0.5 7.4 2.1 8.3 2.6l-0.2 0.3c-4-0.7-6.1-0.6-7.5-0.5-1.5 0.1-1.8 0.3-1.8 0.3-0.9 1.9-1.3 4.9-1.6 6l-0.2 0.3c-0.7-1.7-1.8-5.2-1.8-5.2-2 1.1-6.6 5.4-6.6 5.4 2.5-5.1 5.1-7.4 5.1-7.4-0.9-0.9-3.2-1.3-4.9-1.4l0.2-0.3c1.1-0.3 3.3-0.4 4.7-0.5h2.8c1.6-1.1 4-2.2 4.8-2.3z"/>
							<linearGradient id="a" x1="465.49" x2="465.49" y1="142.2" y2="104.05" gradientUnits="userSpaceOnUse">
								<stop stop-color="#00A97C" offset="0"/>
								<stop stop-color="#00975F" offset="1"/>
							</linearGradient>
							<path class="st5" d="m466.7 136c-0.8 1.1-1.5 1.9-2.4 2.9-1.3 0.4-2.9 0.2-4.1 0.2l-0.2 0.3c0.9 0.5 1.8 0.7 2.8 0.9-0.8 0.7-1.8 1.2-2.5 1.7l-0.2 0.3c1.5-0.4 3.6-1 5.1-1.9 0.8 0 1.5 0 2.1-0.1l0.2-0.3c-0.1-0.3-0.4-0.6-0.5-1.1 1.4-1.1 2.5-2.1 3.7-3.3l0.2-0.3c-1.2 0.8-2.6 1.9-4 2.6-0.1-0.6-0.1-1.2-0.2-1.9z"/>
							<path class="st6" d="m479.9 111.9c-3.1 1.8-4 2-7.3 3.9 1.9-2.1 2.6-3 3.8-4.8-3.1 0.2-7.5 0.5-10.7 1.2 2.8-1.5 8.3-3.1 11.2-3.5-0.7-0.9-6.1-3.9-7.5-4.4 4.3 0.3 9.6 1.9 12.2 3.5 1-0.3 2.1-0.3 3.9-0.5-0.5 0.8-0.5 1.3-2.3 2.5 0.5 1.4-0.7 8.8-1.7 10.8-0.1-3-0.4-7-1.6-8.7z"/>
							<path class="st6" d="m457.5 138.8c-1.8-0.7-3-1.4-4.4-2.7 0.4-1.2 0.9-2.1 1.7-3.2-1.4 0.2-2.5 0.4-3.7 0.6-1-1.8-1.5-3.5-2-5.8-0.3 2.5-0.4 4.3 0 6.3-1.1 0.3-1.9 0.6-2.9 1 1.3 0.8 2.4 1.4 3.8 2.1 0.8 1.7 1.6 2.8 2.9 4.1-0.3-1.1-0.4-2-0.3-3.1 1.6 0.4 3 0.6 4.9 0.7z"/>
							<path class="st6" d="m462.1 113.9c-0.5 0.7-1.2 2-1.4 2.7 4.5 0.6 8.2 2.9 8.2 2.9-4-0.7-6.1-0.6-7.5-0.5-1.5 0.1-1.8 0.3-1.8 0.3-1.1 2.4-1.7 6.4-1.7 6.4-0.7-1.7-1.8-5.2-1.8-5.2-2 1.1-6.6 5.4-6.6 5.4 2.5-5.1 5.1-7.4 5.1-7.4-0.9-0.9-3.2-1.3-4.9-1.4 0.9-0.4 3.1-0.8 4.9-0.9 1.7 0 2.8 0.1 2.8 0.1 1.5-1.3 3.9-2.3 4.7-2.4z"/>
							<path class="st6" d="m466.9 135.6c-0.8 1.1-1.5 1.9-2.4 2.9-1.5 0.4-2.7 0.6-4.2 0.6 0.9 0.5 1.8 0.8 2.8 1-1 0.9-1.8 1.5-2.7 2.1 1.6-0.4 3.6-1 5.1-1.9 0.8 0 1.5 0 2.1-0.1-0.1-0.5-0.2-0.8-0.3-1.4 1.4-1.1 2.5-2.1 3.7-3.3-1.3 0.9-2.4 1.5-3.8 2.2-0.2-0.7-0.3-1.3-0.3-2.1z"/>
				<path class="st0" d="m159 27c-0.3 0-1-0.1-1-0.1-1.3-0.2-2.7-0.3-4.3-0.1-1.4 0.2-2.7 0.7-3.5 1.2-3.6 2.5-3.6 6.4-3.6 15.5 0 9.9 0.3 15.1 0.6 20v0.5c-0.1 0.2-0.4 0.1-0.4 0.1-4.1 0-5.1 0-9.3 0.1 0 0-0.2 0-0.3-0.1s-0.1-0.4-0.1-0.4c0.1-6.6 0.2-12.7 0.2-20.8 0-14-0.3-17.6-0.8-22.6 0 0-0.1-0.2 0.1-0.4s0.4-0.2 0.4-0.2c3.3-0.6 5.4-1 9.1-1.7 0 0 0.2 0 0.4 0.2 0.1 0.1 0.1 0.4 0.1 0.4l-0.4 7.4c1-2.8 3.2-8.4 10.7-8.4 1.1 0 1.6 0.1 2.3 0.3l0.4 0.2c0.1 0.1 0.1 0.3 0.1 0.3-0.1 2.1-0.2 3.4-0.4 8.2 0-0.1 0 0.4-0.3 0.4"/>
				<path class="st0" d="m489.3 63.2s0.3 0.4 0.3 0.6"/>
				<path class="st0" d="m37.8 56.4c0.2 0.2 0.1 0.4 0.1 0.4-0.3 3-0.3 3.6-0.4 6.6 0 0 0.1 0.2-0.1 0.4s-0.5 0.2-0.5 0.2c-17 0-19.8 0.1-36.4 0.3 0 0-0.2 0-0.4-0.1-0.1-0.2-0.1-0.5-0.1-0.5 0.3-6.9 0.5-11.6 0.5-27.6 0.1-14.7 0.1-23.1-0.5-33.2 0 0 0-0.4 0.1-0.5s0.4-0.1 0.4-0.1c17.2-0.1 20.6-0.1 36.7-0.3 0 0 0.4 0 0.5 0.2s0.1 0.5 0.1 0.5c-0.3 2.6-0.4 3.7-0.6 6.8 0 0 0 0.2-0.2 0.4s-0.4 0.2-0.4 0.2c-11.3-0.3-15-0.3-26.1-0.4-0.3 8-0.3 10.6-0.3 18.6 10.8 0.1 14.1 0 24.7-0.2 0 0 0.3 0 0.4 0.2s0 0.5 0 0.5c-0.3 3.1-0.3 3.9-0.4 6.7 0 0 0 0.2-0.1 0.4-0.2 0.2-0.4 0.2-0.4 0.2-10.1-0.3-12.3-0.3-24.2-0.3-0.2 10.1-0.1 12.6 0 20.9 13.2 0 15.9 0 27.2-0.4 0-0.1 0.2-0.1 0.4 0.1"/>
				<path class="st0" d="m229.7 37.5c3.5 1.1 11.5 3.8 11.5 13.1 0 3.5-1.3 7.4-4.9 10.3-4.6 3.9-10.8 4.2-14 4.2-4.7 0-8.7-0.9-12-2.2-0.4-0.2-0.9-0.3-1.3-0.5 0 0-0.3-0.1-0.4-0.3-0.1-0.3-0.1-0.5-0.1-0.5 0.3-3.4 0.3-3.8 0.5-7.3 0 0 0-0.5 0.2-0.6 0.2 0 0.6 0.3 0.6 0.3 1.6 1.2 5.4 4.2 12.1 4.2 6.9 0 9.4-3.9 9.4-6.6 0-4-3.8-5.3-9.1-7.1l-2.8-1c-3.6-1.1-11.4-3.7-11.4-12.7s7.9-13.5 17.7-13.5c6.5 0 11 1.8 12.6 2.4 0 0 0.3 0.1 0.4 0.3s0.1 0.3 0.1 0.3c-0.3 3.2-0.4 3.6-0.7 6.9 0 0 0 0.4-0.3 0.5-0.2 0.1-0.5-0.2-0.5-0.2-2.2-1.4-5.6-3.5-11.3-3.5-1.2 0-2.5 0.1-3.8 0.4-2.6 0.7-4.8 2.5-4.8 5.2 0 3.8 3.6 4.9 9 6.6l3.3 1.3z"/>
				<path class="st0" d="m98.1 22.2c1.7-1.4 5.9-4.7 12.8-4.7 11.1 0 18.9 9.1 18.9 21.4 0 13.5-9 25.2-27.4 25.2-1.7 0-2.7-0.1-3.9-0.2 0.1 10.5 0.3 12.8 0.7 21 0 0 0 0.2-0.1 0.4s-0.4 0.1-0.4 0.1c-3.1 0.1-6.1 0.2-9.2 0.3 0 0-0.2 0-0.3-0.1s-0.1-0.4-0.1-0.4c0.2-5.3 0.4-10.8 0.4-19.8 0-5.2-0.1-10.3-0.1-15.5-0.1-13.5-0.1-19.7-1.1-29.6 0 0 0-0.2 0.1-0.4s0.4-0.2 0.4-0.2c4.3-0.7 5.2-1 9.2-1.7 0 0 0.3 0 0.5 0.1s0.2 0.4 0.2 0.4l-0.6 3.7zm3.8 35.4c11.5 0 18.2-7.3 18.2-18.1 0-9.1-4.8-14.7-11.8-14.7-4.7 0-8 2.3-10.1 3.7-0.1 4.5-0.2 9-0.2 13.5 0 5.2 0.1 10.3 0.2 15.4 1.2 0 2.2 0.2 3.7 0.2"/>
				<path class="st0" d="m200.3 52.6c0.1 0.1 0.1 0.3 0.1 0.3-0.4 3.5-0.6 4.9-0.7 8.3 0 0 0 0.1-0.1 0.3-0.1 0.1-0.5 0.3-0.5 0.3-1.5 0.8-6.2 3.3-14 3.3-14.3 0-23.3-8.2-23.3-23.4 0-16.3 9.8-24.2 21.2-24.2 6.9 0 11.7 2.9 14.3 6 5 5.9 4.8 14.6 4.7 18.4 0 0 0 0.2-0.1 0.4s-0.3 0.2-0.3 0.2c-13.6-0.1-16.2-0.1-30.5 0 0.1 3.1 0.3 7.3 3.3 10.9 3.6 4.3 8.6 4.7 11.3 4.7 2.5 0 5.2-0.4 7.6-1.3 3.2-1.3 5.5-3.2 6.7-4.1 0 0 0.1-0.2 0.3-0.1m-8.1-22.1c-1.8-4.8-5.6-6.8-9.5-6.8-4.9 0-10.7 3.3-11.5 12.1 10.6 0.1 13.9 0 21.9-0.1-0.2-1.2-0.2-3.1-0.9-5.2"/>
				<path class="st0" d="m81.7 64.1c-3-0.2-4.1 0-9 0 0 0-0.5 0-0.7-0.4-0.1-0.2-1-1.9-1-1.9-2.7-5.5-4.5-9-7.5-14.3-2.3 4-8 14.2-8.8 15.8 0 0-0.1 0.1-0.2 0.3-0.3 0.5-0.7 0.5-0.7 0.5-4-0.3-4.8 0.1-9.3 0 0 0-0.2 0-0.3-0.3-0.1-0.2 0.1-0.6 0.1-0.6 2.9-4 10-16.6 14-22.8-4.1-7-8.6-13.8-12.9-20.7 0 0-0.4-0.6-0.4-0.8 0-0.3 0.1-0.5 0.3-0.6 0.3-0.1 5.2 0.2 9.7-0.1 0 0 0.3 0 0.5 0.2 0.1 0.1 0.2 0.3 0.2 0.3 2.7 5.7 4.5 9.3 7.8 14.7 4.7-8 5.6-10 7.7-14.4 0 0 0.3-0.6 0.4-0.7s0.4-0.1 0.4-0.1c4.4 0.3 7.9 0 8.2 0s0.5 0.2 0.5 0.6c-0.1 0.4-0.4 1-0.4 1-2.5 4.2-9.2 16.5-11.8 20.5 0.8 1.5 10.7 18.5 13.5 22.7 0 0 0.3 0.5 0.1 0.8-0.3 0.2-0.4 0.3-0.4 0.3"/>
				<path class="st0" d="m269.4 37.5c3.5 1.1 11.5 3.8 11.5 13.1 0 3.5-1.3 7.4-4.9 10.3-4.6 3.9-9.8 4.2-13 4.2-4.7 0-9.7-0.9-13-2.2-0.4-0.2-0.9-0.3-1.3-0.5 0 0-0.3-0.1-0.4-0.3-0.1-0.3-0.1-0.5-0.1-0.5 0.3-3.4 0.3-3.8 0.5-7.3 0 0 0-0.5 0.2-0.6 0.2 0 0.6 0.3 0.6 0.3 1.6 1.2 5.4 4.2 12.1 4.2 6.9 0 9.4-3.8 9.4-6.6 0-4-3.8-5.3-9.1-7.1l-2.8-1c-3.6-1.1-11.5-3.7-11.5-12.7s7.9-13.5 17.7-13.5c6.5 0 11 1.8 12.6 2.4 0 0 0.3 0.1 0.4 0.3s0.1 0.3 0.1 0.3c-0.3 3.2-0.4 3.6-0.7 6.9 0 0 0 0.4-0.3 0.5-0.2 0.1-0.5-0.2-0.5-0.2-2.2-1.4-5.6-3.5-11.3-3.5-1.2 0-2.5 0.1-3.8 0.4-2.6 0.7-4.8 2.5-4.8 5.2 0 3.8 3.6 4.9 9 6.6l3.4 1.3z"/>
			<path class="st0" d="m307.2 64.3s-0.2 0-0.4-0.1c-0.1-0.2-0.1-0.5-0.1-0.5 0.2-4.2 0.3-8.2 0.3-16.2 0-3.8 0.1-22 0.1-26.1 0-9.2-0.3-13.9-0.6-18.4 0 0 0-0.3 0.1-0.5 0.1-0.1 0.3-0.2 0.3-0.2l11.7-0.2c1.7-0.1 4.5-0.1 6.8-0.1 5.2 0 10.7 0.2 15 2.7 3.2 1.8 6.9 5.5 6.9 12 0 3.1-0.9 11.4-13 14.3 2 0.1 4.9 0.6 8 2 7.5 3.3 8.3 10 8.3 13.2 0 8-5 13.7-12 16.3-4.6 1.7-9.3 1.7-16.2 1.7l-15.2 0.1zm9.5-36.3c7.9 0.1 13.9 0.7 17.6-2.2 2.2-1.8 3.6-4.7 3.6-7.6 0-2.4-1-4.6-2.4-6.2-3.1-3-8.5-3-10.5-3-2.8 0-6.2 0-8.5-0.1l0.2 19.1zm0 6.9c0 10-0.1 12.1 0.1 22.1h1.9c6.6 0 11.9 0.1 15.3-1.3 4.2-1.6 6.6-5.2 6.6-9.6 0-10.2-11.3-11.1-15.5-11.2h-6.1-2.3z"/>
			<path class="st0" d="m491.2 63.8c0 0.2-0.1 0.3-0.6 0.3h-3.8c-2.1 0-3.6 0-6.7 0.2 0 0-0.2 0-0.3-0.1-0.2-0.1-0.4-0.4-0.4-0.4-7.7-12.5-15.6-23.6-17.2-25.7-0.1-0.1-0.2-0.3-0.2-0.3 0-0.2 0.1-0.2 0.2-0.3 4.9-5.9 10.1-12 14.6-18.3 0 0 0.3-0.4 0.4-0.4 0.2-0.1 0.4-0.1 0.4-0.1 2.6-0.1 4.9 0.1 9.6-0.1 0 0 0.5 0 0.6 0.2s-0.3 0.6-0.3 0.6c-7.7 8.6-8.9 10.1-15.4 17.6 0 0-0.1 0.1 0 0.2 8.2 11.7 10.4 14.7 18.8 26.2 0-0.2 0.3 0.2 0.3 0.4"/>
			<path class="st0" d="m460.2 63.5s0 0.3-0.1 0.5c-0.1 0.1-0.4 0.1-0.4 0.1-4.5 0.1-5.1 0.1-9.1 0.3 0 0-0.3 0-0.4-0.1-0.2-0.2-0.1-0.4-0.1-0.4 0.2-5.6 0.4-11.8 0.4-24.6 0-4.5-0.1-9.2-0.1-13.7 0-7 0-12.1-0.9-23.1 0 0 0-0.3 0.1-0.5 0.1-0.1 0.4-0.2 0.4-0.2 4-0.7 4.9-0.9 9.4-1.8 0 0 0.2-0.1 0.5 0.1 0.2 0.2 0.2 0.5 0.2 0.5-0.3 9-0.6 20.8-0.6 32.1-0.1-0.1 0.5 27.5 0.7 30.8"/>
			<path class="st0" d="m392.5 46c0 10.8 0.1 11.9 0.5 17.6 0 0 0 0.2-0.1 0.3s-0.3 0.1-0.3 0.1c-4.1 0.1-4.9 0.1-8.9 0.2 0 0-0.2 0-0.3-0.1s-0.1-0.4-0.1-0.4l0.1-3.1c-1.7 1.3-5.6 4.5-12.2 4.5-8.7 0-14.9-5.9-14.9-14.6 0-11.7 9.8-15.5 25.5-17.3l1.5-0.2c0-2.4 0-4-0.8-5.4-0.9-1.6-2.9-3.2-7.3-3.2-5.7 0-9.8 1.8-13.4 3.4 0 0-0.2 0.1-0.4 0s-0.2-0.5-0.2-0.5c0.2-4 0.2-4.5 0.3-6.4 0 0 0-0.2 0.2-0.3 0.1-0.1 0.4-0.2 0.4-0.2 4.9-1.8 10-2.9 15.1-2.9 6.5 0 12.8 2.2 14.6 9 0.6 2.5 0.6 7.3 0.6 10.9v8.6zm-9.8-6.4c-8.8 1.3-17 2.5-17 10.3 0 0.4 0 8 8.3 8 5.4 0 8.6-3 9.5-3.8v-14.6l-0.8 0.1z"/>
			<path class="st0" d="m440.9 63.9c-0.2 0.1-0.4 0.1-0.4 0.1-4.2 0.1-4.7 0-8.7 0.2 0 0-0.3 0-0.5-0.1-0.2-0.2-0.2-0.5-0.2-0.5 0-1 0.1-1.9 0.1-2.9 0.1-4.3 0.1-8.6 0.1-12.8 0-13.5-0.1-14.3-0.5-16.2-1.7-6.6-6.6-6.6-7.9-6.6-5.2 0-9.3 3.1-11.6 4.9-0.1 15.2 0.1 23.3 0.7 33.5 0 0 0 0.3-0.1 0.4s-0.4 0.1-0.4 0.1c-4.3 0.1-5 0-9.2 0.2 0 0-0.2 0-0.3-0.1-0.2-0.2-0.1-0.5-0.1-0.5 0.1-4.9 0.3-9.6 0.3-16.1 0-14-0.6-21.4-1-27.3 0 0 0-0.2 0.2-0.4s0.4-0.2 0.4-0.2c4.4-0.8 5.2-1 9.3-1.7 0 0 0.3-0.1 0.5 0.1s0.1 0.5 0.1 0.5l-0.1 4.5c2.3-1.6 7.7-5.4 15.4-5.4 2.2 0 4.9 0.4 7.3 1.7 2.3 1.3 4.1 3.3 5.1 5.7 1.1 2.6 1.2 5.2 1.3 10.7v10.2c0.3 10.2 0.3 14.3 0.6 17.6-0.2 0-0.2 0.3-0.4 0.4"/>
</svg>