<svg fill="#022bb8" fill-rule="evenodd" viewBox="0 0 211 48" xmlns="http://www.w3.org/2000/svg" width="210" height="90">
<path d="M61.8 23.574h-2.234v-5.007H61.8v-.78c0-6.268 5.424-7.12 8.367-7.12a13.8 13.8 0 0 1 1.844.111v5.415s-.426-.074-.993-.074c-1.205 0-3.085.223-3.085 1.855v.593h3.368v5.007h-3.368v13.76H61.8v-13.76zm22.458 1.606c0-1.415-.996-2.685-2.508-2.685-1.845 0-2.73 1.306-3.062 2.685h5.57zm-2.36-7.4c5.607 0 8.78 3.846 8.78 9.034 0 .617-.148 1.96-.148 1.96h-12c.48 2.286 2.398 3.338 4.427 3.338 2.73 0 5.24-1.887 5.24-1.887l2.36 4.4s-3.062 2.72-8.116 2.72C75.653 37.345 72 32.52 72 27.55c0-5.478 3.763-9.76 9.887-9.76h0zm12.334.334h5.902v3.247c0 .635-.07 1.194-.07 1.194h.07c.782-2.612 3.093-4.777 5.83-4.777a3.94 3.94 0 0 1 .71.075v6.344s-.498-.112-1.245-.112c-1.458 0-3.84.485-4.73 3.36-.213.7-.32 1.568-.32 2.612v7.277h-6.15v-19.22zm15.11 0h5.902v3.247c0 .635-.07 1.194-.07 1.194h.07c.782-2.612 3.093-4.777 5.83-4.777a3.96 3.96 0 0 1 .711.075v6.344s-.498-.112-1.244-.112c-1.458 0-3.84.485-4.73 3.36-.213.7-.32 1.568-.32 2.612v7.277h-6.15v-19.22zm21.6 14.43c1.67 0 3.155-1.778 3.155-3.302v-.4h-.594c-2.04 0-4.38.58-4.38 2.14 0 .87.556 1.56 1.818 1.56m2.82-7.293h.26v-.326c0-1.56-1.225-2.068-2.82-2.068-2.412 0-5.16 1.778-5.16 1.778l-2.227-4.426s3.303-2.43 8.017-2.43c5.382 0 8.6 2.866 8.6 7.62v11.5h-5.864v-1.125c0-.617.074-1.16.074-1.16h-.074s-1.4 2.72-5.42 2.72c-3.563 0-6.495-2.322-6.495-6.023 0-5.442 8.128-6.06 11.097-6.06m10.948-1.61h-2.486v-4.917h2.674v-5.4h6.328v5.4h4.068v4.917h-4.068v5.754c0 2.112 2.222 2.404 3.465 2.404l.866-.036v5.463s-.716.1-1.77.1c-3.1 0-9.077-.8-9.077-7.102V23.64zm13.514-5.862h6.332v11.206c0 1.78.696 2.523 2.013 2.523 2.7 0 4-2.412 4-5.27v-8.46h6.332v19.1h-6.076v-1.67c0-.63.073-1.188.073-1.188h-.073c-1.025 2.04-3.367 3.303-5.893 3.303-3.733 0-6.698-1.78-6.698-7.162V17.778zm23.276.586h6.016v1.63c0 .616-.072 1.16-.072 1.16h.072c.87-1.304 2.6-3.225 5.545-3.225 2.356 0 4.24 1.05 5.22 3.153h.073c.978-1.558 3.2-3.153 5.98-3.153 3.407 0 6.052 1.848 6.052 6.994v12.104h-6.27V25.974c0-1.377-.254-2.355-1.45-2.355-1.993 0-3.044 1.45-3.442 3.515-.145.652-.145 1.413-.145 2.174v7.72h-6.27V25.974c0-1.377-.254-2.355-1.45-2.355-1.957 0-2.972 1.377-3.407 3.37-.145.7-.18 1.522-.18 2.32v7.72h-6.27V18.364zm-133.8 5.608c-.015 13.166-10.684 23.835-23.85 23.85a23.65 23.65 0 0 1-1.433-.047c-.13 0-.26-.02-.4-.03a24.2 24.2 0 0 1-1.083-.106l-.38-.05a23.16 23.16 0 0 1-1.243-.205l-.164-.03a22.86 22.86 0 0 1-1.402-.326c-.105-.026-.205-.06-.3-.088-.34-.095-.677-.197-1-.305l-.495-.168c-.268-.094-.532-.205-.796-.3l-.553-.22c-.363-.153-.72-.315-1.075-.485-.266-.127-.526-.266-.786-.4l-.362-.194c-.12-.068-.287-.147-.426-.227 0 0-2.7-1.775-3.916-2.846l.4-.05c1.33-.166 3.367-.422 5.22-1.392a18.39 18.39 0 0 0 .929.546l.225.12a19.21 19.21 0 0 0 2.047.935l.583.22.44.15a16.98 16.98 0 0 0 .77.231l.3.082a18.97 18.97 0 0 0 1.12.26l.156.03a18.37 18.37 0 0 0 .983.162l.315.04a18.54 18.54 0 0 0 .87.086l.317.025c.385.023.772.04 1.16.04a19.31 19.31 0 0 0-.026-38.619A19.31 19.31 0 0 0 4.541 23.972a19.53 19.53 0 0 0 .068 1.544c0 .068 0 .135.016.205a17.63 17.63 0 0 0 .205 1.513c0 .045.016.1.025.135.28 1.56.75 3.082 1.402 4.528l.1.242c.2.4.395.807.614 1.2a14.43 14.43 0 0 0 .227.393c.078.13.205.313.295.47a18.28 18.28 0 0 0 .637.966h.154a5.25 5.25 0 0 0 1.51-.276c.643-.237 1.177-.66 1.312-1.404l.164-.686 1.76-9.047h-2.145l.913-4.573h2.133l.704-3.247C15.67 10.213 20.84 9.47 23.48 9.47c.712-.003 1.424.03 2.133.1l-1.023 4.942a4.95 4.95 0 0 0-.88-.068c-1.15 0-3 .205-3.276 1.7l-.67 3.046h5.687c-.066.033-.125.072-.2.106s-.1.043-.133.068-.072.047-.1.07a9.69 9.69 0 0 0-.614.383l-.106.065-.045.035a9.6 9.6 0 0 0-.893.716l-.094.1c-.246.23-.48.47-.7.725l-.135.15a9.96 9.96 0 0 0-.633.848c-.053.08-.104.164-.156.246a10.89 10.89 0 0 0-.422.737c-.043.084-.1.166-.13.252-.012.025-.026.05-.04.074h-2.164l-1.38 7.327-.704 3.247a8.4 8.4 0 0 1-.563 1.906c-.978 2.238-2.8 3.3-4.592 3.873a13.13 13.13 0 0 1-1.337.352l-.64.117c-.628.102-1.2.168-1.7.23-.045 0-.3.025-.522.04l-.432.03-.354-.36a32.48 32.48 0 0 1-1.212-1.36c-1-1.202-1.858-2.5-2.594-3.87l-.025-.047a10.82 10.82 0 0 1-.377-.733l-.172-.356-.252-.555-.22-.508c-.05-.12-.094-.24-.14-.358-.453-1.147-.815-2.328-1.083-3.532L.55 29.04l-.153-.778-.057-.326-.106-.692-.057-.456-.065-.602c-.018-.192-.035-.4-.047-.626l-.03-.467A17.84 17.84 0 0 1 0 23.962C.003 10.8 10.683.115 23.855.117S47.697 10.794 47.7 23.962l-.002.01zm-20.322.436a3.61 3.61 0 0 1 .297-.379c.558-.637 1.37-.996 2.215-.978a1.87 1.87 0 0 1 .704.129 1.46 1.46 0 0 1 .52.354c.143.155.254.337.323.536.075.216.113.443.1.67 0 .1 0 .227-.014.34s-.014.205-.014.205H26.93c.114-.3.263-.603.444-.878h0zm-6.242 5.527a6.53 6.53 0 0 0 .154.643 6.41 6.41 0 0 0 .215.614 6.19 6.19 0 0 0 2.753 3.093c.186.105.38.203.58.295a6.27 6.27 0 0 0 .628.252 9.25 9.25 0 0 0 .776.233c.27.068.55.126.84.172a11.79 11.79 0 0 0 1.865.141 11.06 11.06 0 0 0 4.461-1.011 13.74 13.74 0 0 0 .76-.37 10.26 10.26 0 0 0 .446-.25 9.18 9.18 0 0 0 .536-.34l.072-.05-1.327-3.9a10.65 10.65 0 0 1-1.146.639c-.897.434-2.2.927-3.472.927-.174 0-.35-.01-.522-.027-.3-.03-.615-.098-.907-.205-.132-.05-.26-.1-.383-.18-.075-.05-.148-.1-.217-.158a2.28 2.28 0 0 1-.561-.555c-.313-.487-.472-1.058-.454-1.638h9.8l.1-.276a25.65 25.65 0 0 0 .205-.714 9.12 9.12 0 0 0 .104-.469 11.59 11.59 0 0 0 .092-.512c.027-.174.05-.356.066-.536a5.96 5.96 0 0 0 .025-.538 8.02 8.02 0 0 0-.06-.98c-.098-.898-.4-1.762-.88-2.526a5.35 5.35 0 0 0-2.807-2.15 8.14 8.14 0 0 0-2.094-.41 10.88 10.88 0 0 0-.8-.029 9.26 9.26 0 0 0-1.857.186 8.96 8.96 0 0 0-1.296.362 8.57 8.57 0 0 0-1.198.553c-.127.07-.246.156-.37.23a8.78 8.78 0 0 0-.37.23 8.66 8.66 0 0 0-1.607 1.464c-.483.562-.895 1.18-1.228 1.842a10.25 10.25 0 0 0-1.044 4.6 7.23 7.23 0 0 0 .131 1.343h0z"></path>
</svg>