<svg width="210" height="90" version="1.1" viewBox="0 0 328.92 139.32" xml:space="preserve" xmlns="http://www.w3.org/2000/svg" xmlns:cc="http://creativecommons.org/ns#" xmlns:dc="http://purl.org/dc/elements/1.1/" xmlns:rdf="http://www.w3.org/1999/02/22-rdf-syntax-ns#"><metadata><rdf:rdf><cc:work rdf:about=""><dc:format>image/svg+xml</dc:format><dc:type rdf:resource="http://purl.org/dc/dcmitype/StillImage"></dc:type></cc:work></rdf:rdf></metadata><g transform="matrix(1.3333 0 0 -1.3333 0 139.32)"><g transform="scale(.1)"><path d="m2462.9 0v477.11h-2462.9v-477.11h2462.9" fill="#ed1c24"></path><path d="m686.56 263.58h47.461c23.726 0 47.429 5.266 47.429 24.973 0 19.121-25 24.961-47.429 24.961h-47.461zm0-97.977h52.625c22.851 0 45.285 7.403 45.285 25.868 0 20.949-18.957 25.91-45.285 25.91h-52.625zm-93.215 190.44h159.21c73.797 0 122.1-22.207 122.1-61.035 0-27.723-31.07-44.344-65.164-51.453v-0.617c41.004-6.141 73.34-25.555 73.34-57.305 0-29.903-23.699-62.559-118.62-62.559h-170.87v232.97" fill="#fff"></path><path d="m1014.9 215.54h69.48l-32.8 76.094h-0.87zm-5.16 140.51h100.51l111.75-232.97h-97.08l-19.41 44.375h-111.32l-21.133-44.375h-73.797l110.48 232.97" fill="#fff"></path><path d="m1262.5 356.04h86.71l116.06-123.56h0.85v123.56h71.62v-232.97h-69.87l-132.88 131.91h-0.87v-131.91h-71.62v232.97" fill="#fff"></path><path d="m1601.2 356.04h93.18v-93.367h0.86l95.36 93.367h88.85l-80.25-77.039 101.43-155.93h-99.67l-64.29 99.543-42.29-40.363v-59.18h-93.18v232.97" fill="#fff"></path><path d="m0.03125 589.77h52.398v420.73h-52.398v26.26h281.42v-26.26h-52.383v-420.73h52.383v-27.597h-281.42v27.597" fill="#ed1c24"></path><path d="m2209 568.35c32.14 0 49.65 25.293 49.65 82.726v292.66c0 57.43-17.51 82.06-49.65 82.06-32.16 0-48.97-25.28-48.97-82.06v-292.66c0-56.769 16.81-82.726 48.97-82.726zm-188.03 402.06c47.21 48.54 112.11 74.53 188.03 74.53 153.2 0 257.83-110.1 257.83-247.54 0-137.44-104.63-248.22-257.83-248.22-66.29 0-125.11 20.515-169.6 57.461-53.98 44.433-87.51 117.59-87.51 190.76 0 64.297 26.67 129.93 69.08 173.01" fill="#ed1c24"></path><path d="m1798.7 1036.8v-26.26h2.45c51.96 0 59.13-12.316 59.13-53.332v-173.54l-183.27 253.13h-233.87v-26.26h2.47c10.82 0 29.19-2.37 37.23-13.508 2.94-4.094 8.79-12.168 15.44-21.359v-333.24c0-41.024-2.45-52.645-53.74-52.645h-1.4v-27.57h146.6v27.57c-1.06 0-2.06 0.02-3.05 0.02-50.65 0-55.04 11.484-55.04 52.625v291.96l268.88-372.18h91.82v394.99c0 41.016 7.13 53.332 58.4 53.332h4.16v26.26h-156.21" fill="#ed1c24"></path><path d="m1026.5 745.05 56.95 161.96 58.76-161.96zm363.41-155.27-162.7 446.99h-129.44l-140.06-393.04c-8.836-24.93-22.313-41.16-41.453-49.024-5.989-2.441-14.34-4.922-22.539-4.922h-20.758l-183.28 318.08s60.43 60.457 66.664 66.718c19.708 19.735 51.239 31.66 73.895 34.1 9.93 1.04 22.902 1.83 34.215 1.83v26.26h-216.77v-26.26h22.387c10.773 0 32.461 0.38 40.773-13.969 5.586-9.609 2.282-25.125-10.218-37.625l-152.36-152.81v204.41h44.789v26.26h-272.44v-26.26h47.598v-420.73h-47.598v-27.597h272.22v27.597h-44.567v215.61l124.12-215.61h-51.003v-27.597h408.82v27.676h-6.8c-3.36 0-11.82 0.722-13.55 1.164-33.551 8.66-25.563 34.043-18.809 53.183l24.439 69.559h138.3l44.65-123.98h-41.06v-27.597h263.77v27.597h-31.23" fill="#ed1c24"></path></g></g></svg>