<svg xmlns="http://www.w3.org/2000/svg" width="210" height="90" viewBox="0 0 147.265 32.836"><defs><style>.a{fill:#263793;}</style></defs><g transform="translate(-407.979 -316.572)"><path class="a" d="M439.782,341.143v11.622h-6.9V342.582a2.594,2.594,0,0,0-2.582-2.841c-1.771,0-2.988,1.4-2.988,3.763v9.26h-6.9V342.582a2.6,2.6,0,0,0-2.62-2.841c-1.771,0-2.915,1.4-2.915,3.763v9.26h-6.9V334.133h6.9v1.845a6.815,6.815,0,0,1,5.461-2.4,6.627,6.627,0,0,1,5.977,3.247,7.688,7.688,0,0,1,6.493-3.247C436.83,333.58,439.782,336.568,439.782,341.143Z" transform="translate(0 -9.629)"></path><path class="a" d="M493.828,359.759h-7.269l2.989-6.937L481.8,334.855h7.305l3.948,9.851,4.243-9.851H504.6Z" transform="translate(-41.793 -10.351)"></path><path class="a" d="M558.4,333.839c0,5.866-3.874,9.85-9,9.85a7.461,7.461,0,0,1-5.461-2.066v1.512h-6.9V316.572h6.9v9.445a7.462,7.462,0,0,1,5.461-2.066C554.522,323.951,558.4,327.936,558.4,333.839Zm-6.9,0c0-2.361-1.476-4.133-3.763-4.133a4.127,4.127,0,0,0,0,8.228A3.775,3.775,0,0,0,551.5,333.839Z" transform="translate(-73.063)"></path><path class="a" d="M610.38,352.765h-6.9v-1.512a7.459,7.459,0,0,1-5.46,2.066c-5.128,0-9-3.985-9-9.85,0-5.9,3.874-9.888,9-9.888a7.46,7.46,0,0,1,5.46,2.066v-1.513h6.9Zm-6.9-9.3a3.925,3.925,0,0,0-3.8-4.133c-2.287,0-3.763,1.771-3.763,4.133a3.776,3.776,0,0,0,3.763,4.1A3.914,3.914,0,0,0,603.48,343.468Z" transform="translate(-102.494 -9.629)"></path><path class="a" d="M665.06,341.217v11.548h-6.936V342.693c0-1.771-1.033-2.952-2.62-2.952-1.845,0-3.062,1.365-3.062,3.985v9.039h-6.9V334.133h6.9v1.882a7.467,7.467,0,0,1,5.608-2.435C662.256,333.58,665.06,336.495,665.06,341.217Z" transform="translate(-134.495 -9.629)"></path><path class="a" d="M710.6,343.136l-4.98-6.2h-1.144v6.2h-6.9V316.572h6.9v14.093h.812l5.054-6.161H718.5l-7.379,8.855,8.08,9.777Z" transform="translate(-163.954)"></path></g></svg>