<svg width="210" height="90" version="1.1" viewBox="0 0 201 28" xmlns="http://www.w3.org/2000/svg">
<title>logo</title>
<desc>Created with Sketch.</desc>
<g fill="none" fill-rule="evenodd">
<g transform="translate(-25 -21)">
<g id="b">
<g transform="translate(25 21)">
<g transform="translate(173)" fill-rule="nonzero">
<polygon id="Shape" points="18.261 11.464 18.261 28 9.7391 16.54 9.7391 0" fill="#009F8E"></polygon>
<polygon id="Shape" points="28 24.348 18.265 11.577 18.261 0 28 3.9278" fill="#96D4C8"></polygon>
<polygon id="Shape" points="28 24.277 18.261 28 18.261 12.174" fill="#60B9A5"></polygon>
<polygon id="Shape" points="9.7391 28 0 24.072 0 3.6522 9.7391 16.427" fill="#002651"></polygon>
<polygon id="Shape" points="9.7391 15.826 0 3.7217 9.7391 0" fill="#006A72"></polygon>
</g>
<g transform="translate(0 3)">
<path id="Shape" d="m66.408 5.3898c-1.7898 0.049806-3.5208 0.7087-4.9511 1.8847l-0.1277 0.10758 1.0946 2.0441 0.16054-0.12751c1.1063-0.90176 2.437-1.4158 3.8164-1.4743 2.3971 0 3.6486 1.1954 3.6486 3.6379v0.17134c-1.0207-0.58933-2.1584-0.89582-3.3129-0.89255-4.2068 0-6.3157 2.6657-6.3157 5.2676 0 2.6019 2.1636 5.5505 6.3705 5.5505 1.9148-0.030946 3.8091-0.43578 5.5933-1.1954l0.1204-0.047815v-8.8578c0-3.9049-2.2038-6.0685-6.0968-6.0685zm3.6486 13.113c-1.0946 0.45925-2.2571 0.69559-3.4297 0.6973-2.5248 0-3.8055-1.7413-3.8055-3.1877 0.0018369-0.61835 0.22895-1.2105 0.63121-1.6456 0.72972-0.79692 1.8243-1.2791 3.2837-1.2791 1.1461-0.04719 2.2821 0.25054 3.2837 0.86067l0.036486 4.5544z" fill="#000" fill-rule="nonzero"></path>
<path id="Shape" d="m119.82 13.906c-0.44428 0.44379-0.6983 1.0551-0.70479 1.6962 0 1.4678 1.3783 3.2619 4.0878 3.2619 1.2584-0.0019389 2.5058-0.24377 3.6806-0.71353v-4.6889c-1.0749-0.62433-2.294-0.92899-3.524-0.8807-1.5701 0.012232-2.7644 0.50151-3.5396 1.3251z"></path>
<path id="Shape" d="m122.53 5.3898c-1.7913 0.050884-3.5233 0.71022-4.9541 1.8859l-0.12778 0.10345 1.0952 2.0411 0.16064-0.12732c1.1095-0.9003 2.4437-1.4123 3.826-1.4681 2.3986 0 3.6508 1.1936 3.6508 3.6326v0.17108c-1.0272-0.58994-2.1721-0.89469-3.3332-0.88725-4.2094 0-6.3195 2.6618-6.3195 5.2599s2.1649 5.5583 6.367 5.5583c1.916-0.030901 3.8114-0.43514 5.5967-1.1936l0.12048-0.047745v-8.8646c0.003651-3.8952-2.1978-6.0636-6.0822-6.0636zm3.6508 13.098c-1.0953 0.4584-2.2584 0.69438-3.4318 0.69627-2.5264 0-3.8114-1.7387-3.8114-3.183 0.006053-0.62554 0.2429-1.2221 0.65714-1.6551 0.73016-0.79574 1.8254-1.2811 3.2857-1.2811 1.1468-0.04712 2.2834 0.25017 3.2857 0.8594l0.014603 4.5636z" fill="#000" fill-rule="nonzero"></path>
<path id="Shape" d="m47.475 13.484c-0.032003 1.4174 0.46658 2.7908 1.3872 3.8212 0.89255 0.97868 2.1176 1.5399 3.403 1.5591 1.0101-0.008121 2.0133-0.17555 2.9767-0.49676v-9.7212c-0.94186-0.37154-1.939-0.56178-2.9442-0.56172-3.0995 0-4.7974 2.7818-4.8227 5.3994z"></path>
<path id="Shape" d="m107.98 9.9426c-1.7665-0.1378-4.3994 0-4.3994 0v8.477c2.7594 0.75989 5.1841 0.54728 6.8093-0.64571 1.1752-0.86226 1.8223-1.7481 1.8223-3.2522 0-2.1812-1.8148-4.3704-4.2321-4.579z"></path>
<path id="Shape" d="m118.94 13.883c-0.43449 0.45619-0.68089 1.0807-0.68408 1.7338 0 1.4968 1.4609 3.2473 4.1354 3.2473 1.2353 0.014225 2.4639-0.19809 3.633-0.62783v-4.7566c-1.0612-0.63625-2.2644-0.9469-3.4784-0.89809-1.5653 0-2.8407 0.46568-3.6059 1.3014z"></path>
<path id="Shape" d="m107.78 6.4496c0.5913-0.4184 0.95056-1.0725 0.97548-1.7761 0.029974-0.71548-0.28081-1.4053-0.8449-1.8754-0.76809-0.61044-1.974-1.2687-4.332-0.88991v5.2622c2.431 0.073546 3.2836-0.09561 4.2015-0.72075z"></path>
<path id="Shape" d="m26.285 8.0847c-2.342 0-4.7064 1.6572-4.7064 5.3589 0 3.7016 2.4426 5.4208 4.7064 5.4208 2.383 0 4.7883-1.6727 4.7883-5.4208 0-3.7481-2.4016-5.3589-4.7883-5.3589z"></path>
<path id="Shape" d="m63.716 14.652c-0.44592 0.39585-0.7006 0.94211-0.70622 1.5148 0 1.3109 1.3183 2.6946 4.0333 2.6946 1.2611 0.028605 2.5197-0.11619 3.7351-0.42967v-4.1656c-1.077-0.55774-2.2986-0.82983-3.5311-0.78652-1.5694 0.0036413-2.7699 0.43695-3.5311 1.1725z"></path>
<path id="Shape" d="m12.987 16.462-8.4972-14.232c-0.80004-1.3787-1.5599-2.2301-2.7435-2.2301h-1.7462v20.661h2.5572v-16.501l8.4387 14.244c0.86214 1.4763 1.9179 2.2575 3.0504 2.2575h1.4905v-20.661h-2.5572l0.0073062 16.462z" fill="#000" fill-rule="nonzero"></path>
<path id="Shape" d="m41.735 5.39c-2.6398 0.027173-5.4821 1.8012-5.4821 5.6441v9.6269h2.4815v-9.1339c0-2.3912 1.1045-3.8158 3.0006-3.8158 0.42874-2.185e-5 0.85483 0.070706 1.2628 0.20962l0.15831 0.054345 0.8652-2.1156-0.17672-0.073754c-0.67406-0.26788-1.3893-0.40212-2.1096-0.39594z" fill="#000" fill-rule="nonzero"></path>
<path id="Shape" d="m26.3 5.3898c-4.2377 0-7.3104 3.2074-7.3104 7.6185 0 4.4111 3.0803 7.6527 7.3104 7.6527s7.3632-3.2074 7.3632-7.6185c0-4.4111-3.0916-7.6527-7.3632-7.6527zm0 12.951c-2.2961 0-4.7655-1.6646-4.7655-5.3329 0-3.6683 2.3978-5.2644 4.7655-5.2644s4.8485 1.6303 4.8485 5.272c0 3.6416-2.4318 5.3253-4.8485 5.3253z" fill="#000" fill-rule="nonzero"></path>
<path id="Shape" d="m55.346 5.8023c-0.96242-0.39983-1.9905-0.60427-3.028-0.60209-4.8299 0-7.4306 4.0114-7.4306 7.785-0.057567 2.0071 0.66327 3.9549 2.0025 5.4112 1.4259 1.4674 3.3627 2.2826 5.376 2.2626 1.8529 0.029723 3.6961-0.28196 5.4429-0.9204l0.1226-0.04602v-19.693h-2.5078l0.022292 5.8023zm0 12.103c-0.99135 0.31847-2.0232 0.48262-3.0614 0.48704-1.322-0.019221-2.5819-0.58247-3.4998-1.5647-0.94683-1.0342-1.4596-2.4125-1.4267-3.835 0.026007-2.627 1.7722-5.415 4.9599-5.415 1.0338-6.345e-5 2.0593 0.19086 3.028 0.56374v9.7639z" fill="#000" fill-rule="nonzero"></path>
<path id="Shape" d="m88.64 5.7102h-3.114l-3.5945 5.3922-2.2929-3.5389c-1.0481-1.6245-1.9335-2.1737-3.5037-2.1737h-1.0405l5.2026 7.6612-5.1307 7.3408h3.0875l3.674-5.3998 2.4783 3.6838c0.76812 1.2739 2.1578 2.0318 3.6361 1.983h0.86268l-5.335-7.6078 5.0701-7.3408z" fill="#000" fill-rule="nonzero"></path>
<path id="Shape" d="m137.78 5.3898h-0.20348c-2.6563 0.027166-5.5125 1.8046-5.5125 5.6467v9.6245h2.4973v-9.1355c0-1.8085 0.64744-3.0659 1.7832-3.5704 0.42738-0.16574 0.87993-0.24859 1.3356-0.24449 0.45391 0.002287 0.9042 0.084947 1.3319 0.24449 1.1358 0.50451 1.7832 1.758 1.7832 3.5704v9.1355h2.4899v-9.6245c0-3.8421-2.8487-5.6117-5.5051-5.6467z" fill="#000" fill-rule="nonzero"></path>
<path id="Shape" d="m153.12 12.297 4.8854-7.0496h-3.1823l-3.6689 5.4599-1.8113 2.5582v-13.266h-2.6068v20.377h2.6068v-3.0868l2.1086-3.0135 2.7806 4.3756c0.78343 1.2896 2.2023 2.0567 3.7114 2.0064h0.87667l-5.7003-8.3615z" fill="#000" fill-rule="nonzero"></path>
<path id="Shape" d="m109.97 8.4287c1.6659-2.0443 1.4061-5.0579-0.58457-6.7811-2.1421-1.8166-4.8381-2.131-8.3917-0.94322v19.745c1.8209 0.71257 3.7544 1.0873 5.7072 1.1062 1.849 0.049702 3.6684-0.47611 5.2111-1.506 1.8383-1.2848 2.8921-2.8995 2.8921-5.1431-0.019725-2.9991-1.9837-5.631-4.8342-6.4783zm-6.4264-5.9116c2.3614-0.38816 3.5805 0.29112 4.3381 0.93934 0.56489 0.49622 0.8761 1.2244 0.84609 1.9796-0.024954 0.74268-0.38472 1.4332-0.97685 1.8748-0.92301 0.65986-1.7768 0.83842-4.2074 0.77631v-5.57zm7.0418 15.592c-1.6806 1.1645-4.1881 1.3857-7.0418 0.63658v-8.3492s2.719-0.13197 4.5496 0c2.5037 0.18631 4.3804 2.3639 4.3804 4.5026-0.003846 1.4866-0.67302 2.36-1.8883 3.21z" fill="#000" fill-rule="nonzero"></path>
<path id="a" d="m63.715 13.91c-0.44487 0.44323-0.6991 1.0543-0.70515 1.6951 0 1.4669 1.379 3.2598 4.0859 3.2598 1.2591-0.0017538 2.5071-0.24343 3.6824-0.71307v-4.69c-1.0755-0.62392-2.2952-0.92839-3.5257-0.88013-1.5592 0.016299-2.754 0.50526-3.5375 1.3283z"></path>
<path d="m63.706 13.884c-0.43817 0.45312-0.68883 1.0768-0.69568 1.7308 0 1.4978 1.4609 3.2494 4.1354 3.2494 1.2354 0.014397 2.464-0.19806 3.633-0.62825v-4.7555c-1.0612-0.63667-2.2644-0.94753-3.4784-0.89868-1.5537 0-2.8291 0.46598-3.5943 1.3023z"></path>
</g>
</g>
</g>
</g>
</g>
</svg>