<svg xmlns="http://www.w3.org/2000/svg" viewBox="0 0 154.17 46">
  <title>Santander logo</title>
  <path fill="#ec0000" d="M57.49,36.21a13.23,13.23,0,0,0-3.39.51v9h1.26V37.59a9.14,9.14,0,0,1,2.1-.26c2.22,0,2.85.87,2.85,2.55v5.87h1.26V39.64C61.57,37.46,60.55,36.21,57.49,36.21Zm10,4.41-.85-.29c-1.12-.38-1.82-.69-1.82-1.7s.7-1.33,2.1-1.33a7.62,7.62,0,0,1,2.63.45,4.88,4.88,0,0,0,.18-1.07,8,8,0,0,0-2.85-.47c-2,0-3.27.85-3.27,2.46,0,1.44.89,2.26,2.49,2.74l.83.26c.87.27,1.86.65,1.86,1.73s-.85,1.46-2.24,1.46a6.27,6.27,0,0,1-2.94-.7,3.65,3.65,0,0,0-.18,1.1,6.24,6.24,0,0,0,3.16.7c2.17,0,3.43-1,3.43-2.6S69,41.11,67.53,40.62Zm-10-16.12.16,1.6h2.7V12.77a15,15,0,0,0-5-.74c-4.94,0-7.44,2.66-7.44,7.35,0,4.48,2.34,7,5.86,7A4.07,4.07,0,0,0,57.53,24.5Zm-6.64-5.12c0-3,1.42-4.85,4.46-4.85a12.74,12.74,0,0,1,2.1.16v8.37a4.55,4.55,0,0,1-2.85,1C52,24,50.89,22.1,50.89,19.38ZM39.73,34.21a7.19,7.19,0,0,1,2.47.43,4.59,4.59,0,0,0,.22-1.21A7.79,7.79,0,0,0,39.73,33c-3.8,0-6,2.38-6,6.5,0,3.92,2.08,6.5,5.85,6.5a7.45,7.45,0,0,0,2.51-.38,7.25,7.25,0,0,0,.2-1.34,6.45,6.45,0,0,1-2.55.51c-2.85,0-4.69-2-4.69-5.34S36.91,34.21,39.73,34.21Zm8.1,2c-2.8,0-4.46,1.88-4.46,4.93,0,2.78,1.47,4.82,4.35,4.82s4.48-1.87,4.48-5C52.2,38.25,50.76,36.21,47.83,36.21Zm0,8.62c-2.06,0-3.14-1.36-3.14-3.78,0-2.22,1-3.7,3.14-3.7s3.12,1.37,3.12,3.74S49.89,44.83,47.8,44.83Zm-8.67-21a12.31,12.31,0,0,1-4.87-1,8.7,8.7,0,0,0-.51,2.7,12.86,12.86,0,0,0,5.46,1c4.54,0,6.86-2.11,6.86-5.17,0-2.59-1.42-4.11-4.8-5.55l-1.44-.61c-1.87-.8-2.91-1.6-2.91-3S38,9.89,40.31,9.89a13.38,13.38,0,0,1,4.37.78A10.17,10.17,0,0,0,45.21,8a14.68,14.68,0,0,0-4.88-.77c-4.31,0-6.42,1.94-6.42,5,0,2.83,1.71,4.24,4.21,5.33l1.36.59C42,19.22,43,19.94,43,21.49S41.61,23.86,39.13,23.86Zm83.36,2.56a4,4,0,0,0,3.81-2l.16,1.7h2.69V7.44a8.85,8.85,0,0,0-2.9.4v4.4a11.88,11.88,0,0,0-2.19-.21c-4.93,0-7.44,2.66-7.44,7.35C116.62,23.86,119,26.42,122.49,26.42Zm1.41-11.89a11.85,11.85,0,0,1,2.35.27V23a4.72,4.72,0,0,1-2.94,1c-2.61,0-3.7-1.92-3.7-4.64C119.61,16.34,121,14.53,123.9,14.53ZM20.35,12.37a6.3,6.3,0,0,0-.82-2.81l-4.45-7.7A6.09,6.09,0,0,1,14.38,0l-.19.32a6.16,6.16,0,0,0,0,6.16l3.56,6.16a6.16,6.16,0,0,1,0,6.16l-.19.32a6.09,6.09,0,0,0-.7-1.86l-3.25-5.64L11.53,8a6.21,6.21,0,0,1-.71-1.86l-.18.32a6.15,6.15,0,0,0,0,6.14h0l3.56,6.18a6.11,6.11,0,0,1,0,6.16l-.18.32a6.25,6.25,0,0,0-.7-1.86l-4.45-7.7A6.13,6.13,0,0,1,8,12.37c-4.76,1.25-8,3.89-8,6.94C0,23.56,6.36,27,14.19,27s14.2-3.45,14.2-7.7C28.39,16.26,25.11,13.61,20.35,12.37ZM78,43.85a3.67,3.67,0,0,1-2.57,1c-1.62,0-2.38-.79-2.38-2.67V36.43H71.79v6C71.79,44.86,73,46,75,46a4,4,0,0,0,3-1l0,.82h1.19V36.43H78ZM72.47,26.1H75.4v-9c0-3.22-1.58-5.11-6.48-5.11a25.09,25.09,0,0,0-5.33.74V26.1h2.93V14.74a15.13,15.13,0,0,1,2.32-.21c2.93,0,3.63,1,3.63,3.12ZM138.06,12c-4.67,0-6.51,3.14-6.51,7.11,0,4.56,2.38,7.28,7.28,7.28a10.11,10.11,0,0,0,4.32-.85c.19-.88.35-1.89.46-2.67a11.43,11.43,0,0,1-4.7,1c-2.61,0-4-1.15-4.37-3.52h9.36a15.26,15.26,0,0,0,.16-2.27C144.06,14.77,142.25,12,138.06,12Zm-3.57,5.91c.24-2.26,1.33-3.46,3.41-3.46s3.2,1.28,3.2,3.46Zm10.76,27.81h1.26V33.07a4.57,4.57,0,0,0-1.26.18Zm-6.43-9.54a13.23,13.23,0,0,0-3.39.51v9h1.26V37.59a9.06,9.06,0,0,1,2.09-.26c2.23,0,2.86.87,2.86,2.55v5.87h1.26V39.64C142.9,37.46,141.87,36.21,138.82,36.21Zm-13.67,4.95c0,3.09,1.59,4.8,4.15,4.8a3.65,3.65,0,0,0,2.46-.92l0,.71H133v-9a8.26,8.26,0,0,0-3-.51C126.72,36.21,125.15,38,125.15,41.16ZM131.71,44a3.24,3.24,0,0,1-2.3.92c-2,0-3-1.43-3-3.76s1.1-3.83,3.52-3.83a7,7,0,0,1,1.76.22Zm19.9-32a18.16,18.16,0,0,0-5,.74V26.1h2.94V14.69a15.7,15.7,0,0,1,2.16-.16,18.88,18.88,0,0,1,2.21.11,10.94,10.94,0,0,0,.27-2.51A24.17,24.17,0,0,0,151.61,12Zm.79,24.4h-1.54L147,40.64v.12l4.14,5h1.57l-4.23-5.06Zm-45.5.29v9h1.26V37.53a9.6,9.6,0,0,1,1.77-.2,9.92,9.92,0,0,1,1.39.08,4.64,4.64,0,0,0,.13-1.09,13.68,13.68,0,0,0-1.56-.07A10.41,10.41,0,0,0,106.9,36.72ZM99.26,12.77a15,15,0,0,0-5-.74c-4.93,0-7.44,2.66-7.44,7.35,0,4.48,2.35,7,5.87,7a4.08,4.08,0,0,0,3.76-1.92l.16,1.6h2.69ZM96.33,23.06a4.57,4.57,0,0,1-2.85,1c-2.62,0-3.71-1.92-3.71-4.64,0-3,1.41-4.85,4.45-4.85a12.78,12.78,0,0,1,2.11.16Zm4.72,13.15c-3,0-4.18,2.13-4.18,4.82,0,3.11,1.59,4.93,4.61,4.93a5.51,5.51,0,0,0,2.87-.68c.09-.4.16-.89.2-1.21a6.12,6.12,0,0,1-3,.77c-2.06,0-3.2-1.15-3.36-3.32h6.68a8.22,8.22,0,0,0,.07-1.12C104.91,38.07,103.75,36.21,101.05,36.21Zm2.6,4.17H98.16c.14-1.87,1-3.06,2.83-3.06s2.66,1.2,2.66,3ZM121,39.23a3,3,0,0,0,2.12-2.89c0-2-1.34-3.29-4.7-3.29a17.78,17.78,0,0,0-3,.26V45.75h3.63c3.27,0,4.67-1.3,4.67-3.56A3,3,0,0,0,121,39.23Zm-4.35-4.89a14.08,14.08,0,0,1,1.79-.11c2.67,0,3.4,1,3.4,2.25s-1,2.23-2.93,2.23h-2.26Zm2.24,10.23h-2.24V39.88H119c2.28,0,3.39.9,3.39,2.36S121.32,44.57,118.92,44.57ZM91.28,36.21a7.39,7.39,0,0,0-3.16.76,4.38,4.38,0,0,0-2.84-.76,13.53,13.53,0,0,0-3.55.51v9H83V37.59a9.53,9.53,0,0,1,2.17-.26c1.93,0,2.65.73,2.65,2.48v5.94h1.26V39.64a4.56,4.56,0,0,0-.3-1.78,6,6,0,0,1,2.4-.53c1.86,0,2.65.87,2.65,2.51v5.91h1.27V39.64C95.09,37.46,94,36.21,91.28,36.21ZM107.8,12a25.18,25.18,0,0,0-5.34.74V26.1h2.94V14.74a15,15,0,0,1,2.32-.21c2.93,0,3.62,1,3.62,3.12V26.1h2.93v-9C114.27,13.92,112.7,12,107.8,12ZM85.48,26c.16-.78.26-1.68.34-2.48a6.64,6.64,0,0,1-2.29.4c-1.41,0-2.27-.67-2.27-2.4V15h4.38a22.37,22.37,0,0,0,.26-2.5H81.26v-5a10,10,0,0,0-2.93.43v14c0,3.26,1.81,4.56,4.67,4.56A6.67,6.67,0,0,0,85.48,26Z"/>
</svg>