<svg width="52" height="52" viewBox="0 0 52 52" fill="none"
    xmlns="http://www.w3.org/2000/svg">
    <path d="M12.1999 41.6474C12.0516 41.6477 11.9209 41.5498 11.8794 41.4074C11.8378 41.265 11.8954 41.1123 12.0206 41.0327L13.8992 39.8328L10.8332 41.6001C10.6787 41.684 10.4855 41.6335 10.3919 41.4845C10.2983 41.3356 10.3365 41.1396 10.4792 41.0367L16.6666 36.8321L8.39992 41.6001C8.24453 41.6872 8.04811 41.6367 7.95395 41.4855C7.8598 41.3343 7.90118 41.1358 8.04792 41.0347L13.3906 37.4721L6.93325 41.2001C6.77701 41.286 6.58081 41.2338 6.488 41.0815C6.39518 40.9293 6.43862 40.7309 6.58658 40.6314L8.89192 39.1461L6.85258 40.3254C6.69673 40.4112 6.50095 40.3595 6.40779 40.208C6.31463 40.0564 6.35694 39.8584 6.50392 39.7581L8.58125 38.4001L6.85258 39.4001C6.69772 39.4902 6.49932 39.4418 6.40339 39.2904C6.30747 39.1391 6.34833 38.939 6.49592 38.8374L10.1332 36.3154L6.89325 38.1854C6.73806 38.2848 6.53166 38.2396 6.43225 38.0844C6.33284 37.9292 6.37806 37.7228 6.53325 37.6234L8.29925 36.4001L7.51992 36.8494C7.36931 36.9346 7.17858 36.8904 7.08081 36.7476C6.98304 36.6049 7.01074 36.4111 7.14458 36.3014L9.28858 34.5801L7.51925 35.6001C7.3697 35.6844 7.18057 35.6414 7.08226 35.5006C6.98394 35.3599 7.00861 35.1675 7.13925 35.0561L7.90792 34.4161L7.51925 34.6401C7.38569 34.7173 7.21662 34.6927 7.11052 34.5807C7.00442 34.4688 6.989 34.2986 7.07325 34.1694L7.69325 33.2221C7.53192 33.2636 7.36472 33.1796 7.30167 33.0254C7.23861 32.8713 7.29907 32.6942 7.44325 32.6108L8.55525 31.9688C8.68881 31.8916 8.85788 31.9161 8.96398 32.0281C9.07008 32.1401 9.0855 32.3102 9.00125 32.4394L8.39992 33.3648L10.9532 31.8901C11.1028 31.8058 11.2919 31.8488 11.3902 31.9896C11.4886 32.1303 11.4639 32.3227 11.3332 32.4341L10.5612 33.0768L12.7186 31.8321C12.8693 31.7453 13.0614 31.789 13.1598 31.9324C13.2581 32.0758 13.2298 32.2707 13.0946 32.3801L10.9506 34.1001L15.0112 31.7561C15.1659 31.6688 15.3619 31.718 15.4568 31.8681C15.5518 32.0182 15.5124 32.2164 15.3672 32.3188L13.5999 33.5421L16.7332 31.7334C16.8876 31.6472 17.0825 31.6965 17.1773 31.8458C17.2721 31.9951 17.2337 32.1925 17.0899 32.2954L13.4546 34.8194L18.7999 31.7334C18.956 31.6447 19.1544 31.6955 19.2485 31.8484C19.3426 32.0013 19.2988 32.2013 19.1493 32.3008L17.0679 33.6588L20.4012 31.7334C20.5572 31.6488 20.7521 31.7011 20.8446 31.8525C20.9372 32.0038 20.895 32.2012 20.7486 32.3014L18.4519 33.7814L22.0059 31.7334C22.1611 31.6487 22.3554 31.6999 22.4488 31.85C22.5421 32.0002 22.5019 32.1971 22.3573 32.2988L17.0152 35.8608L24.1652 31.7334C24.3198 31.6495 24.513 31.7 24.6066 31.849C24.7002 31.9979 24.662 32.1939 24.5192 32.2968L18.3333 36.5014L26.5999 31.7334C26.7565 31.6459 26.9543 31.698 27.0474 31.8513C27.1406 32.0046 27.0957 32.2041 26.9459 32.3028L25.0679 33.5028L28.1273 31.7334C28.283 31.6463 28.4798 31.6973 28.5736 31.8492C28.6674 32.001 28.6249 32.1998 28.4772 32.3001L24.1026 35.1668L30.0546 31.7334C30.2097 31.6475 30.4049 31.6981 30.4988 31.8484C30.5927 31.9988 30.5525 32.1964 30.4072 32.2981L24.7099 36.1261L32.3193 31.7334C32.4741 31.6485 32.6682 31.6991 32.762 31.8487C32.8557 31.9984 32.8165 32.1951 32.6726 32.2974L26.6473 36.3774L34.6926 31.7334C34.8484 31.6476 35.0442 31.6993 35.1374 31.8509C35.2305 32.0025 35.1882 32.2005 35.0413 32.3008L31.0326 34.9161L36.5466 31.7334C36.7017 31.6475 36.8969 31.6981 36.9908 31.8484C37.0847 31.9988 37.0445 32.1964 36.8993 32.2981L31.2946 36.0561L38.7826 31.7334C38.9376 31.6462 39.1338 31.6961 39.2283 31.8468C39.3229 31.9974 39.2825 32.1957 39.1366 32.2974L33.0173 36.4514L41.1899 31.7334C41.3465 31.6459 41.5443 31.698 41.6374 31.8513C41.7306 32.0046 41.6857 32.2041 41.5359 32.3028L40.0693 33.2361L42.6693 31.7354C42.8243 31.6482 43.0204 31.6981 43.115 31.8488C43.2095 31.9994 43.1692 32.1977 43.0233 32.2994L36.8899 36.4641L44.3999 32.1268C44.5553 32.0396 44.7517 32.0901 44.8459 32.2413C44.94 32.3926 44.8987 32.5911 44.7519 32.6921L39.6539 36.1174L44.4846 33.3281C44.6392 33.2394 44.8362 33.288 44.9318 33.4383C45.0274 33.5887 44.9878 33.7877 44.8419 33.8901L40.2233 37.1088L44.4899 34.6468C44.6446 34.5594 44.8405 34.6087 44.9355 34.7588C45.0305 34.9089 44.9911 35.1071 44.8459 35.2094L42.5186 36.8094L44.4926 35.6701C44.6462 35.5819 44.8419 35.6293 44.9382 35.7779C45.0346 35.9266 44.9978 36.1246 44.8546 36.2288L42.6666 37.8134L44.4926 36.7594C44.6454 36.6725 44.8394 36.7193 44.9359 36.8662C45.0324 37.013 44.9983 37.2096 44.8579 37.3154L43.7566 38.1334L45.0319 37.4001C45.1808 37.3157 45.3695 37.3577 45.4684 37.4974C45.5673 37.6371 45.5443 37.829 45.4153 37.9414L43.9239 39.2134L45.1473 38.5081C45.2931 38.4216 45.4806 38.4584 45.583 38.5935C45.6853 38.7287 45.67 38.9191 45.5472 39.0361L44.8846 39.6788L45.1513 39.5261C45.2881 39.4475 45.4613 39.4756 45.5663 39.5934C45.6712 39.7113 45.6791 39.8866 45.5853 40.0134L45.3333 40.3508C45.477 40.3654 45.5949 40.471 45.6253 40.6123C45.6557 40.7535 45.5916 40.8983 45.4666 40.9708L44.3739 41.6014C44.2372 41.6802 44.064 41.6523 43.9589 41.5346C43.8538 41.417 43.8456 41.2417 43.9393 41.1147L44.0946 40.9054L42.8839 41.6001C42.7381 41.6866 42.5506 41.6498 42.4482 41.5147C42.3458 41.3795 42.3612 41.1891 42.4839 41.0721L43.1473 40.4294L41.1199 41.6001C40.9709 41.6859 40.7811 41.6443 40.6817 41.5041C40.5822 41.3639 40.6057 41.171 40.7359 41.0588L42.2266 39.7861L39.0826 41.6001C38.9298 41.687 38.7358 41.6402 38.6393 41.4934C38.5427 41.3465 38.5769 41.1499 38.7173 41.0441L39.8206 40.2248L37.4372 41.6001C37.2836 41.6882 37.0879 41.6409 36.9916 41.4922C36.8953 41.3436 36.932 41.1456 37.0752 41.0414L39.2546 39.4668L35.5499 41.6001C35.3954 41.6852 35.2014 41.6352 35.1073 41.4861C35.0131 41.337 35.0514 41.1403 35.1946 41.0374L37.5239 39.4374L33.7719 41.6001C33.6178 41.6854 33.4239 41.6361 33.3293 41.4875C33.2346 41.3389 33.272 41.1423 33.4146 41.0387L38.0339 37.8188L31.4846 41.6001C31.3295 41.686 31.1343 41.6354 31.0404 41.4851C30.9464 41.3347 30.9867 41.1371 31.1319 41.0354L36.2313 37.6101L29.3193 41.6001C29.164 41.6902 28.9653 41.6412 28.8698 41.4892C28.7742 41.3373 28.8161 41.137 28.9646 41.0361L35.0979 36.8714L26.9059 41.6001C26.7496 41.6848 26.5543 41.6319 26.4621 41.4799C26.3699 41.3279 26.4132 41.1302 26.5606 41.0308L28.0192 40.1027L25.4259 41.6001C25.2707 41.6902 25.072 41.6412 24.9764 41.4892C24.8809 41.3373 24.9228 41.137 25.0713 41.0361L31.1919 36.8808L23.0173 41.6001C22.8638 41.6746 22.6789 41.6213 22.5887 41.4766C22.4985 41.3318 22.5321 41.1423 22.6666 41.0374L28.2666 37.2794L20.7819 41.6001C20.6258 41.6888 20.4275 41.638 20.3333 41.4851C20.2392 41.3322 20.2831 41.1322 20.4326 41.0327L24.4419 38.4174L18.9279 41.6001C18.7729 41.6873 18.5767 41.6374 18.4822 41.4867C18.3876 41.3361 18.428 41.1378 18.5739 41.0361L24.5993 36.9561L16.5539 41.6001C16.3988 41.686 16.2036 41.6354 16.1097 41.4851C16.0158 41.3347 16.056 41.1371 16.2012 41.0354L21.8986 37.2074L14.2899 41.6001C14.1341 41.6872 13.9374 41.6362 13.8436 41.4843C13.7498 41.3325 13.7923 41.1337 13.9399 41.0334L18.3112 38.1668L12.3632 41.6001C12.3138 41.6297 12.2575 41.646 12.1999 41.6474Z" fill="#346D94"/>
    <path d="M37.9653 45.5447C37.8256 45.5442 37.7009 45.4567 37.6531 45.3253C37.6054 45.194 37.6445 45.0468 37.7513 44.9567L37.99 44.7567L36.736 45.48C36.5849 45.565 36.3939 45.52 36.2966 45.3765C36.1994 45.2329 36.2284 45.0388 36.3633 44.93L37.458 44.0633L35.666 45.1007C35.5143 45.1873 35.3214 45.142 35.224 44.997C35.1266 44.852 35.1577 44.6563 35.2953 44.5487L37.0253 43.2153L34.8093 44.4947C34.6554 44.5839 34.4586 44.5366 34.3621 44.3872C34.2656 44.2378 34.3034 44.0389 34.448 43.9353L35.3193 43.3093L34.2606 43.92C34.1061 44.0087 33.9091 43.9601 33.8134 43.8097C33.7178 43.6594 33.7574 43.4603 33.9033 43.358L34.0993 43.2207L33.9446 43.31C33.794 43.3952 33.6033 43.351 33.5055 43.2082C33.4078 43.0655 33.4355 42.8717 33.5693 42.762L36.2026 40.64L33.6026 42.14C33.454 42.2252 33.265 42.1839 33.1655 42.0444C33.066 41.905 33.0884 41.7128 33.2173 41.6L35.588 39.5333L33.6786 40.6333C33.5337 40.7149 33.3508 40.6771 33.25 40.5447C33.1493 40.4124 33.1615 40.2261 33.2786 40.108L34.4906 38.908C34.348 38.8916 34.2319 38.7856 34.2025 38.645C34.1732 38.5044 34.2371 38.3608 34.3613 38.2887L36.214 37.222C36.3589 37.1405 36.5418 37.1783 36.6426 37.3106C36.7433 37.4429 36.7311 37.6293 36.614 37.7473L35.5826 38.7673L38.2306 37.2393C38.3793 37.1542 38.5683 37.1955 38.6678 37.3349C38.7673 37.4744 38.7449 37.6665 38.616 37.7793L36.2453 39.846L39.5933 37.9127C39.7442 37.8254 39.9369 37.8691 40.0353 38.013C40.1338 38.1569 40.1047 38.3523 39.9686 38.4613L37.3373 40.5813L40.4293 38.796C40.5839 38.7073 40.7809 38.7559 40.8765 38.9063C40.9721 39.0567 40.9326 39.2557 40.7866 39.358L40.5866 39.4973L40.7446 39.406C40.8985 39.3168 41.0953 39.3641 41.1918 39.5135C41.2883 39.6629 41.2506 39.8618 41.106 39.9653L40.2346 40.5927L41.0006 40.1507C41.1524 40.0641 41.3452 40.1093 41.4426 40.2544C41.54 40.3994 41.5089 40.595 41.3713 40.7027L39.638 42.036L41.1213 41.18C41.2724 41.095 41.4634 41.14 41.5607 41.2836C41.6579 41.4271 41.6289 41.6212 41.494 41.73L40.3986 42.5967L40.9446 42.2813C41.094 42.1973 41.2827 42.2403 41.381 42.3806C41.4794 42.521 41.4553 42.713 41.3253 42.8247L40.564 43.4647C40.6847 43.5095 40.7688 43.6198 40.78 43.748C40.7913 43.8763 40.7277 43.9995 40.6166 44.0647L38.1326 45.5C38.0819 45.5296 38.0241 45.5451 37.9653 45.5447Z" fill="#1D4056"/>
    <path d="M36.6447 42.7734C36.5169 42.7745 36.3998 42.7026 36.343 42.5882C36.2862 42.4738 36.2998 42.337 36.378 42.236L36.9113 41.548L36.2653 41.9207C36.1281 41.9997 35.9542 41.9713 35.8492 41.8526C35.7443 41.734 35.7374 41.5579 35.8327 41.4314L36.166 40.986C36.0252 40.9661 35.9126 40.859 35.8855 40.7195C35.8584 40.5799 35.9229 40.4385 36.046 40.3674L37.1387 39.736C37.2759 39.657 37.4498 39.6854 37.5547 39.8041C37.6596 39.9227 37.6666 40.0988 37.5713 40.2254L37.344 40.5274L38.0407 40.1274C38.1786 40.0473 38.354 40.0762 38.459 40.1963C38.564 40.3164 38.5691 40.494 38.4713 40.62L37.938 41.3074L38.4647 41.0034C38.568 40.9377 38.699 40.9339 38.8059 40.9936C38.9128 41.0533 38.9784 41.1667 38.9768 41.2892C38.9751 41.4116 38.9065 41.5233 38.798 41.58L36.806 42.7307C36.7568 42.7587 36.7012 42.7734 36.6447 42.7734Z" fill="#BBC1CE"/>
    <path d="M14.4327 45.6093C14.2906 45.6091 14.1642 45.5187 14.118 45.3843C14.0718 45.2498 14.116 45.1009 14.2281 45.0133L14.5467 44.764L13.508 45.364C13.3578 45.451 13.166 45.4082 13.0671 45.2655C12.9682 45.1229 12.9953 44.9282 13.1294 44.818L15.208 43.112L12.3881 44.7393C12.2344 44.8231 12.0422 44.7738 11.9478 44.6265C11.8534 44.4791 11.889 44.2839 12.0294 44.1793L12.296 43.9913L11.8807 44.2313C11.7272 44.3209 11.5304 44.2743 11.4334 44.1253C11.3364 43.9764 11.3734 43.7775 11.5174 43.6733L12.788 42.748L11.3994 43.5473C11.2457 43.6342 11.0509 43.5862 10.9552 43.4378C10.8596 43.2894 10.8962 43.0922 11.0387 42.988L11.8387 42.416L11.0527 42.8693C10.9017 42.9555 10.7099 42.9111 10.6121 42.7674C10.5142 42.6237 10.5432 42.4289 10.6787 42.32L12.9994 40.4727L10.8661 41.704C10.7176 41.7889 10.529 41.7477 10.4295 41.6087C10.3299 41.4696 10.3518 41.2778 10.4801 41.1647L12.4621 39.4267L11.1481 40.1847C10.9999 40.2681 10.8127 40.2265 10.7137 40.0883C10.6146 39.9501 10.6355 39.7595 10.7621 39.646L11.67 38.8507C11.6295 38.8228 11.5957 38.7861 11.5714 38.7434C11.4798 38.5841 11.5344 38.3807 11.6934 38.2887L13.546 37.222C13.6945 37.1371 13.8831 37.1783 13.9826 37.3174C14.0822 37.4564 14.0603 37.6482 13.9321 37.7614L13.7641 37.908L15.0661 37.1554C15.2145 37.0704 15.4031 37.1116 15.5026 37.2507C15.6022 37.3898 15.5803 37.5816 15.4521 37.6947L13.4701 39.428L16.53 37.662C16.6809 37.5764 16.8721 37.6207 16.9699 37.7639C17.0677 37.9071 17.0394 38.1014 16.9047 38.2107L14.582 40.0667L17.4341 38.42C17.5878 38.3332 17.7825 38.3812 17.8782 38.5296C17.9739 38.678 17.9373 38.8752 17.7947 38.9794L16.9987 39.5487L17.8867 39.0367C18.0402 38.9471 18.237 38.9938 18.334 39.1427C18.431 39.2917 18.3941 39.4905 18.25 39.5947L16.9794 40.5167L18.2694 39.772C18.4234 39.6855 18.6182 39.7342 18.7134 39.883C18.8087 40.0318 18.7712 40.2291 18.6281 40.3327L18.3614 40.522L18.3934 40.504C18.5435 40.4186 18.734 40.462 18.8323 40.604C18.9306 40.746 18.9042 40.9396 18.7714 41.05L16.6927 42.756L18.3594 41.794C18.5114 41.7034 18.7077 41.7473 18.8065 41.894C18.9054 42.0408 18.8724 42.2392 18.7314 42.346L18.1687 42.7847C18.3191 42.7852 18.4505 42.8864 18.4895 43.0317C18.5285 43.1769 18.4653 43.3303 18.3354 43.406L14.5994 45.5647C14.5488 45.5942 14.4913 45.6096 14.4327 45.6093Z" fill="#1D4056"/>
    <path d="M14.3218 42.8873C14.1937 42.8871 14.0771 42.8134 14.0218 42.6978C13.9665 42.5822 13.9823 42.4452 14.0625 42.3453L14.4318 41.8853L13.7118 42.3006C13.5823 42.3748 13.4193 42.3538 13.3128 42.2493C13.2063 42.1448 13.1822 41.9822 13.2538 41.8513L13.7712 40.9113L13.7145 40.944C13.5562 41.0268 13.3608 40.9701 13.2714 40.8154C13.182 40.6607 13.2304 40.4631 13.3812 40.3673L14.4738 39.7359C14.6033 39.6618 14.7664 39.6828 14.8729 39.7873C14.9794 39.8918 15.0035 40.0544 14.9318 40.1853L14.4145 41.1253L15.6412 40.4173C15.7801 40.337 15.9565 40.3671 16.0609 40.4889C16.1654 40.6106 16.1683 40.7895 16.0678 40.9146L15.6972 41.3753L15.7278 41.358C15.8861 41.2752 16.0815 41.3318 16.1709 41.4865C16.2603 41.6412 16.2119 41.8388 16.0612 41.9346L14.4885 42.8426C14.438 42.8722 14.3804 42.8876 14.3218 42.8873Z" fill="#BBC1CE"/>
    <path d="M28.6703 32.3134C28.5253 32.3136 28.3968 32.22 28.3525 32.0819C28.3082 31.9439 28.3583 31.793 28.4763 31.7088L31.143 29.8028L26.8736 32.2668C26.7203 32.354 26.5255 32.3066 26.4293 32.1587C26.3332 32.0107 26.369 31.8135 26.511 31.7088L29.5843 29.4734L24.7456 32.2668C24.5921 32.3563 24.3953 32.3097 24.2983 32.1607C24.2014 32.0118 24.2383 31.8129 24.3823 31.7088L27.4983 29.4374L22.6003 32.2668C22.4474 32.3558 22.2515 32.3097 22.1542 32.1619C22.0569 32.0141 22.0921 31.8161 22.2343 31.7108L25.6576 29.1601L20.2743 32.2668C20.1226 32.3534 19.9297 32.3081 19.8323 32.1631C19.735 32.018 19.7661 31.8224 19.9036 31.7148L23.677 28.8068L17.6816 32.2668C17.5294 32.3506 17.3383 32.3034 17.2426 32.1584C17.1469 32.0133 17.1787 31.8191 17.3156 31.7121L20.8343 29.0668L18.061 30.6668C17.9116 30.7533 17.7209 30.7115 17.6215 30.5704C17.522 30.4294 17.5467 30.2357 17.6783 30.1241L21.7336 26.6668C21.688 26.5182 21.751 26.3578 21.8856 26.2801L22.8416 25.7288C22.9907 25.644 23.1798 25.6862 23.2787 25.8263C23.3776 25.9664 23.354 26.1586 23.2243 26.2708L20.8783 28.2708L25.2843 25.7334C25.437 25.6453 25.6319 25.6913 25.7291 25.8385C25.8262 25.9856 25.792 26.1829 25.651 26.2888L22.1336 28.9334L27.6756 25.7334C27.8276 25.6462 28.0211 25.6915 28.1186 25.8371C28.216 25.9827 28.1842 26.1788 28.0456 26.2861L24.2736 29.1934L30.267 25.7334C30.4199 25.6444 30.6157 25.6904 30.713 25.8383C30.8103 25.9861 30.7752 26.1841 30.633 26.2894L27.207 28.8381L32.5876 25.7334C32.7412 25.6439 32.938 25.6905 33.0349 25.8395C33.1319 25.9884 33.095 26.1872 32.951 26.2914L29.835 28.5634L34.7336 25.7334C34.8872 25.6453 35.083 25.6926 35.1793 25.8413C35.2756 25.9899 35.2389 26.1879 35.0956 26.2921L32.021 28.5281L36.7716 25.7854C36.9258 25.695 37.1238 25.7422 37.2206 25.8924C37.3174 26.0427 37.2784 26.2425 37.1323 26.3454L34.4656 28.2521L37.681 26.3954C37.8328 26.3069 38.0273 26.3516 38.1254 26.4974C38.2235 26.6432 38.1915 26.8401 38.0523 26.9474L35.063 29.2728L38.4296 27.3294C38.5807 27.2444 38.7718 27.2894 38.869 27.433C38.9663 27.5765 38.9373 27.7706 38.8023 27.8794L36.8816 29.3968L39.0716 28.1301C39.2221 28.0409 39.416 28.0832 39.5157 28.227C39.6153 28.3708 39.5868 28.5672 39.4503 28.6768L38.2503 29.6621L39.6503 28.8528C39.7986 28.7668 39.988 28.8073 40.0881 28.9465C40.1882 29.0857 40.1664 29.2782 40.0376 29.3914L39.3196 30.0241L40.1863 29.5234C40.3287 29.4406 40.5102 29.4742 40.6135 29.6025C40.7168 29.7308 40.7109 29.9153 40.5996 30.0368L40.0663 30.6214L40.749 30.2274C40.8511 30.1684 40.9767 30.1678 41.0795 30.2257C41.1822 30.2836 41.2466 30.3915 41.249 30.5094L41.2663 31.4094L41.5603 31.2401C41.7196 31.1495 41.9221 31.2045 42.0137 31.3632C42.1053 31.5219 42.0517 31.7248 41.8936 31.8174L41.111 32.2688C41.0089 32.3277 40.8832 32.3284 40.7805 32.2705C40.6778 32.2125 40.6133 32.1047 40.611 31.9868L40.5936 31.0868L38.5483 32.2668C38.4061 32.3486 38.2255 32.3148 38.1225 32.1871C38.0196 32.0594 38.0248 31.8757 38.135 31.7541L38.6683 31.1694L36.7656 32.2668C36.6176 32.3512 36.4297 32.3102 36.3301 32.1719C36.2305 32.0336 36.2513 31.8424 36.3783 31.7288L37.0976 31.0948L35.067 32.2668C34.9168 32.3538 34.7249 32.3109 34.626 32.1683C34.5271 32.0256 34.5542 31.831 34.6883 31.7208L35.8883 30.7368L33.2376 32.2701C33.0864 32.3567 32.894 32.3123 32.7961 32.1681C32.6983 32.0239 32.728 31.8286 32.8643 31.7201L34.7843 30.2001L31.2003 32.2668C31.0488 32.3528 30.8566 32.3076 30.7593 32.1631C30.6619 32.0186 30.6923 31.8235 30.829 31.7154L33.819 29.3894L28.837 32.2668C28.7866 32.2969 28.729 32.313 28.6703 32.3134Z" fill="#21B8EA"/>
    <path d="M18.3397 28.2234C18.1962 28.2234 18.0689 28.1316 18.0235 27.9955C17.9781 27.8594 18.0249 27.7095 18.1397 27.6234L22.2064 24.6188L16.0984 28.1448C15.944 28.231 15.7491 28.1817 15.6543 28.0324C15.5596 27.8831 15.5979 27.6857 15.7417 27.5828L21.003 23.9228L14.355 27.7608C14.1994 27.8493 14.0015 27.799 13.907 27.6468C13.8126 27.4946 13.8553 27.295 14.0037 27.1948L19.0137 23.8614L13.0944 27.2788C12.9379 27.3697 12.7374 27.3192 12.6427 27.165C12.548 27.0107 12.5938 26.8091 12.7457 26.7108L17.0197 23.9334L12.0864 26.7828C11.9328 26.8585 11.7468 26.8056 11.6562 26.6604C11.5655 26.5151 11.5996 26.3248 11.735 26.2201L19.6344 20.9021L10.901 25.9448C10.7441 26.0345 10.5442 25.9827 10.4506 25.8281C10.3569 25.6735 10.4035 25.4723 10.5557 25.3748L13.4157 23.5674L10.263 25.3854C10.1061 25.4751 9.90624 25.4234 9.81256 25.2687C9.71889 25.1141 9.76554 24.913 9.91771 24.8154L13.4824 22.5581L9.64905 24.7714C9.49165 24.867 9.28659 24.8168 9.19105 24.6594C9.0955 24.502 9.14565 24.297 9.30305 24.2014L13.9537 21.2414L9.06438 24.0668C8.90643 24.1616 8.70152 24.1104 8.60671 23.9524C8.51191 23.7945 8.56309 23.5896 8.72105 23.4948L9.72105 22.8741L8.65438 23.4881C8.49731 23.5746 8.29994 23.5213 8.20771 23.3676C8.11548 23.2138 8.16143 23.0146 8.31171 22.9168L9.63038 22.0941L8.25638 22.8861C8.15504 22.9487 8.02797 22.9525 7.92305 22.8961C7.81813 22.8397 7.75129 22.7315 7.74772 22.6124C7.74414 22.4933 7.80437 22.3814 7.90571 22.3188L16.2337 16.8281L7.71505 21.7461C7.55853 21.8352 7.35955 21.7838 7.26568 21.6301C7.17181 21.4765 7.21699 21.276 7.36771 21.1774L13.7877 17.0281L7.35705 20.7401C7.20095 20.8288 7.00261 20.778 6.90847 20.6251C6.81432 20.4722 6.8582 20.2722 7.00771 20.1728L14.2977 15.3901L7.03905 19.5814C6.88201 19.6775 6.67681 19.6281 6.58071 19.4711C6.48462 19.3141 6.53401 19.1089 6.69105 19.0128L11.9044 15.6481L6.93505 18.5174C6.77974 18.6059 6.58225 18.5562 6.48743 18.4046C6.3926 18.2531 6.4342 18.0537 6.58171 17.9528L14.1944 12.8001L6.91038 17.0041C6.75387 17.0932 6.55489 17.0418 6.46101 16.8881C6.36714 16.7345 6.41232 16.534 6.56305 16.4354L9.92305 14.2614L7.00505 15.9461C6.84966 16.0332 6.65324 15.9827 6.55909 15.8315C6.46493 15.6803 6.50631 15.4818 6.65305 15.3808L11.335 12.2401L7.34638 14.5428C7.19268 14.6296 6.99791 14.5816 6.90223 14.4332C6.80656 14.2848 6.84317 14.0876 6.98571 13.9834L11.9864 10.4001L8.12905 12.6261C7.97395 12.712 7.77874 12.6615 7.68482 12.5111C7.5909 12.3607 7.63113 12.1631 7.77638 12.0614L8.73505 11.4168C8.59599 11.4069 8.47775 11.3116 8.43865 11.1777C8.39954 11.0439 8.44784 10.8999 8.55971 10.8168L10.3164 9.48342C10.2626 9.45446 10.2181 9.41104 10.1877 9.35809C10.0957 9.19866 10.1503 8.9948 10.3097 8.90275L13.5277 7.04475C13.6801 6.9561 13.8752 7.00144 13.9728 7.14821C14.0705 7.29498 14.037 7.49242 13.8964 7.59875L13.1504 8.16609L16.035 6.49942C16.1907 6.40922 16.3898 6.45877 16.485 6.61139C16.5802 6.76401 16.5372 6.96464 16.3877 7.06475L16.1417 7.23075L17.5277 6.43075C17.6814 6.34389 17.8762 6.39193 17.9719 6.54031C18.0675 6.68868 18.0309 6.88592 17.8884 6.99008L12.8884 10.5754L19.5864 6.70875C19.7418 6.62164 19.9382 6.67211 20.0323 6.82333C20.1265 6.97455 20.0851 7.17308 19.9384 7.27409L15.2544 10.4141L20.9784 7.10942C21.1349 7.02033 21.3339 7.07166 21.4278 7.22536C21.5216 7.37905 21.4764 7.57952 21.3257 7.67809L17.973 9.84742L21.935 7.56142C22.0904 7.47291 22.2878 7.52267 22.3827 7.67421C22.4775 7.82575 22.4359 8.02511 22.2884 8.12609L14.6684 13.2814L23.2317 8.33875C23.3882 8.24966 23.5872 8.301 23.6811 8.45469C23.775 8.60839 23.7298 8.80885 23.579 8.90742L18.3664 12.2714L24.0917 8.96609C24.2478 8.87734 24.4462 8.92819 24.5403 9.08109C24.6344 9.23399 24.5906 9.43398 24.441 9.53342L17.1497 14.3168L24.9431 9.81742C25.0446 9.75525 25.1717 9.75201 25.2763 9.8089C25.3809 9.86579 25.4472 9.97418 25.4503 10.0932C25.4533 10.2123 25.3926 10.3239 25.291 10.3861L18.8717 14.5334L25.6284 10.6341C25.7844 10.5436 25.9841 10.5937 26.079 10.747C26.1739 10.9004 26.1296 11.1015 25.979 11.2008L17.6457 16.6941L26.3577 11.6668C26.5152 11.576 26.7163 11.628 26.8099 11.7838C26.9036 11.9396 26.8551 12.1417 26.701 12.2381L25.3957 13.0521L26.6684 12.3161C26.8263 12.2213 27.0312 12.2725 27.1261 12.4304C27.2209 12.5884 27.1697 12.7933 27.0117 12.8881L26.0117 13.5128L26.9757 12.9561C27.1331 12.8605 27.3382 12.9107 27.4337 13.0681C27.5293 13.2255 27.4791 13.4305 27.3217 13.5261L22.6684 16.4841L27.2817 13.8174C27.4384 13.7313 27.6351 13.784 27.7276 13.937C27.8201 14.09 27.7754 14.2887 27.6264 14.3874L24.059 16.6468L27.5117 14.6534C27.6693 14.5582 27.8742 14.6088 27.9694 14.7664C28.0646 14.924 28.014 15.1289 27.8564 15.2241L25.0017 17.0334L27.6784 15.4881C27.834 15.3979 28.0331 15.4474 28.1283 15.6001C28.2236 15.7527 28.1805 15.9533 28.031 16.0534L20.129 21.3708L27.8057 16.9388C27.9622 16.8478 28.1627 16.8983 28.2574 17.0525C28.3521 17.2068 28.3063 17.4084 28.1544 17.5068L23.8817 20.2788L27.7244 18.0601C27.8801 17.9715 28.0779 18.0218 28.1724 18.174C28.2669 18.3262 28.2242 18.5259 28.0757 18.6261L23.065 21.9594L27.5257 19.3841C27.6801 19.2978 27.875 19.3471 27.9698 19.4965C28.0645 19.6458 28.0262 19.8431 27.8824 19.9461L22.6244 23.6041L26.9951 21.0801C27.1485 20.989 27.3465 21.0349 27.4442 21.1842C27.5419 21.3335 27.5046 21.5333 27.3597 21.6374L23.293 24.6421L25.8184 23.1841C25.9702 23.0986 26.1622 23.1445 26.259 23.2894C26.3558 23.4342 26.3247 23.6292 26.1877 23.7368L24.3284 25.1728C24.3929 25.2009 24.4467 25.249 24.4817 25.3101C24.5738 25.4695 24.5191 25.6734 24.3597 25.7654L21.1437 27.6228C20.9914 27.7128 20.7953 27.6682 20.697 27.5211C20.5987 27.374 20.6323 27.1758 20.7737 27.0694L21.811 26.2694L18.5064 28.1774C18.4558 28.2071 18.3983 28.223 18.3397 28.2234Z" fill="#FFC306"/>
    <path d="M8.75194 34.9861C8.62711 34.985 8.51336 34.9142 8.45719 34.8027C8.40103 34.6912 8.41187 34.5577 8.48527 34.4567L9.36127 33.2521L7.51994 34.3134C7.38185 34.3934 7.20644 34.3643 7.10159 34.244C6.99673 34.1237 6.99185 33.9459 7.08994 33.8201L7.54994 33.2274C7.41293 33.2018 7.30632 33.0936 7.28268 32.9563C7.25904 32.8189 7.32337 32.6813 7.44394 32.6114L8.55727 31.9687C8.6952 31.8894 8.86993 31.9187 8.97455 32.0385C9.07916 32.1584 9.08449 32.3355 8.98727 32.4614L8.65394 32.8874L10.3826 31.8874C10.5189 31.809 10.6914 31.8365 10.7966 31.9534C10.9017 32.0703 10.9109 32.2448 10.8186 32.3721L9.94261 33.5721L10.4046 33.3054C10.5079 33.2397 10.639 33.236 10.7459 33.2956C10.8528 33.3553 10.9184 33.4688 10.9167 33.5912C10.9151 33.7136 10.8464 33.8253 10.7379 33.8821L8.91861 34.9407C8.86813 34.9705 8.81056 34.9862 8.75194 34.9861Z" fill="#FFC306"/>
    <path d="M37.4343 39.6253C36.4858 39.5987 35.6652 40.2811 35.5183 41.2186C35.4838 41.6826 35.6416 42.1403 35.9547 42.4845C36.2677 42.8287 36.7085 43.0291 37.1737 43.0386H37.2263C37.2501 43.0426 37.2742 43.0448 37.2983 43.0453C38.2784 43.0408 39.0896 42.2822 39.1597 41.3046C39.1461 40.3648 38.3742 39.6134 37.4343 39.6253ZM37.427 42.2806C36.9793 42.253 36.6058 41.9286 36.5157 41.4893C36.4493 41.246 36.49 40.9859 36.6275 40.7745C36.7651 40.5631 36.9863 40.4205 37.2357 40.3826C38.323 40.3366 38.521 42.1586 37.427 42.2806Z" fill="#0F474A"/>
    <path d="M14.9194 39.7673C14.013 39.7041 13.1779 40.2596 12.886 41.12C12.8029 41.5537 12.9162 42.002 13.1955 42.3441C13.4747 42.6863 13.8911 42.8872 14.3327 42.8927C14.3779 42.9016 14.4241 42.9045 14.47 42.9013C14.486 42.9013 14.5034 42.8973 14.52 42.896C14.55 42.896 14.5794 42.8893 14.61 42.886C15.5018 42.8899 16.2772 42.2752 16.4767 41.406C16.5151 40.9751 16.3664 40.5484 16.0683 40.2348C15.7703 39.9212 15.3517 39.7509 14.9194 39.7673ZM14.9027 42.4227C14.4345 42.3828 14.0349 42.0683 13.886 41.6227C13.7327 41.1813 13.858 40.402 14.384 40.2693C14.8827 40.144 15.3467 40.6693 15.4687 41.1073C15.5827 41.5153 15.4407 42.3547 14.9027 42.4227Z" fill="#0F474A"/>
    <path d="M45.15 37.096C45.1207 36.6696 45.1207 36.2417 45.15 35.8153C45.0387 34.906 45.5067 33.522 45.15 32.6913C44.4673 31.102 43.5553 32.3227 42.334 31.6667C40.6673 30.772 39.7907 27.8347 38.3667 26.5587C37.5067 25.788 37.054 25.7787 35.9433 25.7413C32.064 25.608 28.16 25.7273 24.2767 25.7413C26.8288 23.6503 28.3601 20.5639 28.4813 17.2667C28.4813 17.256 28.474 17.25 28.4727 17.2407C28.4713 17.2313 28.484 17.218 28.4833 17.2053C28.4153 14.1552 27.0867 11.2695 24.8135 9.23469C22.5403 7.19986 19.5257 6.19773 16.4867 6.46667C10.8447 6.95467 6.18865 11.6907 6.18532 17.432C6.18198 23.804 11.808 28.6853 18.06 28.21C18.7485 28.1572 19.4309 28.0421 20.0987 27.866L17.6227 30.1033C17.07 30.6027 16.514 31.0987 15.9647 31.6013C15.9185 31.6421 15.8759 31.6867 15.8373 31.7347C15.798 31.7347 15.7527 31.7347 15.6967 31.7387C14.1487 31.8447 12.5887 31.8607 11.034 31.8973C10.8259 31.7783 10.5689 31.785 10.3673 31.9147C10.2787 31.9147 10.19 31.9187 10.1007 31.922C9.31265 31.9473 8.31732 31.8553 7.63398 32.3533C6.48665 33.1907 6.84398 34.874 6.84398 36.1013C6.84398 37.2653 6.38932 37.342 6.17732 38.426C5.49998 41.9333 7.55265 41.636 10.2007 41.6113C10.638 46.8947 18.75 46.5873 19.134 41.5913H32.8673C33.2853 46.8847 41.3833 46.61 41.8007 41.63C42.9533 41.73 44.6087 41.9567 45.3693 41.2787C46.3027 40.4453 45.832 38.4907 45.6247 37.4253C45.5867 37.2507 45.19 37.2353 45.15 37.096ZM37.5727 27.0627C38.7427 28.2033 39.7173 30.6587 41.0647 31.8053H31.8167V26.2053C33.8007 26.0727 36.288 25.81 37.5727 27.0627ZM15.816 27.6033C10.8162 26.6796 7.18796 22.3191 7.18865 17.2347C7.18465 10.7667 13.1453 5.60334 19.6673 7.27534C24.412 8.49134 27.3053 12.686 27.5153 17.442C27.2367 23.5053 22.3013 28.7193 15.816 27.6033ZM21.642 27.3367C21.642 27.3367 21.642 27.3313 21.648 27.3287C22.3275 27.0385 22.9762 26.6812 23.5847 26.262H30.6093C30.6873 26.262 30.77 26.262 30.8513 26.2573V31.8087H16.7393C18.5667 30.8 20.2247 28.6147 21.642 27.3333V27.3367ZM8.96465 32.5C9.35987 32.3816 9.76748 32.3093 10.1793 32.2847C10.1907 33.0533 10.358 34.1953 9.34798 34.3053C8.81744 34.3441 8.28486 34.3466 7.75398 34.3127C7.73536 33.5137 8.21951 32.7888 8.96465 32.5ZM13.448 44.7667C12.0568 44.1228 11.1619 42.7342 11.15 41.2013C11.2833 38.7053 13.732 36.6053 16.2333 38.05C17.4398 38.7628 18.1814 40.0587 18.1847 41.46C18.18 43.8667 15.7847 45.784 13.448 44.7693V44.7667ZM36.2667 44.8413C34.7951 44.2277 33.8312 42.7957 33.8167 41.2013C33.8372 40.3289 34.1394 39.4866 34.678 38.8C35.6682 37.7122 37.2298 37.3536 38.5953 37.9007C39.9717 38.5543 40.8495 39.941 40.8513 41.4647C40.8453 43.7613 38.5773 45.75 36.2673 44.844L36.2667 44.8413ZM44.6713 41.072C44.2847 41.3993 42.6127 41.154 41.8107 41.0873C41.6707 35.6933 33.5627 36.1207 32.8913 41.0727H19.1433C18.992 35.6887 10.8693 36.1393 10.222 41.098C9.35998 41.1813 8.15532 41.3367 7.68065 41.0547C7.05332 40.68 6.68465 38.1073 7.44398 37.588H8.47398C8.71446 37.6018 8.94874 37.5086 9.11398 37.3333C9.23065 37.1467 9.01398 37.08 8.86065 37.08H7.81265C7.79665 36.48 7.71665 35.7467 7.71665 35.0407C8.48265 35.1419 9.26122 35.0868 10.0053 34.8787C11.1853 34.3987 11.1607 33.3207 11.1573 32.2573C12.602 32.288 14.126 32.5373 15.454 32.2887C15.578 32.2642 15.7006 32.2333 15.8213 32.196H30.888C31.0588 32.2662 31.2505 32.2662 31.4213 32.196H41.6427C41.6807 32.2147 41.7167 32.2387 41.7553 32.2553C42.9753 32.7887 43.8133 31.78 44.1847 33.4673C44.3273 34.6665 44.3302 35.8782 44.1933 37.078H43.5267C43.2857 37.0638 43.051 37.1579 42.8867 37.3347C42.7713 37.522 42.986 37.5913 43.1413 37.5913H44.3267C44.98 38.0107 45.2593 40.5773 44.6713 41.0747V41.072Z" fill="#0F474A"/>
    <path d="M17.0131 23.157C16.8161 23.157 16.6639 23.0259 16.5564 22.7636C16.3701 22.3069 16.0889 21.7666 15.7128 21.1426L14.7617 19.5081C14.5539 19.7161 14.2315 20.0077 13.7944 20.383C13.755 21.0838 13.7353 21.7666 13.7353 22.4313C13.7353 22.6347 13.6852 22.7998 13.5849 22.9264C13.4882 23.053 13.3628 23.1163 13.2087 23.1163C12.8469 23.1163 12.666 22.8088 12.666 22.1939C12.666 21.8186 12.6857 21.2579 12.7251 20.5119C12.7681 19.7613 12.7896 19.1984 12.7896 18.8231C12.7896 18.1358 12.7968 17.3513 12.8111 16.4696C12.829 15.5833 12.838 14.8011 12.838 14.1229C12.838 13.9194 12.829 13.6798 12.8111 13.4039C12.7968 13.1281 12.7896 12.8885 12.7896 12.685C12.7896 12.4815 12.838 12.3165 12.9347 12.1899C13.035 12.0633 13.1622 12 13.3162 12C13.4702 12 13.5956 12.0633 13.6923 12.1899C13.7927 12.3165 13.8428 12.4815 13.8428 12.685C13.8428 12.893 13.8518 13.1394 13.8697 13.4243C13.8876 13.7046 13.8965 13.9488 13.8965 14.1568L13.8589 16.3407C13.841 17.1275 13.8356 17.9142 13.8428 18.701C14.33 18.2307 14.7993 17.7153 15.2506 17.1546L16.4328 15.615C16.551 15.4613 16.6782 15.3844 16.8143 15.3844C16.954 15.3844 17.0794 15.4545 17.1905 15.5947C17.3051 15.7348 17.3624 15.8976 17.3624 16.083C17.3624 16.2367 17.3105 16.3882 17.2066 16.5374C16.766 17.1885 16.2232 17.8871 15.5784 18.6332L16.7498 20.6475C17.2979 21.5925 17.572 22.2075 17.572 22.4923C17.572 22.6732 17.5147 22.8292 17.4 22.9603C17.289 23.0914 17.16 23.157 17.0131 23.157Z" fill="#0F474A"/>
    <path d="M22.6606 17.8667C22.6356 18.4319 22.4565 18.7145 22.1233 18.7145C21.8152 18.7145 21.6612 18.4907 21.6612 18.0431C21.6612 17.9572 21.6558 17.7989 21.6451 17.5683L21.6289 16.9986C21.0629 17.0845 20.6098 17.2857 20.2695 17.6022C19.9506 17.8961 19.6855 18.3393 19.4742 18.9316L19.4849 22.6483C19.4849 23.105 19.3076 23.3333 18.953 23.3333C18.6377 23.3333 18.4801 23.105 18.4801 22.6483V17.8871C18.4801 17.7379 18.4837 17.5141 18.4908 17.2156C18.5016 16.9172 18.507 16.6934 18.507 16.5442C18.507 16.0875 18.6646 15.8592 18.9798 15.8592C19.3309 15.8592 19.5082 16.2345 19.5118 16.985C20.1996 16.1485 20.9626 15.7303 21.8009 15.7303C22.0911 15.7303 22.3078 15.8682 22.4511 16.144C22.5944 16.4198 22.666 16.8358 22.666 17.392C22.666 17.6271 22.6642 17.7854 22.6606 17.8667Z" fill="#0F474A"/>
</svg>
