<svg width="52" height="52" viewBox="0 0 52 52" fill="none"
    xmlns="http://www.w3.org/2000/svg">
    <path d="M33.8468 16.8426C33.7815 16.8424 33.7176 16.8235 33.6628 16.7879C33.5577 16.7182 33.501 16.5951 33.5162 16.4699L33.5715 16.0032L33.2722 16.1766C33.1393 16.2548 32.9702 16.2316 32.8632 16.1207C32.7562 16.0097 32.7392 15.8398 32.8222 15.7099L33.0002 15.4232L32.6315 15.6359C32.4957 15.7141 32.3239 15.6871 32.2185 15.5712C32.1132 15.4553 32.1027 15.2816 32.1935 15.1539L32.8242 14.2666L31.7448 14.8899C31.5987 14.9733 31.4134 14.9347 31.3127 14.7999C31.212 14.6651 31.2275 14.4764 31.3488 14.3599L31.7208 14.0052L31.1115 14.3572C30.9653 14.4468 30.775 14.4107 30.6716 14.2739C30.5682 14.1371 30.5855 13.9442 30.7115 13.8279L31.7655 12.8166L30.2928 13.6666C30.1411 13.7564 29.9456 13.7125 29.8469 13.5664C29.7481 13.4203 29.7803 13.2226 29.9202 13.1152L30.1248 12.9552C29.9722 13.0051 29.8057 12.9391 29.7287 12.7981C29.6518 12.6571 29.6863 12.4813 29.8108 12.3799L30.6175 11.7186L30.1882 11.9666C30.041 12.0561 29.8498 12.0187 29.7472 11.8803C29.6446 11.7419 29.6644 11.5481 29.7928 11.4332L31.4442 9.87325L30.1882 10.5999C30.041 10.688 29.8511 10.65 29.7491 10.5122C29.6471 10.3743 29.6663 10.1816 29.7935 10.0666L30.1442 9.73324C30.0125 9.78515 29.8623 9.74819 29.7698 9.64107C29.6772 9.53395 29.6624 9.38004 29.7328 9.25724L30.0095 8.77591C29.9173 8.75673 29.8377 8.69897 29.7908 8.61724C29.6987 8.45799 29.753 8.25419 29.9122 8.16191L30.6648 7.73324C30.7954 7.65763 30.9604 7.67912 31.0673 7.78564C31.1741 7.89216 31.1961 8.05715 31.1208 8.18791L30.9295 8.52124L32.2935 7.73324C32.4407 7.64518 32.6306 7.68314 32.7326 7.82099C32.8346 7.95884 32.8154 8.1516 32.6882 8.26658L32.3482 8.58591L33.5582 7.88724C33.7054 7.79616 33.8979 7.83299 34.0012 7.97202C34.1044 8.11104 34.084 8.30595 33.9542 8.42058L32.3022 9.97924L33.8155 9.10524C33.9659 9.01778 34.1583 9.06071 34.2572 9.20382C34.3562 9.34693 34.3284 9.54207 34.1935 9.65191L33.3868 10.3132L33.8155 10.0666C33.9668 9.98109 34.1584 10.0262 34.2557 10.1702C34.353 10.3142 34.3233 10.5088 34.1875 10.6172L33.9208 10.8266C34.0659 10.7992 34.2118 10.8705 34.2792 11.0019C34.3467 11.1332 34.3197 11.2933 34.2128 11.3952L33.1595 12.4059L33.8155 12.0272C33.9628 11.9362 34.1553 11.973 34.2585 12.112C34.3617 12.251 34.3413 12.446 34.2115 12.5606L33.8362 12.9179C33.9731 12.8516 34.1375 12.8864 34.2359 13.0024C34.3342 13.1185 34.3414 13.2864 34.2535 13.4106L33.6228 14.2986L33.8155 14.1872C33.9484 14.1091 34.1175 14.1322 34.2245 14.2432C34.3315 14.3541 34.3485 14.524 34.2655 14.6539L34.0168 15.0539C34.1056 15.0633 34.1869 15.1078 34.2426 15.1776C34.2982 15.2474 34.3235 15.3366 34.3128 15.4252L34.2195 16.2026C34.2393 16.2225 34.2563 16.2449 34.2702 16.2692C34.3623 16.4285 34.308 16.6323 34.1488 16.7246L34.0155 16.8026C33.9638 16.8306 33.9056 16.8444 33.8468 16.8426Z" fill="#295474"/>
    <path d="M11.5587 38.982C11.4091 38.9823 11.2777 38.8829 11.2372 38.739C11.1967 38.5951 11.257 38.4418 11.3846 38.364L13.08 37.326L10.4587 38.8393C10.3012 38.9301 10.1 38.8781 10.0064 38.7223C9.91281 38.5665 9.96125 38.3644 10.1153 38.268L19.8333 32.1693L10.1667 37.7507C10.0092 37.8462 9.8042 37.7961 9.70865 37.6387C9.6131 37.4813 9.66325 37.2762 9.82065 37.1807L22.3253 29.2113L10.166 36.232C10.0084 36.3274 9.80334 36.2769 9.70798 36.1193C9.61262 35.9618 9.66306 35.7567 9.82065 35.6613L21.4467 28.2967L10.1653 34.81C10.0077 34.9052 9.80283 34.8546 9.70765 34.697C9.61247 34.5394 9.66306 34.3345 9.82065 34.2393L20.8747 27.2573L10.1647 33.4407C10.008 33.5268 9.81129 33.4741 9.71879 33.3211C9.62629 33.1681 9.67093 32.9694 9.81998 32.8707L19.42 26.8267L10.164 32.1693C10.0065 32.2564 9.80825 32.2027 9.71622 32.048C9.6242 31.8934 9.67161 31.6935 9.82332 31.5967L10.368 31.2633L10.164 31.3807C10.007 31.4686 9.80848 31.4161 9.71557 31.262C9.62266 31.1078 9.66887 30.9078 9.81998 30.81L17.3407 26.092L10.1633 30.236C10.0076 30.3149 9.81743 30.2602 9.72729 30.1108C9.63716 29.9613 9.67759 29.7676 9.81998 29.6667L15.51 26.1147L10.1633 29.2C10.0059 29.2956 9.80086 29.2454 9.70532 29.088C9.60977 28.9306 9.65992 28.7256 9.81732 28.63L18.1193 23.342L10.1627 27.9333C10.0065 28.0206 9.80929 27.969 9.71583 27.8165C9.62238 27.664 9.66599 27.4648 9.81465 27.3653L18.772 21.58L10.162 26.5533C10.004 26.648 9.79927 26.5966 9.70465 26.4387C9.61003 26.2807 9.66136 26.076 9.81932 25.9813L13 23.9953L10.162 25.634C10.0055 25.7231 9.80649 25.6718 9.71262 25.5181C9.61874 25.3644 9.66392 25.1639 9.81465 25.0653L17.058 20.392L10.1613 24.374C10.0037 24.4694 9.79868 24.4189 9.70332 24.2613C9.60796 24.1038 9.6584 23.8987 9.81598 23.8033L13.8667 21.2407L10.1607 23.3787C10.0041 23.4662 9.80631 23.4141 9.71316 23.2608C9.62 23.1075 9.66485 22.908 9.81465 22.8093L14.7333 19.658L10.16 22.298C10.0035 22.3871 9.80449 22.3358 9.71062 22.1821C9.61674 22.0284 9.66192 21.8279 9.81265 21.7293L14.7507 18.5427L10.16 21.194C10.0035 21.2912 9.79785 21.2432 9.70065 21.0867C9.60345 20.9302 9.6515 20.7245 9.80798 20.6273L16.478 16.18L10.1593 19.828C10.0028 19.9171 9.80382 19.8658 9.70995 19.7121C9.61608 19.5584 9.66126 19.3579 9.81198 19.2593L13.31 16.9927L10.902 18.386C10.7459 18.4765 10.5462 18.4264 10.4513 18.273C10.3564 18.1197 10.4007 17.9186 10.5513 17.8193L15.8053 14.3447C15.6849 14.3088 15.5948 14.2083 15.5724 14.0846C15.55 13.9609 15.5991 13.8352 15.6993 13.7593L21.4213 9.43334C21.413 9.30662 21.4773 9.18615 21.5873 9.12267L22.6407 8.51401C22.7937 8.42068 22.9931 8.46505 23.0921 8.61445C23.1911 8.76386 23.1542 8.9648 23.0087 9.06934L20.392 11.0473L23.5453 9.22667C23.7014 9.1362 23.9011 9.18626 23.996 9.33964C24.0909 9.49301 24.0466 9.69406 23.896 9.79334L20.0807 12.3167L24.3473 9.85534C24.5038 9.76625 24.7028 9.81759 24.7967 9.97128C24.8906 10.125 24.8454 10.3254 24.6947 10.424L21.1987 12.686L25.086 10.44C25.242 10.3473 25.4435 10.3965 25.5393 10.5506C25.6351 10.7046 25.5901 10.9071 25.438 11.006L18.7667 15.4547L26.0873 11.228C26.2438 11.1389 26.4428 11.1903 26.5367 11.3439C26.6306 11.4976 26.5854 11.6981 26.4347 11.7967L21.5013 14.982L26.9013 11.8653C27.0579 11.7778 27.2557 11.8299 27.3488 11.9832C27.442 12.1365 27.3971 12.336 27.2473 12.4347L22.3253 15.5887L27.6933 12.4893C27.8503 12.3996 28.0501 12.4514 28.1438 12.606C28.2375 12.7606 28.1908 12.9618 28.0387 13.0593L23.9873 15.624L28.418 13.0667C28.5745 12.9776 28.7735 13.0289 28.8674 13.1826C28.9612 13.3363 28.916 13.5368 28.7653 13.6353L21.5247 18.304L29.3413 13.7907C29.4984 13.7042 29.6958 13.7574 29.788 13.9112C29.8802 14.065 29.8343 14.2642 29.684 14.362L26.506 16.3473L30.0147 14.3207C30.1717 14.2246 30.3769 14.274 30.473 14.431C30.5691 14.588 30.5197 14.7932 30.3626 14.8893L21.4 20.6773L31.0266 15.1193C31.1841 15.0238 31.3891 15.0739 31.4846 15.2313C31.5802 15.3887 31.5301 15.5938 31.3726 15.6893L23.076 20.9747L31.9553 15.8487C32.1124 15.7622 32.3098 15.8154 32.402 15.9692C32.4942 16.123 32.4483 16.3222 32.298 16.42L26.604 19.974L32.714 16.4467C32.871 16.3587 33.0695 16.4112 33.1624 16.5654C33.2553 16.7195 33.2091 16.9196 33.058 17.0173L25.5407 21.7333L33.554 17.1067C33.7115 17.0196 33.9097 17.0733 34.0017 17.228C34.0938 17.3827 34.0464 17.5825 33.8946 17.6793L33.3613 18.0067L34.1333 17.5607C34.2911 17.4655 34.4961 17.5162 34.5913 17.674C34.6865 17.8318 34.6358 18.0368 34.478 18.132L24.878 24.1787L35.0666 18.296C35.2237 18.208 35.4221 18.2606 35.5151 18.4147C35.608 18.5689 35.5618 18.7689 35.4107 18.8667L24.358 25.8467L35.168 19.6047C35.3256 19.5093 35.5306 19.5598 35.626 19.7173C35.7213 19.8749 35.6709 20.08 35.5133 20.1753L23.884 27.542L35.1693 21.0267C35.3263 20.937 35.5261 20.9887 35.6198 21.1434C35.7135 21.298 35.6668 21.4991 35.5146 21.5967L23.0126 29.564L35.1707 22.5447C35.3274 22.4598 35.5232 22.5132 35.615 22.6659C35.7069 22.8187 35.6624 23.0167 35.514 23.1153L25.7947 29.2153L35.172 23.8C35.3303 23.7059 35.5349 23.758 35.629 23.9163C35.7231 24.0747 35.671 24.2793 35.5126 24.3733L33.814 25.4133L35.1733 24.628C35.2755 24.5668 35.4026 24.5647 35.5067 24.6226C35.6108 24.6805 35.6761 24.7895 35.678 24.9086C35.6799 25.0277 35.6182 25.1388 35.516 25.2L30 28.6433L35.174 25.656C35.3305 25.5669 35.5295 25.6183 35.6234 25.7719C35.7172 25.9256 35.672 26.1261 35.5213 26.2247L26.976 31.7513L35.176 27.018C35.3329 26.9283 35.5328 26.9801 35.6265 27.1347C35.7201 27.2893 35.6735 27.4904 35.5213 27.588L30.5933 30.7267L35.1766 28.0807C35.3317 27.9948 35.527 28.0453 35.6209 28.1957C35.7148 28.3461 35.6746 28.5437 35.5293 28.6453L28.21 33.5787L35.178 29.556C35.3332 29.4659 35.5319 29.5149 35.6275 29.6669C35.723 29.8188 35.6811 30.0191 35.5326 30.12L29.908 33.9627L35.1793 30.92C35.3352 30.8342 35.531 30.8859 35.6241 31.0375C35.7173 31.189 35.675 31.3871 35.528 31.4873L34.328 32.268L35.1773 31.7787C35.3329 31.694 35.5275 31.7458 35.6204 31.8965C35.7133 32.0473 35.6722 32.2444 35.5266 32.3453L35.2333 32.538C35.3908 32.4827 35.5649 32.5525 35.6407 32.7012C35.7165 32.8499 35.6706 33.0317 35.5333 33.1267L34.016 34.172L35.178 33.5013C35.3302 33.4147 35.5236 33.4607 35.6205 33.6066C35.7175 33.7525 35.6849 33.9486 35.546 34.0553L33.4126 35.6707L35.1813 34.6493C35.3281 34.5675 35.5129 34.6078 35.6123 34.7433C35.7118 34.8788 35.6948 35.0672 35.5727 35.1827L33.7893 36.8053L35.1826 36.0007C35.3166 35.924 35.4856 35.9492 35.5913 36.0617C35.6969 36.1742 35.7116 36.3445 35.6266 36.4733L34.8507 37.642L35.184 37.45C35.2873 37.3843 35.4183 37.3806 35.5253 37.4402C35.6322 37.4999 35.6978 37.6134 35.6961 37.7358C35.6945 37.8583 35.6258 37.9699 35.5173 38.0267L33.9546 38.9333C33.8207 39.01 33.6517 38.9848 33.546 38.8723C33.4404 38.7598 33.4257 38.5895 33.5106 38.4607L34.2866 37.2933L31.4426 38.9333C31.2958 39.0152 31.1111 38.9749 31.0116 38.8394C30.9122 38.7039 30.9292 38.5155 31.0513 38.4L32.836 36.7773L29.0973 38.9333C28.9452 39.0182 28.7533 38.9717 28.6571 38.8265C28.5608 38.6813 28.5926 38.4864 28.73 38.3793L30.8633 36.764L27.1073 38.9333C26.9528 39.0184 26.7588 38.9685 26.6647 38.8194C26.5705 38.6702 26.6088 38.4736 26.752 38.3707L28.2727 37.3227L25.482 38.9333C25.3264 39.018 25.1318 38.9662 25.0389 38.8155C24.946 38.6647 24.9871 38.4676 25.1327 38.3667L25.344 38.228L24.1213 38.9333C23.9652 39.0221 23.7669 38.9712 23.6727 38.8183C23.5786 38.6654 23.6225 38.4654 23.772 38.366L24.9587 37.592L22.6327 38.9333C22.4779 39.0194 22.2829 38.9695 22.1886 38.8196C22.0942 38.6698 22.1335 38.4723 22.278 38.37L27.9027 34.526L20.2667 38.9333C20.112 39.0163 19.9196 38.9651 19.8265 38.8163C19.7335 38.6675 19.7717 38.4721 19.914 38.3693L27.2346 33.4313L17.706 38.9333C17.5497 39.0181 17.3544 38.9652 17.2622 38.8132C17.1699 38.6611 17.2133 38.4635 17.3607 38.364L22.2813 35.2307L15.8667 38.9333C15.7107 39.018 15.5158 38.9656 15.4233 38.8143C15.3307 38.6629 15.3729 38.4656 15.5193 38.3653L24.0667 32.8393L13.5047 38.9333C13.3482 39.0159 13.1545 38.9618 13.0634 38.8101C12.9723 38.6584 13.0156 38.462 13.162 38.3627L18.674 34.9227L11.7253 38.9367C11.6747 38.9662 11.6172 38.9818 11.5587 38.982Z" fill="#D8DDE5"/>
    <path d="M36.1678 22.7679C36.0319 22.7676 35.9099 22.685 35.8592 22.559C35.8085 22.433 35.8393 22.2888 35.9371 22.1946L36.3811 21.7679L35.6877 22.1679C35.5482 22.2453 35.3733 22.2129 35.2707 22.0907C35.1682 21.9684 35.1666 21.7906 35.2671 21.6666L36.2864 20.4372L34.7244 21.3392C34.5776 21.4211 34.3928 21.3808 34.2934 21.2453C34.194 21.1097 34.211 20.9214 34.3331 20.8059L34.6198 20.5446L34.1284 20.8286C33.9828 20.9137 33.7966 20.8766 33.6946 20.7422C33.5927 20.6079 33.6072 20.4185 33.7284 20.3012L34.2951 19.7479L33.4424 20.2406C33.2954 20.326 33.1077 20.287 33.0067 20.1502C32.9058 20.0133 32.9241 19.8225 33.0491 19.7072L33.4104 19.3739L32.8244 19.7119C32.6848 19.7926 32.5074 19.7618 32.4032 19.6388C32.299 19.5157 32.2978 19.3356 32.4004 19.2112L33.4084 17.9846L31.8564 18.8806C31.7175 18.9608 31.5411 18.9308 31.4367 18.809C31.3322 18.6872 31.3293 18.5083 31.4297 18.3832L32.4551 17.1039L30.8597 18.0252C30.7181 18.1071 30.538 18.0741 30.4346 17.9473C30.3312 17.8206 30.3351 17.6375 30.4437 17.5152L31.3391 16.5039L29.9931 17.2812C29.8517 17.3632 29.6719 17.3306 29.5682 17.2043C29.4646 17.078 29.4678 16.8952 29.5757 16.7726L30.4804 15.7419L29.1151 16.5266C28.9761 16.6077 28.7991 16.5779 28.6942 16.4559C28.5894 16.3339 28.5867 16.1544 28.6877 16.0292L29.6957 14.7692L28.1251 15.6766C27.9852 15.7572 27.8077 15.7259 27.7037 15.6024C27.5997 15.4789 27.5992 15.2987 27.7024 15.1746L28.6611 14.0226L27.1884 14.8726C27.0515 14.9511 26.8782 14.9228 26.7734 14.8047C26.6686 14.6867 26.6609 14.5113 26.7551 14.3846L27.8004 12.9906L26.1264 13.9579C25.9861 14.0392 25.8076 14.0077 25.7036 13.8833C25.5996 13.7588 25.6002 13.5776 25.7051 13.4539L26.6311 12.3572L25.2144 13.1752C25.0729 13.2621 24.889 13.2315 24.7832 13.1035C24.6774 12.9756 24.6819 12.7893 24.7937 12.6666L25.6604 11.6792L24.3504 12.4359C24.2033 12.5226 24.0145 12.4841 23.9131 12.3468C23.8116 12.2095 23.8303 12.0177 23.9564 11.9026L24.2771 11.6026L23.7437 11.9119C23.5992 11.9913 23.4183 11.9531 23.3183 11.822C23.2182 11.6909 23.229 11.5064 23.3437 11.3879L23.9217 10.8079L22.9591 11.3632C22.7998 11.4538 22.5973 11.3988 22.5057 11.2401C22.414 11.0815 22.4677 10.8786 22.6257 10.7859L25.7631 8.97457C25.9076 8.89515 26.0885 8.93336 26.1886 9.06445C26.2886 9.19554 26.2778 9.38009 26.1631 9.49857L25.5857 10.0786L26.4657 9.5699C26.6129 9.48184 26.8029 9.5198 26.9049 9.65765C27.0069 9.7955 26.9876 9.98825 26.8604 10.1032L26.5391 10.4032L27.0817 10.0899C27.2231 10.008 27.403 10.0406 27.5066 10.1669C27.6102 10.2932 27.607 10.476 27.4991 10.5986L26.6324 11.5859L27.9517 10.8239C28.0921 10.7426 28.2706 10.7741 28.3746 10.8985C28.4786 11.023 28.478 11.2042 28.3731 11.3279L27.4464 12.4246L28.8704 11.5999C29.0075 11.5207 29.1814 11.549 29.2865 11.6674C29.3915 11.7859 29.3987 11.9619 29.3037 12.0886L28.2617 13.4819L29.9471 12.5086C30.087 12.428 30.2645 12.4592 30.3685 12.5827C30.4725 12.7062 30.473 12.8865 30.3697 13.0106L29.4104 14.1632L30.8937 13.3066C31.0327 13.2263 31.209 13.2564 31.3135 13.3781C31.418 13.4999 31.4209 13.6788 31.3204 13.8039L30.3137 15.0666L31.8937 14.1539C32.0351 14.072 32.215 14.1046 32.3186 14.2309C32.4222 14.3572 32.419 14.54 32.3111 14.6626L31.4064 15.6932L32.7791 14.9012C32.9205 14.8202 33.0998 14.8534 33.2029 14.9796C33.306 15.1059 33.3027 15.2882 33.1951 15.4106L32.2998 16.4199L33.6544 15.6379C33.7932 15.5576 33.9695 15.5874 34.0741 15.709C34.1787 15.8305 34.1819 16.0093 34.0818 16.1346L33.0564 17.4139L34.6618 16.4866C34.8014 16.405 34.9795 16.4354 35.0841 16.5588C35.1887 16.6821 35.1897 16.8628 35.0864 16.9872L34.0778 18.2146L35.6404 17.3126C35.7874 17.2272 35.9752 17.2661 36.0761 17.403C36.177 17.5398 36.1588 17.7307 36.0338 17.8459L35.6718 18.1792L36.2644 17.8366C36.41 17.7514 36.5963 17.7885 36.6982 17.9229C36.8001 18.0573 36.7856 18.2466 36.6644 18.3639L36.0978 18.9172L36.9578 18.4206C37.1045 18.3398 37.2884 18.3805 37.3873 18.5156C37.4863 18.6508 37.4697 18.8383 37.3484 18.9539L37.0618 19.2152L37.5604 18.9272C37.7002 18.8466 37.8776 18.8776 37.9817 19.0009C38.0858 19.1242 38.0867 19.3043 37.9838 19.4286L36.9644 20.6579L38.4311 19.8092C38.5773 19.7197 38.7676 19.7558 38.871 19.8926C38.9744 20.0294 38.9571 20.2223 38.8311 20.3386L37.9338 21.2039C37.9926 21.2333 38.0412 21.2798 38.0731 21.3372C38.1652 21.4965 38.1109 21.7003 37.9518 21.7926L36.3358 22.7259C36.2846 22.7548 36.2265 22.7693 36.1678 22.7679Z" fill="#346D94"/>
    <path d="M8.18477 22.6206C8.0413 22.6206 7.91392 22.5288 7.86855 22.3927C7.82318 22.2566 7.86999 22.1067 7.98477 22.0206L11.0248 19.7893L7.66611 21.7286C7.51048 21.8188 7.31135 21.7693 7.21614 21.6167C7.12094 21.464 7.164 21.2634 7.31344 21.1633L12.1261 17.9333L6.99277 20.898C6.83537 20.9935 6.63032 20.9434 6.53477 20.786C6.43923 20.6286 6.48937 20.4235 6.64677 20.328L12.6188 16.514L8.53277 18.8666C8.3757 18.9531 8.17834 18.8999 8.0861 18.7461C7.99387 18.5923 8.03983 18.3931 8.19011 18.2953L11.1661 16.4366C11.0467 16.3945 10.9615 16.2885 10.9461 16.1628C10.9307 16.0372 10.9878 15.9136 11.0934 15.844L15.3601 13.02C15.2422 13.0232 15.1309 12.9652 15.0661 12.8666C14.971 12.7147 15.0131 12.5147 15.1614 12.414L18.2128 10.3433C18.1901 10.3236 18.17 10.3012 18.1528 10.2766C18.0549 10.1306 18.0873 9.93364 18.2268 9.82662L21.2548 7.49329C21.2278 7.3537 21.2923 7.21235 21.4154 7.14129L22.6248 6.44462C22.7771 6.35459 22.9732 6.39921 23.0715 6.54628C23.1698 6.69334 23.1362 6.89161 22.9948 6.99796L22.6174 7.28796L23.2928 6.89796C23.4484 6.80578 23.6491 6.85446 23.7451 7.00768C23.8412 7.16089 23.7975 7.36275 23.6468 7.46262L23.1321 7.81196L23.8708 7.38529C24.0268 7.29482 24.2265 7.34488 24.3214 7.49825C24.4163 7.65163 24.372 7.85268 24.2214 7.95196L20.5134 10.4073L24.6334 8.02862C24.7914 7.93381 24.9963 7.985 25.0911 8.14296C25.1859 8.30091 25.1347 8.50581 24.9768 8.60062L24.8561 8.67596L25.1794 8.48929C25.336 8.40177 25.5338 8.45385 25.6269 8.60714C25.7201 8.76043 25.6752 8.95995 25.5254 9.05862L19.5521 12.874L20.3068 12.438C20.4624 12.3478 20.6615 12.3973 20.7567 12.5499C20.8519 12.7025 20.8089 12.9032 20.6594 13.0033L15.8481 16.2346L15.9594 16.168C16.1127 16.0794 16.3085 16.1261 16.4053 16.2743C16.5021 16.4225 16.4661 16.6205 16.3234 16.7253L11.8914 19.98C11.9329 20.0082 11.9675 20.0453 11.9928 20.0886C12.0848 20.248 12.0302 20.4519 11.8708 20.544L8.35144 22.576C8.30084 22.6054 8.24331 22.6208 8.18477 22.6206Z" fill="#346D94"/>
    <path d="M14.8576 38.9999C14.7153 39.0005 14.5883 38.9106 14.5415 38.7762C14.4947 38.6418 14.5384 38.4926 14.6503 38.4046L18.1956 35.6046L14.1869 37.9139C14.0336 38.0025 13.8379 37.9558 13.7411 37.8076C13.6443 37.6594 13.6802 37.4613 13.8229 37.3566L16.9016 35.0966L14.1869 36.6666C14.0345 36.7552 13.8395 36.7099 13.7418 36.5631C13.6441 36.4164 13.6776 36.2189 13.8183 36.1126L17.5849 33.2499L14.1849 35.2119C14.031 35.2954 13.8387 35.2454 13.7448 35.0976C13.6508 34.9498 13.6873 34.7545 13.8283 34.6506L15.2643 33.6506L14.1849 34.2733C14.0314 34.3628 13.8346 34.3162 13.7376 34.1672C13.6406 34.0183 13.6776 33.8194 13.8216 33.7153L16.7136 31.6086L14.1863 33.0666C14.0334 33.1523 13.8402 33.1049 13.7443 32.9582C13.6484 32.8115 13.6825 32.6156 13.8223 32.5099L16.9763 30.1853L14.1863 31.7953C14.0319 31.8815 13.837 31.8322 13.7422 31.6829C13.6474 31.5336 13.6858 31.3362 13.8296 31.2333L15.2189 30.2666L14.1863 30.8626C14.032 30.9501 13.8361 30.9015 13.7407 30.7519C13.6453 30.6023 13.6838 30.4042 13.8283 30.3013L15.1123 29.3999L14.1863 29.9333C14.0325 30.0189 13.8386 29.9702 13.7435 29.8221C13.6484 29.6739 13.685 29.4774 13.8269 29.3733L14.1229 29.1633C13.9708 29.2132 13.8046 29.1479 13.7272 29.0077C13.6498 28.8675 13.683 28.6921 13.8063 28.5899L15.0063 27.5939L14.1883 28.0659C14.0468 28.1469 13.8676 28.1137 13.7645 27.9875C13.6614 27.8613 13.6647 27.679 13.7723 27.5566L14.5589 26.6666L14.1863 26.8813C14.0536 26.9555 13.8875 26.9306 13.7825 26.8207C13.6775 26.7108 13.6601 26.5438 13.7403 26.4146L13.9469 26.0973C13.8306 26.0479 13.7523 25.937 13.7445 25.8109C13.7367 25.6848 13.8009 25.5652 13.9103 25.5019L14.6616 25.0679C14.7951 24.9907 14.9642 25.0153 15.0703 25.1273C15.1764 25.2392 15.1918 25.4094 15.1076 25.5386L15.0603 25.6106L16.0003 25.0666C16.1417 24.9847 16.3217 25.0175 16.4252 25.144C16.5288 25.2706 16.5252 25.4535 16.4169 25.5759L15.6269 26.4666L18.0549 25.0666C18.2049 24.98 18.3962 25.0228 18.4951 25.165C18.594 25.3072 18.5676 25.5014 18.4343 25.6119L17.2343 26.6086L19.9063 25.0666C20.0605 24.9777 20.2573 25.0256 20.3534 25.1755C20.4495 25.3254 20.4108 25.5243 20.2656 25.6273L20.0376 25.7899L21.2496 25.0893C21.4048 24.9902 21.6109 25.0357 21.7099 25.1909C21.809 25.3461 21.7634 25.5522 21.6083 25.6513L20.3196 26.5566L21.8089 25.6973C21.9633 25.611 22.1582 25.6603 22.253 25.8096C22.3477 25.959 22.3094 26.1563 22.1656 26.2593L20.7743 27.2253L21.8149 26.6253C21.9684 26.5341 22.1663 26.58 22.264 26.7294C22.3617 26.8787 22.3245 27.0785 22.1796 27.1826L19.0263 29.5066L21.8169 27.8953C21.9704 27.8057 22.1672 27.8523 22.2642 28.0013C22.3612 28.1502 22.3243 28.3491 22.1803 28.4533L19.2903 30.5586L21.8189 29.0993C21.9729 29.0158 22.1652 29.0658 22.2591 29.2136C22.353 29.3614 22.3165 29.5566 22.1756 29.6606L20.7423 30.6606L21.8203 30.0386C21.9726 29.9499 22.1677 29.9953 22.2654 30.142C22.363 30.2888 22.3295 30.4863 22.1889 30.5926L18.4196 33.4593L21.8229 31.4953C21.9758 31.4096 22.1689 31.4569 22.2649 31.6036C22.3608 31.7503 22.3267 31.9462 22.1869 32.0519L19.1089 34.3119L21.8249 32.7333C21.9761 32.6466 22.1686 32.6911 22.2664 32.8353C22.3643 32.9795 22.3346 33.1747 22.1983 33.2833L18.6529 36.0866L21.8269 34.2539C21.9738 34.171 22.1595 34.2108 22.2594 34.3467C22.3594 34.4827 22.342 34.6718 22.2189 34.7873L19.9716 36.8493L21.8296 35.7773C21.9777 35.6929 22.1656 35.7338 22.2652 35.8721C22.3647 36.0104 22.3439 36.2016 22.2169 36.3153L21.7696 36.7113L21.8309 36.6766C21.9488 36.6085 22.0963 36.619 22.2034 36.7031C22.3105 36.7871 22.3557 36.9279 22.3176 37.0586L22.0336 38.0299C22.1773 38.0446 22.2953 38.1502 22.3256 38.2915C22.356 38.4327 22.2919 38.5775 22.1669 38.6499L21.6736 38.9339C21.5557 39.002 21.4082 38.9915 21.3011 38.9075C21.194 38.8234 21.1488 38.6826 21.1869 38.5519L21.4449 37.6693L19.2449 38.9399C19.0968 39.0256 18.9078 38.9852 18.8076 38.8464C18.7075 38.7075 18.7288 38.5154 18.8569 38.4019L19.3049 38.0059L17.6776 38.9466C17.5307 39.0296 17.345 38.9897 17.2451 38.8538C17.1452 38.7178 17.1626 38.5287 17.2856 38.4133L19.5336 36.3493L15.0236 38.9533C14.9735 38.9835 14.9161 38.9996 14.8576 38.9999Z" fill="#346D94"/>
    <path d="M22.5288 21.6247C22.3945 21.625 22.2732 21.5446 22.221 21.4208C22.1689 21.297 22.1961 21.154 22.2902 21.0581L23.3568 19.9607L21.3355 21.1274C21.1862 21.2125 20.9968 21.1701 20.8979 21.0297C20.799 20.8892 20.8231 20.6966 20.9535 20.5847L21.9922 19.7047L20.6715 20.4667C20.5197 20.5552 20.3252 20.5106 20.2271 20.3648C20.129 20.219 20.161 20.022 20.3002 19.9147L20.6115 19.6727L20.3408 19.8294C20.1907 19.9176 19.998 19.8754 19.8985 19.7326C19.799 19.5897 19.8261 19.3943 19.9608 19.2841L20.7388 18.6374L20.1862 18.9567C20.046 19.0381 19.8676 19.0068 19.7634 18.8826C19.6593 18.7584 19.6596 18.5773 19.7642 18.4534L20.7308 17.3074C20.5691 17.3495 20.4012 17.2653 20.3382 17.1106C20.2751 16.9558 20.3364 16.7783 20.4815 16.6954L22.0215 15.8061C22.1619 15.7239 22.3411 15.755 22.4455 15.8797C22.5499 16.0044 22.5491 16.1863 22.4435 16.3101L21.5002 17.4281L23.7995 16.1041C23.9496 16.0159 24.1423 16.058 24.2418 16.2009C24.3414 16.3437 24.3142 16.5391 24.1795 16.6494L23.4022 17.2954L24.4882 16.6667C24.64 16.5783 24.8345 16.6229 24.9326 16.7687C25.0306 16.9145 24.9987 17.1114 24.8595 17.2187L24.5468 17.4614L24.8728 17.2734C25.0221 17.1883 25.2115 17.2307 25.3104 17.3711C25.4093 17.5116 25.3853 17.7042 25.2548 17.8161L24.2168 18.6954L25.1142 18.1774C25.2583 18.0942 25.4417 18.1301 25.5439 18.2615C25.646 18.3929 25.6356 18.5795 25.5195 18.6987L24.4495 19.8001L24.8215 19.5854C24.9247 19.5249 25.0524 19.5243 25.1561 19.5839C25.2598 19.6435 25.3237 19.7541 25.3234 19.8737C25.3231 19.9933 25.2588 20.1036 25.1548 20.1627L22.6948 21.5827C22.6441 21.6109 22.5869 21.6254 22.5288 21.6247Z" fill="#4D8AAB"/>
    <path d="M27.289 30.314C27.1469 30.3145 27.0202 30.2248 26.9733 30.0907C26.9264 29.9566 26.9696 29.8075 27.081 29.7193L28.8743 28.292L25.4663 30.2593C25.312 30.3456 25.1171 30.2963 25.0223 30.1469C24.9275 29.9976 24.9659 29.8003 25.1097 29.6973L25.2583 29.5933L24.901 29.7993C24.7514 29.8851 24.561 29.8425 24.4622 29.7012C24.3633 29.5599 24.3885 29.3665 24.5203 29.2553L26.547 27.5593L24.853 28.5373C24.7088 28.6216 24.5245 28.5861 24.4219 28.4543C24.3193 28.3225 24.33 28.1352 24.447 28.016L25.587 26.846L24.8537 27.2693C24.7264 27.3439 24.5652 27.3259 24.4574 27.2251C24.3497 27.1243 24.321 26.9646 24.387 26.8327L24.7403 26.1213C24.5899 26.1204 24.4586 26.0188 24.4201 25.8733C24.3816 25.7278 24.4453 25.5746 24.5757 25.4993L25.3283 25.0647C25.4557 24.9901 25.6169 25.008 25.7246 25.1089C25.8324 25.2097 25.861 25.3693 25.795 25.5013L25.4777 26.1393L27.339 25.0667C27.483 24.9846 27.6654 25.0207 27.7672 25.1515C27.869 25.2822 27.8592 25.4679 27.7443 25.5873L26.6043 26.7587L29.533 25.0667C29.6829 24.9789 29.8751 25.021 29.9746 25.1634C30.0741 25.3058 30.0476 25.5007 29.9137 25.6113L27.887 27.3073L31.771 25.0667C31.9254 24.9804 32.1203 25.0297 32.215 25.179C32.3098 25.3284 32.2715 25.5257 32.1277 25.6287L31.9783 25.7333L32.4157 25.4807C32.5668 25.3928 32.7601 25.4366 32.8586 25.581C32.9571 25.7254 32.9273 25.9214 32.7903 26.03L30.9963 27.458L32.4823 26.6C32.6294 26.5146 32.8171 26.5536 32.918 26.6904C33.0189 26.8272 33.0007 27.0181 32.8757 27.1333L31.7017 28.2273L32.4857 27.774C32.6295 27.6909 32.8126 27.7265 32.9149 27.8573C33.0172 27.9882 33.0076 28.1744 32.8923 28.294L32.6157 28.5813C32.7725 28.563 32.9207 28.6574 32.9706 28.8072C33.0204 28.9571 32.9582 29.1213 32.8217 29.2007L30.9663 30.2667C30.8227 30.3477 30.6415 30.3115 30.5399 30.1816C30.4384 30.0517 30.4471 29.8671 30.5603 29.7473L30.7683 29.5307L29.4917 30.264C29.3446 30.3507 29.1558 30.3122 29.0543 30.1749C28.9529 30.0376 28.9716 29.8458 29.0977 29.7307L30.273 28.6373L27.4557 30.2667C27.4053 30.2968 27.3478 30.3132 27.289 30.314Z" fill="#4D8AAB"/>
    <path d="M36.5826 45.638C36.4361 45.6382 36.3066 45.5427 36.2635 45.4026C36.2205 45.2626 36.2739 45.1108 36.3953 45.0287L36.9766 44.634L35.5272 45.4707C35.3719 45.5578 35.1754 45.5073 35.0813 45.3561C34.9871 45.2049 35.0285 45.0064 35.1752 44.9053L36.5513 43.984L34.4179 45.2167C34.2621 45.3025 34.0663 45.2508 33.9731 45.0992C33.88 44.9476 33.9223 44.7496 34.0693 44.6493L34.6999 44.238L33.4999 44.9313C33.3441 45.0172 33.1483 44.9655 33.0551 44.8139C32.962 44.6623 33.0043 44.4643 33.1513 44.364L35.0179 43.144L32.6753 44.4933C32.5202 44.5793 32.3249 44.5287 32.231 44.3783C32.1371 44.2279 32.1773 44.0304 32.3226 43.9287L36.7893 40.9287L31.6899 43.8727C31.5343 43.9629 31.3352 43.9133 31.24 43.7607C31.1447 43.6081 31.1878 43.4075 31.3373 43.3073L36.7312 39.6833L30.7779 43.1207C30.6214 43.2144 30.4187 43.1649 30.323 43.0097C30.2272 42.8545 30.274 42.6511 30.4279 42.5533L34.8753 39.6307L30.1379 42.3673C29.9826 42.4559 29.7851 42.4061 29.6903 42.2546C29.5955 42.103 29.6371 41.9037 29.7846 41.8027L36.3706 37.3333L29.4213 41.3473C29.2651 41.4449 29.0595 41.3975 28.9619 41.2413C28.8643 41.0852 28.9118 40.8796 29.0679 40.782L35.3813 36.526L28.8559 40.2933C28.7001 40.3792 28.5043 40.3275 28.4111 40.1759C28.318 40.0243 28.3603 39.8263 28.5073 39.726L32.5533 37.084L28.5726 39.382C28.4177 39.4658 28.2243 39.4146 28.1312 39.2651C28.038 39.1157 28.0772 38.9196 28.2206 38.8173L33.6013 35.2093L28.3166 38.2607C28.1613 38.3508 27.9626 38.3018 27.8671 38.1498C27.7715 37.9979 27.8135 37.7976 27.9619 37.6967L33.3726 34.014L28.1893 37.006C28.035 37.0936 27.8391 37.0449 27.7437 36.8953C27.6483 36.7458 27.6868 36.5477 27.8313 36.4447L33.2053 32.6813L28.3313 35.4947C28.1767 35.5834 27.9797 35.5348 27.884 35.3844C27.7884 35.234 27.828 35.035 27.9739 34.9327L31.6913 32.3373L28.7199 34.052C28.5653 34.1407 28.3683 34.0921 28.2727 33.9418C28.1771 33.7914 28.2167 33.5924 28.3626 33.49L30.2493 32.172L29.3526 32.6887C29.203 32.773 29.0139 32.73 28.9156 32.5892C28.8173 32.4485 28.8419 32.2561 28.9726 32.1447L30.9893 30.4667C30.8527 30.4401 30.7471 30.3315 30.7242 30.1943C30.7013 30.0571 30.7661 29.9201 30.8866 29.8507L33.6646 28.246C33.8144 28.1599 34.0052 28.2025 34.1041 28.3443C34.203 28.486 34.1772 28.6798 34.0446 28.7907L32.3979 30.162L36.5919 27.7407C36.7465 27.652 36.9435 27.7005 37.0391 27.8509C37.1347 28.0013 37.0952 28.2003 36.9492 28.3027L35.0559 29.626L38.0653 27.8927C38.2198 27.804 38.4168 27.8525 38.5125 28.0029C38.6081 28.1533 38.5685 28.3523 38.4226 28.4547L34.7073 31.0487L39.4792 28.2947C39.6331 28.2102 39.8262 28.2595 39.9207 28.4075C40.0151 28.5554 39.9787 28.7513 39.8372 28.8553L34.4646 32.6133L40.8326 28.9367C40.9876 28.8495 41.1838 28.8994 41.2783 29.05C41.3728 29.2006 41.3325 29.399 41.1866 29.5007L35.7753 33.1847L41.8799 29.66C42.0355 29.5698 42.2347 29.6194 42.3299 29.772C42.4251 29.9246 42.382 30.1252 42.2326 30.2253L36.8552 33.8307L42.7479 30.4307C42.9038 30.3448 43.0995 30.3965 43.1927 30.5481C43.2859 30.6997 43.2436 30.8977 43.0966 30.998L39.0459 33.6427L43.3486 31.1587C43.4496 31.0956 43.5766 31.0911 43.6817 31.147C43.7869 31.2029 43.8542 31.3107 43.8584 31.4297C43.8625 31.5487 43.8029 31.6609 43.7019 31.724L37.3886 35.9793L44.0019 32.1613C44.1572 32.0728 44.3547 32.1226 44.4495 32.2741C44.5444 32.4257 44.5028 32.625 44.3552 32.726L37.7726 37.1927L44.5472 33.2813C44.7037 33.1876 44.9064 33.2371 45.0022 33.3923C45.098 33.5475 45.0512 33.7509 44.8972 33.8487L40.4439 36.774L44.8439 34.2347C44.999 34.1488 45.1942 34.1993 45.2881 34.3497C45.3821 34.5001 45.3418 34.6977 45.1966 34.7993L39.8046 38.422L45.0452 35.396C45.2003 35.3101 45.3956 35.3606 45.4895 35.511C45.5834 35.6614 45.5432 35.859 45.3979 35.9607L40.9312 38.9607L45.1312 36.5333C45.2873 36.4446 45.4857 36.4955 45.5798 36.6484C45.674 36.8013 45.6301 37.0012 45.4806 37.1007L43.6026 38.3267L45.0319 37.502C45.1878 37.4162 45.3835 37.4679 45.4767 37.6195C45.5699 37.771 45.5276 37.9691 45.3806 38.0693L44.7559 38.4773L44.8806 38.4047C45.0362 38.3145 45.2353 38.364 45.3305 38.5167C45.4257 38.6693 45.3827 38.8699 45.2332 38.97L43.8646 39.888L44.5439 39.496C44.6998 39.3981 44.9056 39.4451 45.0036 39.601C45.1015 39.7569 45.0545 39.9627 44.8986 40.0607L44.0812 40.6153C44.2302 40.5888 44.3784 40.6659 44.4421 40.8032C44.5058 40.9404 44.469 41.1034 44.3526 41.2L42.3452 42.8667C42.481 42.8944 42.5855 43.0031 42.6077 43.1398C42.6299 43.2766 42.5652 43.4128 42.4452 43.482L39.6646 45.0873C39.5146 45.1739 39.3233 45.1312 39.2244 44.989C39.1255 44.8468 39.1519 44.6526 39.2852 44.542L40.9139 43.1887L36.7492 45.5933C36.6987 45.6228 36.6411 45.6382 36.5826 45.638Z" fill="#FFC306"/>
    <path d="M8.36022 22.8467C8.77119 22.8728 9.17699 22.7439 9.49756 22.4854V31.7107C9.49756 33.2647 8.59289 38.0487 10.1856 38.9107C10.6849 39.1807 11.8622 38.9347 12.4009 38.9347H13.6262C13.724 39.0021 13.8409 39.0362 13.9596 39.0321H21.9596H21.9756C22.0071 39.0286 22.0385 39.0235 22.0696 39.0167C22.1023 39.0121 22.1347 39.0047 22.1662 38.9947C22.2071 38.9794 22.2464 38.9602 22.2836 38.9374H27.7376C29.7642 48.3881 45.2836 47.0821 45.8156 36.5374C45.5096 30.4667 40.4822 27.6941 35.7776 28.0781C35.8109 28.0518 35.8319 28.013 35.8356 27.9707V22.4974C37.0416 23.0307 37.6602 22.1854 38.9536 20.5807C38.9838 20.561 39.0071 20.5324 39.0202 20.4987C39.3982 19.2321 36.1616 17.0234 34.4869 15.8321V11.2094C34.4869 10.1427 34.9842 8.0094 33.5756 7.72273C32.7162 7.5494 30.2596 7.37006 29.6736 8.27873C29.3489 8.7834 29.5189 9.70006 29.5189 10.2594V11.5021C27.8688 9.94396 26.095 8.52241 24.2149 7.2514C22.9156 6.41473 22.3482 6.54006 21.1482 7.4574C17.8762 9.9514 14.8202 12.7961 11.6756 15.4487C10.4496 16.4787 6.10489 18.9467 6.30556 20.7187C6.36689 21.2614 7.77289 22.7701 8.36022 22.8467ZM14.4936 37.6947C14.8982 35.7381 14.4936 33.2447 14.4936 31.2487C14.4936 30.0687 13.9602 27.2381 14.4936 26.1474C14.9816 25.1534 18.1316 25.6974 19.2489 25.6974C21.2642 25.6974 21.5156 25.6501 21.5156 27.6307V38.3027H16.7562C15.9946 38.377 15.2285 38.3951 14.4642 38.3567C14.4217 38.137 14.4306 37.9104 14.4902 37.6947H14.4936ZM39.5869 28.8394C42.8729 30.2227 44.6796 33.3421 44.8536 36.7961C44.5689 42.4314 39.1142 47.0874 33.3742 44.3114C30.3993 42.8601 28.5048 39.8474 28.4856 36.5374C28.4909 31.0227 34.2309 26.5867 39.5836 28.8394H39.5869ZM32.1869 29.0561C31.7502 29.2681 31.3317 29.5156 30.9356 29.7961H26.3296C25.3656 29.7961 25.1496 29.3294 25.1496 28.4307C25.1496 28.0201 24.8749 25.7641 25.0696 25.5374C25.2482 25.3294 27.0302 25.5374 27.2802 25.5374H30.5256C31.3736 25.5374 31.9336 25.3874 32.1842 26.3881C32.2876 27.2744 32.2882 28.1696 32.1862 29.0561H32.1869ZM33.1582 28.6361C33.1956 27.7621 33.4249 26.4321 33.1049 25.7027C32.7616 24.9147 31.7442 25.1294 31.0269 25.1294H26.9336C26.2284 25.0364 25.5115 25.0965 24.8316 25.3054C23.9729 25.7307 24.1876 26.6687 24.1876 27.4854C24.1876 28.4001 23.8216 29.8914 24.9416 30.1921C25.8292 30.3024 26.7269 30.3065 27.6156 30.2041H30.4229C28.5041 31.8462 27.4362 34.2719 27.5209 36.7961C27.524 37.332 27.5686 37.867 27.6542 38.3961H22.4902V27.9454C22.4902 27.2341 22.7669 25.8194 22.1756 25.2441C21.4062 24.4961 18.8909 24.9694 18.0422 24.9694C17.0889 24.9694 14.7089 24.4994 13.8749 25.2987C13.2402 25.9074 13.5122 27.2501 13.5122 28.0134V38.4327C12.6569 38.5127 11.2102 38.6954 10.7989 38.3994C9.58756 37.5281 10.4656 31.8081 10.4656 30.4661V21.6741C13.2549 19.3207 16.0049 16.9181 18.7736 14.5407C19.6956 13.7501 21.1496 11.8541 22.3282 11.4894C22.8736 11.3207 23.3482 12.0034 24.2429 12.7721L34.4996 21.5801C34.6289 21.6914 34.7516 21.7914 34.8709 21.8847V28.1907C34.2878 28.2883 33.7144 28.4373 33.1576 28.6361H33.1582ZM30.4842 8.8054C30.5916 8.1234 30.7982 8.28406 31.5116 8.28406C32.1669 8.28406 33.2449 8.02406 33.5162 8.7934C33.5812 9.25624 33.5812 9.72589 33.5162 10.1887V15.0754L32.6669 14.3614C31.9382 13.7167 31.2082 13.0487 30.4742 12.3761C30.3778 11.1876 30.3812 9.99325 30.4842 8.8054ZM7.35289 19.7334C7.55822 19.1487 9.07356 18.2821 9.52489 17.9007L18.4296 10.3854C19.5396 9.45206 20.6222 8.46073 21.7682 7.56873C22.7642 6.79473 22.2349 6.95073 22.9096 7.24006C23.9762 7.70006 25.1176 9.10673 25.9982 9.84606L29.5229 12.8194C29.5281 12.8393 29.5385 12.8574 29.5529 12.8721L33.5529 16.2454C33.7004 16.3265 33.8724 16.3514 34.0369 16.3154C36.0862 17.8634 38.3429 19.7654 38.0709 20.6801C36.9216 22.1027 37.2316 22.5401 35.8302 21.6174C35.8302 21.6114 35.8209 21.6081 35.8162 21.6034C35.7753 21.5116 35.6882 21.449 35.5882 21.4394C34.8882 20.9294 34.2496 20.2641 33.6009 19.7061L25.1536 12.4547C24.0562 11.5127 23.3709 10.5367 21.8576 11.2394C19.5909 12.2921 17.3349 15.1221 15.4509 16.7401L11.3742 20.2401C11.0409 20.5254 10.5796 21.0721 10.1109 21.4901C9.83422 21.5181 9.49756 21.6654 9.49756 21.8827V21.9281C9.43762 21.9607 9.37521 21.9886 9.31089 22.0114C8.51089 22.2574 8.69889 22.2114 8.02689 21.3954C7.56689 20.8387 7.08089 20.5054 7.35289 19.7334Z" fill="#0F474A"/>
    <path d="M25.8156 18.5374C25.607 14.6547 19.521 14.9907 19.5156 18.7587C19.511 22.6881 25.617 22.3341 25.8176 18.6121C25.8176 18.5961 25.809 18.5867 25.807 18.5727C25.805 18.5587 25.817 18.5501 25.8156 18.5374ZM22.3856 20.9934C21.2701 20.7251 20.4877 19.722 20.499 18.5747C20.4579 17.8948 20.7473 17.2368 21.2763 16.8077C21.8053 16.3786 22.5088 16.231 23.1656 16.4114C24.1605 16.7606 24.8309 17.6945 24.8436 18.7487C24.763 20.0361 23.8223 21.2814 22.3856 20.9934Z" fill="#0F474A"/>
    <path d="M17.1591 32.6361V31.9694C17.1591 31.4414 16.1777 31.5654 16.1777 32.0308V32.6974C16.1777 33.2254 17.1591 33.1014 17.1591 32.6361Z" fill="#0F474A"/>
    <path d="M36.4335 41.8444C36.2628 41.8444 36.1308 41.7287 36.0377 41.4973C35.8762 41.0944 35.6325 40.6176 35.3065 40.067L34.4822 38.6248C34.3022 38.8083 34.0228 39.0656 33.644 39.3968C33.6098 40.0152 33.5928 40.6176 33.5928 41.2041C33.5928 41.3836 33.5493 41.5292 33.4624 41.6409C33.3785 41.7526 33.2699 41.8085 33.1364 41.8085C32.8228 41.8085 32.666 41.5372 32.666 40.9946C32.666 40.6635 32.6831 40.1688 32.7172 39.5105C32.7545 38.8482 32.7731 38.3515 32.7731 38.0203C32.7731 37.4139 32.7793 36.7217 32.7918 35.9437C32.8073 35.1618 32.815 34.4716 32.815 33.8731C32.815 33.6936 32.8073 33.4821 32.7918 33.2388C32.7793 32.9954 32.7731 32.784 32.7731 32.6044C32.7731 32.4249 32.815 32.2793 32.8989 32.1676C32.9858 32.0559 33.096 32 33.2295 32C33.363 32 33.4717 32.0559 33.5555 32.1676C33.6424 32.2793 33.6859 32.4249 33.6859 32.6044C33.6859 32.788 33.6937 33.0054 33.7092 33.2567C33.7247 33.5041 33.7325 33.7195 33.7325 33.9031L33.6999 35.83C33.6843 36.5242 33.6797 37.2184 33.6859 37.9126C34.1081 37.4977 34.5148 37.0429 34.906 36.5482L35.9306 35.1897C36.033 35.0541 36.1432 34.9862 36.2612 34.9862C36.3823 34.9862 36.491 35.0481 36.5872 35.1718C36.6866 35.2954 36.7362 35.4391 36.7362 35.6026C36.7362 35.7383 36.6912 35.8719 36.6012 36.0036C36.2193 36.5781 35.7489 37.1945 35.1901 37.8528L36.2053 39.6302C36.6803 40.464 36.9179 41.0066 36.9179 41.2579C36.9179 41.4175 36.8682 41.5552 36.7688 41.6709C36.6726 41.7866 36.5608 41.8444 36.4335 41.8444Z" fill="#0F474A"/>
    <path d="M41.328 37.1765C41.3063 37.6752 41.1511 37.9246 40.8623 37.9246C40.5953 37.9246 40.4618 37.7271 40.4618 37.3321C40.4618 37.2563 40.4572 37.1167 40.4479 36.9132L40.4339 36.4105C39.9433 36.4863 39.5506 36.6639 39.2557 36.9431C38.9793 37.2025 38.7496 37.5935 38.5664 38.1161L38.5757 41.3956C38.5757 41.7985 38.4221 42 38.1147 42C37.8415 42 37.7049 41.7985 37.7049 41.3956V37.1945C37.7049 37.0628 37.708 36.8654 37.7142 36.602C37.7235 36.3387 37.7282 36.1412 37.7282 36.0096C37.7282 35.6066 37.8648 35.4051 38.138 35.4051C38.4422 35.4051 38.5959 35.7363 38.599 36.3986C39.1951 35.6605 39.8564 35.2914 40.5829 35.2914C40.8344 35.2914 41.0222 35.4131 41.1464 35.6565C41.2706 35.8999 41.3327 36.2669 41.3327 36.7576C41.3327 36.9651 41.3311 37.1047 41.328 37.1765Z" fill="#0F474A"/>
</svg>
