<svg width="40" height="40" viewBox="0 0 40 40" fill="none"
  xmlns="http://www.w3.org/2000/svg">
  <path d="M36.4346 39.5941C36.2968 39.5943 36.1731 39.5097 36.1233 39.3812C36.0735 39.2527 36.1079 39.1068 36.2099 39.0141L36.7892 38.4861L35.5646 39.1928C35.4175 39.2781 35.2298 39.2392 35.1289 39.1024C35.028 38.9655 35.0462 38.7747 35.1712 38.6594L36.5939 37.3441L34.6512 38.4668C34.5041 38.5534 34.3153 38.515 34.2139 38.3777C34.1124 38.2403 34.1312 38.0486 34.2572 37.9334L35.9072 36.3934L33.7932 37.6134C33.6429 37.6993 33.4519 37.6558 33.3536 37.5133C33.2553 37.3709 33.2823 37.1769 33.4159 37.0668L34.1492 36.4668L33.1919 37.0188C33.0422 37.1034 32.8526 37.0603 32.7543 36.9191C32.656 36.778 32.6812 36.5852 32.8126 36.4741L33.5879 35.8301L32.5806 36.4114C32.4294 36.4981 32.2369 36.4536 32.1391 36.3094C32.0412 36.1652 32.0709 35.97 32.2072 35.8614L32.4072 35.7014L32.0626 35.9014C31.9118 35.9899 31.7182 35.9469 31.6191 35.8028C31.5201 35.6587 31.5492 35.4625 31.6859 35.3534L32.0486 35.0608L31.5219 35.3641C31.3752 35.4448 31.1913 35.4041 31.0923 35.269C30.9933 35.1339 31.01 34.9463 31.1312 34.8308L32.1812 33.8794L30.8172 34.6661C30.6739 34.748 30.4921 34.7127 30.39 34.5829C30.2878 34.4532 30.296 34.2683 30.4092 34.1481L31.8032 32.6861L29.9192 33.7734C29.7745 33.8539 29.5926 33.8159 29.4922 33.6842C29.3918 33.5525 29.4033 33.367 29.5192 33.2488L30.6686 32.1001L29.1352 32.9861C28.9915 33.0691 28.8087 33.0338 28.7062 32.9032C28.6038 32.7726 28.6131 32.5866 28.7279 32.4668L29.8686 31.2788L28.3192 32.1734C28.1781 32.2545 27.999 32.2217 27.8957 32.0959C27.7924 31.9702 27.795 31.7882 27.9019 31.6654L29.0786 30.3188L27.4172 31.2774C27.2772 31.358 27.0996 31.3265 26.9957 31.2028C26.8919 31.0791 26.8917 30.8987 26.9952 30.7748L28.0992 29.4574L26.5092 30.3754C26.3669 30.4573 26.1862 30.4233 26.0833 30.2953C25.9804 30.1673 25.9861 29.9835 26.0966 29.8621L27.6212 28.1954C27.614 28.1856 27.6073 28.1754 27.6012 28.1648C27.5096 28.0055 27.5642 27.8021 27.7232 27.7101L28.4892 27.2674C28.6316 27.1846 28.8131 27.2183 28.9164 27.3465C29.0197 27.4748 29.0138 27.6593 28.9026 27.7808L28.0426 28.7228L29.4019 27.9334C29.5419 27.8537 29.7188 27.8855 29.8223 28.009C29.9258 28.1324 29.9262 28.3122 29.8232 28.4361L28.7192 29.7548L30.4859 28.7334C30.6271 28.6524 30.8061 28.6851 30.9094 28.8109C31.0128 28.9367 31.0101 29.1187 30.9032 29.2414L29.7259 30.5888L31.5632 29.5334C31.7067 29.4515 31.8886 29.487 31.9907 29.617C32.0928 29.747 32.0842 29.9321 31.9706 30.0521L30.8306 31.2408L32.5412 30.2541C32.686 30.1737 32.8678 30.2117 32.9682 30.3434C33.0686 30.4751 33.0571 30.6605 32.9412 30.7788L31.7959 31.9201L33.4832 30.9461C33.6266 30.8642 33.8083 30.8995 33.9105 31.0292C34.0127 31.159 34.0045 31.3439 33.8912 31.4641L32.4972 32.9261L34.5572 31.7368C34.704 31.656 34.8879 31.6967 34.9868 31.8318C35.0858 31.967 35.0691 32.1545 34.9479 32.2701L33.8972 33.2228L35.3992 32.3561C35.5496 32.2713 35.7399 32.3155 35.8376 32.4578C35.9354 32.6001 35.9083 32.7934 35.7752 32.9034L35.4166 33.1941L36.0446 32.8314C36.1959 32.743 36.3899 32.7868 36.4884 32.9318C36.587 33.0767 36.5564 33.2732 36.4186 33.3814L36.2106 33.5448L36.6606 33.2861C36.8104 33.2 37.0012 33.2426 37.1001 33.3843C37.199 33.5261 37.1731 33.7199 37.0406 33.8308L36.2659 34.4741L37.3912 33.8241C37.5418 33.7361 37.7348 33.7791 37.8338 33.9227C37.9328 34.0663 37.9044 34.262 37.7686 34.3714L37.0352 34.9714L38.1059 34.3534C38.253 34.2667 38.4418 34.3052 38.5433 34.4425C38.6447 34.5799 38.626 34.7716 38.4999 34.8868L36.8506 36.4268L38.8446 35.2754C38.9916 35.19 39.1793 35.229 39.2802 35.3658C39.3812 35.5027 39.3629 35.6935 39.2379 35.8088L37.8152 37.1241L39.1186 36.3721C39.2654 36.2903 39.4502 36.3305 39.5496 36.4661C39.649 36.6016 39.632 36.7899 39.5099 36.9054L38.9319 37.4328H38.9359C39.0391 37.3723 39.1668 37.3717 39.2705 37.4313C39.3742 37.4909 39.4381 37.6014 39.4378 37.7211C39.4376 37.8407 39.3732 37.951 39.2692 38.0101L36.6026 39.5488C36.5517 39.5788 36.4936 39.5945 36.4346 39.5941Z" fill="#76898A"/>
  <path d="M16.3352 32.9534C16.1867 32.9535 16.056 32.8554 16.0147 32.7127C15.9734 32.57 16.0315 32.4172 16.1572 32.3381L16.5652 32.0807L15.2985 32.8141C15.1425 32.9045 14.9428 32.8545 14.8479 32.7011C14.753 32.5477 14.7973 32.3467 14.9479 32.2474L22.7952 27.0401L13.3352 32.5021C13.1778 32.5976 12.9727 32.5475 12.8772 32.3901C12.7816 32.2327 12.8318 32.0276 12.9892 31.9321L18.8559 28.1987L11.9825 32.1674C11.8248 32.2624 11.6199 32.2115 11.5249 32.0537C11.4299 31.896 11.4808 31.691 11.6385 31.5961L16.4385 28.5907L10.9419 31.7634C10.7848 31.8514 10.5864 31.7988 10.4934 31.6447C10.4005 31.4905 10.4467 31.2905 10.5979 31.1927L16.3699 27.5827L9.89519 31.3207C9.73804 31.4059 9.54166 31.352 9.45006 31.1985C9.35845 31.045 9.40425 30.8466 9.55386 30.7487L11.8599 29.3334L9.11719 30.9167C8.95967 31.0038 8.76145 30.9501 8.66943 30.7954C8.57741 30.6407 8.62481 30.4409 8.77652 30.3441L9.09519 30.1501L8.46586 30.5121C8.30945 30.5956 8.11498 30.5421 8.02335 30.3903C7.93172 30.2385 7.97501 30.0415 8.12186 29.9421L17.6852 23.9181L7.40186 29.8561C7.24439 29.9448 7.0449 29.8918 6.95215 29.7367C6.8594 29.5816 6.90718 29.3808 7.05986 29.2841L12.3839 26.0041L6.71719 29.2707C6.56047 29.3556 6.36468 29.3022 6.2728 29.1495C6.18091 28.9967 6.22543 28.7987 6.37386 28.7001L15.4459 23.0401L5.89319 28.5614C5.73542 28.6564 5.53052 28.6055 5.43552 28.4477C5.34053 28.29 5.39142 28.085 5.54919 27.9901L16.5259 21.0974L5.06852 27.7107C4.91105 27.7994 4.71157 27.7465 4.61882 27.5914C4.52607 27.4362 4.57384 27.2354 4.72652 27.1387L12.3485 22.4307L4.45119 26.9901C4.29423 27.0798 4.09438 27.028 4.0007 26.8734C3.90703 26.7188 3.95368 26.5176 4.10586 26.4201L16.8392 18.3707L3.67652 25.9701C3.52089 26.0465 3.33261 25.9909 3.24351 25.8422C3.15442 25.6934 3.19429 25.5011 3.33519 25.4001L9.83786 21.4001L3.21319 25.2254C3.05505 25.3196 2.85045 25.2679 2.75619 25.1097C2.66193 24.9516 2.71372 24.747 2.87186 24.6527L10.9225 19.6801L2.71319 24.4194C2.55618 24.5074 2.35769 24.4548 2.26478 24.3007C2.17186 24.1465 2.21808 23.9465 2.36919 23.8487L15.0452 15.8487L2.20186 23.2621C2.0439 23.3567 1.83915 23.3053 1.74452 23.1474C1.6499 22.9894 1.70124 22.7847 1.85919 22.6901L11.1545 16.9134L1.80186 22.3141C1.64439 22.4028 1.4449 22.3498 1.35215 22.1947C1.2594 22.0396 1.30718 21.8388 1.45986 21.7421L10.7865 15.9421L1.49586 21.3014C1.33937 21.3839 1.14566 21.3298 1.05458 21.1781C0.963503 21.0265 1.00679 20.8301 1.15319 20.7307L10.6685 14.7927L1.23452 20.2381C1.07653 20.3281 0.875535 20.2749 0.78278 20.1185C0.690026 19.9621 0.739744 19.7602 0.894524 19.6647L1.05252 19.5694C0.893064 19.6518 0.696989 19.5931 0.608982 19.4367C0.520976 19.2803 0.572642 19.0822 0.725857 18.9887L7.06852 15.0667L0.986524 18.5781C0.829001 18.6651 0.630788 18.6115 0.538764 18.4568C0.446741 18.3021 0.494148 18.1023 0.645857 18.0054L2.68919 16.7554L0.92119 17.7761C0.763719 17.8648 0.564235 17.8118 0.471484 17.6567C0.378733 17.5016 0.42651 17.3008 0.579191 17.2041L4.67986 14.6767L0.861191 16.8807C0.70495 16.9667 0.508754 16.9144 0.41594 16.7622C0.323126 16.6099 0.366566 16.4116 0.514524 16.3121L11.1525 9.48139L0.984524 15.3514C0.827799 15.4363 0.632018 15.3829 0.54013 15.2301C0.448242 15.0774 0.492765 14.8794 0.64119 14.7807L5.97919 11.4421L1.08852 14.2667C0.932283 14.3526 0.736088 14.3004 0.643274 14.1482C0.550459 13.9959 0.593899 13.7976 0.741857 13.6981L8.14852 8.96472L1.44052 12.8361C1.28505 12.9219 1.08959 12.8708 0.996066 12.7198C0.902537 12.5688 0.943784 12.371 1.08986 12.2701L9.85652 6.44339L2.07986 10.9334C1.92393 11.018 1.72902 10.9657 1.63647 10.8143C1.54391 10.663 1.58613 10.4656 1.73252 10.3654L6.03852 7.57806L2.70852 9.50006C2.55373 9.59197 2.35392 9.54437 2.2572 9.39253C2.16047 9.24069 2.20179 9.03949 2.35052 8.93806L7.95052 5.03072L4.23119 7.17672C4.0788 7.26537 3.88374 7.22003 3.78607 7.07326C3.6884 6.9265 3.72191 6.72906 3.86252 6.62272L6.78186 4.40406C6.65149 4.36941 6.55486 4.25962 6.53705 4.12591C6.51924 3.9922 6.58377 3.86094 6.70052 3.79339L10.4019 1.65539C10.5541 1.56872 10.7475 1.61471 10.8444 1.76064C10.9413 1.90657 10.9088 2.10264 10.7699 2.20939L8.46252 3.96272L14.3352 0.572723C14.4898 0.484015 14.6868 0.532586 14.7824 0.68298C14.878 0.833373 14.8384 1.03238 14.6925 1.13472L9.09252 5.04206L17.0619 0.443389C17.2184 0.354297 17.4174 0.405635 17.5112 0.559329C17.6051 0.713022 17.5599 0.913489 17.4092 1.01206L13.0939 3.80539L18.6892 0.574723C18.8449 0.48616 19.0427 0.53648 19.1372 0.688667C19.2317 0.840853 19.189 1.04049 19.0405 1.14072L10.2779 6.96406L20.6319 0.986056C20.7888 0.894084 20.9905 0.944917 21.0851 1.10029C21.1797 1.25565 21.1323 1.45818 20.9785 1.55539L13.5699 6.28872L22.0212 1.40872C22.1786 1.31793 22.3798 1.37001 22.4734 1.52579C22.567 1.68158 22.5186 1.88364 22.3645 1.98006L17.0312 5.31672L23.0479 1.84272C23.2044 1.75363 23.4033 1.80497 23.4972 1.95866C23.5911 2.11236 23.5459 2.31282 23.3952 2.41139L12.7559 9.24406L24.3965 2.52339C24.5547 2.42913 24.7593 2.48092 24.8535 2.63906C24.9478 2.79719 24.896 3.0018 24.7379 3.09606L20.6365 5.62406L25.1699 3.00539C25.3274 2.9183 25.5256 2.97199 25.6176 3.12669C25.7096 3.28138 25.6622 3.48119 25.5105 3.57806L23.4779 4.82272L25.8732 3.44006C26.0303 3.35484 26.2267 3.40876 26.3183 3.56227C26.4099 3.71578 26.3641 3.91422 26.2145 4.01206L19.8605 7.94139L26.6019 4.04939C26.7604 3.9555 26.965 4.00788 27.0589 4.16639C27.1527 4.32489 27.1004 4.5295 26.9419 4.62339L26.8172 4.69872L27.1412 4.51206C27.2979 4.42716 27.4937 4.48058 27.5856 4.63331C27.6775 4.78604 27.6329 4.98403 27.4845 5.08272L17.9699 11.0201L27.9539 5.25672C28.1107 5.17297 28.3056 5.22701 28.3969 5.37954C28.4882 5.53207 28.4437 5.72941 28.2959 5.82806L18.9705 11.6281L28.6372 6.04806C28.7394 5.98684 28.8664 5.98479 28.9705 6.04268C29.0746 6.10056 29.1399 6.20958 29.1419 6.32868C29.1438 6.44777 29.082 6.55884 28.9799 6.62006L19.6685 12.4074L29.3125 6.84006C29.4689 6.75647 29.6634 6.80997 29.755 6.9618C29.8467 7.11363 29.8034 7.31063 29.6565 7.41006L16.9899 15.4101L29.9939 7.89939C30.1513 7.81067 30.3508 7.86362 30.4436 8.01875C30.5363 8.17388 30.4885 8.37466 30.3359 8.47139L22.2739 13.4514L30.4939 8.70606C30.651 8.62084 30.8474 8.67476 30.939 8.82827C31.0306 8.98178 30.9848 9.18021 30.8352 9.27806L24.3305 13.2781L30.8905 9.49072C31.0481 9.39536 31.2532 9.4458 31.3485 9.60339C31.4439 9.76097 31.3934 9.96603 31.2359 10.0614L18.5025 18.1094L31.3885 10.6667C31.546 10.578 31.7455 10.631 31.8382 10.7861C31.931 10.9412 31.8832 11.142 31.7305 11.2387L24.1139 15.9461L31.7225 11.5534C31.8803 11.4584 32.0852 11.5093 32.1802 11.6671C32.2752 11.8248 32.2243 12.0297 32.0665 12.1247L21.0852 19.0207L32.0092 12.7141C32.1663 12.6275 32.3636 12.6808 32.4559 12.8346C32.5481 12.9884 32.5021 13.1876 32.3519 13.2854L23.2852 18.9414L32.2685 13.7574C32.4257 13.6722 32.6221 13.7261 32.7137 13.8796C32.8053 14.0331 32.7595 14.2315 32.6099 14.3294L27.2819 17.6101L32.3485 14.6867C32.5055 14.5987 32.704 14.6513 32.7969 14.8054C32.8898 14.9596 32.8436 15.1596 32.6925 15.2574L23.1252 21.2841L32.4465 15.9027C32.604 15.8156 32.8023 15.8693 32.8943 16.024C32.9863 16.1787 32.9389 16.3785 32.7872 16.4754L32.4619 16.6754C32.6191 16.5914 32.8146 16.6459 32.9056 16.7992C32.9966 16.9525 32.9509 17.1502 32.8019 17.2481L30.5165 18.6541L32.3879 17.5727C32.5453 17.4819 32.7465 17.534 32.8401 17.6898C32.9337 17.8456 32.8853 18.0476 32.7312 18.1441L26.9565 21.7534L32.2965 18.6701C32.4535 18.5821 32.652 18.6346 32.7449 18.7888C32.8378 18.9429 32.7916 19.143 32.6405 19.2407L27.8499 22.2407L32.0685 19.8047C32.2255 19.715 32.4253 19.7668 32.519 19.9214C32.6127 20.076 32.566 20.2771 32.4139 20.3747L26.5305 24.1134L31.7479 21.1014C31.8491 21.0386 31.9761 21.0346 32.0811 21.0909C32.186 21.1472 32.253 21.2552 32.2567 21.3743C32.2605 21.4933 32.2004 21.6053 32.0992 21.6681L24.2525 26.8734L31.0165 22.9681C31.1741 22.8729 31.379 22.9235 31.4742 23.0811C31.5694 23.2386 31.5188 23.4435 31.3612 23.5387L30.5852 24.0281C30.7392 23.9993 30.8924 24.0818 30.9534 24.2261C31.0143 24.3704 30.9665 24.5377 30.8385 24.6281L26.3179 27.7074L29.2025 26.0407C29.3575 25.9522 29.5547 26.0013 29.6499 26.1523C29.7451 26.3032 29.7045 26.5024 29.5579 26.6041L27.7579 27.8381C27.9016 27.8527 28.0195 27.9583 28.0499 28.0996C28.0803 28.2408 28.0162 28.3856 27.8912 28.4581L21.3092 32.2581C21.1543 32.3466 20.957 32.2974 20.8618 32.1465C20.7666 31.9956 20.8072 31.7964 20.9539 31.6947L22.0965 30.9107L18.8845 32.7647C18.73 32.8487 18.5368 32.7981 18.4432 32.6492C18.3496 32.5002 18.3878 32.3042 18.5305 32.2014L23.0512 29.1214L16.5005 32.9034C16.4508 32.9343 16.3937 32.9515 16.3352 32.9534Z" fill="#76898A"/>
  <path d="M16.0276 30.262C15.8795 30.2621 15.7492 30.1646 15.7075 30.0225C15.6659 29.8804 15.7229 29.7279 15.8476 29.648L17.0709 28.8614L14.9036 30.1127C14.7475 30.2015 14.5492 30.1506 14.455 29.9977C14.3609 29.8448 14.4047 29.6448 14.5543 29.5454L19.3656 26.3947L13.4676 29.8C13.312 29.8836 13.1182 29.8312 13.0258 29.6806C12.9335 29.5301 12.9746 29.3336 13.1196 29.2327L19.0323 25.3894L12.1236 29.3767C11.9677 29.4625 11.772 29.4108 11.6788 29.2593C11.5856 29.1077 11.628 28.9097 11.7749 28.8094L19.2676 23.9334L10.8009 28.82C10.6454 28.9047 10.4508 28.8529 10.3579 28.7022C10.2649 28.5514 10.3061 28.3543 10.4516 28.2534L19.9343 22.0334L9.52559 28.0434C9.36987 28.1259 9.17684 28.0729 9.08503 27.9225C8.99322 27.7721 9.03436 27.5762 9.17893 27.4754L18.0849 21.742L8.48493 27.2847C8.32679 27.379 8.12218 27.3272 8.02793 27.169C7.93367 27.0109 7.98546 26.8063 8.14359 26.712L8.31559 26.6067L7.94359 26.8214C7.78708 26.9105 7.5881 26.8591 7.49423 26.7054C7.40035 26.5517 7.44553 26.3513 7.59626 26.2527L18.0523 19.488L6.99426 25.8727C6.83725 25.9607 6.63876 25.9081 6.54585 25.754C6.45293 25.5999 6.49915 25.3998 6.65026 25.302L14.5343 20.324L6.30826 25.0727C6.15194 25.1574 5.95664 25.1045 5.86443 24.9525C5.77223 24.8005 5.81556 24.6029 5.96293 24.5034L14.9629 18.7914L5.67559 24.1514C5.57377 24.2132 5.44671 24.216 5.34228 24.1587C5.23784 24.1014 5.17189 23.9928 5.16928 23.8737C5.16666 23.7546 5.22777 23.6432 5.32959 23.5814L14.9869 17.422L5.05693 23.1554C4.90061 23.2401 4.70531 23.1872 4.6131 23.0352C4.52089 22.8832 4.56423 22.6855 4.71159 22.586L13.7343 16.8567L4.60626 22.1234C4.44911 22.2086 4.25273 22.1547 4.16112 22.0012C4.06952 21.8477 4.11532 21.6492 4.26493 21.5514L5.50226 20.792L4.32959 21.4714C4.17295 21.5575 3.97623 21.5048 3.88373 21.3518C3.79123 21.1988 3.83588 21.0001 3.98493 20.9014L12.1269 15.7467L4.01826 20.428C3.86012 20.5223 3.65552 20.4705 3.56126 20.3124C3.467 20.1542 3.51879 19.9496 3.67693 19.8554L6.40493 18.1694L3.82826 19.6567C3.67224 19.7402 3.47815 19.6873 3.38617 19.5361C3.29418 19.3849 3.33637 19.1882 3.48226 19.088L12.1283 13.5547L3.64159 18.4547C3.48419 18.5503 3.27914 18.5001 3.18359 18.3427C3.08805 18.1853 3.13819 17.9803 3.29559 17.8847L10.4883 13.3047L3.54893 17.31C3.44663 17.371 3.31957 17.3728 3.21562 17.3147C3.11167 17.2566 3.04661 17.1474 3.04495 17.0283C3.0433 16.9093 3.1053 16.7984 3.20759 16.7374L3.60759 16.4927L3.55959 16.52C3.40258 16.608 3.20409 16.5555 3.11118 16.4013C3.01827 16.2472 3.06448 16.0471 3.21559 15.9494L6.39493 13.956L3.63426 15.5474C3.47761 15.6335 3.2809 15.5808 3.1884 15.4278C3.0959 15.2748 3.14054 15.0761 3.28959 14.9774L7.03159 12.6094L3.76959 14.492C3.61327 14.5768 3.41798 14.5239 3.32577 14.3719C3.23356 14.2198 3.2769 14.0222 3.42426 13.9227L6.76893 11.7934L4.04693 13.3647C3.89191 13.4519 3.69575 13.402 3.60121 13.2514C3.50666 13.1007 3.54702 12.9024 3.69293 12.8007L10.3156 8.30005L4.71093 11.5334C4.55689 11.6199 4.36208 11.5712 4.26687 11.4224C4.17166 11.2736 4.20912 11.0763 4.35226 10.9727L9.42359 7.40005L5.86759 9.45138C5.71648 9.53922 5.52318 9.49542 5.4247 9.35102C5.32621 9.20662 5.35599 9.01067 5.49293 8.90205L8.37026 6.61271C8.22296 6.60489 8.09832 6.50117 8.06384 6.35775C8.02937 6.21432 8.09327 6.06529 8.22093 5.99138L11.6283 4.02472C11.7791 3.94165 11.9683 3.98708 12.0649 4.12954C12.1616 4.27201 12.1339 4.46464 12.0009 4.57405L9.41159 6.63405L15.4476 3.15005C15.6012 3.06628 15.7935 3.11557 15.8879 3.26293C15.9822 3.41028 15.9466 3.60553 15.8063 3.71005L10.7343 7.28738L17.8609 3.17472C18.0155 3.09075 18.2087 3.14133 18.3023 3.29026C18.3959 3.43919 18.3576 3.63521 18.2149 3.73805L11.5889 8.24072L19.7769 3.51405C19.8787 3.45224 20.0058 3.44945 20.1102 3.50673C20.2147 3.564 20.2806 3.67264 20.2832 3.79173C20.2859 3.91081 20.2247 4.02224 20.1229 4.08405L16.7836 6.20938L20.9083 3.82805C21.0658 3.73269 21.2709 3.78313 21.3663 3.94072C21.4616 4.0983 21.4112 4.30335 21.2536 4.39872L17.5143 6.76405L21.8856 4.24072C22.0434 4.14572 22.2483 4.19661 22.3433 4.35438C22.4383 4.51215 22.3874 4.71706 22.2296 4.81205L19.0489 6.80605L22.7823 4.65205C22.9397 4.56333 23.1392 4.61628 23.232 4.77141C23.3247 4.92654 23.2769 5.12732 23.1243 5.22405L22.7243 5.47205L23.4409 5.05872C23.5975 4.97119 23.7953 5.02328 23.8884 5.17656C23.9816 5.32985 23.9367 5.52938 23.7869 5.62805L16.5869 10.212L24.4249 5.68605C24.5815 5.59853 24.7793 5.65061 24.8724 5.8039C24.9656 5.95719 24.9207 6.15671 24.7709 6.25538L16.1383 11.78L25.3376 6.46671C25.4957 6.37227 25.7005 6.42391 25.7949 6.58205C25.8894 6.74019 25.8377 6.94494 25.6796 7.03938L22.9343 8.73338L25.9436 7.00005C26.1005 6.91035 26.3004 6.96211 26.3941 7.11673C26.4878 7.27135 26.4411 7.47246 26.2889 7.57005L18.1523 12.7214L26.6469 7.81738C26.8038 7.7347 26.998 7.78933 27.0887 7.9417C27.1795 8.09407 27.135 8.29082 26.9876 8.38938L25.7483 9.15072L27.1143 8.36205C27.2704 8.27957 27.4637 8.33312 27.5551 8.48415C27.6466 8.63518 27.6044 8.83131 27.4589 8.93138L18.4369 14.66L27.7296 9.29538C27.8865 9.20568 28.0864 9.25745 28.1801 9.41207C28.2738 9.56668 28.2271 9.76779 28.0749 9.86538L18.4149 16.026L28.3429 10.2927C28.4996 10.2066 28.6963 10.2593 28.7888 10.4123C28.8813 10.5653 28.8366 10.764 28.6876 10.8627L19.6923 16.576L28.7803 11.3294C28.9378 11.2342 29.1427 11.2848 29.2379 11.4424C29.3331 11.6 29.2825 11.8049 29.1249 11.9L21.2409 16.8774L29.1676 12.3014C29.3241 12.2123 29.5231 12.2636 29.617 12.4173C29.7108 12.571 29.6657 12.7715 29.5149 12.87L19.0583 19.6314L29.4896 13.6094C29.6467 13.5242 29.8431 13.5781 29.9347 13.7316C30.0263 13.8851 29.9805 14.0835 29.8309 14.1814L29.6563 14.2894C29.8134 14.2096 30.0056 14.2659 30.0947 14.4179C30.1839 14.57 30.1393 14.7652 29.9929 14.8634L21.0849 20.6L29.7516 15.6C29.9071 15.5154 30.1017 15.5672 30.1947 15.7179C30.2876 15.8687 30.2464 16.0658 30.1009 16.1667L20.6196 22.382L29.7529 17.108C29.9091 17.0208 30.1063 17.0724 30.1997 17.2249C30.2932 17.3774 30.2496 17.5765 30.1009 17.676L22.6069 22.5547L29.6436 18.4927C29.7998 18.4055 29.997 18.457 30.0904 18.6096C30.1839 18.7621 30.1403 18.9612 29.9916 19.0607L24.0816 22.9027L29.3083 19.8847C29.4641 19.7989 29.6599 19.8506 29.753 20.0022C29.8462 20.1537 29.8039 20.3518 29.6569 20.452L24.8463 23.6L28.8336 21.298C28.9908 21.2021 29.196 21.2518 29.2919 21.409C29.3878 21.5663 29.3381 21.7715 29.1809 21.8674L27.9543 22.6554L28.3589 22.422C28.5147 22.3349 28.7115 22.3859 28.8052 22.5378C28.899 22.6897 28.8566 22.8884 28.7089 22.9887L27.4983 23.7834L27.5436 23.7574C27.696 23.6687 27.891 23.7141 27.9887 23.8608C28.0864 24.0076 28.0529 24.205 27.9123 24.3114L25.1549 26.408L25.2736 26.3414C25.3769 26.2757 25.5079 26.2719 25.6149 26.3316C25.7218 26.3913 25.7874 26.5048 25.7857 26.6272C25.7841 26.7496 25.7154 26.8613 25.6069 26.918L20.9343 29.616C20.782 29.7027 20.5886 29.6567 20.4917 29.5108C20.3948 29.3649 20.4273 29.1688 20.5663 29.062L23.3209 26.966L17.7289 30.2C17.5725 30.2937 17.3697 30.2443 17.274 30.0891C17.1782 29.9339 17.225 29.7305 17.3789 29.6327L18.6023 28.8327L16.1943 30.2167C16.1437 30.2462 16.0862 30.2618 16.0276 30.262Z" fill="#0C393B"/>
  <path d="M12.7635 11.6595C12.6217 11.6596 12.4955 11.57 12.4486 11.4363C12.4018 11.3025 12.4446 11.1538 12.5555 11.0655L13.5135 10.3035L12.1655 11.0815C12.0171 11.1675 11.8277 11.1269 11.7276 10.9877C11.6275 10.8485 11.6494 10.656 11.7781 10.5428L13.0588 9.41413L11.9008 10.0808C11.7526 10.1665 11.5636 10.1261 11.4635 9.98725C11.3634 9.84842 11.3847 9.65631 11.5128 9.54279L11.8021 9.28613L11.7048 9.34212C11.5734 9.41831 11.4071 9.39601 11.3004 9.28789C11.1937 9.17978 11.1736 9.0132 11.2515 8.88279L11.4248 8.59279C11.291 8.6092 11.1601 8.54483 11.0915 8.42879C10.9998 8.26969 11.054 8.06639 11.2128 7.97413L12.1755 7.41879C12.3067 7.34306 12.4726 7.36541 12.5791 7.4732C12.6856 7.58099 12.7061 7.74708 12.6288 7.87746L12.4808 8.12546L14.3048 7.07279C14.453 6.98707 14.642 7.02751 14.7421 7.16634C14.8422 7.30517 14.8209 7.49727 14.6928 7.61079L14.4015 7.86679L15.6181 7.16413C15.7665 7.07813 15.9558 7.11869 16.0559 7.2579C16.156 7.39711 16.1342 7.58955 16.0055 7.70279L14.7255 8.83346L17.0628 7.48479C17.2138 7.39868 17.4056 7.44307 17.5035 7.58676C17.6013 7.73045 17.5723 7.9252 17.4368 8.03413L16.4781 8.80013L17.7948 8.04013C17.9421 7.94733 18.136 7.98354 18.2399 8.12324C18.3438 8.26294 18.3227 8.45907 18.1915 8.57346L17.0748 9.62679L17.4681 9.40013C17.605 9.32149 17.7782 9.34959 17.8831 9.46745C17.9881 9.58531 17.996 9.76061 17.9021 9.88746L17.4701 10.4661C17.5418 10.4935 17.6019 10.5449 17.6401 10.6115C17.7322 10.7709 17.6776 10.9747 17.5181 11.0668L16.5848 11.6048C16.448 11.6834 16.2747 11.6553 16.1698 11.5375C16.0648 11.4196 16.0569 11.2443 16.1508 11.1175L16.3981 10.7841L14.9715 11.6068C14.8242 11.7172 14.6153 11.6874 14.5048 11.5401C14.3943 11.3928 14.4242 11.1839 14.5715 11.0735L15.6875 10.0135L12.9235 11.6095C12.8753 11.6396 12.8202 11.6569 12.7635 11.6595Z" fill="#76898A"/>
  <path d="M15.2077 26.256C15.0628 26.2559 14.9346 26.1622 14.8904 26.0242C14.8463 25.8862 14.8964 25.7355 15.0143 25.6513L15.681 25.1787L13.9557 26.174C13.802 26.2609 13.6072 26.2128 13.5115 26.0644C13.4158 25.9161 13.4524 25.7188 13.595 25.6147L16.1863 23.756L12.5157 25.8753C12.3626 25.963 12.1678 25.9163 12.0711 25.7687C11.9745 25.6212 12.0095 25.4239 12.151 25.3187L16.9057 21.8147L11.011 25.2147C10.8552 25.3018 10.6585 25.2508 10.5647 25.0989C10.4709 24.9471 10.5133 24.7483 10.661 24.648L11.895 23.838L10.2683 24.7793C10.1131 24.8713 9.91296 24.8231 9.8166 24.6706C9.72024 24.5182 9.76266 24.3167 9.91232 24.216L14.345 21.166L9.43032 24.0033C9.27329 24.0994 9.06808 24.05 8.97199 23.893C8.87589 23.736 8.92529 23.5308 9.08232 23.4347L9.70432 23.0347L8.95365 23.4673C8.79908 23.556 8.60207 23.5075 8.50645 23.3571C8.41082 23.2067 8.45041 23.0077 8.59632 22.9053L14.0897 19.066L8.25299 22.4333C8.0992 22.519 7.90531 22.4703 7.81025 22.3221C7.71518 22.174 7.7517 21.9774 7.89365 21.8733L13.7297 17.7453L7.77165 21.1847C7.61786 21.2703 7.42398 21.2216 7.32891 21.0735C7.23385 20.9253 7.27037 20.7288 7.41232 20.6247L12.849 16.7793L7.56499 19.83C7.41094 19.9165 7.21614 19.8679 7.12093 19.719C7.02571 19.5702 7.06317 19.3729 7.20632 19.2693L11.841 16L7.66232 18.412C7.50828 18.4985 7.31347 18.4499 7.21826 18.301C7.12305 18.1522 7.16051 17.9549 7.30365 17.8513L10.8443 15.3513L8.05965 16.9593C7.90736 17.0494 7.71126 17.0047 7.61292 16.8577C7.51459 16.7106 7.54827 16.5123 7.68965 16.406L10.5757 14.1933L8.98832 15.1067C8.84023 15.1911 8.65234 15.1502 8.55275 15.0118C8.45316 14.8735 8.47397 14.6823 8.60099 14.5687L10.7177 12.702C10.6736 12.6736 10.637 12.6349 10.611 12.5893C10.5667 12.5125 10.5549 12.4211 10.5782 12.3356C10.6015 12.25 10.6579 12.1772 10.735 12.1333L12.587 11.0667C12.7351 10.9823 12.923 11.0232 13.0226 11.1615C13.1221 11.2998 13.1013 11.491 12.9743 11.6047L11.5477 12.8627L14.661 11.0627C14.8129 10.9755 15.0065 11.0207 15.1039 11.1663C15.2014 11.3119 15.1695 11.5081 15.031 11.6153L12.143 13.83L16.841 11.118C16.995 11.0315 17.1898 11.0802 17.285 11.229C17.3803 11.3778 17.3428 11.5751 17.1997 11.6787L13.6597 14.178L17.843 11.7633C17.9966 11.6796 18.1889 11.7289 18.2833 11.8762C18.3776 12.0236 18.342 12.2188 18.2017 12.3233L13.5677 15.5953L18.7903 12.58C18.9445 12.4911 19.1414 12.539 19.2375 12.6889C19.3335 12.8388 19.2949 13.0377 19.1497 13.1407L13.7097 16.9867L19.6683 13.5473C19.8225 13.4584 20.0194 13.5064 20.1155 13.6562C20.2115 13.8061 20.1729 14.005 20.0277 14.108L14.1923 18.236L20.433 14.632C20.5878 14.5401 20.7876 14.5877 20.8843 14.7395C20.981 14.8914 20.9397 15.0926 20.791 15.194L15.2963 19.0333L21.021 15.7287C21.1772 15.6414 21.3744 15.693 21.4678 15.8455C21.5613 15.9981 21.5177 16.1972 21.369 16.2967L20.7483 16.6967L21.299 16.3787C21.4539 16.2901 21.6511 16.3393 21.7464 16.4902C21.8416 16.6412 21.801 16.8403 21.6543 16.942L17.2203 19.9933L21.6417 17.4413C21.7978 17.3526 21.9961 17.4034 22.0902 17.5563C22.1844 17.7092 22.1405 17.9092 21.991 18.0087L20.7563 18.8187L21.741 18.2507C21.894 18.163 22.0889 18.2097 22.1855 18.3573C22.2822 18.5048 22.2472 18.7021 22.1057 18.8073L17.3517 22.3107L21.7043 19.8C21.858 19.7131 22.0528 19.7612 22.1485 19.9096C22.2441 20.0579 22.2075 20.2552 22.065 20.3593L19.4743 22.2173L21.3657 21.126C21.5192 21.0411 21.7122 21.0898 21.8072 21.2373C21.9021 21.3849 21.8665 21.5807 21.7257 21.6853L20.8837 22.2853C21.0427 22.2586 21.198 22.3495 21.2525 22.5013C21.3071 22.653 21.2453 22.822 21.1057 22.9027L15.3723 26.2113C15.3222 26.2403 15.2655 26.2556 15.2077 26.256Z" fill="#76898A"/>
  <path d="M21.5861 26.3141C21.4568 26.3143 21.339 26.2398 21.2839 26.1229C21.2288 26.0059 21.2462 25.8676 21.3287 25.7681L22.3221 24.5681L19.4141 26.2461C19.2706 26.3281 19.0887 26.2925 18.9866 26.1625C18.8845 26.0325 18.8931 25.8474 19.0067 25.7274L19.8827 24.8141L18.8534 25.4074C18.7279 25.4798 18.5701 25.4628 18.4628 25.3655C18.3556 25.2681 18.3235 25.1126 18.3834 24.9808L18.7781 24.1194C18.6215 24.1355 18.475 24.0399 18.4268 23.8901C18.3785 23.7403 18.4416 23.5771 18.5781 23.4987L19.3301 23.0654C19.4555 22.9954 19.6117 23.0136 19.7176 23.1106C19.8236 23.2077 19.8555 23.3616 19.7967 23.4927L19.4234 24.3081L21.5774 23.0667C21.721 22.9838 21.9037 23.0189 22.0062 23.1493C22.1087 23.2796 22.0998 23.4654 21.9854 23.5854L21.1081 24.4994L23.5914 23.0667C23.731 22.9869 23.9077 23.018 24.0115 23.1408C24.1154 23.2636 24.1167 23.4431 24.0147 23.5674L23.0221 24.7674L25.1061 23.5674C25.2458 23.4868 25.4233 23.5178 25.5274 23.6411C25.6315 23.7643 25.6323 23.9445 25.5294 24.0687L24.9534 24.7614L25.1474 24.6494C25.3057 24.5666 25.5011 24.6233 25.5905 24.778C25.6799 24.9326 25.6315 25.1303 25.4807 25.2261L23.6667 26.2668C23.527 26.3474 23.3495 26.3164 23.2454 26.1931C23.1413 26.0698 23.1405 25.8897 23.2434 25.7654L23.8194 25.0728L21.7527 26.2674C21.7024 26.2977 21.6448 26.3138 21.5861 26.3141Z" fill="#0C393B"/>
  <path d="M21.5851 23.6474C21.4566 23.6476 21.3394 23.574 21.2839 23.4581C21.2284 23.3422 21.2444 23.2047 21.3251 23.1047L22.3218 21.8667L19.3744 23.5687C19.2334 23.6498 19.0545 23.6172 18.951 23.4917C18.8476 23.3661 18.8499 23.1843 18.9564 23.0614L19.9024 21.974L18.8524 22.58C18.7249 22.6554 18.5629 22.6375 18.4548 22.5361C18.3468 22.4347 18.3187 22.2741 18.3858 22.142L18.7324 21.454C18.5825 21.4513 18.4528 21.3487 18.4156 21.2034C18.3784 21.0581 18.4429 20.9058 18.5731 20.8314L19.3251 20.398C19.4528 20.3223 19.6152 20.3402 19.7234 20.4419C19.8315 20.5436 19.8594 20.7046 19.7918 20.8367L19.4858 21.4447L21.2998 20.4C21.4406 20.3198 21.6188 20.3525 21.7219 20.4775C21.8251 20.6026 21.8233 20.7837 21.7178 20.9067L20.7704 21.994L23.5331 20.4C23.672 20.3206 23.8477 20.351 23.9518 20.4725C24.0559 20.594 24.0589 20.7724 23.9591 20.8974L22.9631 22.1334L25.1058 20.8967C25.2367 20.821 25.4021 20.843 25.5088 20.9501C25.6155 21.0573 25.6367 21.2228 25.5604 21.3534L24.9511 22.3954L25.1471 22.282C25.3054 22.1992 25.5008 22.2559 25.5902 22.4106C25.6796 22.5652 25.6312 22.7629 25.4804 22.8587L24.1938 23.6C24.0629 23.6757 23.8974 23.6538 23.7907 23.5466C23.6841 23.4395 23.6629 23.2739 23.7391 23.1434L24.3491 22.1014L21.7491 23.6007C21.6995 23.6305 21.6429 23.6466 21.5851 23.6474Z" fill="#0C393B"/>
  <path d="M20.3611 20.9807C20.2241 20.981 20.1009 20.8976 20.0504 20.7702C19.9999 20.6429 20.0324 20.4976 20.1324 20.404L20.8344 19.7447L19.0824 20.756C18.9381 20.8345 18.7582 20.7961 18.6584 20.6656C18.5587 20.5351 18.5689 20.3514 18.6824 20.2327L19.3491 19.562L18.8551 19.8467C18.7265 19.9207 18.5645 19.9008 18.4577 19.798C18.3508 19.6951 18.3247 19.534 18.3938 19.4027L18.7178 18.786C18.5722 18.7744 18.4511 18.6692 18.4192 18.5267C18.3872 18.3842 18.4518 18.2374 18.5784 18.1647L19.3304 17.7314C19.459 17.6568 19.6215 17.6764 19.7286 17.7794C19.8358 17.8824 19.8619 18.0439 19.7924 18.1754L19.5198 18.6934L21.1864 17.7314C21.331 17.648 21.515 17.6844 21.6169 17.8167C21.7188 17.9489 21.7072 18.1361 21.5898 18.2547L20.9231 18.9254L22.9898 17.7314C23.137 17.6418 23.3281 17.6793 23.4307 17.8177C23.5333 17.9561 23.5136 18.1499 23.3851 18.2647L22.6838 18.924L24.6671 17.776C24.8092 17.6942 24.9896 17.7278 25.0927 17.8553C25.1958 17.9828 25.1909 18.1663 25.0811 18.288L24.1658 19.3007L25.1471 18.7354C25.2818 18.6582 25.4519 18.6842 25.5574 18.7981C25.6628 18.912 25.6757 19.0837 25.5884 19.212L25.2711 19.6734C25.4042 19.6549 25.5349 19.7201 25.6004 19.8374C25.692 19.9966 25.6375 20.2 25.4784 20.292L24.3644 20.9347C24.2297 21.0119 24.0596 20.9858 23.9542 20.8719C23.8487 20.758 23.8358 20.5864 23.9231 20.458L24.2044 20.0487L22.6671 20.9334C22.5252 21.0143 22.3456 20.9805 22.2429 20.8536C22.1401 20.7266 22.1444 20.5439 22.2531 20.422L23.1678 19.4087L20.5278 20.9334C20.4775 20.9639 20.4199 20.9802 20.3611 20.9807Z" fill="#0C393B"/>
  <path d="M21.3442 18.314C21.2057 18.3141 21.0817 18.2285 21.0325 18.0991C20.9833 17.9696 21.0193 17.8233 21.1229 17.7314L21.6329 17.278L19.9155 18.2667C19.7791 18.3449 19.6065 18.3172 19.5015 18.2001C19.3965 18.083 19.3876 17.9085 19.4802 17.7814L20.4689 16.434L18.8549 17.3674C18.7289 17.4386 18.5713 17.4204 18.4649 17.3223C18.3585 17.2243 18.3275 17.0687 18.3882 16.9374L18.7709 16.1214C18.6436 16.1287 18.5229 16.0647 18.4575 15.9554C18.4131 15.8787 18.401 15.7876 18.4239 15.702C18.4468 15.6165 18.5028 15.5436 18.5795 15.4994L19.3315 15.066C19.4575 14.9948 19.6151 15.013 19.7215 15.111C19.8279 15.2091 19.8589 15.3646 19.7982 15.496L19.4402 16.26L21.5069 15.066C21.6433 14.9878 21.8158 15.0155 21.9208 15.1326C22.0259 15.2497 22.0348 15.4242 21.9422 15.5514L20.9555 16.8994L24.1355 15.0667C24.2834 14.9825 24.471 15.0233 24.5706 15.1613C24.6702 15.2992 24.6499 15.4901 24.5235 15.604L24.0155 16.056L25.0762 15.4434C25.2148 15.3629 25.3911 15.3926 25.4958 15.5139C25.6005 15.6353 25.604 15.814 25.5042 15.9394L24.8069 16.8167L25.1509 16.6167C25.3091 16.5339 25.5046 16.5906 25.594 16.7452C25.6833 16.8999 25.6349 17.0975 25.4842 17.1934L23.6175 18.2694C23.4789 18.3498 23.3026 18.3201 23.1979 18.1988C23.0932 18.0774 23.0897 17.8987 23.1895 17.7734L23.8869 16.8974L21.5109 18.2667C21.4606 18.2972 21.403 18.3135 21.3442 18.314Z" fill="#0C393B"/>
  <path d="M36.3036 32.6541L29.037 27.2961C31.5997 24.3193 33.0553 20.5486 33.1576 16.6221C32.7443 1.90606 14.3703 -5.23394 4.3763 5.85006C-5.88503 17.2307 4.53764 35.3241 19.431 32.7434C21.7113 32.3485 23.8813 31.4721 25.7963 30.1727L31.9843 36.3421C33.6743 38.0267 35.609 40.6641 38.2983 39.1087C39.0313 38.7169 39.5545 38.022 39.7285 37.2092C39.9024 36.3964 39.7094 35.5483 39.201 34.8907C38.4816 33.9894 37.2116 33.3227 36.3036 32.6541ZM15.9343 32.3161C7.66874 31.7399 1.23437 24.9073 1.15497 16.6221C1.1423 7.88406 8.5883 0.533395 17.401 1.01739C25.765 1.47873 31.9523 8.53339 32.1803 16.7114C31.9383 25.4001 24.949 32.8667 15.9343 32.3161ZM37.0236 37.9541C36.285 38.663 35.7039 38.8009 35.2803 38.3681C35.225 38.3454 35.1943 38.2574 35.141 38.2294C34.8194 37.9811 34.5306 37.6931 34.2816 37.3721L31.201 34.2994L26.5303 29.6427C27.2235 29.1172 27.8739 28.5376 28.4756 27.9094L33.5303 31.6354C34.9156 32.6567 39.1256 34.8007 38.777 36.9327C38.9227 37.8701 38.3381 38.2105 37.023 37.9541H37.0236Z" fill="white"/>
  <path d="M16.8543 3.05672C16.4836 3.04405 15.829 3.59005 16.4796 3.61005C22.8226 3.72502 28.2001 8.30658 29.321 14.5507C29.9845 18.6461 28.6883 22.8155 25.8196 25.8127H25.5336C25.8301 25.3161 25.9315 24.7272 25.8183 24.1601C25.8301 23.8206 25.6874 23.4941 25.4303 23.2721C25.8596 22.8667 25.8703 22.2381 25.8196 21.4967C25.8335 21.1378 25.6737 20.7941 25.3903 20.5734C25.8176 20.2214 25.8476 19.6847 25.815 18.9594C25.8579 18.5645 25.6909 18.176 25.375 17.9354C25.8216 17.5801 25.8483 17.0281 25.815 16.2927C25.7763 15.4181 25.4563 15.1141 24.595 15.0621C23.5283 14.9954 22.3436 14.9287 21.195 14.9501C20.2403 13.4407 19.2796 12.2834 17.995 11.6387H18.489C18.8936 11.6387 19.499 11.0281 18.8476 11.0281H17.7643C18.1141 10.1738 18.3497 9.27721 18.465 8.36139C18.465 7.04005 15.2456 7.04539 14.3456 7.10005C13.4896 7.15272 10.879 7.30739 10.8643 8.54472C10.9547 9.40026 11.1711 10.2378 11.5063 11.0301H10.8463C10.4416 11.0301 9.83631 11.6407 10.4876 11.6407H11.459C10.9221 11.9519 10.4289 12.333 9.99231 12.7741C5.37165 17.2427 6.43098 23.9881 11.9536 25.8127H7.66165C6.06293 24.2244 4.90262 22.2492 4.29365 20.0794C2.49836 13.341 6.24744 6.36727 12.8583 4.14805C13.4936 3.92405 12.9163 3.58872 12.475 3.74472C5.67165 6.14339 1.34898 13.1594 3.32765 20.3367C3.93856 22.5319 5.1071 24.5316 6.71965 26.1414C6.71965 26.1567 6.72831 26.1681 6.75431 26.1754C10.0332 29.4587 14.7322 30.8928 19.2856 30.0001C25.6296 28.7161 30.5196 23.0921 30.4856 16.5381C30.441 8.93339 24.231 3.30605 16.8543 3.05672ZM22.4623 20.9721C22.631 20.9827 22.7723 20.9901 22.867 20.9901C23.035 20.9901 23.267 20.9647 23.503 20.9447C23.711 20.9394 23.9179 20.9356 24.1236 20.9334C24.226 20.9379 24.3273 20.957 24.4243 20.9901C24.837 21.1581 25.1876 22.7761 24.6243 23.0101H24.301C23.691 22.9841 23.0723 22.9967 22.457 23.0101H21.239C20.684 22.9756 20.1273 22.9756 19.5723 23.0101C19.1516 22.8361 18.9056 21.5661 19.163 21.1434C19.2648 21.0313 19.4054 20.9622 19.5563 20.9501C20.5239 21.0085 21.4939 21.0159 22.4623 20.9721ZM19.1636 23.8001C19.2113 23.7369 19.2775 23.6903 19.353 23.6667C21.0461 23.7542 22.7427 23.7519 24.4356 23.6601C24.8356 23.8601 25.1843 25.4527 24.6283 25.6894H21.2623C20.7043 25.7731 20.137 25.7731 19.579 25.6894C19.155 25.5147 18.907 24.2281 19.1636 23.8001ZM24.5823 20.3447C23.6143 20.2781 22.615 20.3447 21.645 20.3447C20.9308 20.3036 20.2149 20.2998 19.5003 20.3334C19.08 19.7922 18.9511 19.0796 19.155 18.4254C19.2082 18.3554 19.2822 18.3041 19.3663 18.2787C21.021 18.4294 22.7663 18.2741 24.427 18.2707C24.827 18.4814 25.145 19.9767 24.7396 20.3594C24.6876 20.3547 24.6383 20.3474 24.5823 20.3434V20.3447ZM22.853 15.6061C23.3691 15.5274 23.8942 15.5274 24.4103 15.6061C24.843 15.7861 25.181 17.4467 24.6716 17.7301H24.3943C22.7987 17.59 21.1939 17.59 19.5983 17.7301H19.5903C19.1456 17.5461 18.8876 16.1827 19.1563 15.7681C19.2863 15.5681 19.7983 15.5014 20.4083 15.4961L20.425 15.5221C20.5203 15.6761 20.8743 15.6341 21.1163 15.5094C21.8323 15.5381 22.5403 15.6047 22.853 15.6047V15.6061ZM12.031 9.04072C11.971 8.81472 11.7643 8.40605 11.883 8.18072C12.2163 7.55272 14.3143 7.58072 14.8656 7.61005C15.505 7.64539 16.6836 7.69539 17.199 8.09672C17.657 8.45205 17.4196 8.79339 17.3023 9.23739L16.8276 11.0281H12.5576C12.3825 10.3654 12.207 9.70294 12.031 9.04072ZM14.8563 25.7334C7.18965 25.3501 5.81165 16.3847 11.595 12.2234C11.9884 11.9425 12.4347 11.7445 12.907 11.6414H15.7503C17.7136 11.9234 19.0096 13.3561 20.0936 15.0094C19.8616 15.0287 19.6223 15.0394 19.4003 15.0714C18.0256 15.2667 17.635 17.4447 18.681 18.0981C17.9476 18.7647 17.8556 20.1821 18.6316 20.7201C17.9068 21.4696 17.9036 22.6579 18.6243 23.4114C18.0171 24.0689 17.9166 25.0483 18.3776 25.8154H15.1003C15.067 25.7701 14.9963 25.7374 14.8563 25.7334ZM18.539 29.6101C14.707 30.0944 10.8591 28.8399 8.04898 26.1901H13.615C13.8956 26.2274 14.181 26.2567 14.4776 26.2721C14.5902 26.2706 14.7008 26.2425 14.8003 26.1901H18.8156C18.9436 26.2552 19.0819 26.2976 19.2243 26.3154C20.9785 26.4134 22.7368 26.4134 24.491 26.3154C24.4983 26.3154 24.507 26.3121 24.5143 26.3114C24.5919 26.3174 24.6699 26.31 24.745 26.2894C24.8359 26.2621 24.925 26.229 25.0116 26.1901H25.467C23.5843 28.0433 21.1553 29.2415 18.539 29.6074V29.6101Z" fill="white"/>
  <path d="M14.6083 21.8861C14.4901 21.8861 14.3987 21.8012 14.3342 21.6315C14.2225 21.336 14.0537 20.9864 13.828 20.5827L13.2574 19.525C13.1327 19.6596 12.9393 19.8483 12.6771 20.0911C12.6534 20.5446 12.6416 20.9864 12.6416 21.4165C12.6416 21.5481 12.6115 21.6549 12.5513 21.7369C12.4933 21.8188 12.4181 21.8597 12.3256 21.8597C12.1085 21.8597 12 21.6608 12 21.2629C12 21.0201 12.0118 20.6573 12.0355 20.1745C12.0613 19.6888 12.0742 19.3246 12.0742 19.0818C12.0742 18.6371 12.0785 18.1294 12.087 17.5589C12.0978 16.9855 12.1032 16.4793 12.1032 16.0405C12.1032 15.9088 12.0978 15.7537 12.087 15.5753C12.0785 15.3968 12.0742 15.2417 12.0742 15.1101C12.0742 14.9784 12.1032 14.8716 12.1612 14.7897C12.2214 14.7078 12.2977 14.6668 12.3901 14.6668C12.4825 14.6668 12.5578 14.7078 12.6158 14.7897C12.676 14.8716 12.7061 14.9784 12.7061 15.1101C12.7061 15.2447 12.7114 15.4041 12.7222 15.5884C12.7329 15.7698 12.7383 15.9278 12.7383 16.0624L12.7157 17.4755C12.705 17.9846 12.7018 18.4937 12.7061 19.0028C12.9984 18.6985 13.28 18.365 13.5508 18.0022L14.2601 17.006C14.331 16.9065 14.4073 16.8567 14.489 16.8567C14.5728 16.8567 14.648 16.9021 14.7147 16.9928C14.7834 17.0835 14.8178 17.1888 14.8178 17.3088C14.8178 17.4082 14.7867 17.5063 14.7243 17.6028C14.46 18.0241 14.1343 18.4761 13.7474 18.9589L14.4503 20.2623C14.7792 20.8738 14.9436 21.2717 14.9436 21.456C14.9436 21.573 14.9092 21.674 14.8404 21.7588C14.7738 21.8436 14.6964 21.8861 14.6083 21.8861Z" fill="white"/>
  <path d="M17.9968 18.463C17.9817 18.8287 17.8743 19.0115 17.6744 19.0115C17.4895 19.0115 17.3971 18.8667 17.3971 18.5771C17.3971 18.5215 17.3939 18.4191 17.3874 18.2699L17.3778 17.9012C17.0382 17.9568 16.7663 18.087 16.5621 18.2918C16.3708 18.482 16.2117 18.7687 16.0849 19.152L16.0913 21.5569C16.0913 21.8524 15.985 22.0002 15.7722 22.0002C15.583 22.0002 15.4884 21.8524 15.4884 21.5569V18.4761C15.4884 18.3796 15.4906 18.2348 15.4949 18.0417C15.5013 17.8486 15.5046 17.7037 15.5046 17.6072C15.5046 17.3117 15.5991 17.1639 15.7883 17.1639C15.9989 17.1639 16.1053 17.4068 16.1075 17.8925C16.5202 17.3512 16.978 17.0806 17.4809 17.0806C17.655 17.0806 17.7851 17.1698 17.871 17.3483C17.957 17.5267 18 17.7959 18 18.1558C18 18.3079 17.9989 18.4103 17.9968 18.463Z" fill="white"/>
</svg>
