<svg width="60" height="60" viewBox="0 0 60 60" fill="none"
  xmlns="http://www.w3.org/2000/svg">
  <path d="M54.6509 59.391C54.4442 59.3913 54.2586 59.2644 54.1839 59.0716C54.1093 58.8789 54.1609 58.6601 54.3139 58.521L55.1829 57.729L53.3459 58.789C53.1253 58.9171 52.8437 58.8587 52.6924 58.6534C52.541 58.4482 52.5684 58.1619 52.7559 57.989L54.8899 56.016L51.9759 57.7C51.7552 57.8301 51.472 57.7724 51.3199 57.5664C51.1677 57.3604 51.1958 57.0727 51.3849 56.9L53.8599 54.59L50.6889 56.42C50.4634 56.5488 50.1769 56.4836 50.0294 56.2699C49.8819 56.0562 49.9225 55.7652 50.1229 55.6L51.2229 54.7L49.7869 55.528C49.5623 55.655 49.2779 55.5903 49.1305 55.3786C48.983 55.1668 49.0209 54.8777 49.2179 54.711L50.3809 53.745L48.8699 54.617C48.6431 54.747 48.3544 54.6803 48.2076 54.464C48.0608 54.2477 48.1054 53.9549 48.3099 53.792L48.6099 53.552L48.0929 53.852C47.8667 53.9848 47.5763 53.9202 47.4277 53.7041C47.2792 53.4879 47.3229 53.1937 47.5279 53.03L48.0719 52.591L47.2819 53.046C47.0618 53.1671 46.786 53.1061 46.6375 52.9034C46.489 52.7007 46.514 52.4194 46.6959 52.246L48.2709 50.819L46.2249 51.999C46.0098 52.1219 45.7372 52.0689 45.584 51.8743C45.4307 51.6797 45.443 51.4023 45.6129 51.222L47.7039 49.029L44.8779 50.66C44.6608 50.7807 44.388 50.7237 44.2374 50.5261C44.0868 50.3286 44.104 50.0505 44.2779 49.873L46.0019 48.15L43.7019 49.479C43.4863 49.6035 43.212 49.5505 43.0584 49.3547C42.9047 49.1588 42.9186 48.8797 43.0909 48.7L44.8019 46.918L42.4779 48.26C42.2661 48.3816 41.9976 48.3325 41.8426 48.1438C41.6876 47.9552 41.6915 47.6822 41.8519 47.498L43.6169 45.478L41.1249 46.916C40.9149 47.0368 40.6484 46.9897 40.4926 46.8041C40.3368 46.6185 40.3365 46.348 40.4919 46.162L42.1479 44.186L39.7629 45.563C39.5494 45.6858 39.2783 45.6348 39.124 45.4428C38.9697 45.2509 38.9781 44.9752 39.1439 44.793L41.4309 42.293C41.42 42.2783 41.4099 42.263 41.4009 42.247C41.2635 42.0081 41.3453 41.7031 41.5839 41.565L42.7329 40.901C42.9465 40.7769 43.2187 40.8273 43.3736 41.0197C43.5286 41.2121 43.5198 41.4889 43.3529 41.671L42.0629 43.084L44.1019 41.9C44.3118 41.7805 44.5773 41.8282 44.7325 42.0134C44.8877 42.1985 44.8883 42.4682 44.7339 42.654L43.0779 44.632L45.7279 43.1C45.9396 42.9785 46.2082 43.0276 46.3632 43.2163C46.5182 43.4049 46.5142 43.6779 46.3539 43.862L44.5879 45.883L47.3439 44.3C47.5591 44.1771 47.832 44.2304 47.9851 44.4254C48.1382 44.6203 48.1253 44.8981 47.9549 45.078L46.2449 46.861L48.8109 45.381C49.028 45.2604 49.3008 45.3174 49.4514 45.5149C49.602 45.7125 49.5847 45.9906 49.4109 46.168L47.6929 47.88L50.2239 46.419C50.4389 46.2961 50.7115 46.3492 50.8648 46.5438C51.018 46.7383 51.0057 47.0158 50.8359 47.196L48.7449 49.389L51.8349 47.605C52.055 47.4839 52.3308 47.545 52.4793 47.7476C52.6277 47.9503 52.6027 48.2317 52.4209 48.405L50.8449 49.834L53.0979 48.534C53.3235 48.4069 53.6088 48.4731 53.7555 48.6865C53.9021 48.9 53.8615 49.1901 53.6619 49.355L53.1239 49.791L54.0659 49.247C54.2929 49.1144 54.5838 49.1802 54.7316 49.3976C54.8795 49.615 54.8337 49.9097 54.6269 50.072L54.3149 50.317L54.9899 49.929C55.2146 49.7998 55.5008 49.8638 55.6492 50.0764C55.7975 50.289 55.7587 50.5797 55.5599 50.746L54.3979 51.711L56.0859 50.736C56.3118 50.6041 56.6012 50.6686 56.7497 50.884C56.8982 51.0994 56.8556 51.3928 56.6519 51.557L55.5519 52.457L57.1579 51.53C57.3785 51.4 57.6617 51.4577 57.8139 51.6637C57.9661 51.8697 57.938 52.1574 57.7489 52.33L55.2749 54.64L58.2659 52.913C58.4864 52.785 58.768 52.8434 58.9194 53.0486C59.0708 53.2539 59.0434 53.5402 58.8559 53.713L56.7219 55.686L58.6769 54.558C58.8971 54.4353 59.1743 54.4957 59.3234 54.699C59.4726 54.9023 59.4471 55.1848 59.2639 55.358L58.3969 56.149H58.4029C58.5577 56.0583 58.7492 56.0574 58.9048 56.1468C59.0604 56.2362 59.1561 56.4021 59.1558 56.5815C59.1554 56.7609 59.0589 56.9264 58.9029 57.015L54.9029 59.323C54.8266 59.3681 54.7395 59.3916 54.6509 59.391Z" fill="#1C989D"/>
  <path d="M24.5028 49.43C24.28 49.4302 24.084 49.283 24.0221 49.069C23.9602 48.855 24.0473 48.6258 24.2358 48.507L24.8478 48.121L22.9478 49.221C22.7137 49.3567 22.4142 49.2816 22.2718 49.0516C22.1294 48.8215 22.1959 48.5199 22.4218 48.371L34.1928 40.56L20.0028 48.753C19.7667 48.8963 19.4591 48.8211 19.3158 48.585C19.1725 48.3489 19.2477 48.0413 19.4838 47.898L28.2838 42.298L17.9738 48.251C17.7371 48.3935 17.4298 48.3172 17.2873 48.0805C17.1448 47.8439 17.2211 47.5365 17.4578 47.394L24.6578 42.886L16.4128 47.645C16.1773 47.777 15.8795 47.6982 15.7402 47.467C15.6008 47.2358 15.6701 46.9357 15.8968 46.789L24.5548 41.374L14.8428 46.981C14.6071 47.1088 14.3125 47.028 14.1751 46.7977C14.0377 46.5674 14.1064 46.2698 14.3308 46.123L17.7898 44L13.6758 46.375C13.4395 46.5057 13.1422 46.4251 13.0041 46.1931C12.8661 45.961 12.9372 45.6613 13.1648 45.516L13.6428 45.225L12.6988 45.768C12.4642 45.8934 12.1725 45.8132 12.035 45.5854C11.8976 45.3577 11.9625 45.0622 12.1828 44.913L26.5278 35.877L11.1028 44.784C10.8666 44.9171 10.5674 44.8377 10.4282 44.605C10.2891 44.3723 10.3608 44.0711 10.5898 43.926L18.5758 39.006L10.0758 43.906C9.8407 44.0334 9.54703 43.9532 9.40919 43.7242C9.27136 43.4951 9.33815 43.1981 9.56079 43.05L23.1688 34.56L8.83979 42.842C8.60313 42.9845 8.29578 42.9082 8.15329 42.6715C8.0108 42.4349 8.08713 42.1275 8.32379 41.985L24.7888 31.646L7.60279 41.566C7.36658 41.6991 7.06735 41.6197 6.92823 41.387C6.7891 41.1543 6.86076 40.8531 7.08979 40.708L18.5228 33.646L6.67679 40.485C6.44135 40.6196 6.14157 40.5419 6.00106 40.31C5.86054 40.0781 5.93052 39.7764 6.15879 39.63L25.2588 27.556L5.51479 38.955C5.28134 39.0698 4.99891 38.9863 4.86527 38.7632C4.73163 38.54 4.79143 38.2517 5.00279 38.1L14.7568 32.1L4.81979 37.838C4.58258 37.9794 4.27567 37.9017 4.13429 37.6645C3.9929 37.4273 4.07058 37.1204 4.30779 36.979L16.3838 29.52L4.06979 36.629C3.83427 36.761 3.53654 36.6822 3.39717 36.451C3.25779 36.2198 3.32712 35.9197 3.55379 35.773L22.5678 23.773L3.30279 34.893C3.06586 35.035 2.75872 34.958 2.61679 34.721C2.47485 34.4841 2.55186 34.177 2.78879 34.035L16.7318 25.37L2.70279 33.471C2.46658 33.6041 2.16735 33.5247 2.02823 33.292C1.8891 33.0593 1.96076 32.7581 2.18979 32.613L16.1798 23.913L2.24379 31.952C2.00905 32.0758 1.71849 31.9947 1.58187 31.7672C1.44525 31.5396 1.51019 31.245 1.72979 31.096L16.0028 22.189L1.85179 30.357C1.6148 30.4921 1.3133 30.4123 1.17417 30.1776C1.03504 29.943 1.10962 29.6402 1.34179 29.497L1.57879 29.354C1.3396 29.4776 1.04548 29.3896 0.913474 29.155C0.781464 28.9203 0.858964 28.6233 1.08879 28.483L10.6028 22.6L1.47979 27.867C1.2435 27.9977 0.946182 27.9171 0.808146 27.6851C0.670111 27.453 0.741223 27.1533 0.968786 27.008L4.03379 25.133L1.38179 26.664C1.14558 26.7971 0.846353 26.7177 0.707226 26.485C0.568099 26.2523 0.639765 25.9511 0.868786 25.806L7.01979 22.015L1.29179 25.321C1.05742 25.4499 0.763131 25.3715 0.62391 25.1432C0.484689 24.9148 0.549849 24.6173 0.771786 24.468L16.7288 14.222L1.47679 23.027C1.2417 23.1544 0.948027 23.0742 0.810195 22.8451C0.672362 22.6161 0.739147 22.3191 0.961786 22.171L8.96879 17.163L1.63279 21.4C1.39842 21.5289 1.10413 21.4506 0.96491 21.2222C0.825689 20.9938 0.890849 20.6963 1.11279 20.547L12.2228 13.447L2.16079 19.254C1.92758 19.3828 1.63439 19.3061 1.4941 19.0796C1.35381 18.8532 1.41568 18.5565 1.63479 18.405L14.7848 9.66503L3.11979 16.4C2.88589 16.527 2.59354 16.4485 2.4547 16.2214C2.31586 15.9944 2.3792 15.6984 2.59879 15.548L9.05779 11.367L4.06279 14.25C3.83059 14.3879 3.53088 14.3165 3.38579 14.0887C3.24071 13.861 3.30269 13.5592 3.52579 13.407L11.9258 7.54603L6.34679 10.765C6.11821 10.898 5.82561 10.83 5.67911 10.6098C5.53261 10.3897 5.58286 10.0935 5.79379 9.93403L10.1728 6.60603C9.97724 6.55406 9.83229 6.38937 9.80558 6.18881C9.77887 5.98825 9.87566 5.79136 10.0508 5.69003L15.6028 2.48303C15.8312 2.35303 16.1212 2.42201 16.2666 2.64091C16.412 2.8598 16.3632 3.1539 16.1548 3.31403L12.6938 5.94403L21.5028 0.859027C21.7346 0.725965 22.0302 0.798822 22.1736 1.02441C22.317 1.25 22.2576 1.54851 22.0388 1.70203L13.6388 7.56303L25.5928 0.665027C25.8276 0.531388 26.126 0.608395 26.2668 0.838936C26.4076 1.06948 26.3399 1.37018 26.1138 1.51803L19.6408 5.70803L28.0338 0.862027C28.2673 0.729183 28.5641 0.804663 28.7058 1.03294C28.8475 1.26122 28.7835 1.56068 28.5608 1.71103L15.4168 10.446L30.9478 1.47903C31.1832 1.34107 31.4857 1.41732 31.6277 1.65037C31.7696 1.88343 31.6984 2.18721 31.4678 2.33303L20.3548 9.43303L33.0318 2.11303C33.268 1.97684 33.5697 2.05496 33.7101 2.28863C33.8505 2.52231 33.7779 2.82541 33.5468 2.97003L25.5468 7.97503L34.5718 2.76403C34.8066 2.63039 35.105 2.70739 35.2458 2.93794C35.3866 3.16848 35.3189 3.46918 35.0928 3.61703L19.1338 13.866L36.5948 3.78503C36.832 3.64364 37.1389 3.72132 37.2803 3.95853C37.4217 4.19573 37.344 4.50264 37.1068 4.64403L30.9548 8.43603L37.7548 4.50803C37.9911 4.37739 38.2884 4.45794 38.4264 4.68997C38.5645 4.92201 38.4933 5.22173 38.2658 5.36703L35.2168 7.23403L38.8098 5.16003C39.0455 5.03221 39.3401 5.11309 39.4775 5.34335C39.6149 5.57361 39.5462 5.87127 39.3218 6.01803L29.7908 11.912L39.9028 6.07403C40.1405 5.93319 40.4475 6.01177 40.5883 6.24953C40.7291 6.48729 40.6505 6.79419 40.4128 6.93503L40.2258 7.04803L40.7118 6.76803C40.9469 6.64068 41.2405 6.72081 41.3784 6.9499C41.5162 7.179 41.4494 7.47599 41.2268 7.62403L26.9548 16.53L41.9308 7.88503C42.166 7.7594 42.4584 7.84046 42.5954 8.06925C42.7323 8.29805 42.6656 8.59407 42.4438 8.74203L28.4558 17.442L42.9558 9.07203C43.1091 8.98021 43.2997 8.97713 43.4558 9.06396C43.612 9.15078 43.7099 9.31432 43.7128 9.49296C43.7157 9.6716 43.6231 9.83821 43.4698 9.93003L29.5028 18.611L43.9688 10.26C44.2034 10.1346 44.4951 10.2149 44.6325 10.4426C44.77 10.6704 44.7051 10.9659 44.4848 11.115L25.4848 23.115L44.9908 11.849C45.227 11.716 45.5262 11.7954 45.6653 12.0281C45.8045 12.2608 45.7328 12.5619 45.5038 12.707L33.4108 20.177L45.7408 13.059C45.9765 12.9312 46.2711 13.0121 46.4085 13.2423C46.5459 13.4726 46.4772 13.7703 46.2528 13.917L36.4958 19.917L46.3358 14.236C46.5722 14.093 46.8797 14.1686 47.0228 14.405C47.1658 14.6414 47.0902 14.949 46.8538 15.092L27.7538 27.164L47.0828 16C47.319 15.867 47.6182 15.9464 47.7573 16.1791C47.8965 16.4118 47.8248 16.7129 47.5958 16.858L36.1708 23.919L47.5838 17.33C47.8204 17.1875 48.1278 17.2639 48.2703 17.5005C48.4128 17.7372 48.3364 18.0445 48.0998 18.187L31.6278 28.531L48.0138 19.071C48.2494 18.9413 48.5454 19.0211 48.6838 19.2518C48.8221 19.4825 48.7532 19.7813 48.5278 19.928L34.9278 28.412L48.4028 20.636C48.6385 20.5082 48.9331 20.5891 49.0705 20.8193C49.2079 21.0496 49.1392 21.3473 48.9148 21.494L40.9228 26.415L48.5228 22.03C48.7583 21.8981 49.056 21.9769 49.1954 22.2081C49.3348 22.4393 49.2654 22.7394 49.0388 22.886L34.6878 31.926L48.6698 23.854C48.9061 23.7234 49.2034 23.8039 49.3414 24.036C49.4795 24.268 49.4083 24.5677 49.1808 24.713L48.6928 25.013C48.9286 24.887 49.2219 24.9688 49.3584 25.1987C49.4949 25.4287 49.4264 25.7253 49.2028 25.872L45.7748 27.981L48.5818 26.359C48.818 26.2228 49.1197 26.301 49.2601 26.5346C49.4005 26.7683 49.3279 27.0714 49.0968 27.216L40.4348 32.63L48.4448 28.005C48.6803 27.8731 48.978 27.9519 49.1174 28.1831C49.2568 28.4143 49.1874 28.7144 48.9608 28.861L41.7748 33.361L48.1028 29.707C48.3382 29.5725 48.638 29.6501 48.7785 29.8821C48.919 30.114 48.8491 30.4156 48.6208 30.562L39.7958 36.17L47.6218 31.652C47.7736 31.5579 47.9641 31.5519 48.1216 31.6363C48.279 31.7208 48.3795 31.8828 48.3851 32.0613C48.3907 32.2399 48.3006 32.4079 48.1488 32.502L36.3788 40.31L46.5248 34.452C46.7612 34.3093 47.0685 34.3851 47.2113 34.6215C47.354 34.8579 47.2782 35.1653 47.0418 35.308L45.8778 36.042C46.1088 35.999 46.3386 36.1226 46.43 36.3391C46.5215 36.5556 46.4498 36.8065 46.2578 36.942L39.4768 41.561L43.8038 39.061C44.0362 38.9282 44.332 39.0019 44.4748 39.2284C44.6176 39.4548 44.5568 39.7535 44.3368 39.906L41.6368 41.757C41.8524 41.779 42.0293 41.9374 42.0749 42.1493C42.1204 42.3612 42.0243 42.5783 41.8368 42.687L31.9638 48.387C31.7314 48.5199 31.4356 48.4461 31.2928 48.2197C31.1499 47.9933 31.2108 47.6945 31.4308 47.542L33.1448 46.366L28.3268 49.147C28.0949 49.273 27.8051 49.1971 27.6648 48.9737C27.5244 48.7503 27.5817 48.4563 27.7958 48.302L34.5768 43.682L24.7508 49.355C24.6761 49.4014 24.5906 49.4272 24.5028 49.43Z" fill="#1C989D"/>
  <path d="M24.0404 45.393C23.8183 45.3931 23.6228 45.2468 23.5603 45.0337C23.4979 44.8206 23.5834 44.5918 23.7704 44.472L25.6054 43.292L22.3544 45.169C22.1203 45.3021 21.8228 45.2259 21.6815 44.9965C21.5403 44.7672 21.6061 44.4672 21.8304 44.318L29.0474 39.592L20.2004 44.7C19.967 44.8253 19.6763 44.7468 19.5377 44.5209C19.3992 44.295 19.4609 44.0003 19.6784 43.849L28.5474 38.084L18.1844 44.065C17.9506 44.1938 17.657 44.1162 17.5172 43.8888C17.3775 43.6615 17.441 43.3644 17.6614 43.214L28.9004 35.9L16.2004 43.23C15.9671 43.357 15.6752 43.2793 15.5358 43.0532C15.3964 42.8271 15.4582 42.5314 15.6764 42.38L29.9004 33.05L14.2874 42.065C14.0538 42.1888 13.7643 42.1093 13.6266 41.8837C13.4889 41.658 13.5506 41.3642 13.7674 41.213L27.1264 32.613L12.7264 40.927C12.4892 41.0684 12.1823 40.9907 12.0409 40.7535C11.8995 40.5163 11.9772 40.2094 12.2144 40.068L12.4724 39.91L11.9144 40.232C11.6796 40.3657 11.3812 40.2887 11.2404 40.0581C11.0996 39.8276 11.1673 39.5269 11.3934 39.379L27.0774 29.232L10.4904 38.809C10.2549 38.941 9.95716 38.8622 9.81779 38.631C9.67842 38.3997 9.74775 38.0997 9.97441 37.953L21.8004 30.486L9.46141 37.609C9.22693 37.7361 8.93399 37.6568 8.79568 37.4287C8.65736 37.2007 8.72237 36.9042 8.94341 36.755L22.4434 28.187L8.51241 36.227C8.35968 36.3197 8.16909 36.3239 8.01244 36.238C7.85578 36.1521 7.75686 35.9891 7.75294 35.8105C7.74901 35.6319 7.84068 35.4647 7.99341 35.372L22.4794 26.133L7.58441 34.733C7.34993 34.8601 7.05699 34.7808 6.91868 34.5527C6.78036 34.3247 6.84537 34.0282 7.06641 33.879L20.6004 25.285L6.90841 33.185C6.6727 33.3128 6.37812 33.232 6.24071 33.0017C6.10331 32.7714 6.172 32.4738 6.39641 32.327L8.25241 31.188L6.49341 32.207C6.25844 32.3362 5.96337 32.2571 5.82462 32.0276C5.68587 31.7981 5.75284 31.5001 5.97641 31.352L18.1894 23.62L6.02641 30.642C5.78921 30.7834 5.4823 30.7057 5.34091 30.4685C5.19953 30.2313 5.27721 29.9244 5.51441 29.783L9.60641 27.254L5.74141 29.485C5.50739 29.6103 5.21626 29.5309 5.07828 29.3041C4.9403 29.0773 5.00358 28.7823 5.22241 28.632L18.1914 20.332L5.46141 27.682C5.22531 27.8253 4.91773 27.7501 4.77441 27.514C4.6311 27.2779 4.70631 26.9703 4.94241 26.827L15.7314 19.957L5.32241 25.965C5.16897 26.0565 4.97838 26.0591 4.82245 25.972C4.66653 25.8848 4.56894 25.7211 4.56645 25.5425C4.56397 25.3639 4.65697 25.1975 4.81041 25.106L5.41041 24.739L5.33841 24.78C5.1029 24.912 4.80516 24.8332 4.66579 24.602C4.52642 24.3707 4.59575 24.0707 4.82241 23.924L9.59141 20.934L5.45041 23.321C5.21544 23.4502 4.92037 23.3711 4.78162 23.1416C4.64287 22.9121 4.70984 22.6141 4.93341 22.466L10.5464 18.914L5.65341 21.738C5.41893 21.8651 5.12599 21.7858 4.98768 21.5577C4.84936 21.3297 4.91437 21.0332 5.13541 20.884L10.1524 17.69L6.06941 20.047C5.83689 20.1778 5.54265 20.103 5.40083 19.877C5.25901 19.6511 5.31956 19.3536 5.53841 19.201L15.4724 12.45L7.06541 17.3C6.83435 17.4298 6.54214 17.3568 6.39933 17.1335C6.25651 16.9103 6.3127 16.6144 6.52741 16.459L14.1344 11.1L8.80041 14.177C8.57374 14.3088 8.2838 14.2431 8.13607 14.0265C7.98834 13.8099 8.03301 13.516 8.23841 13.353L12.5544 9.91902C12.3335 9.90728 12.1465 9.75171 12.0948 9.53657C12.0431 9.32143 12.1389 9.09789 12.3304 8.98702L17.4414 6.03702C17.6676 5.91242 17.9515 5.98056 18.0964 6.19426C18.2414 6.40797 18.1998 6.69691 18.0004 6.86102L14.1164 9.95102L23.1704 4.72502C23.4009 4.59936 23.6892 4.6733 23.8308 4.89433C23.9724 5.11537 23.9189 5.40824 23.7084 5.56502L16.1004 10.931L26.7904 4.76202C27.0223 4.63607 27.3121 4.71194 27.4524 4.93534C27.5928 5.15874 27.5355 5.45277 27.3214 5.60702L17.3824 12.361L29.6644 5.27102C29.8171 5.17831 30.0077 5.17412 30.1644 5.26004C30.321 5.34595 30.42 5.50891 30.4239 5.68754C30.4278 5.86616 30.3361 6.03331 30.1834 6.12602L25.1744 9.31402L31.3614 5.74202C31.5978 5.59898 31.9054 5.67464 32.0484 5.91102C32.1915 6.1474 32.1158 6.45498 31.8794 6.59802L26.2704 10.146L32.8274 6.36102C33.0641 6.21853 33.3714 6.29487 33.5139 6.53152C33.6564 6.76817 33.5801 7.07553 33.3434 7.21802L28.5724 10.209L34.1724 6.97802C34.4086 6.84495 34.7078 6.92437 34.847 7.15706C34.9861 7.38975 34.9144 7.69093 34.6854 7.83602L34.0854 8.20802L35.1604 7.58802C35.3953 7.45674 35.6919 7.53486 35.8317 7.76479C35.9714 7.99473 35.9041 8.29401 35.6794 8.44202L24.8794 15.318L36.6364 8.52902C36.8713 8.39774 37.1679 8.47586 37.3077 8.70579C37.4474 8.93573 37.3801 9.23501 37.1554 9.38302L24.2064 17.67L38.0054 9.70002C38.2426 9.55836 38.5498 9.63581 38.6914 9.87302C38.8331 10.1102 38.7556 10.4174 38.5184 10.559L34.4004 13.1L38.9144 10.5C39.1499 10.3655 39.4496 10.4431 39.5901 10.675C39.7307 10.907 39.6607 11.2086 39.4324 11.355L27.2274 19.082L39.9694 11.726C40.2048 11.602 40.496 11.6839 40.6321 11.9125C40.7682 12.1411 40.7016 12.4362 40.4804 12.584L38.6214 13.726L40.6704 12.543C40.9046 12.4193 41.1946 12.4996 41.3317 12.7262C41.4689 12.9527 41.4056 13.2469 41.1874 13.397L27.6544 21.99L41.5934 13.943C41.8288 13.8085 42.1286 13.8861 42.2691 14.118C42.4097 14.35 42.3397 14.6516 42.1114 14.798L27.6214 24.039L42.5134 15.439C42.7484 15.3098 43.0435 15.389 43.1822 15.6184C43.321 15.8479 43.254 16.146 43.0304 16.294L29.5374 24.864L43.1694 16.994C43.4058 16.8513 43.7131 16.9271 43.8559 17.1635C43.9987 17.3999 43.9228 17.7073 43.6864 17.85L31.8604 25.316L43.7504 18.452C43.9852 18.3184 44.2836 18.3954 44.4245 18.6259C44.5653 18.8565 44.4975 19.1572 44.2714 19.305L28.5864 29.447L44.2334 20.414C44.4691 20.2862 44.7637 20.3671 44.9011 20.5973C45.0385 20.8276 44.9698 21.1253 44.7454 21.272L44.4834 21.434C44.7192 21.3143 45.0074 21.3988 45.1411 21.6268C45.2749 21.8549 45.208 22.1477 44.9884 22.295L31.6264 30.9L44.6264 23.4C44.8597 23.2731 45.1516 23.3507 45.291 23.5768C45.4304 23.8029 45.3687 24.0986 45.1504 24.25L30.9284 33.573L44.6284 25.662C44.8627 25.5311 45.1585 25.6085 45.2986 25.8373C45.4388 26.0661 45.3734 26.3648 45.1504 26.514L33.9094 33.832L44.4644 27.739C44.6987 27.6081 44.9945 27.6855 45.1346 27.9143C45.2748 28.1431 45.2094 28.4418 44.9864 28.591L36.1214 34.354L43.9614 29.827C44.1952 29.6983 44.4889 29.7758 44.6286 30.0032C44.7683 30.2306 44.7049 30.5276 44.4844 30.678L37.2684 35.4L43.2494 31.947C43.4852 31.8032 43.793 31.8777 43.9369 32.1135C44.0808 32.3493 44.0062 32.6571 43.7704 32.801L41.9304 33.983L42.5374 33.633C42.7711 33.5023 43.0662 33.5789 43.2069 33.8066C43.3476 34.0344 43.2839 34.3326 43.0624 34.483L41.2464 35.675L41.3144 35.636C41.543 35.503 41.8356 35.5711 41.9821 35.7912C42.1286 36.0114 42.0783 36.3075 41.8674 36.467L37.7314 39.612L37.9094 39.512C38.0644 39.4135 38.2609 39.4079 38.4213 39.4974C38.5817 39.5869 38.6801 39.7571 38.6776 39.9407C38.6751 40.1244 38.5722 40.2919 38.4094 40.377L31.4004 44.424C31.172 44.554 30.882 44.485 30.7366 44.2661C30.5912 44.0472 30.64 43.7531 30.8484 43.593L34.9804 40.449L26.5924 45.3C26.3577 45.4406 26.0536 45.3664 25.91 45.1336C25.7664 44.9007 25.8365 44.5957 26.0674 44.449L27.9024 43.249L24.2904 45.325C24.2145 45.3693 24.1283 45.3927 24.0404 45.393Z" fill="white"/>
  <ellipse rx="19.6341" ry="20.3645" transform="matrix(-1 0 0 1 25.0495 25.0285)" fill="white"/>
  <path d="M19.1452 17.4891C18.9326 17.4893 18.7432 17.355 18.6729 17.1544C18.6027 16.9537 18.667 16.7306 18.8332 16.5981L20.2702 15.4551L18.2482 16.6221C18.0257 16.7511 17.7416 16.6903 17.5915 16.4815C17.4413 16.2726 17.4741 15.984 17.6672 15.8141L19.5882 14.1211L17.8512 15.1211C17.629 15.2497 17.3455 15.1891 17.1953 14.9808C17.0451 14.7726 17.077 14.4844 17.2692 14.3141L17.7032 13.9291L17.5572 14.0131C17.3601 14.1274 17.1106 14.0939 16.9506 13.9318C16.7905 13.7696 16.7603 13.5197 16.8772 13.3241L17.1372 12.8891C16.9365 12.9137 16.7402 12.8172 16.6372 12.6431C16.4996 12.4045 16.581 12.0995 16.8192 11.9611L18.2632 11.1281C18.4601 11.0145 18.7089 11.0481 18.8687 11.2097C19.0285 11.3714 19.0591 11.6206 18.9432 11.8161L18.7212 12.1881L21.4572 10.6091C21.6794 10.4805 21.9629 10.5412 22.1131 10.7494C22.2633 10.9577 22.2314 11.2458 22.0392 11.4161L21.6022 11.8001L23.4272 10.7461C23.6497 10.6171 23.9338 10.678 24.0839 10.8868C24.2341 11.0956 24.2013 11.3843 24.0082 11.5541L22.0882 13.2501L25.5942 11.2271C25.8207 11.098 26.1084 11.1645 26.2552 11.3801C26.4019 11.5956 26.3584 11.8877 26.1552 12.0511L24.7172 13.2001L26.6922 12.0601C26.9132 11.9209 27.204 11.9753 27.3599 12.1848C27.5157 12.3943 27.4841 12.6885 27.2872 12.8601L25.6122 14.4401L26.2022 14.1001C26.4074 13.9822 26.6673 14.0243 26.8247 14.2011C26.9822 14.3779 26.994 14.6409 26.8532 14.8311L26.2052 15.6991C26.3128 15.7403 26.4028 15.8173 26.4602 15.9171C26.5983 16.1563 26.5163 16.462 26.2772 16.6001L24.8772 17.4071C24.6719 17.5251 24.4121 17.4829 24.2547 17.3061C24.0972 17.1294 24.0854 16.8664 24.2262 16.6761L24.5972 16.1761L22.4572 17.4101C22.2363 17.5758 21.9229 17.531 21.7572 17.3101C21.5915 17.0892 21.6363 16.7758 21.8572 16.6101L23.5312 15.0201L19.3852 17.4141C19.313 17.4594 19.2303 17.4852 19.1452 17.4891Z" fill="#0F474A"/>
  <path d="M22.8105 39.384C22.5932 39.3838 22.4009 39.2433 22.3347 39.0363C22.2685 38.8293 22.3436 38.6032 22.5205 38.477L23.5205 37.768L20.9325 39.261C20.702 39.3913 20.4098 39.3192 20.2663 39.0967C20.1228 38.8741 20.1777 38.5782 20.3915 38.422L24.2785 35.634L18.7725 38.813C18.543 38.9445 18.2507 38.8744 18.1057 38.6531C17.9608 38.4318 18.0133 38.1359 18.2255 37.978L25.3575 32.722L16.5155 37.822C16.2818 37.9527 15.9867 37.8761 15.846 37.6484C15.7053 37.4206 15.769 37.1224 15.9905 36.972L17.8415 35.757L15.4015 37.169C15.1687 37.3069 14.8685 37.2347 14.7239 37.006C14.5794 36.7772 14.643 36.475 14.8675 36.324L21.5165 31.749L14.1445 36.005C13.909 36.1491 13.6011 36.075 13.457 35.8395C13.3129 35.6039 13.387 35.2961 13.6225 35.152L14.5555 34.552L13.4295 35.201C13.1976 35.3341 12.9021 35.2612 12.7587 35.0356C12.6153 34.81 12.6746 34.5115 12.8935 34.358L21.1335 28.599L12.3785 33.65C12.1478 33.7785 11.857 33.7054 11.7144 33.4832C11.5718 33.261 11.6266 32.9662 11.8395 32.81L20.5935 26.618L11.6565 31.777C11.4258 31.9055 11.135 31.8324 10.9924 31.6102C10.8498 31.388 10.9046 31.0932 11.1175 30.937L19.2725 25.169L11.3465 29.745C11.1154 29.8748 10.8232 29.8018 10.6804 29.5785C10.5376 29.3553 10.5938 29.0594 10.8085 28.904L17.7605 24L11.4925 27.618C11.2614 27.7478 10.9692 27.6748 10.8264 27.4515C10.6836 27.2283 10.7398 26.9324 10.9545 26.777L16.2655 23.027L12.0885 25.439C11.8601 25.574 11.5659 25.5071 11.4184 25.2865C11.2709 25.0659 11.3214 24.7685 11.5335 24.609L15.8625 21.29L13.4815 22.66C13.2594 22.7866 12.9775 22.7252 12.8281 22.5177C12.6788 22.3102 12.71 22.0235 12.9005 21.853L16.0755 19.053C16.0094 19.0103 15.9545 18.9524 15.9155 18.884C15.8491 18.7687 15.8314 18.6317 15.8664 18.5033C15.9013 18.375 15.9859 18.2658 16.1015 18.2L18.8795 16.6C19.1016 16.4734 19.3835 16.5348 19.5329 16.7423C19.6822 16.9498 19.651 17.2365 19.4605 17.407L17.3205 19.294L21.9905 16.594C22.2184 16.4632 22.5087 16.5311 22.6549 16.7495C22.8011 16.9679 22.7533 17.2621 22.5455 17.423L18.2135 20.745L25.2605 16.677C25.4916 16.5472 25.7838 16.6202 25.9266 16.8435C26.0694 17.0667 26.0132 17.3626 25.7985 17.518L20.4885 21.267L26.7635 17.645C26.994 17.5193 27.2823 17.5933 27.4239 17.8143C27.5655 18.0354 27.512 18.3282 27.3015 18.485L20.3505 23.393L28.1845 18.87C28.4158 18.7366 28.7112 18.8085 28.8552 19.0334C28.9993 19.2582 28.9413 19.5565 28.7235 19.711L20.5635 25.48L29.5015 20.321C29.7328 20.1876 30.0282 20.2595 30.1722 20.4844C30.3163 20.7092 30.2583 21.0075 30.0405 21.162L21.2875 27.354L30.6485 21.948C30.8807 21.8101 31.1804 21.8815 31.3255 22.1093C31.4706 22.337 31.4086 22.6389 31.1855 22.791L22.9435 28.55L31.5305 23.593C31.7648 23.4621 32.0606 23.5395 32.2007 23.7683C32.3409 23.9971 32.2755 24.2957 32.0525 24.445L31.1215 25.045L31.9475 24.568C32.1799 24.4352 32.4757 24.5089 32.6186 24.7353C32.7614 24.9618 32.7005 25.2605 32.4805 25.413L25.8295 29.99L32.4615 26.162C32.6957 26.0289 32.9932 26.1052 33.1344 26.3345C33.2756 26.5639 33.2098 26.8638 32.9855 27.013L31.1335 28.228L32.6105 27.376C32.8401 27.2445 33.1323 27.3146 33.2773 27.5359C33.4223 27.7572 33.3698 28.0531 33.1575 28.211L26.0265 33.466L32.5555 29.7C32.7861 29.5697 33.0782 29.6418 33.2217 29.8643C33.3652 30.0869 33.3103 30.3828 33.0965 30.539L29.2105 33.326L32.0475 31.689C32.2778 31.5617 32.5674 31.6347 32.7098 31.856C32.8522 32.0773 32.7988 32.3711 32.5875 32.528L31.3245 33.428C31.563 33.3879 31.796 33.5243 31.8778 33.7519C31.9597 33.9795 31.8669 34.233 31.6575 34.354L23.0575 39.317C22.9824 39.3604 22.8973 39.3835 22.8105 39.384Z" fill="#0F474A"/>
  <path d="M32.3801 39.4711C32.1861 39.4715 32.0095 39.3597 31.9268 39.1843C31.8441 39.0088 31.8703 38.8014 31.9941 38.6521L33.4841 36.8521L29.1221 39.3691C28.9068 39.492 28.634 39.4387 28.4809 39.2437C28.3278 39.0488 28.3406 38.7711 28.5111 38.5911L29.8251 37.2211L28.2811 38.1111C28.0929 38.2197 27.8561 38.1942 27.6952 38.0482C27.5343 37.9021 27.4862 37.6689 27.5761 37.4711L28.1681 36.1791C27.9332 36.2032 27.7135 36.0598 27.6411 35.8351C27.5687 35.6104 27.6633 35.3656 27.8681 35.2481L28.9961 34.5981C29.1842 34.4931 29.4185 34.5204 29.5774 34.6659C29.7364 34.8115 29.7842 35.0424 29.6961 35.2391L29.1361 36.4621L32.3671 34.6001C32.5824 34.4756 32.8565 34.5284 33.0102 34.7239C33.164 34.9193 33.1507 35.1981 32.9791 35.3781L31.6631 36.7491L35.3881 34.6001C35.5974 34.4803 35.8625 34.527 36.0183 34.7112C36.174 34.8954 36.176 35.1646 36.0231 35.3511L34.5341 37.1511L37.6601 35.3511C37.8697 35.2301 38.1359 35.2766 38.292 35.4615C38.4482 35.6465 38.4495 35.9167 38.2951 36.1031L37.4311 37.1421L37.7221 36.9741C37.9595 36.8499 38.2526 36.9349 38.3867 37.1669C38.5208 37.3989 38.4482 37.6953 38.2221 37.8391L35.5011 39.4001C35.2915 39.5211 35.0253 39.4746 34.8691 39.2896C34.713 39.1047 34.7117 38.8345 34.8661 38.6481L35.7301 37.6091L32.6301 39.4011C32.5546 39.4465 32.4682 39.4707 32.3801 39.4711Z" fill="#1C989D"/>
  <path d="M32.3786 35.471C32.1859 35.4713 32.0101 35.3608 31.9268 35.187C31.8435 35.0132 31.8676 34.807 31.9886 34.657L33.4836 32.8L29.0626 35.353C28.8511 35.4746 28.5827 35.4258 28.4275 35.2375C28.2724 35.0491 28.2758 34.7763 28.4356 34.592L29.8546 32.961L28.2796 33.87C28.0883 33.983 27.8453 33.9561 27.6832 33.804C27.5212 33.6519 27.479 33.4111 27.5796 33.213L28.0996 32.181C27.8747 32.1769 27.6802 32.023 27.6244 31.805C27.5686 31.587 27.6653 31.3587 27.8606 31.247L28.9886 30.597C29.1802 30.4834 29.4238 30.5103 29.586 30.6628C29.7483 30.8153 29.7901 31.0568 29.6886 31.255L29.2296 32.167L31.9506 30.6C32.1619 30.4796 32.4291 30.5287 32.5838 30.7162C32.7386 30.9038 32.7359 31.1755 32.5776 31.36L31.1566 32.991L35.3006 30.6C35.5089 30.4808 35.7725 30.5265 35.9287 30.7087C36.0848 30.891 36.0894 31.1585 35.9396 31.346L34.4456 33.2L37.6596 31.345C37.856 31.2315 38.1042 31.2644 38.2642 31.4251C38.4242 31.5858 38.456 31.8341 38.3416 32.03L37.4276 33.593L37.7216 33.423C37.9591 33.2988 38.2522 33.3838 38.3863 33.6158C38.5204 33.8478 38.4478 34.1442 38.2216 34.288L36.2916 35.4C36.0953 35.5135 35.8471 35.4806 35.6871 35.3199C35.5271 35.1591 35.4953 34.9108 35.6096 34.715L36.5246 33.152L32.6246 35.401C32.5503 35.4457 32.4654 35.4698 32.3786 35.471Z" fill="#1C989D"/>
  <path d="M30.5436 31.471C30.3381 31.4715 30.1533 31.3463 30.0775 31.1553C30.0018 30.9643 30.0506 30.7464 30.2006 30.606L31.2536 29.617L28.6256 31.134C28.4091 31.2516 28.1392 31.1941 27.9896 30.9983C27.84 30.8026 27.8553 30.527 28.0256 30.349L29.0256 29.343L28.2846 29.77C28.0918 29.881 27.8488 29.8512 27.6885 29.6969C27.5281 29.5426 27.4891 29.3009 27.5926 29.104L28.0786 28.179C27.8602 28.1615 27.6786 28.0038 27.6307 27.79C27.5828 27.5762 27.6796 27.3561 27.8696 27.247L28.9976 26.597C29.1905 26.4851 29.4341 26.5145 29.5949 26.669C29.7557 26.8235 29.7947 27.0658 29.6906 27.263L29.2816 28.04L31.7816 26.597C31.9985 26.4719 32.2745 26.5266 32.4274 26.7249C32.5802 26.9233 32.5628 27.2041 32.3866 27.382L31.3866 28.388L34.4866 26.597C34.7074 26.4627 34.9942 26.5188 35.1481 26.7265C35.302 26.9341 35.2723 27.2248 35.0796 27.397L34.0276 28.386L37.0026 26.664C37.2157 26.5412 37.4864 26.5916 37.641 26.7829C37.7956 26.9741 37.7882 27.2493 37.6236 27.432L36.2506 28.951L37.7226 28.103C37.9246 27.9873 38.1798 28.0263 38.338 28.1972C38.4962 28.368 38.5155 28.6255 38.3846 28.818L37.9086 29.51C38.1082 29.4824 38.3044 29.58 38.4026 29.756C38.54 29.9949 38.4581 30.2999 38.2196 30.438L36.5486 31.402C36.3466 31.5177 36.0914 31.4787 35.9332 31.3078C35.775 31.137 35.7557 30.8795 35.8866 30.687L36.3086 30.073L34.0026 31.4C33.7898 31.5214 33.5204 31.4707 33.3662 31.2803C33.2121 31.0899 33.2186 30.8159 33.3816 30.633L34.7536 29.113L30.7936 31.4C30.7182 31.4457 30.6318 31.4703 30.5436 31.471Z" fill="#1C989D"/>
  <path d="M32.0153 27.471C31.8076 27.4711 31.6215 27.3427 31.5477 27.1486C31.474 26.9544 31.5279 26.7349 31.6833 26.597L32.4483 25.917L29.8723 27.4C29.6677 27.5174 29.4088 27.4758 29.2513 27.3002C29.0938 27.1245 29.0805 26.8627 29.2193 26.672L30.7023 24.651L28.2813 26.051C28.0923 26.1579 27.856 26.1306 27.6964 25.9835C27.5367 25.8364 27.4902 25.6031 27.5813 25.406L28.1553 24.182C27.9645 24.1931 27.7834 24.0971 27.6853 23.933C27.6187 23.8181 27.6005 23.6814 27.6349 23.553C27.6692 23.4247 27.7532 23.3153 27.8683 23.249L28.9963 22.599C29.1853 22.4921 29.4216 22.5194 29.5813 22.6665C29.7409 22.8136 29.7874 23.047 29.6963 23.244L29.1593 24.39L32.2593 22.599C32.4639 22.4816 32.7228 22.5233 32.8803 22.6989C33.0378 22.8745 33.0512 23.1363 32.9123 23.327L31.4323 25.349L36.2023 22.6C36.4242 22.4738 36.7055 22.5349 36.8549 22.7419C37.0044 22.9488 36.9739 23.2351 36.7843 23.406L36.0223 24.084L37.6133 23.165C37.8213 23.0444 38.0857 23.0888 38.2427 23.2709C38.3998 23.4529 38.4051 23.7209 38.2553 23.909L37.2093 25.225L37.7253 24.925C37.9627 24.8008 38.2559 24.8859 38.3899 25.1178C38.524 25.3498 38.4514 25.6463 38.2253 25.79L35.4253 27.404C35.2173 27.5247 34.9529 27.4802 34.7959 27.2982C34.6388 27.1161 34.6335 26.8481 34.7833 26.66L35.8293 25.346L32.2653 27.4C32.1899 27.4458 32.1035 27.4703 32.0153 27.471Z" fill="#1C989D"/>
  <path d="M54.4555 48.981L43.5555 40.944C47.3995 36.4788 49.583 30.8228 49.7365 24.933C49.1165 2.85896 21.5555 -7.85105 6.56445 8.77496C-8.82755 25.846 6.80645 52.986 29.1465 49.115C32.5669 48.5226 35.8219 47.2081 38.6945 45.259L47.9765 54.513C50.5115 57.04 53.4135 60.996 57.4475 58.663C58.547 58.0752 59.3318 57.0329 59.5927 55.8137C59.8536 54.5945 59.5642 53.3223 58.8015 52.336C57.7225 50.984 55.8175 49.984 54.4555 48.981ZM23.9015 48.474C11.5031 47.6097 1.85155 37.3608 1.73245 24.933C1.71345 11.826 12.8825 0.799955 26.1015 1.52595C38.6475 2.21795 47.9285 12.8 48.2705 25.067C47.9075 38.1 37.4235 49.3 23.9015 48.474ZM55.5355 56.931C54.4275 57.9943 53.5558 58.2013 52.9205 57.552C52.8375 57.518 52.7915 57.386 52.7115 57.344C52.2291 56.9716 51.796 56.5394 51.4225 56.058L46.8015 51.449L39.7955 44.464C40.8352 43.6756 41.8109 42.8063 42.7135 41.864L50.2955 47.453C52.3735 48.985 58.6885 52.201 58.1655 55.399C58.3841 56.805 57.5071 57.3156 55.5345 56.931H55.5355Z" fill="white"/>
  <path d="M25.2824 4.58492C24.7264 4.56592 23.7444 5.38492 24.7204 5.41492C34.2348 5.58737 42.3011 12.4597 43.9824 21.8259C44.9778 27.969 43.0334 34.2231 38.7304 38.7189H38.3014C38.7461 37.9741 38.8982 37.0906 38.7285 36.2399C38.7461 35.7307 38.5321 35.2409 38.1465 34.9079C38.7905 34.2999 38.8064 33.3569 38.7304 32.2449C38.7512 31.7065 38.5115 31.191 38.0864 30.8599C38.7274 30.3319 38.7724 29.5269 38.7234 28.4389C38.7878 27.8466 38.5374 27.2639 38.0634 26.9029C38.7335 26.3699 38.7734 25.5419 38.7234 24.4389C38.6655 23.1269 38.1854 22.6709 36.8934 22.5929C35.2934 22.4929 33.5164 22.3929 31.7934 22.4249C30.3614 20.1609 28.9205 18.4249 26.9934 17.4579H27.7344C28.3414 17.4579 29.2494 16.5419 28.2724 16.5419H26.6474C27.1721 15.2606 27.5255 13.9157 27.6984 12.5419C27.6984 10.5599 22.8694 10.5679 21.5194 10.6499C20.2354 10.7289 16.3194 10.9609 16.2974 12.8169C16.4331 14.1002 16.7576 15.3565 17.2604 16.5449H16.2704C15.6634 16.5449 14.7554 17.4609 15.7324 17.4609H17.1894C16.3841 17.9277 15.6443 18.4994 14.9894 19.1609C8.05845 25.8639 9.64745 35.9819 17.9314 38.7189H11.4934C9.09537 36.3364 7.35491 33.3736 6.44145 30.1189C3.74851 20.0114 9.37214 9.55074 19.2884 6.22192C20.2414 5.88592 19.3754 5.38292 18.7134 5.61692C8.50845 9.21492 2.02445 19.7389 4.99245 30.5049C5.90881 33.7976 7.66162 36.7972 10.0804 39.2119C10.0804 39.2349 10.0934 39.2519 10.1324 39.2629C15.0508 44.1878 22.0993 46.3391 28.9294 44.9999C38.4454 43.0739 45.7805 34.6379 45.7295 24.8069C45.6625 13.3999 36.3475 4.95892 25.2824 4.58492ZM33.6945 31.4579C33.9475 31.4739 34.1594 31.4849 34.3014 31.4849C34.5534 31.4849 34.9015 31.4469 35.2555 31.4169C35.5675 31.4089 35.8778 31.4033 36.1865 31.3999C36.34 31.4067 36.4919 31.4354 36.6375 31.4849C37.2565 31.7369 37.7825 34.1639 36.9375 34.5149H36.4524C35.5374 34.4759 34.6095 34.4949 33.6865 34.5149H31.8594C31.0269 34.4633 30.192 34.4633 29.3594 34.5149C28.7284 34.2539 28.3594 32.3489 28.7454 31.7149C28.8981 31.5468 29.1091 31.4431 29.3354 31.4249C30.7869 31.5126 32.2419 31.5237 33.6945 31.4579ZM28.7465 35.6999C28.8179 35.6052 28.9172 35.5352 29.0304 35.4999C31.5702 35.6311 34.1151 35.6277 36.6544 35.4899C37.2544 35.7899 37.7775 38.1789 36.9435 38.5339H31.8944C31.0575 38.6594 30.2064 38.6594 29.3694 38.5339C28.7334 38.2719 28.3615 36.3419 28.7465 35.6999ZM36.8745 30.5169C35.4225 30.4169 33.9234 30.5169 32.4684 30.5169C31.3971 30.4552 30.3233 30.4496 29.2514 30.4999C28.621 29.6881 28.4276 28.6192 28.7334 27.6379C28.8133 27.533 28.9242 27.456 29.0504 27.4179C31.5324 27.6439 34.1504 27.4109 36.6414 27.4059C37.2414 27.7219 37.7185 29.9649 37.1105 30.5389C37.0325 30.5319 36.9585 30.5209 36.8745 30.5149V30.5169ZM34.2804 23.4089C35.0546 23.2909 35.8423 23.2909 36.6165 23.4089C37.2654 23.6789 37.7724 26.1699 37.0084 26.5949H36.5924C34.199 26.3849 31.7919 26.3849 29.3984 26.5949H29.3864C28.7194 26.3189 28.3324 24.2739 28.7354 23.6519C28.9304 23.3519 29.6984 23.2519 30.6134 23.2439L30.6384 23.2829C30.7814 23.5139 31.3124 23.4509 31.6754 23.2639C32.7494 23.3069 33.8114 23.4069 34.2804 23.4069V23.4089ZM18.0474 13.5609C17.9574 13.2219 17.6474 12.6089 17.8254 12.2709C18.3254 11.3289 21.4724 11.3709 22.2994 11.4149C23.2584 11.4679 25.0264 11.5429 25.7994 12.1449C26.4864 12.6779 26.1304 13.1899 25.9544 13.8559L25.2424 16.5419H18.8374C18.5748 15.5479 18.3114 14.5543 18.0474 13.5609ZM22.2854 38.5999C10.7854 38.0249 8.71845 24.5769 17.3934 18.3349C17.9836 17.9136 18.6531 17.6166 19.3614 17.4619H23.6264C26.5714 17.8849 28.5154 20.0339 30.1414 22.5139C29.7934 22.5429 29.4344 22.5589 29.1014 22.6069C27.0394 22.8999 26.4534 26.1669 28.0224 27.1469C26.9224 28.1469 26.7844 30.2729 27.9484 31.0799C26.8612 32.2043 26.8564 33.9867 27.9374 35.1169C27.0266 36.1032 26.8758 37.5722 27.5674 38.7229H22.6514C22.6014 38.6549 22.4954 38.6059 22.2854 38.5999ZM27.8094 44.4149C22.0614 45.1415 16.2897 43.2597 12.0744 39.2849H20.4234C20.8444 39.3409 21.2724 39.3849 21.7174 39.4079C21.8862 39.4057 22.0521 39.3636 22.2014 39.2849H28.2244C28.4163 39.3827 28.6238 39.4463 28.8375 39.4729C31.4687 39.62 34.1062 39.62 36.7374 39.4729C36.7485 39.4729 36.7614 39.4679 36.7724 39.4669C36.8888 39.476 37.0059 39.4648 37.1185 39.4339C37.2549 39.393 37.3885 39.3433 37.5184 39.2849H38.2015C35.3775 42.0648 31.7339 43.862 27.8094 44.4109V44.4149Z" fill="white"/>
  <path d="M21.9124 32.829C21.7351 32.829 21.5981 32.7017 21.5013 32.4472C21.3337 32.0039 21.0806 31.4795 20.7421 30.8738L19.8861 29.2874C19.6991 29.4893 19.4089 29.7723 19.0156 30.1366C18.9801 30.8168 18.9624 31.4795 18.9624 32.1246C18.9624 32.3221 18.9172 32.4823 18.827 32.6051C18.7399 32.728 18.6271 32.7895 18.4884 32.7895C18.1628 32.7895 18 32.491 18 31.8942C18 31.5299 18.0177 30.9858 18.0532 30.2616C18.0919 29.5331 18.1112 28.9868 18.1112 28.6225C18.1112 27.9554 18.1177 27.194 18.1306 26.3382C18.1467 25.4781 18.1548 24.7189 18.1548 24.0606C18.1548 23.8631 18.1467 23.6305 18.1306 23.3628C18.1177 23.0951 18.1112 22.8625 18.1112 22.665C18.1112 22.4675 18.1548 22.3073 18.2418 22.1844C18.3321 22.0616 18.4465 22.0001 18.5852 22.0001C18.7238 22.0001 18.8366 22.0616 18.9237 22.1844C19.014 22.3073 19.0591 22.4675 19.0591 22.665C19.0591 22.8669 19.0672 23.106 19.0833 23.3825C19.0994 23.6546 19.1075 23.8916 19.1075 24.0935L19.0736 26.2132C19.0575 26.9768 19.0527 27.7404 19.0591 28.504C19.4976 28.0476 19.9199 27.5473 20.3262 27.0031L21.3901 25.5088C21.4965 25.3596 21.611 25.285 21.7335 25.285C21.8592 25.285 21.9721 25.353 22.072 25.4891C22.1752 25.6251 22.2268 25.7831 22.2268 25.963C22.2268 26.1122 22.18 26.2592 22.0865 26.4041C21.69 27.036 21.2015 27.7141 20.6212 28.4382L21.6754 30.3933C22.1687 31.3105 22.4154 31.9074 22.4154 32.1838C22.4154 32.3594 22.3638 32.5108 22.2606 32.6381C22.1607 32.7653 22.0446 32.829 21.9124 32.829Z" fill="white"/>
  <path d="M26.9952 27.6943C26.9726 28.2429 26.8114 28.5172 26.5116 28.5172C26.2343 28.5172 26.0956 28.2999 26.0956 27.8655C26.0956 27.7821 26.0908 27.6285 26.0811 27.4047L26.0666 26.8517C25.5572 26.9351 25.1494 27.1304 24.8431 27.4376C24.5562 27.7228 24.3176 28.1529 24.1274 28.7278L24.137 32.3353C24.137 32.7785 23.9774 33.0001 23.6582 33.0001C23.3745 33.0001 23.2327 32.7785 23.2327 32.3353V27.7141C23.2327 27.5692 23.2359 27.352 23.2423 27.0624C23.252 26.7727 23.2569 26.5555 23.2569 26.4107C23.2569 25.9674 23.3987 25.7458 23.6824 25.7458C23.9984 25.7458 24.158 26.11 24.1612 26.8385C24.7802 26.0267 25.467 25.6207 26.2214 25.6207C26.4825 25.6207 26.6776 25.7546 26.8066 26.0223C26.9355 26.29 27 26.6937 27 27.2335C27 27.4617 26.9984 27.6153 26.9952 27.6943Z" fill="white"/>
</svg>
