<svg width="52" height="52" viewBox="0 0 52 52" fill="none"
    xmlns="http://www.w3.org/2000/svg">
    <path d="M38.8503 36.9087C38.7152 36.9084 38.5936 36.8266 38.5425 36.7015C38.4913 36.5765 38.5208 36.4329 38.617 36.338L39.4976 35.4714L37.2676 36.7567C37.1157 36.841 36.9245 36.7946 36.8283 36.6499C36.732 36.5052 36.7631 36.3109 36.8996 36.2034L38.051 35.3267L35.7383 36.66C35.5831 36.752 35.3829 36.7038 35.2866 36.5514C35.1902 36.3989 35.2326 36.1974 35.3823 36.0967L36.1349 35.5787L34.4016 36.5787C34.2462 36.6658 34.0498 36.6154 33.9557 36.4641C33.8615 36.3129 33.9029 36.1144 34.0496 36.0134L35.2456 35.2134L33.0276 36.494C32.8721 36.5799 32.6767 36.5287 32.5832 36.3778C32.4896 36.2268 32.5309 36.029 32.6769 35.928L35.1176 34.3094L31.5009 36.4C31.3444 36.4891 31.1455 36.4378 31.0516 36.2841C30.9577 36.1304 31.0029 35.9299 31.1536 35.8314L33.0763 34.5894L30.0903 36.3134C29.9338 36.4025 29.7348 36.3511 29.6409 36.1974C29.547 36.0437 29.5922 35.8433 29.7429 35.7447L32.9036 33.7087L29.2296 35.8294C29.0735 35.9269 28.8679 35.8795 28.7703 35.7234C28.6727 35.5673 28.7202 35.3616 28.8763 35.264L36.3563 30.2294L28.5343 34.7467C28.3787 34.8314 28.1841 34.7796 28.0912 34.6288C27.9983 34.4781 28.0394 34.281 28.1849 34.18L34.2756 30.194L27.9536 33.844C27.798 33.9342 27.5989 33.8847 27.5037 33.7321C27.4084 33.5795 27.4515 33.3788 27.6009 33.2787L35.6736 27.8667L27.2323 32.7387C27.0768 32.8245 26.8814 32.7734 26.7878 32.6224C26.6943 32.4715 26.7355 32.2737 26.8816 32.1727L34.2896 27.2827L26.5376 31.758C26.4364 31.8208 26.3094 31.8248 26.2044 31.7685C26.0994 31.7122 26.0325 31.6042 26.0287 31.4852C26.025 31.3661 26.0851 31.2541 26.1863 31.1914L34.0263 26.0047L25.9103 30.6894C25.754 30.7753 25.5578 30.7231 25.465 30.5708C25.3722 30.4186 25.4157 30.2202 25.5636 30.1207L30.9843 26.6354L25.5256 29.7874C25.3691 29.8765 25.1701 29.8251 25.0762 29.6714C24.9824 29.5177 25.0276 29.3173 25.1783 29.2187L31.2383 25.296L25.2009 28.7834C25.0437 28.8793 24.8385 28.8296 24.7426 28.6724C24.6467 28.5152 24.6964 28.31 24.8536 28.214L30.1256 24.822L25.0116 27.7734C24.8552 27.857 24.6607 27.8035 24.5691 27.6516C24.4775 27.4998 24.5208 27.3028 24.6676 27.2034L27.1236 25.6527L24.8769 26.9487C24.7212 27.0358 24.5244 26.9848 24.4306 26.833C24.3368 26.6811 24.3793 26.4823 24.5269 26.382L31.4676 21.792L24.8843 25.592C24.7277 25.6796 24.5299 25.6275 24.4368 25.4742C24.3436 25.3209 24.3885 25.1214 24.5383 25.0227L27.7383 22.976L25.0296 24.5394C24.8726 24.6355 24.6674 24.5861 24.5713 24.429C24.4752 24.272 24.5246 24.0668 24.6816 23.9707L28.5823 21.4407L25.2209 23.38C25.0654 23.4647 24.8708 23.4129 24.7779 23.2622C24.6849 23.1114 24.7261 22.9143 24.8716 22.8134L29.4116 19.8347L25.6289 22.018C25.4747 22.1023 25.2816 22.0523 25.1876 21.9039C25.0936 21.7554 25.1309 21.5595 25.2729 21.456L30.6889 17.7087L26.3223 20.2294C26.1675 20.3154 25.9725 20.2655 25.8782 20.1157C25.7839 19.9658 25.8231 19.7684 25.9676 19.666L28.4756 17.9474L27.0549 18.7667C26.9005 18.8518 26.7065 18.8018 26.6123 18.6527C26.5181 18.5036 26.5564 18.307 26.6996 18.204L27.6409 17.556C27.5005 17.5599 27.3727 17.4752 27.3215 17.3444C27.2702 17.2135 27.3066 17.0646 27.4123 16.972L29.7076 14.9627C29.6648 14.9487 29.6253 14.926 29.5916 14.896C29.484 14.8015 29.4489 14.6488 29.5043 14.5167L29.7896 13.836C29.7511 13.8084 29.7189 13.773 29.6949 13.732C29.6506 13.6553 29.6386 13.5641 29.6616 13.4786C29.6846 13.393 29.7408 13.3201 29.8176 13.276L30.1856 13.064C30.3096 12.9924 30.4655 13.0079 30.5729 13.1026C30.6803 13.1973 30.7152 13.3501 30.6596 13.482L30.5003 13.8634L31.8896 13.0634C32.0378 12.98 32.225 13.0215 32.324 13.1597C32.423 13.2979 32.4022 13.4885 32.2756 13.602L30.4089 15.236L34.1796 13.0594C34.3346 12.9708 34.5318 13.02 34.627 13.1709C34.7222 13.3219 34.6816 13.521 34.5349 13.6227L34.009 13.9847L35.6163 13.0567C35.771 12.9706 35.966 13.0206 36.0604 13.1704C36.1547 13.3203 36.1154 13.5177 35.971 13.62L33.4629 15.3387L37.4223 13.0534C37.5769 12.966 37.7729 13.0153 37.8679 13.1654C37.9628 13.3155 37.9234 13.5137 37.7783 13.616L32.3629 17.3627L39.2063 13.412C39.3624 13.3233 39.5607 13.3741 39.6549 13.527C39.749 13.6799 39.7051 13.8799 39.5556 13.9794L35.0163 16.9567L39.4009 14.426C39.5571 14.3388 39.7543 14.3904 39.8478 14.5429C39.9412 14.6954 39.8976 14.8945 39.749 14.994L35.8423 17.5274L40.037 15.106C40.1935 15.0185 40.3913 15.0706 40.4844 15.2239C40.5776 15.3772 40.5328 15.5767 40.383 15.6754L37.1883 17.7194L40.6229 15.7334C40.7782 15.6498 40.9718 15.7015 41.0645 15.8515C41.1573 16.0015 41.1171 16.1978 40.9729 16.2994L34.0396 20.8854L41.323 16.68C41.4805 16.5849 41.6854 16.6355 41.7806 16.793C41.8758 16.9506 41.8252 17.1555 41.6676 17.2507L39.2009 18.808L41.7676 17.326C41.9248 17.2301 42.13 17.2798 42.226 17.437C42.3219 17.5943 42.2722 17.7995 42.115 17.8954L36.8483 21.2847L42.2676 18.1587C42.3692 18.0965 42.4962 18.0933 42.6009 18.1502C42.7055 18.2071 42.7718 18.3155 42.7749 18.4345C42.7779 18.5536 42.7172 18.6652 42.6156 18.7274L36.5583 22.648L42.7416 19.0774C42.8988 18.9815 43.104 19.0312 43.2 19.1884C43.2959 19.3456 43.2462 19.5508 43.089 19.6467L37.657 23.138L43.161 19.9607C43.2622 19.8979 43.3892 19.894 43.4942 19.9502C43.5991 20.0065 43.6661 20.1145 43.6698 20.2336C43.6736 20.3526 43.6135 20.4646 43.5123 20.5274L35.6743 25.7127L43.601 21.138C43.757 21.0476 43.9567 21.0976 44.0516 21.251C44.1465 21.4044 44.1022 21.6054 43.9516 21.7047L36.5423 26.5947L43.961 22.3114C44.1161 22.2255 44.3113 22.276 44.4052 22.4264C44.4991 22.5768 44.4589 22.7744 44.3136 22.876L36.2369 28.2907L44.2756 23.65C44.4312 23.5654 44.6258 23.6172 44.7187 23.7679C44.8116 23.9187 44.7705 24.1158 44.625 24.2167L38.5383 28.2L44.401 24.816C44.5561 24.7301 44.7513 24.7807 44.8452 24.9311C44.9391 25.0814 44.8989 25.279 44.7536 25.3807L37.2709 30.4174L44.4243 26.288C44.58 26.2055 44.773 26.2585 44.8648 26.4089C44.9567 26.5594 44.9155 26.7553 44.771 26.856L41.6203 28.8867L44.3116 27.3334C44.4681 27.2443 44.6671 27.2956 44.761 27.4493C44.8549 27.603 44.8097 27.8035 44.659 27.902L42.7256 29.1507L44.0923 28.362C44.2481 28.2719 44.4473 28.3218 44.5423 28.4747C44.6375 28.628 44.5935 28.8292 44.443 28.9287L42.0103 30.542L43.6883 29.5727C43.8446 29.4753 44.0502 29.5231 44.1476 29.6794C44.245 29.8357 44.1972 30.0413 44.041 30.1387L42.841 30.9427L43.017 30.8414C43.1716 30.754 43.3676 30.8033 43.4625 30.9534C43.5575 31.1035 43.5181 31.3017 43.3729 31.404L42.3863 32.084C42.5368 32.0612 42.6837 32.1434 42.7431 32.2836C42.8025 32.4238 42.7594 32.5864 42.6383 32.6787L41.4676 33.5674C41.615 33.5072 41.7843 33.5596 41.8719 33.6925C41.9595 33.8254 41.941 34.0016 41.8276 34.1134L40.7043 35.2194C40.8393 35.2479 40.9428 35.3567 40.9645 35.493C40.9863 35.6293 40.9218 35.7649 40.8023 35.834L39.0169 36.8667C38.9662 36.8954 38.9086 36.9099 38.8503 36.9087Z" fill="#BE9468"/>
    <path d="M24.8322 36.9868C24.6818 36.9863 24.5504 36.8851 24.5114 36.7398C24.4724 36.5946 24.5356 36.4412 24.6655 36.3655L30.6589 32.9048C30.8113 32.8122 31.0096 32.856 31.1089 33.0042C31.2081 33.1524 31.1732 33.3524 31.0295 33.4581L30.5075 33.8581L31.8329 33.0935C31.9764 33.0115 32.1583 33.0471 32.2603 33.177C32.3624 33.307 32.3539 33.4922 32.2402 33.6121L30.7235 35.2001L33.8155 33.4148C33.9627 33.3267 34.1527 33.3647 34.2547 33.5026C34.3567 33.6404 34.3374 33.8332 34.2102 33.9481L33.1709 34.9241L35.1629 33.7735C35.3054 33.6916 35.4862 33.7258 35.589 33.854C35.6918 33.9823 35.6858 34.1662 35.5749 34.2875L34.6635 35.2795L35.7442 34.6555C35.9035 34.5649 36.106 34.6199 36.1976 34.7786C36.2893 34.9373 36.2356 35.1401 36.0775 35.2328L33.1129 36.9441C32.9706 37.025 32.7906 36.9907 32.6882 36.863C32.5857 36.7354 32.5911 36.5522 32.7009 36.4308L33.6115 35.4388L31.0022 36.9421C30.8551 37.0302 30.6651 36.9922 30.5631 36.8544C30.4611 36.7165 30.4803 36.5238 30.6075 36.4088L31.6475 35.4321L29.0362 36.9401C28.8926 37.0231 28.7099 36.9879 28.6074 36.8576C28.5049 36.7273 28.5138 36.5415 28.6282 36.4215L30.1455 34.8348L26.4989 36.9401C26.3468 37.0294 26.1516 36.9847 26.0534 36.8383C25.9552 36.6919 25.988 36.4943 26.1282 36.3875L26.6522 35.9841L25.0022 36.9421C24.9506 36.9722 24.8919 36.9876 24.8322 36.9868Z" fill="#F0BF93"/>
    <path d="M28.7623 45.614C28.6159 45.6139 28.4867 45.5183 28.4438 45.3783C28.401 45.2383 28.4544 45.0867 28.5756 45.0046L31.055 43.3333L27.6423 45.3033C27.4868 45.3891 27.2914 45.338 27.1978 45.187C27.1043 45.0361 27.1456 44.8383 27.2916 44.7373L36.0396 38.9373L25.8556 44.8173C25.6986 44.9053 25.5001 44.8527 25.4072 44.6986C25.3143 44.5445 25.3605 44.3444 25.5116 44.2466L30.5943 41.0406L24.6276 44.4846C24.4707 44.5766 24.269 44.5258 24.1744 44.3704C24.0798 44.215 24.1272 44.0125 24.281 43.9153L32.2596 38.7866L23.1023 44.0726C22.9503 44.1587 22.7576 44.1127 22.6607 43.9674C22.5639 43.822 22.5957 43.6265 22.7336 43.5193L24.5756 42.1086L21.7896 43.7173C21.6364 43.8059 21.4406 43.7592 21.3438 43.6109C21.247 43.4627 21.2829 43.2647 21.4256 43.16L22.813 42.1433L20.6296 43.4033C20.4778 43.4887 20.2858 43.4429 20.189 43.298C20.0922 43.1532 20.1233 42.9582 20.2603 42.8506L22.6776 40.9973L19.1863 43.0126C19.0317 43.1013 18.8347 43.0528 18.7391 42.9024C18.6435 42.752 18.6831 42.553 18.829 42.4506L19.6016 41.9133L18.1736 42.7373C18.0202 42.8233 17.8263 42.7753 17.7308 42.6276C17.6352 42.4799 17.6709 42.2833 17.8123 42.1786L19.721 40.8066L16.9496 42.4066C16.7949 42.4927 16.5999 42.4428 16.5055 42.2929C16.4112 42.1431 16.4505 41.9456 16.595 41.8433L17.2496 41.3953L15.961 42.1393C15.8044 42.2268 15.6066 42.1747 15.5135 42.0215C15.4203 41.8682 15.4652 41.6686 15.615 41.57L16.309 41.128L15.0016 41.88C14.8473 41.9631 14.655 41.9126 14.5615 41.7643C14.4681 41.616 14.5054 41.4207 14.647 41.3173L20.4583 37.338L12.9703 41.662C12.8148 41.7466 12.6202 41.6949 12.5272 41.5441C12.4343 41.3934 12.4755 41.1963 12.621 41.0953L16.3843 38.6286L12.8543 40.6666C12.6993 40.7538 12.5031 40.7039 12.4086 40.5533C12.314 40.4027 12.3544 40.2043 12.5003 40.1026L17.0056 37.0413L12.853 39.4413C12.6994 39.5295 12.5036 39.4821 12.4073 39.3335C12.311 39.1848 12.3477 38.9868 12.491 38.8826L17.2376 35.4573L12.8523 37.9906C12.6976 38.078 12.5017 38.0287 12.4067 37.8786C12.3118 37.7285 12.3512 37.5303 12.4963 37.428L14.4016 36.104L12.8516 37C12.7005 37.085 12.5095 37.0399 12.4123 36.8964C12.315 36.7529 12.344 36.5588 12.479 36.45L15.5596 34.0266L12.851 35.59C12.7136 35.6689 12.5396 35.6402 12.4349 35.5214C12.3301 35.4026 12.3234 35.2264 12.419 35.1L13.4016 33.8L13.1696 33.9333C13.0663 33.999 12.9353 34.0027 12.8284 33.9431C12.7214 33.8834 12.6559 33.7699 12.6575 33.6475C12.6592 33.5251 12.7278 33.4134 12.8363 33.3566L14.4963 32.4C14.6336 32.3209 14.8075 32.3494 14.9124 32.468C15.0173 32.5867 15.0242 32.7628 14.929 32.8893L13.943 34.1926L19.2583 31.126C19.4094 31.041 19.6004 31.086 19.6977 31.2295C19.7949 31.373 19.7659 31.5671 19.631 31.676L16.5516 34.0986L21.2496 31.386C21.4043 31.2986 21.6003 31.3479 21.6952 31.498C21.7902 31.6481 21.7508 31.8463 21.6056 31.9486L19.6983 33.2653L22.5796 31.5986C22.7332 31.5105 22.929 31.5578 23.0253 31.7065C23.1216 31.8551 23.0849 32.0531 22.9416 32.1573L18.1943 35.584L24.5463 31.9173C24.7015 31.8272 24.9002 31.8762 24.9958 32.0282C25.0913 32.1801 25.0494 32.3804 24.901 32.4813L20.4016 35.54L26.213 32.1846C26.3691 32.0959 26.5674 32.1467 26.6616 32.2996C26.7557 32.4525 26.7118 32.6525 26.5623 32.752L22.7963 35.2186L27.653 32.4186C27.8077 32.3326 28.0027 32.3825 28.0971 32.5324C28.1914 32.6822 28.1521 32.8796 28.0076 32.982L22.1916 36.96L29.535 32.7226C29.6913 32.6379 29.8866 32.6908 29.9788 32.8428C30.071 32.9949 30.0277 33.1925 29.8803 33.292L24.8556 36.486C24.8819 36.5083 24.9044 36.5346 24.9223 36.564C25.0177 36.7156 24.9762 36.9155 24.8283 37.0166L24.1703 37.4666L25.1703 36.888C25.3242 36.7988 25.521 36.8461 25.6175 36.9955C25.714 37.1449 25.6762 37.3437 25.5316 37.4473L23.6236 38.818L26.0363 37.426C26.1904 37.3406 26.3844 37.39 26.479 37.5386C26.5736 37.6872 26.5362 37.8838 26.3936 37.9873L25.6216 38.526L26.755 37.872C26.9068 37.7865 27.0988 37.8324 27.1956 37.9773C27.2924 38.1221 27.2613 38.3171 27.1243 38.4246L24.707 40.278L27.7736 38.5066C27.9269 38.4181 28.1227 38.4648 28.2195 38.613C28.3163 38.7612 28.2803 38.9592 28.1376 39.064L26.7563 40.08L28.6823 38.9686C28.8343 38.8826 29.027 38.9286 29.1239 39.0739C29.2207 39.2193 29.1889 39.4148 29.051 39.522L27.209 40.9333L43.9856 31.2466C44.1426 31.1547 44.3443 31.2055 44.4389 31.3609C44.5335 31.5162 44.4861 31.7188 44.3323 31.816L36.3516 36.9493L44.979 31.9666C45.136 31.8787 45.3345 31.9312 45.4274 32.0854C45.5203 32.2395 45.4741 32.4395 45.323 32.5373L40.241 35.7433L45.0743 32.9533C45.23 32.8647 45.4279 32.9151 45.5223 33.0673C45.6168 33.2194 45.5741 33.4191 45.4256 33.5193L36.6776 39.316L38.991 37.9826C39.1458 37.8978 39.3399 37.9483 39.4337 38.098C39.5274 38.2476 39.4882 38.4444 39.3443 38.5466L33.7043 42.3506C33.7193 42.3676 33.7325 42.3862 33.7436 42.406C33.8358 42.5652 33.7815 42.769 33.6223 42.8613L28.929 45.5713C28.8781 45.5999 28.8206 45.6146 28.7623 45.614Z" fill="#F0BF93"/>
    <path d="M34.6476 12.98C34.5041 12.98 34.3767 12.8882 34.3314 12.7521C34.286 12.616 34.3328 12.4661 34.4476 12.38L35.5903 11.5007L33.1056 12.9334C32.9554 13.0177 32.7657 12.9737 32.6679 12.8319C32.5702 12.69 32.5966 12.497 32.7289 12.3867L35.9149 9.79472L30.4776 12.9334C30.3262 13.0206 30.1331 12.9761 30.0352 12.8313C29.9373 12.6866 29.9677 12.4909 30.1049 12.3827L33.6223 9.62938L30.5109 11.4294C30.3606 11.5181 30.1674 11.4758 30.0678 11.3325C29.9682 11.1892 29.996 10.9933 30.1316 10.8834L32.3849 9.02005L30.1536 10.3067C30.0066 10.3921 29.8189 10.3531 29.7179 10.2163C29.617 10.0795 29.6353 9.88862 29.7603 9.77338L31.1116 8.51872L29.8216 9.26672C29.6975 9.33814 29.5417 9.32236 29.4345 9.22751C29.3272 9.13266 29.2925 8.97992 29.3483 8.84805L29.6703 8.09338L29.5629 8.15472C29.4596 8.2204 29.3286 8.22415 29.2217 8.16448C29.1148 8.10481 29.0492 7.99133 29.0508 7.8689C29.0525 7.74647 29.1211 7.6348 29.2296 7.57805L30.2036 7.01472C30.3278 6.943 30.484 6.95877 30.5913 7.05388C30.6987 7.14899 30.7332 7.3021 30.6769 7.43405L30.3543 8.18672L33.3369 6.46672C33.484 6.38133 33.6717 6.42028 33.7726 6.55712C33.8735 6.69395 33.8553 6.88481 33.7303 7.00005L32.3803 8.25138L35.4943 6.45138C35.6443 6.36483 35.8356 6.40758 35.9345 6.54976C36.0334 6.69194 36.0069 6.88617 35.8736 6.99672L33.6209 8.86205L37.3883 6.68672C37.5397 6.59952 37.7327 6.64405 37.8307 6.78875C37.9286 6.93346 37.8982 7.12923 37.7609 7.23738L34.2423 9.99138L39.1976 7.13338C39.3481 7.04709 39.5396 7.09067 39.638 7.23359C39.7363 7.3765 39.7086 7.57097 39.5743 7.68072L36.3889 10.2667L39.6069 8.40938C39.7589 8.32217 39.9524 8.36745 40.0499 8.51304C40.1473 8.65862 40.1155 8.8548 39.9769 8.96205L38.8336 9.84538L39.2263 9.61872C39.3698 9.53675 39.5517 9.57231 39.6537 9.70228C39.7558 9.83226 39.7472 10.0174 39.6336 10.1374L38.6243 11.1934L38.7523 11.12C38.8669 11.0542 39.0096 11.0623 39.1161 11.1407C39.2225 11.2191 39.2726 11.353 39.2436 11.482L39.1103 12.0667C39.2524 12.0843 39.3674 12.1907 39.396 12.3311C39.4245 12.4714 39.3602 12.6143 39.2363 12.686L38.8036 12.9334C38.6889 12.9994 38.5459 12.9913 38.4394 12.9127C38.3329 12.834 38.283 12.6998 38.3123 12.5707L38.4243 12.076L36.9403 12.9334C36.7968 13.0153 36.6149 12.9798 36.5128 12.8498C36.4107 12.7198 36.4193 12.5347 36.5329 12.4147L37.5429 11.36L34.8143 12.9334C34.7639 12.9635 34.7063 12.9797 34.6476 12.98Z" fill="#BE9468"/>
    <path d="M34.5348 14.9808C34.3953 14.981 34.2704 14.8944 34.2218 14.7637C34.1731 14.6329 34.211 14.4858 34.3168 14.3948L34.6941 14.0694L33.1928 14.9361C33.0485 15.0183 32.8658 14.9818 32.7641 14.8505C32.6625 14.7192 32.673 14.5331 32.7888 14.4141L33.6514 13.5381L31.2288 14.9381C31.0882 15.0184 30.9103 14.9862 30.8069 14.8616C30.7035 14.737 30.7046 14.5561 30.8094 14.4328L31.7914 13.2908L29.1148 14.8314C28.9721 14.9124 28.7917 14.8774 28.6895 14.749C28.5874 14.6206 28.5939 14.437 28.7048 14.3161L29.5348 13.4261L28.3234 14.1248C28.1907 14.201 28.0231 14.1769 27.9171 14.0665C27.8111 13.9561 27.7939 13.7877 27.8754 13.6581L28.3068 12.9774C28.1451 13.023 27.9748 12.941 27.9094 12.7863C27.844 12.6315 27.9041 12.4523 28.0494 12.3681L29.1341 11.7414C29.2669 11.6646 29.435 11.6884 29.5413 11.799C29.6477 11.9095 29.6648 12.0784 29.5828 12.2081L29.1628 12.8708L31.1348 11.7334C31.2775 11.6525 31.4579 11.6875 31.56 11.8159C31.6621 11.9443 31.6557 12.1279 31.5448 12.2488L30.7148 13.1381L33.1521 11.7334C33.2926 11.654 33.4699 11.6866 33.5729 11.8109C33.6759 11.9352 33.675 12.1155 33.5708 12.2388L32.5894 13.3814L35.4448 11.7334C35.589 11.6513 35.7718 11.6877 35.8734 11.819C35.975 11.9503 35.9645 12.1364 35.8488 12.2554L34.9868 13.1314L37.4088 11.7314C37.5576 11.646 37.747 11.6874 37.8464 11.8272C37.9459 11.9671 37.923 12.1596 37.7934 12.2721L37.4161 12.5974L38.9174 11.7308C39.0537 11.6524 39.2263 11.6799 39.3314 11.7968C39.4366 11.9137 39.4457 12.0882 39.3534 12.2154L38.3654 13.5701L40.7701 12.1814C40.9059 12.1026 41.0784 12.1292 41.1841 12.2453C41.2898 12.3615 41.3001 12.5357 41.2088 12.6634L40.5481 13.5914L41.0814 13.2821C41.1848 13.2164 41.3158 13.2127 41.4227 13.2724C41.5296 13.332 41.5952 13.4455 41.5936 13.5679C41.5919 13.6904 41.5233 13.802 41.4148 13.8588L39.5548 14.9334C39.4192 15.011 39.2479 14.984 39.1427 14.8685C39.0376 14.7529 39.0268 14.5798 39.1168 14.4521L39.7768 13.5241L37.3348 14.9334C37.1985 15.0118 37.0259 14.9843 36.9208 14.8674C36.8156 14.7505 36.8065 14.5761 36.8988 14.4488L37.8868 13.0941L34.6994 14.9334C34.6497 14.9635 34.5929 14.9798 34.5348 14.9808Z" fill="#82624B"/>
    <path d="M9.35169 43.6474C9.21496 43.6472 9.09221 43.5635 9.04207 43.4363C8.99192 43.3091 9.02454 43.1642 9.12436 43.0707L10.991 41.3207L7.44903 43.3641C7.29532 43.4509 7.10055 43.4029 7.00488 43.2545C6.9092 43.1061 6.94581 42.9089 7.08836 42.8047L7.64036 42.4081L6.99036 42.7834C6.83985 42.8697 6.64832 42.8261 6.54997 42.6832C6.45161 42.5403 6.47933 42.3458 6.61369 42.2361L9.84769 39.6101L6.85636 41.3367C6.70505 41.4222 6.51346 41.3771 6.41617 41.2331C6.31889 41.0891 6.34857 40.8945 6.48436 40.7861L9.40836 38.4927L6.85569 39.9661C6.70131 40.0523 6.50642 40.003 6.41165 39.8537C6.31689 39.7044 6.35524 39.507 6.49903 39.4041L6.75969 39.2234C6.60726 39.2566 6.45221 39.1796 6.3865 39.0381C6.3208 38.8966 6.36201 38.7285 6.48569 38.6334L9.16036 36.5667L6.85569 37.9001C6.70427 37.9873 6.51122 37.9427 6.41329 37.798C6.31536 37.6533 6.34579 37.4576 6.48303 37.3494L9.43369 35.0207L6.85569 36.5094C6.70266 36.5971 6.50782 36.5503 6.41118 36.4028C6.31453 36.2553 6.34953 36.058 6.49103 35.9527L7.82436 34.9714L6.85769 35.5294C6.70777 35.6144 6.51774 35.5712 6.41943 35.4296C6.32112 35.288 6.34696 35.0948 6.47903 34.9841L8.09969 33.6467L6.85569 34.3641C6.70577 34.4491 6.51574 34.4058 6.41743 34.2643C6.31912 34.1227 6.34496 33.9295 6.47703 33.8187L6.75836 33.5867C6.64397 33.6099 6.52571 33.5724 6.44569 33.4874C6.34001 33.374 6.32648 33.2027 6.41303 33.0741L6.92169 32.3201C6.76612 32.3347 6.62125 32.2393 6.57323 32.0906C6.52521 31.9419 6.58693 31.7798 6.72169 31.7007L7.80636 31.0741C7.94066 30.9972 8.11024 31.0228 8.21579 31.136C8.32135 31.2492 8.33511 31.4201 8.24903 31.5487L7.77703 32.2494L9.82569 31.0667C9.97571 30.9802 10.167 31.0229 10.2659 31.1651C10.3648 31.3073 10.3384 31.5015 10.205 31.6121L9.99769 31.7827L11.239 31.0667C11.3889 30.9817 11.579 31.025 11.6773 31.1666C11.7756 31.3081 11.7498 31.5013 11.6177 31.6121L9.99569 32.9467L12.6624 31.4074C12.8154 31.3197 13.0102 31.3665 13.1069 31.514C13.2035 31.6615 13.1685 31.8588 13.027 31.9641L11.6937 32.9461L13.0844 32.1461C13.2356 32.0594 13.428 32.1039 13.5259 32.2481C13.6237 32.3923 13.594 32.5875 13.4577 32.6961L10.509 35.0214L13.1497 33.4974C13.3013 33.4125 13.4927 33.4583 13.5894 33.6026C13.6862 33.747 13.6558 33.9414 13.5197 34.0494L10.8437 36.1161L13.1504 34.7827C13.3047 34.6965 13.4996 34.7458 13.5944 34.8951C13.6892 35.0444 13.6508 35.2418 13.507 35.3447L13.2464 35.5254C13.3793 35.4987 13.5155 35.5534 13.593 35.6647C13.6912 35.8098 13.6603 36.0061 13.5224 36.1141L10.603 38.4061L13.1504 36.9334C13.3009 36.8471 13.4924 36.8907 13.5908 37.0336C13.6891 37.1765 13.6614 37.371 13.527 37.4807L10.293 40.1067L13.1504 38.4581C13.3037 38.3739 13.4959 38.4226 13.5908 38.5695C13.6856 38.7164 13.6508 38.9117 13.511 39.0167L12.961 39.4121L13.1504 39.3027C13.2974 39.216 13.4863 39.2545 13.5877 39.3918C13.6892 39.5292 13.6704 39.7209 13.5444 39.8361L11.681 41.5841L13.1477 40.7361C13.2877 40.6555 13.4653 40.687 13.5692 40.8107C13.673 40.9344 13.6733 41.1148 13.5697 41.2387L12.863 42.0827L13.0804 41.9581C13.1837 41.8924 13.3147 41.8886 13.4216 41.9483C13.5285 42.008 13.5941 42.1215 13.5925 42.2439C13.5908 42.3663 13.5222 42.478 13.4137 42.5347L11.5684 43.6001C11.4284 43.681 11.2504 43.6498 11.1464 43.5261C11.0423 43.4021 11.0423 43.2213 11.1464 43.0974L11.8524 42.2541L9.51903 43.6007C9.46848 43.6311 9.41066 43.6472 9.35169 43.6474Z" fill="#346D94"/>
    <path d="M7.09334 43.4414C8.31267 44.0027 10.3447 43.5987 11.6853 43.5747C11.7656 43.5836 11.8468 43.5787 11.9253 43.5601C13.106 43.3214 13.5807 42.7881 13.7467 41.8354C15.1147 41.7407 16.7853 42.5114 18.0133 42.8441L24.726 44.6601C27.1107 45.3054 29.038 46.1714 31.2593 44.6661C34.536 42.4434 37.622 39.8661 40.7827 37.4827C42.362 36.2914 46.1793 34.5494 45.6493 32.1587C45.6509 32.1361 45.6475 32.1133 45.6393 32.0921V32.0854C45.6393 32.0787 45.632 32.0761 45.6293 32.0694C45.62 32.0514 45.62 32.0327 45.602 32.0147C45.5967 32.0087 45.59 32.0047 45.584 31.9987C45.57 31.9823 45.5538 31.9677 45.536 31.9554C44.9903 31.4719 44.2544 31.2627 43.536 31.3867C46.2753 26.6667 45.0573 21.0267 41.9353 16.6721C41.5112 15.9706 40.9648 15.3508 40.322 14.8421C41.4387 14.4374 42.468 13.3754 41.36 12.2281C40.7898 11.7742 40.0552 11.5804 39.3353 11.6941C39.7567 10.5754 40.5313 9.08207 40.4687 8.02741C40.3613 6.28407 35.892 6.29807 34.7087 6.30341C33.5653 6.30807 29.4187 6.31341 28.8993 7.77007C28.566 8.70807 29.4733 10.5107 29.9373 11.6587C29.7573 11.6794 29.5747 11.6934 29.3973 11.7201C28.282 11.8887 26.982 12.8587 27.7013 14.1381C28.0152 14.6465 28.5747 14.9508 29.172 14.9381C28.4247 15.3954 27.768 16.2094 26.8527 17.6587C24.0013 22.1761 23.146 27.6067 26.186 32.0854C26.136 32.0787 26.086 32.0721 26.0433 32.0654C24.078 31.7474 22.0733 31.2654 20.0867 31.1021C17.734 30.9021 15.8867 31.7807 13.8293 32.6954C13.7972 32.0513 13.4102 31.4784 12.8247 31.2081C11.65 30.7021 9.366 30.9541 8.13934 31.1034C6.82 31.2641 6.25867 31.9701 6.186 33.2521C6.068 35.3187 6.186 37.4287 6.186 39.5001C6.186 40.6794 5.73867 42.8181 7.09334 43.4414ZM30.276 9.34807C29.868 8.06607 29.7427 7.77074 31.2053 7.43407C33.5209 6.90332 35.929 6.92616 38.234 7.50074C39.9073 7.91007 39.3247 8.65207 38.9007 9.99341C38.7027 10.443 38.553 10.9123 38.454 11.3934C38.4453 11.5101 38.436 11.5887 38.4267 11.6521C37.686 11.7107 36.8867 11.6347 36.16 11.6347H36.0027C34.3313 11.5271 32.6556 11.5044 30.982 11.5667L30.276 9.34807ZM28.8347 12.7821C29.1827 12.4271 29.6488 12.2122 30.1447 12.1781C30.2304 12.3125 30.3868 12.3845 30.5447 12.3621H30.5567H38.7013C38.8177 12.355 38.9303 12.3178 39.028 12.2541C39.1984 12.2398 39.37 12.2503 39.5373 12.2854C40.3947 12.5107 41.8087 13.8361 40.0247 14.3787H39.04C38.9827 14.3694 38.9347 14.3561 38.874 14.3481C37.0573 14.1087 35.046 14.3481 33.2133 14.3481C32.4453 14.3481 31.8133 14.3481 31.2687 14.3847C29.5353 14.2787 27.9573 13.9067 28.8347 12.7821ZM27.4813 18.1821C28.4053 16.6254 29.028 15.3061 30.4633 14.9867C30.5213 14.9734 30.584 14.9674 30.644 14.9567C31.5733 14.9614 32.5027 14.9607 33.432 14.9607C33.6833 14.9754 33.9293 14.9867 34.1607 14.9867C34.5607 14.9867 34.9653 14.9754 35.374 14.9627H37.574C37.746 14.9714 37.92 14.9741 38.09 14.9901C39.5273 15.1234 39.7227 15.3521 40.7433 16.6841C44.0487 20.9994 45.41 26.8514 42.4347 31.6374C40.342 32.3094 37.934 34.0867 36.3767 35.1134C35.9007 32.9354 30.366 32.4727 27.4587 32.2167C24.1873 27.9187 24.8153 22.6714 27.4813 18.1794V18.1821ZM16.4473 32.2221C17.7529 31.8102 19.1312 31.6806 20.4907 31.8421C22.5827 32.0547 24.6793 32.4567 26.7647 32.8334C26.8534 32.8787 26.9538 32.8961 27.0527 32.8834C27.642 32.9887 28.23 33.0934 28.8167 33.1887C30.0367 33.3887 35.8353 33.6467 35.4093 35.8294C35.3214 36.0511 35.1554 36.233 34.9427 36.3407C34.8262 36.3809 34.7027 36.3961 34.58 36.3854C34.5535 36.3736 34.5254 36.3657 34.4967 36.3621H24.7467C24.6409 36.3727 24.5375 36.3997 24.44 36.4421L22.2013 36.4354C21.894 36.4354 21.1587 36.8947 21.8013 36.8961L24.1627 36.9027C24.1733 36.9107 24.176 36.9187 24.1887 36.9267C25.7413 37.8907 28.0107 40.1334 29.9633 39.4541C30.0136 39.4356 30.0616 39.4117 30.1067 39.3827C30.1376 39.3747 30.1678 39.3638 30.1967 39.3501L34.4633 36.9414C35.2047 36.9353 35.8903 36.5468 36.2767 35.9141C37.7047 35.0761 43.2 30.9967 44.6767 32.3947C45.096 34.2674 42.0313 35.7121 40.864 36.5947L34.1013 41.6967C32.6573 42.7854 31.1473 44.4121 29.3473 44.7467C27.3147 45.1247 24.8973 43.9674 22.932 43.4354C20.5473 42.7901 18.1707 42.0921 15.7733 41.4987C15.342 41.3921 14.8853 41.3107 14.4587 41.1967C13.9747 41.0674 13.8447 41.2461 13.8173 41.1967V41.1821C13.908 39.1154 13.8173 37.0274 13.8173 34.9594C13.8173 34.4987 13.8747 33.9467 13.8747 33.4041C14.08 33.3109 14.2779 33.2022 14.4667 33.0787C15.0989 32.7324 15.762 32.4456 16.4473 32.2221ZM29.7353 38.9047C28.6647 39.1867 26.9447 37.8694 25.75 36.9827H33.1387L29.7353 38.9047ZM7.512 32.0667C8.17334 31.2467 10.4667 31.3814 11.5493 31.5687C12.596 31.7494 12.8233 32.4354 12.8607 33.2354C12.8513 33.2521 12.8452 33.2704 12.8427 33.2894C12.8427 36.0699 12.8449 38.8505 12.8493 41.6314C12.8524 41.668 12.8651 41.7032 12.886 41.7334C12.742 42.4767 12.498 42.9961 12.1047 43.0961C10.8902 43.2001 9.66911 43.2001 8.45467 43.0961C6.872 42.8227 7.15134 41.4414 7.15134 40.2341V35.6001C7.15134 34.5461 6.82067 32.9267 7.512 32.0667Z" fill="#0F474A"/>
    <path d="M9.14299 34.2507H10.4763C10.716 34.2645 10.9498 34.1729 11.1163 34C11.2343 33.814 11.015 33.7527 10.8643 33.7527H9.53099C9.29078 33.7397 9.05693 33.8325 8.89099 34.0067C8.77299 34.1893 8.99232 34.2507 9.14299 34.2507Z" fill="#0F474A"/>
    <path d="M10.8681 40.4355H9.53478C9.29579 40.4253 9.06321 40.5143 8.89211 40.6815C8.77678 40.8628 8.99211 40.8982 9.13611 40.8982H10.4694C10.7084 40.9084 10.941 40.8193 11.1121 40.6522C11.2268 40.4708 11.0114 40.4355 10.8681 40.4355Z" fill="#0F474A"/>
    <path d="M35.0151 29.8236C34.8181 29.8236 34.6658 29.6925 34.5584 29.4302C34.3721 28.9736 34.0909 28.4332 33.7147 27.8093L32.7636 26.1747C32.5558 26.3827 32.2334 26.6743 31.7964 27.0496C31.757 27.7505 31.7373 28.4332 31.7373 29.0979C31.7373 29.3014 31.6871 29.4664 31.5868 29.593C31.4901 29.7196 31.3647 29.7829 31.2107 29.7829C30.8489 29.7829 30.668 29.4755 30.668 28.8605C30.668 28.4852 30.6877 27.9246 30.7271 27.1785C30.7701 26.4279 30.7916 25.865 30.7916 25.4897C30.7916 24.8024 30.7987 24.0179 30.8131 23.1362C30.831 22.25 30.8399 21.4677 30.8399 20.7895C30.8399 20.586 30.831 20.3464 30.8131 20.0706C30.7987 19.7948 30.7916 19.5551 30.7916 19.3516C30.7916 19.1482 30.8399 18.9831 30.9366 18.8565C31.0369 18.7299 31.1641 18.6666 31.3182 18.6666C31.4722 18.6666 31.5976 18.7299 31.6943 18.8565C31.7946 18.9831 31.8448 19.1482 31.8448 19.3516C31.8448 19.5596 31.8537 19.8061 31.8716 20.0909C31.8895 20.3713 31.8985 20.6154 31.8985 20.8234L31.8609 23.0073C31.843 23.7941 31.8376 24.5808 31.8448 25.3676C32.3319 24.8974 32.8012 24.3819 33.2526 23.8212L34.4348 22.2816C34.553 22.1279 34.6801 22.051 34.8163 22.051C34.956 22.051 35.0814 22.1211 35.1924 22.2613C35.3071 22.4014 35.3644 22.5642 35.3644 22.7496C35.3644 22.9033 35.3124 23.0548 35.2085 23.204C34.7679 23.8551 34.2252 24.5537 33.5804 25.2998L34.7518 27.3141C35.2999 28.2592 35.5739 28.8741 35.5739 29.1589C35.5739 29.3398 35.5166 29.4958 35.402 29.6269C35.2909 29.7581 35.162 29.8236 35.0151 29.8236Z" fill="#0F474A"/>
    <path d="M40.6626 24.5334C40.6375 25.0986 40.4584 25.3812 40.1252 25.3812C39.8172 25.3812 39.6631 25.1574 39.6631 24.7097C39.6631 24.6238 39.6578 24.4655 39.647 24.2349L39.6309 23.6652C39.0649 23.7511 38.6117 23.9524 38.2714 24.2689C37.9526 24.5628 37.6875 25.0059 37.4761 25.5982L37.4869 29.3149C37.4869 29.7716 37.3096 30 36.9549 30C36.6397 30 36.482 29.7716 36.482 29.3149V24.5537C36.482 24.4045 36.4856 24.1807 36.4928 23.8823C36.5035 23.5838 36.5089 23.36 36.5089 23.2108C36.5089 22.7541 36.6665 22.5258 36.9818 22.5258C37.3328 22.5258 37.5102 22.9011 37.5138 23.6517C38.2016 22.8152 38.9646 22.3969 39.8028 22.3969C40.093 22.3969 40.3097 22.5348 40.453 22.8107C40.5963 23.0865 40.668 23.5025 40.668 24.0586C40.668 24.2937 40.6662 24.452 40.6626 24.5334Z" fill="#0F474A"/>
</svg>
