<svg width="61" height="60" viewBox="0 0 61 60" fill="none"
  xmlns="http://www.w3.org/2000/svg">
  <g clip-path="url(#clip0)">
    <path d="M11.3447 33.1089C11.1339 33.1089 10.9458 32.9768 10.8743 32.7785C10.8029 32.5802 10.8634 32.3584 11.0257 32.2239L13.8937 29.8549L10.2377 31.9649C10.0119 32.0944 9.72462 32.029 9.57709 31.8146C9.42956 31.6002 9.47113 31.3086 9.67268 31.1439L13.8187 27.7799L8.69468 30.7379C8.46615 30.8662 8.17738 30.7962 8.03287 30.5776C7.88836 30.359 7.93715 30.0659 8.14468 29.9059L12.3257 26.7639L7.32568 29.6499C7.09536 29.7772 6.80579 29.7042 6.66337 29.4829C6.52095 29.2616 6.57442 28.9678 6.78568 28.8109L10.6067 26.0869L6.10668 28.6869C5.87457 28.816 5.58204 28.7411 5.44054 28.5163C5.29903 28.2916 5.35794 27.9954 5.57468 27.8419L8.60068 25.7659L5.02968 27.8269C4.7977 27.9513 4.50904 27.8745 4.36949 27.6513C4.22994 27.4282 4.28731 27.135 4.50068 26.9809L8.40768 24.3169L3.89268 26.9229C3.70738 27.0303 3.47429 27.0077 3.31303 26.8668C3.15176 26.7259 3.09814 26.4979 3.17968 26.2999L3.64368 25.1739L2.51268 25.8259C2.34579 25.9223 2.13834 25.9143 1.97947 25.8051C1.82059 25.696 1.73858 25.5053 1.76868 25.3149L1.82068 24.9829L1.79168 24.9999C1.63668 25.0985 1.44014 25.1041 1.27977 25.0146C1.11939 24.9251 1.021 24.7548 1.02348 24.5712C1.02597 24.3876 1.12894 24.2201 1.29168 24.1349L2.22968 23.5939C2.3964 23.4977 2.60356 23.5057 2.76233 23.6146C2.92111 23.7234 3.00331 23.9137 2.97368 24.1039L2.92068 24.4369L4.41268 23.5749C4.59797 23.4676 4.83106 23.4901 4.99232 23.631C5.15359 23.7719 5.20721 23.9999 5.12568 24.1979L4.66268 25.3239L19.4787 16.7709C19.7105 16.645 20.0003 16.7208 20.1407 16.9442C20.2811 17.1676 20.2237 17.4617 20.0097 17.6159L16.1007 20.2799L19.3117 18.4259C19.5441 18.2931 19.8399 18.3668 19.9827 18.5933C20.1255 18.8197 20.0647 19.1184 19.8447 19.2709L16.8207 21.3449L19.1597 19.9999C19.3906 19.8682 19.6842 19.9402 19.828 20.1638C19.9718 20.3875 19.9154 20.6845 19.6997 20.8399L15.8787 23.5629L18.9857 21.7699C19.2144 21.6389 19.5056 21.7079 19.6511 21.9277C19.7967 22.1475 19.7466 22.4425 19.5367 22.6019L15.3537 25.7399L18.7897 23.7569C19.0154 23.6275 19.3027 23.6929 19.4503 23.9072C19.5978 24.1216 19.5562 24.4133 19.3547 24.5779L15.2087 27.9399L18.5677 25.9999C18.7927 25.8701 19.0797 25.9342 19.228 26.1475C19.3764 26.3608 19.3367 26.6521 19.1367 26.8179L16.0777 29.3449C16.2753 29.3227 16.4673 29.4197 16.5667 29.5919C16.7042 29.8306 16.6228 30.1355 16.3847 30.2739L11.5947 33.0399C11.519 33.0849 11.4327 33.1088 11.3447 33.1089Z" fill="#0F474A"/>
    <path d="M6.34398 24.237C6.12645 24.2365 5.93417 24.0955 5.8684 23.8881C5.80264 23.6808 5.87847 23.4547 6.05598 23.329L10.732 20.029L6.25198 22.615C6.01957 22.7478 5.72376 22.674 5.58095 22.4476C5.43813 22.2212 5.49898 21.9225 5.71898 21.77L9.50098 19.173L5.94998 21.223C5.71943 21.3533 5.42727 21.2812 5.28376 21.0586C5.14025 20.8361 5.19516 20.5402 5.40898 20.384L12.109 15.584L5.53898 19.372C5.30521 19.5007 5.01153 19.4232 4.87179 19.1958C4.73205 18.9684 4.79552 18.6714 5.01598 18.521L5.27098 18.354C5.0339 18.4636 4.75237 18.3723 4.62478 18.1444C4.4972 17.9165 4.56655 17.6287 4.78398 17.484L8.21198 15.2L5.02598 17.036C4.79374 17.1574 4.50717 17.0789 4.36922 16.8561C4.23128 16.6332 4.28877 16.3417 4.50098 16.188L8.25498 13.688L4.73898 15.718C4.50498 15.857 4.20278 15.7833 4.05904 15.5521C3.9153 15.321 3.98283 15.0174 4.21098 14.869L9.21098 11.525L4.42298 14.29C4.19012 14.4251 3.89206 14.3516 3.74874 14.1237C3.60541 13.8958 3.66829 13.5953 3.89098 13.444L10.478 8.94396L4.06298 12.644C3.83152 12.7687 3.54301 12.6928 3.40281 12.4704C3.26261 12.248 3.31862 11.955 3.53098 11.8L8.75898 8.23996L3.73098 11.14C3.50212 11.2692 3.21228 11.1992 3.06765 10.9797C2.92301 10.7603 2.97297 10.4663 3.18198 10.307L9.43098 5.62096L3.30098 9.16196C3.0726 9.29196 2.78255 9.22298 2.63715 9.00408C2.49175 8.78518 2.54061 8.49109 2.74898 8.33096L6.53698 5.45696L2.93698 7.53296C2.70907 7.65089 2.42888 7.57713 2.28857 7.36228C2.14826 7.14743 2.19337 6.86123 2.39298 6.69996L3.51098 5.87096L2.67998 6.35096C2.45964 6.47541 2.18107 6.41563 2.0312 6.21172C1.88133 6.00782 1.90743 5.7241 2.09198 5.55096L4.06498 3.73796L2.32598 4.73796C2.12988 4.84988 1.88311 4.81649 1.72381 4.65649C1.5645 4.49648 1.5322 4.24956 1.64498 4.05396L2.58798 2.43996L2.54698 2.46396C2.39198 2.56249 2.19545 2.56812 2.03507 2.47861C1.8747 2.38911 1.7763 2.21888 1.77879 2.03524C1.78127 1.85159 1.88424 1.68409 2.04698 1.59896L3.71998 0.632962C3.91607 0.521043 4.16285 0.554432 4.32215 0.714438C4.48145 0.874444 4.51376 1.12136 4.40098 1.31696L3.45798 2.93496L7.50698 0.599962C7.72731 0.475513 8.00589 0.5353 8.15576 0.7392C8.30562 0.9431 8.27953 1.22682 8.09498 1.39996L6.12198 3.20796L10.647 0.599962C10.8763 0.471439 11.166 0.54247 11.3099 0.762502C11.4538 0.982533 11.4027 1.2764 11.193 1.43496L10.074 2.25996L12.955 0.599962C13.1834 0.469965 13.4734 0.538946 13.6188 0.757843C13.7642 0.97674 13.7154 1.27084 13.507 1.43096L9.71698 4.29996L16.133 0.599962C16.362 0.467764 16.6544 0.536814 16.8002 0.757519C16.9459 0.978225 16.8945 1.27424 16.683 1.43296L10.43 6.12096L19.894 0.657962C20.1265 0.527195 20.4207 0.602011 20.5626 0.827964C20.7044 1.05392 20.6438 1.35141 20.425 1.50396L15.207 5.05896L21.401 1.48396C21.6343 1.34146 21.9389 1.41282 22.0846 1.64416C22.2304 1.87549 22.1633 2.181 21.934 2.32996L15.344 6.82996L21.801 3.09996C22.0341 2.9693 22.3287 3.045 22.4699 3.27183C22.6112 3.49866 22.5491 3.79645 22.329 3.94796L17.329 7.29296L21.446 4.91596C21.68 4.77696 21.9822 4.85066 22.1259 5.08179C22.2697 5.31291 22.2021 5.61655 21.974 5.76496L18.219 8.26496L21.074 6.61596C21.308 6.47696 21.6102 6.55066 21.7539 6.78179C21.8977 7.01291 21.8301 7.31655 21.602 7.46496L18.176 9.75096L20.709 8.28896C20.9437 8.15248 21.2444 8.22823 21.3865 8.45962C21.5285 8.691 21.4599 8.99346 21.232 9.14096L20.571 9.57096C20.8031 9.5243 21.0361 9.64683 21.1292 9.8645C21.2223 10.0822 21.15 10.3353 20.956 10.471L14.256 15.271L19.956 11.982C20.1884 11.8491 20.4842 11.9229 20.627 12.1493C20.7698 12.3757 20.709 12.6744 20.489 12.827L16.712 15.427L19.791 13.649C20.022 13.5192 20.3142 13.5922 20.4571 13.8154C20.5999 14.0387 20.5437 14.3346 20.329 14.49L15.653 17.79L19.601 15.506C19.8384 15.3818 20.1315 15.4668 20.2656 15.6988C20.3997 15.9308 20.3271 16.2272 20.101 16.371L6.59398 24.17C6.51814 24.2143 6.4318 24.2374 6.34398 24.237Z" fill="#0F474A"/>
    <path d="M48.7793 33.3899C48.5641 33.3899 48.373 33.2522 48.305 33.0481C48.2369 32.8439 48.3071 32.6191 48.4793 32.4899L50.3383 31.0999L47.9123 32.4999C47.681 32.6333 47.3857 32.5614 47.2416 32.3366C47.0975 32.1118 47.1555 31.8134 47.3733 31.6589L49.8873 29.8789L46.8323 31.6429C46.608 31.7733 46.3213 31.7104 46.1721 31.4982C46.0229 31.286 46.0608 30.9949 46.2593 30.8279L50.4863 27.2499L45.1673 30.3209C44.9355 30.454 44.64 30.3811 44.4965 30.1556C44.3531 29.93 44.4125 29.6315 44.6313 29.4779L45.1263 29.1329L44.2823 29.6189C44.0513 29.7488 43.7591 29.6757 43.6162 29.4525C43.4734 29.2292 43.5296 28.9333 43.7443 28.7779L45.9223 27.2409L43.2383 28.7899C43.0059 28.9228 42.7101 28.849 42.5673 28.6226C42.4245 28.3962 42.4853 28.0975 42.7053 27.9449L44.6223 26.6309L42.5373 27.8309C42.3116 27.9339 42.0445 27.8558 41.9098 27.6474C41.7752 27.439 41.8137 27.1634 42.0003 26.9999L47.0663 23.3999L42.3663 26.1109C42.1359 26.2366 41.8475 26.1627 41.7059 25.9416C41.5644 25.7206 41.6178 25.4277 41.8283 25.2709L47.1643 21.4999L42.1933 24.3689C41.961 24.5041 41.6634 24.4315 41.5195 24.2045C41.3756 23.9775 41.4369 23.6773 41.6583 23.5249L46.7133 20.0189L42.0303 22.7189C41.7993 22.8387 41.5151 22.7613 41.3767 22.541C41.2383 22.3206 41.2921 22.031 41.5003 21.8749L43.8683 20.2999L41.9003 21.4359C41.6662 21.5691 41.3687 21.4928 41.2275 21.2634C41.0862 21.0341 41.1521 20.7341 41.3763 20.5849L42.6263 19.7649L41.7833 20.2509C41.5519 20.3823 41.2581 20.3093 41.115 20.0849C40.9719 19.8606 41.0297 19.5634 41.2463 19.4089L48.4373 14.3699L41.5923 18.3209C41.3591 18.4497 41.0659 18.373 40.9256 18.1465C40.7853 17.9201 40.8472 17.6234 41.0663 17.4719L44.2073 15.3999L41.4613 16.9849C41.2282 17.1156 40.9336 17.0399 40.7924 16.8131C40.6511 16.5862 40.7132 16.2884 40.9333 16.1369L45.9053 12.8129L41.3113 15.4649C41.0769 15.611 40.7684 15.5394 40.6223 15.3049C40.4762 15.0705 40.5479 14.762 40.7823 14.6159L46.2003 10.9929L41.1553 13.8999C40.9219 14.0252 40.6312 13.9467 40.4927 13.7208C40.3541 13.495 40.4158 13.2003 40.6333 13.0489L42.5253 11.8179L41.0343 12.6789C40.8038 12.8092 40.5116 12.7372 40.3681 12.5146C40.2246 12.292 40.2795 11.9962 40.4933 11.8399L47.9003 6.52894L40.6363 10.7289C40.4016 10.8745 40.0934 10.8022 39.9478 10.5674C39.8023 10.3327 39.8746 10.0245 40.1093 9.87894L40.5403 9.59394L40.4043 9.67194C40.1723 9.80293 39.8784 9.72902 39.736 9.50389C39.5935 9.27875 39.6526 8.98148 39.8703 8.82794L41.5133 7.68994L40.1453 8.47894C39.9144 8.61067 39.6208 8.53865 39.477 8.31501C39.3332 8.09137 39.3896 7.79434 39.6053 7.63894L40.6783 6.87994L39.8933 7.33294C39.6651 7.46478 39.3737 7.3968 39.2274 7.17757C39.081 6.95833 39.13 6.66315 39.3393 6.50294L40.8323 5.36394L39.6153 6.06394C39.3932 6.19053 39.1114 6.12916 38.962 5.92167C38.8126 5.71419 38.8438 5.42743 39.0343 5.25694L40.5003 3.96594L39.3003 4.65494C39.1029 4.76866 38.8535 4.73449 38.6939 4.57184C38.5343 4.40919 38.5049 4.15921 38.6223 3.96394L39.5223 2.47194C39.2829 2.59268 38.9908 2.50301 38.8603 2.26869C38.7299 2.03437 38.8075 1.73886 39.0363 1.59894L40.7193 0.632938C40.9167 0.520165 41.1654 0.554775 41.3245 0.717175C41.4836 0.879575 41.5131 1.12887 41.3963 1.32394L40.4963 2.81494L44.3353 0.599938C44.5574 0.473344 44.8393 0.534714 44.9887 0.742202C45.1381 0.949691 45.1068 1.23645 44.9163 1.40694L43.4513 2.69994L47.0893 0.599938C47.3176 0.468092 47.609 0.536076 47.7553 0.755312C47.9016 0.974548 47.8526 1.26973 47.6433 1.42994L46.1433 2.56994L49.5613 0.599938C49.7926 0.46655 50.088 0.538472 50.232 0.76329C50.3761 0.988109 50.3181 1.28647 50.1003 1.44094L49.0213 2.19994L51.8003 0.599938C52.0316 0.473613 52.3213 0.548549 52.4623 0.771206C52.6034 0.993863 52.5474 1.28777 52.3343 1.44294L50.6923 2.57294L54.1163 0.599938C54.3499 0.467094 54.6466 0.542574 54.7883 0.770855C54.93 0.999135 54.866 1.29859 54.6433 1.44894L54.2123 1.73394L56.1783 0.599938C56.4089 0.469644 56.701 0.541709 56.8445 0.764272C56.988 0.986836 56.9331 1.2827 56.7193 1.43894L49.3093 6.75394L58.4003 1.49994C58.635 1.36345 58.9358 1.43921 59.0778 1.67059C59.2198 1.90198 59.1513 2.20443 58.9233 2.35194L57.0403 3.57794L58.8003 2.56394C59.0343 2.42494 59.3365 2.49864 59.4803 2.72976C59.624 2.96089 59.5565 3.26452 59.3283 3.41294L53.9203 7.02894L58.5713 4.34394C58.8048 4.20864 59.1035 4.28297 59.2463 4.51189C59.3891 4.74082 59.3245 5.04177 59.1003 5.19194L54.1263 8.51794L58.1673 6.18494C58.4002 6.05951 58.6905 6.1372 58.8297 6.36219C58.9688 6.58718 58.9086 6.88161 58.6923 7.03394L55.5403 9.11494L57.8123 7.80494C58.0431 7.67816 58.3327 7.75215 58.4744 7.9741C58.6162 8.19605 58.5614 8.48989 58.3493 8.64594L51.1633 13.6819L57.3003 10.1399C57.5336 10.013 57.8255 10.0906 57.9649 10.3167C58.1043 10.5429 58.0426 10.8385 57.8243 10.9899L56.5643 11.8159L56.9853 11.5739C57.2193 11.4349 57.5215 11.5086 57.6653 11.7398C57.809 11.9709 57.7415 12.2745 57.5133 12.4229L55.1493 13.9999L56.6423 13.1389C56.8741 13.0057 57.1697 13.0784 57.3133 13.3039C57.4574 13.5301 57.3974 13.8297 57.1773 13.9829L52.1203 17.4849L56.2003 15.1289C56.4314 14.9991 56.7236 15.0722 56.8664 15.2954C57.0092 15.5187 56.953 15.8146 56.7383 15.9699L51.4023 19.7339L55.7393 17.2339C55.9702 17.1022 56.2639 17.1742 56.4076 17.3979C56.5514 17.6215 56.495 17.9185 56.2793 18.0739L51.2113 21.6739L55.2793 19.3249C55.5117 19.1921 55.8075 19.2659 55.9504 19.4923C56.0932 19.7187 56.0323 20.0174 55.8123 20.1699L53.9053 21.4779L54.9363 20.8829C55.1676 20.7496 55.463 20.8215 55.607 21.0463C55.7511 21.2711 55.6931 21.5695 55.4753 21.7239L53.3003 23.2599L54.6003 22.5099C54.8322 22.3769 55.1277 22.4497 55.2711 22.6753C55.4146 22.9009 55.3552 23.1994 55.1363 23.3529L54.6443 23.6959L54.8173 23.5959C55.0413 23.4662 55.3274 23.5289 55.4766 23.7405C55.6258 23.952 55.5888 24.2425 55.3913 24.4099L51.1623 27.9899L58.7343 23.6179C58.9656 23.4846 59.261 23.5565 59.405 23.7813C59.5491 24.0061 59.4911 24.3045 59.2733 24.4589L56.7543 26.2429L57.1813 25.9999C57.41 25.8734 57.6976 25.9442 57.8412 26.1626C57.9848 26.3809 57.9361 26.6731 57.7293 26.8329L51.2003 31.7059C51.2276 31.9069 51.1308 32.1044 50.9553 32.2059L49.0293 33.3169C48.9539 33.3629 48.8676 33.3881 48.7793 33.3899Z" fill="#0F474A"/>
    <path d="M29.5575 58.926C29.3404 58.9268 29.1476 58.7874 29.0804 58.5809C29.0131 58.3745 29.0867 58.1483 29.2625 58.021L33.0425 55.266L28.6185 57.819C28.3876 57.9507 28.094 57.8787 27.9502 57.6551C27.8064 57.4314 27.8628 57.1344 28.0785 56.979L36.3865 51.071L27.0595 56.456C26.8291 56.5882 26.5355 56.5172 26.391 56.2942C26.2466 56.0713 26.3017 55.7743 26.5165 55.618L33.8115 50.344L25.5335 55.123C25.3027 55.2568 25.0075 55.1858 24.8627 54.9617C24.718 54.7376 24.7747 54.4394 24.9915 54.284L30.2915 50.474L24.2225 53.974C23.9878 54.1195 23.6795 54.0472 23.534 53.8125C23.3885 53.5778 23.4608 53.2695 23.6955 53.124L25.1365 52.169L23.3425 53.204C23.1091 53.3393 22.8104 53.265 22.6676 53.036C22.5248 52.8071 22.5894 52.5062 22.8135 52.356L26.5345 49.861L22.3085 52.301C22.0752 52.4435 21.7706 52.3721 21.6249 52.1408C21.4791 51.9095 21.5462 51.6039 21.7755 51.455L28.3815 46.947L21.0355 51.188C20.8061 51.3059 20.5245 51.2298 20.3857 51.0124C20.2468 50.795 20.2961 50.5076 20.4995 50.349L29.7075 43.99L19.5245 49.871C19.2919 49.9998 18.9991 49.924 18.8582 49.6985C18.7173 49.4729 18.7776 49.1765 18.9955 49.024L28.5755 42.562L18.0885 48.615C17.8792 48.7348 17.6141 48.6881 17.4583 48.5039C17.3026 48.3197 17.3006 48.0505 17.4535 47.864L18.3105 46.828L16.9445 47.616C16.793 47.7036 16.6067 47.7057 16.4534 47.6214C16.3 47.5372 16.2018 47.3788 16.1945 47.204L16.1405 45.875L15.8175 46.061C15.5786 46.1968 15.2748 46.1144 15.1374 45.8763C15 45.6383 15.0804 45.334 15.3175 45.195L16.3555 44.595C16.507 44.5073 16.6933 44.5052 16.8467 44.5895C17.0001 44.6738 17.0983 44.8321 17.1055 45.007L17.1605 46.337L20.2175 44.572C20.4269 44.4521 20.692 44.4989 20.8477 44.6831C21.0035 44.8673 21.0055 45.1365 20.8525 45.323L19.9995 46.359L40.4615 34.545C40.6942 34.4161 40.987 34.4919 41.1279 34.7175C41.2688 34.9431 41.2084 35.2395 40.9905 35.392L31.4135 41.853L39.9395 36.931C40.1711 36.8016 40.4634 36.8756 40.6056 37.0995C40.7477 37.3235 40.6902 37.6195 40.4745 37.774L31.2675 44.132L39.3915 39.441C39.6244 39.3058 39.9224 39.3793 40.0658 39.6073C40.2091 39.8352 40.1462 40.1357 39.9235 40.287L33.3235 44.787L38.9315 41.55C39.1639 41.4243 39.4539 41.5011 39.5937 41.7253C39.7334 41.9495 39.6746 42.2437 39.4595 42.397L35.7285 44.897L38.5685 43.258C38.8021 43.1251 39.0988 43.2006 39.2405 43.4289C39.3822 43.6572 39.3182 43.9566 39.0955 44.107L37.6525 45.064L38.4735 44.591C38.7041 44.4576 38.9987 44.5284 39.1435 44.752C39.2886 44.9759 39.2323 45.2743 39.0155 45.43L33.7155 49.237L41.7675 44.6C41.9979 44.4677 42.2915 44.5388 42.436 44.7617C42.5805 44.9847 42.5254 45.2817 42.3105 45.438L35.0105 50.711L45.0305 44.926C45.2615 44.7942 45.5551 44.8663 45.6989 45.0899C45.8426 45.3135 45.7862 45.6106 45.5705 45.766L37.2705 51.673L40.6705 49.708C40.9008 49.5736 41.196 49.6436 41.3415 49.867C41.487 50.0905 41.4315 50.3887 41.2155 50.545L35.3825 54.8C35.4501 54.8431 35.5061 54.9022 35.5455 54.972C35.6829 55.2109 35.6011 55.5159 35.3625 55.654L29.8075 58.861C29.7313 58.9042 29.6451 58.9266 29.5575 58.926Z" fill="#1C989D"/>
    <path d="M22.2387 44.4C22.0171 44.3998 21.822 44.2538 21.7594 44.0412C21.6968 43.8286 21.7816 43.6002 21.9677 43.4799L24.5467 41.812L22.2287 43.15C21.9961 43.2788 21.7033 43.203 21.5624 42.9774C21.4215 42.7519 21.4818 42.4555 21.6997 42.303L29.6927 36.9189L21.8557 41.443C21.6217 41.5682 21.3306 41.4888 21.1926 41.262C21.0546 41.0353 21.1179 40.7402 21.3367 40.59L23.3687 39.29L21.6077 40.3069C21.3722 40.4511 21.0644 40.377 20.9202 40.1414C20.7761 39.9059 20.8502 39.5981 21.0857 39.4539L26.1187 36.191L21.3187 38.965C21.0862 39.0957 20.792 39.0209 20.6501 38.7949C20.5083 38.569 20.5689 38.2715 20.7877 38.1189L31.8487 30.5849L20.8687 36.923C20.6346 37.0561 20.3371 36.9798 20.1958 36.7504C20.0546 36.5211 20.1204 36.2211 20.3447 36.0719L28.8327 30.4999L20.5147 35.2999C20.2793 35.4379 19.9768 35.3617 19.8349 35.1286C19.6929 34.8955 19.7641 34.5918 19.9947 34.4459L25.6947 30.7929L20.2237 33.9519C19.9897 34.0909 19.6875 34.0172 19.5438 33.7861C19.4 33.555 19.4676 33.2514 19.6957 33.1029L31.2627 25.4029L19.7997 32.0229C19.5665 32.1517 19.2733 32.075 19.133 31.8486C18.9927 31.6221 19.0546 31.3254 19.2737 31.1739L30.8997 23.4879L19.3897 30.1329C19.1542 30.2771 18.8464 30.203 18.7022 29.9674C18.5581 29.7319 18.6322 29.4241 18.8677 29.2799L27.6897 23.5639L19.0447 28.5559C18.8085 28.6921 18.5068 28.614 18.3664 28.3803C18.226 28.1467 18.2986 27.8436 18.5297 27.6989L18.7767 27.5449C18.5378 27.657 18.2529 27.5641 18.126 27.3328C17.9991 27.1014 18.0738 26.8112 18.2967 26.6699L25.2967 22.1329L18.4997 26.0559C18.2656 26.1891 17.9681 26.1128 17.8268 25.8834C17.6856 25.6541 17.7514 25.3541 17.9757 25.2049L24.2227 21.0999L18.1747 24.5909C17.9433 24.7223 17.6495 24.6493 17.5064 24.4249C17.3633 24.2006 17.421 23.9034 17.6377 23.7489L25.7067 18.0769L17.7597 22.6609C17.5262 22.7938 17.2294 22.7183 17.0877 22.49C16.946 22.2618 17.01 21.9623 17.2327 21.8119L19.1577 20.5349L17.4997 21.4899C17.2673 21.6156 16.9773 21.5388 16.8376 21.3146C16.6978 21.0905 16.7566 20.7963 16.9717 20.6429L18.0547 19.9159L17.2547 20.3769C17.0233 20.5083 16.7295 20.4353 16.5864 20.2109C16.4433 19.9866 16.501 19.6894 16.7177 19.5349L18.6707 18.1659L16.9837 19.1399C16.757 19.2717 16.4671 19.206 16.3194 18.9894C16.1716 18.7728 16.2163 18.4789 16.4217 18.3159L19.6087 15.7679L16.6227 17.4909C16.3985 17.619 16.1137 17.5554 15.9654 17.3441C15.8171 17.1327 15.854 16.8432 16.0507 16.6759L17.6997 15.2999L16.3707 16.0669C16.164 16.186 15.902 16.1425 15.7449 15.963C15.5878 15.7835 15.5793 15.5181 15.7247 15.3289L16.9107 13.7839C16.6719 13.8553 16.4171 13.7399 16.3131 13.5134C16.2092 13.2869 16.2879 13.0184 16.4977 12.8839L18.5757 11.6839C18.7822 11.5647 19.0442 11.6079 19.2015 11.7871C19.3588 11.9663 19.3677 12.2316 19.2227 12.4209L18.0497 13.9479L22.0997 11.5999C22.3239 11.4719 22.6087 11.5355 22.757 11.7468C22.9054 11.9582 22.8684 12.2477 22.6717 12.4149L21.0327 13.7929L24.8327 11.5999C25.0589 11.4715 25.3458 11.538 25.4925 11.7528C25.6392 11.9676 25.5967 12.259 25.3947 12.4229L22.2087 14.9709L28.0487 11.5999C28.2795 11.4732 28.5691 11.5472 28.7108 11.7691C28.8526 11.9911 28.7978 12.2849 28.5857 12.4409L26.6297 13.8129L30.4697 11.5999C30.7021 11.4743 30.9921 11.5511 31.1318 11.7753C31.2716 11.9994 31.2128 12.2936 30.9977 12.4469L29.9187 13.1709L32.6417 11.5999C32.8749 11.4712 33.1681 11.5479 33.3084 11.7743C33.4487 12.0008 33.3868 12.2975 33.1677 12.4489L31.2467 13.7199L34.9247 11.5999C35.1555 11.4732 35.4451 11.5472 35.5868 11.7691C35.7286 11.9911 35.6738 12.2849 35.4617 12.4409L27.3917 18.1139L38.6757 11.5999C38.909 11.473 39.2009 11.5506 39.3403 11.7768C39.4797 12.0029 39.418 12.2985 39.1997 12.4499L32.9487 16.5589L41.5307 11.5999C41.7654 11.4635 42.0662 11.5392 42.2082 11.7706C42.3502 12.002 42.2817 12.3044 42.0537 12.4519L35.0457 16.9999L43.3297 12.2179C43.5648 12.0906 43.8585 12.1707 43.9963 12.3998C44.1341 12.6289 44.0674 12.9259 43.8447 13.0739L43.6697 13.1839L44.0697 12.9539C44.3053 12.8098 44.6131 12.8839 44.7572 13.1194C44.9014 13.355 44.8273 13.6628 44.5917 13.8069L35.7737 19.5199L44.6677 14.3849C44.9006 14.2595 45.1909 14.3372 45.3301 14.5622C45.4692 14.7872 45.409 15.0816 45.1927 15.2339L33.5647 22.9239L44.3577 16.6899C44.5917 16.5509 44.8939 16.6246 45.0377 16.8558C45.1814 17.0869 45.1139 17.3905 44.8857 17.5389L33.3197 25.2389L43.8117 19.1799C44.0461 19.0511 44.3404 19.1294 44.4796 19.3578C44.6188 19.5862 44.5537 19.8837 44.3317 20.0329L38.6457 23.6789L43.4317 20.9159C43.6659 20.7828 43.9634 20.8591 44.1046 21.0885C44.2458 21.3178 44.18 21.6178 43.9557 21.7669L35.4617 27.3439L42.9797 22.9999C43.2126 22.8648 43.5106 22.9383 43.654 23.1662C43.7973 23.3941 43.7344 23.6946 43.5117 23.8459L32.4517 31.3799L42.4077 25.6319C42.6424 25.4955 42.9432 25.5712 43.0852 25.8026C43.2272 26.034 43.1587 26.3364 42.9307 26.4839L37.8937 29.7489L42.0297 27.3609C42.2651 27.223 42.5677 27.2992 42.7096 27.5323C42.8515 27.7653 42.7803 28.0691 42.5497 28.2149L40.5317 29.5049L41.7097 28.8249C41.9432 28.6896 42.2418 28.764 42.3847 28.9929C42.5275 29.2218 42.4629 29.5228 42.2387 29.6729L34.2387 35.0589L41.2247 31.0249C41.4603 30.8808 41.7681 30.9549 41.9122 31.1904C42.0564 31.426 41.9823 31.7338 41.7467 31.8779L39.1607 33.5499L40.8917 32.5499C41.0467 32.4514 41.2432 32.4458 41.4036 32.5353C41.564 32.6248 41.6624 32.795 41.6599 32.9787C41.6574 33.1623 41.5545 33.3298 41.3917 33.4149L22.4887 44.3349C22.4126 44.3784 22.3263 44.4008 22.2387 44.4Z" fill="#1C989D"/>
    <path d="M29.2341 20.9508C29.2176 20.2612 28.9245 19.6073 28.4209 19.136C27.9172 18.6647 27.2453 18.4156 26.5561 18.4448C25.0869 18.4442 23.8671 19.5793 23.7621 21.0448C23.7071 24.4458 29.0591 24.1888 29.2341 20.9508ZM26.3471 19.5628C27.1368 19.6076 27.756 20.2579 27.7621 21.0488C27.7251 21.7368 27.3281 22.5028 26.5251 22.4398C25.7886 22.3259 25.2425 21.696 25.2341 20.9508C25.1747 20.2651 25.6649 19.6538 26.3471 19.5628Z" fill="white"/>
    <path d="M31.7737 29.1941C31.8157 32.4251 37.0647 31.7341 37.2217 28.8061C37.0497 25.6121 31.7347 26.2241 31.7737 29.1941ZM34.2567 30.5041C33.6145 30.1824 33.2126 29.5222 33.2217 28.8041C33.2317 28.0451 33.7897 27.1241 34.6417 27.4561C35.3318 27.7568 35.7768 28.4393 35.7737 29.1921C35.7297 30.0001 35.1747 30.9361 34.2567 30.5001V30.5041Z" fill="white"/>
    <path d="M42.7143 29.089C44.7583 31.036 47.4513 33.95 49.9003 33.005C51.9153 32.227 54.0173 29.739 55.6933 28.405C57.0643 27.315 59.6873 26.053 60.1883 24.271C60.2077 24.2073 60.189 24.1383 60.1403 24.093C59.2703 23.477 59.0483 23.72 57.9543 23.611C57.5153 23.568 56.7543 23.729 56.1473 23.733C56.0474 23.656 55.9218 23.6202 55.7963 23.633H55.5333C55.5218 23.6304 55.5104 23.6271 55.4993 23.623C55.4971 23.5481 55.4867 23.4736 55.4683 23.401C54.9613 21.265 56.9043 16.866 57.3753 14.72C58.0913 11.461 62.3213 1.82597 57.3353 0.625969C55.2263 0.119969 52.4213 0.612969 50.2713 0.612969C47.4903 0.612969 44.1543 0.112969 41.4083 0.612969C36.0393 1.60097 38.9183 7.87597 39.8893 11.724C39.3893 11.702 38.8673 11.693 38.3283 11.693H21.0283C21.8123 8.39297 24.9403 1.54297 20.1393 0.675969C17.7073 0.236969 14.7613 0.675969 12.2983 0.675969C9.77733 0.675969 6.99833 0.333969 4.49833 0.675969C0.15033 1.27197 1.34733 4.63797 2.05033 7.83997C3.20566 13.0993 4.361 18.358 5.51633 23.616C5.49633 23.616 5.47733 23.626 5.45733 23.629C3.88633 23.536 2.26433 23.407 0.97133 24.329C0.91133 24.371 0.78133 24.474 0.80833 24.57C1.30833 26.363 4.20033 27.77 5.58733 28.876C6.97433 29.982 9.26533 32.71 11.0183 33.165C13.3273 33.765 16.1613 30.783 18.1593 28.88L21.6063 44.649C19.3303 44.513 16.8373 44.207 14.9903 45.506C14.9363 45.544 14.7983 45.639 14.8243 45.732C15.6703 48.814 20.9693 51.806 23.2803 53.832C24.9333 55.278 28.0303 59.432 30.4663 59.27C32.8603 59.112 35.7363 55.248 37.3353 53.848C39.7213 51.761 45.2913 48.601 46.1663 45.418C46.1883 45.3731 46.1738 45.3189 46.1323 45.291C44.5323 44.168 39.8323 45.522 39.2733 44.843C38.8123 44.287 40.3883 39.743 40.5483 39.009C41.2703 35.699 41.9923 32.3923 42.7143 29.089ZM41.9993 1.38697C44.1173 0.879969 47.0223 1.38697 49.1993 1.38697C51.1993 1.38697 54.1513 0.849969 56.0993 1.38697C60.2243 2.52597 57.0933 9.60097 56.4453 12.549L54.0103 23.638H51.7993C51.5493 23.638 50.9483 23.738 50.8383 24.013C50.7283 24.288 50.9383 24.362 51.2103 24.362H54.1573C54.2197 24.3767 54.2833 24.3851 54.3473 24.387C54.5353 24.387 54.7473 24.376 54.9653 24.362H55.2103C55.3284 24.3573 55.4459 24.3423 55.5613 24.317C57.0973 24.193 58.7843 24.063 58.0613 25.417C57.0353 27.329 53.2233 29.263 51.5133 30.623C51.0023 31.029 49.7773 32.423 49.1293 32.517C48.9973 32.536 49.0213 32.258 48.1543 31.678C46.3653 30.478 44.7303 28.961 43.0443 27.615L43.7703 24.293H46.0293C46.3911 24.3093 46.749 24.2136 47.0543 24.019C47.2403 23.868 47.2903 23.707 46.9703 23.707H43.8903C44.3273 21.707 44.7693 19.707 45.2033 17.698C46.0963 13.573 44.3343 12.255 41.4463 11.857C41.4463 11.839 41.4573 11.823 41.4543 11.806C40.7833 8.74397 37.8903 2.36997 41.9993 1.38697ZM13.2513 31.679C11.5163 33.079 11.6593 32.104 9.59833 30.465C7.51633 28.81 5.21933 27.265 3.28433 25.446C2.50833 24.716 1.96233 24.834 2.60633 24.324C3.3211 24.0983 4.0821 24.0615 4.81533 24.217C4.89825 24.3551 5.0559 24.43 5.21533 24.407H9.21533C9.49133 24.407 10.0463 24.307 10.1713 24.013C10.2963 23.719 10.0713 23.592 9.78033 23.592H7.04533C6.24933 19.9713 5.45366 16.3496 4.65833 12.727C4.10933 10.227 0.94333 2.74397 4.30533 1.32697C5.80533 0.691969 9.13333 1.32697 10.7103 1.32697C13.1743 1.16379 15.6464 1.16379 18.1103 1.32697C20.8483 1.70497 21.4573 3.05197 20.9573 5.72697C20.5843 7.72697 20.0973 9.70597 19.6573 11.691C19.5626 11.6936 19.4683 11.704 19.3753 11.722C13.4233 12.822 15.7623 19.166 16.9753 23.641H14.7953C14.5213 23.641 13.9783 23.741 13.8343 24.017C13.6903 24.293 13.9613 24.369 14.2073 24.369H17.1653C17.2183 24.582 17.2653 24.791 17.3123 24.991C17.5283 25.975 17.7437 26.9586 17.9583 27.942C16.3863 29.184 14.8083 30.419 13.2513 31.679ZM37.9213 44.729H33.9753C33.6138 44.7079 33.2551 44.8029 32.9513 45C32.8073 45.155 32.6733 45.268 33.0233 45.268H37.8993C37.9551 45.2935 38.016 45.3058 38.0773 45.304C39.4173 45.304 43.8433 44.657 44.2773 45.904C44.6993 47.137 41.9003 48.782 40.9833 49.584L34.2833 55.444C33.5893 56.051 31.0103 58.704 30.5093 58.652C30.0483 58.605 27.5633 55.871 27.0573 55.428L20.3573 49.569C19.3863 48.72 17.0723 47.402 16.5193 46.211C15.7993 44.662 17.4193 45.3 18.9063 45.3H21.8513C21.9451 45.4086 22.0841 45.4674 22.2273 45.459H27.2273C27.5213 45.459 28.0583 45.371 28.1773 45.04C28.2853 44.74 28.0823 44.527 27.7613 44.527H23.1153C22.0413 39.6123 20.967 34.6963 19.8923 29.779C19.8133 29.416 19.6033 28.714 19.3333 27.799C19.4233 27.693 19.3903 27.628 19.2743 27.599C18.9893 26.633 18.6463 25.452 18.3133 24.173C18.4006 24.1302 18.4743 24.0641 18.5263 23.982C18.6263 23.796 18.5263 23.707 18.3893 23.665C18.4464 23.5938 18.479 23.5061 18.4823 23.415V23.405C18.4823 23.123 18.2703 22.982 18.0073 22.949C16.8873 18.283 16.1913 12.936 19.0233 12.301H19.8363C19.9049 12.306 19.9738 12.306 20.0423 12.301H32.9823C35.3407 12.1332 37.7078 12.1249 40.0673 12.276C40.2388 12.3986 40.4571 12.4355 40.6593 12.376C42.8923 12.821 44.4823 14.024 43.9673 17.046C43.5753 19.346 43.1283 21.646 42.6493 23.939C42.6293 23.953 42.6043 23.962 42.5853 23.976C42.4243 24.107 42.3853 24.24 42.5793 24.276C42.3387 25.4206 42.0907 26.5653 41.8353 27.71C41.6093 27.841 41.4803 27.998 41.6253 28.11C41.6573 28.136 41.6923 28.167 41.7253 28.194C40.4873 33.721 39.1303 39.227 37.9213 44.729Z" fill="white"/>
    <path d="M35.8402 19.0381L23.8402 31.0381C23.5082 31.3691 24.8922 31.2301 25.1602 30.9621L37.1602 18.9621C37.4922 18.6311 36.1082 18.7701 35.8402 19.0381Z" fill="white"/>
  </g>
  <defs>
    <clipPath id="clip0">
      <rect width="60" height="60" fill="white" transform="translate(0.5)"/>
    </clipPath>
  </defs>
</svg>
