<svg width="52" height="52" viewBox="0 0 52 52" fill="none"
    xmlns="http://www.w3.org/2000/svg">
    <path d="M16.5264 15.6667C16.3799 15.6669 16.2505 15.5714 16.2074 15.4313C16.1643 15.2913 16.2178 15.1395 16.3391 15.0574L19.4378 12.954L14.8518 15.6C14.697 15.6861 14.502 15.6362 14.4077 15.4863C14.3133 15.3365 14.3526 15.139 14.4971 15.0367L18.6304 12.2107L14.6971 14.4774C14.5438 14.5659 14.3481 14.5192 14.2513 14.371C14.1545 14.2228 14.1904 14.0248 14.3331 13.92L19.0944 10.4187L14.2811 13.2C14.1271 13.2879 13.9314 13.2398 13.8355 13.0908C13.7397 12.9417 13.7773 12.7436 13.9211 12.64L16.7371 10.6314L13.9658 12.2314C13.814 12.318 13.6212 12.2727 13.5238 12.1277C13.4264 11.9827 13.4575 11.787 13.5951 11.6794L16.4818 9.43871L13.5984 11.1014C13.4446 11.1906 13.2478 11.1433 13.1513 10.9939C13.0547 10.8445 13.0925 10.6456 13.2371 10.542L13.4891 10.3614L13.3784 10.428C13.227 10.5152 13.034 10.4707 12.936 10.326C12.8381 10.1813 12.8685 9.98553 13.0058 9.87737L13.4931 9.49337L13.1411 9.69737C13.0147 9.76958 12.8561 9.75144 12.7493 9.65256C12.6425 9.55369 12.6122 9.39694 12.6744 9.26537L13.0744 8.41871L12.8851 8.52804C12.7255 8.62009 12.5215 8.56532 12.4294 8.40571C12.3374 8.2461 12.3922 8.04209 12.5518 7.95004L13.6684 7.30604C13.7948 7.23383 13.9534 7.25197 14.0602 7.35085C14.1671 7.44973 14.1974 7.60648 14.1351 7.73804L13.7351 8.58404L17.1884 6.58737C17.3403 6.4952 17.5378 6.53833 17.6374 6.68543C17.737 6.83254 17.7037 7.03191 17.5618 7.13871L17.0744 7.52137L18.9518 6.43737C19.1061 6.3432 19.3074 6.38927 19.4055 6.54121C19.5035 6.69315 19.4625 6.89554 19.3131 6.99737L19.0591 7.17937L20.3704 6.42204C20.5222 6.33545 20.715 6.38069 20.8124 6.52572C20.9098 6.67075 20.8787 6.86637 20.7411 6.97404L17.8544 9.21537L22.4184 6.58071C22.5724 6.49289 22.7681 6.5409 22.864 6.68999C22.9598 6.83908 22.9222 7.03711 22.7784 7.14071L19.9618 9.14937L23.9824 6.82804C24.1356 6.74162 24.3295 6.789 24.4255 6.9363C24.5215 7.08359 24.4866 7.28014 24.3458 7.38537L19.5858 10.8867L25.8611 7.26671C26.0158 7.18065 26.2109 7.23059 26.3052 7.38043C26.3995 7.53026 26.3603 7.72771 26.2158 7.83004L22.0824 10.656L27.0331 7.79737C27.1887 7.7052 27.3894 7.75388 27.4854 7.9071C27.5815 8.06031 27.5379 8.26217 27.3871 8.36204L24.2871 10.466L26.9071 8.95337C27.062 8.86481 27.2592 8.91398 27.3545 9.06493C27.4497 9.21588 27.4091 9.41503 27.2624 9.51671L25.4158 10.7834L26.5211 10.1454C26.6726 10.0563 26.8673 10.1002 26.966 10.2457C27.0646 10.3912 27.0333 10.5883 26.8944 10.696L24.3118 12.7334L25.9984 11.7634C26.1506 11.6755 26.3449 11.7208 26.4424 11.867C26.54 12.0131 26.5073 12.2099 26.3678 12.3167L25.8611 12.704C25.9801 12.7092 26.0872 12.7775 26.1422 12.8831C26.1972 12.9887 26.1917 13.1156 26.1278 13.216L25.3424 14.4494C25.4889 14.459 25.6119 14.5634 25.6452 14.7064C25.6785 14.8494 25.6143 14.9973 25.4871 15.0707L24.5638 15.604C24.431 15.6802 24.2634 15.6562 24.1574 15.5458C24.0514 15.4353 24.0342 15.2669 24.1158 15.1374L24.8351 14.004L22.0584 15.6074C21.9059 15.6983 21.7089 15.6537 21.6104 15.506C21.5118 15.3582 21.5465 15.1592 21.6891 15.0534L21.8691 14.916L20.6651 15.6114C20.5136 15.7005 20.3189 15.6566 20.2203 15.5111C20.1216 15.3656 20.1529 15.1685 20.2918 15.0607L22.8744 13.022L18.3818 15.6154C18.2268 15.7039 18.0296 15.6548 17.9344 15.5038C17.8392 15.3529 17.8798 15.1537 18.0264 15.052L19.8738 13.7854L16.6951 15.6207C16.644 15.6508 16.5857 15.6667 16.5264 15.6667Z" fill="#BE9468"/>
    <path d="M19.8297 45.6328C19.6869 45.6311 19.5611 45.5387 19.5168 45.403C19.4724 45.2673 19.5195 45.1185 19.6337 45.0328L24.4943 41.4995L17.7837 45.3735C17.6288 45.4636 17.4304 45.4152 17.3345 45.2638C17.2385 45.1125 17.2794 44.9124 17.427 44.8108L23.4897 40.6048L15.9937 44.9335C15.8377 45.0181 15.6428 44.9658 15.5503 44.8144C15.4577 44.6631 15.4999 44.4657 15.6463 44.3655L19.2997 42.0001L14.9663 44.5021C14.8093 44.5901 14.6108 44.5376 14.5179 44.3834C14.425 44.2293 14.4712 44.0292 14.6223 43.9315L16.285 42.8828L14.1063 44.1415C13.9497 44.2276 13.753 44.1749 13.6605 44.0219C13.568 43.8689 13.6126 43.6702 13.7617 43.5715L17.4103 41.2575L13.281 43.6415C13.1245 43.7325 12.924 43.682 12.8293 43.5277C12.7347 43.3735 12.7804 43.1718 12.9323 43.0735L20.7223 38.0135L12.189 42.9381C12.0319 43.0247 11.8346 42.9714 11.7423 42.8176C11.6501 42.6638 11.696 42.4646 11.8463 42.3668L14.419 40.7668L11.5723 42.4101C11.4164 42.4948 11.2215 42.4424 11.1289 42.2911C11.0364 42.1397 11.0786 41.9424 11.225 41.8421L21.193 35.3828L10.5837 41.5081C10.4267 41.5978 10.2269 41.5461 10.1332 41.3915C10.0395 41.2368 10.0862 41.0357 10.2383 40.9381L18.9843 35.3855L9.851 40.6568C9.69435 40.743 9.49764 40.6902 9.40514 40.5372C9.31263 40.3842 9.35728 40.1855 9.50633 40.0868L18.221 34.5688L9.19166 39.7828C9.03502 39.869 8.8383 39.8162 8.7458 39.6632C8.6533 39.5102 8.69795 39.3115 8.847 39.2128L17.9697 33.4308L8.60433 38.8375C8.44737 38.9272 8.24752 38.8754 8.15384 38.7208C8.06017 38.5662 8.10682 38.3651 8.259 38.2675L18.059 32.0288L8.07833 37.7921C7.92086 37.8809 7.72137 37.8279 7.62862 37.6728C7.53587 37.5177 7.58365 37.3169 7.73633 37.2201L10.9717 35.2268L7.77166 37.0721C7.61573 37.1568 7.42083 37.1044 7.32827 36.9531C7.23571 36.8017 7.27794 36.6044 7.42433 36.5041L18.7003 29.2308L7.355 35.7815C7.19686 35.8757 6.99225 35.824 6.898 35.6658C6.80374 35.5077 6.85553 35.3031 7.01366 35.2088L8.58366 34.2455L7.177 35.0575C7.01996 35.1536 6.81476 35.1042 6.71866 34.9471C6.62257 34.7901 6.67196 34.5849 6.829 34.4888L17.7403 27.4368L6.963 33.6588C6.80627 33.7437 6.61049 33.6903 6.5186 33.5376C6.42671 33.3848 6.47124 33.1868 6.61966 33.0881L12.8863 29.1548L6.877 32.6215C6.71992 32.708 6.52256 32.6547 6.43033 32.501C6.33809 32.3472 6.38405 32.148 6.53433 32.0501L11.099 29.2028L6.899 31.6288C6.7466 31.6967 6.56745 31.6415 6.47973 31.4996C6.39201 31.3577 6.42274 31.1727 6.55166 31.0668L15.2603 25.4575L7.00433 30.2201C6.84823 30.3089 6.6499 30.258 6.55575 30.1051C6.4616 29.9522 6.50549 29.7522 6.655 29.6528L15.765 23.6908L7.333 28.5595C7.17648 28.6486 6.9775 28.5972 6.88363 28.4435C6.78976 28.2898 6.83494 28.0894 6.98566 27.9908L14.553 23.1035L7.78366 27.0115C7.62757 27.1002 7.42923 27.0494 7.33508 26.8965C7.24094 26.7436 7.28482 26.5436 7.43433 26.4441L13.857 22.2395L8.39033 25.3948C8.23311 25.4907 8.02791 25.441 7.932 25.2838C7.83608 25.1266 7.88578 24.9214 8.043 24.8255L10.4697 23.2655L8.94166 24.1488C8.78753 24.2393 8.58948 24.1921 8.49271 24.0418C8.39594 23.8916 8.43489 23.6917 8.581 23.5888L13.9697 19.7388L10.333 21.8401C10.1804 21.9296 9.98444 21.8843 9.88663 21.7369C9.78882 21.5895 9.82322 21.3913 9.965 21.2855L12.9857 19.0048L12.3697 19.3608C12.2192 19.45 12.0253 19.4077 11.9256 19.2639C11.826 19.1201 11.8545 18.9237 11.991 18.8141L13.8957 17.2521C13.833 17.1744 13.8085 17.0726 13.829 16.9748L13.9237 16.5081C13.8063 16.4598 13.7266 16.3489 13.7181 16.2223C13.7096 16.0956 13.7738 15.9751 13.8837 15.9115L14.1957 15.7308C14.3091 15.6653 14.4505 15.6724 14.5568 15.7489C14.6632 15.8254 14.7149 15.9571 14.689 16.0855L14.629 16.3835L15.7623 15.7275C15.9127 15.64 16.1051 15.6829 16.2041 15.826C16.303 15.9692 16.2753 16.1643 16.1403 16.2741L15.563 16.7475L17.333 15.7248C17.4856 15.6353 17.6816 15.6807 17.7794 15.8281C17.8772 15.9755 17.8428 16.1736 17.701 16.2795L14.6817 18.5595L19.5983 15.7208C19.752 15.6339 19.9468 15.682 20.0425 15.8304C20.1382 15.9787 20.1015 16.176 19.959 16.2801L14.5657 20.1335L22.215 15.7168C22.3722 15.6209 22.5774 15.6706 22.6733 15.8278C22.7692 15.985 22.7195 16.1902 22.5623 16.2861L20.1357 17.8461L23.8283 15.7128C23.9844 15.6241 24.1828 15.6749 24.2769 15.8278C24.3711 15.9807 24.3272 16.1807 24.1777 16.2801L17.7537 20.4855L25.7997 15.8415C25.9567 15.7454 26.1619 15.7948 26.258 15.9518C26.3541 16.1088 26.3047 16.314 26.1477 16.4101L18.5823 21.2941L25.761 17.1501C25.9168 17.0643 26.1126 17.116 26.2058 17.2676C26.299 17.4192 26.2566 17.6172 26.1097 17.7175L16.9997 23.6801L26.7997 18.0208C26.9562 17.9317 27.1552 17.9831 27.249 18.1367C27.3429 18.2904 27.2977 18.4909 27.147 18.5895L18.4377 24.2001L27.7043 18.8495C27.8065 18.7883 27.9336 18.7862 28.0377 18.8441C28.1418 18.902 28.2071 19.011 28.209 19.1301C28.2109 19.2492 28.1492 19.3603 28.047 19.4215L23.4843 22.2668L28.2783 19.4995C28.4353 19.4115 28.6338 19.4641 28.7267 19.6182C28.8197 19.7723 28.7734 19.9724 28.6223 20.0701L22.349 24.0035L28.9117 20.2141C29.0687 20.118 29.2739 20.1674 29.37 20.3245C29.4661 20.4815 29.4167 20.6867 29.2597 20.7828L18.3483 27.8381L29.675 21.2988C29.8325 21.2117 30.0307 21.2654 30.1228 21.4201C30.2148 21.5748 30.1674 21.7746 30.0157 21.8715L28.4417 22.8381L30.0743 21.8948C30.2314 21.7987 30.4366 21.8481 30.5327 22.0051C30.6288 22.1622 30.5794 22.3674 30.4223 22.4635L19.149 29.7335L30.7463 23.0401C30.9038 22.9514 31.1033 23.0044 31.196 23.1595C31.2888 23.3146 31.241 23.5154 31.0883 23.6121L27.8603 25.6001L31.097 23.7335C31.254 23.6438 31.4538 23.6955 31.5475 23.8502C31.6412 24.0048 31.5945 24.2059 31.4423 24.3035L21.6323 30.5461L31.615 24.7828C31.7726 24.6876 31.9775 24.7382 32.0727 24.8958C32.1678 25.0534 32.1173 25.2583 31.9597 25.3535L22.8397 31.1335L31.9997 25.8441C32.1566 25.7544 32.3565 25.8062 32.4502 25.9608C32.5438 26.1154 32.4972 26.3166 32.345 26.4141L23.6377 31.9295L32.379 26.8821C32.536 26.7924 32.7358 26.8442 32.8295 26.9988C32.9232 27.1534 32.8765 27.3546 32.7243 27.4521L23.979 33.0041L32.091 28.3208C32.2475 28.2317 32.4465 28.2831 32.5404 28.4368C32.6342 28.5904 32.5891 28.7909 32.4383 28.8895L22.4663 35.3508L31.6463 30.0521C31.8038 29.9634 32.0033 30.0164 32.096 30.1715C32.1888 30.3266 32.141 30.5274 31.9883 30.6241L29.4143 32.2241L31.3797 31.0908C31.5355 31.005 31.7313 31.0567 31.8245 31.2083C31.9176 31.3598 31.8753 31.5579 31.7283 31.6581L23.9363 36.7201L30.9783 32.6535C31.135 32.5673 31.3317 32.6201 31.4242 32.7731C31.5167 32.9261 31.4721 33.1248 31.323 33.2235L27.6797 35.5335L30.6797 33.8001C30.8373 33.705 31.0422 33.7556 31.1373 33.9131C31.2325 34.0707 31.1819 34.2756 31.0243 34.3708L29.3577 35.4215L30.4203 34.8081C30.5763 34.7235 30.7712 34.7758 30.8637 34.9272C30.9563 35.0786 30.9141 35.2759 30.7677 35.3761L27.125 37.7335L30.1163 36.0068C30.2707 35.9205 30.4656 35.9699 30.5604 36.1192C30.6551 36.2685 30.6168 36.4658 30.473 36.5688L24.4063 40.7748L29.669 37.7368C29.8224 37.6496 30.0171 37.697 30.1133 37.8449C30.2095 37.9928 30.1737 38.1901 30.0317 38.2948L25.171 41.8281L29.2183 39.4915C29.3715 39.4051 29.5654 39.4524 29.6614 39.5997C29.7574 39.747 29.7225 39.9436 29.5817 40.0488L27.2903 41.7221L28.881 40.8041C29.0325 40.7181 29.2247 40.7633 29.322 40.9078C29.4194 41.0523 29.389 41.2474 29.2523 41.3555L28.2023 42.1721C28.3307 42.2092 28.4245 42.3192 28.4407 42.4518C28.457 42.5844 28.3926 42.7139 28.277 42.7808L24.911 44.7241C24.7595 44.8102 24.5673 44.765 24.47 44.6205C24.3726 44.476 24.403 44.2809 24.5397 44.1728L25.0023 43.8135L22.239 45.4081C22.0859 45.4946 21.892 45.4472 21.7959 45.2999C21.6999 45.1526 21.7348 44.956 21.8757 44.8508L24.167 43.1781L19.9997 45.5881C19.9481 45.6183 19.8893 45.6337 19.8297 45.6328Z" fill="#BE9468"/>
    <path d="M18.2956 17.6474C18.1654 17.6474 18.0472 17.5717 17.9928 17.4535C17.9383 17.3354 17.9576 17.1963 18.0422 17.0974L19.0262 15.9494L16.1596 17.6027C16.0209 17.6832 15.8446 17.6535 15.7399 17.5322C15.6352 17.4108 15.6317 17.2321 15.7316 17.1067L16.7316 15.8494L13.8449 17.5161C13.7015 17.599 13.5189 17.564 13.4163 17.434C13.3137 17.3039 13.3222 17.1183 13.4362 16.9981L14.2642 16.1254L13.0042 16.8534C12.8724 16.9297 12.7057 16.907 12.5991 16.7982C12.4926 16.6894 12.4733 16.5223 12.5522 16.3921L13.0129 15.6274C12.851 15.6973 12.6627 15.629 12.5832 15.4716C12.5038 15.3143 12.5606 15.1222 12.7129 15.0334L13.7976 14.4067C13.9293 14.3305 14.0961 14.3532 14.2026 14.462C14.3092 14.5707 14.3285 14.7379 14.2496 14.8681L13.7902 15.6294L15.9236 14.3981C16.0669 14.3161 16.2486 14.3515 16.3508 14.4812C16.453 14.6109 16.4448 14.7959 16.3316 14.9161L15.5036 15.7887L17.9122 14.4001C18.0507 14.3204 18.2263 14.3501 18.3307 14.471C18.4352 14.5919 18.4392 14.77 18.3402 14.8954L17.3402 16.1534L20.3802 14.4001C20.5208 14.3189 20.6995 14.3508 20.8033 14.4757C20.9071 14.6005 20.9058 14.782 20.8002 14.9054L19.8169 16.0534L22.6836 14.4001C22.8222 14.3196 22.9985 14.3493 23.1032 14.4706C23.2079 14.592 23.2114 14.7707 23.1116 14.8961L22.1116 16.1547L25.1509 14.4001C25.2936 14.3173 25.4753 14.3513 25.5784 14.4801C25.6815 14.6088 25.6749 14.7937 25.5629 14.9147L24.6236 15.9334L26.6676 14.7527C26.806 14.673 26.9816 14.7028 27.0861 14.8237C27.1905 14.9446 27.1945 15.1226 27.0956 15.2481L26.3762 16.1601L27.1416 15.7187C27.3008 15.6282 27.5034 15.6832 27.595 15.8418C27.6866 16.0005 27.633 16.2034 27.4749 16.2961L25.2122 17.6001C25.0739 17.6791 24.899 17.6492 24.7948 17.5287C24.6906 17.4083 24.6862 17.2309 24.7842 17.1054L25.5036 16.1907L23.0642 17.6001C22.9216 17.6819 22.7406 17.6475 22.6379 17.5191C22.5353 17.3906 22.5416 17.2065 22.6529 17.0854L23.5896 16.0667L20.9309 17.6001C20.7924 17.679 20.6175 17.6489 20.5134 17.5282C20.4093 17.4076 20.4052 17.2301 20.5036 17.1047L21.5036 15.8454L18.4642 17.6001C18.4132 17.6306 18.355 17.647 18.2956 17.6474Z" fill="#82624B"/>
    <path d="M36.3836 45.6082C36.2369 45.6082 36.1074 45.5123 36.0646 45.372C36.0218 45.2317 36.0758 45.08 36.1975 44.9982L36.3395 44.9028L35.2829 45.5128C35.1295 45.6001 34.9347 45.5527 34.8386 45.4047C34.7424 45.2568 34.7782 45.0595 34.9202 44.9548L39.7429 41.4515L33.3749 45.1282C33.2201 45.213 33.0259 45.1625 32.9322 45.0128C32.8384 44.8632 32.8776 44.6664 33.0215 44.5642L37.1922 41.7482L32.1522 44.6575C31.9976 44.7448 31.8016 44.6955 31.7066 44.5455C31.6117 44.3954 31.6511 44.1972 31.7962 44.0948L38.1156 39.7455L30.8682 43.9335C30.7133 44.0173 30.52 43.9661 30.4268 43.8166C30.3336 43.6672 30.3728 43.471 30.5162 43.3688L36.7029 39.2162L29.9029 43.1382C29.7464 43.2291 29.5459 43.1786 29.4512 43.0244C29.3565 42.8701 29.4023 42.6685 29.5542 42.5702L33.8755 39.7662L29.2309 42.4475C29.0733 42.5428 28.8682 42.4924 28.7729 42.3348C28.6775 42.1772 28.728 41.9722 28.8855 41.8768L30.5249 40.8402L28.7495 41.8668C28.5938 41.9554 28.396 41.9051 28.3015 41.7529C28.2071 41.6007 28.2498 41.4011 28.3982 41.3008L35.1135 36.8302L28.1075 40.8735C27.95 40.9687 27.7451 40.9181 27.6499 40.7605C27.5547 40.6029 27.6053 40.398 27.7629 40.3028L29.5142 39.1955L27.7495 40.2135C27.5932 40.2982 27.3979 40.2453 27.3057 40.0933C27.2135 39.9413 27.2568 39.7436 27.4042 39.6442L29.8475 38.0902L27.4475 39.4735C27.29 39.5687 27.0851 39.5181 26.9899 39.3605C26.8947 39.2029 26.9453 38.998 27.1029 38.9028L28.1349 38.2535L27.2329 38.7742C27.0767 38.8614 26.8795 38.8098 26.7861 38.6573C26.6926 38.5048 26.7362 38.3057 26.8849 38.2062L30.8509 35.6362L27.0129 37.8515C26.8571 37.9386 26.6603 37.8876 26.5666 37.7357C26.4728 37.5839 26.5152 37.3851 26.6629 37.2848L31.3689 34.1875L26.9022 36.7655C26.7478 36.8518 26.5529 36.8024 26.4582 36.6531C26.3634 36.5038 26.4018 36.3065 26.5455 36.2035L32.8389 31.8495L26.9589 35.2435C26.8029 35.3281 26.608 35.2758 26.5155 35.1244C26.4229 34.9731 26.4652 34.7757 26.6115 34.6755L27.6462 34.0088L27.0655 34.3422C26.9095 34.4348 26.7081 34.3857 26.6123 34.2316C26.5164 34.0775 26.5614 33.8751 26.7135 33.7762L29.0282 32.2295L27.4355 33.1488C27.2839 33.2337 27.0925 33.1879 26.9958 33.0436C26.899 32.8992 26.9294 32.7048 27.0655 32.5968L31.0055 29.5582L28.5182 30.9935C28.3661 31.0784 28.1742 31.0318 28.078 30.8866C27.9817 30.7414 28.0135 30.5466 28.1509 30.4395L29.8095 29.1808C29.777 29.1546 29.7496 29.1225 29.7289 29.0862C29.6367 28.9269 29.691 28.7231 29.8502 28.6308L32.7255 26.9715C32.8779 26.8828 33.073 26.9282 33.1707 27.0749C33.2683 27.2217 33.2348 27.4191 33.0942 27.5255L32.7789 27.7642L34.9969 26.4835C35.1489 26.3943 35.3442 26.4389 35.4424 26.5853C35.5406 26.7317 35.5078 26.9293 35.3675 27.0362L31.4269 30.0735L37.5029 26.5662C37.6586 26.4776 37.8564 26.5279 37.9509 26.6801C38.0454 26.8323 38.0027 27.0319 37.8542 27.1321L35.5429 28.6768L38.6549 26.8801C38.8119 26.7841 39.0171 26.8335 39.1132 26.9905C39.2093 27.1475 39.1599 27.3527 39.0029 27.4488L37.9615 28.1228L39.5736 27.1895C39.7284 27.0994 39.9268 27.1478 40.0227 27.2991C40.1187 27.4505 40.0778 27.6505 39.9302 27.7521L33.6382 32.1048L40.9049 27.9108C41.061 27.8221 41.2593 27.8729 41.3535 28.0258C41.4476 28.1787 41.4037 28.3787 41.2542 28.4781L36.5475 31.5755L41.7522 28.5708C41.9093 28.4747 42.1145 28.5241 42.2106 28.6812C42.3067 28.8382 42.2573 29.0434 42.1002 29.1395L38.1349 31.7122L42.4822 29.2001C42.6386 29.1166 42.8331 29.1701 42.9247 29.3219C43.0164 29.4737 42.9731 29.6707 42.8262 29.7701L41.7976 30.4195L42.9429 29.7588C43.0995 29.6713 43.2972 29.7234 43.3904 29.8767C43.4835 30.03 43.4387 30.2295 43.2889 30.3282L40.8536 31.8768L43.4536 30.3761C43.5555 30.3146 43.6825 30.3121 43.7868 30.3696C43.8911 30.4271 43.9568 30.5358 43.9592 30.6549C43.9615 30.774 43.9002 30.8852 43.7982 30.9468L42.0502 32.0535L43.8382 31.0215C43.9939 30.9329 44.1918 30.9832 44.2862 31.1354C44.3807 31.2876 44.338 31.4873 44.1896 31.5875L37.4735 36.0582L44.4016 32.0582C44.5582 31.972 44.7549 32.0248 44.8474 32.1778C44.9399 32.3307 44.8953 32.5294 44.7462 32.6282L43.1082 33.6668L44.6329 32.7868C44.7887 32.701 44.9845 32.7527 45.0777 32.9043C45.1708 33.0559 45.1285 33.2539 44.9816 33.3542L40.6576 36.1602L44.9176 33.7015C45.0725 33.6177 45.2658 33.6689 45.359 33.8184C45.4521 33.9678 45.413 34.1639 45.2696 34.2662L39.0822 38.4195L45.0722 34.9608C45.2274 34.8689 45.4276 34.917 45.5239 35.0695C45.6203 35.222 45.5779 35.4235 45.4282 35.5242L39.1082 39.8735L45.0762 36.4282C45.231 36.3433 45.4252 36.3939 45.5189 36.5435C45.6127 36.6931 45.5735 36.8899 45.4296 36.9922L41.2629 39.8055L44.9296 37.6895C45.0829 37.6022 45.2777 37.6496 45.3739 37.7976C45.47 37.9455 45.4342 38.1428 45.2922 38.2475L40.4682 41.7502L44.3109 39.5335C44.4665 39.4433 44.6656 39.4928 44.7609 39.6455C44.8561 39.7981 44.813 39.9987 44.6636 40.0988L43.8762 40.6322C44.0162 40.64 44.1363 40.7346 44.1768 40.8689C44.2172 41.0031 44.1693 41.1483 44.0569 41.2322L42.7409 42.1935C42.8231 42.2173 42.8928 42.2723 42.9349 42.3468C43.0266 42.5059 42.9723 42.7092 42.8136 42.8015L38.5769 45.2475C38.4236 45.336 38.2278 45.2893 38.1311 45.1411C38.0343 44.9929 38.0702 44.7949 38.2129 44.6902L38.7662 44.2842L36.5502 45.5635C36.4996 45.5929 36.4421 45.6083 36.3836 45.6082Z" fill="#EE3A48"/>
    <path d="M10.7454 42.2074C15.9634 46.78 23.3774 46.4894 28.726 42.4534C30.1765 44.0499 32.1332 45.0975 34.266 45.4194C38.5435 46.061 42.7626 43.9452 44.8067 40.1334C47.7754 34.272 43.8734 27.7594 37.728 26.572C37.7152 26.5711 37.7022 26.5711 37.6894 26.572C37.6747 26.5665 37.6595 26.5623 37.644 26.5594C36.0949 26.3957 34.5287 26.5546 33.044 27.026C32.0254 23.9227 29.8127 18.8347 26.6314 17.2854C27.4847 16.9107 28.2407 16.208 27.6054 15.1647C27.1842 14.6393 26.5253 14.3632 25.8554 14.4314C26.1496 13.5287 26.4434 12.626 26.7367 11.7234C27.0414 10.7854 27.7114 9.54004 27.77 8.54538C27.8414 7.33938 26.2367 7.28271 25.3194 7.07338C22.9899 6.54426 20.5923 6.38119 18.2127 6.59004C16.5195 6.72342 14.8492 7.06465 13.2394 7.60604C12.402 7.92338 12.102 8.20604 12.326 9.08604C12.7887 10.908 13.484 12.6994 14.0787 14.486C13.066 14.6594 11.9454 15.24 12.274 16.4634C12.4023 16.9918 12.8387 17.3893 13.3767 17.468C11.79 18.3947 10.4274 20.3814 9.52737 21.7347C5.34004 28.0347 4.64337 36.8594 10.7454 42.2074ZM36.9774 26.962C40.786 27.7127 43.8934 30.4014 44.67 34.2954C45.8567 40.248 40.8034 46.418 34.198 44.8687C25.552 42.8434 25.2807 30.636 32.326 27.5894C32.6132 27.6497 32.9095 27.5404 33.0887 27.308C34.3473 26.9265 35.6712 26.8087 36.9774 26.962ZM13.1994 8.55004C13.2967 7.15938 16.836 7.05271 17.784 6.94604C20.2055 6.74445 22.6436 6.94539 24.9994 7.54071C25.7187 7.72071 26.7527 7.87404 26.822 8.72338C26.7737 8.9984 26.6868 9.26524 26.564 9.51604L24.964 14.4427C24.7347 14.454 24.516 14.4654 24.3307 14.4654C21.37 14.4654 18.092 14.074 15.0967 14.3654L13.7947 10.3654C13.5076 9.79302 13.307 9.18125 13.1994 8.55004ZM13.4347 15.3694C13.6576 15.1099 13.9583 14.9294 14.292 14.8547C14.5128 14.8628 14.7323 14.8184 14.9327 14.7254C16.5534 14.508 18.9127 14.868 19.9754 14.868H24.126C24.5394 14.821 24.9567 14.821 25.37 14.868C26.1947 15.086 27.7974 16.486 26.2147 17.0907C24.8734 16.5854 22.5647 17.0434 21.1514 17.0434C19.226 17.0434 16.776 16.6267 14.8247 16.966C13.5734 16.7334 12.7687 16.272 13.4367 15.3694H13.4347ZM13.1327 18.58C13.7581 18.0118 14.5413 17.6468 15.3787 17.5334H20.7994C21.466 17.5827 22.0894 17.6234 22.6274 17.6234C24.2894 17.6234 25.2647 17.3567 26.5374 18.4407C29.2594 20.756 31.016 24.0107 32.108 27.364C29.7093 28.3387 27.8088 30.245 26.8414 32.6467C25.6158 35.7975 26.186 39.3644 28.3327 41.976C25.1202 44.6009 20.8462 45.5313 16.8333 44.4794C12.8204 43.4275 9.55241 40.52 8.04071 36.6567C5.54537 30.2967 8.59937 23.1574 13.1327 18.58Z" fill="#0F474A"/>
    <path d="M19.6792 36.4905C19.4821 36.4905 19.3299 36.3594 19.2224 36.0971C19.0361 35.6404 18.7549 35.1001 18.3788 34.4761L17.4277 32.8416C17.2199 33.0496 16.8975 33.3412 16.4605 33.7165C16.4211 34.4173 16.4013 35.1001 16.4013 35.7648C16.4013 35.9682 16.3512 36.1333 16.2509 36.2599C16.1542 36.3865 16.0288 36.4498 15.8748 36.4498C15.5129 36.4498 15.332 36.1423 15.332 35.5274C15.332 35.1521 15.3517 34.5914 15.3911 33.8454C15.4341 33.0948 15.4556 32.5318 15.4556 32.1566C15.4556 31.4693 15.4628 30.6848 15.4771 29.8031C15.495 28.9168 15.504 28.1346 15.504 27.4564C15.504 27.2529 15.495 27.0133 15.4771 26.7374C15.4628 26.4616 15.4556 26.222 15.4556 26.0185C15.4556 25.815 15.504 25.65 15.6007 25.5234C15.701 25.3968 15.8282 25.3335 15.9822 25.3335C16.1363 25.3335 16.2616 25.3968 16.3584 25.5234C16.4587 25.65 16.5088 25.815 16.5088 26.0185C16.5088 26.2265 16.5178 26.4729 16.5357 26.7578C16.5536 27.0381 16.5626 27.2823 16.5626 27.4903L16.5249 29.6742C16.507 30.461 16.5017 31.2477 16.5088 32.0345C16.996 31.5642 17.4653 31.0488 17.9167 30.4881L19.0988 28.9485C19.217 28.7948 19.3442 28.7179 19.4803 28.7179C19.62 28.7179 19.7454 28.788 19.8565 28.9282C19.9711 29.0683 20.0284 29.2311 20.0284 29.4165C20.0284 29.5702 19.9765 29.7217 19.8726 29.8709C19.432 30.522 18.8893 31.2206 18.2444 31.9667L19.4159 33.981C19.9639 34.926 20.238 35.541 20.238 35.8258C20.238 36.0067 20.1807 36.1627 20.066 36.2938C19.955 36.4249 19.826 36.4905 19.6792 36.4905Z" fill="#0F474A"/>
    <path d="M25.3267 31.2002C25.3016 31.7654 25.1225 32.048 24.7893 32.048C24.4812 32.048 24.3272 31.8242 24.3272 31.3766C24.3272 31.2907 24.3218 31.1324 24.3111 30.9018L24.295 30.3321C23.7289 30.418 23.2758 30.6192 22.9355 30.9357C22.6166 31.2296 22.3516 31.6727 22.1402 32.2651L22.1509 35.9818C22.1509 36.4385 21.9736 36.6668 21.619 36.6668C21.3037 36.6668 21.1461 36.4385 21.1461 35.9818V31.2206C21.1461 31.0714 21.1497 30.8476 21.1569 30.5491C21.1676 30.2507 21.173 30.0269 21.173 29.8777C21.173 29.421 21.3306 29.1927 21.6458 29.1927C21.9969 29.1927 22.1742 29.568 22.1778 30.3185C22.8656 29.482 23.6286 29.0638 24.4669 29.0638C24.7571 29.0638 24.9738 29.2017 25.1171 29.4775C25.2604 29.7533 25.332 30.1693 25.332 30.7255C25.332 30.9606 25.3302 31.1189 25.3267 31.2002Z" fill="#0F474A"/>
    <path d="M11.1617 25.9134C11.8523 24.3914 12.795 22.3501 14.1283 21.2841C15.415 20.2547 16.835 20.1941 18.3523 20.1941C18.5523 20.1941 19.443 19.8061 18.9803 19.8061C17.5697 19.8061 16.1757 19.7327 14.847 20.2994C12.5637 21.2734 11.1803 23.9507 10.2103 26.0867C10.1457 26.2274 11.0503 26.1594 11.1617 25.9134Z" fill="#0F474A"/>
    <path d="M9.28797 28.7253C9.23241 28.9476 9.18152 29.1698 9.1353 29.392C9.0573 29.764 10.0313 29.6133 10.102 29.2747C10.1486 29.0524 10.1995 28.8302 10.2546 28.608C10.3446 28.246 9.37197 28.388 9.28797 28.7253Z" fill="#0F474A"/>
    <path d="M32.2243 32.2141L35.4716 36.1101L32.2216 40.0094C31.9829 40.2967 32.9323 40.2047 33.1109 39.9907C34.0443 38.8716 34.9776 37.7527 35.9109 36.6341L38.8943 40.2141C39.1783 40.5547 40.0943 40.1674 39.7783 39.7861L36.5309 35.8901L39.7809 31.9907C40.0196 31.7034 39.0703 31.7954 38.8916 32.0094C37.9583 33.1285 37.026 34.2474 36.0949 35.3661L33.1116 31.7861C32.8243 31.4454 31.9063 31.8327 32.2243 32.2141Z" fill="#0F474A"/>
</svg>
