<svg width="52" height="52" viewBox="0 0 52 52" fill="none"
    xmlns="http://www.w3.org/2000/svg">
    <path d="M41.6312 40.4974C41.4852 40.4974 41.3574 40.3994 41.3196 40.2583C41.2818 40.1173 41.3435 39.9685 41.4699 39.8955L44.4964 38.1484C44.6354 38.0691 44.8116 38.1036 44.9102 38.2297C45.0089 38.3557 45.0003 38.5351 44.8899 38.651L44.4331 39.1271C44.4825 39.1547 44.5234 39.1953 44.5512 39.2445C44.6403 39.3988 44.5874 39.5961 44.4331 39.6852L43.1918 40.402C43.0528 40.4823 42.8758 40.4481 42.7767 40.3217C42.6776 40.1953 42.6865 40.0153 42.7976 39.8994L42.8531 39.8413L41.7925 40.4536C41.7435 40.4821 41.6879 40.4972 41.6312 40.4974Z" fill="#295474"/>
    <path d="M39.7425 44.8433C39.6235 44.8432 39.5142 44.7775 39.4582 44.6725C39.4022 44.5675 39.4086 44.4403 39.4747 44.3414L39.7812 43.8826L39.0618 44.2975C38.922 44.3743 38.7469 44.3374 38.6501 44.2105C38.5532 44.0836 38.5637 43.905 38.6747 43.7904L38.8593 43.6059L38.3734 43.8865C38.2348 43.9667 38.0583 43.9331 37.9589 43.8075C37.8595 43.6819 37.8674 43.5023 37.9773 43.3859L39.0805 42.2155L37.298 43.2446C37.1484 43.3304 36.9577 43.2834 36.8652 43.1379C36.7726 42.9923 36.811 42.7998 36.9522 42.7007L38.3515 41.7233L36.5167 42.7807C36.3673 42.8654 36.1778 42.8183 36.0855 42.6736C35.9932 42.5288 36.0304 42.3372 36.1702 42.2375L38.5167 40.591L35.6354 42.2543C35.4867 42.3396 35.2973 42.2937 35.2041 42.1499C35.1109 42.0061 35.1465 41.8144 35.2851 41.7136L39.3496 38.782L34.5044 41.5788C34.3556 41.6617 34.168 41.6145 34.076 41.4712C33.984 41.3278 34.0193 41.1376 34.1567 41.0368L38.798 37.7523L33.3554 40.8943C33.2044 40.9818 33.0111 40.9334 32.9193 40.7849C32.8274 40.6365 32.8703 40.4419 33.016 40.3459L35.7541 38.533L32.3728 40.4846C32.2217 40.569 32.0308 40.5191 31.9404 40.3715C31.85 40.2239 31.8922 40.0312 32.036 39.9349L33.8896 38.7349L30.9134 40.4517C30.7639 40.5329 30.5769 40.484 30.4863 40.3399C30.3958 40.1957 30.4328 40.006 30.5709 39.9065L37.3251 35.3078L28.4134 40.4517C28.2625 40.5325 28.0746 40.4813 27.9856 40.335C27.8966 40.1887 27.9374 39.9983 28.0786 39.9014L32.798 36.8762L26.6044 40.4523C26.452 40.5402 26.2574 40.4898 26.1668 40.339C26.0762 40.1883 26.1231 39.9927 26.2722 39.8994L28.2412 38.6736L25.1573 40.4517C25.0055 40.5317 24.8176 40.4788 24.7298 40.3314C24.642 40.1839 24.685 39.9935 24.8276 39.8981L25.116 39.7207L23.8483 40.4517C23.697 40.5337 23.508 40.4825 23.4188 40.3354C23.3295 40.1882 23.3715 39.997 23.5141 39.9007L31.7483 34.6665L21.727 40.4517C21.5752 40.5327 21.3866 40.4804 21.2982 40.3328C21.2099 40.1852 21.2529 39.9942 21.396 39.8988L26.4147 36.7943L20.0793 40.4517C19.9272 40.5341 19.7371 40.482 19.6485 40.3334C19.5598 40.1849 19.6041 39.9928 19.7489 39.8981L25.5734 36.3072L18.8205 40.2072C18.6677 40.2987 18.4695 40.2491 18.378 40.0962C18.2864 39.9433 18.3361 39.7452 18.4889 39.6536L27.678 33.942L18.0786 39.4839C17.9267 39.5707 17.7333 39.5206 17.6427 39.371C17.552 39.2214 17.5971 39.0268 17.7444 38.9323L30.9683 30.5652L17.7941 38.1717C17.6427 38.2526 17.4545 38.2008 17.3659 38.0539C17.2772 37.9069 17.3191 37.7163 17.4612 37.6201L29.7064 29.902L17.7941 36.7794C17.6423 36.8594 17.4544 36.8066 17.3665 36.6591C17.2787 36.5117 17.3217 36.3213 17.4644 36.2259L22.4231 33.182L17.7941 35.8536C17.6431 35.9344 17.4553 35.8832 17.3663 35.7369C17.2772 35.5906 17.3181 35.4002 17.4593 35.3033L28.496 28.2446L17.7941 34.4233C17.6422 34.5084 17.4501 34.4576 17.3601 34.3084C17.2702 34.1592 17.315 33.9656 17.4612 33.871L24.1767 29.6465L17.7941 33.331C17.6431 33.4119 17.4553 33.3606 17.3663 33.2143C17.2772 33.068 17.3181 32.8776 17.4593 32.7807L24.5644 28.2355L17.7941 32.1439C17.6423 32.225 17.4537 32.1727 17.3653 32.0251C17.277 31.8775 17.32 31.6865 17.4631 31.591L18.3302 31.0517L17.7941 31.3614C17.6429 31.4445 17.453 31.394 17.3632 31.2466C17.2734 31.0993 17.3154 30.9073 17.4586 30.811L22.1354 27.8001L17.7941 30.3059C17.6416 30.398 17.4433 30.349 17.3512 30.1965C17.2591 30.044 17.308 29.8457 17.4605 29.7536L18.6625 28.993L17.7941 29.4936C17.6442 29.5793 17.4533 29.5317 17.3612 29.3857C17.269 29.2396 17.3083 29.0468 17.4502 28.9485L22.8334 25.2504L17.7941 28.1594C17.6434 28.2451 17.4519 28.1964 17.3605 28.0492C17.2691 27.9019 17.3104 27.7087 17.4541 27.6117L19.6857 26.1226L17.7941 27.2149C17.6439 27.3021 17.4516 27.2547 17.3591 27.1076C17.2666 26.9606 17.3072 26.7667 17.4509 26.6691L19.2805 25.4194L17.7967 26.2768C17.6504 26.3618 17.4634 26.3195 17.3681 26.1797C17.2728 26.04 17.3016 25.8503 17.4341 25.7452L20.5264 23.2749L17.7941 24.853C17.6517 24.9369 17.469 24.8996 17.3709 24.7667C17.2727 24.6338 17.2908 24.4482 17.4128 24.3368L19.3212 22.5633L17.7941 23.4452C17.6629 23.5211 17.4966 23.4955 17.3944 23.3837C17.2922 23.2718 17.2816 23.1039 17.3689 22.9801L18.1509 21.871L17.7941 22.0768C17.6771 22.1447 17.5301 22.1324 17.4261 22.0459C17.322 21.9594 17.283 21.8172 17.3283 21.6897L17.4573 21.3143C17.363 21.2532 17.3072 21.1475 17.3101 21.0351C17.313 20.9228 17.3741 20.82 17.4715 20.7639L17.7941 20.5781C17.9109 20.5107 18.0573 20.523 18.1612 20.6091C18.2647 20.6948 18.3043 20.8356 18.2605 20.9626L18.2186 21.0846L19.0973 20.5807C19.2283 20.5054 19.3941 20.5311 19.4961 20.6426C19.5981 20.754 19.6091 20.9214 19.5225 21.0452L18.7405 22.1568L21.4689 20.5807C21.6112 20.4981 21.7929 20.5358 21.8905 20.6682C21.9882 20.8006 21.9706 20.9853 21.8496 21.0968L19.9405 22.871L23.907 20.5807C24.0529 20.4978 24.238 20.5407 24.3327 20.6793C24.4273 20.8179 24.3999 21.0059 24.2696 21.1117L21.1773 23.5807L26.3767 20.5807C26.5264 20.4974 26.7151 20.5458 26.8064 20.6908C26.8977 20.8358 26.8597 21.0268 26.7199 21.1259L24.8941 22.3717L28.0005 20.5807C28.1507 20.4987 28.3388 20.5482 28.4291 20.6936C28.5194 20.8389 28.4806 21.0295 28.3405 21.1278L26.1096 22.6162L29.6341 20.5807C29.7836 20.4984 29.9713 20.5467 30.0625 20.691C30.1536 20.8353 30.1166 21.0256 29.978 21.1252L24.5954 24.8239L31.9451 20.5807C32.0967 20.4973 32.287 20.5484 32.3765 20.6965C32.4661 20.8445 32.4229 21.0368 32.2786 21.1323L31.0676 21.8994L33.3554 20.5807C33.5061 20.5009 33.6929 20.5521 33.7817 20.6977C33.8706 20.8433 33.8308 21.0329 33.6909 21.1304L29.0147 24.1414L35.1805 20.5807C35.3323 20.4997 35.5209 20.552 35.6093 20.6996C35.6977 20.8472 35.6546 21.0382 35.5115 21.1336L34.6431 21.6736L36.5367 20.5807C36.6879 20.4976 36.8777 20.5481 36.9676 20.6955C37.0574 20.8428 37.0153 21.0347 36.8722 21.131L29.7664 25.6775L38.5928 20.5807C38.7442 20.4998 38.9324 20.5516 39.021 20.6985C39.1097 20.8455 39.0678 21.0361 38.9257 21.1323L32.2083 25.3549L40.4838 20.5807C40.635 20.4976 40.8248 20.5481 40.9147 20.6955C41.0045 20.8428 40.9624 21.0347 40.8193 21.131L29.7812 28.1885L42.8715 20.631C43.0236 20.5486 43.2136 20.6008 43.3023 20.7493C43.3909 20.8979 43.3466 21.0899 43.2018 21.1846L38.2341 24.2336L43.7954 21.0226C43.9479 20.9305 44.1462 20.9795 44.2383 21.132C44.3304 21.2845 44.2814 21.4828 44.1289 21.5749L31.8883 29.2904L44.4386 22.0439C44.5911 21.9517 44.7895 22.0005 44.8818 22.153C44.9741 22.3055 44.9253 22.5039 44.7728 22.5962L31.5489 30.962L44.5296 23.4678C44.682 23.382 44.875 23.4332 44.9648 23.5833C45.0545 23.7334 45.0083 23.9278 44.8605 24.0214L35.6631 29.7381L44.5296 24.6194C44.6826 24.5282 44.8806 24.5783 44.9718 24.7314C45.063 24.8844 45.0129 25.0824 44.8599 25.1736L39.0425 28.7607L44.5264 25.593C44.6784 25.5105 44.8685 25.5627 44.9571 25.7112C45.0458 25.8598 45.0015 26.0518 44.8567 26.1465L39.8483 29.2433L44.5264 26.5433C44.6776 26.4613 44.8666 26.5125 44.9559 26.6596C45.0451 26.8067 45.0032 26.998 44.8605 27.0943L36.6302 32.3297L44.5296 27.7685C44.682 27.6842 44.8738 27.7361 44.9629 27.8858C45.0519 28.0355 45.0061 28.2289 44.8593 28.3226L44.5451 28.5162C44.6998 28.4323 44.8933 28.488 44.9798 28.6414C45.0662 28.7948 45.0137 28.9891 44.8618 29.0781L42.8941 30.3039L44.5302 29.3594C44.6817 29.2747 44.8731 29.3251 44.9633 29.4735C45.0534 29.6218 45.01 29.8149 44.8651 29.9104L40.136 32.9426L44.5302 30.4059C44.6802 30.3215 44.8701 30.3698 44.9616 30.5155C45.0531 30.6613 45.014 30.8533 44.8728 30.9517L38.1212 35.5485L44.5302 31.8485C44.6817 31.7622 44.8742 31.8119 44.9651 31.9607C45.0559 32.1094 45.0122 32.3034 44.8664 32.3988L43.0109 33.5994L44.5302 32.7233C44.6812 32.6357 44.8745 32.6842 44.9663 32.8326C45.0582 32.981 45.0153 33.1756 44.8696 33.2717L42.1347 35.0826L44.5302 33.7001C44.679 33.6172 44.8667 33.6643 44.9587 33.8077C45.0507 33.9511 45.0153 34.1413 44.878 34.242L40.2328 37.5272L44.5283 35.0478C44.6769 34.9625 44.8664 35.0083 44.9596 35.1522C45.0528 35.296 45.0172 35.4876 44.8786 35.5885L40.8141 38.5214L44.5289 36.3775C44.6783 36.2928 44.8678 36.3398 44.9601 36.4846C45.0524 36.6293 45.0152 36.821 44.8754 36.9207L42.536 38.5614L44.5302 37.4104C44.6794 37.3278 44.867 37.3755 44.9586 37.5194C45.0502 37.6632 45.014 37.8534 44.876 37.9536L41.0586 40.6188L41.0734 40.6368C41.1727 40.7623 41.1651 40.9416 41.0554 41.0581L39.9515 42.2291L40.6612 41.8207C40.8013 41.7429 40.9773 41.7797 41.0744 41.9071C41.1716 42.0345 41.1605 42.214 41.0483 42.3285L40.787 42.5897C40.8875 42.5796 40.987 42.6166 41.0567 42.6897C41.1591 42.7993 41.1725 42.9651 41.0889 43.0897L40.7599 43.5814C40.8948 43.5555 41.0312 43.6179 41.0999 43.7368C41.1891 43.891 41.1365 44.0882 40.9825 44.1775L39.9038 44.8001C39.8549 44.8287 39.7991 44.8436 39.7425 44.8433Z" fill="#295474"/>
    <path d="M35.2089 37.2503C35.07 37.2503 34.9468 37.1615 34.9028 37.0298C34.8589 36.898 34.9042 36.753 35.0153 36.6697L36.0386 35.9226L34.0121 37.0916C33.8639 37.1752 33.6762 37.1294 33.5833 36.9868C33.4904 36.8443 33.5242 36.6541 33.6605 36.5523L36.3482 34.5877L32.6998 36.6935C32.5509 36.7785 32.3614 36.7321 32.2687 36.5878C32.1759 36.4435 32.2123 36.2519 32.3515 36.1516L35.6811 33.7832L31.6424 36.1148C31.4935 36.2012 31.3031 36.1554 31.2097 36.0108C31.1163 35.8662 31.1528 35.6738 31.2927 35.5735L35.756 32.3684L30.6637 35.3084C30.5127 35.3959 30.3195 35.3475 30.2276 35.1991C30.1357 35.0506 30.1786 34.8561 30.3244 34.76L32.0282 33.6316L30.1205 34.7329C29.9712 34.8176 29.7816 34.7705 29.6893 34.6258C29.597 34.481 29.6342 34.2893 29.774 34.1897L34.2031 31.089L29.5211 33.7916C29.3722 33.8779 29.1818 33.8322 29.0884 33.6876C28.995 33.543 29.0315 33.3506 29.1715 33.2503L34.1856 29.6523L29.054 32.6148C28.904 32.6992 28.7142 32.6509 28.6227 32.5052C28.5312 32.3594 28.5703 32.1675 28.7115 32.069L31.7005 30.0303L28.8618 31.669C28.7112 31.7563 28.5185 31.7084 28.4263 31.5607C28.3342 31.413 28.3759 31.2188 28.5205 31.1219L30.0689 30.0832L28.7656 30.8387C28.6167 30.9237 28.4272 30.8772 28.3345 30.7329C28.2417 30.5887 28.2781 30.397 28.4173 30.2968L31.4192 28.1594L28.8966 29.6129C28.7499 29.6979 28.5624 29.6547 28.4676 29.5142C28.3727 29.3736 28.4029 29.1836 28.5366 29.0794L31.6069 26.6684L29.4456 27.9168C29.3011 28.0005 29.1166 27.96 29.0203 27.8235C28.9241 27.687 28.9479 27.4996 29.0753 27.3916L30.6237 26.0748C30.5068 26.0318 30.4251 25.9252 30.4139 25.801C30.4027 25.6769 30.4641 25.5575 30.5715 25.4942L32.894 24.1555C33.0383 24.0735 33.2212 24.1143 33.317 24.2499C33.4127 24.3854 33.3899 24.5715 33.2644 24.68L32.1998 25.5832L35.216 23.8413C35.3625 23.7569 35.5493 23.8 35.6441 23.94C35.7389 24.0801 35.7094 24.2695 35.5766 24.3742L32.5056 26.7858L36.985 24.1994C37.134 24.1144 37.3234 24.1608 37.4162 24.3051C37.5089 24.4494 37.4726 24.641 37.3334 24.7413L34.3308 26.8781L38.0915 24.7097C38.2421 24.6224 38.4348 24.6703 38.5269 24.818C38.619 24.9657 38.5774 25.1599 38.4327 25.2568L36.8792 26.2981L38.8244 25.1755C38.9739 25.0942 39.1609 25.1432 39.2515 25.2873C39.342 25.4314 39.305 25.6211 39.1669 25.7206L36.1844 27.7555L39.5095 25.8355C39.6584 25.7492 39.8489 25.7949 39.9423 25.9395C40.0357 26.0841 39.9991 26.2765 39.8592 26.3768L34.8476 29.9735L40.2837 26.8348C40.433 26.7501 40.6226 26.7972 40.7149 26.942C40.8072 27.0867 40.77 27.2784 40.6302 27.3781L36.1979 30.4813L40.7979 27.8258C40.9489 27.7383 41.1422 27.7867 41.234 27.9351C41.3259 28.0836 41.283 28.2781 41.1373 28.3742L39.4353 29.5013L41.0618 28.5626C41.2107 28.4762 41.4011 28.522 41.4945 28.6666C41.5879 28.8112 41.5514 29.0036 41.4115 29.1039L36.9469 32.309L41.2553 29.8226C41.4043 29.7376 41.5938 29.7841 41.6865 29.9283C41.7793 30.0726 41.7429 30.2643 41.6037 30.3645L38.2721 32.7342L41.2115 31.0374C41.3596 30.9538 41.5473 30.9996 41.6402 31.1422C41.7332 31.2847 41.6994 31.4749 41.5631 31.5768L38.8773 33.5387L40.8973 32.3723C41.0455 32.2886 41.2331 32.3345 41.326 32.477C41.419 32.6196 41.3852 32.8098 41.2489 32.9116L40.2269 33.6594L40.2986 33.6181C40.3986 33.5545 40.5254 33.5509 40.6288 33.6086C40.7323 33.6664 40.7958 33.7762 40.7942 33.8947C40.7926 34.0131 40.7261 34.1212 40.6211 34.1761L35.3702 37.2084C35.3211 37.2365 35.2654 37.251 35.2089 37.2503Z" fill="#FFC306"/>
    <path d="M11.4045 31.2903C11.2615 31.2903 11.1357 31.1961 11.0953 31.0589C11.0548 30.9217 11.1096 30.7744 11.2297 30.6968L21.0232 24.3542L11.3458 29.9426C11.1941 30.0248 11.0047 29.9731 10.9157 29.8253C10.8268 29.6774 10.8699 29.4858 11.0135 29.3903L16.6122 25.8794L11.3426 28.9207C11.191 28.9996 11.0043 28.9467 10.9166 28.8C10.829 28.6533 10.8709 28.4638 11.0122 28.3678L13.6535 26.7329L11.3426 28.0645C11.1916 28.1454 11.0037 28.0941 10.9147 27.9478C10.8257 27.8015 10.8665 27.6111 11.0077 27.5142L19.7755 21.9013L10.9729 26.9839C10.8213 27.0672 10.6309 27.0162 10.5414 26.8681C10.4519 26.7201 10.4951 26.5278 10.6393 26.4323L17.9439 21.8174L9.19804 26.8665C9.04501 26.9577 8.847 26.9076 8.75579 26.7545C8.66457 26.6015 8.71469 26.4035 8.86772 26.3123L11.7561 24.5361L8.30514 26.5284C8.15347 26.6106 7.96401 26.5589 7.87508 26.4111C7.78616 26.2633 7.82925 26.0716 7.97288 25.9761L16.489 20.6419L7.63288 25.7529C7.48161 25.8349 7.29261 25.7837 7.20338 25.6366C7.11414 25.4895 7.15608 25.2982 7.29869 25.202L19.4129 17.4684L7.47224 24.3619C7.31885 24.453 7.1207 24.4024 7.02966 24.249C6.93862 24.0957 6.98917 23.8975 7.14256 23.8065L11.8871 20.8871L7.47224 23.4374C7.32049 23.5185 7.13184 23.4662 7.04348 23.3186C6.95512 23.171 6.99815 22.98 7.14127 22.8845L13.6445 18.8555L7.47224 22.4181C7.32016 22.5005 7.13011 22.4484 7.04146 22.2998C6.95281 22.1513 6.99713 21.9592 7.14192 21.8645L11.9542 18.8968L7.47224 21.4839C7.32104 21.567 7.13117 21.5165 7.04135 21.3691C6.95153 21.2218 6.99357 21.0299 7.13675 20.9336L17.4722 14.2807L7.47224 20.0536C7.32049 20.1346 7.13184 20.0823 7.04348 19.9347C6.95512 19.7871 6.99815 19.5961 7.14127 19.5007L10.3109 17.5303L7.47224 19.169C7.32088 19.2499 7.13268 19.1982 7.04401 19.0512C6.95533 18.9043 6.99722 18.7137 7.13934 18.6174L11.4968 15.871L7.47159 18.1936C7.32168 18.2746 7.13457 18.2251 7.04441 18.0805C6.95426 17.9358 6.99216 17.746 7.13095 17.6471L14.9916 12.371L7.47159 16.7097C7.32176 16.7918 7.13387 16.7429 7.04316 16.5981C6.95245 16.4533 6.99038 16.2629 7.12966 16.1639L13.0684 12.151L7.47159 15.3845C7.32039 15.4677 7.13053 15.4171 7.04071 15.2698C6.95089 15.1224 6.99292 14.9305 7.13611 14.8342L8.20192 14.1465L7.47159 14.5678C7.32098 14.6486 7.13345 14.5979 7.04407 14.4522C6.95469 14.3065 6.99449 14.1163 7.13482 14.0187L7.71546 13.642L7.47353 13.7813C7.3247 13.8642 7.13707 13.8171 7.04507 13.6737C6.95307 13.5303 6.98842 13.3401 7.12579 13.2394L10.2413 11.0258L7.47159 12.6245C7.32476 12.7083 7.13814 12.6646 7.04389 12.5242C6.94965 12.3838 6.97975 12.1945 7.11288 12.0903L9.8903 9.92905L7.47159 11.3252C7.33039 11.4046 7.15215 11.367 7.05509 11.2373C6.95803 11.1076 6.97227 10.9259 7.08837 10.8129L9.05482 8.9355L7.47159 9.84905C7.33877 9.92555 7.17046 9.89802 7.06893 9.78319C6.96741 9.66837 6.9607 9.49795 7.05288 9.3755L7.7903 8.39743C7.65534 8.42255 7.51911 8.36037 7.44966 8.24195C7.36058 8.08767 7.41344 7.89039 7.56772 7.80131L8.81482 7.08131C8.94752 7.0047 9.11579 7.03201 9.21745 7.14665C9.31911 7.26129 9.3261 7.43163 9.23417 7.55421L8.5245 8.49743L11.0645 7.03227C11.2057 6.95281 11.3839 6.99042 11.481 7.12016C11.5781 7.2499 11.5638 7.43151 11.4477 7.54453L9.48127 9.41937L13.6213 7.03227C13.7678 6.9506 13.9524 6.99485 14.046 7.13406C14.1396 7.27326 14.1109 7.46096 13.98 7.56582L11.2019 9.72582L15.8722 7.03227C16.0211 6.94938 16.2087 6.99651 16.3007 7.13988C16.3927 7.28326 16.3573 7.47346 16.22 7.57421L13.1051 9.78389L17.8722 7.03227C18.0231 6.94921 18.2125 6.99924 18.3027 7.14594C18.3928 7.29263 18.3519 7.48427 18.2097 7.58131L17.629 7.95743L19.238 7.03227C19.3887 6.95244 19.5756 7.00371 19.6644 7.14928C19.7532 7.29485 19.7134 7.48442 19.5735 7.58195L18.5019 8.27163L20.6529 7.03227C20.8027 6.95014 20.9906 6.99908 21.0813 7.14388C21.172 7.28868 21.1341 7.4791 20.9948 7.57808L15.0593 11.5897L22.9522 7.03227C23.1023 6.94914 23.2912 6.99805 23.3821 7.14358C23.473 7.28911 23.4341 7.48033 23.2935 7.57873L15.4316 12.8529L25.5174 7.03227C25.669 6.94891 25.8594 6.99998 25.9489 7.14802C26.0384 7.29606 25.9952 7.48836 25.8509 7.58389L21.498 10.3265L27.2077 7.03227C27.3597 6.94855 27.5507 7.00009 27.64 7.14891C27.7292 7.29773 27.6848 7.4905 27.5393 7.58518L24.3677 9.55421L28.74 7.03227C28.8914 6.94606 29.084 6.99574 29.1749 7.14447C29.2657 7.29321 29.222 7.48721 29.0761 7.5826L18.7426 14.2303L30.6864 7.33421C30.8395 7.24299 31.0375 7.29311 31.1287 7.44614C31.2199 7.59918 31.1698 7.79719 31.0168 7.8884L26.1948 10.8632L31.2916 7.92195C31.3905 7.86271 31.5134 7.86073 31.6142 7.91675C31.7149 7.97276 31.7781 8.07827 31.78 8.19352C31.7819 8.30877 31.7221 8.41626 31.6232 8.4755L25.1142 12.5078L31.5909 8.76582C31.743 8.68336 31.9331 8.73554 32.0217 8.88409C32.1104 9.03265 32.0661 9.22469 31.9213 9.31937L27.1768 12.2407L31.6284 9.67163C31.7807 9.57917 31.9791 9.62769 32.0716 9.78002C32.1641 9.93234 32.1155 10.1308 31.9632 10.2232L19.8484 17.9555L31.6271 11.1555C31.7794 11.0676 31.9741 11.118 32.0647 11.2688C32.1553 11.4196 32.1084 11.6151 31.9593 11.7084L23.4471 17.0419L31.6271 12.3226C31.7789 12.2426 31.9668 12.2955 32.0546 12.4429C32.1424 12.5904 32.0994 12.7808 31.9568 12.8761L29.0703 14.6516L31.6271 13.1755C31.779 13.0904 31.9711 13.1412 32.061 13.2904C32.1509 13.4395 32.1062 13.6331 31.96 13.7278L24.6464 18.3452L31.6271 14.3155C31.7781 14.2347 31.9659 14.2859 32.0549 14.4322C32.1439 14.5785 32.1031 14.7689 31.9619 14.8658L23.2 20.4787L31.6277 15.6129C31.7798 15.5305 31.9698 15.5826 32.0585 15.7312C32.1471 15.8797 32.1028 16.0718 31.958 16.1665L29.3032 17.8065L31.6258 16.4645C31.7775 16.3824 31.9669 16.4341 32.0558 16.5819C32.1448 16.7297 32.1017 16.9213 31.958 17.0168L26.3613 20.529L31.6277 17.4884C31.7786 17.4065 31.9672 17.4571 32.0568 17.6036C32.1464 17.7501 32.1055 17.9411 31.9639 18.0381L22.1768 24.3761L31.6277 18.92C31.7776 18.8328 31.9696 18.8797 32.0624 19.0261C32.1553 19.1726 32.1157 19.3662 31.9729 19.4645L27.7006 22.4232L31.6277 20.1561C31.7787 20.0686 31.972 20.117 32.0638 20.2655C32.1557 20.4139 32.1128 20.6085 31.9671 20.7045L31.2213 21.2L31.6277 20.9652C31.7773 20.8793 31.968 20.9263 32.0605 21.0719C32.153 21.2174 32.1147 21.41 31.9735 21.509L30.4845 22.5458L31.6277 21.8865C31.7739 21.8042 31.9588 21.8478 32.0529 21.9867C32.147 22.1256 32.119 22.3134 31.9884 22.4187L29.8548 24.0961L31.6277 23.0723C31.7686 22.9899 31.9489 23.0258 32.0475 23.1558C32.1462 23.2859 32.1321 23.4691 32.0148 23.5826L30.5051 25.0536L31.629 24.4084C31.7658 24.33 31.9391 24.3619 32.039 24.4838C32.1389 24.6058 32.136 24.782 32.0322 24.9007L31.4619 25.5458C31.5853 25.5827 31.6749 25.6894 31.6899 25.8173C31.705 25.9452 31.6425 26.0698 31.5309 26.1342L30.2897 26.851C30.1531 26.9286 29.9805 26.8965 29.8809 26.7751C29.7813 26.6536 29.7836 26.4781 29.8864 26.3594L30.2477 25.9478L28.5935 26.9032C28.4526 26.9856 28.2724 26.9497 28.1737 26.8197C28.0751 26.6897 28.0891 26.5064 28.2064 26.3929L29.7161 24.9219L26.2832 26.9032C26.137 26.9855 25.9521 26.9419 25.858 26.803C25.7639 26.6641 25.792 26.4763 25.9226 26.371L28.0568 24.6936L24.2245 26.9032C24.0753 26.9858 23.8877 26.9381 23.7961 26.7943C23.7046 26.6504 23.7407 26.4602 23.8787 26.36L25.3697 25.3213L22.6284 26.9032C22.4779 26.9863 22.2888 26.9368 22.1982 26.7907C22.1077 26.6446 22.1477 26.4532 22.289 26.3555L23.0387 25.8574L21.2271 26.9032C21.0775 26.9891 20.8868 26.9421 20.7943 26.7965C20.7018 26.651 20.7401 26.4584 20.8813 26.3594L25.1516 23.4026L11.5658 31.2478C11.5168 31.276 11.4611 31.2907 11.4045 31.2903Z" fill="#346D94"/>
    <path d="M14.8806 14.8846C14.7531 14.8845 14.6377 14.8094 14.5859 14.693C14.5342 14.5765 14.5558 14.4405 14.6412 14.3459L15.878 12.9762L13.9825 14.0729C13.8384 14.156 13.6547 14.1158 13.5584 13.9801C13.4621 13.8444 13.4849 13.6577 13.6109 13.5491L14.0064 13.2091L13.5774 13.4568C13.4399 13.536 13.2652 13.5035 13.1655 13.3801C13.0657 13.2568 13.0705 13.0792 13.1767 12.9613L14.1619 11.8697L14.1083 11.9007C13.9542 11.9883 13.7582 11.9351 13.6695 11.7816C13.5809 11.628 13.6328 11.4317 13.7858 11.342L15.6103 10.2897C15.7476 10.2114 15.9214 10.2441 16.0208 10.3669C16.1203 10.4898 16.1161 10.6666 16.0109 10.7846L15.0251 11.871L16.6722 10.9207C16.8161 10.8393 16.9983 10.8798 17.0941 11.0147C17.1898 11.1495 17.1681 11.3349 17.0438 11.4439L16.6496 11.7833L17.329 11.391C17.4664 11.3118 17.6411 11.3443 17.7408 11.4677C17.8406 11.5911 17.8358 11.7686 17.7296 11.8865L16.4922 13.2562L18.0199 12.3749C18.1531 12.2987 18.3216 12.3269 18.4227 12.4423C18.5238 12.5576 18.5297 12.7283 18.4367 12.8504L17.5038 14.0665C17.5104 14.0748 17.5162 14.0837 17.5212 14.0929C17.6099 14.2471 17.5571 14.4439 17.4032 14.5329L16.887 14.8323C16.7539 14.9085 16.5854 14.8803 16.4843 14.7649C16.3832 14.6495 16.3773 14.4789 16.4703 14.3568L16.9406 13.7439L15.0445 14.8407C14.9949 14.87 14.9382 14.8851 14.8806 14.8846Z" fill="#41CEF3"/>
    <path d="M17.6649 21.5485C17.5357 21.5485 17.4189 21.4714 17.3682 21.3525C17.3175 21.2337 17.3426 21.096 17.432 21.0027L18.812 19.5588L18.4501 19.7679C18.3146 19.8458 18.1427 19.8154 18.0422 19.6957C17.9417 19.5759 17.9415 19.4014 18.0417 19.2814L18.7759 18.4033L18.1901 18.7408C18.0507 18.8212 17.8734 18.7866 17.7744 18.6597C17.6755 18.5328 17.6852 18.3524 17.7972 18.2369L17.9688 18.0608L17.8185 18.1472C17.68 18.2265 17.5044 18.1926 17.4054 18.0676C17.3063 17.9425 17.3135 17.7639 17.4223 17.6472L17.6488 17.4066L17.2436 17.6401C17.1165 17.7132 16.956 17.6914 16.8531 17.5869C16.7501 17.4824 16.7306 17.3217 16.8056 17.1956L17.4552 16.1092L15.4391 17.2704C15.285 17.3581 15.089 17.3049 15.0003 17.1513C14.9116 16.9978 14.9635 16.8014 15.1165 16.7117L18.2088 14.9272C18.3359 14.8541 18.4964 14.876 18.5993 14.9804C18.7023 15.0849 18.7218 15.2457 18.6468 15.3717L18.0017 16.4608L19.2275 15.7511C19.3661 15.6709 19.5426 15.7045 19.642 15.8301C19.7414 15.9557 19.7336 16.1353 19.6236 16.2517L19.3985 16.4917L19.6765 16.3311C19.8159 16.2507 19.9932 16.2852 20.0922 16.4121C20.1911 16.539 20.1814 16.7194 20.0694 16.835L19.8972 17.0111L20.0488 16.9246C20.1841 16.8483 20.3546 16.8792 20.4545 16.9982C20.5544 17.1172 20.5552 17.2905 20.4565 17.4104L19.721 18.2859L20.4475 17.8666C20.5866 17.7862 20.7635 17.8205 20.8627 17.9468C20.9618 18.0732 20.9528 18.2532 20.8417 18.3692L19.461 19.813L20.6288 19.1388C20.7288 19.0753 20.8556 19.0716 20.959 19.1294C21.0625 19.1871 21.126 19.2969 21.1244 19.4154C21.1228 19.5339 21.0564 19.642 20.9514 19.6969L17.8307 21.4988C17.7811 21.5305 17.7237 21.5477 17.6649 21.5485Z" fill="#FFC306"/>
    <path d="M15.0975 24.9155C14.9595 24.9136 14.838 24.8241 14.7953 24.6928C14.7525 24.5616 14.7981 24.4177 14.9085 24.3349L15.3885 23.9878L14.2201 24.662C14.0704 24.7465 13.8808 24.6988 13.7889 24.5536C13.697 24.4083 13.7351 24.2165 13.8756 24.1175L13.9762 24.0484L13.4633 24.3439C13.3228 24.4239 13.1448 24.3875 13.047 24.2588C12.9491 24.1302 12.9616 23.9489 13.0762 23.8349L13.2595 23.6542L12.8117 23.9123C12.6813 23.9876 12.5162 23.9628 12.4138 23.8523C12.3114 23.7419 12.299 23.5753 12.384 23.451L12.9853 22.571L11.9827 23.1517C11.8465 23.2293 11.6742 23.1979 11.5743 23.0771C11.4743 22.9563 11.4757 22.7812 11.5775 22.662L11.9962 22.1755L11.4653 22.4826C11.3281 22.5618 11.1537 22.5297 11.0537 22.4068C10.9537 22.2839 10.9578 22.1066 11.0633 21.9884L11.5795 21.4078L11.1046 21.682C10.9693 21.76 10.7974 21.7298 10.6968 21.6102C10.5962 21.4907 10.5957 21.3163 10.6956 21.1962L11.7962 19.8807L10.7995 20.4549C10.6531 20.5361 10.469 20.4919 10.3755 20.3532C10.2819 20.2144 10.31 20.0272 10.4401 19.922L13.6827 17.3858L10.8233 19.0323C10.6745 19.1152 10.4869 19.0681 10.3949 18.9247C10.3029 18.7813 10.3382 18.5911 10.4756 18.4904L10.9491 18.1536C10.8081 18.1817 10.6654 18.1131 10.5994 17.9853C10.5334 17.8574 10.56 17.7014 10.6646 17.6026L12.1666 16.1833C12.0416 16.1943 11.9216 16.1319 11.8588 16.0233C11.7697 15.869 11.8226 15.6717 11.9769 15.5826L14.1375 14.3349C14.28 14.2482 14.465 14.2845 14.5643 14.4184C14.6636 14.5524 14.6444 14.7399 14.5201 14.851L13.113 16.1794L16.4214 14.2691C16.5702 14.1862 16.7579 14.2333 16.8499 14.3767C16.9419 14.5201 16.9065 14.7103 16.7691 14.811L16.4388 15.0471L17.342 14.5265C17.4885 14.4438 17.6739 14.4874 17.768 14.6268C17.8622 14.7661 17.8335 14.9544 17.702 15.0594L13.4001 18.4246C13.4226 18.4407 13.443 18.4595 13.4608 18.4807C13.5607 18.6004 13.5607 18.7745 13.4608 18.8942L12.3588 20.2078L12.9911 19.8433C13.1283 19.764 13.3027 19.7962 13.4026 19.9191C13.5026 20.042 13.4985 20.2193 13.393 20.3375L12.8769 20.9181L13.3246 20.66C13.4607 20.5823 13.6329 20.6136 13.7329 20.7341C13.833 20.8547 13.8319 21.0297 13.7304 21.1491L13.3111 21.6349L13.8917 21.3013C14.0221 21.226 14.1873 21.2509 14.2897 21.3613C14.3921 21.4717 14.4044 21.6383 14.3195 21.7626L13.7149 22.6452L15.1298 21.8258C15.2703 21.7459 15.4483 21.7822 15.5462 21.9109C15.644 22.0396 15.6315 22.2209 15.5169 22.3349L15.3337 22.5155L20.6117 19.4678C20.7616 19.3806 20.9536 19.4274 21.0464 19.5739C21.1393 19.7203 21.0997 19.914 20.9569 20.0123L20.6188 20.2452C20.7655 20.2246 20.9075 20.3066 20.9629 20.444C21.0183 20.5814 20.973 20.7389 20.853 20.8258L20.2659 21.251C20.4112 21.2156 20.5618 21.2846 20.6298 21.4179C20.6977 21.5511 20.6651 21.7136 20.5511 21.8104L19.4466 22.7504C19.5778 22.7773 19.6787 22.8826 19.7001 23.0149C19.7215 23.1472 19.6588 23.2789 19.5427 23.3458L17.0459 24.7878C16.9016 24.8698 16.7187 24.829 16.623 24.6934C16.5273 24.5578 16.55 24.3718 16.6756 24.2633L17.4382 23.6129L15.2582 24.8717C15.2095 24.9003 15.154 24.9155 15.0975 24.9155Z" fill="#FFC306"/>
    <path d="M45.1839 26.1935C45.1839 23.7568 45.782 20.8458 42.6278 20.4819C39.3117 20.1 35.7614 20.4387 32.3975 20.4748C32.3388 19.6432 32.2736 18.8361 32.2736 18.1252C32.2736 15.2864 32.6736 12.1355 32.2736 9.32C31.9775 7.2329 30.6298 7.07161 28.8756 7.06903C22.7001 7.05935 16.4769 6.83871 10.3065 7.06903C8.6104 7.13225 7.22588 7.33161 6.82653 9.29806C6.4033 11.391 6.8233 14.0058 6.8233 16.129C6.8233 18.8387 6.29363 22.1664 6.8233 24.8387C6.88149 25.6417 7.36661 26.3515 8.09363 26.6974C8.5304 26.9142 9.62717 26.6523 9.98846 26.8703C11.4639 27.7626 10.2239 29.8439 11.0246 31.2077C11.0807 31.3039 11.1975 31.3064 11.2981 31.3045C13.351 31.2613 15.2936 29.649 17.1343 28.3781C17.113 31.529 16.9233 34.7439 17.1388 37.8793C17.3485 40.9329 19.8672 40.5529 22.2207 40.5529H28.8052C30.0472 40.5529 31.4259 40.3593 32.5956 40.7735C35.2517 41.7219 37.5743 44.9252 40.4665 44.9858C40.6692 44.9793 40.8539 44.8676 40.9536 44.691C41.4169 43.9039 41.3098 43.3419 41.3098 42.4239C41.2511 41.9342 41.2511 41.4393 41.3098 40.9497C41.8027 40.2445 42.1227 40.7561 42.733 40.5529C44.1665 40.0723 44.9214 39.7606 45.1807 38.1439C45.7898 34.3677 45.1839 30.0135 45.1839 26.1935ZM29.7046 26.9445C29.8534 26.9333 29.9953 26.8773 30.1117 26.7839C31.0674 26.668 31.8685 26.0072 32.1639 25.091C38.422 22.1619 44.2569 30.4755 38.991 35.1413C37.7743 36.2038 36.1768 36.724 34.5677 36.5817C32.9586 36.4393 31.4772 35.6467 30.4659 34.3871C29.7676 33.5389 29.3101 32.5185 29.1414 31.4329C29.0327 30.6907 29.0493 29.9355 29.1904 29.1987C29.2401 28.9561 30.1233 26.9445 29.7046 26.9445ZM11.6285 29.8858C11.3188 28.3781 12.0872 27.4252 10.8949 26.4439C10.6659 26.2555 10.0343 26.4897 9.75363 26.4226C8.33427 26.0845 7.95492 25.6819 7.7575 24.3626C7.6675 23.0999 7.6675 21.8324 7.7575 20.5697C7.7575 17.1832 7.42588 13.6168 7.7575 10.2471C8.08588 6.91161 10.3562 7.51161 13.0162 7.51161H24.0343C26.1298 7.51161 30.8246 6.54774 31.3394 9.3858C31.8814 12.3787 31.3394 15.9761 31.3394 19.0103C31.3394 19.5671 31.3704 20.1529 31.4007 20.7458C31.3506 20.8405 31.356 20.955 31.4149 21.0445C31.4914 22.0367 31.4661 23.0342 31.3394 24.0213C30.9446 26.429 29.5188 26.4226 27.4839 26.4226C25.0969 26.4226 22.3872 26.0355 20.0394 26.4284C17.771 26.8097 15.5549 28.7671 13.633 29.9123C12.4639 30.6129 11.9356 31.3768 11.6285 29.8858ZM44.2356 38.2903C43.2117 41.3774 41.9298 38.8864 40.6749 40.1968C40.0981 40.8 40.3904 42.0716 40.3646 42.7774C40.3059 44.3477 40.3762 44.2922 39.1065 43.6716C37.7317 42.9993 36.4291 42.0735 35.1149 41.2897C31.4665 39.1148 27.613 39.8387 23.4104 39.8387C22.3704 39.8387 20.7536 40.1497 19.7465 39.8387C17.8575 39.2581 18.0872 37.4445 18.0872 35.9619V27.7677C18.0872 27.7626 18.0872 27.7593 18.0872 27.7542C18.322 27.6116 18.5549 27.4781 18.7859 27.3626C21.1201 26.2013 24.5046 26.8658 27.1001 26.8658C27.7562 26.8658 28.4814 26.9129 29.1807 26.8839C28.9412 27.2668 28.7464 27.6759 28.6001 28.1032C27.7877 30.1267 28.0173 32.4198 29.2149 34.2419C31.2949 37.2392 35.3254 38.1413 38.4846 36.3168C41.7202 34.4847 42.8743 30.3869 41.0704 27.1355C39.2472 23.9742 35.5323 23.1529 32.3401 24.3845C32.5013 23.3287 32.5359 22.2575 32.4433 21.1935H38.8123C41.2852 21.1935 43.853 20.6019 44.2356 23.7864C44.5717 26.5877 44.2356 29.6458 44.2356 32.4658C44.2356 34.0974 44.7536 36.7271 44.2356 38.2903Z" fill="#0F474A"/>
    <path d="M21.2997 19.4573C21.2997 19.4451 21.3081 19.4354 21.3074 19.4231C21.2723 17.1316 19.7353 15.1356 17.5287 14.516C18.0261 13.7954 19.2061 12.5967 18.4016 11.8115C17.9655 11.4474 17.5034 11.1156 17.019 10.8186C16.645 10.4408 16.1265 10.2422 15.5958 10.2735C15.0998 10.4167 14.6437 10.6726 14.2629 11.0212C13.8272 11.2976 13.408 11.5992 13.0074 11.9244C12.1719 12.6922 13.1797 13.7954 13.7358 14.556C11.4928 15.212 9.97688 17.3015 10.0494 19.6373C10.0307 26.8219 20.9378 26.3993 21.3094 19.498C21.3107 19.4838 21.3016 19.4715 21.2997 19.4573ZM13.6887 12.1257C13.9856 11.8392 14.3224 11.5974 14.6887 11.4077C14.9584 11.2141 15.3539 10.7825 15.681 10.8464C15.9616 10.9006 16.3739 11.3438 16.6029 11.5083C16.9307 11.7054 17.2419 11.9289 17.5332 12.1767C18.0713 12.7251 17.2313 13.7251 16.7713 14.3412C16.0858 14.2248 15.386 14.2201 14.699 14.327C14.339 13.8128 13.3223 12.6831 13.6887 12.1257ZM14.85 24.3193C12.5932 23.7958 11.0001 21.7786 11.0139 19.4619C10.979 17.9808 11.6568 16.573 12.8363 15.6767C14.0158 14.7804 15.5538 14.5044 16.9713 14.9348C18.9813 15.6265 20.3398 17.5067 20.3655 19.6322C20.199 22.4735 17.9029 24.938 14.8526 24.3173L14.85 24.3193Z" fill="#0F474A"/>
    <path d="M15.7878 16.6529C14.2228 16.6293 12.8803 17.7639 12.6427 19.311C12.5762 20.1146 12.8479 20.9096 13.3923 21.5044C13.9368 22.0992 14.7047 22.4399 15.5111 22.4445C15.5282 22.4433 15.5452 22.4412 15.562 22.4381C15.5847 22.4414 15.6075 22.4434 15.6304 22.4439C17.2782 22.4374 18.6366 21.1502 18.7317 19.5052C18.7212 18.736 18.4047 18.0028 17.8523 17.4675C17.2998 16.9323 16.5569 16.6391 15.7878 16.6529ZM15.7878 21.8058C14.7383 21.7518 13.8544 21.0027 13.6291 19.9762C13.3614 18.7316 14.2053 17.2852 15.5743 17.2981C18.2737 17.3233 18.5466 21.5949 15.7846 21.8065L15.7878 21.8058Z" fill="#0F474A"/>
    <path d="M35.2743 33.8859C35.1561 33.8859 35.0647 33.801 35.0002 33.6313C34.8885 33.3358 34.7198 32.9862 34.4941 32.5824L33.9234 31.5248C33.7987 31.6594 33.6053 31.8481 33.3431 32.0909C33.3194 32.5444 33.3076 32.9862 33.3076 33.4163C33.3076 33.5479 33.2775 33.6547 33.2173 33.7366C33.1593 33.8186 33.0841 33.8595 32.9916 33.8595C32.7746 33.8595 32.666 33.6606 32.666 33.2627C32.666 33.0198 32.6778 32.6571 32.7015 32.1743C32.7273 31.6886 32.7402 31.3244 32.7402 31.0815C32.7402 30.6368 32.7445 30.1292 32.7531 29.5587C32.7638 28.9853 32.7692 28.4791 32.7692 28.0403C32.7692 27.9086 32.7638 27.7535 32.7531 27.5751C32.7445 27.3966 32.7402 27.2415 32.7402 27.1099C32.7402 26.9782 32.7692 26.8714 32.8272 26.7895C32.8874 26.7076 32.9637 26.6666 33.0561 26.6666C33.1486 26.6666 33.2238 26.7076 33.2818 26.7895C33.342 26.8714 33.3721 26.9782 33.3721 27.1099C33.3721 27.2445 33.3775 27.4039 33.3882 27.5882C33.399 27.7696 33.4043 27.9276 33.4043 28.0622L33.3818 29.4753C33.371 29.9844 33.3678 30.4935 33.3721 31.0026C33.6644 30.6983 33.946 30.3647 34.2168 30.002L34.9261 29.0057C34.997 28.9063 35.0733 28.8565 35.155 28.8565C35.2388 28.8565 35.3141 28.9019 35.3807 28.9926C35.4495 29.0833 35.4839 29.1886 35.4839 29.3086C35.4839 29.408 35.4527 29.506 35.3904 29.6026C35.126 30.0239 34.8004 30.4759 34.4135 30.9587L35.1163 32.2621C35.4452 32.8736 35.6096 33.2715 35.6096 33.4558C35.6096 33.5728 35.5752 33.6737 35.5064 33.7586C35.4398 33.8434 35.3624 33.8859 35.2743 33.8859Z" fill="#0F474A"/>
    <path d="M38.6628 30.4628C38.6477 30.8285 38.5403 31.0113 38.3404 31.0113C38.1555 31.0113 38.0631 30.8665 38.0631 30.5769C38.0631 30.5213 38.0599 30.4189 38.0534 30.2697L38.0438 29.901C37.7042 29.9566 37.4323 30.0868 37.2281 30.2916C37.0368 30.4818 36.8777 30.7685 36.7509 31.1518L36.7574 33.5567C36.7574 33.8522 36.651 34 36.4382 34C36.249 34 36.1545 33.8522 36.1545 33.5567V30.4759C36.1545 30.3794 36.1566 30.2345 36.1609 30.0415C36.1674 29.8484 36.1706 29.7035 36.1706 29.607C36.1706 29.3115 36.2652 29.1637 36.4543 29.1637C36.6649 29.1637 36.7713 29.4066 36.7735 29.8922C37.1862 29.351 37.644 29.0804 38.1469 29.0804C38.321 29.0804 38.4511 29.1696 38.5371 29.3481C38.623 29.5265 38.666 29.7957 38.666 30.1556C38.666 30.3077 38.6649 30.4101 38.6628 30.4628Z" fill="#0F474A"/>
    <path d="M25.5271 29.569H21.0109C20.6116 29.569 20.0367 30.1728 20.6664 30.1728H25.1825C25.5819 30.1728 26.1567 29.569 25.5271 29.569Z" fill="#0F474A"/>
    <path d="M21.0225 32.8425C20.6851 32.8425 20.0257 33.3509 20.6535 33.3509H25.1696C25.507 33.3509 26.1664 32.8425 25.5386 32.8425H21.0225Z" fill="#0F474A"/>
    <path d="M24.2356 36.0148H21.0098C20.8162 36.0148 20.4749 36.0709 20.3975 36.2877C20.3285 36.4812 20.4588 36.6303 20.6691 36.6303H23.8949C24.0885 36.6303 24.4298 36.5741 24.5072 36.3574C24.5762 36.1632 24.4459 36.0148 24.2356 36.0148Z" fill="#0F474A"/>
    <path d="M28.4014 15.9549C28.7698 15.9549 29.3879 15.4 28.7588 15.4H24.2427C23.8743 15.4 23.2563 15.9549 23.8853 15.9549H28.4014Z" fill="#0F474A"/>
    <path d="M24.0278 19.2677H28.544C29.0937 19.2677 29.2478 18.5387 28.6149 18.5387H24.0988C23.5472 18.5387 23.3949 19.2677 24.0278 19.2677Z" fill="#0F474A"/>
    <path d="M23.7603 22.3168H26.9861C27.22 22.3343 27.4529 22.272 27.6468 22.1401C27.7365 22.0375 27.8249 21.9414 27.5939 21.9414H24.3681C24.1342 21.9239 23.9013 21.9862 23.7074 22.1181C23.6178 22.2207 23.5294 22.3168 23.7603 22.3168Z" fill="#0F474A"/>
</svg>
