<svg width="52" height="52" viewBox="0 0 52 52" fill="none"
    xmlns="http://www.w3.org/2000/svg">
    <path d="M21.098 13.0567C20.9628 13.057 20.8408 12.9756 20.7893 12.8506C20.7377 12.7257 20.7667 12.5819 20.8626 12.4867L21.282 12.0667L20.8553 12.3127C20.7107 12.3961 20.5267 12.3597 20.4248 12.2274C20.3229 12.0952 20.3345 11.908 20.452 11.7894L21.3393 10.8921L20.8553 11.1714C20.7086 11.2521 20.5247 11.2114 20.4257 11.0763C20.3267 10.9412 20.3434 10.7536 20.4646 10.6381L20.716 10.4094C20.6347 10.4149 20.5541 10.3913 20.4886 10.3427C20.383 10.2632 20.3343 10.1288 20.3646 10.0001L20.5646 9.18739C20.4962 9.15991 20.4391 9.1101 20.4026 9.04606C20.3106 8.88663 20.3652 8.68278 20.5246 8.59073L20.8626 8.39606C20.9783 8.32914 21.1227 8.33774 21.2296 8.4179C21.3365 8.49807 21.3852 8.63431 21.3533 8.76406L21.1986 9.40139L22.966 8.38006C23.1127 8.29932 23.2966 8.34001 23.3956 8.47513C23.4945 8.61025 23.4779 8.79783 23.3566 8.91339L23.202 9.05406C23.3485 8.99785 23.5144 9.05147 23.6003 9.18283C23.6862 9.31418 23.6689 9.48767 23.5586 9.59939L22.6686 10.4981L23.1566 10.2161C23.3014 10.1356 23.4832 10.1736 23.5836 10.3053C23.684 10.437 23.6725 10.6225 23.5566 10.7407L23.1366 11.1594L23.1593 11.1467C23.293 11.0697 23.462 11.0945 23.568 11.2066C23.6739 11.3188 23.6891 11.489 23.6046 11.6181L23.4166 11.9041C23.5464 11.9393 23.6423 12.0491 23.6598 12.1824C23.6773 12.3158 23.613 12.4466 23.4966 12.5141L22.6533 13.0014C22.5198 13.0785 22.3507 13.054 22.2446 12.9421C22.1384 12.8298 22.1232 12.6593 22.208 12.5301L22.2746 12.4261L21.26 13.0121C21.2107 13.0405 21.1549 13.0559 21.098 13.0567Z" fill="#8B93A2"/>
    <path d="M32.9634 14.8462C32.8121 14.8467 32.6794 14.7452 32.6403 14.599C32.6011 14.4529 32.6654 14.2987 32.7968 14.2235L34.0941 13.4755C34.1973 13.416 34.3245 13.416 34.4277 13.4757C34.5309 13.5353 34.5944 13.6455 34.5944 13.7647C34.5943 13.8839 34.5307 13.994 34.4274 14.0535L33.1301 14.8002C33.0795 14.8299 33.0221 14.8458 32.9634 14.8462Z" fill="#8B93A2"/>
    <path d="M12.2003 17.8001C12.0807 17.8003 11.9702 17.7364 11.9107 17.6326C11.8511 17.5289 11.8518 17.4012 11.9123 17.2981L12.3623 16.5334L10.3696 17.6821C10.2355 17.7593 10.066 17.7341 9.96011 17.6213C9.85426 17.5084 9.83997 17.3376 9.92561 17.2087L10.6229 16.1654L9.49961 16.8134C9.35845 16.8945 9.1794 16.8617 9.07607 16.7359C8.97275 16.6102 8.97537 16.4282 9.08227 16.3054L9.49227 15.8387L8.90294 16.1794C8.77656 16.2516 8.61795 16.2335 8.51113 16.1346C8.40432 16.0357 8.37402 15.879 8.43627 15.7474L8.98561 14.5941L8.81294 14.6934C8.70961 14.7591 8.57859 14.7629 8.47167 14.7032C8.36475 14.6435 8.29915 14.53 8.30081 14.4076C8.30247 14.2852 8.37111 14.1735 8.47961 14.1167L9.58027 13.4814C9.70652 13.4095 9.86478 13.4277 9.97146 13.5263C10.0781 13.6249 10.1087 13.7812 10.0469 13.9127L9.49761 15.0667L10.9023 14.2561C11.0434 14.175 11.2225 14.2078 11.3258 14.3336C11.4291 14.4593 11.4265 14.6413 11.3196 14.7641L10.9083 15.2307L11.5263 14.8747C11.6603 14.7971 11.8301 14.8219 11.9363 14.9347C12.0424 15.0478 12.0565 15.2192 11.9703 15.3481L11.2729 16.3914L13.1209 15.3247C13.252 15.2493 13.4174 15.2714 13.5239 15.3787C13.6304 15.4861 13.6514 15.6516 13.5749 15.7821L13.1263 16.5461L15.2443 15.3241C15.389 15.2436 15.5709 15.2817 15.6713 15.4133C15.7717 15.545 15.7602 15.7305 15.6443 15.8487L15.6009 15.8914L16.5856 15.3234C16.7229 15.2444 16.8968 15.2728 17.0017 15.3915C17.1066 15.5101 17.1135 15.6862 17.0183 15.8127L16.6083 16.3567L18.4003 15.3227C18.5428 15.24 18.7244 15.2738 18.8276 15.4023C18.9308 15.5308 18.9246 15.7155 18.8129 15.8367L18.5769 16.0934L19.9103 15.3221C20.0312 15.2524 20.1827 15.2654 20.2899 15.3547C20.3972 15.4439 20.4375 15.5905 20.3909 15.7221L20.0329 16.7187L22.4556 15.3187C22.5872 15.2429 22.7535 15.2657 22.8599 15.3741C22.9663 15.4826 22.9859 15.6492 22.9076 15.7794L22.4616 16.5334L24.5563 15.3241C24.6772 15.2534 24.8295 15.266 24.9372 15.3554C25.045 15.4449 25.0854 15.5922 25.0383 15.7241L24.6896 16.7334L27.1263 15.3261C27.2583 15.2495 27.4255 15.2724 27.5321 15.3817C27.6387 15.4909 27.6574 15.6586 27.5776 15.7887L27.1276 16.5221L29.2043 15.3221C29.3438 15.2413 29.5211 15.2719 29.6254 15.3947C29.7298 15.5176 29.7312 15.6975 29.6289 15.8221L29.2669 16.2667L30.9056 15.3214C31.0378 15.2449 31.2051 15.2679 31.3116 15.3774C31.418 15.4869 31.4365 15.6548 31.3563 15.7847L30.9063 16.5134L35.1536 14.0607C35.2949 13.9788 35.4748 14.0114 35.5785 14.1377C35.6821 14.264 35.6789 14.4468 35.5709 14.5694L34.1709 16.1641L35.0709 15.6454C35.2292 15.5626 35.4246 15.6193 35.514 15.774C35.6034 15.9286 35.555 16.1262 35.4043 16.2221L32.7536 17.7487C32.6123 17.8307 32.4324 17.7981 32.3288 17.6718C32.2251 17.5455 32.2283 17.3627 32.3363 17.2401L33.7363 15.6461L30.0929 17.7494C29.9601 17.8283 29.7904 17.8055 29.683 17.6943C29.5757 17.5832 29.5588 17.4128 29.6423 17.2827L30.0923 16.5541L28.0256 17.7467C27.8863 17.8276 27.709 17.7972 27.6045 17.6746C27.5001 17.5519 27.4983 17.3721 27.6003 17.2474L27.9649 16.8007L26.3256 17.7467C26.1937 17.8228 26.027 17.7999 25.9206 17.691C25.8142 17.582 25.7951 17.4148 25.8743 17.2847L26.3243 16.5514L24.2489 17.7514C24.128 17.8221 23.9758 17.8095 23.868 17.7201C23.7602 17.6306 23.7198 17.4833 23.7669 17.3514L24.1156 16.3427L21.6789 17.7494C21.5474 17.8254 21.3811 17.8029 21.2746 17.6946C21.168 17.5863 21.1482 17.4197 21.2263 17.2894L21.6756 16.5407L19.5809 17.7501C19.46 17.8197 19.3085 17.8067 19.2013 17.7175C19.094 17.6282 19.0537 17.4816 19.1003 17.3501L19.4583 16.3534L17.0369 17.7534C16.8944 17.8362 16.7128 17.8024 16.6096 17.6739C16.5064 17.5453 16.5126 17.3607 16.6243 17.2394L16.8596 16.9827L15.5263 17.7541C15.389 17.8331 15.2151 17.8047 15.1102 17.686C15.0053 17.5674 14.9983 17.3913 15.0936 17.2647L15.5036 16.7207L13.7129 17.7541C13.5682 17.8345 13.3863 17.7965 13.2859 17.6648C13.1855 17.5331 13.197 17.3477 13.3129 17.2294L13.3556 17.1867L12.3716 17.7547C12.3198 17.7854 12.2605 17.8011 12.2003 17.8001Z" fill="#8B93A2"/>
    <path d="M21.2127 42.9166C21.0678 42.9165 20.9396 42.8228 20.8954 42.6848C20.8513 42.5468 20.9014 42.3961 21.0193 42.312L26.658 38.288L19.1733 42.6086C19.0173 42.6991 18.8176 42.649 18.7227 42.4957C18.6278 42.3423 18.6721 42.1412 18.8227 42.042L23.9853 38.642L17.73 42.2533C17.5726 42.3488 17.3675 42.2987 17.272 42.1413C17.1764 41.9839 17.2266 41.7788 17.384 41.6833L21.6427 38.9686L16.6333 41.8606C16.4773 41.9442 16.2832 41.8912 16.1912 41.74C16.0993 41.5888 16.1414 41.3921 16.2873 41.292L23.3627 36.7586L15.4193 41.3473C15.2623 41.4338 15.0649 41.3805 14.9727 41.2268C14.8804 41.073 14.9264 40.8738 15.0767 40.776L18.9627 38.362L14.5873 40.888C14.4303 40.9745 14.2329 40.9212 14.1407 40.7674C14.0484 40.6136 14.0944 40.4145 14.2447 40.3166L19.1113 37.2993L13.772 40.3813C13.6156 40.4649 13.4211 40.4114 13.3295 40.2595C13.2379 40.1077 13.2811 39.9107 13.428 39.8113L22.5807 34.036L12.7867 39.69C12.6297 39.7779 12.4312 39.7254 12.3382 39.5712C12.2453 39.4171 12.2916 39.2171 12.4427 39.1193L21.6467 33.3373L11.924 38.9506C11.7659 39.0451 11.5611 38.9934 11.4667 38.8353C11.3722 38.6772 11.4239 38.4724 11.582 38.378L17.146 34.946L11.2527 38.346C11.0959 38.4297 10.9009 38.3757 10.8096 38.2231C10.7183 38.0706 10.7628 37.8733 10.9107 37.7746L17.8273 33.494L10.646 37.64C10.4889 37.7265 10.2916 37.6732 10.1993 37.5194C10.1071 37.3657 10.153 37.1665 10.3033 37.0686L18.4247 32.022L10.0007 36.8866C9.84434 36.9713 9.64904 36.9185 9.55683 36.7664C9.46463 36.6144 9.50796 36.4168 9.65533 36.3173L21.9127 28.5393L9.28933 35.8266C9.13119 35.9209 8.92658 35.8691 8.83233 35.711C8.73807 35.5528 8.78986 35.3482 8.94799 35.254L13.33 32.5693L8.86733 35.146C8.71032 35.2339 8.51183 35.1814 8.41891 35.0273C8.326 34.8731 8.37222 34.6731 8.52333 34.5753L19.3233 27.79L8.33933 34.128C8.18306 34.2051 7.99374 34.1488 7.90495 33.9989C7.81617 33.8489 7.85788 33.6559 8.00066 33.556L14.414 29.6L7.99133 33.3053C7.83435 33.387 7.6409 33.3318 7.5507 33.1795C7.46049 33.0273 7.50496 32.8311 7.65199 32.7326L9.36933 31.6853L7.71066 32.6426C7.55365 32.7306 7.35516 32.6781 7.26225 32.5239C7.16933 32.3698 7.21555 32.1697 7.36666 32.072L18.1593 25.2666L7.39333 31.4806C7.235 31.5747 7.0304 31.5226 6.93633 31.3643C6.84225 31.206 6.89434 31.0014 7.05266 30.9073L9.63133 29.33L7.20799 30.73C7.05041 30.8253 6.84535 30.7749 6.74999 30.6173C6.65463 30.4597 6.70507 30.2547 6.86266 30.1593L17.0287 23.7333L7.00733 29.5173C6.85115 29.5952 6.66129 29.5395 6.57203 29.3895C6.48276 29.2395 6.52433 29.0461 6.66733 28.946L11.506 25.954L6.93399 28.5933C6.776 28.6833 6.575 28.6301 6.48225 28.4737C6.38949 28.3173 6.43921 28.1154 6.59399 28.02L7.32733 27.5693L6.87066 27.836C6.71494 27.9148 6.52477 27.8602 6.43464 27.7107C6.3445 27.5612 6.38493 27.3676 6.52733 27.2666L13.6607 22.7833L6.93399 26.6666C6.77698 26.7546 6.57849 26.7021 6.48558 26.5479C6.39267 26.3938 6.43888 26.1937 6.58999 26.096L12.3547 22.476L7.02133 25.554C6.86531 25.6375 6.67122 25.5845 6.57924 25.4333C6.48725 25.2822 6.52944 25.0855 6.67533 24.9853L14.1933 20.1653L7.29999 24.1413C7.14303 24.231 6.94318 24.1792 6.84951 24.0246C6.75583 23.87 6.80248 23.6689 6.95466 23.5713L11.862 20.4506L7.60066 22.9086C7.44489 22.9958 7.24813 22.9447 7.15434 22.7929C7.06055 22.641 7.10301 22.4422 7.25066 22.342L13.7233 18.0753L8.29533 21.2086C8.14041 21.2924 7.94707 21.2412 7.85391 21.0917C7.76074 20.9423 7.79991 20.7462 7.94333 20.644L12.8507 17.3553L9.28933 19.4166C9.18786 19.479 9.06082 19.4826 8.95604 19.4259C8.85127 19.3692 8.78468 19.261 8.78137 19.1419C8.77806 19.0228 8.83853 18.911 8.93999 18.8486L10.098 18.0926C9.95452 18.0926 9.82714 18.0008 9.78176 17.8647C9.73639 17.7286 9.78321 17.5787 9.89799 17.4926L12.4373 15.6C12.3766 15.5714 12.3261 15.5249 12.2927 15.4666C12.201 15.3075 12.2552 15.1042 12.414 15.012L16.0427 12.9166C16.1952 12.8305 16.3885 12.8771 16.4849 13.0234C16.5813 13.1697 16.548 13.3657 16.4087 13.472L14.86 14.6273L19.5527 11.918C19.7095 11.8215 19.9149 11.8704 20.0113 12.0273C20.1078 12.1841 20.0588 12.3895 19.902 12.486L19.428 12.7946L21.1753 11.7866C21.3302 11.7029 21.5236 11.7541 21.6167 11.9035C21.7099 12.053 21.6707 12.2491 21.5273 12.3513L16.618 15.6413L23.2 11.8413C23.3558 11.7542 23.5525 11.8052 23.6463 11.957C23.7401 12.1089 23.6976 12.3077 23.55 12.408L17.0787 16.6666L24.9933 12.0986C25.1507 12.0031 25.3558 12.0532 25.4513 12.2106C25.5469 12.368 25.4967 12.5731 25.3393 12.6686L20.4267 15.7933L26.2867 12.41C26.4432 12.3224 26.641 12.3745 26.7342 12.5278C26.8273 12.6811 26.7825 12.8806 26.6327 12.9793L19.1087 17.8L27.6007 12.9026C27.7574 12.8177 27.9532 12.8711 28.0451 13.0239C28.1369 13.1766 28.0924 13.3746 27.944 13.4733L22.174 17.096L28.6673 13.3446C28.8237 13.261 29.0182 13.3145 29.1098 13.4664C29.2015 13.6182 29.1582 13.8152 29.0113 13.9146L21.8927 18.3913L29.6387 13.9193C29.7962 13.8322 29.9944 13.8859 30.0864 14.0406C30.1784 14.1953 30.131 14.3951 29.9793 14.492L29.246 14.9393L30.3127 14.3253C30.4698 14.2401 30.6662 14.294 30.7578 14.4475C30.8494 14.601 30.8036 14.7995 30.654 14.8973L25.8193 17.8866L31.062 14.86C31.2196 14.7648 31.4245 14.8154 31.5197 14.973C31.6148 15.1305 31.5642 15.3354 31.4067 15.4306L21.2433 21.8553L32.004 15.6433C32.1615 15.5562 32.3597 15.6099 32.4518 15.7646C32.5438 15.9193 32.4964 16.1191 32.3447 16.216L29.74 17.8093L32.5893 16.1646C32.7463 16.0767 32.9448 16.1292 33.0377 16.2833C33.1307 16.4375 33.0844 16.6375 32.9333 16.7353L22.1453 23.54L33.3807 17.0526C33.5379 16.9686 33.7334 17.0231 33.8244 17.1764C33.9154 17.3297 33.8697 17.5275 33.7207 17.6253L32.0167 18.6666L33.8673 17.6C34.0248 17.5112 34.2243 17.5642 34.317 17.7193C34.4098 17.8744 34.362 18.0752 34.2093 18.172L27.7793 22.1333L34.3793 18.3246C34.5363 18.2367 34.7348 18.2892 34.8277 18.4433C34.9207 18.5975 34.8744 18.7975 34.7233 18.8953L23.9173 25.6866L35.004 19.2866C35.1621 19.1924 35.3667 19.2442 35.461 19.4023C35.5552 19.5604 35.5035 19.765 35.3453 19.8593L30.9787 22.5333L35.4007 19.984C35.5568 19.9015 35.7501 19.955 35.8415 20.1061C35.933 20.2571 35.8908 20.4532 35.7453 20.5533L23.4833 28.3333L35.9273 21.148C36.0841 21.0642 36.2791 21.1182 36.3704 21.2708C36.4617 21.4233 36.4172 21.6207 36.2693 21.7193L28.15 26.764L36.2953 22.062C36.4521 21.9782 36.6471 22.0322 36.7384 22.1848C36.8297 22.3373 36.7852 22.5347 36.6373 22.6333L29.7133 26.92L36.55 22.9733C36.7075 22.8846 36.9069 22.9375 36.9997 23.0927C37.0924 23.2478 37.0447 23.4486 36.892 23.5453L31.348 26.966L36.788 23.8253C36.9454 23.7345 37.1466 23.7866 37.2402 23.9424C37.3338 24.0981 37.2854 24.3002 37.1313 24.3966L27.9233 30.1806L36.9607 24.9633C37.1182 24.8681 37.3231 24.9187 37.4183 25.0763C37.5135 25.2339 37.4629 25.4388 37.3053 25.534L28.1433 31.3146L37.0993 26.144C37.2564 26.0574 37.4538 26.1107 37.546 26.2645C37.6382 26.4183 37.5923 26.6175 37.442 26.7153L32.59 29.7246L36.5233 27.4546C36.6804 27.3681 36.8778 27.4214 36.97 27.5752C37.0622 27.7289 37.0163 27.9281 36.866 28.026L32.9887 30.4333L35.618 28.916C35.7746 28.8284 35.9723 28.8805 36.0655 29.0338C36.1586 29.1871 36.1138 29.3866 35.964 29.4853L28.8833 34.0186L34.4493 30.8053C34.6063 30.7156 34.8061 30.7674 34.8998 30.922C34.9935 31.0766 34.9468 31.2777 34.7947 31.3753L30.5413 34.0866L33.462 32.4C33.618 32.3095 33.8177 32.3595 33.9126 32.5129C34.0076 32.6663 33.9632 32.8673 33.8127 32.9666L28.6447 36.3706L32.318 34.25C32.4719 34.1621 32.6677 34.2102 32.7635 34.3592C32.8594 34.5083 32.8218 34.7064 32.678 34.81L27.042 38.8333L30.842 36.6406C30.9956 36.5525 31.1913 36.5998 31.2876 36.7485C31.384 36.8971 31.3472 37.0951 31.204 37.1993L28.7093 38.9993L29.756 38.3953C29.902 38.3074 30.0909 38.3438 30.1937 38.4797C30.2966 38.6157 30.2803 38.8073 30.156 38.924L28.64 40.38C28.7688 40.3703 28.8919 40.4344 28.958 40.5453C29.05 40.7047 28.9954 40.9086 28.836 41.0006L26.6867 42.24C26.5406 42.3279 26.3518 42.2915 26.2489 42.1555C26.1461 42.0196 26.1623 41.8279 26.2867 41.7113L27.7087 40.3446L23.372 42.848C23.2188 42.9332 23.0257 42.8852 22.9303 42.7381C22.8349 42.591 22.8697 42.3951 23.01 42.29L25.5013 40.49L21.3767 42.8713C21.3269 42.9006 21.2704 42.9162 21.2127 42.9166Z" fill="#BBC1CE"/>
    <path d="M21.7645 40.3087C21.6217 40.3073 21.4956 40.2149 21.4511 40.0792C21.4066 39.9434 21.4535 39.7944 21.5679 39.7087L25.3405 36.9333L19.9492 40.0453C19.7944 40.1302 19.6002 40.0796 19.5065 39.93C19.4127 39.7804 19.4519 39.5836 19.5959 39.4813L23.7405 36.6667L18.5065 39.6867C18.3512 39.7752 18.1537 39.7254 18.0589 39.5739C17.9641 39.4223 18.0057 39.223 18.1532 39.122L24.5665 34.8107L17.0419 39.154C16.8854 39.2365 16.6917 39.1824 16.6006 39.0308C16.5095 38.8791 16.5528 38.6827 16.6992 38.5833L16.8145 38.5113L16.3245 38.7933C16.1681 38.8769 15.9736 38.8234 15.882 38.6716C15.7904 38.5198 15.8337 38.3228 15.9805 38.2233L20.2665 35.514L15.4312 38.3053C15.2747 38.3963 15.0742 38.3458 14.9795 38.1916C14.8848 38.0373 14.9306 37.8357 15.0825 37.7373L24.0159 31.912L14.3285 37.5053C14.172 37.5944 13.973 37.5431 13.8791 37.3894C13.7853 37.2357 13.8305 37.0352 13.9812 36.9367L22.7999 31.2407L13.3959 36.6713C13.2377 36.7656 13.0331 36.7138 12.9388 36.5557C12.8446 36.3975 12.8964 36.1929 13.0545 36.0987L13.2345 35.988L12.9012 36.1793C12.7442 36.269 12.5444 36.2173 12.4507 36.0627C12.357 35.908 12.4037 35.7069 12.5558 35.6093L20.4179 30.6093L12.2045 35.3513C12.0479 35.4375 11.8512 35.3847 11.7587 35.2317C11.6662 35.0788 11.7108 34.8801 11.8598 34.7813L18.7932 30.4053L11.6212 34.5453C11.4645 34.6315 11.2678 34.5787 11.1753 34.4257C11.0828 34.2728 11.1275 34.0741 11.2765 33.9753L18.1999 29.6093L11.1139 33.7C10.9564 33.7887 10.7569 33.7358 10.6641 33.5807C10.5714 33.4255 10.6192 33.2247 10.7718 33.128L13.5718 31.3947L10.7685 33.014C10.611 33.1027 10.4116 33.0498 10.3188 32.8946C10.2261 32.7395 10.2738 32.5387 10.4265 32.442L13.9712 30.242L10.4178 32.2933C10.2611 32.3782 10.0653 32.3248 9.97346 32.1721C9.88157 32.0194 9.92609 31.8214 10.0745 31.7227L15.0152 28.634L10.1518 31.4413C9.99513 31.5262 9.79934 31.4728 9.70746 31.3201C9.61557 31.1674 9.66009 30.9694 9.80852 30.8707L13.9852 28.2667L9.89652 30.6253C9.73958 30.7173 9.53788 30.6665 9.44327 30.5111C9.34867 30.3557 9.3961 30.1532 9.54985 30.056L17.4085 25.0253L9.69652 29.478C9.53856 29.5726 9.33381 29.5213 9.23918 29.3633C9.14456 29.2054 9.1959 29.0006 9.35385 28.906L11.2585 27.7247L9.59185 28.688C9.43478 28.7745 9.23741 28.7213 9.14518 28.5675C9.05295 28.4137 9.0989 28.2145 9.24918 28.1167L10.2085 27.522L9.52918 27.914C9.37173 28.0048 9.17058 27.9527 9.07696 27.7969C8.98335 27.6412 9.03178 27.4391 9.18585 27.3427L10.5192 26.5147L9.53318 27.082C9.37687 27.1723 9.17709 27.1218 9.08252 26.968C8.98767 26.8142 9.03261 26.6129 9.18385 26.514L16.1199 21.99L9.70652 25.6927C9.55035 25.7799 9.35315 25.7284 9.2597 25.5758C9.16624 25.4233 9.20986 25.2242 9.35852 25.1247L14.2145 21.9793L9.95252 24.44C9.7962 24.5247 9.6009 24.4718 9.50869 24.3198C9.41648 24.1678 9.45982 23.9702 9.60718 23.8707L10.5079 23.2993L10.2645 23.4393C10.109 23.524 9.91438 23.4722 9.82144 23.3215C9.72851 23.1707 9.76968 22.9736 9.91518 22.8727L13.0059 20.844L10.8359 22.0967C10.6806 22.1868 10.4819 22.1378 10.3864 21.9858C10.2908 21.8339 10.3327 21.6336 10.4812 21.5327L13.6092 19.3927L11.8179 20.4267C11.6663 20.5158 11.4716 20.4719 11.373 20.3264C11.2744 20.1809 11.3057 19.9838 11.4445 19.876L14.0772 17.8C13.9387 17.7764 13.8298 17.6685 13.805 17.5302C13.7802 17.3919 13.8448 17.2529 13.9665 17.1827L17.3172 15.2493C17.4683 15.1643 17.6593 15.2094 17.7566 15.3529C17.8538 15.4964 17.8248 15.6905 17.6899 15.7993L15.4772 17.5453L20.8205 14.46C20.9761 14.365 21.1791 14.4126 21.2763 14.5668C21.3734 14.721 21.3287 14.9247 21.1759 15.024L18.0465 17.1633L22.7532 14.4467C22.9093 14.3579 23.1076 14.4088 23.2018 14.5617C23.2959 14.7146 23.252 14.9146 23.1025 15.014L20.0105 17.0433L24.1719 14.6433C24.328 14.5609 24.5213 14.6144 24.6127 14.7654C24.7042 14.9165 24.662 15.1126 24.5165 15.2127L23.6199 15.782L25.1785 14.882C25.335 14.7929 25.534 14.8443 25.6279 14.998C25.7218 15.1516 25.6766 15.3521 25.5259 15.4507L20.6665 18.5953L26.4252 15.2707C26.5817 15.1797 26.7821 15.2302 26.8768 15.3844C26.9715 15.5387 26.9258 15.7403 26.7739 15.8387L19.8405 20.3593L27.6405 15.8547C27.7985 15.7601 28.0032 15.8114 28.0979 15.9693C28.1925 16.1273 28.1411 16.3321 27.9832 16.4267L26.6452 17.2593L28.4065 16.242C28.5645 16.1474 28.7692 16.1987 28.8639 16.3567C28.9585 16.5146 28.9071 16.7194 28.7492 16.814L27.7999 17.4L29.0285 16.6907C29.1856 16.6042 29.383 16.6574 29.4752 16.8112C29.5674 16.965 29.5215 17.1642 29.3712 17.262L27.4665 18.4493L29.6845 17.1687C29.8408 17.0827 30.037 17.135 30.1298 17.2872C30.2226 17.4395 30.1791 17.6378 30.0312 17.7373L22.1692 22.7693L30.5472 17.9333C30.7046 17.8426 30.9058 17.8946 30.9994 18.0504C31.093 18.2062 31.0446 18.4083 30.8905 18.5047L26.7079 21.1133L31.1559 18.5453C31.3133 18.4546 31.5145 18.5066 31.6081 18.6624C31.7017 18.8182 31.6533 19.0203 31.4992 19.1167L26.5559 22.2067L31.7332 19.2187C31.8907 19.13 32.0901 19.1829 32.1829 19.338C32.2756 19.4932 32.2279 19.694 32.0752 19.7907L28.5419 21.986L32.1999 19.872C32.3567 19.7883 32.5516 19.8423 32.6429 19.9948C32.7342 20.1474 32.6897 20.3447 32.5419 20.4433L29.7332 22.18L32.6465 20.498C32.8035 20.41 33.002 20.4626 33.0949 20.6167C33.1878 20.7709 33.1416 20.9709 32.9905 21.0687L26.0712 25.4327L33.0945 21.3787C33.2515 21.2907 33.45 21.3433 33.5429 21.4974C33.6358 21.6515 33.5896 21.8516 33.4385 21.9493L26.5145 26.3193L33.5332 22.2667C33.6901 22.177 33.89 22.2287 33.9837 22.3834C34.0773 22.538 34.0307 22.7391 33.8785 22.8367L26.0119 27.8367L33.8685 23.3033C34.0254 23.2207 34.2196 23.2753 34.3103 23.4277C34.4011 23.58 34.3566 23.7768 34.2092 23.8753L34.0312 23.9853L34.0692 23.9633C34.2262 23.8672 34.4314 23.9166 34.5275 24.0737C34.6236 24.2307 34.5742 24.4359 34.4172 24.532L25.5999 30.228L34.3039 25.2C34.4597 25.1142 34.6555 25.1659 34.7486 25.3175C34.8418 25.469 34.7995 25.6671 34.6525 25.7673L25.7159 31.6L34.3952 26.59C34.5516 26.5064 34.7461 26.5599 34.8377 26.7118C34.9293 26.8636 34.886 27.0606 34.7392 27.16L30.4585 29.8667L33.4292 28.1527C33.5857 28.0701 33.7794 28.1242 33.8705 28.2759C33.9615 28.4276 33.9183 28.624 33.7719 28.7233L32.8239 29.3147C32.975 29.3029 33.115 29.3946 33.1647 29.5378C33.2144 29.681 33.1612 29.8397 33.0352 29.924L26.6225 34.2353L31.3559 31.502C31.5112 31.4135 31.7086 31.4633 31.8035 31.6148C31.8983 31.7663 31.8567 31.9657 31.7092 32.0667L27.5645 34.8793L30.2105 33.3513C30.3634 33.2657 30.5565 33.313 30.6525 33.4597C30.7484 33.6064 30.7143 33.8023 30.5745 33.908L26.7999 36.6827L28.8939 35.4747C29.0475 35.3865 29.2432 35.4339 29.3395 35.5825C29.4358 35.7312 29.3991 35.9292 29.2559 36.0333L28.3065 36.7207C28.4335 36.737 28.5399 36.8247 28.5802 36.9462C28.6206 37.0677 28.5878 37.2016 28.4959 37.2907L27.5739 38.1847C27.617 38.213 27.6529 38.2512 27.6785 38.296C27.7706 38.4554 27.7159 38.6593 27.5565 38.7513L26.1252 39.5773C25.9796 39.6625 25.7933 39.6254 25.6914 39.491C25.5895 39.3566 25.604 39.1673 25.7252 39.05L26.1032 38.6827L23.5779 40.1407C23.4242 40.2288 23.2285 40.1815 23.1322 40.0328C23.0359 39.8842 23.0726 39.6862 23.2159 39.582L23.6285 39.2833L21.9332 40.2667C21.8817 40.2953 21.8235 40.3098 21.7645 40.3087Z" fill="#4D8AAB"/>
    <path d="M34.8657 45.5333C34.7203 45.5334 34.5916 45.4393 34.5476 45.3007C34.5037 45.1621 34.5547 45.011 34.6737 44.9273L38.851 41.9847L33.3923 45.1333C33.2372 45.2192 33.042 45.1687 32.9481 45.0183C32.8542 44.8679 32.8944 44.6703 33.0397 44.5687L36.973 41.9247L32.1977 44.6813C32.0432 44.7664 31.8492 44.7164 31.755 44.5673C31.6609 44.4182 31.6991 44.2216 31.8423 44.1187L38.023 39.8747L30.9163 43.9767C30.7589 44.0722 30.5539 44.0221 30.4583 43.8647C30.3628 43.7073 30.4129 43.5022 30.5703 43.4067L31.837 42.6027L30.317 43.4807C30.16 43.5768 29.9548 43.5274 29.8587 43.3703C29.7626 43.2133 29.812 43.0081 29.969 42.912L33.5897 40.5727L29.5897 42.8813C29.4343 42.9684 29.2379 42.918 29.1437 42.7668C29.0496 42.6155 29.0909 42.417 29.2377 42.316L35.743 37.9827L28.8363 41.97C28.6798 42.0591 28.4808 42.0077 28.387 41.8541C28.2931 41.7004 28.3383 41.4999 28.489 41.4013L32.6277 38.7347L28.3003 41.2327C28.1443 41.3253 27.9429 41.2762 27.847 41.1221C27.7512 40.968 27.7962 40.7656 27.9483 40.6667L34.685 36.1833L27.7363 40.1947C27.5799 40.2857 27.3794 40.2351 27.2847 40.0809C27.19 39.9266 27.2357 39.725 27.3877 39.6267L32.4497 36.328L27.3797 39.2547C27.224 39.3449 27.0249 39.2953 26.9297 39.1427C26.8345 38.9901 26.8776 38.7894 27.027 38.6893L33.8483 34.0973L27.0283 38.0347C26.8708 38.1298 26.6658 38.0792 26.5707 37.9217C26.4755 37.7641 26.5261 37.5592 26.6837 37.464L26.9323 37.3073C26.7734 37.3841 26.5821 37.3236 26.4962 37.1694C26.4103 37.0153 26.4594 36.8208 26.6083 36.726L27.5197 36.1467L26.875 36.518C26.7187 36.6027 26.5234 36.5498 26.4312 36.3978C26.339 36.2458 26.3823 36.0481 26.5297 35.9487L26.863 35.7347C26.7054 35.7974 26.5259 35.7318 26.4459 35.5823C26.3658 35.4328 26.4108 35.247 26.5503 35.1507L31.8883 31.4493L27.103 34.2133C26.9476 34.2959 26.7549 34.2435 26.6627 34.0937C26.5705 33.9438 26.6106 33.7481 26.7543 33.6467L27.5963 33.0947L27.4183 33.1973C27.266 33.286 27.0709 33.2406 26.9732 33.0939C26.8755 32.9471 26.9091 32.7497 27.0497 32.6433L30.9603 29.6667L28.4097 31.1393C28.2581 31.2242 28.0667 31.1784 27.9699 31.0341C27.8732 30.8897 27.9035 30.6953 28.0397 30.5873L29.8397 29.1973C29.7944 29.1686 29.7569 29.1292 29.7303 29.0827C29.6382 28.9234 29.6925 28.7196 29.8517 28.6273L32.727 26.968C32.8787 26.8814 33.0716 26.9266 33.169 27.0717C33.2664 27.2167 33.2352 27.4123 33.0977 27.52L32.357 28.0933L35.179 26.4667C35.3313 26.38 35.5246 26.426 35.6216 26.5719C35.7185 26.7178 35.6859 26.9139 35.547 27.0207L31.637 29.9947L37.561 26.5747C37.7169 26.4888 37.9126 26.5405 38.0058 26.6921C38.099 26.8437 38.0566 27.0417 37.9097 27.142L37.069 27.6927L38.5357 26.8467C38.6901 26.7604 38.8849 26.8097 38.9797 26.959C39.0745 27.1083 39.0361 27.3057 38.8923 27.4087L33.553 31.1107L39.9657 27.4087C40.0675 27.3468 40.1946 27.3441 40.299 27.4013C40.4034 27.4586 40.4694 27.5672 40.472 27.6863C40.4746 27.8054 40.4135 27.9168 40.3117 27.9787L40.045 28.148L40.6657 27.7867C40.8223 27.6991 41.02 27.7512 41.1132 27.9045C41.2063 28.0578 41.1615 28.2573 41.0117 28.356L40.1023 28.9333L41.327 28.2273C41.4837 28.1412 41.6804 28.1939 41.7729 28.3469C41.8654 28.4999 41.8207 28.6986 41.6717 28.7973L41.4423 28.942L41.885 28.6867C42.0406 28.5965 42.2398 28.646 42.335 28.7986C42.4302 28.9512 42.3871 29.1519 42.2377 29.252L35.415 33.8453L42.799 29.5847C42.9559 29.4882 43.1612 29.5371 43.2577 29.694C43.3541 29.8508 43.3052 30.0562 43.1483 30.1527L38.0883 33.4507L43.4397 30.3607C43.5957 30.268 43.7971 30.3171 43.893 30.4712C43.9888 30.6253 43.9438 30.8277 43.7917 30.9267L37.0463 35.4127L44.031 31.3807C44.1873 31.2947 44.3834 31.347 44.4763 31.4992C44.5691 31.6515 44.5256 31.8498 44.3777 31.9493L40.249 34.612L44.449 32.1893C44.6047 32.1008 44.8026 32.1511 44.897 32.3033C44.9915 32.4555 44.9488 32.6551 44.8003 32.7553L38.2943 37.0887L44.799 33.3333C44.956 33.2372 45.1612 33.2866 45.2573 33.4437C45.3534 33.6007 45.304 33.8059 45.147 33.902L41.5243 36.2413L44.999 34.2347C45.1556 34.1471 45.3533 34.1992 45.4465 34.3525C45.5397 34.5058 45.4948 34.7053 45.345 34.804L44.0857 35.604L45.079 35.0307C45.2339 34.9421 45.4312 34.9913 45.5264 35.1422C45.6216 35.2932 45.581 35.4923 45.4343 35.594L39.2537 39.838L45.0657 36.4807C45.2208 36.3948 45.416 36.4453 45.5099 36.5957C45.6038 36.7461 45.5636 36.9436 45.4183 37.0453L41.485 39.6907L44.9163 37.71C45.0708 37.6197 45.269 37.6676 45.3654 37.8183C45.4617 37.9691 45.4218 38.1691 45.275 38.2713L41.0983 41.2127L44.4263 39.292C44.5783 39.2048 44.7718 39.2501 44.8693 39.3956C44.9667 39.5412 44.9349 39.7374 44.7963 39.8447L41.489 42.396L43.103 41.4627C43.2062 41.4022 43.3339 41.4016 43.4376 41.4612C43.5413 41.5208 43.6052 41.6313 43.6049 41.751C43.6047 41.8706 43.5403 41.9809 43.4363 42.04L37.503 45.4653C37.3513 45.5519 37.1584 45.5067 37.0611 45.3617C36.9637 45.2166 36.9948 45.021 37.1323 44.9133L40.439 42.3627L35.0283 45.486C34.9792 45.5157 34.9231 45.532 34.8657 45.5333Z" fill="#FFC306"/>
    <path d="M22.2684 9.64728C22.1403 9.64735 22.0234 9.57399 21.9679 9.45856C21.9123 9.34313 21.9278 9.20606 22.0077 9.10595L22.9417 7.93328L20.0864 9.57928C19.9427 9.66128 19.7607 9.62553 19.6587 9.4953C19.5567 9.36506 19.5657 9.17974 19.6797 9.05995L20.5544 8.14795L19.0797 8.99995C18.9513 9.07415 18.7892 9.05454 18.6822 8.95182C18.5751 8.84911 18.5489 8.68802 18.6177 8.55661L19.1404 7.55995L19.0504 7.61128C18.8921 7.69408 18.6967 7.63739 18.6073 7.48273C18.5179 7.32808 18.5663 7.13044 18.7171 7.03461L19.8017 6.40728C19.9302 6.33248 20.0927 6.35182 20.2 6.45468C20.3074 6.55754 20.3336 6.71905 20.2644 6.85061L19.7411 7.85061L22.2531 6.39995C22.3967 6.31794 22.5788 6.35369 22.6807 6.48393C22.7827 6.61416 22.7738 6.79948 22.6597 6.91928L21.7851 7.82861L24.1271 6.47661C24.2657 6.39618 24.442 6.42582 24.5467 6.54718C24.6514 6.66853 24.6549 6.84723 24.5551 6.97261L23.6217 8.14861L25.0451 7.32595C25.1802 7.24709 25.352 7.27287 25.4581 7.38791C25.5642 7.50295 25.5759 7.67629 25.4864 7.80461L25.1084 8.34795C25.2288 8.3509 25.3399 8.41332 25.4051 8.51461C25.4972 8.67386 25.4429 8.87767 25.2837 8.96995L24.2077 9.59128C24.0726 9.67013 23.9008 9.64436 23.7947 9.52931C23.6886 9.41427 23.6768 9.24094 23.7664 9.11261L24.0897 8.64595L22.4351 9.59995C22.3848 9.63044 22.3272 9.64679 22.2684 9.64728Z" fill="#798291"/>
    <path d="M23.6628 27.2C23.5243 27.1998 23.4003 27.1139 23.3514 26.9843C23.3025 26.8546 23.3389 26.7083 23.4428 26.6166L25.6915 24.6373L22.9061 26.2453C22.7553 26.3309 22.5641 26.2866 22.4663 26.1434C22.3685 26.0002 22.3968 25.8059 22.5315 25.6966L24.8175 23.8666L23.0495 24.8866C22.901 24.9729 22.7112 24.9322 22.6111 24.7926C22.511 24.653 22.5334 24.4603 22.6628 24.3473L25.7728 21.6186C25.7684 21.612 25.7644 21.6051 25.7608 21.598C25.6691 21.4389 25.7234 21.2356 25.8821 21.1433L27.1748 20.4C27.3231 20.3153 27.5113 20.3564 27.6109 20.4951C27.7104 20.6338 27.6891 20.8252 27.5615 20.9386L25.6421 22.6233L28.2975 21.09C28.4484 21.0027 28.6411 21.0464 28.7395 21.1903C28.8379 21.3342 28.8089 21.5296 28.6728 21.6386L26.3875 23.4666L28.2675 22.3806C28.4158 22.2946 28.6052 22.3352 28.7053 22.4744C28.8054 22.6136 28.7836 22.8061 28.6548 22.9193L25.4941 25.6986C25.5176 25.7206 25.5377 25.746 25.5535 25.774C25.6455 25.9334 25.5909 26.1372 25.4315 26.2293L23.8315 27.154C23.7805 27.1843 23.7222 27.2002 23.6628 27.2Z" fill="white"/>
    <path d="M22.1409 29.62C22.0092 29.6199 21.8899 29.5424 21.8364 29.422C21.7829 29.3017 21.8053 29.1611 21.8935 29.0633L22.3075 28.604L21.1442 29.2753C20.9975 29.3561 20.8136 29.3154 20.7146 29.1803C20.6156 29.0451 20.6323 28.8576 20.7535 28.742L21.2135 28.326L20.5535 28.7073C20.4065 28.7927 20.2188 28.7538 20.1179 28.6169C20.017 28.4801 20.0352 28.2892 20.1602 28.174L20.7989 27.5833L20.2435 27.904C20.1062 27.9829 19.9322 27.9543 19.8274 27.8354C19.7227 27.7166 19.716 27.5404 19.8115 27.414L20.5169 26.4807C20.3573 26.5106 20.1994 26.4213 20.1429 26.2691C20.0864 26.1168 20.1478 25.9461 20.2882 25.8647L21.5795 25.1193C21.7168 25.0403 21.8907 25.0687 21.9956 25.1874C22.1005 25.306 22.1075 25.4821 22.0122 25.6087L21.3349 26.502L23.0442 25.5153C23.1912 25.4299 23.379 25.4689 23.4799 25.6057C23.5808 25.7426 23.5626 25.9334 23.4375 26.0487L22.8009 26.6373L23.5969 26.1787C23.7436 26.0979 23.9275 26.1386 24.0265 26.2737C24.1254 26.4089 24.1088 26.5964 23.9875 26.712L23.5209 27.13L23.7982 26.9707C23.9403 26.8888 24.1207 26.9224 24.2238 27.0499C24.3269 27.1774 24.322 27.3609 24.2122 27.4827L23.6429 28.1147C23.7433 28.1291 23.8314 28.1891 23.8815 28.2773C23.9737 28.4366 23.9194 28.6404 23.7602 28.7327L22.3049 29.5727C22.2554 29.6027 22.1988 29.619 22.1409 29.62Z" fill="#295474"/>
    <path d="M9.82291 37.3927C14.3169 42.722 21.5316 44.0594 27.8689 41.706C32.5356 48.0954 45.3429 45.8354 45.8162 35.8707C45.5596 30.4634 41.8222 27.4787 37.6769 26.838C37.7517 26.7951 37.7993 26.7168 37.8029 26.6307C37.6121 23.2584 36.3139 20.0433 34.1096 17.484C34.1334 17.4726 34.1558 17.4582 34.1762 17.4414C34.6429 16.9747 35.1256 16.5207 35.5762 16.0414C35.9502 15.708 36.1213 15.2026 36.0269 14.7106C35.9324 14.2187 35.5863 13.8126 35.1156 13.6414C33.7216 13.152 32.6489 14.334 31.7576 15.2767C29.4307 13.5122 26.6803 12.3915 23.7829 12.0274C23.8025 11.9987 23.814 11.9653 23.8162 11.9307V9.70135H23.9602C24.0366 9.70086 24.1119 9.68452 24.1816 9.65335C26.1082 9.20002 26.4442 6.56869 24.1649 6.30535C22.7935 6.16724 21.4118 6.16613 20.0402 6.30202C17.8722 6.51202 17.5069 9.43535 19.8356 9.69469C19.9502 9.70735 20.0682 9.70735 20.1842 9.71669V11.972C17.3121 12.2382 14.5753 13.3177 12.2949 15.084C11.3109 14.054 10.1336 12.744 8.65157 13.8C8.25587 14.0684 7.99874 14.4977 7.94887 14.9732C7.89901 15.4488 8.06149 15.9221 8.39291 16.2667C8.81357 16.7334 9.28091 17.162 9.72624 17.6C9.57824 17.7814 9.42557 17.954 9.28291 18.1447C5.00931 23.9196 5.23225 31.8665 9.82291 37.3927ZM44.8509 36.1294C44.5562 42.3294 38.4636 47.292 32.2409 44.1614C29.1295 42.5646 27.1664 39.3679 27.1496 35.8707C27.1675 33.3606 28.2345 30.9725 30.0923 29.2845C31.9501 27.5965 34.4293 26.7626 36.9296 26.9847C36.9936 27.0078 37.0617 27.0173 37.1296 27.0127C38.0465 27.1417 38.9359 27.4208 39.7622 27.8387C42.8508 29.4596 44.8038 32.6416 44.8509 36.1294ZM21.5096 36.698V39.684C15.1311 39.1124 10.1504 33.9257 9.83757 27.5294H12.3536C12.5954 27.5476 12.8361 27.4829 13.0362 27.346C13.1282 27.2407 13.2196 27.1374 12.9802 27.1374H9.82224C9.81729 25.1197 10.3137 23.1324 11.2669 21.354C13.6469 16.836 17.5769 14.9334 21.5176 15V18.1334C21.5176 18.276 22.4829 18.144 22.4829 17.8747V15.0534C28.7029 15.6763 33.6049 20.6274 34.1656 26.8534C29.9362 27.5374 26.1782 30.6534 26.1842 36.1294C26.182 37.0816 26.3084 38.0297 26.5602 38.948C25.2571 39.4286 23.8823 39.6864 22.4936 39.7107V36.6354C22.4909 36.1094 21.5096 36.236 21.5096 36.698ZM32.2902 15.5547L33.2762 14.5687C33.4116 14.4043 33.5625 14.2534 33.7269 14.118C34.3036 13.748 34.8862 14.2887 35.0429 14.8014C35.3142 15.6894 34.4536 16.474 33.7562 17.1C33.2664 16.5707 32.7407 16.0758 32.1829 15.6187C32.2221 15.6037 32.2584 15.582 32.2902 15.5547ZM19.9602 7.03135C20.6682 6.93711 21.3856 6.93711 22.0936 7.03135C22.5469 7.03135 23.0269 6.98935 23.4782 7.03135C23.6218 7.02135 23.766 7.02135 23.9096 7.03135C24.4136 7.15802 25.8596 8.72469 24.0429 8.96869H21.7802C21.3078 9.00502 20.8333 9.00502 20.3609 8.96869C19.5456 8.83535 18.2389 7.60002 19.9602 7.03135ZM21.1496 9.75669C21.7156 9.75669 22.2829 9.74069 22.8509 9.72135V11.9334C22.2846 11.8952 21.7167 11.8868 21.1496 11.908V9.75669ZM8.91291 14.8274C8.94393 14.5178 9.15418 14.2555 9.44954 14.1578C9.74491 14.0601 10.0701 14.1453 10.2796 14.3754C10.4362 14.5054 10.5729 14.668 10.7169 14.812L11.5802 15.6787C11.1354 16.0678 10.7125 16.4813 10.3136 16.9174C9.66691 16.3454 8.79224 15.5927 8.91291 14.8274ZM10.5222 17.6814C10.6696 17.608 10.7776 17.504 10.7676 17.3954C11.215 16.8527 11.6997 16.3419 12.2182 15.8667C12.4562 15.806 12.6716 15.6594 12.6536 15.506C21.5416 8.09869 35.9069 14.612 36.8216 26.7407C36.2422 26.696 35.6603 26.696 35.0809 26.7407C35.1145 26.7153 35.1348 26.6761 35.1362 26.634C34.5609 19.4 28.6669 14.898 22.4829 14.6V14.5334C22.4829 14.436 22.0409 14.4667 21.7549 14.582C17.8508 14.5839 14.1589 16.3591 11.7196 19.4074C9.89327 21.6678 8.89931 24.4873 8.90424 27.3934C8.86557 27.4454 8.85024 27.4894 8.90424 27.512C8.89228 30.863 10.2198 34.0799 12.5915 36.4473C14.9632 38.8146 18.1826 40.1362 21.5336 40.118C21.6322 40.4867 22.3076 40.422 22.4582 40.098C23.8853 40.0134 25.2934 39.7281 26.6409 39.2507C26.869 39.9827 27.1963 40.6801 27.6136 41.3234C14.1736 46.3674 1.64557 30.9267 9.67091 18.8467C9.94357 18.4367 10.2289 18.0507 10.5222 17.6814Z" fill="#0F474A"/>
    <path d="M24.4835 27.2753C24.4835 27.2607 24.4755 27.2527 24.4742 27.2393C24.4728 27.226 24.4835 27.2167 24.4828 27.204V27.1934C25.5228 26.1542 26.5626 25.1145 27.6022 24.074C28.4728 23.2034 30.1442 21.6974 28.4195 20.636C27.0162 19.7694 25.8368 21.1567 24.9528 22.0434C23.9306 23.0656 22.9084 24.0878 21.8862 25.11C20.602 25.1178 19.5556 26.143 19.5215 27.4267C19.5115 30.4747 24.3335 30.1333 24.4835 27.2753ZM26.2668 21.6494C26.3775 21.538 26.5568 21.2814 26.7008 21.2154C27.2246 20.9612 27.8552 21.177 28.1135 21.6987C28.4868 22.826 26.6855 24.0667 26.0075 24.7447L24.3088 26.444C24.0349 25.7834 23.4468 25.305 22.7442 25.1714L24.8108 23.1047L26.2668 21.6494ZM21.8668 29.018C21.0539 28.8133 20.4875 28.0776 20.4975 27.2393C20.4526 26.7712 20.6381 26.3104 20.995 26.004C21.3519 25.6976 21.8355 25.584 22.2915 25.6994C23.0194 25.9612 23.5075 26.6484 23.5148 27.422C23.4535 28.2913 22.8708 29.224 21.8668 29.018Z" fill="#0F474A"/>
    <path d="M35.7695 41.1778C35.5987 41.1778 35.4668 41.0621 35.3736 40.8307C35.2122 40.4277 34.9685 39.951 34.6425 39.4004L33.8182 37.9581C33.6381 38.1417 33.3587 38.399 32.9799 38.7301C32.9458 39.3485 32.9287 39.951 32.9287 40.5374C32.9287 40.717 32.8852 40.8626 32.7983 40.9743C32.7145 41.086 32.6058 41.1419 32.4723 41.1419C32.1587 41.1419 32.002 40.8706 32.002 40.328C32.002 39.9968 32.019 39.5021 32.0532 38.8438C32.0904 38.1816 32.1091 37.6849 32.1091 37.3537C32.1091 36.7473 32.1153 36.0551 32.1277 35.2771C32.1432 34.4952 32.151 33.8049 32.151 33.2065C32.151 33.027 32.1432 32.8155 32.1277 32.5722C32.1153 32.3288 32.1091 32.1173 32.1091 31.9378C32.1091 31.7583 32.151 31.6126 32.2348 31.5009C32.3217 31.3892 32.4319 31.3334 32.5654 31.3334C32.699 31.3334 32.8076 31.3892 32.8914 31.5009C32.9784 31.6126 33.0218 31.7583 33.0218 31.9378C33.0218 32.1213 33.0296 32.3388 33.0451 32.5901C33.0606 32.8375 33.0684 33.0529 33.0684 33.2364L33.0358 35.1634C33.0203 35.8576 33.0156 36.5518 33.0218 37.246C33.4441 36.8311 33.8508 36.3763 34.242 35.8815L35.2665 34.5231C35.369 34.3874 35.4792 34.3196 35.5972 34.3196C35.7182 34.3196 35.8269 34.3814 35.9231 34.5051C36.0225 34.6288 36.0722 34.7724 36.0722 34.936C36.0722 35.0717 36.0271 35.2053 35.9371 35.337C35.5552 35.9115 35.0849 36.5279 34.526 37.1862L35.5413 38.9635C36.0163 39.7974 36.2538 40.34 36.2538 40.5913C36.2538 40.7509 36.2041 40.8885 36.1048 41.0042C36.0085 41.1199 35.8968 41.1778 35.7695 41.1778Z" fill="#0F474A"/>
    <path d="M40.664 36.5099C40.6422 37.0086 40.487 37.258 40.1983 37.258C39.9313 37.258 39.7978 37.0605 39.7978 36.6655C39.7978 36.5897 39.7931 36.4501 39.7838 36.2466L39.7698 35.7439C39.2793 35.8197 38.8865 35.9972 38.5916 36.2765C38.3153 36.5358 38.0855 36.9268 37.9024 37.4495L37.9117 40.7289C37.9117 41.1319 37.758 41.3334 37.4506 41.3334C37.1774 41.3334 37.0408 41.1319 37.0408 40.7289V36.5279C37.0408 36.3962 37.0439 36.1987 37.0501 35.9354C37.0595 35.6721 37.0641 35.4746 37.0641 35.3429C37.0641 34.94 37.2007 34.7385 37.4739 34.7385C37.7782 34.7385 37.9319 35.0697 37.935 35.7319C38.5311 34.9939 39.1924 34.6248 39.9188 34.6248C40.1703 34.6248 40.3582 34.7465 40.4823 34.9899C40.6065 35.2332 40.6686 35.6003 40.6686 36.091C40.6686 36.2985 40.6671 36.4381 40.664 36.5099Z" fill="#0F474A"/>
</svg>
