<svg width="52" height="52" viewBox="0 0 52 52" fill="none"
    xmlns="http://www.w3.org/2000/svg">
    <path d="M33.1252 19.658C32.9958 19.6579 32.8781 19.5829 32.8234 19.4656C32.7686 19.3483 32.7868 19.2099 32.8699 19.1107L33.1912 18.7267L32.1852 19.3073C32.0398 19.3912 31.8547 19.3538 31.7532 19.2202C31.6517 19.0865 31.6654 18.8982 31.7852 18.7807L32.5185 18.0613L32.1852 18.2553C32.0433 18.3372 31.8629 18.3038 31.7598 18.1765C31.6566 18.0493 31.6611 17.8659 31.7705 17.744L32.9705 16.4027L32.1819 16.8573C32.0382 16.9393 31.8562 16.9036 31.7542 16.7733C31.6522 16.6431 31.6611 16.4578 31.7752 16.338L32.6372 15.4407L32.1819 15.7033C32.0391 15.7852 31.858 15.7506 31.7554 15.6219C31.6528 15.4932 31.6596 15.3089 31.7712 15.188L32.5319 14.3753L32.0745 14.642C31.9377 14.7199 31.7651 14.6915 31.6605 14.5738C31.5559 14.4562 31.5479 14.2814 31.6412 14.1547L32.6132 12.852L31.7145 13.3707C31.5714 13.4535 31.3892 13.4189 31.2864 13.2894C31.1836 13.1599 31.1913 12.9745 31.3045 12.854L31.6825 12.454L31.3579 12.6407C31.2125 12.7245 31.0274 12.6872 30.9259 12.5535C30.8244 12.4199 30.8381 12.2316 30.9579 12.114L30.9985 12.0667L30.9905 12.0713C30.8507 12.1519 30.6731 12.1207 30.5691 11.9972C30.4652 11.8737 30.4646 11.6934 30.5679 11.5693L31.0745 10.9613L30.3665 11.3707C30.2265 11.4521 30.0482 11.421 29.9439 11.297C29.8397 11.173 29.8396 10.992 29.9439 10.868L30.4352 10.2813L29.6352 10.7433C29.4936 10.8243 29.3142 10.7909 29.2113 10.6645C29.1083 10.538 29.1119 10.3556 29.2199 10.2333L29.5885 9.82133L28.8552 10.2453C28.7112 10.3274 28.5288 10.2913 28.4271 10.1605C28.3253 10.0298 28.335 9.84408 28.4499 9.72466L28.6499 9.51733L27.9619 9.91399C27.8234 9.99291 27.6485 9.9628 27.5444 9.84214C27.4403 9.72149 27.4362 9.54403 27.5345 9.41866L28.1685 8.61866L26.4125 9.63199C26.2665 9.71992 26.0776 9.68349 25.9748 9.54755C25.8719 9.4116 25.8882 9.21996 26.0125 9.10333L26.3605 8.76999L24.3985 9.90066C24.2392 9.99122 24.0367 9.93624 23.9451 9.77756C23.8535 9.61888 23.9071 9.416 24.0652 9.32333L28.3872 6.82733C28.5332 6.7394 28.7221 6.77583 28.825 6.91177C28.9278 7.04772 28.9115 7.23936 28.7872 7.35599L28.4385 7.68933L29.3532 7.16133C29.4917 7.08162 29.6672 7.11139 29.7717 7.23229C29.8762 7.35319 29.8802 7.53121 29.7812 7.65666L29.1465 8.45666L30.3985 7.73333C30.5425 7.65022 30.7258 7.68594 30.828 7.81706C30.9303 7.94818 30.9202 8.13459 30.8045 8.25399L30.6045 8.46133L31.0579 8.20066C31.1995 8.1197 31.3788 8.15307 31.4818 8.27953C31.5848 8.40599 31.5812 8.58841 31.4732 8.71066L31.1052 9.12266L31.7319 8.75999C31.8719 8.67859 32.0502 8.70968 32.1545 8.83367C32.2587 8.95766 32.2588 9.13865 32.1545 9.26266L31.6632 9.84866L32.3639 9.44466C32.5038 9.36406 32.6813 9.39529 32.7853 9.51879C32.8893 9.64229 32.8898 9.82255 32.7865 9.94666L32.2805 10.5533L32.9565 10.1627C33.1019 10.0788 33.287 10.1161 33.3885 10.2498C33.49 10.3835 33.4763 10.5718 33.3565 10.6893L33.3079 10.7373C33.4523 10.6663 33.6268 10.7086 33.7227 10.8379C33.8185 10.9671 33.8084 11.1464 33.6985 11.264L33.3205 11.664L33.6759 11.4587C33.8129 11.3794 33.9867 11.4074 34.0919 11.5257C34.1971 11.6439 34.2046 11.8199 34.1099 11.9467L33.1379 13.2487L34.1092 12.688C34.252 12.6061 34.4331 12.6407 34.5357 12.7694C34.6382 12.8981 34.6315 13.0824 34.5199 13.2033L33.7645 14.0167L34.3385 13.6833C34.4822 13.6013 34.6643 13.6371 34.7662 13.7673C34.8682 13.8975 34.8593 14.0829 34.7452 14.2027L33.8839 15.0993L34.4485 14.774C34.5904 14.6921 34.7708 14.7255 34.874 14.8528C34.9772 14.98 34.9726 15.1634 34.8632 15.2853L33.6632 16.6267L34.4845 16.1527C34.6299 16.0688 34.815 16.1061 34.9165 16.2398C35.018 16.3735 35.0043 16.5618 34.8845 16.6793L34.1512 17.398L34.4919 17.202C34.6318 17.1214 34.8093 17.1526 34.9133 17.2761C35.0173 17.3996 35.0178 17.5799 34.9145 17.704L34.5725 18.112C34.7343 18.0665 34.9046 18.1484 34.9699 18.3032C35.0353 18.4579 34.9753 18.6371 34.8299 18.7213L33.2965 19.6073C33.2453 19.6398 33.1859 19.6574 33.1252 19.658Z" fill="#49505B"/>
    <path d="M17.7502 19.6666C17.6205 19.6668 17.5025 19.5916 17.4477 19.4741C17.393 19.3565 17.4113 19.2179 17.4949 19.1186L18.5109 17.9113L17.5202 18.4833C17.3731 18.5714 17.1831 18.5334 17.0811 18.3955C16.9791 18.2577 16.9983 18.0649 17.1255 17.95L17.6269 17.4833L17.5202 17.5446C17.3779 17.6265 17.1971 17.5925 17.0943 17.4645C16.9914 17.3365 16.997 17.1527 17.1075 17.0313L18.4082 15.6066L17.5202 16.1193C17.373 16.2088 17.1818 16.1714 17.0792 16.033C16.9766 15.8946 16.9964 15.7008 17.1249 15.586L18.2782 14.4926L17.5942 14.8873C17.4401 14.9778 17.242 14.9306 17.1453 14.7803C17.0485 14.63 17.0874 14.4302 17.2335 14.3273L22.3062 10.7033L17.8902 13.2526C17.7357 13.3429 17.5375 13.295 17.4412 13.1443C17.3449 12.9935 17.3847 12.7936 17.5315 12.6913L20.3149 10.7333L18.4395 11.8133C18.2912 11.8993 18.1018 11.8587 18.0017 11.7195C17.9016 11.5803 17.9235 11.3879 18.0522 11.2746L20.4869 9.1233C20.3241 9.17602 20.1478 9.09688 20.079 8.94018C20.0102 8.78349 20.0712 8.60015 20.2202 8.51596L23.0002 6.91263C23.1485 6.82663 23.3379 6.86719 23.438 7.0064C23.5381 7.14561 23.5163 7.33805 23.3875 7.45129L20.9815 9.57663L26.3895 6.45463C26.5436 6.36809 26.7384 6.41678 26.8336 6.56561C26.9288 6.71445 26.8914 6.91172 26.7482 7.01529L23.9669 8.97396L27.9335 6.68463C28.0877 6.59417 28.2857 6.64137 28.3825 6.79162C28.4793 6.94188 28.4403 7.14171 28.2942 7.24463L20.8182 12.5853L20.8229 12.5933C20.9241 12.7286 20.9081 12.9182 20.7855 13.0346L19.6315 14.1273L19.9402 13.95C20.0824 13.8691 20.2622 13.9032 20.3648 14.0306C20.4673 14.1581 20.4623 14.3411 20.3529 14.4626L19.0529 15.8866L19.8155 15.4466C19.9626 15.3599 20.1514 15.3984 20.2529 15.5357C20.3543 15.6731 20.3356 15.8648 20.2095 15.98L19.7089 16.4466L19.8202 16.38C19.9604 16.2986 20.1388 16.3299 20.2429 16.4541C20.3471 16.5783 20.3468 16.7594 20.2422 16.8833L19.2262 18.0933L19.8262 17.7466C19.9612 17.6691 20.1319 17.6952 20.2374 17.8097C20.3429 17.9242 20.3551 18.0964 20.2669 18.2246L20.0875 18.4853C20.2164 18.5218 20.3109 18.6319 20.3275 18.7648C20.3441 18.8977 20.2795 19.0276 20.1635 19.0946L19.2729 19.6086C19.1379 19.6862 18.9672 19.66 18.8617 19.5456C18.7562 19.4311 18.7439 19.2589 18.8322 19.1306L18.8782 19.064L17.9162 19.6193C17.8661 19.6497 17.8088 19.6661 17.7502 19.6666Z" fill="#49505B"/>
    <path d="M15.7386 45.6472C15.5892 45.6472 15.4581 45.5477 15.4177 45.4039C15.3774 45.26 15.4377 45.1069 15.5652 45.0292L16.8579 44.2392L14.7159 45.4759C14.5583 45.571 14.3534 45.5205 14.2582 45.3629C14.1631 45.2053 14.2136 45.0004 14.3712 44.9052L25.7339 37.7245L13.4166 44.8352C13.2596 44.9249 13.0598 44.8731 12.9661 44.7185C12.8724 44.5639 12.9191 44.3628 13.0712 44.2652L26.3046 35.8705L12.5906 43.7885C12.4331 43.8793 12.232 43.8272 12.1383 43.6715C12.0447 43.5157 12.0932 43.3136 12.2472 43.2172L23.0799 36.4665L12.2559 42.7132C12.0989 42.8012 11.9004 42.7486 11.8075 42.5945C11.7146 42.4404 11.7608 42.2403 11.9119 42.1425L24.7339 34.0859L12.1872 41.3285C12.0304 41.4123 11.8355 41.3582 11.7442 41.2057C11.6529 41.0532 11.6973 40.8558 11.8452 40.7572L22.0352 34.4319L12.1872 40.1179C12.0297 40.205 11.8315 40.1513 11.7395 39.9966C11.6475 39.8419 11.6949 39.6421 11.8466 39.5452L18.4672 35.4839L12.1872 39.1092C12.0301 39.1944 11.8337 39.1405 11.7421 38.987C11.6505 38.8335 11.6963 38.635 11.8459 38.5372L19.8412 33.6119L12.1872 38.0305C12.03 38.1146 11.8345 38.06 11.7435 37.9067C11.6525 37.7534 11.6982 37.5557 11.8472 37.4579L16.8399 34.4059L12.1872 37.0919C12.0292 37.1819 11.8282 37.1287 11.7355 36.9723C11.6427 36.8159 11.6925 36.614 11.8472 36.5185L15.6819 34.1792L12.1872 36.1999C12.0302 36.2878 11.8317 36.2353 11.7388 36.0812C11.6459 35.927 11.6921 35.727 11.8432 35.6292L23.6506 28.1885L12.1872 34.8065C12.0302 34.8945 11.8317 34.842 11.7388 34.6878C11.6459 34.5337 11.6921 34.3336 11.8432 34.2359L22.4912 27.5165L12.1872 33.4665C12.0312 33.5501 11.8371 33.4971 11.7451 33.3459C11.6532 33.1947 11.6953 32.998 11.8412 32.8979L22.2992 26.1999L12.1872 32.0352C12.0298 32.126 11.8286 32.0739 11.735 31.9181C11.6414 31.7623 11.6898 31.5603 11.8439 31.4639L17.2912 28.0459L12.1872 30.9925C12.0304 31.0763 11.8355 31.0222 11.7442 30.8697C11.6529 30.7172 11.6973 30.5198 11.8452 30.4212L13.1379 29.6212L12.1866 30.1699C12.0309 30.2584 11.833 30.2081 11.7386 30.0559C11.6441 29.9037 11.6868 29.7041 11.8352 29.6039L19.9886 24.1712L12.1886 28.6759C12.0328 28.763 11.836 28.712 11.7422 28.5601C11.6485 28.4083 11.6909 28.2095 11.8386 28.1092L17.3606 24.4565L12.1866 27.4405C12.0319 27.5279 11.8359 27.4786 11.741 27.3285C11.646 27.1784 11.6854 26.9802 11.8306 26.8779L17.2972 23.1019L12.1866 26.0532C12.0322 26.1395 11.8373 26.0902 11.7425 25.9408C11.6478 25.7915 11.6861 25.5942 11.8299 25.4912L15.4672 22.9632L12.1866 24.8579C12.0317 24.948 11.8333 24.8996 11.7374 24.7482C11.6414 24.5969 11.6823 24.3968 11.8299 24.2952L13.6792 23.0139L12.1866 23.8752C12.0378 23.955 11.853 23.911 11.7561 23.7728C11.6592 23.6346 11.6809 23.4458 11.8066 23.3332L14.6992 20.9252L12.1866 22.3732C12.0344 22.4611 11.8401 22.4158 11.7426 22.2696C11.645 22.1235 11.6777 21.9267 11.8172 21.8199L12.2546 21.4865C12.1066 21.5346 11.9451 21.474 11.8654 21.3405C11.7856 21.2069 11.8088 21.036 11.9212 20.9285L12.7926 20.0919C12.6735 20.0441 12.5923 19.9323 12.5839 19.8043C12.5755 19.6762 12.6414 19.5547 12.7532 19.4919L14.4492 18.5132C14.5951 18.4267 14.7826 18.4635 14.8849 18.5986C14.9873 18.7338 14.972 18.9242 14.8492 19.0412L14.3692 19.5032L16.2832 18.3999C16.4352 18.3127 16.6287 18.3579 16.7262 18.5035C16.8236 18.6491 16.7918 18.8453 16.6532 18.9525L16.2632 19.2512L17.7386 18.3999C17.8882 18.3141 18.0785 18.3567 18.1774 18.498C18.2763 18.6393 18.2511 18.8327 18.1192 18.9439L15.2259 21.3525L20.3426 18.3999C20.497 18.3136 20.6918 18.3629 20.7866 18.5122C20.8814 18.6616 20.843 18.8589 20.6992 18.9619L18.8546 20.2399L22.0426 18.3999C22.1971 18.3112 22.3941 18.3597 22.4898 18.5101C22.5854 18.6605 22.5458 18.8595 22.3999 18.9619L18.7612 21.4892L24.1132 18.3999C24.2674 18.3157 24.4606 18.3656 24.5546 18.514C24.6486 18.6625 24.6113 18.8584 24.4692 18.9619L19.0026 22.7392L26.5166 18.3999C26.672 18.314 26.8675 18.3652 26.961 18.5161C27.0546 18.6671 27.0133 18.8649 26.8672 18.9659L21.3479 22.6172L28.6539 18.3999C28.8093 18.3128 29.0057 18.3632 29.0999 18.5144C29.194 18.6657 29.1526 18.8642 29.0059 18.9652L20.8539 24.3945L31.2412 18.3999C31.3983 18.3134 31.5957 18.3666 31.6879 18.5204C31.7801 18.6742 31.7342 18.8734 31.5839 18.9712L30.2966 19.7712L32.6672 18.3999C32.8242 18.3119 33.0227 18.3644 33.1156 18.5186C33.2086 18.6727 33.1623 18.8728 33.0112 18.9705L27.5652 22.3865L34.4746 18.3999C34.6306 18.3163 34.8247 18.3693 34.9167 18.5205C35.0086 18.6717 34.9665 18.8684 34.8206 18.9685L24.3612 25.6665L36.8539 18.4552C37.0105 18.3691 37.2073 18.4218 37.2998 18.5748C37.3923 18.7278 37.3476 18.9265 37.1986 19.0252L26.5432 25.7485L38.3052 18.9585C38.4619 18.8724 38.6586 18.9252 38.7511 19.0781C38.8436 19.2311 38.7989 19.4298 38.6499 19.5285L26.8499 26.9619L39.2106 19.8245C39.3689 19.7305 39.5735 19.7825 39.6676 19.9409C39.7616 20.0992 39.7096 20.3038 39.5512 20.3979L35.6999 22.7472L39.5666 20.5139C39.7246 20.4238 39.9256 20.477 40.0183 20.6335C40.1111 20.7899 40.0613 20.9918 39.9066 21.0872L34.9339 24.1332L39.7579 21.3485C39.9154 21.2598 40.1149 21.3128 40.2076 21.4679C40.3004 21.623 40.2526 21.8238 40.0999 21.9205L32.0999 26.8499L39.8139 22.3899C39.9708 22.3072 40.165 22.3618 40.2557 22.5142C40.3464 22.6666 40.302 22.8633 40.1546 22.9619L33.5479 27.0145L39.8146 23.3979C39.9714 23.3141 40.1663 23.3682 40.2576 23.5207C40.3489 23.6732 40.3045 23.8706 40.1566 23.9692L29.9566 30.3025L39.8139 24.6092C39.9713 24.5184 40.1725 24.5705 40.2661 24.7263C40.3597 24.8821 40.3113 25.0841 40.1572 25.1805L27.3412 33.2345L39.8139 26.0332C39.9704 25.9507 40.1641 26.0048 40.2552 26.1564C40.3463 26.3081 40.303 26.5045 40.1566 26.6039L29.3219 33.3585L39.8139 27.3012C39.9705 27.2151 40.1673 27.2678 40.2598 27.4208C40.3523 27.5738 40.3076 27.7725 40.1586 27.8712L26.9239 36.2665L39.8139 28.8252C39.9715 28.73 40.1764 28.7806 40.2716 28.9382C40.3667 29.0958 40.3162 29.3007 40.1586 29.3959L28.8006 36.5745L39.8139 30.2159C39.9719 30.1258 40.1729 30.179 40.2656 30.3355C40.3584 30.4919 40.3087 30.6938 40.1539 30.7892L38.8586 31.5805L39.8139 31.0292C39.971 30.944 40.1674 30.9979 40.259 31.1514C40.3506 31.3049 40.3048 31.5034 40.1552 31.6012L36.9172 33.6012L39.8139 31.9299C39.9698 31.8452 40.1647 31.8976 40.2573 32.0489C40.3498 32.2003 40.3076 32.3976 40.1612 32.4979L31.0466 38.3865L39.8146 33.3245C39.9708 33.2386 40.167 33.2909 40.2598 33.4431C40.3526 33.5954 40.3092 33.7937 40.1612 33.8932L33.4279 38.2359L39.8152 34.5479C39.9713 34.4591 40.1697 34.51 40.2638 34.6629C40.358 34.8158 40.3141 35.0158 40.1646 35.1152L33.8926 39.2352L39.8152 35.8159C39.9705 35.7323 40.164 35.784 40.2568 35.934C40.3495 36.084 40.3094 36.2803 40.1652 36.3819L35.4672 39.4859L39.8166 36.9759C39.9723 36.8873 40.1701 36.9376 40.2646 37.0898C40.3591 37.242 40.3164 37.4416 40.1679 37.5419L36.7399 39.8245L39.8166 38.0492C39.9716 37.962 40.1677 38.0119 40.2623 38.1625C40.3568 38.3132 40.3165 38.5115 40.1706 38.6132L37.4072 40.4919L39.8166 39.1012C39.9694 39.0143 40.1634 39.061 40.2599 39.2079C40.3564 39.3548 40.3223 39.5514 40.1819 39.6572L36.8486 42.1319L39.8159 40.4192C39.9672 40.3337 40.1588 40.3788 40.2561 40.5228C40.3534 40.6668 40.3237 40.8614 40.1879 40.9699L38.0132 42.6765L39.8132 41.6359C39.963 41.5512 40.1525 41.5944 40.2508 41.7355C40.3492 41.8767 40.3239 42.0695 40.1926 42.1805L39.1339 43.0605L39.6392 42.7685C39.7985 42.678 40.001 42.733 40.0927 42.8916C40.1843 43.0503 40.1306 43.2532 39.9726 43.3459L36.0672 45.5999C35.9174 45.686 35.7266 45.6434 35.6277 45.5016C35.5288 45.3599 35.5547 45.1661 35.6872 45.0552L36.7452 44.1772L34.2786 45.5999C34.1271 45.6871 33.9341 45.6425 33.8362 45.4978C33.7382 45.3531 33.7687 45.1574 33.9059 45.0492L36.0819 43.3425L32.1699 45.5999C32.0171 45.6867 31.8231 45.64 31.7266 45.4931C31.6301 45.3462 31.6642 45.1496 31.8046 45.0439L35.1379 42.5705L29.8879 45.5999C29.7333 45.6838 29.5401 45.6333 29.4465 45.4843C29.353 45.3354 29.3912 45.1394 29.5339 45.0365L32.2966 43.1579L28.0672 45.5999C27.9118 45.687 27.7154 45.6365 27.6213 45.4853C27.5271 45.3341 27.5685 45.1355 27.7152 45.0345L31.1452 42.7499L26.2059 45.5999C26.0504 45.6857 25.855 45.6346 25.7614 45.4836C25.6679 45.3326 25.7092 45.1349 25.8552 45.0339L30.5506 41.9332L24.1959 45.5999C24.0403 45.6845 23.8458 45.6327 23.7528 45.482C23.6599 45.3313 23.7011 45.1342 23.8466 45.0332L30.1179 40.9139L22.0006 45.5999C21.8446 45.6845 21.6497 45.6322 21.5572 45.4808C21.4646 45.3294 21.5068 45.1321 21.6532 45.0319L28.3866 40.6905L19.8819 45.5999C19.726 45.6845 19.5311 45.6322 19.4385 45.4808C19.3459 45.3294 19.3882 45.1321 19.5346 45.0319L28.6472 39.1439L17.4606 45.5999C17.3034 45.6851 17.107 45.6312 17.0154 45.4777C16.9238 45.3242 16.9696 45.1257 17.1192 45.0279L20.3619 43.0279L15.9052 45.5999C15.8548 45.6301 15.7973 45.6464 15.7386 45.6472Z" fill="#FFC306"/>
    <path d="M25.5621 42.8926C25.4282 42.8929 25.3072 42.8131 25.2547 42.69C25.2023 42.5669 25.2285 42.4243 25.3214 42.328L26.1061 41.5126L24.7327 42.306C24.5784 42.3935 24.3826 42.3449 24.2872 42.1953C24.1918 42.0457 24.2303 41.8476 24.3747 41.7446L25.8007 40.7446L24.3167 41.6C24.1632 41.6895 23.9664 41.6429 23.8694 41.4939C23.7724 41.345 23.8094 41.1461 23.9534 41.042L28.5901 37.662L24.1801 40.208C24.0243 40.2951 23.8275 40.2441 23.7337 40.0922C23.6399 39.9404 23.6824 39.7416 23.8301 39.6413L24.2601 39.3593L24.1727 39.4093C24.0191 39.4975 23.8234 39.4501 23.7271 39.3015C23.6308 39.1528 23.6675 38.9548 23.8107 38.8506L29.0661 35.0566L22.5614 38.812C22.4054 38.9046 22.2039 38.8555 22.1081 38.7014C22.0123 38.5473 22.0573 38.3449 22.2094 38.246L25.6681 35.946L21.6281 38.2793C21.4715 38.3668 21.2737 38.3147 21.1806 38.1614C21.0874 38.0082 21.1323 37.8086 21.2821 37.71L22.1341 37.1646L20.9661 37.8386C20.8102 37.9245 20.6144 37.8728 20.5213 37.7212C20.4281 37.5696 20.4704 37.3716 20.6174 37.2713L24.2661 34.8793L20.2314 37.2086C20.076 37.2957 19.8796 37.2453 19.7854 37.0941C19.6913 36.9428 19.7327 36.7443 19.8794 36.6433L25.3461 32.9913L19.4794 36.38C19.3241 36.4685 19.1266 36.4187 19.0318 36.2672C18.9369 36.1156 18.9785 35.9163 19.1261 35.8153L25.2747 31.682L18.7881 35.4266C18.633 35.5125 18.4377 35.462 18.3438 35.3116C18.2499 35.1612 18.2901 34.9636 18.4354 34.862L24.7994 30.57L18.2294 34.3633C18.1278 34.4255 18.0008 34.4287 17.8962 34.3718C17.7915 34.3149 17.7252 34.2065 17.7222 34.0875C17.7191 33.9684 17.7798 33.8568 17.8814 33.7946L20.8661 31.8666L17.9581 33.5453C17.8019 33.6326 17.6047 33.581 17.5112 33.4284C17.4178 33.2759 17.4614 33.0768 17.6101 32.9773L20.3114 31.2333L17.7114 32.7333C17.5553 32.8158 17.362 32.7622 17.2705 32.6112C17.1791 32.4602 17.2213 32.264 17.3667 32.164L17.6934 31.956L17.6267 31.996C17.4708 32.0806 17.2759 32.0283 17.1833 31.8769C17.0908 31.7255 17.133 31.5282 17.2794 31.428L18.7521 30.4793L17.5447 31.176C17.3904 31.2635 17.1946 31.2149 17.0992 31.0653C17.0038 30.9157 17.0423 30.7176 17.1867 30.6146L22.7534 26.712L17.6541 29.656C17.4996 29.741 17.3056 29.6911 17.2114 29.542C17.1172 29.3929 17.1555 29.1962 17.2987 29.0933L20.5387 26.8753L17.9614 28.3626C17.8096 28.4481 17.6176 28.4022 17.5208 28.2574C17.424 28.1125 17.455 27.9176 17.5921 27.81L21.3994 24.89L18.8754 26.3473C18.7239 26.4364 18.5292 26.3925 18.4305 26.247C18.3319 26.1015 18.3632 25.9044 18.5021 25.7966L20.2307 24.4306C20.1766 24.4016 20.1318 24.358 20.1014 24.3046C20.0093 24.1452 20.064 23.9414 20.2234 23.8493L22.9994 22.246C23.1506 22.1593 23.343 22.2038 23.4409 22.348C23.5388 22.4922 23.5091 22.6874 23.3727 22.796L22.5094 23.4786L25.4727 21.7673C25.6247 21.6801 25.8182 21.7254 25.9157 21.871C26.0131 22.0165 25.9812 22.2127 25.8427 22.32L22.0307 25.2453L27.7301 21.9553C27.8848 21.8692 28.0798 21.9192 28.1741 22.069C28.2685 22.2189 28.2292 22.4163 28.0847 22.5186L24.8441 24.7366L28.9874 22.3453C29.1414 22.2588 29.3362 22.3075 29.4314 22.4563C29.5267 22.6051 29.4892 22.8024 29.3461 22.906L23.7807 26.8066L30.3327 23.0253C30.4892 22.9362 30.6882 22.9875 30.7821 23.1412C30.876 23.2949 30.8308 23.4954 30.6801 23.594L29.1994 24.544L31.0141 23.4966C31.171 23.4069 31.3709 23.4587 31.4645 23.6133C31.5582 23.7679 31.5116 23.969 31.3594 24.0666L31.0441 24.2666L31.5774 23.9593C31.7344 23.8632 31.9396 23.9126 32.0357 24.0696C32.1318 24.2267 32.0824 24.4319 31.9254 24.528L29.2161 26.2773L32.1901 24.5606C32.3462 24.4734 32.5434 24.5249 32.6369 24.6775C32.7303 24.83 32.6867 25.0291 32.5381 25.1286L29.5574 27.0533L32.7327 25.2186C32.8878 25.1327 33.083 25.1833 33.1769 25.3337C33.2709 25.484 33.2306 25.6816 33.0854 25.7833L26.7274 30.0733L33.3774 26.2346C33.5327 26.1461 33.7302 26.1959 33.825 26.3474C33.9198 26.499 33.8782 26.6983 33.7307 26.7993L27.5801 30.9326L33.8874 27.2913C34.0431 27.2027 34.2409 27.2531 34.3354 27.4052C34.4299 27.5574 34.3872 27.7571 34.2387 27.8573L28.7681 31.51L34.2201 28.3626C34.3754 28.2801 34.5682 28.3324 34.6604 28.4823C34.7526 28.6321 34.7125 28.8278 34.5687 28.9293L30.9274 31.3146L34.3741 29.3246C34.5306 29.2371 34.7284 29.2892 34.8215 29.4425C34.9147 29.5958 34.8699 29.7953 34.7201 29.894L33.8534 30.4466L34.4487 30.1033C34.6044 30.0147 34.8023 30.0651 34.8967 30.2172C34.9912 30.3694 34.9485 30.5691 34.8001 30.6693L31.3407 32.97L34.3941 31.2073C34.5477 31.1191 34.7434 31.1665 34.8397 31.3151C34.936 31.4638 34.8993 31.6618 34.756 31.766L29.4981 35.566L34.0487 32.9386C34.2052 32.8449 34.4079 32.8944 34.5037 33.0496C34.5994 33.2048 34.5527 33.4082 34.3987 33.506L33.7694 33.9186C33.9239 33.8829 34.0821 33.961 34.1478 34.1053C34.2135 34.2496 34.1684 34.4202 34.0401 34.5133L29.4001 37.8953L32.0741 36.352C32.2284 36.2644 32.4242 36.3131 32.5196 36.4627C32.615 36.6122 32.5765 36.8103 32.4321 36.9133L28.2434 39.8466C28.3408 39.9772 28.3295 40.1591 28.2167 40.2766L27.4321 41.0926L27.6987 40.9393C27.857 40.8565 28.0524 40.9132 28.1418 41.0678C28.2312 41.2225 28.1828 41.4201 28.0321 41.516L25.7267 42.8493C25.6766 42.878 25.6198 42.893 25.5621 42.8926Z" fill="#DD9300"/>
    <path d="M14.0585 45.432C17.1298 46.3653 21.3252 45.58 24.4745 45.58H36.4745C36.4893 45.5784 36.504 45.576 36.5185 45.5727H36.5958C40.2738 45.078 40.4858 42.4093 40.4858 39.3493V25.3787C40.4858 22.318 40.8725 18.874 36.8652 18.42C36.3038 18.3567 35.7318 18.3213 35.1598 18.296V15.296C34.7932 8.96266 28.6378 4.49199 22.5392 7.00599C17.5538 9.06132 16.8792 13.606 16.8498 18.35C16.4452 18.3673 16.0418 18.388 15.6398 18.4167C12.7592 18.6287 11.5898 20.3787 11.5205 23.098C11.4072 27.5053 11.5205 31.93 11.5205 36.3387C11.5172 39.1593 10.4898 44.3453 14.0585 45.432ZM20.8092 8.87266C26.3332 4.28932 33.7998 8.82932 34.1765 15.368C34.1765 16.2007 34.4198 17.388 34.1765 18.1807C34.1686 18.208 34.1624 18.2359 34.1578 18.264C33.6058 18.256 33.0518 18.26 32.4958 18.2707C32.5185 18.1292 32.5165 17.9848 32.4898 17.844C32.4605 17.3475 32.4605 16.8498 32.4898 16.3533C32.5394 15.3858 32.4514 14.4161 32.2285 13.4733C30.8832 8.96399 25.0738 7.60666 21.6605 10.6593C19.9092 12.2247 19.5385 14.188 19.5098 16.4227C19.5888 17.006 19.5888 17.5973 19.5098 18.1807C19.4997 18.2113 19.4913 18.2425 19.4845 18.274C19.4465 18.282 19.4085 18.29 19.3632 18.3027C18.8627 18.3027 18.3629 18.3087 17.8638 18.3207C17.8801 18.0721 17.8664 17.8226 17.8232 17.5773C17.5752 14.3727 18.2038 11.0333 20.8092 8.87266ZM31.5092 18.294C29.9425 18.342 28.3758 18.42 26.8612 18.42C24.7585 18.42 22.6212 18.3353 20.4905 18.3087C20.5078 14.36 20.9052 8.89532 26.7198 9.75666C31.2978 10.434 31.5005 14.6987 31.5092 18.294ZM12.4825 21.9853C13.0085 19.598 14.8285 18.95 16.8745 18.824C16.9616 18.9682 17.1252 19.0481 17.2925 19.028H19.9592C20.0926 19.0186 20.2204 18.9702 20.3265 18.8887C20.6518 18.902 20.9698 18.9133 21.2705 18.9133H31.6038C31.7037 18.9933 31.8293 19.0341 31.9572 19.028H34.6238C34.7488 19.0202 34.8693 18.9779 34.9718 18.906C37.2612 18.9727 39.3632 19.4973 39.5152 22.5727C39.6985 26.2907 39.5152 30.064 39.5152 33.7867C39.5152 36.4533 40.8765 44.4667 36.7885 45.084H18.1485C17.3123 45.146 16.4727 45.146 15.6365 45.084C13.0072 44.6727 12.5398 43.0093 12.4825 40.896C12.3898 37.4493 12.4825 33.9867 12.4825 30.5387C12.4825 27.912 11.9152 24.5653 12.4825 21.9853Z" fill="#0F474A"/>
    <path d="M22.7537 39.0932C23.9617 40.0066 23.0997 40.2659 23.6724 41.5752C24.4724 43.4059 26.4937 43.1226 27.7957 42.1632C27.8095 42.151 27.8226 42.1381 27.8351 42.1246C27.8782 42.0987 27.9151 42.0636 27.9431 42.0219C28.5624 41.0126 28.3111 39.8146 28.9324 39.1126C29.4371 38.5439 30.9084 38.2139 31.5851 37.6992C34.0729 35.8072 35.404 32.7622 35.1031 29.6512C34.5151 23.7519 28.2157 20.3065 22.8264 22.3179C17.0651 24.4619 14.8764 31.8919 19.0684 36.6132C20.1497 37.8312 21.5251 38.1646 22.7537 39.0932ZM26.2531 22.3945C35.6097 22.7845 36.8531 36.2326 27.9277 38.8352C27.8084 38.8699 27.5137 38.9852 27.5137 39.1546C27.5137 40.1699 27.6171 40.9772 27.0751 41.9086C24.2904 43.8572 24.4831 39.9119 24.4831 39.0419C24.4831 38.9086 24.4164 38.8539 24.2897 38.8179C15.3017 36.1999 16.0784 21.9699 26.2531 22.3945Z" fill="#0F474A"/>
    <path d="M25.7675 35.1777C25.5968 35.1777 25.4648 35.062 25.3717 34.8306C25.2102 34.4276 24.9665 33.9508 24.6405 33.4003L23.8162 31.958C23.6362 32.1416 23.3567 32.3989 22.978 32.73C22.9438 33.3484 22.9267 33.9508 22.9267 34.5373C22.9267 34.7169 22.8833 34.8625 22.7963 34.9742C22.7125 35.0859 22.6039 35.1418 22.4704 35.1418C22.1568 35.1418 22 34.8705 22 34.3279C22 33.9967 22.0171 33.502 22.0512 32.8437C22.0885 32.1814 22.1071 31.6847 22.1071 31.3536C22.1071 30.7472 22.1133 30.055 22.1257 29.277C22.1413 28.495 22.149 27.8048 22.149 27.2064C22.149 27.0268 22.1413 26.8154 22.1257 26.572C22.1133 26.3287 22.1071 26.1172 22.1071 25.9377C22.1071 25.7581 22.149 25.6125 22.2328 25.5008C22.3198 25.3891 22.43 25.3333 22.5635 25.3333C22.697 25.3333 22.8057 25.3891 22.8895 25.5008C22.9764 25.6125 23.0199 25.7581 23.0199 25.9377C23.0199 26.1212 23.0276 26.3386 23.0432 26.59C23.0587 26.8373 23.0665 27.0528 23.0665 27.2363L23.0339 29.1633C23.0183 29.8575 23.0137 30.5517 23.0199 31.2459C23.4421 30.831 23.8488 30.3761 24.24 29.8814L25.2646 28.523C25.367 28.3873 25.4772 28.3195 25.5952 28.3195C25.7163 28.3195 25.8249 28.3813 25.9212 28.505C26.0205 28.6287 26.0702 28.7723 26.0702 28.9359C26.0702 29.0715 26.0252 29.2052 25.9352 29.3368C25.5533 29.9113 25.0829 30.5277 24.5241 31.186L25.5393 32.9634C26.0143 33.7972 26.2518 34.3398 26.2518 34.5912C26.2518 34.7508 26.2022 34.8884 26.1028 35.0041C26.0066 35.1198 25.8948 35.1777 25.7675 35.1777Z" fill="#0F474A"/>
    <path d="M30.662 30.5098C30.6403 31.0085 30.485 31.2578 30.1963 31.2578C29.9293 31.2578 29.7958 31.0604 29.7958 30.6654C29.7958 30.5896 29.7912 30.4499 29.7818 30.2465L29.7679 29.7438C29.2773 29.8196 28.8846 29.9971 28.5896 30.2764C28.3133 30.5357 28.0836 30.9267 27.9004 31.4494L27.9097 34.7288C27.9097 35.1318 27.756 35.3333 27.4487 35.3333C27.1755 35.3333 27.0389 35.1318 27.0389 34.7288V30.5277C27.0389 30.3961 27.042 30.1986 27.0482 29.9353C27.0575 29.672 27.0622 29.4745 27.0622 29.3428C27.0622 28.9399 27.1988 28.7384 27.472 28.7384C27.7762 28.7384 27.9299 29.0695 27.933 29.7318C28.5291 28.9937 29.1904 28.6247 29.9169 28.6247C30.1684 28.6247 30.3562 28.7464 30.4804 28.9897C30.6046 29.2331 30.6667 29.6002 30.6667 30.0909C30.6667 30.2983 30.6651 30.438 30.662 30.5098Z" fill="#0F474A"/>
</svg>
