<svg width="40" height="40" viewBox="0 0 40 40" fill="none"
  xmlns="http://www.w3.org/2000/svg">
  <path d="M6.73387 15.6475C6.58887 15.6476 6.46039 15.554 6.41609 15.416C6.37179 15.2779 6.42184 15.127 6.53987 15.0428L6.92187 14.7688L5.48653 15.6001C5.33392 15.6896 5.13798 15.6443 5.04017 15.4969C4.94236 15.3494 4.97676 15.1513 5.11853 15.0455L8.21454 12.6981L4.3592 14.9215C4.20592 15.01 4.01017 14.9633 3.91337 14.8151C3.81658 14.6669 3.85251 14.4689 3.9952 14.3641L7.56987 11.7395L4.1872 13.6921C4.03263 13.7808 3.83562 13.7323 3.74 13.5819C3.64437 13.4315 3.68396 13.2325 3.82987 13.1301L6.17454 11.4908L4.1872 12.6375C4.0312 12.7301 3.82973 12.681 3.73391 12.5269C3.63808 12.3728 3.6831 12.1704 3.8352 12.0715L4.13187 11.8715C3.98629 11.923 3.82433 11.8679 3.74053 11.7381C3.64481 11.5889 3.6826 11.3909 3.82653 11.2875L6.93387 9.06279L4.1872 10.6481C4.03218 10.7353 3.83603 10.6854 3.74148 10.5348C3.64693 10.3841 3.6873 10.1858 3.8332 10.0841L5.0192 9.27612L4.1872 9.75679C4.03271 9.84703 3.83452 9.79921 3.73818 9.64844C3.64185 9.49766 3.68173 9.29773 3.82853 9.19545L6.40654 7.38012L4.18653 8.66145C4.03292 8.74961 3.83719 8.70225 3.74088 8.55361C3.64456 8.40497 3.68131 8.20697 3.82453 8.10279L7.2192 5.64545L4.18653 7.39612C4.03258 7.48394 3.83682 7.43593 3.74098 7.28683C3.64513 7.13774 3.68272 6.93972 3.82653 6.83612L6.68387 4.80612L4.18653 6.24745C4.0344 6.33235 3.84256 6.28578 3.74628 6.14058C3.65001 5.99539 3.68178 5.80054 3.8192 5.69345L6.54053 3.63145L4.18653 4.99012C4.038 5.07399 3.85011 5.03219 3.75114 4.89326C3.65218 4.75433 3.67406 4.5631 3.80187 4.45012L5.79187 2.73345L4.4792 3.48812C4.33076 3.57304 4.14215 3.53185 4.04262 3.39279C3.94309 3.25372 3.96494 3.0619 4.0932 2.94879L4.98253 2.17279C4.94319 2.14507 4.9106 2.10884 4.8872 2.06679C4.79516 1.90736 4.84978 1.7035 5.0092 1.61145L6.84987 0.544786C6.99864 0.456676 7.19009 0.496948 7.29075 0.63753C7.39141 0.778112 7.36787 0.972326 7.23654 1.08479L7.1072 1.20012L8.5072 0.393453C8.65574 0.309581 8.84362 0.35138 8.94259 0.490313C9.04156 0.629246 9.01967 0.820477 8.89187 0.933453L6.89987 2.65412L10.8332 0.387453C10.9855 0.300788 11.1788 0.346776 11.2758 0.492707C11.3727 0.638638 11.3401 0.834705 11.2012 0.941453L8.47787 3.00012L12.4812 0.689453C12.6352 0.601632 12.8309 0.649648 12.9268 0.798739C13.0226 0.94783 12.985 1.14585 12.8412 1.24945L9.9832 3.28012L12.4825 1.83745C12.6362 1.7493 12.8319 1.79666 12.9282 1.9453C13.0245 2.09393 12.9878 2.29193 12.8445 2.39612L9.44787 4.85479L12.4845 3.10212C12.639 3.01188 12.8372 3.0597 12.9336 3.21047C13.0299 3.36124 12.99 3.56118 12.8432 3.66345L10.2705 5.47479L12.4859 4.19612C12.6409 4.10894 12.837 4.15882 12.9316 4.30945C13.0261 4.46009 12.9858 4.65842 12.8399 4.76012L11.6525 5.56879L12.4865 5.08679C12.6404 4.99757 12.8372 5.04488 12.9337 5.19428C13.0302 5.34368 12.9925 5.54253 12.8479 5.64612L9.7372 7.87412L12.4885 6.28612C12.6442 6.19592 12.8433 6.24547 12.9385 6.39809C13.0337 6.55071 12.9907 6.75134 12.8412 6.85145L12.5452 7.05145C12.7027 6.99497 12.8777 7.06407 12.9542 7.21294C13.0307 7.36181 12.9849 7.5443 12.8472 7.63945L10.5039 9.27812L12.4912 8.13079C12.6445 8.04224 12.8402 8.08894 12.937 8.23714C13.0338 8.38535 12.9979 8.58337 12.8552 8.68812L9.2792 11.3141L12.4925 9.45945C12.6448 9.37279 12.8382 9.41878 12.9351 9.56471C13.032 9.71064 12.9995 9.9067 12.8605 10.0135L9.7652 12.3595L12.4945 10.7841C12.6482 10.6973 12.843 10.7453 12.9387 10.8937C13.0344 11.0421 12.9978 11.2393 12.8552 11.3435L12.4719 11.6181L12.4959 11.6041C12.6396 11.5211 12.8225 11.5565 12.9249 11.687C13.0273 11.8176 13.0181 12.0037 12.9032 12.1235L11.2399 13.8621L12.4979 13.1335C12.6282 13.0581 12.7928 13.0794 12.8996 13.1854C13.0065 13.2915 13.029 13.4559 12.9545 13.5868L12.4879 14.4095L12.5019 14.4021C12.6052 14.3364 12.7362 14.3327 12.8431 14.3924C12.9501 14.452 13.0157 14.5655 13.014 14.6879C13.0123 14.8104 12.9437 14.922 12.8352 14.9788L11.7539 15.6001C11.6237 15.6751 11.4595 15.6537 11.3528 15.548C11.2462 15.4423 11.2234 15.2783 11.2972 15.1475L11.7639 14.3241L9.55387 15.6001C9.41036 15.6821 9.22847 15.6465 9.1264 15.5166C9.02432 15.3866 9.03289 15.2014 9.14654 15.0815L10.8099 13.3428L6.8992 15.6001C6.84927 15.6303 6.7922 15.6466 6.73387 15.6475Z" fill="#76898A"/>
  <path d="M21.605 39.6474C21.457 39.6475 21.3266 39.5499 21.285 39.4078C21.2433 39.2658 21.3004 39.1132 21.425 39.0334L24.2157 37.2334L20.1184 39.6C19.9627 39.6886 19.7648 39.6383 19.6703 39.4861C19.5759 39.3339 19.6186 39.1343 19.767 39.034L26.857 34.3334L17.7324 39.6C17.5762 39.6873 17.379 39.6357 17.2855 39.4832C17.1921 39.3307 17.2357 39.1316 17.3844 39.032L24.8277 34.2127L15.4944 39.6C15.3384 39.6847 15.1435 39.6323 15.051 39.481C14.9584 39.3296 15.0006 39.1323 15.147 39.032L24.605 32.9214L13.1837 39.5147C13.0269 39.5985 12.832 39.5444 12.7406 39.3919C12.6493 39.2394 12.6938 39.042 12.8417 38.9434L18.1017 35.6767L12.3897 38.974C12.2316 39.0685 12.0268 39.0168 11.9324 38.8587C11.8379 38.7006 11.8896 38.4958 12.0477 38.4014L15.993 35.9707L12.187 38.1707C12.03 38.2587 11.8315 38.2061 11.7386 38.052C11.6457 37.8979 11.6919 37.6978 11.843 37.6L21.0837 31.782L12.187 36.9154C12.0301 36.9981 11.836 36.9434 11.7452 36.7911C11.6545 36.6387 11.6989 36.4419 11.8464 36.3434L15.3844 34.1667L12.1844 36.012C12.0279 36.0946 11.8342 36.0405 11.7431 35.8888C11.652 35.7371 11.6953 35.5407 11.8417 35.4414L19.2417 30.8267L12.1857 34.9027C12.0281 34.9979 11.8232 34.9473 11.728 34.7897C11.6329 34.6321 11.6834 34.4272 11.841 34.332L22.0544 27.8654L12.1877 33.5627C12.0296 33.657 11.825 33.6052 11.7307 33.447C11.6364 33.2889 11.6882 33.0843 11.8464 32.99L16.7324 29.9707L12.1857 32.5947C12.0282 32.6818 11.83 32.6281 11.7379 32.4734C11.6459 32.3187 11.6933 32.1189 11.845 32.022L14.8697 30.1647L12.1857 31.7134C12.0297 31.7969 11.8356 31.744 11.7436 31.5928C11.6516 31.4416 11.6938 31.2449 11.8397 31.1447L23.4457 23.7207L12.1857 30.2214C12.0297 30.3049 11.8356 30.252 11.7436 30.1008C11.6516 29.9496 11.6938 29.7529 11.8397 29.6527L23.7657 22.004L12.1857 28.6894C12.0293 28.773 11.8348 28.7195 11.7432 28.5676C11.6516 28.4158 11.6949 28.2188 11.8417 28.1194L21.5704 21.976L12.1857 27.394C12.0282 27.4848 11.8271 27.4328 11.7335 27.277C11.6399 27.1212 11.6883 26.9191 11.8424 26.8227L20.5837 21.3334L12.1837 26.1814C12.0272 26.2639 11.8335 26.2098 11.7424 26.0581C11.6513 25.9065 11.6946 25.7101 11.841 25.6107L19.467 20.8474L12.1857 25.0534C12.0285 25.1374 11.833 25.0829 11.742 24.9296C11.6509 24.7763 11.6967 24.5785 11.8457 24.4807L12.943 23.81L12.1857 24.2467C12.0293 24.3303 11.8348 24.2768 11.7432 24.125C11.6516 23.9731 11.6949 23.7761 11.8417 23.6767L21.2657 17.7374L12.1857 22.9787C12.0286 23.0652 11.8313 23.012 11.739 22.8582C11.6468 22.7044 11.6927 22.5052 11.843 22.4074L19.1717 17.8367L12.1857 21.87C12.0277 21.9601 11.8267 21.9069 11.734 21.7505C11.6412 21.5941 11.6909 21.3922 11.8457 21.2967L12.4724 20.914L12.1857 21.0794C12.0288 21.1621 11.8346 21.1074 11.7439 20.9551C11.6532 20.8027 11.6976 20.6059 11.845 20.5074L15.7157 18.124L12.1857 20.1614C12.0289 20.2451 11.834 20.1911 11.7426 20.0386C11.6513 19.886 11.6958 19.6887 11.8437 19.59L17.7057 15.9567L12.1857 19.1427C12.0287 19.2307 11.8302 19.1781 11.7373 19.024C11.6444 18.8699 11.6906 18.6698 11.8417 18.572L21.4324 12.516L12.185 17.8547C12.029 17.9382 11.8349 17.8853 11.7429 17.7341C11.651 17.5829 11.6931 17.3862 11.839 17.286L23.0144 10.1267L12.185 16.3787C12.0278 16.4627 11.8323 16.4082 11.7413 16.2549C11.6503 16.1016 11.696 15.9039 11.845 15.806L12.845 15.1954L12.1877 15.574C12.0306 15.6593 11.8342 15.6053 11.7426 15.4518C11.651 15.2983 11.6968 15.0999 11.8464 15.002L14.799 13.1807L12.1877 14.6874C12.0314 14.7721 11.8361 14.7192 11.7439 14.5672C11.6517 14.4152 11.695 14.2175 11.8424 14.118L20.0424 8.89804L12.185 13.4314C12.0295 13.516 11.8349 13.4643 11.742 13.3135C11.649 13.1628 11.6902 12.9657 11.8357 12.8647L21.2137 6.69604L12.185 11.91C12.0293 11.9925 11.8363 11.9396 11.7445 11.7891C11.6527 11.6387 11.6938 11.4428 11.8384 11.342L17.391 7.76138L12.185 10.766C12.0295 10.8507 11.8349 10.7989 11.742 10.6482C11.649 10.4974 11.6902 10.3003 11.8357 10.1994L16.9204 6.86604L12.187 9.59938C12.0314 9.68291 11.8376 9.63053 11.7453 9.47996C11.6529 9.32939 11.694 9.13292 11.839 9.03204L14.5537 7.26671L12.185 8.63404C12.0302 8.72416 11.8318 8.67573 11.7358 8.5244C11.6399 8.37307 11.6808 8.17298 11.8284 8.07138L16.261 4.99738L12.185 7.35004C12.0298 7.43366 11.8362 7.38187 11.7435 7.23188C11.6507 7.08188 11.6909 6.8856 11.835 6.78404L12.209 6.53671L12.185 6.55004C12.0322 6.63691 11.8382 6.59021 11.7417 6.44331C11.6452 6.29642 11.6793 6.09982 11.8197 5.99404L14.675 3.87604L12.185 5.31138C12.033 5.3974 11.8403 5.35146 11.7435 5.20609C11.6466 5.06071 11.6784 4.86522 11.8164 4.75804L13.399 3.54738L12.081 4.30804C11.9289 4.39594 11.7346 4.35062 11.6371 4.20446C11.5395 4.0583 11.5722 3.86151 11.7117 3.75471L11.9744 3.55471L11.927 3.58204C11.7904 3.66091 11.6173 3.63327 11.5121 3.51579C11.4068 3.39831 11.3983 3.22315 11.4917 3.09604L12.4657 1.77538L11.285 2.45804C11.1565 2.53284 10.9941 2.5135 10.8867 2.41064C10.7794 2.30778 10.7531 2.14627 10.8224 2.01471L11.0664 1.54804L10.6284 1.80071C10.5286 1.85832 10.4062 1.86036 10.3046 1.8061C10.203 1.75184 10.1366 1.64897 10.129 1.53404L10.113 1.24738L9.88836 1.37671C9.80432 1.42524 9.70331 1.43473 9.6117 1.40271L8.60436 1.04938C8.44162 1.09896 8.26766 1.01803 8.20075 0.861619C8.13383 0.705204 8.19545 0.523498 8.3437 0.440043L8.41636 0.400043C8.50051 0.353198 8.60057 0.344234 8.6917 0.375376L9.6877 0.724043L10.2477 0.400043C10.3474 0.342432 10.4698 0.340394 10.5714 0.394653C10.673 0.448913 10.7394 0.551779 10.747 0.666709L10.763 0.953376L11.727 0.400043C11.8554 0.32621 12.017 0.345856 12.1239 0.448279C12.2308 0.550701 12.2573 0.711354 12.189 0.842709L11.9457 1.30938L13.519 0.400043C13.6556 0.321171 13.8288 0.348819 13.934 0.466299C14.0392 0.583779 14.0477 0.758933 13.9544 0.886043L12.979 2.20471L16.1077 0.400043C16.2599 0.312146 16.4541 0.357468 16.5517 0.503625C16.6492 0.649782 16.6166 0.846571 16.477 0.953376L16.215 1.15338L17.5204 0.400043C17.6725 0.312146 17.8668 0.357468 17.9643 0.503625C18.0619 0.649782 18.0292 0.846571 17.8897 0.953376L16.3064 2.16271L19.363 0.400043C19.5158 0.313173 19.7098 0.359879 19.8064 0.506775C19.9029 0.65367 19.8687 0.85027 19.7284 0.956043L16.8744 3.07204L21.5064 0.400043C21.6616 0.316423 21.8552 0.368216 21.9479 0.51821C22.0407 0.668204 22.0005 0.864489 21.8564 0.966043L21.4844 1.21204L22.893 0.400043C23.0474 0.313774 23.2423 0.363095 23.3371 0.512416C23.4318 0.661738 23.3935 0.859077 23.2497 0.962043L18.8197 4.03271L25.1157 0.400043C25.2713 0.316506 25.4651 0.368885 25.5575 0.519455C25.6498 0.670025 25.6087 0.866501 25.4637 0.967376L22.7457 2.73338L26.791 0.400043C26.9468 0.312915 27.1436 0.363945 27.2374 0.515797C27.3311 0.667648 27.2887 0.866431 27.141 0.966709L22.0537 4.30004L28.8117 0.400043C28.9674 0.317551 29.1605 0.370523 29.2523 0.520946C29.3441 0.671367 29.3029 0.867261 29.1584 0.968043L23.603 4.54871L30.793 0.400043C30.9488 0.312915 31.1456 0.363945 31.2394 0.515797C31.3331 0.667648 31.2907 0.866431 31.143 0.966709L21.7664 7.13338L33.083 0.600043C33.2404 0.504497 33.4455 0.554642 33.541 0.712043C33.6366 0.869444 33.5864 1.0745 33.429 1.17004L25.2217 6.39138L34.2157 1.20004C34.3732 1.11133 34.5727 1.16428 34.6654 1.3194C34.7582 1.47453 34.7104 1.67532 34.5577 1.77204L31.607 3.59204L34.7784 1.76138C34.9359 1.67429 35.1341 1.72798 35.2261 1.88267C35.3182 2.03737 35.2707 2.23718 35.119 2.33404L34.1244 2.94271L35.1977 2.32338C35.3543 2.23586 35.552 2.28794 35.6452 2.44123C35.7384 2.59451 35.6935 2.79404 35.5437 2.89271L24.365 10.0534L35.6744 3.52471C35.8314 3.43674 36.0299 3.48928 36.1228 3.64342C36.2157 3.79756 36.1695 3.99762 36.0184 4.09538L26.4357 10.146L35.8124 4.73338C35.9692 4.64962 36.1641 4.70366 36.2554 4.85619C36.3467 5.00873 36.3023 5.20607 36.1544 5.30471L30.2924 8.93804L35.8124 5.75204C35.9693 5.66936 36.1634 5.724 36.2542 5.87637C36.3449 6.02873 36.3005 6.22548 36.153 6.32404L32.2824 8.70804L35.8124 6.66671C35.9696 6.58268 36.1651 6.63723 36.2561 6.79052C36.3471 6.94381 36.3014 7.14157 36.1524 7.23938L35.5257 7.62271L35.8124 7.45671C35.9694 7.3702 36.1668 7.42346 36.259 7.57724C36.3513 7.73102 36.3053 7.93021 36.155 8.02804L28.8264 12.6L35.8124 8.56871C35.9688 8.48512 36.1632 8.53862 36.2549 8.69046C36.3465 8.84229 36.3032 9.03929 36.1564 9.13871L26.7324 15.0774L35.8124 9.83671C35.9696 9.75268 36.1651 9.80723 36.2561 9.96052C36.3471 10.1138 36.3014 10.3116 36.1524 10.4094L35.055 11.08L35.8124 10.6434C35.9689 10.5608 36.1626 10.6149 36.2536 10.7666C36.3447 10.9183 36.3014 11.1147 36.155 11.214L28.539 15.9707L35.8124 11.7707C35.9698 11.6799 36.171 11.732 36.2646 11.8878C36.3582 12.0436 36.3098 12.2456 36.1557 12.342L27.399 17.84L35.8104 12.984C35.9668 12.9005 36.1612 12.954 36.2529 13.1058C36.3445 13.2576 36.3012 13.4546 36.1544 13.554L26.4284 19.6974L35.813 14.2794C35.969 14.1959 36.1631 14.2488 36.2551 14.4C36.3471 14.5512 36.3049 14.7479 36.159 14.848L24.233 22.4967L35.813 15.8114C35.969 15.7279 36.1631 15.7808 36.2551 15.932C36.3471 16.0832 36.3049 16.2799 36.159 16.38L24.553 23.804L35.813 17.3034C35.9699 17.2207 36.1641 17.2753 36.2548 17.4277C36.3456 17.5801 36.3011 17.7768 36.1537 17.8754L33.1324 19.7334L35.8164 18.184C35.9187 18.1231 36.0457 18.1213 36.1497 18.1794C36.2536 18.2375 36.3187 18.3467 36.3203 18.4657C36.322 18.5848 36.26 18.6957 36.1577 18.7567L31.2657 21.7747L35.811 19.1514C35.9677 19.0652 36.1644 19.118 36.2569 19.271C36.3494 19.424 36.3048 19.6227 36.1557 19.7214L25.9497 26.188L35.811 20.4947C35.9681 20.4082 36.1655 20.4615 36.2577 20.6152C36.3499 20.769 36.304 20.9682 36.1537 21.066L28.747 25.6867L35.8137 21.6087C35.9712 21.5216 36.1694 21.5753 36.2615 21.73C36.3535 21.8847 36.3061 22.0845 36.1544 22.1814L32.6317 24.348L35.8137 22.5114C35.9701 22.4278 36.1646 22.4813 36.2562 22.6331C36.3478 22.785 36.3045 22.982 36.1577 23.0814L26.9084 28.902L35.813 23.7614C35.9702 23.6762 36.1666 23.7301 36.2582 23.8836C36.3498 24.0371 36.304 24.2355 36.1544 24.3334L32.217 26.7594L35.813 24.6834C35.9705 24.5947 36.17 24.6476 36.2627 24.8027C36.3555 24.9579 36.3077 25.1587 36.155 25.2554L30.8997 28.518L35.813 25.6814C35.9695 25.5923 36.1685 25.6436 36.2624 25.7973C36.3563 25.951 36.3111 26.1515 36.1604 26.25L26.697 32.364L35.813 27.1014C35.9695 27.0123 36.1685 27.0636 36.2624 27.2173C36.3563 27.371 36.3111 27.5715 36.1604 27.67L28.7184 32.488L35.813 28.3927C35.9685 28.3069 36.164 28.358 36.2575 28.509C36.351 28.6599 36.3098 28.8577 36.1637 28.9587L29.075 33.6614L35.813 29.7714C35.97 29.6794 36.1717 29.7302 36.2663 29.8856C36.3609 30.041 36.3135 30.2435 36.1597 30.3407L33.3644 32.1407L35.813 30.7274C35.9671 30.6408 36.1619 30.6895 36.2571 30.8384C36.3523 30.9872 36.3148 31.1845 36.1717 31.288L30.4044 35.3547L35.813 32.2327C35.9665 32.1467 36.1604 32.1947 36.2559 32.3425C36.3514 32.4902 36.3158 32.6867 36.1744 32.7914L32.1477 35.6867L35.8144 33.5707C35.9667 33.4852 36.1592 33.5318 36.2556 33.6776C36.3519 33.8233 36.3194 34.0187 36.181 34.1254L33.301 36.296L35.8144 34.8454C35.967 34.7604 36.1594 34.8077 36.2553 34.9538C36.3511 35.0999 36.3178 35.2952 36.179 35.4014L35.307 36.044L35.8144 35.752C35.9615 35.664 36.1515 35.7019 36.2535 35.8398C36.3555 35.9776 36.3363 36.1704 36.209 36.2854L34.819 37.5907L35.813 37.0174C35.9548 36.9355 36.135 36.9687 36.2383 37.0957C36.3416 37.2227 36.3374 37.4059 36.2284 37.528L35.7984 38.0087C35.9601 37.9623 36.131 38.0437 36.197 38.1985C36.2629 38.3532 36.2032 38.5329 36.0577 38.6174L34.3517 39.6C34.2101 39.681 34.0307 39.6476 33.9278 39.5212C33.8248 39.3947 33.8284 39.2123 33.9364 39.09L34.345 38.6334L32.669 39.6C32.5218 39.6896 32.3306 39.6522 32.2281 39.5137C32.1255 39.3753 32.1452 39.1815 32.2737 39.0667L33.661 37.7621L30.4797 39.6C30.3267 39.6877 30.1318 39.641 30.0352 39.4935C29.9385 39.3459 29.9735 39.1487 30.115 39.0434L30.9857 38.4L28.909 39.6C28.7566 39.6874 28.5624 39.6414 28.4654 39.4949C28.3684 39.3484 28.4018 39.1517 28.5417 39.0454L31.425 36.8734L26.7017 39.6C26.5478 39.6893 26.351 39.642 26.2545 39.4926C26.158 39.3432 26.1958 39.1443 26.3404 39.0407L30.367 36.146L24.383 39.6C24.2294 39.6838 24.0371 39.6345 23.9428 39.4872C23.8484 39.3398 23.884 39.1446 24.0244 39.0401L29.793 34.9694L21.7717 39.6C21.7213 39.6302 21.6638 39.6466 21.605 39.6474Z" fill="#76898A"/>
  <path d="M24.1907 16.9887C24.0713 16.9883 23.9612 16.924 23.9021 16.8202C23.8431 16.7164 23.8441 16.5889 23.9047 16.486L24.3934 15.6614L22.8561 16.5487C22.7152 16.6298 22.5363 16.5975 22.4328 16.4722C22.3292 16.3468 22.3312 16.1651 22.4374 16.042L23.7747 14.4994L22.8561 15.0327C22.7127 15.1146 22.531 15.0793 22.4288 14.9496C22.3266 14.8198 22.3348 14.6349 22.4481 14.5147L23.4827 13.4294L22.8561 13.7907C22.7089 13.8788 22.519 13.8408 22.417 13.703C22.3149 13.5651 22.3342 13.3724 22.4614 13.2574L22.9627 12.7907L22.8561 12.8514C22.7129 12.9333 22.5313 12.8981 22.429 12.7687C22.3268 12.6392 22.3346 12.4544 22.4474 12.334L23.2967 11.4347L22.8561 11.6894C22.7406 11.7557 22.5967 11.7469 22.4901 11.667C22.3836 11.5871 22.3348 11.4515 22.3661 11.322L22.5614 10.522C22.4442 10.4734 22.3648 10.3624 22.3566 10.2357C22.3483 10.1091 22.4128 9.98876 22.5227 9.92538L22.8607 9.73071C22.9765 9.66406 23.1208 9.67291 23.2275 9.7532C23.3342 9.83349 23.3827 9.96972 23.3507 10.0994L23.1987 10.7207L24.9414 9.71471C25.0848 9.63179 25.2674 9.66676 25.37 9.79682C25.4726 9.92687 25.4641 10.1125 25.3501 10.2327L24.5014 11.13L25.1527 10.7547C25.2998 10.668 25.4886 10.7065 25.5901 10.8438C25.6915 10.9811 25.6728 11.1729 25.5467 11.288L25.0441 11.7587L25.1554 11.692C25.2988 11.6101 25.4805 11.6455 25.5827 11.7752C25.6848 11.9049 25.6766 12.0899 25.5634 12.21L24.5294 13.2934L25.1587 12.9307C25.2994 12.8504 25.4775 12.8829 25.5808 13.0077C25.684 13.1325 25.6826 13.3135 25.5774 13.4367L24.2401 14.98L25.1634 14.4467C25.2945 14.3714 25.4599 14.3938 25.5663 14.5013C25.6727 14.6088 25.6934 14.7744 25.6167 14.9047L25.1274 15.7334L25.1674 15.7107C25.2707 15.645 25.4018 15.6413 25.5087 15.7009C25.6156 15.7606 25.6812 15.8741 25.6795 15.9965C25.6779 16.119 25.6092 16.2306 25.5007 16.2874L24.3574 16.9474C24.3065 16.9758 24.249 16.9901 24.1907 16.9887Z" fill="#082D2F"/>
  <path d="M18.3744 16.9921C18.2421 16.9922 18.1223 16.9141 18.069 16.7931C18.0157 16.672 18.039 16.5309 18.1284 16.4334L18.2797 16.2687L17.5224 16.7061C17.3755 16.7902 17.1888 16.7508 17.0883 16.6144C16.9879 16.4781 17.0058 16.2881 17.1297 16.1727L17.5464 15.7901L17.5224 15.8034C17.3788 15.8854 17.1967 15.8497 17.0947 15.7194C16.9927 15.5892 17.0017 15.4039 17.1157 15.2841L18.1157 14.2474L17.5244 14.5887C17.3775 14.6717 17.1918 14.6319 17.0919 14.4959C16.992 14.36 17.0094 14.1708 17.1324 14.0554L17.5251 13.6954C17.3826 13.7763 17.2025 13.7417 17.1002 13.6138C16.9979 13.486 17.0036 13.3026 17.1137 13.1814L18.2551 11.9441L17.5251 12.3654C17.3855 12.4453 17.2088 12.4141 17.105 12.2913C17.0011 12.1685 16.9998 11.9891 17.1017 11.8647L17.6351 11.2214L17.5277 11.2834C17.4068 11.3536 17.255 11.3408 17.1474 11.2514C17.0399 11.1621 16.9996 11.0151 17.0464 10.8834L17.1797 10.4927C17.0814 10.4301 17.023 10.3207 17.0255 10.2042C17.0281 10.0876 17.0914 9.98093 17.1924 9.92275L17.5304 9.72808C17.6514 9.65744 17.8036 9.66996 17.9114 9.75941C18.0192 9.84887 18.0595 9.99617 18.0124 10.1281L17.9664 10.2614L18.8997 9.72208C19.0394 9.64135 19.2167 9.67216 19.321 9.79523C19.4252 9.9183 19.4264 10.0983 19.3238 10.2227L18.7904 10.8661L19.8178 10.2727C19.9604 10.1909 20.1414 10.2253 20.244 10.3538C20.3467 10.4822 20.3404 10.6663 20.2291 10.7874L19.0871 12.0247L19.8204 11.6007C19.9672 11.5189 20.152 11.5592 20.2514 11.6947C20.3509 11.8302 20.3339 12.0186 20.2118 12.1341L19.8204 12.4927C19.9643 12.4086 20.1482 12.4438 20.251 12.575C20.3538 12.7062 20.3439 12.8932 20.2278 13.0127L19.2277 14.0494L19.8231 13.7061C19.97 13.6219 20.1567 13.6613 20.2571 13.7977C20.3576 13.9341 20.3397 14.1241 20.2158 14.2394L19.7984 14.6234L19.8258 14.6074C19.9682 14.5256 20.1491 14.5598 20.2519 14.688C20.3546 14.8162 20.3486 15.0002 20.2378 15.1214L19.9904 15.3881C20.1088 15.3951 20.2171 15.4567 20.2838 15.5547C20.3758 15.7142 20.3212 15.918 20.1618 16.0101L18.5364 16.9481C18.4872 16.9766 18.4313 16.9917 18.3744 16.9921Z" fill="#082D2F"/>
  <path d="M29.2808 16.99C29.1565 16.9886 29.0433 16.918 28.9872 16.807C28.9311 16.696 28.9415 16.563 29.0142 16.462L29.4868 15.806L28.1882 16.5534C28.0455 16.6343 27.8651 16.5993 27.7629 16.4709C27.6608 16.3425 27.6673 16.1589 27.7782 16.038L28.8922 14.8434L28.1882 15.2494C28.042 15.3327 27.8567 15.2941 27.756 15.1593C27.6553 15.0246 27.6708 14.8359 27.7922 14.7194L28.4082 14.1314L28.1882 14.2587C28.0448 14.3416 27.8622 14.3067 27.7596 14.1766C27.657 14.0466 27.6655 13.8609 27.7795 13.7407L28.8335 12.628L28.1882 13.0007C28.041 13.0902 27.8498 13.0528 27.7472 12.9144C27.6446 12.776 27.6644 12.5822 27.7928 12.4674L28.3702 11.92L28.1882 12.0247C28.075 12.0898 27.9344 12.0828 27.8282 12.0069C27.722 11.931 27.6699 11.8001 27.6948 11.672L27.9195 10.5267C27.8405 10.5018 27.7739 10.448 27.7328 10.376C27.6408 10.2166 27.6954 10.0128 27.8548 9.92071L28.1928 9.72604C28.3062 9.66076 28.4472 9.6678 28.5535 9.74404C28.6591 9.81969 28.7111 9.94978 28.6868 10.0774L28.4868 11.0774L30.4822 9.93338C30.6294 9.84386 30.8206 9.88127 30.9232 10.0197C31.0258 10.1581 31.006 10.3519 30.8775 10.4667L30.3002 11.0147L30.4855 10.9074C30.6289 10.8245 30.8115 10.8594 30.9141 10.9895C31.0167 11.1195 31.0082 11.3052 30.8942 11.4254L29.8395 12.5334L30.4888 12.158C30.6362 12.0653 30.8301 12.1015 30.934 12.2412C31.0379 12.3809 31.0168 12.577 30.8855 12.6914L30.2688 13.2794L30.4915 13.1514C30.6343 13.0695 30.8154 13.1041 30.918 13.2328C31.0205 13.3615 31.0138 13.5458 30.9022 13.6667L29.7888 14.8607L30.4955 14.4527C30.6314 14.3754 30.8027 14.4029 30.9076 14.5188C31.0124 14.6347 31.0227 14.8079 30.9322 14.9354L30.4595 15.592L30.4988 15.57C30.6022 15.5044 30.7332 15.5006 30.8401 15.5603C30.947 15.6199 31.0126 15.7334 31.011 15.8559C31.0093 15.9783 30.9407 16.09 30.8322 16.1467L29.4475 16.9467C29.3968 16.9758 29.3393 16.9908 29.2808 16.99Z" fill="#082D2F"/>
  <path d="M16.3014 19.6667C16.1687 19.6665 16.0487 19.5876 15.996 19.4657C15.9433 19.3438 15.968 19.2023 16.0588 19.1054L17.6248 17.4387L16.1874 18.2667C16.0543 18.3457 15.884 18.321 15.7788 18.2074C15.6725 18.0952 15.6573 17.9246 15.7421 17.7954L16.2754 16.9841C16.1156 17.0133 15.958 16.9231 15.9023 16.7705C15.8466 16.6179 15.909 16.4473 16.0501 16.3667L17.1348 15.7401C17.2686 15.6625 17.4382 15.6872 17.5443 15.7997C17.6505 15.9122 17.6653 16.083 17.5801 16.2121L17.0681 16.9867L19.2454 15.7334C19.3883 15.6525 19.5688 15.6877 19.6709 15.8163C19.7729 15.9449 19.7661 16.1287 19.6548 16.2494L18.0901 17.9161L21.8734 15.7334C22.0215 15.6503 22.2083 15.6916 22.3074 15.8295C22.4064 15.9673 22.3861 16.1576 22.2601 16.2714L21.0174 17.3647L23.8441 15.7334C23.9896 15.6496 24.1746 15.687 24.2761 15.8207C24.3776 15.9548 24.3633 16.1435 24.2428 16.2607L22.7574 17.7067L26.1794 15.7334C26.3254 15.6502 26.5105 15.6886 26.6113 15.8231C26.712 15.9576 26.697 16.146 26.5761 16.2627L25.1174 17.6627L28.4581 15.7334C28.6018 15.6514 28.7838 15.6872 28.8858 15.8174C28.9878 15.9476 28.9788 16.1329 28.8648 16.2527L27.3214 17.8527L30.8394 15.8221C30.9863 15.7402 31.171 15.7805 31.2705 15.916C31.3699 16.0516 31.3529 16.2399 31.2308 16.3554L29.9881 17.4887L31.6714 16.5174C31.8213 16.4313 32.0121 16.4739 32.111 16.6157C32.2099 16.7574 32.184 16.9512 32.0514 17.0621L31.9181 17.1714C32.0537 17.1457 32.1911 17.2062 32.2637 17.3236C32.3362 17.441 32.329 17.5909 32.2454 17.7007L31.8681 18.2001C32.0296 18.1358 32.2134 18.2064 32.2904 18.3623C32.3673 18.5182 32.3114 18.707 32.1621 18.7961L30.7681 19.6007C30.6308 19.6789 30.4574 19.6499 30.353 19.5313C30.2486 19.4127 30.2418 19.2371 30.3368 19.1107L30.7141 18.6147L29.0014 19.6054C28.8519 19.6897 28.6628 19.6467 28.5645 19.5059C28.4661 19.3652 28.4908 19.1728 28.6214 19.0614L28.6681 19.0221L27.6541 19.6074C27.5073 19.6892 27.3225 19.649 27.2231 19.5134C27.1236 19.3779 27.1407 19.1896 27.2628 19.0741L28.5054 17.9407L25.6121 19.6074C25.4685 19.6894 25.2864 19.6537 25.1844 19.5234C25.0824 19.3932 25.0914 19.2079 25.2054 19.0881L26.7481 17.4881L23.0681 19.6134C22.9219 19.7029 22.7316 19.6669 22.6282 19.5301C22.5248 19.3932 22.5421 19.2003 22.6681 19.0841L24.1268 17.6841L20.7821 19.6174C20.6365 19.7025 20.4503 19.6655 20.3483 19.5311C20.2464 19.3967 20.2609 19.2074 20.3821 19.0901L21.8681 17.6414L18.4414 19.6194C18.2932 19.7041 18.1049 19.663 18.0054 19.5243C17.9058 19.3856 17.9272 19.1941 18.0548 19.0807L19.2974 17.9867L16.4681 19.6214C16.4176 19.6512 16.3601 19.6669 16.3014 19.6667Z" fill="#082D2F"/>
  <path d="M28.0866 21.6474C27.9494 21.6457 27.8273 21.5602 27.7789 21.4319C27.7304 21.3035 27.7655 21.1587 27.8673 21.0667L28.4053 20.5854L26.6379 21.6C26.4994 21.6798 26.3239 21.65 26.2194 21.5291C26.1149 21.4082 26.111 21.2302 26.2099 21.1047L27.2099 19.846L24.1693 21.6C24.0249 21.6785 23.845 21.6401 23.7453 21.5096C23.6455 21.3791 23.6557 21.1954 23.7693 21.0767L24.6193 20.2207L22.2259 21.6C22.0807 21.6827 21.8968 21.6451 21.7957 21.5121C21.6945 21.3792 21.7075 21.1919 21.8259 21.074L22.6259 20.2874L20.3526 21.6C20.2056 21.6854 20.0178 21.6465 19.9169 21.5096C19.816 21.3728 19.8342 21.182 19.9593 21.0667L20.6179 20.456L18.6379 21.6C18.4953 21.6819 18.3143 21.6475 18.2116 21.519C18.109 21.3906 18.1153 21.2065 18.2266 21.0854L19.1599 20.0767L16.5219 21.6C16.3791 21.681 16.1985 21.6458 16.0965 21.5172C15.9945 21.3885 16.0013 21.2048 16.1126 21.084L17.0346 20.102L14.9593 21.302C14.8114 21.385 14.6249 21.3437 14.5258 21.2062C14.4267 21.0687 14.4465 20.8788 14.5719 20.7647L14.7719 20.59C14.6327 20.625 14.4868 20.5669 14.4097 20.4459C14.3325 20.3249 14.3415 20.1681 14.4319 20.0567L14.7739 19.6367C14.653 19.5924 14.5684 19.4823 14.5567 19.354C14.5451 19.2257 14.6083 19.1022 14.7192 19.0367L15.8039 18.4114C15.9433 18.3305 16.1205 18.3609 16.225 18.4835C16.3294 18.6062 16.3312 18.786 16.2293 18.9107L16.0959 19.0734L17.2559 18.4C17.4038 18.3171 17.5903 18.3584 17.6894 18.4959C17.7885 18.6334 17.7687 18.8233 17.6433 18.9374L17.4933 19.0707L18.6553 18.4C18.7982 18.3182 18.9794 18.353 19.0819 18.4819C19.1844 18.6109 19.1773 18.7953 19.0653 18.916L18.1433 19.898L20.7433 18.3994C20.8859 18.3166 21.0677 18.3506 21.1708 18.4794C21.2739 18.6081 21.2673 18.793 21.1553 18.914L20.2219 19.9227L22.8553 18.4C23.0023 18.3147 23.19 18.3536 23.2909 18.4905C23.3918 18.6273 23.3736 18.8181 23.2486 18.9334L22.5906 19.544L24.5699 18.4C24.7151 18.3174 24.899 18.355 25.0002 18.488C25.1013 18.6209 25.0884 18.8082 24.9699 18.926L24.1699 19.7134L26.4459 18.4C26.5905 18.3167 26.7745 18.3531 26.8764 18.4853C26.9783 18.6176 26.9667 18.8048 26.8493 18.9234L25.9993 19.7794L28.3873 18.4C28.5257 18.3203 28.7013 18.3501 28.8058 18.471C28.9102 18.5919 28.9142 18.7699 28.8153 18.8954L27.8153 20.154L30.8559 18.4C31.0024 18.3224 31.1838 18.3642 31.2814 18.4982C31.3791 18.6323 31.3634 18.8177 31.2446 18.9334L30.7113 19.4134L32.2673 18.514C32.4152 18.4286 32.6039 18.4689 32.704 18.6074C32.8042 18.7458 32.7834 18.9376 32.6559 19.0514L32.2673 19.398L32.9339 19.0134C33.0772 18.9305 33.2596 18.9653 33.3623 19.0951C33.465 19.2249 33.4569 19.4104 33.3433 19.5307L33.0099 19.88L33.1433 19.8027C33.3015 19.7199 33.497 19.7766 33.5864 19.9313C33.6757 20.0859 33.6273 20.2835 33.4766 20.3794L31.3639 21.6C31.2207 21.682 31.0391 21.6468 30.9369 21.5173C30.8346 21.3879 30.8424 21.2031 30.9553 21.0827L31.2886 20.7334L29.7866 21.6C29.6401 21.6777 29.4587 21.6359 29.3611 21.5019C29.2634 21.3678 29.2791 21.1824 29.3979 21.0667L29.7853 20.7214L28.2533 21.6C28.203 21.6305 28.1454 21.6469 28.0866 21.6474Z" fill="#082D2F"/>
  <path d="M18.4799 10.9821C18.3336 10.9822 18.2044 10.8869 18.1613 10.7472C18.1181 10.6075 18.1711 10.4559 18.2919 10.3735L18.4572 10.2615L17.2859 10.9368C17.1337 11.0247 16.9394 10.9794 16.8419 10.8332C16.7443 10.6871 16.777 10.4903 16.9165 10.3835L20.7299 7.46415L15.6245 10.4115C15.47 10.5017 15.2719 10.4539 15.1755 10.3031C15.0792 10.1524 15.1191 9.95242 15.2659 9.85015L22.0392 5.10948C22.0234 4.9772 22.0879 4.84822 22.2032 4.78148L23.9525 3.77148C24.1068 3.68394 24.3027 3.73259 24.3981 3.88216C24.4935 4.03174 24.455 4.22982 24.3105 4.33281L21.9105 6.01081L24.8325 4.32348C24.9847 4.23558 25.179 4.28091 25.2765 4.42706C25.3741 4.57322 25.3414 4.77001 25.2019 4.87681L21.3892 7.79615L25.9739 5.15148C26.1284 5.06752 26.3216 5.1181 26.4152 5.26703C26.5088 5.41596 26.4706 5.61198 26.3279 5.71481L26.1612 5.82815L26.5759 5.58948C26.7272 5.50399 26.9188 5.54909 27.0161 5.6931C27.1133 5.83711 27.0837 6.03169 26.9479 6.14015L24.5879 7.98681L27.5339 6.28615C27.688 6.19569 27.8861 6.24289 27.9828 6.39314C28.0796 6.5434 28.0407 6.74323 27.8945 6.84615L27.8085 6.90615L28.1319 6.72015C28.2789 6.63476 28.4666 6.67371 28.5676 6.81055C28.6685 6.94738 28.6502 7.13824 28.5252 7.25348L26.7752 8.87348L29.1825 7.48415C29.3269 7.40572 29.5068 7.44411 29.6065 7.5746C29.7063 7.7051 29.6961 7.88881 29.5825 8.00748L28.4865 9.11215L30.1212 8.16881C30.253 8.09318 30.4192 8.1162 30.5254 8.22479C30.6317 8.33339 30.6511 8.50008 30.5725 8.63015L29.9179 9.70681L31.2105 8.96015C31.3335 8.88892 31.4881 8.90347 31.5956 8.9964C31.7031 9.08932 31.7399 9.24017 31.6872 9.37215L31.4872 9.87881L32.0385 9.56148C32.1968 9.47868 32.3923 9.53537 32.4816 9.69003C32.571 9.84468 32.5226 10.0423 32.3719 10.1381L30.9905 10.9381C30.8677 11.0091 30.7134 10.9945 30.606 10.9019C30.4986 10.8092 30.4617 10.6587 30.5139 10.5268L30.7139 10.0195L29.1265 10.9335C28.9948 11.0091 28.8286 10.9861 28.7223 10.8775C28.6161 10.7689 28.5967 10.6022 28.6752 10.4721L29.3299 9.39548L26.6672 10.9335C26.5229 11.0119 26.343 10.9735 26.2432 10.843C26.1435 10.7125 26.1537 10.5288 26.2672 10.4101L27.3625 9.30615L24.5339 10.9335C24.3869 11.0189 24.1991 10.9799 24.0982 10.8431C23.9973 10.7062 24.0155 10.5154 24.1405 10.4001L25.8905 8.78015L22.1572 10.9335C22.0031 11.0239 21.805 10.9767 21.7083 10.8265C21.6115 10.6762 21.6504 10.4764 21.7965 10.3735L21.8839 10.3121L20.8065 10.9335C20.6552 11.019 20.4636 10.9739 20.3664 10.8299C20.2691 10.6859 20.2988 10.4913 20.4345 10.3828L22.8005 8.53948L18.6479 10.9395C18.5966 10.9683 18.5387 10.983 18.4799 10.9821Z" fill="#082D2F"/>
  <path d="M24.113 0.354757H8.17964C8.05111 0.362736 7.92664 0.402851 7.81764 0.471424C2.31164 0.79009 3.51831 7.86676 3.51831 11.6974C3.51831 13.3954 3.09498 15.1934 5.18898 15.5441C7.17897 15.8774 9.46564 15.5761 11.515 15.5488V35.0001C11.515 36.7874 10.9423 39.0754 13.1016 39.6381C15.655 40.3048 19.211 39.6474 21.835 39.6474C25.7356 39.6474 29.6776 39.8181 33.575 39.6474C35.2723 39.5734 36.2976 39.3348 36.4883 37.4381C36.7943 34.3934 36.4883 31.1601 36.4883 28.1048V4.61809C36.4883 4.60276 36.479 4.59342 36.477 4.58009C36.475 4.56676 36.487 4.55276 36.485 4.53742C35.9036 -1.21858 28.1103 0.354757 24.113 0.354757ZM7.52364 15.1228C5.61031 15.1228 4.68831 14.8528 4.48364 12.8188C4.20098 9.98142 3.35498 1.18209 7.58231 0.891424C7.6507 0.946745 7.73569 0.977499 7.82364 0.978757C12.507 1.45209 11.515 6.79342 11.515 10.0494V15.1228H7.52364ZM34.6056 39.0214C33.323 39.5454 30.6923 39.0214 29.3143 39.0214H20.8936C18.8383 39.0214 16.4643 39.3548 14.427 39.0214C12.953 38.7821 12.6503 38.2581 12.4856 36.8941C11.967 32.6021 12.4856 27.9314 12.4856 23.6114V8.08476C12.4856 6.17742 12.733 2.40609 10.9216 1.00209C11.2283 0.99009 11.5316 0.978757 11.825 0.978757H20.8223C24.711 0.978757 34.921 -0.869243 35.515 4.77876V30.5674C35.515 32.1374 36.5256 38.2368 34.6056 39.0214Z" fill="white"/>
  <path d="M32.9573 18.5394C32.8072 18.4524 32.6466 18.3852 32.4793 18.3394C32.4606 16.9054 32.2193 16.1747 31.1566 15.8767V10.9434H32.1566C32.276 10.9349 32.3918 10.8986 32.4946 10.8374C32.5789 10.824 32.6596 10.7938 32.732 10.7487L33.0393 10.5161C33.0913 10.4767 33.1586 10.3794 33.1353 10.3074C32.6266 8.75005 29.3973 7.27005 28.0966 6.32472C26.926 5.47339 25.3393 3.58405 23.712 3.85272C22.142 4.11139 20.2273 6.24472 18.9933 7.14205C17.8273 7.98739 15.3346 9.06672 14.868 10.4947C14.8557 10.5407 14.8689 10.5898 14.9026 10.6234C15.488 10.9902 16.1619 11.1916 16.8526 11.2061V15.8934C15.724 16.2934 15.5446 17.15 15.5193 18.4267C15.4025 18.4635 15.289 18.5101 15.18 18.566C14.2673 19.0807 13.656 20.668 14.58 21.4514C15.384 22.1334 17.746 21.6687 18.6466 21.6687H32.6193C32.7519 21.6697 32.8804 21.6223 32.9806 21.5354C33.5252 21.2311 33.8606 20.6542 33.8558 20.0305C33.8509 19.4067 33.5065 18.8351 32.9573 18.5394ZM25.8173 15.6781V10.9407H27.5126V15.6554C26.9473 15.6587 26.3833 15.6667 25.8173 15.6781ZM20.484 11.0821C21.122 11.0241 21.7086 10.9681 22.1853 10.9487V15.7121C21.6293 15.6934 21.058 15.6607 20.484 15.6361V11.0821ZM23.1506 10.9407H24.852V15.7C24.2817 15.7134 23.7146 15.7216 23.1506 15.7247V10.9407ZM28.49 15.6521V11.0121H30.1793V15.6547H28.5473C28.528 15.6547 28.5093 15.6527 28.49 15.6521ZM16.4273 9.72805C17.5786 8.36939 19.7346 7.32339 21.1706 6.27872C21.908 5.74539 23.2693 4.34939 24.0826 4.43339C25.2973 4.55939 27.56 6.96205 28.526 7.66405C28.8166 7.87605 31.606 9.73072 31.9546 10.3927H31.0253C30.9295 10.3417 30.8218 10.3171 30.7133 10.3214H28.0466C27.958 10.3278 27.8716 10.3521 27.7926 10.3927H17.5446C16.3166 10.3927 15.5626 10.7481 16.4273 9.72805ZM19.5186 11.1654V15.6074C18.9503 15.5979 18.3819 15.6262 17.8173 15.692V11.2421C18.376 11.2407 18.9526 11.2087 19.5186 11.1654ZM18.7813 16.2727H24.1253C24.3446 16.2727 24.5813 16.2627 24.824 16.25H25.1253C25.2049 16.2481 25.284 16.2374 25.3613 16.218C26.056 16.17 26.8006 16.1074 27.5266 16.0934C27.5626 16.29 27.766 16.3454 27.956 16.3454H29.8293C30.7019 16.5727 31.3498 17.3061 31.468 18.2C30.4193 18.156 29.2226 18.3374 28.4806 18.3374H19.6186C18.7926 18.3374 17.5133 18.1454 16.4286 18.242C15.3686 16.6334 17.882 16.2727 18.7813 16.2727ZM15.286 20.646C14.378 18.8594 17.056 18.9987 17.972 18.9987H29.4526C29.7146 18.9987 30.0526 18.9607 30.3913 18.9394H31.0226C31.1516 18.9449 31.2795 18.9648 31.404 18.9987C31.9566 19.172 33.5653 20.4414 32.5893 20.9987H24.3833C23.0153 21 15.8866 21.8267 15.286 20.646Z" fill="white"/>
  <path d="M32.4667 24.884C32.758 24.884 33.514 24.4494 32.8734 24.4494H15.54C15.2487 24.4494 14.4927 24.884 15.1334 24.884H32.4667Z" fill="#76898A"/>
  <path d="M15.5301 27.0881C15.2041 27.0881 14.4928 27.5787 15.1395 27.5787H32.4728C32.7988 27.5787 33.5101 27.0881 32.8635 27.0881H15.5301Z" fill="#0C393B"/>
  <path d="M23.5336 29.7814H15.5336C15.2409 29.7814 14.4869 30.2188 15.1283 30.2188H23.1283C23.4236 30.2188 24.1776 29.7814 23.5336 29.7814Z" fill="#0C393B"/>
  <path d="M32.8757 34.4668C32.2653 34.5023 31.6722 34.6831 31.1457 34.9941C30.3957 35.4514 29.8924 35.9708 28.8611 35.4901C28.4357 35.2901 28.1597 34.8514 27.7131 34.6581C27.1264 34.4299 26.481 34.4011 25.8764 34.5761C25.0217 34.8028 24.3857 35.7168 23.5431 35.8001C23.2764 35.8254 22.4984 36.2668 23.1297 36.2054C23.7413 36.1703 24.3355 35.9895 24.8631 35.6781C25.6137 35.2208 26.1177 34.7008 27.1491 35.1821C27.5744 35.3821 27.8504 35.8208 28.2971 36.0141C28.8837 36.2423 29.5291 36.2712 30.1337 36.0961C30.9877 35.8694 31.623 34.9554 32.467 34.8721C32.7257 34.8434 33.507 34.4001 32.8757 34.4668Z" fill="white"/>
</svg>
