<svg width="40" height="40" viewBox="0 0 40 40" fill="none"
  xmlns="http://www.w3.org/2000/svg">
  <path d="M10.3514 9.66679C10.2048 9.66653 10.0756 9.57058 10.033 9.43036C9.99043 9.29013 10.0444 9.13853 10.1661 9.05679L12.6261 7.41012L8.85405 9.58479C8.69948 9.6735 8.50247 9.62493 8.40685 9.47453C8.31122 9.32414 8.35082 9.12513 8.49672 9.02279L13.2527 5.70746L8.66072 8.35879C8.50554 8.45075 8.30536 8.40258 8.209 8.2501C8.11264 8.09762 8.15506 7.89614 8.30472 7.79546L11.4767 5.60679L8.35205 7.41079C8.19887 7.50076 8.00204 7.45478 7.90456 7.30626C7.80709 7.15773 7.84322 6.95886 7.98672 6.85412L11.7647 4.04879L7.97072 6.23879C7.81951 6.32542 7.62709 6.28096 7.52921 6.13677C7.43134 5.99258 7.46105 5.79734 7.59739 5.68879L10.6534 3.26679L7.58139 5.04146C7.42795 5.13257 7.22997 5.08668 7.13226 4.93735C7.03456 4.78802 7.07179 4.58824 7.21672 4.48412L7.85405 4.01746L7.34339 4.31212C7.19664 4.39286 7.01277 4.35217 6.9138 4.21705C6.81482 4.08193 6.83148 3.89435 6.95272 3.77879L7.98805 2.83946L7.04139 3.38612C6.90866 3.46164 6.74158 3.43731 6.63591 3.32707C6.53024 3.21683 6.51299 3.04887 6.59405 2.91946L6.82405 2.56079C6.66187 2.61182 6.48727 2.53261 6.41885 2.37696C6.35044 2.22131 6.41013 2.03911 6.55739 1.95412L7.67405 1.31012C7.80678 1.2346 7.97385 1.25894 8.07953 1.36918C8.1852 1.47942 8.20245 1.64737 8.12139 1.77679L7.89939 2.12212L10.3567 0.703456C10.5035 0.622717 10.6873 0.66341 10.7863 0.798529C10.8853 0.933648 10.8686 1.12123 10.7474 1.23679L9.71005 2.17346L12.696 0.449456C12.8491 0.361794 13.0439 0.40851 13.1406 0.556038C13.2372 0.703565 13.2022 0.900842 13.0607 1.00612L12.4247 1.47279L14.2567 0.416789C14.4082 0.327694 14.6029 0.371584 14.7016 0.517082C14.8002 0.66258 14.7689 0.859673 14.63 0.967456L11.5727 3.38946L16.4347 0.582789C16.5875 0.49592 16.7815 0.542626 16.878 0.689521C16.9746 0.836416 16.9404 1.03302 16.8 1.13879L13.0234 3.94412L18.3107 0.891456C18.4663 0.792965 18.6722 0.839229 18.7707 0.994789C18.8692 1.15035 18.8229 1.3563 18.6674 1.45479L15.496 3.64279L19.696 1.21879C19.8506 1.13008 20.0476 1.17865 20.1433 1.32905C20.2389 1.47944 20.1993 1.67845 20.0534 1.78079L15.2967 5.09546L21.03 1.78612C21.186 1.69346 21.3875 1.74259 21.4833 1.89667C21.5792 2.05075 21.5341 2.25318 21.382 2.35212L18.9154 4.00012L20.9527 2.82412C21.1071 2.73212 21.3067 2.77912 21.4038 2.93038C21.5009 3.08164 21.4606 3.28266 21.3127 3.38479L18.2794 5.54546L20.4794 4.27412C20.6329 4.18456 20.8297 4.23121 20.9267 4.38016C21.0237 4.52911 20.9867 4.72795 20.8427 4.83212L19.2994 5.96546L20.076 5.51679C20.221 5.43527 20.4039 5.47307 20.5046 5.6054C20.6054 5.73772 20.5932 5.92407 20.476 6.04212L18.7547 7.75479L19.4874 7.33346C19.6227 7.25475 19.7945 7.28075 19.9004 7.39597C20.0063 7.51119 20.0178 7.68459 19.928 7.81279L19.4367 8.51612C19.557 8.56167 19.6403 8.67235 19.6509 8.80054C19.6614 8.92873 19.5973 9.05154 19.486 9.11612L18.6387 9.60546C18.5035 9.68345 18.3322 9.65712 18.2266 9.54211C18.1211 9.42709 18.1095 9.25421 18.1987 9.12612L18.5247 8.65946L16.8787 9.61012C16.7338 9.69165 16.5509 9.65384 16.4501 9.52151C16.3494 9.38919 16.3616 9.20285 16.4787 9.08479L18.2007 7.36946L14.3174 9.61146C14.1643 9.69788 13.9703 9.6505 13.8743 9.5032C13.7783 9.35591 13.8132 9.15936 13.9541 9.05412L15.496 7.92079L12.5681 9.61212C12.4141 9.69994 12.2183 9.65193 12.1225 9.50284C12.0267 9.35375 12.0642 9.15572 12.2081 9.05212L15.2434 6.88879L10.5207 9.61546C10.47 9.64769 10.4115 9.66545 10.3514 9.66679Z" fill="#76898A"/>
  <path d="M14.8294 39.5696C14.6842 39.5695 14.5558 39.4756 14.5118 39.3373C14.4677 39.199 14.5183 39.0481 14.6367 38.9642L17.5034 36.9342L13.0367 39.5116C12.881 39.6001 12.6832 39.5498 12.5887 39.3976C12.4942 39.2454 12.5369 39.0458 12.6854 38.9456L14.976 37.4209L11.6487 39.3416C11.4927 39.432 11.293 39.382 11.1981 39.2286C11.1031 39.0752 11.1474 38.8742 11.298 38.7749L15.0707 36.2722L10.3207 39.0142C10.1659 39.0991 9.97173 39.0485 9.87799 38.8989C9.78425 38.7493 9.82345 38.5525 9.96737 38.4502L16.846 33.7836L8.79804 38.4329C8.64211 38.5175 8.4472 38.4652 8.35464 38.3138C8.26209 38.1625 8.30431 37.9651 8.4507 37.8649L13.8754 34.3516L7.71337 37.9082C7.55735 37.9917 7.36326 37.9388 7.27128 37.7876C7.17929 37.6364 7.22148 37.4397 7.36737 37.3396L12.8507 33.8296L6.78137 37.3336C6.62465 37.4185 6.42886 37.365 6.33698 37.2123C6.24509 37.0596 6.28961 36.8616 6.43804 36.7629L9.24404 35.0089L6.0727 36.8382C5.91623 36.9292 5.71574 36.8787 5.62105 36.7245C5.52636 36.5702 5.57208 36.3686 5.72404 36.2702L15.5547 29.8616L5.02537 35.9402C4.86836 36.0282 4.66987 35.9756 4.57696 35.8215C4.48404 35.6674 4.53026 35.4673 4.68137 35.3696L10.5794 31.6736L4.3687 35.2596C4.2113 35.3551 4.00625 35.305 3.9107 35.1476C3.81516 34.9902 3.8653 34.7851 4.0227 34.6896L13.1654 28.8736L3.6187 34.3849C3.46198 34.4698 3.2662 34.4164 3.17431 34.2636C3.08242 34.1109 3.12694 33.9129 3.27537 33.8142L9.83004 29.7162L3.08337 33.6109C2.92585 33.698 2.72763 33.6443 2.63561 33.4896C2.54359 33.3349 2.59099 33.1351 2.7427 33.0382L3.05204 32.8482L2.7267 33.0369C2.56893 33.1319 2.36403 33.081 2.26904 32.9232C2.17404 32.7655 2.22493 32.5605 2.3827 32.4656L9.9567 27.7122L2.23604 32.1696C2.07908 32.2593 1.87923 32.2075 1.78555 32.0529C1.69188 31.8983 1.73852 31.6971 1.8907 31.5996L11.598 25.4256L1.78004 31.0922C1.67822 31.154 1.55116 31.1568 1.44672 31.0995C1.34228 31.0423 1.27634 30.9336 1.27372 30.8145C1.2711 30.6955 1.33222 30.584 1.43404 30.5222L11.3114 24.2282L1.39804 29.9556C1.24027 30.0505 1.03536 29.9997 0.94037 29.8419C0.845377 29.6841 0.896267 29.4792 1.05404 29.3842L8.1207 24.9529L1.1547 28.9742C0.997812 29.0569 0.80365 29.0023 0.712903 28.8499C0.622156 28.6975 0.666602 28.5008 0.814036 28.4022L1.8887 27.7422L1.01004 28.2496C0.853716 28.3343 0.658421 28.2814 0.566212 28.1294C0.474002 27.9773 0.517341 27.7797 0.664703 27.6802L9.51337 22.0469L0.91337 27.0142C0.756793 27.1017 0.559034 27.0497 0.465875 26.8964C0.372717 26.7431 0.41757 26.5436 0.567369 26.4449L9.22404 20.9116L0.890703 25.7236C0.733558 25.8088 0.537172 25.7548 0.445568 25.6013C0.353965 25.4478 0.39976 25.2494 0.54937 25.1516L0.882703 24.9476C0.722015 25.0016 0.546372 24.9264 0.474542 24.7728C0.402712 24.6193 0.457576 24.4363 0.602036 24.3476L8.4827 19.2882L1.13937 23.5269C0.982901 23.6179 0.782411 23.5674 0.68772 23.4131C0.593029 23.2589 0.638743 23.0572 0.790703 22.9589L9.02404 17.6116L1.47737 21.9682C1.32167 22.0568 1.12382 22.0065 1.02935 21.8543C0.934886 21.7021 0.977583 21.5025 1.12604 21.4022L9.84337 15.6142L2.08204 20.0949C1.92641 20.1851 1.72728 20.1355 1.63207 19.9829C1.53687 19.8303 1.57992 19.6297 1.72937 19.5296L8.34404 15.0669L2.9147 18.2002C2.75901 18.2888 2.56115 18.2385 2.46669 18.0863C2.37222 17.9341 2.41492 17.7345 2.56337 17.6342L5.78604 15.4869L3.8107 16.6302C3.71007 16.6944 3.58284 16.7 3.47694 16.645C3.37104 16.5899 3.30255 16.4826 3.29727 16.3633C3.292 16.2441 3.35074 16.1311 3.45137 16.0669L6.48737 13.9189L5.1727 14.6809C5.0225 14.7629 4.83463 14.7178 4.73797 14.5766C4.64132 14.4354 4.66727 14.2439 4.79804 14.1336L7.96004 11.6002C7.87112 11.5265 7.82673 11.412 7.8427 11.2976L7.95004 10.5209C7.86777 10.4972 7.79795 10.4425 7.75537 10.3682C7.66321 10.209 7.71752 10.0052 7.8767 9.91289L8.1887 9.73222C8.29878 9.66885 8.43531 9.67354 8.54077 9.74433C8.64624 9.81511 8.70231 9.93967 8.68537 10.0656L8.59604 10.7129L10.3027 9.72756C10.4536 9.64027 10.6463 9.68401 10.7447 9.8279C10.8431 9.97178 10.8141 10.1672 10.678 10.2762L8.6327 11.9136L12.4274 9.72289C12.5816 9.63396 12.7785 9.68191 12.8745 9.83179C12.9706 9.98167 12.9319 10.1806 12.7867 10.2836L9.7507 12.4309L14.4474 9.71889C14.6031 9.63033 14.8009 9.68065 14.8954 9.83283C14.9899 9.98502 14.9472 10.1847 14.7987 10.2849L11.574 12.4336L16.282 9.71556C16.4377 9.62536 16.6368 9.67491 16.732 9.82753C16.8272 9.98015 16.7841 10.1808 16.6347 10.2809L10.0187 14.7429L18.7314 9.71089C18.8879 9.61387 19.0934 9.66207 19.1904 9.81856C19.2874 9.97504 19.2392 10.1805 19.0827 10.2776L10.372 16.0669L19.6967 10.6829C19.8537 10.5868 20.0589 10.6362 20.155 10.7932C20.2511 10.9503 20.2017 11.1555 20.0447 11.2516L11.812 16.5956L20.3654 11.6569C20.5223 11.5649 20.724 11.6158 20.8186 11.7711C20.9132 11.9265 20.8658 12.129 20.712 12.2262L12.83 17.2882L21.27 12.4149C21.4282 12.3206 21.6328 12.3724 21.727 12.5306C21.8213 12.6887 21.7695 12.8933 21.6114 12.9876L21.516 13.0462L21.7554 12.9082C21.9119 12.8207 22.1097 12.8728 22.2029 13.0261C22.296 13.1794 22.2512 13.3789 22.1014 13.4776L13.4447 19.0076L22.5154 13.7702C22.6728 13.6747 22.8778 13.7248 22.9734 13.8822C23.0689 14.0396 23.0188 14.2447 22.8614 14.3402L14.0207 19.9676L23.236 14.6469C23.3944 14.5526 23.5991 14.6046 23.6934 14.7629C23.7876 14.9212 23.7357 15.126 23.5774 15.2202L22.4907 15.8869L23.624 15.2309C23.7818 15.1359 23.9867 15.1868 24.0817 15.3446C24.1767 15.5023 24.1258 15.7072 23.968 15.8022L16.9014 20.2322L24.168 16.0389C24.325 15.9492 24.5248 16.001 24.6185 16.1556C24.7122 16.3102 24.6655 16.5113 24.5134 16.6089L14.6347 22.9036L24.7554 17.0609C24.9123 16.9712 25.1122 17.023 25.2059 17.1776C25.2995 17.3322 25.2529 17.5333 25.1007 17.6309L15.3934 23.8036L25.2787 18.0962C25.4357 18.0082 25.6342 18.0608 25.7271 18.2149C25.82 18.3691 25.7738 18.5691 25.6227 18.6669L18.0467 23.4222L25.6947 19.0062C25.853 18.9122 26.0576 18.9642 26.1517 19.1226C26.2458 19.2809 26.1937 19.4855 26.0354 19.5796L25.7254 19.7689L25.9294 19.6509C26.0868 19.5601 26.288 19.6122 26.3816 19.768C26.4752 19.9237 26.4268 20.1258 26.2727 20.2222L19.7174 24.3202L26.2554 20.5462C26.4123 20.4565 26.6122 20.5083 26.7059 20.6629C26.7995 20.8175 26.7529 21.0186 26.6007 21.1162L17.4607 26.9336L26.202 21.8869C26.3595 21.7961 26.5606 21.8482 26.6543 22.004C26.7479 22.1597 26.6994 22.3618 26.5454 22.4582L20.644 26.1556L25.8814 23.1322C26.0382 23.0358 26.2436 23.0847 26.34 23.2416C26.4365 23.3984 26.3876 23.6038 26.2307 23.7002L16.398 30.1069L25.4274 24.8942C25.5839 24.8117 25.7776 24.8658 25.8686 25.0175C25.9597 25.1691 25.9164 25.3656 25.77 25.4649L22.97 27.2149L25.1547 25.9542C25.3109 25.8683 25.5071 25.9205 25.6 26.0728C25.6928 26.225 25.6493 26.4234 25.5014 26.5229L20.0114 30.0362L24.8194 27.2609C24.9755 27.1736 25.1727 27.2252 25.2662 27.3777C25.3596 27.5303 25.316 27.7294 25.1674 27.8289L19.74 31.3442L24.4734 28.6109C24.6287 28.5224 24.8262 28.5721 24.921 28.7237C25.0158 28.8752 24.9742 29.0746 24.8267 29.1756L17.95 33.8422L24.0327 30.3336C24.1887 30.2431 24.3884 30.2931 24.4834 30.4465C24.5783 30.5999 24.534 30.8009 24.3834 30.9002L20.6134 33.4002L23.7027 31.6169C23.8584 31.5283 24.0563 31.5786 24.1507 31.7308C24.2452 31.883 24.2025 32.0827 24.054 32.1829L21.762 33.7082L23.4094 32.7576C23.5636 32.6686 23.7605 32.7166 23.8565 32.8665C23.9526 33.0163 23.9139 33.2152 23.7687 33.3182L20.902 35.3489L23.0647 34.0976C23.2159 34.0136 23.4062 34.0593 23.5028 34.2026C23.5995 34.346 23.5705 34.5395 23.436 34.6482L21.6027 36.0816L22.72 35.4369C22.8793 35.3463 23.0818 35.4013 23.1735 35.56C23.2651 35.7187 23.2114 35.9216 23.0534 36.0142L17.818 39.0369C17.6668 39.1208 17.4766 39.0752 17.3799 38.9318C17.2832 38.7884 17.3122 38.5949 17.4467 38.4862L19.2814 37.0509L14.998 39.5249C14.9469 39.5548 14.8886 39.5702 14.8294 39.5696Z" fill="#76898A"/>
  <path d="M8.17754 11.6474C8.04756 11.6475 7.92941 11.572 7.87486 11.454C7.82031 11.336 7.83932 11.1971 7.92354 11.0981L8.90954 9.93675L7.07554 10.9954C6.94698 11.0694 6.78499 11.0496 6.67811 10.9467C6.57123 10.8438 6.54518 10.6827 6.61421 10.5514L7.13554 9.56142L7.05087 9.61075C6.89159 9.70132 6.68907 9.64633 6.59745 9.48765C6.50583 9.32897 6.55947 9.12609 6.71754 9.03342L7.80221 8.40675C7.9308 8.33217 8.09324 8.35175 8.20042 8.45476C8.30761 8.55777 8.33363 8.7193 8.26421 8.85075L7.74221 9.84075L10.2415 8.40009C10.382 8.31884 10.5606 8.35056 10.6645 8.47521C10.7684 8.59985 10.7674 8.78121 10.6622 8.90475L9.67621 10.0668L12.5622 8.40009C12.7114 8.31394 12.9016 8.35562 13.0011 8.49626C13.1005 8.63689 13.0765 8.83015 12.9455 8.94209L12.6122 9.22809L14.0462 8.40009C14.1901 8.31599 14.374 8.35111 14.4768 8.48232C14.5796 8.61354 14.5697 8.80051 14.4535 8.92009L13.5615 9.84475L16.0635 8.40009C16.2096 8.31216 16.3984 8.34859 16.5013 8.48453C16.6041 8.62048 16.5879 8.81212 16.4635 8.92875L15.6929 9.66675L17.8929 8.39609C18.0349 8.31425 18.2154 8.34785 18.3185 8.47533C18.4216 8.60281 18.4166 8.78631 18.3069 8.90809L17.3495 9.97142L20.0022 8.44275C20.1448 8.36091 20.3258 8.39531 20.4285 8.52376C20.5312 8.65222 20.5248 8.83634 20.4135 8.95742L19.5175 9.92942L20.9802 9.08409C21.118 9.00469 21.2927 9.03369 21.3974 9.15336C21.5022 9.27302 21.5078 9.45001 21.4109 9.57609L20.9442 10.1861L21.0389 10.1314C21.1982 10.0409 21.4007 10.0958 21.4923 10.2545C21.5839 10.4132 21.5303 10.6161 21.3722 10.7088L19.8222 11.6001C19.6846 11.6788 19.5105 11.6497 19.406 11.5305C19.3015 11.4112 19.2955 11.2349 19.3915 11.1087L19.8582 10.4981L17.9515 11.6001C17.8089 11.6819 17.6279 11.6475 17.5253 11.5191C17.4226 11.3906 17.4289 11.2065 17.5402 11.0854L18.4362 10.1134L15.8615 11.6001C15.7197 11.681 15.5401 11.6472 15.4373 11.5203C15.3345 11.3934 15.3389 11.2107 15.4475 11.0887L16.4022 10.0274L13.6762 11.6001C13.5302 11.688 13.3413 11.6516 13.2385 11.5156C13.1356 11.3797 13.1519 11.1881 13.2762 11.0714L14.0455 10.3334L11.8455 11.6001C11.7016 11.6842 11.5177 11.6491 11.4149 11.5178C11.3122 11.3866 11.3221 11.1997 11.4382 11.0801L12.3302 10.1548L9.82821 11.6001C9.67905 11.6862 9.48881 11.6445 9.38935 11.5039C9.28988 11.3633 9.31395 11.17 9.44487 11.0581L9.77821 10.7714L8.34421 11.6001C8.29379 11.6303 8.2363 11.6466 8.17754 11.6474Z" fill="#76898A"/>
  <path d="M30.453 39.6002C30.3073 39.6 30.1786 39.5052 30.1353 39.3661C30.0919 39.227 30.1439 39.0759 30.2637 38.9929L31.6117 38.0596L29.125 39.4949C28.9711 39.5827 28.7753 39.5347 28.6795 39.3856C28.5836 39.2365 28.6212 39.0385 28.765 38.9349L33.1803 35.7916L27.3937 39.1336C27.239 39.2209 27.0431 39.1716 26.9481 39.0215C26.8531 38.8714 26.8925 38.6733 27.0377 38.5709L32.2377 34.9842L26.0097 38.5796C25.8538 38.6654 25.658 38.6137 25.5649 38.4621C25.4717 38.3105 25.514 38.1125 25.661 38.0122L28.5197 36.1529L25.133 38.1076C24.9774 38.1911 24.7836 38.1387 24.6912 37.9881C24.5989 37.8376 24.64 37.6411 24.785 37.5402L28.333 35.2376L24.371 37.5249C24.2141 37.6169 24.0124 37.566 23.9178 37.4107C23.8232 37.2553 23.8706 37.0528 24.0243 36.9556L26.2643 35.5256L23.7243 36.9922C23.5681 37.0782 23.3719 37.0259 23.2791 36.8737C23.1863 36.7214 23.2297 36.5231 23.3777 36.4236L26.1537 34.6489L23.1663 36.3722C23.0102 36.4595 22.813 36.4079 22.7195 36.2554C22.6261 36.1028 22.6697 35.9037 22.8183 35.8042L27.8443 32.5336L22.5283 35.6002C22.372 35.6849 22.1767 35.6321 22.0845 35.48C21.9923 35.328 22.0356 35.1304 22.183 35.0309L24.445 33.5949L22.1343 34.9282C21.9774 35.0202 21.7757 34.9694 21.6811 34.814C21.5865 34.6586 21.6339 34.4561 21.7877 34.3589L25.7757 31.7929L21.709 34.1409C21.5524 34.227 21.3556 34.1743 21.2631 34.0213C21.1706 33.8683 21.2153 33.6696 21.3643 33.5709L22.2977 32.9829L21.449 33.4722C21.2936 33.5593 21.0972 33.5089 21.003 33.3576C20.9089 33.2064 20.9503 33.0079 21.097 32.9069L27.8663 28.3602L21.0777 32.2802C20.9207 32.3722 20.719 32.3214 20.6244 32.166C20.5298 32.0106 20.5773 31.8081 20.731 31.7109L23.731 29.7776L20.9617 31.3776C20.8059 31.4601 20.6129 31.4071 20.5211 31.2567C20.4293 31.1062 20.4704 30.9103 20.615 30.8096L23.197 29.1429L20.873 30.4876C20.7161 30.5795 20.5144 30.5287 20.4198 30.3733C20.3252 30.218 20.3726 30.0154 20.5263 29.9182L21.3083 29.4196L20.9177 29.6449C20.7632 29.7351 20.565 29.6873 20.4687 29.5365C20.3723 29.3858 20.4122 29.1858 20.559 29.0836L26.2437 25.0836L21.1657 28.0169C21.0102 28.1027 20.8147 28.0516 20.7212 27.9006C20.6277 27.7497 20.6689 27.5519 20.815 27.4509L22.1663 26.5562L21.4997 26.9409C21.346 27.0278 21.1512 26.9797 21.0555 26.8313C20.9599 26.683 20.9965 26.4857 21.139 26.3816L23.8863 24.4129L22.3157 25.3202C22.1642 25.4107 21.9685 25.3675 21.8692 25.2217C21.7699 25.0759 21.8014 24.878 21.941 24.7702L23.8837 23.2262C23.8181 23.198 23.7635 23.1491 23.7283 23.0869C23.6362 22.9276 23.6905 22.7238 23.8497 22.6316L26.725 20.9722C26.876 20.8861 27.0678 20.9305 27.1657 21.0742C27.2635 21.2179 27.2345 21.4126 27.099 21.5216L25.873 22.4962L29.4343 20.4402C29.588 20.3534 29.7828 20.4014 29.8785 20.5498C29.9742 20.6982 29.9376 20.8954 29.795 20.9996L27.0457 22.9669L31.2457 20.5409C31.4017 20.4504 31.6014 20.5005 31.6963 20.6538C31.7912 20.8072 31.7469 21.0083 31.5963 21.1076L30.2597 21.9949L32.3517 20.7869C32.5057 20.7003 32.7005 20.749 32.7957 20.8979C32.8909 21.0467 32.8535 21.244 32.7103 21.3476L27.0197 25.3522L33.909 21.3756C34.066 21.2836 34.2677 21.3344 34.3623 21.4898C34.4569 21.6452 34.4094 21.8477 34.2557 21.9449L33.4737 22.4436L34.639 21.7709C34.7953 21.685 34.9914 21.7372 35.0843 21.8895C35.1771 22.0417 35.1336 22.24 34.9857 22.3396L32.4143 24.0002L35.3917 22.2816C35.5479 22.1956 35.7441 22.2479 35.8369 22.4001C35.9297 22.5524 35.8863 22.7507 35.7383 22.8502L32.7383 24.7802L36.081 22.8502C36.2364 22.7631 36.4328 22.8136 36.527 22.9648C36.6211 23.116 36.5797 23.3145 36.433 23.4156L29.6597 27.9616L36.9383 23.7616C37.095 23.6754 37.2917 23.7282 37.3842 23.8812C37.4767 24.0341 37.4321 24.2329 37.283 24.3316L36.355 24.9162L37.3963 24.3162C37.5526 24.2303 37.7488 24.2825 37.8416 24.4348C37.9344 24.587 37.891 24.7854 37.743 24.8849L33.7483 27.4562L37.8663 25.0749C38.023 24.9887 38.2197 25.0415 38.3122 25.1945C38.4047 25.3475 38.3601 25.5462 38.211 25.6449L35.9443 27.0829L38.2363 25.7602C38.3922 25.6744 38.588 25.7261 38.6811 25.8777C38.7743 26.0293 38.732 26.2273 38.585 26.3276L33.563 29.6002L38.5997 26.6909C38.7566 26.5989 38.9583 26.6497 39.0529 26.8051C39.1475 26.9605 39.1001 27.163 38.9463 27.2602L36.167 29.0369L38.8477 27.4889C39.0051 27.3932 39.2103 27.4432 39.306 27.6006C39.4017 27.758 39.3517 27.9632 39.1943 28.0589L36.9537 29.4889L39.003 28.3062C39.1592 28.219 39.3564 28.2705 39.4498 28.4231C39.5433 28.5756 39.4997 28.7747 39.351 28.8742L35.8137 31.1722L39.1003 29.2742C39.2568 29.1832 39.4573 29.2337 39.552 29.388C39.6467 29.5423 39.601 29.7439 39.449 29.8422L36.5823 31.7089L39.089 30.2622C39.2432 30.178 39.4363 30.228 39.5304 30.3764C39.6244 30.5248 39.587 30.7208 39.445 30.8242L34.2483 34.4089L38.915 31.7142C39.069 31.6264 39.2647 31.6744 39.3606 31.8235C39.4564 31.9726 39.4188 32.1706 39.275 32.2742L34.8663 35.4142L38.3957 33.3769C38.5503 33.2896 38.7463 33.3388 38.8413 33.4889C38.9362 33.639 38.8968 33.8372 38.7517 33.9396L37.399 34.8729L37.6657 34.7176C37.817 34.6291 38.011 34.673 38.1095 34.8179C38.2081 34.9628 38.1776 35.1593 38.0397 35.2676L36.1263 36.7802C36.2385 36.8331 36.312 36.9439 36.3172 37.0678C36.3223 37.1916 36.2583 37.3081 36.151 37.3702L33.275 39.0302C33.1238 39.1169 32.9314 39.0724 32.8335 38.9282C32.7356 38.784 32.7653 38.5888 32.9017 38.4802L34.035 37.5856L30.6197 39.5562C30.569 39.5854 30.5115 39.6006 30.453 39.6002Z" fill="#0C393B"/>
  <path d="M22.8502 36.3841C25.1781 39.0467 28.825 40.1411 32.2342 39.2001C41.9449 36.8308 42.0609 23.3141 32.3989 20.6995C30.6153 20.3548 28.7737 20.4644 27.0435 21.0181C26.0249 17.9141 23.8355 12.8695 20.6629 11.2848C21.6049 10.8181 22.3695 9.91079 21.3649 8.91079C20.9456 8.56097 20.4102 8.38155 19.8649 8.40812C20.4755 6.55879 21.2335 4.69812 21.6835 2.80812C21.9269 1.78945 21.3029 1.59279 20.3949 1.34145C18.4139 0.796938 16.3712 0.508589 14.3169 0.483452C12.2971 0.512658 10.2882 0.784837 8.33354 1.29412C7.45287 1.52412 6.16487 1.65212 6.2322 2.78479C6.2902 3.76412 6.95087 4.99612 7.25087 5.91812C7.52554 6.76256 7.80043 7.60701 8.07554 8.45145C6.98354 8.63345 5.65154 9.50945 6.36954 10.8015C6.58756 11.1754 6.96347 11.4301 7.39154 11.4941C5.92487 12.3501 4.71154 14.0148 3.79687 15.3208C-0.457797 21.3975 -1.4698 30.0308 4.1302 35.6281C9.27887 40.7828 17.2755 40.7275 22.8502 36.3841ZM31.6002 21.0628C34.2458 21.6567 36.4994 23.3775 37.7692 25.7732C39.0389 28.1689 39.1979 31 38.2042 33.5228C37.0115 36.6435 34.8249 37.8628 31.6042 38.4455C28.6249 38.9835 26.8509 38.9681 24.4842 37.0001C23.1867 35.9159 22.2106 34.4974 21.6615 32.8981C20.2835 28.9168 21.8482 24.8515 25.0695 22.3241C25.4878 22.0516 25.928 21.8144 26.3855 21.6148C26.6447 21.6531 26.9047 21.5517 27.0695 21.3481C28.5287 20.8578 30.0911 20.7594 31.6002 21.0628ZM7.4462 2.11079C7.88354 1.44812 9.0462 1.38479 9.77354 1.24412C11.0627 0.997751 12.3712 0.866346 13.6835 0.851452C15.6826 0.879643 17.6698 1.16464 19.5962 1.69945C21.0209 2.09945 20.8482 2.64212 20.4835 3.76145C19.9782 5.31701 19.4727 6.87256 18.9669 8.42812C18.7782 8.43612 18.5949 8.44412 18.4282 8.44412C15.4495 8.44412 12.1049 8.02812 9.08154 8.33212L7.64754 3.91745C7.4222 3.22545 7.04687 2.71545 7.4462 2.11079ZM7.49354 9.38279C7.74173 9.11397 8.0683 8.93016 8.42687 8.85745C8.55565 8.84424 8.68248 8.81628 8.80487 8.77412C10.4455 8.49212 12.9682 8.89412 14.0869 8.89412H18.2375C18.6505 8.84511 19.0679 8.84511 19.4809 8.89412C20.3175 9.13145 21.7342 10.4941 20.1742 11.0688C18.8355 10.5801 16.5135 11.0228 15.1429 11.0228C13.2662 11.0228 10.7835 10.6181 8.8702 10.9621C7.6002 10.7435 6.7722 10.2908 7.49354 9.38279ZM6.46687 13.2488C7.99154 11.5935 8.36954 11.6441 10.4569 11.6441H16.0415C17.5822 11.6441 19.0229 11.3581 20.2609 12.2088C23.1942 14.2235 25.0495 18.1088 26.1089 21.3648C25.4773 21.6319 24.8715 21.9562 24.2989 22.3335C24.2869 22.3427 24.2757 22.353 24.2655 22.3641C24.2536 22.3694 24.2421 22.3754 24.2309 22.3821C22.1696 23.9089 20.8149 26.2057 20.4757 28.7483C20.1365 31.2909 20.8419 33.8624 22.4309 35.8761C15.9335 41.1035 6.3382 39.3335 2.56487 31.7961C-0.552464 25.5715 1.98754 18.1081 6.46687 13.2488Z" fill="white"/>
  <path d="M14.3471 31.1569C14.1501 31.1569 13.9979 31.0258 13.8904 30.7635C13.7041 30.3068 13.4229 29.7665 13.0467 29.1425L12.0956 27.508C11.8879 27.716 11.5655 28.0076 11.1284 28.3829C11.089 29.0837 11.0693 29.7665 11.0693 30.4312C11.0693 30.6346 11.0192 30.7997 10.9189 30.9263C10.8221 31.0529 10.6968 31.1162 10.5427 31.1162C10.1809 31.1162 10 30.8087 10 30.1938C10 29.8185 10.0197 29.2578 10.0591 28.5118C10.1021 27.7612 10.1236 27.1982 10.1236 26.823C10.1236 26.1357 10.1308 25.3512 10.1451 24.4695C10.163 23.5832 10.172 22.801 10.172 22.1228C10.172 21.9193 10.163 21.6797 10.1451 21.4038C10.1308 21.128 10.1236 20.8884 10.1236 20.6849C10.1236 20.4814 10.172 20.3164 10.2687 20.1898C10.369 20.0632 10.4961 19.9999 10.6502 19.9999C10.8042 19.9999 10.9296 20.0632 11.0263 20.1898C11.1266 20.3164 11.1768 20.4814 11.1768 20.6849C11.1768 20.8929 11.1857 21.1393 11.2037 21.4242C11.2216 21.7045 11.2305 21.9487 11.2305 22.1567L11.1929 24.3406C11.175 25.1274 11.1696 25.9141 11.1768 26.7009C11.664 26.2306 12.1333 25.7152 12.5846 25.1545L13.7668 23.6149C13.885 23.4612 14.0122 23.3843 14.1483 23.3843C14.288 23.3843 14.4134 23.4544 14.5244 23.5945C14.6391 23.7347 14.6964 23.8975 14.6964 24.0829C14.6964 24.2366 14.6445 24.3881 14.5406 24.5373C14.0999 25.1884 13.5572 25.887 12.9124 26.633L14.0838 28.6474C14.6319 29.5924 14.906 30.2074 14.906 30.4922C14.906 30.6731 14.8486 30.8291 14.734 30.9602C14.623 31.0913 14.494 31.1569 14.3471 31.1569Z" fill="white"/>
  <path d="M19.9946 25.8666C19.9696 26.4318 19.7904 26.7144 19.4573 26.7144C19.1492 26.7144 18.9952 26.4906 18.9952 26.043C18.9952 25.9571 18.9898 25.7988 18.979 25.5682L18.9629 24.9985C18.3969 25.0844 17.9438 25.2856 17.6034 25.6021C17.2846 25.896 17.0195 26.3391 16.8082 26.9315L16.8189 30.6482C16.8189 31.1049 16.6416 31.3332 16.2869 31.3332C15.9717 31.3332 15.8141 31.1049 15.8141 30.6482V25.887C15.8141 25.7378 15.8177 25.514 15.8248 25.2155C15.8356 24.9171 15.8409 24.6933 15.8409 24.5441C15.8409 24.0874 15.9986 23.8591 16.3138 23.8591C16.6649 23.8591 16.8422 24.2344 16.8458 24.9849C17.5336 24.1484 18.2966 23.7302 19.1349 23.7302C19.425 23.7302 19.6418 23.8681 19.7851 24.1439C19.9284 24.4197 20 24.8357 20 25.3919C20 25.627 19.9982 25.7853 19.9946 25.8666Z" fill="white"/>
  <path d="M5.16733 19.9401C5.954 18.2068 7.33 15.2735 9.258 14.5828C10.3049 14.2929 11.3945 14.1891 12.4773 14.2761C12.8433 14.2761 13.502 13.7241 12.852 13.7241C11.3253 13.7241 9.83933 13.6455 8.44666 14.3908C6.386 15.4955 5.12533 18.0208 4.20066 20.0575C4.06466 20.3555 5.024 20.2555 5.16733 19.9401Z" fill="white"/>
  <path d="M3.2822 22.7081C3.22754 22.9303 3.17665 23.1526 3.12954 23.3748C3.0342 23.8281 4.01953 23.7015 4.10553 23.2921C4.1522 23.0699 4.20309 22.8477 4.2582 22.6255C4.3682 22.1815 3.38287 22.3021 3.2822 22.7081Z" fill="white"/>
  <path d="M27.1098 31.7901C26.8112 31.4914 25.8958 31.8814 26.2245 32.2101L28.2245 34.2101C28.3623 34.318 28.5395 34.3621 28.7117 34.3315C28.884 34.3008 29.0351 34.1982 29.1272 34.0494C30.6827 31.3828 32.2383 28.7161 33.7938 26.0494C34.0605 25.5934 33.0805 25.5961 32.8739 25.9508L28.6005 33.2788L27.1098 31.7901Z" fill="white"/>
</svg>
