<svg width="52" height="52" viewBox="0 0 52 52" fill="none"
    xmlns="http://www.w3.org/2000/svg">
    <path d="M12.1538 45.3251C12.0067 45.3254 11.8775 45.2277 11.8376 45.0861C11.7978 44.9446 11.857 44.7938 11.9826 44.7173L12.6003 44.3396L10.9695 45.2786C10.8154 45.3633 10.622 45.3114 10.531 45.1609C10.44 45.0105 10.4839 44.815 10.6305 44.7179L21.0502 38.1245L8.69805 45.2556C8.5439 45.3391 8.35132 45.2866 8.26094 45.1364C8.17056 44.9861 8.21435 44.7914 8.36035 44.6943L19.4259 37.7559L7.65084 44.5573C7.49439 44.6507 7.29181 44.5996 7.19838 44.4432C7.10494 44.2867 7.15603 44.0841 7.31248 43.9907L12.4272 40.8641L7.49608 43.712C7.34159 43.7971 7.14746 43.7447 7.05674 43.5935C6.96601 43.4422 7.01122 43.2463 7.15903 43.15L18.2915 36.2078L7.49608 42.4399C7.34193 42.5234 7.14936 42.4708 7.05898 42.3206C6.96859 42.1704 7.01239 41.9756 7.15838 41.8786L19.6659 34.0261L7.49608 41.0517C7.34389 41.1214 7.16361 41.0653 7.0779 40.9215C6.99219 40.7777 7.02858 40.5924 7.16231 40.4917L10.1977 38.6405L7.49608 40.2005C7.34256 40.278 7.15525 40.2237 7.06697 40.0761C6.97869 39.9286 7.01945 39.7378 7.16035 39.6392L16.3354 33.9618L7.49608 39.0648C7.34122 39.1541 7.14336 39.1029 7.05128 38.9496C6.9592 38.7964 7.00684 38.5977 7.15838 38.5028L19.0502 31.0635L7.49608 37.7317C7.34159 37.8168 7.14746 37.7644 7.05674 37.6131C6.96601 37.4619 7.01122 37.2659 7.15903 37.1697L18.7951 29.8963L7.49608 36.4196C7.34122 36.5089 7.14336 36.4576 7.05128 36.3044C6.9592 36.1512 7.00684 35.9524 7.15838 35.8576L19.6279 28.0327L7.49543 35.0346C7.34042 35.1189 7.14651 35.0654 7.05664 34.9136C6.96677 34.7618 7.01318 34.566 7.16166 34.4707L8.7551 33.5041L7.49543 34.2314C7.34003 34.3199 7.14232 34.2676 7.05109 34.1137C6.95986 33.9599 7.00876 33.7613 7.161 33.6674L11.7335 30.8773L7.49543 33.3232C7.34119 33.4055 7.14945 33.3524 7.05964 33.2024C6.96983 33.0523 7.01357 32.8582 7.15903 32.7612L16.6895 26.8596L7.49543 32.1638C7.34127 32.2473 7.1487 32.1948 7.05832 32.0446C6.96794 31.8943 7.01173 31.6996 7.15772 31.6025L19.6167 23.7822L7.49543 30.7809C7.34159 30.8631 7.15031 30.8105 7.06018 30.6611C6.97005 30.5118 7.01263 30.318 7.15707 30.2202L20.3971 21.8687L7.49543 29.3192C7.34003 29.4078 7.14232 29.3554 7.05109 29.2016C6.95986 29.0478 7.00876 28.8492 7.161 28.7553L12.2102 25.6687L7.49543 28.3887C7.33952 28.4809 7.13842 28.4292 7.04625 28.2733C6.95408 28.1174 7.00575 27.9163 7.16166 27.8241L8.48035 27.0241L7.49674 27.592C7.34119 27.6847 7.13994 27.6338 7.04723 27.4782C6.95452 27.3227 7.00546 27.1214 7.161 27.0287L14.3151 22.6104L7.49543 26.5448C7.34189 26.6259 7.15172 26.5733 7.06179 26.4247C6.97185 26.2761 7.01335 26.0832 7.15641 25.9848L18.74 18.6451L7.49543 25.1369C7.39516 25.1975 7.2702 25.2 7.16762 25.1434C7.06504 25.0868 7.00042 24.9799 6.99811 24.8627C6.9958 24.7456 7.05614 24.6362 7.15641 24.5756L17.542 18.0097L7.49543 23.8097C7.34135 23.8944 7.14786 23.8425 7.05688 23.6921C6.96589 23.5416 7.0098 23.3461 7.15641 23.2491L16.8003 17.1507L7.49543 22.5205C7.34135 22.6053 7.14786 22.5534 7.05688 22.4029C6.96589 22.2524 7.0098 22.057 7.15641 21.9599L16.0744 16.3205L7.49543 21.2694C7.34135 21.3541 7.14786 21.3022 7.05688 21.1517C6.96589 21.0013 7.0098 20.8058 7.15641 20.7087L15.0541 15.7179L7.49543 20.0818C7.34148 20.1695 7.14576 20.119 7.05343 19.9678C6.96109 19.8166 7.00553 19.6195 7.15379 19.5225L15.9407 13.8458L7.49543 18.7212C7.34243 18.8045 7.15103 18.7535 7.05962 18.6053C6.96821 18.457 7.0087 18.2631 7.15182 18.1638L14.8994 13.0864L7.49543 17.3605C7.34297 17.4419 7.15354 17.391 7.06245 17.2441C6.97136 17.0973 7.00989 16.9049 7.15051 16.8045L13.6377 12.4917L7.49543 16.0386C7.34152 16.1281 7.14432 16.0784 7.05118 15.9267C6.95804 15.7749 7.00301 15.5766 7.15248 15.4799L10.4476 13.3317L7.49674 15.0366C7.34471 15.1192 7.15468 15.0694 7.06262 14.9229C6.97057 14.7765 7.00818 14.5837 7.14854 14.4825L11.2141 11.714L7.49543 13.8589C7.34366 13.945 7.15103 13.8972 7.0572 13.75C6.96337 13.6029 7.00122 13.4081 7.1433 13.3068L10.3564 11.0582L7.49543 12.71C7.3444 12.7935 7.15452 12.7456 7.06113 12.6005C6.96774 12.4554 7.0028 12.2628 7.14133 12.1599L9.19379 10.6956L7.49543 11.6753C7.34834 11.7582 7.1623 11.7159 7.0656 11.5775C6.9689 11.439 6.99316 11.2498 7.12166 11.1402L9.4574 9.19136L7.49543 10.3238C7.35626 10.4044 7.17922 10.3721 7.0774 10.2477C6.97559 10.1232 6.97906 9.94327 7.08559 9.82283L8.43903 8.28841L7.49543 8.83267C7.35827 8.91132 7.18453 8.88088 7.08227 8.7603C6.98001 8.63971 6.97838 8.46333 7.07838 8.34087L7.41084 7.93628C7.29245 7.89162 7.21032 7.78283 7.19981 7.65673C7.1893 7.53063 7.25229 7.40975 7.36166 7.34611L8.43182 6.72709C8.56902 6.64763 8.74342 6.67771 8.84606 6.79856C8.94869 6.9194 8.95016 7.09638 8.84953 7.2189L8.73084 7.3625L9.84559 6.72119C9.98457 6.64151 10.1608 6.67393 10.2623 6.79786C10.3638 6.9218 10.3609 7.10095 10.2554 7.22152L8.90264 8.75398L12.4272 6.72119C12.5743 6.63825 12.7604 6.68059 12.8571 6.81903C12.9538 6.95747 12.9295 7.14671 12.801 7.25627L10.4672 9.20316L14.7689 6.72119C14.9203 6.63481 15.1128 6.68204 15.2071 6.82869C15.3014 6.97533 15.2644 7.17011 15.123 7.27201L13.0725 8.73365L16.5617 6.72119C16.7136 6.63243 16.9086 6.67947 17.0033 6.82777C17.0981 6.97607 17.0588 7.17273 16.9144 7.27332L13.6981 9.52119L18.5525 6.72119C18.7045 6.6386 18.8945 6.68836 18.9866 6.83485C19.0786 6.98133 19.041 7.17414 18.9007 7.27529L14.8351 10.0425L20.5892 6.72119C20.7427 6.63391 20.9378 6.68392 21.0304 6.83431C21.123 6.9847 21.0799 7.18142 20.9328 7.27923L17.6384 9.42546L22.3289 6.72119C22.4813 6.63984 22.6708 6.69078 22.7619 6.83763C22.8529 6.98448 22.8144 7.17682 22.6738 7.27726L16.182 11.5907L24.6174 6.72119C24.7704 6.63794 24.9618 6.68885 25.0532 6.83713C25.1446 6.98541 25.1041 7.17928 24.961 7.27857L17.2141 12.3527L26.9735 6.72119C27.1271 6.63537 27.321 6.68609 27.413 6.83613C27.5049 6.98616 27.462 7.18201 27.3158 7.27988L18.5256 12.9546L28.9328 6.94808C29.0878 6.85446 29.2894 6.90422 29.383 7.05923C29.4766 7.21423 29.4268 7.41577 29.2718 7.50939L21.3721 12.5009L29.7335 7.67398C29.8878 7.58575 30.0844 7.63667 30.1766 7.78875C30.2687 7.94084 30.2228 8.13865 30.0731 8.23464L21.161 13.874L30.5256 8.46677C30.68 8.37854 30.8766 8.42945 30.9687 8.58154C31.0608 8.73362 31.0149 8.93143 30.8653 9.02742L21.2259 15.1258L31.3453 9.28316C31.4996 9.19493 31.6962 9.24585 31.7884 9.39793C31.8805 9.55002 31.8346 9.74783 31.6849 9.84382L21.2935 16.4137L32.1859 10.1251C32.34 10.0404 32.5335 10.0923 32.6245 10.2428C32.7155 10.3932 32.6715 10.5887 32.5249 10.6858L20.9354 18.03L33.083 11.0189C33.2385 10.926 33.4399 10.9768 33.5328 11.1323C33.6257 11.2879 33.5749 11.4893 33.4194 11.5822L26.2718 15.9973L33.7472 11.6818C33.9022 11.5976 34.0962 11.651 34.186 11.8029C34.2759 11.9547 34.2295 12.1505 34.081 12.2458L32.784 13.0327L34.2515 12.1855C34.4064 12.0998 34.6014 12.1526 34.6919 12.3048C34.7824 12.4569 34.7358 12.6535 34.5866 12.7487L29.5223 15.8464L34.6259 12.9002C34.7804 12.8137 34.9756 12.8654 35.067 13.017C35.1584 13.1686 35.1129 13.3654 34.9643 13.4615L21.7262 21.8071L34.6699 14.3317C34.824 14.2482 35.0166 14.3007 35.107 14.4509C35.1973 14.6012 35.1536 14.7959 35.0076 14.893L22.542 22.7212L34.6699 15.7192C34.8247 15.632 35.021 15.684 35.1122 15.8366C35.2034 15.9892 35.1564 16.1867 35.0062 16.2818L25.4758 22.1835L34.6699 16.8779C34.8245 16.7953 35.0168 16.8489 35.1063 16.9997C35.1958 17.1505 35.1509 17.345 35.0043 17.4412L30.4482 20.2222L34.6699 17.7855C34.8249 17.7012 35.0188 17.7547 35.1086 17.9065C35.1985 18.0583 35.1521 18.2541 35.0036 18.3494L33.4108 19.3159L34.6699 18.59C34.8247 18.5007 35.0226 18.552 35.1147 18.7052C35.2067 18.8584 35.1591 19.0572 35.0076 19.152L22.5308 26.9835L34.6705 19.9743C34.8244 19.8931 35.015 19.9463 35.1046 20.0955C35.1941 20.2447 35.1516 20.4379 35.0076 20.5356L23.3715 27.8091L34.6705 21.2864C34.8247 21.2029 35.0172 21.2555 35.1076 21.4057C35.198 21.5559 35.1542 21.7507 35.0082 21.8477L23.1197 29.2878L34.6705 22.6196C34.8245 22.5393 35.0144 22.5931 35.1034 22.7422C35.1925 22.8913 35.1499 23.0839 35.0062 23.1815L25.8417 28.8523L34.6705 23.7546C34.8255 23.6703 35.0194 23.7238 35.1093 23.8757C35.1992 24.0275 35.1528 24.2232 35.0043 24.3186L31.9492 26.1776L34.6705 24.6038C34.8247 24.5203 35.0172 24.5729 35.1076 24.7231C35.198 24.8733 35.1542 25.0681 35.0082 25.1651L22.5007 33.0202L34.6705 25.9946C34.825 25.9095 35.0191 25.9619 35.1099 26.1132C35.2006 26.2644 35.1554 26.4604 35.0076 26.5566L23.8836 33.4937L34.6705 27.2641C34.8252 27.1815 35.0175 27.2351 35.107 27.3859C35.1965 27.5367 35.1515 27.7312 35.0049 27.8274L29.8941 30.9527L34.6705 28.1986C34.8247 28.1151 35.0172 28.1676 35.1076 28.3178C35.198 28.4681 35.1542 28.6628 35.0082 28.7599L23.9394 35.6989L34.6705 29.5041C34.8246 29.4194 35.0181 29.4713 35.1091 29.6218C35.2 29.7723 35.1561 29.9677 35.0095 30.0648L24.5892 36.6609L34.6705 30.8405C34.8252 30.7579 35.0175 30.8115 35.107 30.9623C35.1965 31.1131 35.1515 31.3076 35.0049 31.4038L34.3938 31.7782L34.6705 31.6182C34.8242 31.5337 35.0172 31.5851 35.1085 31.7349C35.1998 31.8846 35.157 32.0797 35.0115 32.1776L26.0279 37.9632L34.6699 32.9743C34.8226 32.8921 35.0129 32.943 35.1042 33.0905C35.1954 33.2381 35.1559 33.4311 35.0141 33.531L26.2633 39.3192L34.6685 34.4668C34.8225 34.3807 35.0171 34.4319 35.1087 34.5827C35.2003 34.7335 35.1562 34.9297 35.0089 35.0268L30.963 37.6189L34.6685 35.4799C34.8209 35.3928 35.0149 35.4411 35.1086 35.5896C35.2022 35.7381 35.1623 35.934 35.018 36.034L28.4003 40.5927L34.6705 36.9723C34.8237 36.8866 35.0173 36.9368 35.1095 37.0862C35.2018 37.2356 35.16 37.4311 35.0148 37.5297L32.4036 39.2543L34.6705 37.9461C34.8238 37.8617 35.0164 37.9125 35.108 38.0616C35.1996 38.2107 35.158 38.4055 35.0135 38.5041L34.5656 38.7973L34.6705 38.7369C34.8235 38.6463 35.0209 38.6941 35.1154 38.8449C35.2099 38.9956 35.167 39.1941 35.0187 39.2923L33.6731 40.2058L34.6718 39.6294C34.8233 39.5443 35.0149 39.5922 35.1086 39.7386C35.2022 39.885 35.1654 40.079 35.0246 40.1809L33.6961 41.1192L34.6718 40.556C34.8219 40.4712 35.012 40.5171 35.1068 40.661C35.2016 40.8049 35.1689 40.9977 35.0318 41.1022L33.9118 41.9389L34.6718 41.5009C34.8194 41.4183 35.0056 41.4614 35.1017 41.6006C35.1978 41.7397 35.1724 41.9291 35.043 42.0379L34.2449 42.6937L34.6718 42.4478C34.8025 42.3709 34.9689 42.3936 35.0741 42.5027C35.1794 42.6119 35.196 42.779 35.1144 42.9068L34.3944 44.0628L34.5138 43.9933C34.6705 43.9042 34.8697 43.9583 34.9598 44.1144C35.0499 44.2705 34.9971 44.47 34.8417 44.5612L33.5958 45.2825C33.465 45.3601 33.2982 45.3376 33.1926 45.2283C33.087 45.119 33.0704 44.9514 33.1525 44.8235L33.8738 43.6615L31.0692 45.2786C30.9215 45.3626 30.7342 45.3199 30.6375 45.1802C30.5408 45.0406 30.5668 44.8501 30.6974 44.7415L31.4948 44.0891L29.4338 45.2786C29.2838 45.3616 29.0953 45.3151 29.0011 45.1719C28.9069 45.0287 28.9389 44.8372 29.0744 44.7323L30.1892 43.8996L27.7984 45.2766C27.6473 45.359 27.4582 45.3105 27.3653 45.1656C27.2725 45.0206 27.3075 44.8286 27.4456 44.7258L28.7761 43.7855L26.1931 45.2786C26.0407 45.3643 25.8477 45.3153 25.7547 45.1671C25.6617 45.0189 25.7014 44.8238 25.8449 44.7238L27.1931 43.8058L24.6469 45.2786C24.4934 45.3659 24.2983 45.3158 24.2057 45.1655C24.1131 45.0151 24.1562 44.8183 24.3033 44.7205L24.7518 44.4274L23.2771 45.2799C23.1241 45.3643 22.9319 45.314 22.8399 45.1655C22.7479 45.017 22.7885 44.8225 22.9321 44.7232L25.5453 42.9979L21.5905 45.2786C21.4386 45.3623 21.2477 45.3131 21.1551 45.1665C21.0625 45.0198 21.1001 44.8264 21.241 44.7251L27.8607 40.1651L19.0043 45.2786C18.8508 45.3607 18.6599 45.3086 18.5694 45.1599C18.479 45.0112 18.5205 44.8178 18.664 44.7192L22.7092 42.131L17.2495 45.2786C17.0968 45.3608 16.9064 45.3099 16.8152 45.1623C16.724 45.0148 16.7634 44.8217 16.9053 44.7218L25.6554 38.9343L14.6653 45.2786C14.5119 45.3618 14.3202 45.3103 14.2291 45.1615C14.1381 45.0126 14.1796 44.8185 14.3236 44.7199L23.3072 38.935L12.3177 45.2786C12.2681 45.3083 12.2116 45.3243 12.1538 45.3251Z" fill="#CED2DC"/>
    <path d="M40.6012 26.5244C40.4656 26.5244 40.344 26.4408 40.2953 26.3143C40.2466 26.1877 40.2809 26.0442 40.3815 25.9533L41.2845 25.1369L39.5868 26.1166C39.4408 26.2001 39.2552 26.1596 39.1573 26.0228C39.0594 25.886 39.0809 25.6973 39.2071 25.5861L40.5186 24.4392L39.3382 25.1211C39.1944 25.2092 39.0072 25.1737 38.9055 25.0392C38.8038 24.9046 38.8208 24.7148 38.9448 24.6005L40.2497 23.3546L39.0622 24.0398C38.9155 24.1246 38.7283 24.0836 38.6305 23.9452C38.5327 23.8069 38.5563 23.6168 38.6851 23.5067L40.0792 22.3107V22.3061C39.989 22.1496 40.0424 21.9496 40.1986 21.8589L41.4766 21.1198C41.6231 21.0368 41.8086 21.0782 41.9059 21.2156C42.0032 21.353 41.9806 21.5417 41.8537 21.6523L41.7881 21.7093L42.2799 21.4254C42.4237 21.3374 42.6109 21.3728 42.7126 21.5074C42.8143 21.642 42.7973 21.8317 42.6733 21.9461L41.3684 23.192L43.093 22.1966C43.239 22.113 43.4245 22.1536 43.5224 22.2903C43.6203 22.4271 43.5988 22.6158 43.4727 22.7271L42.1612 23.8733L43.634 23.0208C43.7783 22.9424 43.9582 22.9829 44.0552 23.1154C44.1521 23.2479 44.136 23.4317 44.0176 23.5454L43.1146 24.3618L43.3114 24.2503C43.467 24.1689 43.6593 24.2247 43.7472 24.3768C43.8351 24.5289 43.7875 24.7233 43.6392 24.8175L40.771 26.4733C40.7203 26.5059 40.6615 26.5236 40.6012 26.5244Z" fill="#295474"/>
    <path d="M29.7257 37.6438C29.6063 37.6439 29.4963 37.5791 29.4384 37.4747C29.3806 37.3702 29.3841 37.2426 29.4477 37.1415L30.0864 36.1238L27.7336 37.4831C27.5903 37.5668 27.4071 37.5304 27.3069 37.3982C27.2066 37.266 27.2209 37.0798 27.3401 36.9644L28.3421 35.9887L27.9283 36.2274C27.8012 36.3026 27.6392 36.2821 27.5349 36.1775C27.429 36.0745 27.4051 35.9134 27.4765 35.7841L28.2962 34.2949C28.2883 34.2844 28.2811 34.2726 28.2739 34.2615C28.2302 34.1861 28.2183 34.0965 28.2408 34.0123C28.2633 33.9282 28.3184 33.8564 28.3939 33.813L28.7165 33.6274C28.8439 33.5539 29.0047 33.5742 29.1098 33.6772C29.2149 33.7801 29.2385 33.9404 29.1677 34.0693L28.6168 35.0746L30.2903 34.1087C30.4335 34.025 30.6167 34.0614 30.717 34.1936C30.8172 34.3258 30.803 34.512 30.6837 34.6274L29.6798 35.6018L30.9034 34.8956C31.0339 34.8202 31.1989 34.8435 31.3034 34.952C31.4079 35.0605 31.425 35.2264 31.3447 35.3539L30.7054 36.3716L31.207 36.0825C31.3086 36.0178 31.4375 36.0142 31.5427 36.0729C31.6478 36.1315 31.7124 36.2432 31.7107 36.3636C31.7091 36.484 31.6416 36.5938 31.5349 36.6497L29.8896 37.5992C29.84 37.6285 29.7834 37.6439 29.7257 37.6438Z" fill="#295474"/>
    <path d="M31.1547 13.194C31.0249 13.1939 30.9073 13.1172 30.855 12.9984C30.8026 12.8796 30.8253 12.741 30.9128 12.6451L31.2301 12.2976L29.9685 13.0254C29.8238 13.1121 29.6369 13.0747 29.5366 12.9391C29.4363 12.8035 29.4552 12.6139 29.5803 12.5008L30.0203 12.089L29.3108 12.4982C29.1735 12.5776 28.999 12.5473 28.8965 12.4263C28.794 12.3052 28.7928 12.1281 28.8938 12.0058L30.0006 10.6661L29.1338 11.1664C28.9963 11.2449 28.8225 11.2141 28.7204 11.0931C28.6184 10.9721 28.6174 10.7955 28.718 10.6733L29.2924 9.98151L29.1338 10.0733C29.0033 10.1463 28.8399 10.1218 28.7366 10.0137C28.6333 9.90563 28.6162 9.74133 28.6951 9.61429L29.0505 9.06741C28.9625 9.09129 28.8684 9.07573 28.7928 9.02478C28.6894 8.95855 28.6317 8.84012 28.6433 8.7179L28.7547 7.57692C28.6744 7.5078 28.6324 7.40409 28.642 7.29851C28.6516 7.19294 28.7117 7.09854 28.8033 7.04511L28.9521 6.95856C29.0585 6.89631 29.1909 6.89902 29.2947 6.96558C29.3984 7.03213 29.4561 7.15128 29.4439 7.27396L29.358 8.14347L29.8918 7.83462C30.0227 7.75806 30.189 7.78127 30.294 7.89074C30.3989 8.00022 30.4151 8.16738 30.3331 8.29495L29.9921 8.81954L30.5561 8.49167C30.6934 8.41225 30.868 8.44263 30.9705 8.5638C31.0725 8.6856 31.0725 8.86299 30.9705 8.98478L30.3954 9.67593L31.2479 9.18413C31.3852 9.10473 31.5597 9.13502 31.6622 9.25608C31.7647 9.37713 31.7658 9.55421 31.6649 9.67659L30.5574 11.0228L32.1593 10.0989C32.304 10.0136 32.4897 10.0515 32.5895 10.1865C32.6893 10.3216 32.6709 10.5102 32.5469 10.6235L32.1075 11.0346L32.7331 10.674C32.8731 10.5935 33.0509 10.6269 33.152 10.7528C33.2532 10.8786 33.2477 11.0594 33.139 11.1789L32.8216 11.5264L33.3062 11.2471C33.4151 11.1841 33.5505 11.1889 33.6546 11.2596C33.7587 11.3304 33.8132 11.4544 33.7947 11.5789L33.6964 12.2445L34.0813 12.0228C34.1829 11.9582 34.3118 11.9545 34.417 12.0132C34.5221 12.0719 34.5867 12.1835 34.585 12.3039C34.5834 12.4244 34.5159 12.5342 34.4092 12.59L33.4374 13.1507C33.3287 13.2121 33.1946 13.2064 33.0915 13.1361C32.9884 13.0658 32.9341 12.9431 32.9515 12.8195L33.0492 12.1546L31.3187 13.1474C31.2692 13.1774 31.2126 13.1935 31.1547 13.194Z" fill="#8B93A2"/>
    <path d="M31.0235 36.4958C30.886 36.4956 30.7631 36.4096 30.7159 36.2803C30.6688 36.1511 30.7073 36.0062 30.8124 35.9174L33.3042 33.819L30.2878 35.5613C30.1353 35.6471 29.9424 35.598 29.8494 35.4499C29.7564 35.3017 29.7961 35.1066 29.9396 35.0066L30.8812 34.3653L29.7429 35.021C29.589 35.1105 29.3918 35.0608 29.2986 34.9091C29.2055 34.7574 29.2505 34.559 29.3999 34.4623L30.2163 33.9292L29.2203 34.5036C29.0666 34.5894 28.8727 34.5387 28.7808 34.3887C28.6888 34.2387 28.7317 34.0428 28.878 33.9449L30.9711 32.5817L29.558 33.3974C29.4064 33.4813 29.2156 33.4328 29.1225 33.2866C29.0295 33.1404 29.0663 32.9471 29.2065 32.8453L34.1042 29.4262L32.7455 30.2131C32.5969 30.2967 32.409 30.2525 32.3133 30.1113C32.2177 29.9701 32.2462 29.7792 32.3789 29.6721L36.0812 26.7476C35.9466 26.7461 35.8265 26.6625 35.7785 26.5367C35.7304 26.4109 35.7642 26.2686 35.8635 26.1777L38.0832 24.1449C38.0653 24.0132 38.1288 23.8837 38.2439 23.8171L38.8124 23.4892C38.9569 23.4076 39.1395 23.4468 39.2378 23.5805C39.3361 23.7142 39.319 23.9003 39.198 24.0138L38.5107 24.6439L39.4386 24.1082C39.5877 24.0206 39.7791 24.0637 39.8762 24.2069C39.9732 24.35 39.9424 24.5438 39.8058 24.6499L36.354 27.3705L40.3842 25.0439C40.5362 24.9567 40.73 25.0045 40.8241 25.1524C40.9181 25.3003 40.8792 25.4961 40.7357 25.5967L35.8386 29.0125L41.2439 25.8918C41.3978 25.8023 41.595 25.852 41.6881 26.0037C41.7812 26.1555 41.7363 26.3538 41.5868 26.4505L39.4884 27.8158L40.114 27.4551C40.2673 27.3707 40.4599 27.4215 40.5515 27.5706C40.6431 27.7197 40.6015 27.9145 40.457 28.0131L38.417 29.3443C38.5451 29.3711 38.6451 29.4716 38.6712 29.5999C38.6972 29.7282 38.6445 29.8597 38.537 29.9344L36.4386 31.3633C36.5535 31.3982 36.6402 31.493 36.6645 31.6106C36.6888 31.7282 36.6469 31.8496 36.5553 31.9272L33.2157 34.7489C33.2528 34.7753 33.2837 34.8095 33.3062 34.8492C33.3967 35.006 33.343 35.2065 33.1862 35.2971L31.1868 36.4512C31.1373 36.4804 31.081 36.4958 31.0235 36.4958Z" fill="#346D94"/>
    <path d="M21.1015 21.157C20.9307 21.157 20.7988 21.0259 20.7056 20.7636C20.5442 20.3069 20.3005 19.7666 19.9745 19.1426L19.1502 17.5081C18.9701 17.7161 18.6907 18.0077 18.312 18.383C18.2778 19.0838 18.2607 19.7666 18.2607 20.4313C18.2607 20.6347 18.2173 20.7998 18.1303 20.9264C18.0465 21.053 17.9378 21.1163 17.8043 21.1163C17.4908 21.1163 17.334 20.8088 17.334 20.1939C17.334 19.8186 17.3511 19.2579 17.3852 18.5119C17.4225 17.7613 17.4411 17.1984 17.4411 16.8231C17.4411 16.1358 17.4473 15.3513 17.4597 14.4696C17.4752 13.5833 17.483 12.8011 17.483 12.1229C17.483 11.9194 17.4752 11.6798 17.4597 11.4039C17.4473 11.1281 17.4411 10.8885 17.4411 10.685C17.4411 10.4815 17.483 10.3165 17.5668 10.1899C17.6538 10.0633 17.764 10 17.8975 10C18.031 10 18.1396 10.0633 18.2235 10.1899C18.3104 10.3165 18.3539 10.4815 18.3539 10.685C18.3539 10.893 18.3616 11.1394 18.3772 11.4243C18.3927 11.7046 18.4004 11.9488 18.4004 12.1568L18.3678 14.3407C18.3523 15.1275 18.3477 15.9142 18.3539 16.701C18.7761 16.2307 19.1828 15.7153 19.574 15.1546L20.5985 13.615C20.701 13.4613 20.8112 13.3844 20.9292 13.3844C21.0503 13.3844 21.1589 13.4545 21.2552 13.5947C21.3545 13.7348 21.4042 13.8976 21.4042 14.083C21.4042 14.2367 21.3592 14.3882 21.2691 14.5374C20.8873 15.1885 20.4169 15.8871 19.8581 16.6332L20.8733 18.6475C21.3483 19.5925 21.5858 20.2075 21.5858 20.4923C21.5858 20.6732 21.5361 20.8292 21.4368 20.9603C21.3406 21.0914 21.2288 21.157 21.1015 21.157Z" fill="#0F474A"/>
    <path d="M25.996 15.8667C25.9743 16.4319 25.819 16.7145 25.5303 16.7145C25.2633 16.7145 25.1298 16.4907 25.1298 16.0431C25.1298 15.9572 25.1251 15.7989 25.1158 15.5683L25.1019 14.9986C24.6113 15.0845 24.2186 15.2857 23.9236 15.6022C23.6473 15.8961 23.4176 16.3393 23.2344 16.9316L23.2437 20.6483C23.2437 21.105 23.09 21.3333 22.7827 21.3333C22.5095 21.3333 22.3729 21.105 22.3729 20.6483V15.8871C22.3729 15.7379 22.376 15.5141 22.3822 15.2156C22.3915 14.9172 22.3961 14.6934 22.3961 14.5442C22.3961 14.0875 22.5327 13.8592 22.806 13.8592C23.1102 13.8592 23.2639 14.2345 23.267 14.985C23.8631 14.1485 24.5244 13.7303 25.2509 13.7303C25.5024 13.7303 25.6902 13.8682 25.8144 14.144C25.9386 14.4198 26.0007 14.8358 26.0007 15.392C26.0007 15.6271 25.9991 15.7854 25.996 15.8667Z" fill="#0F474A"/>
    <path d="M12.1162 28.8079C12.3057 28.9975 12.7719 28.8624 12.9378 28.6984L16.8723 24.764C17.2605 24.3752 16.3319 24.3929 16.1116 24.6132L12.6428 28.082L11.6873 27.1266C11.4559 26.8952 10.5562 27.2486 10.8047 27.4965L12.1162 28.8079Z" fill="#0F474A"/>
    <path d="M21.5443 25.5835H30.7246C31.0426 25.5835 31.7456 25.1049 31.1102 25.1049H21.9299C21.6118 25.1049 20.9089 25.5835 21.5443 25.5835Z" fill="#0F474A"/>
    <path d="M26.5153 27.705H21.9251C21.573 27.705 20.9146 28.2361 21.5526 28.2361H26.1428C26.4949 28.2328 27.1533 27.705 26.5153 27.705Z" fill="#0F474A"/>
    <path d="M16.1063 31.1435L12.6309 34.6189L11.6867 33.6721C11.4244 33.4098 10.5234 33.777 10.8093 34.0655C11.2465 34.5027 11.6836 34.9398 12.1208 35.377C12.3832 35.5468 12.729 35.5079 12.947 35.2839L16.8814 31.3494C17.2854 30.9449 16.3627 30.8898 16.1063 31.1435Z" fill="#0F474A"/>
    <path d="M27.2937 31.7162H22.0478C21.8551 31.7162 20.9777 32.0873 21.4275 32.0873H26.6734C26.8662 32.0873 27.7436 31.7162 27.2937 31.7162Z" fill="#0F474A"/>
    <path d="M21.43 34.7213H24.7087C24.9465 34.7405 25.1837 34.677 25.3802 34.5416C25.47 34.4367 25.5599 34.3305 25.3238 34.3305H22.0451C21.8072 34.311 21.57 34.3745 21.3736 34.5101C21.2838 34.6138 21.194 34.7213 21.43 34.7213Z" fill="#0F474A"/>
    <path d="M16.0658 37.8505L12.671 41.2453L11.6959 40.2702C11.5366 40.1109 10.6835 40.4669 10.7976 40.5817L12.109 41.8932C12.252 42.0368 12.8625 41.8132 12.9851 41.6905L16.9195 37.7561C17.09 37.5856 16.2212 37.6951 16.0658 37.8505Z" fill="#0F474A"/>
    <path d="M44.9073 26.4144L44.5099 26.8118L43.106 25.4098C43.3907 25.1398 43.6612 24.8553 43.9165 24.5574C44.866 23.4262 43.9716 22.5108 43.1296 21.7141C41.4903 20.1626 39.8627 22.0997 38.6968 23.3324C38.6069 23.3667 38.5247 23.4184 38.4549 23.4846L35.3467 26.5901C35.407 22.4282 35.7932 18.0656 35.3349 13.9705C35.2986 13.6483 35.2244 13.3316 35.1139 13.0269C35.1857 12.9428 35.2031 12.825 35.1585 12.7238C35.1139 12.6225 35.0152 12.5558 34.9047 12.5521C34.3803 11.7427 33.741 11.0138 33.007 10.3882C31.9716 9.35277 30.8234 7.69507 29.4004 6.94949C29.3105 6.79167 29.1274 6.71187 28.9506 6.75343C28.8061 6.6987 28.6577 6.65486 28.5067 6.62228C27.2247 6.35998 25.6293 6.62228 24.3309 6.62228H15.3768C13.1991 6.62162 7.53092 5.4013 6.82862 8.3672C6.57879 9.42293 6.82862 10.8505 6.82862 11.9265V37.3193C6.82862 39.1403 5.82469 44.3534 8.02076 45.2537C8.98535 45.6505 10.4371 45.3751 11.4306 45.3751H29.4824C30.8253 45.3751 32.6588 45.718 33.9624 45.2636C35.826 44.6138 35.3349 42.4439 35.3349 40.8446V33.238C37.567 31.0059 39.7993 28.7735 42.0319 26.541C42.0778 26.4903 42.1067 26.4266 42.1145 26.3587C42.2345 26.24 42.3565 26.1226 42.4798 26.0052L43.9014 27.4242L39.807 31.5147C39.5644 31.7574 40.4903 31.6826 40.6804 31.4924L45.7808 26.3934C46.0234 26.1495 45.0975 26.2249 44.9073 26.4144ZM39.4188 23.4898C39.8727 23.089 40.3013 22.6604 40.7021 22.2065C41.2267 21.6852 41.6562 21.5311 42.2883 22.1147C42.8535 22.6393 43.6719 23.3147 43.304 24.1816C43.0234 24.6306 42.6665 25.0271 42.2496 25.3534L41.7388 25.8642L39.3847 23.5082C39.3965 23.5029 39.4079 23.4968 39.4188 23.4898ZM30.7958 9.47539C31.8234 10.5029 33.0017 11.3895 33.7224 12.5344H32.426C31.6063 12.5344 30.0188 12.8433 29.5696 11.9639C29.226 11.2918 29.4339 10.1475 29.4339 9.41703V8.179C29.91 8.58728 30.3646 9.02 30.7958 9.47539ZM34.3696 43.7364C33.7506 45.1351 31.9558 44.6544 30.7309 44.6544H23.4037C18.9683 44.6544 14.0955 45.2374 9.69879 44.6544C6.88895 44.2819 7.79715 41.0524 7.79715 38.7416V10.3639C7.79715 9.83933 7.57879 8.75408 7.79715 8.26556C8.4778 6.72785 11.106 7.34752 12.4345 7.34752H26.7808C27.3554 7.32935 27.9284 7.42012 28.4693 7.61507V10.0564C28.4693 10.9705 28.2542 12.179 29.043 12.8387C29.7276 13.4118 30.8332 13.2354 31.666 13.2354H34.0922C34.2384 13.5885 34.3337 13.9605 34.3755 14.3403C34.8509 18.6387 34.3827 23.2334 34.3755 27.5679L28.2594 33.6839C28.2024 33.7461 28.1726 33.8285 28.1768 33.9128C27.9027 34.5519 27.6288 35.191 27.3552 35.8301C27.1021 36.4203 26.7735 37.1324 27.224 37.6406L26.6942 38.1705H21.9171C21.5355 38.1705 20.9178 38.7475 21.5578 38.7475H26.6175C26.8366 38.7255 27.039 38.6207 27.1834 38.4544C27.1971 38.4433 27.2149 38.4347 27.2267 38.4229L27.6929 37.9567C28.329 38.2013 29.0188 37.8642 29.6096 37.6111L31.2457 36.9108C31.3926 36.9253 31.5408 36.9006 31.6752 36.8393C31.7229 36.8207 31.7672 36.7943 31.8063 36.7613C31.8124 36.7579 31.8181 36.7539 31.8234 36.7495C31.8267 36.7495 31.8319 36.7456 31.8345 36.7423L34.3735 34.2033V38.1626C34.3696 39.5738 34.948 42.4315 34.3696 43.737V43.7364ZM27.9611 37.0164C27.786 36.4793 28.2955 35.6852 28.4962 35.2164L28.767 34.5842L30.826 36.6433L29.7952 37.0846C29.2129 37.3305 28.2817 37.9947 27.9611 37.0164ZM38.0942 29.4098L34.5899 32.9108C34.5072 32.9511 34.4404 33.0181 34.4004 33.101L31.4883 36.0151L30.1309 34.6603C29.7873 34.3174 29.1703 33.4852 29.1132 33.8931C29.2221 33.1154 31.6706 31.3357 32.1899 30.8164L35.1145 27.8944C35.1962 27.8545 35.2621 27.7885 35.3021 27.7069L38.7985 24.2105L40.1532 25.5652C40.4155 25.8275 40.8306 26.3652 41.0424 26.4328L41.1152 26.5056C40.7349 27.3482 38.5762 28.9272 38.0942 29.4098Z" fill="#0F474A"/>
</svg>
