<svg width="60" height="60" viewBox="0 0 60 60" fill="none"
  xmlns="http://www.w3.org/2000/svg">
  <path d="M9.70058 59.4102C9.49318 59.4102 9.3073 59.2821 9.23339 59.0884C9.15947 58.8946 9.21286 58.6753 9.36758 58.5372L12.2476 55.9602L8.04758 58.3862C7.81981 58.5189 7.52814 58.4519 7.381 58.2332C7.23386 58.0145 7.28181 57.7191 7.49058 57.5582L10.0206 55.5992L7.41558 57.1002C7.19113 57.2288 6.90562 57.165 6.75729 56.953C6.60897 56.741 6.64683 56.451 6.84458 56.2842L9.90058 53.7212L7.28058 55.2312C7.05512 55.3599 6.76861 55.2947 6.62111 55.081C6.47362 54.8673 6.51422 54.5763 6.71458 54.4112L8.22758 53.1771L7.28058 53.7232C7.06216 53.8508 6.78279 53.7952 6.62989 53.5937C6.47699 53.3921 6.49875 53.1081 6.68058 52.9322L8.56958 51.1001L7.28058 51.8442C7.0737 51.9631 6.81159 51.9193 6.65467 51.7395C6.49775 51.5597 6.48976 51.2941 6.63558 51.1051L8.10058 49.2001L7.27658 49.6751C7.07274 49.7922 6.8149 49.7515 6.65708 49.5773C6.49926 49.4031 6.48407 49.1425 6.62058 48.9511L7.12058 48.2511C6.96444 48.2808 6.80352 48.2344 6.68707 48.1263C6.57063 48.0181 6.51254 47.861 6.53058 47.7031L6.70158 46.2031C6.58279 46.0968 6.52182 45.9403 6.53742 45.7816C6.55303 45.623 6.64335 45.4813 6.78058 45.4001L7.01658 45.2651C7.18017 45.1706 7.3831 45.1763 7.5411 45.2799C7.6991 45.3836 7.78518 45.5674 7.76358 45.7551L7.64058 46.8361L8.58958 46.2881C8.79342 46.1711 9.05126 46.2118 9.20908 46.386C9.36691 46.5602 9.3821 46.8208 9.24558 47.0121L8.78558 47.6531L9.79558 47.0711C10.0025 46.9522 10.2646 46.996 10.4215 47.1758C10.5784 47.3556 10.5864 47.6212 10.4406 47.8101L8.97358 49.7101L11.5616 48.2161C11.78 48.0885 12.0594 48.1441 12.2123 48.3456C12.3652 48.5472 12.3434 48.8312 12.1616 49.0071L10.2746 50.8382L13.0946 49.2101C13.32 49.0814 13.6066 49.1466 13.7541 49.3603C13.9016 49.574 13.8609 49.865 13.6606 50.0301L12.1486 51.2651L14.3236 50.0091C14.5478 49.8811 14.8326 49.9447 14.9809 50.156C15.1292 50.3674 15.0923 50.6569 14.8956 50.8242L11.8386 53.4002L15.9106 51.0491C16.1384 50.9164 16.43 50.9834 16.5772 51.2021C16.7243 51.4208 16.6764 51.7162 16.4676 51.8771L13.9376 53.8361L15.9376 52.6852C16.1574 52.5686 16.4294 52.6314 16.5759 52.8324C16.7224 53.0335 16.6988 53.3116 16.5206 53.4852L13.6386 56.0642L14.9496 55.3082C15.1628 55.1868 15.4326 55.2381 15.5864 55.4292C15.7402 55.6203 15.7327 55.8948 15.5686 56.0772L14.4386 57.3172C14.6172 57.3887 14.7389 57.5565 14.7515 57.7486C14.7641 57.9406 14.6654 58.1229 14.4976 58.2172L12.5796 59.3232C12.3664 59.4445 12.0966 59.3932 11.9428 59.2021C11.7889 59.011 11.7965 58.7365 11.9606 58.5542L12.6606 57.7902L9.96058 59.3472C9.88146 59.3919 9.79142 59.4137 9.70058 59.4102Z" fill="#0F474A"/>
  <path d="M36.9939 59.4711C36.7878 59.4714 36.6027 59.3451 36.5277 59.153C36.4527 58.961 36.5032 58.7427 36.6549 58.6032L37.3079 58.0031L35.2529 59.1891C35.0301 59.315 34.7483 59.2523 34.5998 59.0439C34.4514 58.8355 34.4842 58.5486 34.6759 58.3792L36.6519 56.6712L33.9909 58.2062C33.7689 58.3343 33.486 58.2739 33.3358 58.0662C33.1855 57.8585 33.2167 57.5708 33.4079 57.4002L37.0239 54.1702L33.1189 56.4242C32.8943 56.5551 32.6069 56.4921 32.4576 56.2792C32.3084 56.0663 32.3472 55.7746 32.5469 55.6082L36.3239 52.4282L32.4369 54.6722C32.2083 54.8051 31.9157 54.7371 31.7692 54.517C31.6227 54.2968 31.673 54.0007 31.8839 53.8412L34.3709 51.9512L31.9259 53.3622C31.6977 53.494 31.4063 53.426 31.2599 53.2068C31.1136 52.9875 31.1626 52.6924 31.3719 52.5322L36.6909 48.4662C36.6541 48.4324 36.6231 48.3929 36.5989 48.3492C36.4607 48.1103 36.5421 47.8046 36.7809 47.6662L40.7209 45.3922C40.949 45.2631 41.238 45.332 41.3833 45.5501C41.5286 45.7682 41.4808 46.0614 41.2739 46.2222L38.1249 48.6292L40.7249 47.1292C40.9533 46.9992 41.2434 47.0681 41.3888 47.287C41.5342 47.5059 41.4853 47.8 41.2769 47.9602L38.7909 49.8492L40.7259 48.7322C40.9505 48.6012 41.238 48.6642 41.3872 48.8771C41.5364 49.09 41.4976 49.3817 41.2979 49.5482L37.5199 52.7292L40.7259 50.8792C40.9479 50.751 41.2309 50.8114 41.3811 51.0191C41.5313 51.2268 41.5002 51.5145 41.3089 51.6852L37.6929 54.9142L40.7259 53.1642C40.9491 53.0359 41.2332 53.0981 41.3824 53.3078C41.5317 53.5176 41.4973 53.8063 41.3029 53.9752L39.3259 55.6832L40.7259 54.8752C40.9464 54.7489 41.2264 54.8081 41.377 55.0126C41.5276 55.2172 41.5009 55.5021 41.3149 55.6752L40.6419 56.2932C40.8861 56.1973 41.1628 56.3063 41.2759 56.543C41.3889 56.7797 41.2999 57.0635 41.0719 57.1932L37.2439 59.4002C37.1685 59.4459 37.0821 59.4704 36.9939 59.4711Z" fill="#0F474A"/>
  <path d="M24.4947 16.4811C24.32 16.4809 24.1581 16.3896 24.0676 16.2402C23.977 16.0908 23.971 15.905 24.0517 15.7501L24.7517 14.4181L22.2807 15.8431C22.065 15.9661 21.7917 15.9122 21.6389 15.7165C21.486 15.5208 21.5 15.2425 21.6717 15.0631L23.1497 13.5311L22.2807 14.0311C22.0694 14.1528 21.8011 14.1042 21.6458 13.9163C21.4905 13.7283 21.4934 13.4557 21.6527 13.2711L23.6477 10.9711L22.2807 11.7601C22.0615 11.8851 21.7835 11.8272 21.6325 11.625C21.4814 11.4229 21.5047 11.1399 21.6867 10.9651L22.5797 10.1151L22.2797 10.2871C22.0669 10.4085 21.7975 10.3578 21.6434 10.1674C21.4892 9.97701 21.4957 9.70296 21.6587 9.52008L23.4827 7.50008L22.2827 8.19308C22.0702 8.3145 21.8009 8.26414 21.6466 8.07409C21.4923 7.88404 21.4983 7.61021 21.6607 7.42708L23.5007 5.37808L22.2837 6.07808C22.0666 6.19875 21.7938 6.14172 21.6432 5.94418C21.4926 5.74664 21.5099 5.46849 21.6837 5.29108L22.8527 4.12608L22.2857 4.45308C22.1008 4.55961 21.8687 4.53703 21.7078 4.39687C21.5468 4.25671 21.4926 4.02987 21.5727 3.83208L22.2507 2.16308C22.0085 2.22763 21.7559 2.10277 21.66 1.8711C21.5641 1.63942 21.6547 1.37258 21.8717 1.24708L22.9947 0.600081C23.1796 0.493555 23.4118 0.516131 23.5727 0.65629C23.7336 0.796449 23.7879 1.02329 23.7077 1.22108L23.0407 2.86108L25.6607 1.35008C25.8779 1.22941 26.1506 1.28644 26.3012 1.48398C26.4518 1.68152 26.4346 1.95967 26.2607 2.13708L25.1007 3.30008L25.7257 2.93908C25.9386 2.81631 26.2091 2.86641 26.3639 3.05727C26.5187 3.24813 26.5118 3.52316 26.3477 3.70608L24.5007 5.75308L25.7167 5.05308C25.9295 4.93169 26.1989 4.98235 26.3531 5.17275C26.5072 5.36315 26.5007 5.6372 26.3377 5.82008L24.5187 7.84208L25.7187 7.14808C25.9396 7.01145 26.2284 7.0667 26.3832 7.27524C26.538 7.48378 26.5074 7.77615 26.3127 7.94808L25.4187 8.79908L25.7187 8.62408C25.9301 8.50241 26.1983 8.55092 26.3537 8.7389C26.509 8.92688 26.5061 9.19948 26.3467 9.38408L24.3467 11.6841L25.7217 10.8901C25.9375 10.7655 26.2121 10.8188 26.3656 11.0151C26.5191 11.2113 26.5046 11.4907 26.3317 11.6701L24.8637 13.2001L25.7397 12.6941C25.9323 12.5825 26.1754 12.6115 26.3362 12.7654C26.497 12.9192 26.5367 13.1608 26.4337 13.3581L25.7337 14.6911L25.7457 14.6851C25.9007 14.5866 26.0973 14.5809 26.2576 14.6704C26.418 14.7599 26.5164 14.9302 26.5139 15.1138C26.5114 15.2975 26.4085 15.465 26.2457 15.5501L24.7457 16.4171C24.6693 16.4606 24.5826 16.4827 24.4947 16.4811Z" fill="#1C989D"/>
  <path d="M25.7144 13.523C25.5043 13.5228 25.3167 13.3913 25.245 13.1938C25.1732 12.9964 25.2325 12.7751 25.3934 12.64L26.6354 11.6L26.2814 11.8C26.0648 11.9234 25.7904 11.8684 25.6381 11.671C25.4858 11.4737 25.5022 11.1943 25.6764 11.016L26.6154 10.063L26.2814 10.256C26.0937 10.3602 25.8604 10.3328 25.7018 10.188C25.5433 10.0433 25.4948 9.81347 25.5814 9.61702L26.1454 8.37102C25.9652 8.36438 25.7992 8.27132 25.6994 8.12102C25.5614 7.88188 25.6433 7.5761 25.8824 7.43802L26.9484 6.82202C27.1365 6.71393 27.3727 6.73938 27.5334 6.88503C27.6941 7.03068 27.7426 7.26331 27.6534 7.46102L27.1334 8.61202L29.3264 7.34702C29.5431 7.22207 29.8188 7.27648 29.9718 7.47439C30.1248 7.6723 30.108 7.9528 29.9324 8.13102L28.9914 9.08402L31.1294 7.85002C31.3543 7.71843 31.6425 7.78157 31.7918 7.99513C31.9411 8.20869 31.9013 8.50107 31.7004 8.66702L30.4574 9.70702L32.6214 8.45802C32.7764 8.35949 32.973 8.35387 33.1333 8.44337C33.2937 8.53288 33.3921 8.7031 33.3896 8.88675C33.3871 9.07039 33.2842 9.23789 33.1214 9.32302L25.9644 13.456C25.8886 13.5003 25.8023 13.5234 25.7144 13.523Z" fill="#0F474A"/>
  <path d="M23.7011 53.381C23.4787 53.381 23.2832 53.2341 23.2211 53.0206C23.1591 52.8071 23.2454 52.5783 23.4331 52.459L25.0121 51.454L21.8601 53.273C21.6276 53.3971 21.3387 53.3194 21.1998 53.0955C21.0609 52.8715 21.1196 52.5782 21.3341 52.425L32.4011 45.071L19.0431 52.783C18.808 52.9104 18.5143 52.8303 18.3765 52.6012C18.2387 52.3721 18.3054 52.0751 18.5281 51.927L21.6681 49.965L17.5371 52.35C17.3838 52.442 17.1931 52.4453 17.0368 52.3585C16.8805 52.2718 16.7823 52.1083 16.7793 51.9295C16.7763 51.7508 16.8688 51.584 17.0221 51.492L21.2481 48.859L16.0581 51.859C15.8237 51.9879 15.5294 51.9096 15.3902 51.6812C15.251 51.4528 15.3161 51.1553 15.5381 51.006L28.1461 42.937L14.1621 51.006C13.9251 51.148 13.618 51.071 13.4761 50.834C13.3341 50.5971 13.4111 50.29 13.6481 50.148L19.2011 46.709L12.8801 50.357C12.6445 50.4868 12.3484 50.4069 12.2101 50.1762C12.0717 49.9456 12.1406 49.6468 12.3661 49.5L19.3101 45.2L11.6831 49.6C11.4467 49.7431 11.1391 49.6674 10.9961 49.431C10.853 49.1947 10.9287 48.8871 11.1651 48.744L25.3301 39.8L10.1791 48.542C9.94421 48.6733 9.64757 48.5952 9.50783 48.3653C9.36809 48.1353 9.43537 47.836 9.66007 47.688L26.9801 36.64L8.66007 47.217C8.42387 47.3501 8.12464 47.2707 7.98551 47.038C7.84639 46.8053 7.91805 46.5041 8.14707 46.359L19.2751 39.448L7.58007 46.2C7.34424 46.3261 7.05097 46.2443 6.91446 46.0143C6.77794 45.7844 6.8465 45.4877 7.07007 45.341L7.96307 44.798L6.89307 45.415C6.65786 45.5407 6.36546 45.4596 6.2285 45.2308C6.09154 45.002 6.15823 44.706 6.38007 44.558L17.0661 37.943L6.02107 44.32C5.78524 44.4461 5.49197 44.3643 5.35546 44.1343C5.21894 43.9044 5.2875 43.6077 5.51107 43.461L8.38407 41.71L5.34007 43.467C5.10287 43.6084 4.79596 43.5307 4.65457 43.2935C4.51319 43.0563 4.59087 42.7494 4.82807 42.608L14.0181 36.95L4.66807 42.35C4.43169 42.4928 4.12434 42.4169 3.98157 42.1805C3.83881 41.9442 3.91469 41.6368 4.15107 41.494L23.4221 29.317L3.70107 40.7C3.46546 40.8298 3.16941 40.7499 3.03107 40.5192C2.89272 40.2886 2.96165 39.9898 3.18707 39.843L19.1291 29.933L3.07007 39.207C2.83486 39.3327 2.54246 39.2516 2.4055 39.0228C2.26854 38.794 2.33523 38.498 2.55707 38.35L18.2881 28.605L2.47907 37.732C2.24356 37.864 1.94582 37.7852 1.80645 37.554C1.66708 37.3228 1.73641 37.0227 1.96307 36.876L23.7691 23.176L1.96007 35.765C1.7239 35.9012 1.42216 35.8231 1.28174 35.5894C1.14132 35.3557 1.21397 35.0527 1.44507 34.908L21.3351 22.508L1.55007 33.93C1.39716 34.0226 1.2065 34.0265 1.04991 33.9403C0.893323 33.8542 0.794593 33.691 0.790913 33.5123C0.787233 33.3336 0.879162 33.1666 1.03207 33.074L20.0881 21.026L1.39207 31.82C1.15699 31.9474 0.863313 31.8673 0.725481 31.6382C0.587648 31.4091 0.654433 31.1121 0.877072 30.964L11.9231 24.056L1.30107 30.19C1.06718 30.317 0.774823 30.2385 0.635985 30.0114C0.497147 29.7844 0.560483 29.4884 0.780072 29.338L15.8331 19.631L1.48007 27.914C1.24618 28.041 0.953823 27.9625 0.814985 27.7354C0.676147 27.5084 0.739483 27.2124 0.959072 27.062L5.57307 24.083L1.68407 26.328C1.44959 26.4551 1.15665 26.3758 1.01834 26.1477C0.880021 25.9197 0.945029 25.6233 1.16607 25.474L1.92407 24.992C1.68667 25.0734 1.42573 24.9662 1.3141 24.7414C1.20247 24.5167 1.27476 24.244 1.48307 24.104L10.0221 18.332L2.73607 22.532C2.50218 22.659 2.20982 22.5805 2.07098 22.3534C1.93215 22.1264 1.99548 21.8304 2.21507 21.68L5.32807 19.663L3.47007 20.74C3.23642 20.8707 2.94128 20.7942 2.80059 20.5664C2.65991 20.3386 2.7236 20.0404 2.94507 19.89L6.77507 17.381L3.86607 19.061C3.63355 19.1918 3.33931 19.117 3.19749 18.891C3.05567 18.6651 3.11622 18.3676 3.33507 18.215L8.55907 14.665L3.54107 17.565C3.31201 17.6972 3.01962 17.6282 2.87389 17.4075C2.72817 17.1868 2.77952 16.8908 2.99107 16.732L6.41907 14.16L3.15907 16.042C2.93035 16.1731 2.63918 16.104 2.49364 15.8843C2.34809 15.6645 2.39816 15.3695 2.60807 15.21L4.46107 13.81L2.83507 14.748C2.60716 14.8789 2.31687 14.8109 2.17067 14.5925C2.02448 14.3742 2.07228 14.0799 2.28007 13.919L3.34407 13.1L2.53807 13.564C2.315 13.6902 2.03261 13.6273 1.8842 13.4184C1.73579 13.2094 1.76942 12.9221 1.96207 12.753L3.39507 11.52L2.19507 12.21C1.97434 12.3421 1.68941 12.2852 1.5364 12.0784C1.38339 11.8716 1.41223 11.5825 1.60307 11.41L2.48207 10.584L1.87607 10.934C1.66427 11.0569 1.3946 11.0084 1.239 10.8193C1.0834 10.6302 1.08766 10.3562 1.24907 10.172L1.84907 9.48703L1.55807 9.65503C1.37297 9.76197 1.14035 9.7394 0.979261 9.59886C0.818169 9.45833 0.76424 9.23093 0.845072 9.03303L1.19507 8.17603C0.957049 8.21462 0.725392 8.07783 0.644228 7.85077C0.563065 7.62371 0.65552 7.37107 0.864072 7.25003L1.94107 6.63103C2.12618 6.52409 2.35879 6.54666 2.51988 6.68719C2.68097 6.82772 2.7349 7.05512 2.65407 7.25303L2.32307 8.06203L3.95407 7.12003C4.16588 6.99711 4.43554 7.04568 4.59114 7.23478C4.74674 7.42389 4.74248 7.69786 4.58107 7.88203L3.98107 8.56703L5.72107 7.56703C5.9418 7.43494 6.22673 7.49188 6.37974 7.69865C6.53276 7.90542 6.50392 8.19455 6.31307 8.36703L5.43407 9.19403L7.48207 8.00503C7.70527 7.87678 7.98936 7.93895 8.13859 8.1487C8.28781 8.35844 8.25341 8.64722 8.05907 8.81603L6.62907 10.05L9.35707 8.47503C9.58499 8.3442 9.87527 8.41213 10.0215 8.63051C10.1677 8.84888 10.1199 9.14315 9.91207 9.30403L8.84807 10.124L10.9941 8.88503C11.2228 8.75398 11.514 8.82301 11.6595 9.04279C11.8051 9.26256 11.755 9.55758 11.5451 9.71703L9.69107 11.117L13.1591 9.11703C13.3881 8.98483 13.6805 9.05388 13.8263 9.27458C13.972 9.49529 13.9206 9.7913 13.7091 9.95003L10.2791 12.521L19.8791 6.98003C20.1109 6.85408 20.4007 6.92995 20.5411 7.15335C20.6815 7.37674 20.6241 7.67077 20.4101 7.82503L15.1891 11.374L21.6791 7.62703C21.9132 7.49391 22.2107 7.57019 22.3519 7.79953C22.4932 8.02888 22.4273 8.32887 22.2031 8.47803L18.3791 10.978L21.7231 9.04803C21.957 8.92107 22.2493 8.99958 22.3882 9.22662C22.527 9.45367 22.4637 9.74967 22.2441 9.90003L19.1161 11.927L21.7241 10.422C21.957 10.2893 22.2533 10.3639 22.3955 10.5912C22.5377 10.8185 22.4753 11.1176 22.2541 11.269L13.7251 17.035L21.9171 12.306C22.1516 12.179 22.4445 12.2583 22.5828 12.4863C22.7211 12.7143 22.6561 13.0108 22.4351 13.16L21.8641 13.522L22.5151 13.147C22.7498 13.0134 23.0483 13.0904 23.1891 13.3209C23.3299 13.5515 23.2622 13.8522 23.0361 14L18.4191 16.98L32.9511 8.59103C33.185 8.46407 33.4773 8.54258 33.6162 8.76962C33.755 8.99667 33.6917 9.29267 33.4721 9.44303L18.4181 19.151L35.9621 9.02203C36.1982 8.88585 36.5 8.96396 36.6404 9.19764C36.7808 9.43131 36.7082 9.73441 36.4771 9.87903L25.4411 16.78L41.1221 7.72803C41.3575 7.59348 41.6573 7.67112 41.7978 7.90305C41.9383 8.13498 41.8683 8.43664 41.6401 8.58303L22.5821 20.632L46.3771 6.90003C46.6122 6.77268 46.9058 6.85281 47.0437 7.0819C47.1815 7.311 47.1147 7.60799 46.8921 7.75603L27.0011 20.153L46.4011 8.95303C46.6377 8.81054 46.9451 8.88687 47.0876 9.12353C47.2301 9.36018 47.1537 9.66754 46.9171 9.81003L25.1081 23.51L45.7381 11.6C45.9737 11.4703 46.2697 11.5501 46.4081 11.7808C46.5464 12.0115 46.4775 12.3103 46.2521 12.457L30.5291 22.2L45.2061 13.727C45.4417 13.5973 45.7377 13.6771 45.8761 13.9078C46.0144 14.1385 45.9455 14.4373 45.7201 14.584L29.7711 24.5L44.6611 15.9C44.8975 15.7573 45.2048 15.8331 45.3476 16.0695C45.4903 16.3059 45.4145 16.6133 45.1781 16.756L25.9011 28.935L44.1241 18.415C44.3598 18.2872 44.6544 18.3681 44.7918 18.5984C44.9292 18.8286 44.8605 19.1263 44.6361 19.273L35.4711 24.917L44.4711 19.717C44.7069 19.591 45.0002 19.6728 45.1367 19.9027C45.2732 20.1327 45.2046 20.4293 44.9811 20.576L42.0891 22.339L44.8811 20.73C45.1173 20.597 45.4165 20.6764 45.5556 20.9091C45.6948 21.1418 45.6231 21.4429 45.3941 21.588L34.7111 28.2L45.4111 22.023C45.6481 21.888 45.9496 21.9678 46.0887 22.2024C46.2278 22.437 46.1532 22.7399 45.9211 22.883L45.0341 23.423L45.7341 23.023C45.9697 22.8933 46.2657 22.9731 46.4041 23.2038C46.5424 23.4345 46.4735 23.7333 46.2481 23.88L35.1081 30.798L46.0781 24.465C46.3129 24.3337 46.6096 24.4119 46.7493 24.6418C46.8891 24.8717 46.8218 25.171 46.5971 25.319L29.2791 36.36L46.4791 26.433C46.7141 26.3038 47.0091 26.383 47.1479 26.6124C47.2866 26.8419 47.2197 27.14 46.9961 27.288L32.8311 36.237L46.6201 28.276C46.857 28.1341 47.1641 28.2111 47.3061 28.448C47.448 28.685 47.371 28.9921 47.1341 29.134L40.1831 33.441L46.7121 29.672C46.9477 29.5423 47.2437 29.6222 47.3821 29.8528C47.5204 30.0835 47.4515 30.3823 47.2261 30.529L41.6671 33.972L46.5871 31.132C46.8211 31.0067 47.1122 31.0862 47.2502 31.3129C47.3882 31.5397 47.3249 31.8348 47.1061 31.985L34.5011 40.055L46.4151 33.177C46.6513 33.0408 46.953 33.119 47.0934 33.3526C47.2338 33.5863 47.1612 33.8894 46.9301 34.034L42.7131 36.66L46.0651 34.725C46.3002 34.5977 46.5938 34.6778 46.7317 34.9069C46.8695 35.136 46.8027 35.433 46.5801 35.581L43.4331 37.548L45.6641 36.26C45.8966 36.136 46.1855 36.2136 46.3244 36.4376C46.4633 36.6615 46.4045 36.9549 46.1901 37.108L35.1271 44.461L44.6271 38.979C44.8619 38.8477 45.1586 38.9259 45.2983 39.1558C45.4381 39.3857 45.3708 39.685 45.1461 39.833L43.5511 40.845L43.8631 40.665C44.0986 40.5209 44.4064 40.595 44.5506 40.8305C44.6947 41.0661 44.6206 41.3739 44.3851 41.518L42.5431 42.711C42.7727 42.6193 43.0349 42.7092 43.1599 42.9225C43.2849 43.1358 43.2353 43.4085 43.0431 43.564L37.9281 47.622C38.1645 47.5914 38.3896 47.7319 38.466 47.9578C38.5423 48.1836 38.4486 48.4319 38.2421 48.551L32.7511 51.721C32.5241 51.8537 32.2332 51.7879 32.0853 51.5705C31.9375 51.3531 31.9833 51.0584 32.1901 50.896L37.1011 47L26.1781 53.309C25.9425 53.4532 25.6347 53.3791 25.4906 53.1435C25.3464 52.908 25.4205 52.6002 25.6561 52.456L27.4391 51.3L23.9531 53.312C23.8767 53.357 23.7897 53.3808 23.7011 53.381Z" fill="#0F474A"/>
  <path d="M23.7651 45.4491C23.5499 45.4491 23.3588 45.3114 23.2908 45.1072C23.2227 44.903 23.2929 44.6782 23.4651 44.5491L28.2571 41.0381L21.2281 45.0961C20.9977 45.2283 20.7041 45.1573 20.5596 44.9343C20.4151 44.7114 20.4703 44.4144 20.6851 44.2581L27.5581 39.2771L18.7301 44.3771C18.4976 44.5078 18.2033 44.433 18.0615 44.2071C17.9197 43.9811 17.9802 43.6836 18.1991 43.5311L23.5591 39.8851L17.1161 43.6001C16.8823 43.7288 16.5886 43.6513 16.4489 43.4239C16.3092 43.1965 16.3726 42.8995 16.5931 42.7491L19.2581 41.0001L16.0191 42.8701C15.7856 43.0054 15.487 42.9311 15.3442 42.7021C15.2013 42.4732 15.2659 42.1723 15.4901 42.0221L20.7271 38.5161L14.8151 41.9281C14.5821 42.0609 14.2859 41.9862 14.1437 41.7589C14.0014 41.5316 14.0638 41.2325 14.2851 41.0811L20.4681 36.8901L13.8011 40.7391C13.567 40.8722 13.2694 40.7959 13.1282 40.5666C12.987 40.3372 13.0528 40.0372 13.2771 39.8881L15.7711 38.2571L13.2011 39.7451C12.9672 39.872 12.6748 39.7935 12.536 39.5665C12.3972 39.3394 12.4605 39.0434 12.6801 38.8931L13.0721 38.6391L12.7591 38.8191C12.5294 38.9487 12.2385 38.8776 12.0945 38.6567C11.9505 38.4358 12.0028 38.1409 12.2141 37.9831L19.6981 32.5061L12.3351 36.7571C12.1074 36.8852 11.8194 36.8164 11.6742 36.5992C11.529 36.3819 11.5756 36.0895 11.7811 35.9281L17.8011 31.3111L12.6391 34.2901C12.4189 34.4128 12.1417 34.3524 11.9925 34.1491C11.8434 33.9459 11.8689 33.6633 12.0521 33.4901L15.1871 30.6371L15.0871 30.6921C14.9321 30.7906 14.7356 30.7962 14.5752 30.7067C14.4148 30.6172 14.3164 30.447 14.3189 30.2634C14.3214 30.0797 14.4244 29.9122 14.5871 29.8271L18.6931 27.4571C18.9133 27.3343 19.1905 27.3948 19.3396 27.598C19.4888 27.8013 19.4633 28.0838 19.2801 28.2571L16.1481 31.1071L23.9341 26.6131C24.1616 26.4873 24.4476 26.557 24.5919 26.7732C24.7361 26.9895 24.6906 27.2803 24.4871 27.4421L18.4621 32.0621L27.1921 27.0211C27.4218 26.8915 27.7127 26.9625 27.8567 27.1835C28.0007 27.4044 27.9484 27.6992 27.7371 27.8571L20.2551 33.3331L29.7411 27.8561C29.9766 27.7119 30.2844 27.786 30.4286 28.0216C30.5727 28.2571 30.4986 28.5649 30.2631 28.7091L29.8631 28.9651L30.8631 28.3911C31.0972 28.258 31.3947 28.3342 31.536 28.5636C31.6772 28.7929 31.6114 29.0929 31.3871 29.2421L28.9011 30.8711L31.9601 29.1051C32.1931 28.9723 32.4893 29.047 32.6315 29.2743C32.7738 29.5016 32.7114 29.8006 32.4901 29.9521L26.3021 34.1521L33.2491 30.1421C33.4815 30.0164 33.7715 30.0932 33.9112 30.3174C34.051 30.5416 33.9922 30.8358 33.7771 30.9891L28.5521 34.4891L34.1811 31.2401C34.4149 31.1113 34.7085 31.1889 34.8483 31.4163C34.988 31.6436 34.9246 31.9407 34.7041 32.0911L32.0301 33.8431L34.8031 32.2431C35.0356 32.1123 35.3299 32.1871 35.4717 32.4131C35.6135 32.639 35.5529 32.9365 35.3341 33.0891L29.9711 36.7291L35.4161 33.5851C35.6465 33.4528 35.9401 33.5239 36.0846 33.7468C36.229 33.9698 36.1739 34.2668 35.9591 34.4231L29.0881 39.4001L35.7201 35.5711C35.95 35.4383 36.2436 35.5083 36.3888 35.7306C36.534 35.9529 36.4801 36.25 36.2661 36.4071L31.4661 39.9201L35.3811 37.6601C35.6082 37.5335 35.8944 37.6021 36.0395 37.8178C36.1845 38.0336 36.14 38.3246 35.9371 38.4871L33.3191 40.5251L33.9431 40.1651C34.0981 40.0666 34.2946 40.0609 34.455 40.1504C34.6154 40.2399 34.7138 40.4102 34.7113 40.5938C34.7088 40.7775 34.6058 40.945 34.4431 41.0301L27.5431 45.0201C27.3153 45.1528 27.0237 45.0859 26.8765 44.8671C26.7294 44.6484 26.7773 44.353 26.9861 44.1921L29.6011 42.1551L24.0121 45.3821C23.9371 45.4259 23.8519 45.449 23.7651 45.4491Z" fill="#0F474A"/>
  <path d="M18.9728 38.9732C18.7698 38.9736 18.5867 38.8512 18.5095 38.6634C18.4323 38.4756 18.4763 38.2598 18.6208 38.1172L18.8118 37.9272L18.6318 38.0272C18.4265 38.1463 18.1658 38.1047 18.0078 37.9275C17.8498 37.7504 17.8381 37.4866 17.9798 37.2962L19.3988 35.4002L18.3368 36.0142C18.1289 36.1349 17.8645 36.0904 17.7074 35.9084C17.5503 35.7263 17.545 35.4583 17.6948 35.2702L18.4008 34.3832C18.3013 34.3409 18.2184 34.2672 18.1648 34.1732C18.0982 34.0583 18.0801 33.9216 18.1144 33.7932C18.1487 33.6649 18.2327 33.5555 18.3478 33.4892L19.8408 32.6282C20.049 32.5077 20.3135 32.5525 20.4704 32.7348C20.6272 32.9172 20.6321 33.1854 20.4818 33.3732L20.1178 33.8312L20.9988 33.3192C21.2043 33.2003 21.4651 33.2423 21.6229 33.4197C21.7806 33.5971 21.7919 33.861 21.6498 34.0512L20.2318 35.9512L21.6608 35.1272C21.8783 35.0049 22.1526 35.0617 22.3037 35.2601C22.4548 35.4586 22.4365 35.7381 22.2608 35.9152L21.8688 36.3032C22.0928 36.308 22.2863 36.4611 22.3423 36.6779C22.3984 36.8948 22.3034 37.1225 22.1098 37.2352L19.2218 38.9032C19.1466 38.9484 19.0606 38.9726 18.9728 38.9732Z" fill="#0F474A"/>
  <path d="M27.0006 39.0001C26.8082 39.0001 26.6329 38.8898 26.5497 38.7164C26.4665 38.5429 26.4902 38.3371 26.6106 38.1871L27.7636 36.7571L26.4286 37.5271C26.2105 37.6529 25.9329 37.5969 25.7806 37.3964C25.6283 37.1959 25.6489 36.9134 25.8286 36.7371L26.2286 36.3451C26.0217 36.4258 25.7865 36.3604 25.6509 36.1846C25.5153 36.0088 25.512 35.7646 25.6426 35.5851L26.4926 34.4121C26.3539 34.3833 26.2344 34.2962 26.1646 34.1731C26.098 34.0582 26.0798 33.9214 26.1141 33.7931C26.1485 33.6648 26.2325 33.5554 26.3476 33.4891L27.8406 32.6281C28.0453 32.5096 28.305 32.5507 28.463 32.7267C28.6211 32.9026 28.6342 33.1652 28.4946 33.3561L27.8296 34.2731L29.1566 33.5071C29.3747 33.3813 29.6523 33.4373 29.8045 33.6378C29.9568 33.8383 29.9363 34.1207 29.7566 34.2971L29.3726 34.6721L29.5826 34.5511C29.7909 34.4307 30.0555 34.4758 30.2122 34.6585C30.3689 34.8411 30.3733 35.1095 30.2226 35.2971L29.0706 36.7261L29.6056 36.4171C29.7606 36.3186 29.9571 36.3129 30.1175 36.4024C30.2779 36.4919 30.3762 36.6622 30.3738 36.8458C30.3713 37.0295 30.2683 37.197 30.1056 37.2821L27.2496 38.9301C27.1744 38.9754 27.0884 38.9995 27.0006 39.0001Z" fill="#0F474A"/>
  <path d="M15.3911 25.393C15.1997 25.3935 15.0249 25.2846 14.9408 25.1126C14.8567 24.9407 14.8782 24.7358 14.9961 24.585L15.9381 23.376L13.5121 24.776C13.2904 24.9004 13.0106 24.8386 12.8619 24.6323C12.7132 24.4261 12.743 24.1411 12.9311 23.97L13.5061 23.459L12.7301 23.907C12.5146 24.0316 12.2402 23.9785 12.0866 23.7827C11.933 23.5868 11.9468 23.3077 12.1191 23.128L13.5711 21.619L12.2981 22.354C12.0849 22.4754 11.8151 22.4241 11.6613 22.233C11.5075 22.0419 11.515 21.7674 11.6791 21.585L12.4961 20.685C12.3169 20.6145 12.1941 20.4473 12.1804 20.2552C12.1667 20.0631 12.2647 19.8802 12.4321 19.785L14.3691 18.667C14.5823 18.5457 14.8521 18.597 15.0059 18.7881C15.1598 18.9792 15.1522 19.2537 14.9881 19.4361L14.5971 19.866L16.1361 18.977C16.3519 18.8525 16.6265 18.9058 16.78 19.102C16.9335 19.2983 16.919 19.5776 16.7461 19.757L15.2931 21.266L17.2931 20.112C17.5152 19.9855 17.7971 20.0468 17.9465 20.2543C18.0959 20.4618 18.0646 20.7486 17.8741 20.919L17.2991 21.429L17.6551 21.223C17.8625 21.102 18.1266 21.1455 18.2843 21.3266C18.442 21.5077 18.4486 21.7753 18.3001 21.964L17.2801 23.272C17.4711 23.2625 17.6522 23.358 17.7521 23.521C17.8902 23.7602 17.8083 24.066 17.5691 24.204L15.6411 25.318C15.5661 25.3652 15.4797 25.3911 15.3911 25.393Z" fill="#0F474A"/>
  <path d="M32.3892 25.347C32.1845 25.3475 32.0003 25.2232 31.9241 25.0333C31.8478 24.8434 31.895 24.6262 32.0432 24.485L32.5432 24.007L31.3722 24.683C31.1586 24.8072 30.8864 24.7568 30.7314 24.5644C30.5765 24.372 30.5853 24.0952 30.7522 23.913L32.5602 21.927L30.4282 23.157C30.2267 23.2724 29.9724 23.234 29.814 23.0642C29.6557 22.8944 29.635 22.638 29.7642 22.445L30.9932 20.622L30.9322 20.657C30.7772 20.7556 30.5807 20.7612 30.4203 20.6717C30.2599 20.5822 30.1615 20.412 30.164 20.2283C30.1665 20.0447 30.2694 19.8772 30.4322 19.792L32.3692 18.674C32.5706 18.5587 32.825 18.5971 32.9833 18.7669C33.1417 18.9367 33.1623 19.1931 33.0332 19.386L31.8012 21.209L34.8362 19.457C35.0498 19.3329 35.322 19.3833 35.477 19.5757C35.6319 19.7681 35.6231 20.0449 35.4562 20.227L33.6512 22.212L35.6222 21.074C35.8416 20.9398 36.127 20.9939 36.2821 21.1991C36.4372 21.4043 36.4112 21.6937 36.2222 21.868L35.6702 22.397C35.8886 22.3394 36.1185 22.4353 36.2312 22.631C36.3686 22.87 36.2867 23.175 36.0482 23.313L32.6432 25.279C32.5663 25.3244 32.4785 25.3479 32.3892 25.347Z" fill="#0F474A"/>
  <path d="M55.5039 55.4702C55.2776 55.4702 55.0796 55.3182 55.021 55.0996C54.9624 54.881 55.058 54.6503 55.2539 54.5372L58.7249 52.5372C58.9223 52.4244 59.171 52.459 59.3301 52.6214C59.4892 52.7838 59.5187 53.0331 59.4019 53.2282L59.0299 53.8472C59.2214 53.9038 59.3609 54.069 59.3846 54.2673C59.4083 54.4656 59.3117 54.659 59.1389 54.7592L58.0169 55.4062C57.8197 55.5192 57.571 55.485 57.4117 55.3228C57.2523 55.1607 57.2224 54.9114 57.3389 54.7162L57.5449 54.3722L55.7539 55.4002C55.6782 55.4451 55.592 55.4693 55.5039 55.4702Z" fill="#1C989D"/>
  <path d="M49.3636 59.471C49.1483 59.471 48.9573 59.3333 48.8892 59.1291C48.8212 58.925 48.8914 58.7001 49.0636 58.571L52.2806 56.129L46.8126 59.285C46.6014 59.4067 46.3333 59.3586 46.1778 59.1709C46.0223 58.9833 46.0247 58.7109 46.1835 58.526L47.5566 56.926L46.2825 57.66C46.0884 57.7725 45.8431 57.7418 45.6826 57.585C45.5211 57.4279 45.4847 57.1822 45.5935 56.985L46.0426 56.168C45.8322 56.1365 45.6648 55.9753 45.6253 55.7662C45.5859 55.5571 45.6831 55.346 45.8676 55.24L46.9905 54.593C47.1849 54.48 47.4308 54.5106 47.5915 54.6678C47.7522 54.8251 47.7883 55.0702 47.6796 55.267L47.3316 55.899L49.5945 54.599C49.8054 54.4785 50.0723 54.527 50.2274 54.7138C50.3825 54.9007 50.3809 55.172 50.2236 55.357L48.8515 56.957L58.6516 51.301C58.8801 51.168 59.1727 51.2361 59.3192 51.4562C59.4657 51.6764 59.4155 51.9725 59.2046 52.132L55.6426 54.837C55.8139 54.8252 55.9787 54.9051 56.0756 55.047C56.225 55.2579 56.189 55.548 55.9926 55.716L55.8036 55.878C56.0046 55.8046 56.23 55.8673 56.3643 56.0339C56.4986 56.2006 56.512 56.4342 56.3976 56.615L55.8116 57.539C56.0373 57.4628 56.2855 57.5566 56.4046 57.763C56.5421 58.0017 56.4607 58.3066 56.2226 58.445L54.5596 59.405C54.3604 59.5193 54.109 59.4832 53.95 59.3176C53.791 59.152 53.7653 58.8993 53.8876 58.705L54.4616 57.799L51.6746 59.4C51.4512 59.5267 51.1682 59.4636 51.0199 59.254C50.8715 59.0445 50.9059 58.7566 51.0996 58.588L51.2596 58.451L49.6136 59.4C49.5381 59.4456 49.4517 59.4701 49.3636 59.471Z" fill="#1C989D"/>
  <path d="M55.5039 47.4702C55.2776 47.4702 55.0796 47.3182 55.021 47.0996C54.9624 46.8811 55.058 46.6504 55.2539 46.5372L57.7249 45.1102C57.9639 44.9744 58.2676 45.0569 58.4051 45.2949C58.5425 45.5329 58.462 45.8372 58.2249 45.9762L55.7539 47.4002C55.6782 47.4452 55.592 47.4693 55.5039 47.4702Z" fill="#1C989D"/>
  <path d="M57.5039 43.4702C57.2776 43.4702 57.0796 43.3182 57.021 43.0996C56.9624 42.881 57.058 42.6504 57.2539 42.5372L58.6859 41.7112C58.9234 41.587 59.2165 41.6721 59.3506 41.904C59.4847 42.136 59.4121 42.4325 59.1859 42.5762L57.7539 43.4002C57.6782 43.4452 57.592 43.4693 57.5039 43.4702Z" fill="#1C989D"/>
  <path d="M49.7324 55.4001C49.5191 55.3997 49.3296 55.2642 49.2603 55.0625C49.1911 54.8608 49.2573 54.6374 49.4254 54.5061L49.8734 54.1581L49.2984 54.4891C49.0783 54.6102 48.8024 54.5492 48.654 54.3465C48.5055 54.1438 48.5305 53.8624 48.7124 53.6891L52.1034 50.6111L49.3414 52.2111C49.1164 52.3409 48.8294 52.2768 48.681 52.0635C48.5327 51.8503 48.5724 51.5589 48.7724 51.3931L53.0384 47.8701L47.0184 51.3461C46.7888 51.4776 46.4966 51.4075 46.3516 51.1862C46.2066 50.9649 46.2591 50.669 46.4714 50.5111L49.8184 48.0451L46.2834 50.0821C46.095 50.1876 45.8602 50.1602 45.7011 50.0143C45.542 49.8684 45.4945 49.6369 45.5834 49.4401L46.1664 48.1761C45.9321 48.1977 45.7144 48.053 45.6436 47.8286C45.5728 47.6042 45.6681 47.3608 45.8724 47.2441L46.9954 46.5971C47.1837 46.4916 47.4185 46.5189 47.5776 46.6649C47.7367 46.8108 47.7842 47.0423 47.6954 47.2391L47.1474 48.4301L57.0924 42.6881C57.3214 42.5606 57.61 42.6315 57.7537 42.8507C57.8975 43.0699 57.8476 43.3629 57.6394 43.5221L54.2934 45.9871L57.7244 44.0071C57.9493 43.8795 58.2343 43.9445 58.3818 44.1568C58.5292 44.3692 58.4905 44.659 58.2924 44.8251L54.0284 48.3471L55.6764 47.3961C55.8965 47.275 56.1723 47.336 56.3208 47.5387C56.4692 47.7414 56.4442 48.0228 56.2624 48.1961L52.8624 51.2681L55.7034 49.6331C55.9306 49.5041 56.2189 49.5718 56.3649 49.7886C56.5109 50.0054 56.4654 50.298 56.2604 50.4601L55.8104 50.8111L56.1804 50.5971C56.4178 50.4729 56.7109 50.5579 56.845 50.7899C56.9791 51.0219 56.9065 51.3183 56.6804 51.4621L49.9804 55.3301C49.9052 55.3747 49.8197 55.3988 49.7324 55.4001Z" fill="#1C989D"/>
  <path d="M48.4422 47.2701C48.227 47.2701 48.036 47.1324 47.9679 46.9282C47.8998 46.724 47.9701 46.4992 48.1422 46.3701L51.0182 44.2571L48.2752 45.8401C48.0835 45.9542 47.8393 45.9274 47.6768 45.7744C47.5143 45.6215 47.4729 45.3794 47.5752 45.1811L48.0842 44.1811C47.8619 44.1716 47.6726 44.0164 47.6198 43.8002C47.5669 43.5841 47.6633 43.359 47.8562 43.2481L48.9782 42.6011C49.1695 42.4883 49.4125 42.5169 49.5722 42.6711C49.7321 42.8237 49.7728 43.0632 49.6722 43.2601L49.2292 44.1301L58.3572 38.8601C58.5872 38.7273 58.8808 38.7973 59.026 39.0196C59.1712 39.2419 59.1173 39.539 58.9032 39.6961L56.0422 41.8001L58.7212 40.2541C58.9587 40.1299 59.2518 40.2149 59.3859 40.4469C59.52 40.6789 59.4474 40.9753 59.2212 41.1191L48.6922 47.2001C48.6167 47.2453 48.5303 47.2695 48.4422 47.2701Z" fill="#1C989D"/>
  <path d="M49.2352 43.0641C49.0336 43.0641 48.8518 42.943 48.774 42.7571C48.6962 42.5711 48.7377 42.3567 48.8792 42.2131L49.7702 41.3131L49.2802 41.5951C49.0848 41.7073 48.8385 41.6749 48.6787 41.5161C48.519 41.3572 48.4852 41.1112 48.5962 40.9151L49.0192 40.1731C48.8775 40.1455 48.7546 40.058 48.6822 39.9331C48.6155 39.8182 48.5974 39.6815 48.6317 39.5532C48.6661 39.4248 48.7501 39.3154 48.8652 39.2491L49.9932 38.5991C50.1886 38.4861 50.4356 38.518 50.5958 38.6771C50.7561 38.8362 50.7898 39.0829 50.6782 39.2791L50.3782 39.8081L52.4722 38.6001C52.6889 38.4752 52.9646 38.5296 53.1175 38.7275C53.2705 38.9254 53.2537 39.2059 53.0782 39.3841L52.1882 40.2841L55.1092 38.6001C55.2642 38.5016 55.4607 38.496 55.6211 38.5855C55.7814 38.675 55.8798 38.8452 55.8774 39.0289C55.8749 39.2125 55.7719 39.38 55.6092 39.4651L49.4852 43.0001C49.4091 43.0435 49.3227 43.0656 49.2352 43.0641Z" fill="#1C989D"/>
  <path d="M53.8656 55.4711C53.6555 55.4709 53.4679 55.3394 53.3962 55.1419C53.3244 54.9444 53.3837 54.7232 53.5446 54.5881L53.7167 54.4431L52.0536 55.4031C51.8419 55.5246 51.5733 55.4755 51.4183 55.2869C51.2634 55.0982 51.2673 54.8252 51.4276 54.6411L52.8866 52.9791L49.4507 54.9621C49.2376 55.0848 48.9669 55.0344 48.8123 54.8432C48.6576 54.652 48.665 54.3767 48.8297 54.1941L49.8647 53.0461L49.2817 53.3831C49.0825 53.4983 48.8303 53.4627 48.6708 53.2968C48.5113 53.1309 48.4857 52.8776 48.6087 52.6831L48.9457 52.1491C48.7646 52.0819 48.6385 51.9164 48.6216 51.7241C48.6047 51.5317 48.7001 51.3468 48.8666 51.2491L49.9947 50.5991C50.1938 50.4838 50.446 50.5194 50.6055 50.6853C50.765 50.8512 50.7906 51.1046 50.6677 51.2991L50.5377 51.5051L52.1076 50.5991C52.3205 50.4763 52.591 50.5264 52.7458 50.7173C52.9006 50.9081 52.8937 51.1832 52.7297 51.3661L51.6926 52.5161L55.0137 50.6001C55.2254 50.4785 55.494 50.5277 55.649 50.7163C55.8039 50.905 55.8 51.178 55.6396 51.3621L54.1807 53.0241L58.1806 50.7141C58.4047 50.5881 58.6878 50.6525 58.8352 50.863C58.9827 51.0735 58.9466 51.3615 58.7516 51.5291L58.5796 51.6741L58.7206 51.5931C58.9387 51.4673 59.2163 51.5233 59.3686 51.7238C59.5209 51.9243 59.5003 52.2067 59.3206 52.3831L58.9656 52.7311H58.9726C59.1983 52.7319 59.3954 52.8836 59.4538 53.1015C59.5123 53.3194 59.4176 53.5495 59.2226 53.6631L56.2026 55.4001C55.9846 55.5259 55.707 55.4699 55.5547 55.2694C55.4024 55.0689 55.423 54.7864 55.6026 54.6101L55.7736 54.4421L54.1136 55.4001C54.0387 55.4453 53.9532 55.4698 53.8656 55.4711Z" fill="#1C989D"/>
  <path d="M49.2899 47.4711C49.0853 47.4715 48.901 47.3472 48.8248 47.1573C48.7486 46.9674 48.7958 46.7502 48.9439 46.6091L50.0709 45.5281L48.3129 46.5441C48.0924 46.6721 47.8108 46.6137 47.6594 46.4085C47.508 46.2032 47.5354 45.9169 47.7229 45.7441L48.0229 45.4681C47.8424 45.4651 47.6776 45.365 47.5916 45.2063C47.5056 45.0476 47.5119 44.8549 47.6079 44.7021L47.9519 44.1521C47.839 44.1128 47.744 44.0344 47.6839 43.9311C47.6173 43.8161 47.5992 43.6794 47.6335 43.5511C47.6678 43.4228 47.7518 43.3134 47.8669 43.2471L48.9949 42.5971C49.1942 42.4808 49.4471 42.516 49.6071 42.6821C49.7671 42.8483 49.7926 43.1024 49.6689 43.2971L49.5229 43.5311L51.1389 42.5981C51.3595 42.47 51.6411 42.5284 51.7924 42.7337C51.9438 42.9389 51.9164 43.2252 51.7289 43.3981L51.6669 43.4551L53.1499 42.5991C53.3693 42.4648 53.6548 42.5189 53.8098 42.7241C53.9649 42.9293 53.939 43.2187 53.7499 43.3931L52.6209 44.4761L55.8679 42.6001C56.0846 42.4751 56.3603 42.5295 56.5133 42.7274C56.6663 42.9253 56.6494 43.2059 56.4739 43.3841L55.1919 44.6841L57.6389 43.2721C57.8529 43.1493 58.1244 43.2009 58.2784 43.3936C58.4323 43.5863 58.4228 43.8625 58.2559 44.0441L57.4689 44.8951L57.7229 44.7481C57.9604 44.6239 58.2535 44.7089 58.3876 44.9409C58.5217 45.1729 58.4491 45.4693 58.2229 45.6131L55.1089 47.4131C54.895 47.5358 54.6235 47.4842 54.4695 47.2915C54.3155 47.0989 54.325 46.8227 54.4919 46.6411L55.2789 45.7901L52.4679 47.4001C52.2512 47.525 51.9755 47.4706 51.8226 47.2727C51.6696 47.0748 51.6864 46.7943 51.8619 46.6161L53.1459 45.3161L49.5399 47.4001C49.4645 47.4458 49.3781 47.4703 49.2899 47.4711Z" fill="#1C989D"/>
  <path d="M6.2645 45.6711V52.6001C6.2645 54.7431 5.7525 57.6001 7.8465 58.9561C9.5715 60.0761 13.0155 59.9001 14.5235 58.4871C16.0075 57.0961 16.5745 54.3351 17.2455 52.3631C21.6231 53.5664 26.2469 53.5456 30.6135 52.3031C31.3065 54.2171 31.8375 56.7901 33.1755 58.2921C34.6295 59.9251 38.2855 59.9201 40.0605 58.7821C42.1605 57.4331 41.7285 54.8761 41.7285 52.7211V45.4061C47.2463 39.258 49.1092 30.654 46.6285 22.7741C45.3665 18.9041 45.3355 17.5501 46.3075 13.6741C46.6075 12.4741 48.4745 8.3861 47.4355 7.1001C45.6155 4.8481 37.9425 9.3291 35.6635 9.2251C33.5785 9.1311 29.2695 5.8791 26.7285 6.8361V3.8551C26.7285 3.1041 26.9895 1.7221 26.4355 1.1001C25.8595 0.453103 24.3835 0.647103 23.6355 0.694103C22.8164 0.621633 22.0129 0.950324 21.4795 1.5761C21.2141 2.38149 21.1455 3.23876 21.2795 4.0761V6.7381C19.3185 6.4511 16.1445 8.1081 14.8285 8.5381C11.7935 9.53111 8.9495 8.2381 5.9005 7.4731C4.6725 7.1651 2.4885 6.1081 1.2125 6.9731C-1.2575 8.6561 2.2805 15.2361 2.6125 17.6241C3.1215 21.2641 0.520502 25.0731 0.312502 28.9131C-0.0480336 35.0737 2.09879 41.1181 6.2645 45.6711ZM14.1185 56.7371C12.4785 59.4241 8.0705 58.9591 7.7365 55.6581C7.55209 52.8167 7.54374 49.9666 7.7115 47.1241C10.0849 49.2859 12.8822 50.9301 15.9255 51.9521C15.4786 53.6016 14.8735 55.204 14.1185 56.7371ZM40.2725 55.7831C39.8525 59.2141 35.5025 59.4661 33.8985 56.6601C33.1524 55.1052 32.5301 53.4939 32.0375 51.8411C35.1013 50.7635 37.9105 49.067 40.2905 46.8571C40.4976 49.8291 40.4916 52.812 40.2725 55.7831ZM23.7005 1.3061C24.7475 1.3061 25.2385 1.6831 25.2775 2.6921C25.3145 3.6771 25.2775 4.6711 25.2775 5.6571V10.1941C25.2775 10.2161 25.3005 10.2291 25.3195 10.2441C25.3195 11.7231 25.3135 13.1851 24.0605 13.5441C21.4715 12.1901 23.5675 9.4691 22.7255 7.7441V5.4441C22.7255 4.4321 22.7005 3.4171 22.7255 2.4051C22.6975 2.09734 22.7211 1.78706 22.7955 1.4871C22.8335 1.3871 22.7895 1.3681 22.7465 1.3681C22.7825 1.3571 22.8325 1.3401 22.9195 1.3051C23.1788 1.27193 23.4413 1.27227 23.7005 1.3061ZM2.1505 25.4791C2.5765 23.2901 3.9945 21.1091 4.2115 18.9621C4.20473 17.6001 3.9611 16.2496 3.4915 14.9711C3.1155 13.4711 1.5005 10.0111 1.8645 8.4811C2.1815 7.1441 1.7765 7.7451 3.0465 7.7061C4.34889 7.87229 5.62688 8.19288 6.8535 8.6611C8.4675 9.0661 10.4015 9.9091 12.0775 9.9411C14.7065 9.9921 20.1495 6.0361 21.2775 9.0151V10.1941C21.2775 10.2601 21.3775 10.2941 21.5185 10.3021C21.5705 11.9361 20.8635 13.2911 23.0775 14.3021C23.1059 14.3105 23.135 14.3158 23.1645 14.3181C23.2902 14.3492 23.4209 14.354 23.5485 14.3321C26.4965 13.9551 26.3545 11.7641 26.5975 10.0131C26.667 9.96804 26.7137 9.89512 26.7255 9.8131V9.3511C26.8361 8.59028 27.4122 7.98063 28.1655 7.8271C30.4545 7.3151 33.1085 10.0521 35.6185 9.9061C37.2134 9.65502 38.7828 9.26316 40.3085 8.7351C41.0235 8.5551 45.1295 6.9591 45.7325 7.3751C47.0325 8.2751 45.1265 12.8261 44.8615 13.8801C44.3251 15.3687 43.9395 16.9074 43.7105 18.4731C43.6625 20.1521 44.6755 21.6081 45.1765 23.1621C47.6487 30.8005 45.8934 39.1769 40.5625 45.1801C40.4321 45.2428 40.3341 45.3575 40.2925 45.4961C38.0392 47.9926 35.2388 49.9339 32.1105 51.1681C31.9105 51.2481 31.6985 51.3061 31.4935 51.3791C31.1722 51.3603 30.8564 51.468 30.6135 51.6791C26.2472 52.9864 21.581 52.893 17.2705 51.4121C17.1529 51.3301 17.0138 51.2842 16.8705 51.2801C9.0166 48.5148 3.30874 41.6692 2.0005 33.4461C1.58911 30.8018 1.63987 28.1061 2.1505 25.4791Z" fill="white"/>
  <path d="M36.7274 35.922C36.7274 35.896 36.7154 35.881 36.7124 35.857C36.7094 35.833 36.7254 35.824 36.7234 35.806C35.6854 23.265 11.2634 23.506 11.2734 36.136C11.2834 48.893 35.6994 48.333 36.7274 35.922ZM35.2644 36.122C34.2644 47.448 12.7584 47.282 12.8194 35.863C12.8814 24.286 34.2484 24.958 35.2644 36.123V36.122Z" fill="white"/>
  <path d="M19.9023 39.4001C21.7503 39.3001 22.6573 37.5691 22.7253 35.9071C22.7253 35.8861 22.7133 35.8751 22.7103 35.8561C22.7073 35.8371 22.7263 35.8221 22.7253 35.8031C22.6603 34.2151 21.8253 32.4201 19.9743 32.6031C18.2968 32.9067 17.1267 34.4379 17.2743 36.1361C17.2783 37.6901 18.1273 39.5001 19.9023 39.4001ZM20.3093 33.6841C20.9838 34.3118 21.3382 35.211 21.2733 36.1301C21.2681 36.5954 21.1902 37.057 21.0423 37.4981C20.8803 37.9351 20.4613 38.6171 19.8543 38.4441C18.9843 38.1961 18.7413 36.5761 18.7413 35.8551C18.7423 35.1151 19.1023 32.9371 20.3103 33.6871L20.3093 33.6841Z" fill="white"/>
  <path d="M28.0363 39.286C29.8363 39.028 30.6553 37.508 30.7253 35.806C30.6573 34.157 29.7743 32.4 27.8763 32.724C26.2586 33.0596 25.144 34.5472 25.2763 36.194C25.2803 37.8 26.2233 39.546 28.0363 39.286ZM28.2613 33.607C29.0613 34.059 29.2433 35.388 29.2773 36.194C29.2443 36.975 28.9343 39.064 27.7413 38.394C26.9623 37.956 26.7233 36.601 26.7253 35.807C26.7273 35.013 27.0903 32.948 28.2613 33.607Z" fill="white"/>
  <path d="M18.7254 21.806C18.4864 17.365 11.2944 18.067 11.2774 22.194C11.2584 26.684 18.5064 25.879 18.7254 21.806ZM15.3014 19.419C16.4814 19.8322 17.2733 20.9437 17.2784 22.194C17.1974 23.687 16.1014 25.235 14.4484 24.494C13.3997 24.0095 12.7277 22.9602 12.7264 21.805C12.7354 20.406 13.7934 18.938 15.3014 19.419Z" fill="white"/>
  <path d="M36.7339 21.9361C36.4859 17.3361 29.3259 17.5661 29.2699 22.0641C29.2119 26.7221 36.4939 26.3751 36.7339 21.9361ZM32.8339 19.5171C34.1911 19.5885 35.2576 20.705 35.2669 22.0641C35.1989 23.3281 34.3759 24.6431 32.9299 24.4831C31.6744 24.2827 30.7456 23.2074 30.7299 21.9361C30.6569 20.6907 31.5933 19.6157 32.8369 19.5171H32.8339Z" fill="white"/>
  <path d="M57.8873 38.5609C55.2931 38.3144 52.6812 38.3168 50.0873 38.5679C48.2593 38.8229 47.6263 41.3909 48.5503 42.6959C47.2428 43.4661 46.748 45.1126 47.4143 46.4759C47.2653 46.4879 47.1143 46.4929 46.9693 46.5149C45.3143 46.7709 45.2113 48.0219 45.2693 49.4299C45.3183 50.7119 45.6443 51.3789 47.0313 51.5029C47.5313 51.5469 48.0403 51.5629 48.5493 51.5779C48.3466 52.027 48.2534 52.5178 48.2773 53.0099C48.236 53.5436 48.2971 54.0802 48.4573 54.5909C48.0092 54.5794 47.5609 54.6024 47.1163 54.6599C45.6823 54.8699 45.2773 55.6689 45.2773 57.0099C45.2773 58.3199 45.2683 59.2099 46.8073 59.3559C49.3923 59.5969 52.1073 59.3559 54.7073 59.3559C54.7233 59.3559 54.7433 59.3499 54.7613 59.3479C54.8702 59.3446 54.9784 59.3281 55.0833 59.2989C56.6543 58.8739 56.7943 57.9349 56.7273 56.4389C56.7269 56.0824 56.6498 55.7301 56.5013 55.4059C56.9063 55.3959 57.3143 55.3839 57.7143 55.3839C57.7293 55.3839 57.7473 55.3769 57.7623 55.3759C57.8738 55.3757 57.9848 55.3606 58.0923 55.3309C59.6923 54.8969 59.7923 53.9369 59.7273 52.4389C59.6693 51.1269 59.1923 50.6899 57.9033 50.6159L56.4563 50.5349C56.7644 49.8152 56.8612 49.0226 56.7353 48.2499C56.7221 47.9838 56.6699 47.721 56.5803 47.4699H56.7363C56.7473 47.4699 56.7603 47.4649 56.7723 47.4639C56.8884 47.473 57.0051 47.4618 57.1173 47.4309C58.7813 46.9809 58.8383 45.7819 58.7323 44.2429C58.7217 43.9014 58.6302 43.5673 58.4653 43.2679C59.7653 42.7499 59.8283 41.6569 59.7303 40.2339C59.6423 38.9949 59.0453 38.6359 57.8873 38.5609ZM56.6323 43.4659C57.2433 43.7159 57.7883 46.1729 56.9443 46.5339H55.1793C55.0733 46.5189 54.9673 46.5049 54.8493 46.4969C53.3413 46.3969 51.7893 46.4969 50.2773 46.4969C49.9563 46.4969 49.6233 46.4849 49.2863 46.4709C48.6396 45.7011 48.4352 44.6523 48.7453 43.6959C48.8453 43.5319 49.1353 43.4319 49.5313 43.3729C49.6294 43.4028 49.7297 43.4249 49.8313 43.4389C52.0871 43.5933 54.3506 43.6007 56.6073 43.4609C56.6133 43.4639 56.6253 43.4629 56.6323 43.4659ZM49.7403 39.6779C50.1863 38.9369 54.2763 39.4389 55.2893 39.4389C56.0636 39.3214 56.8511 39.3214 57.6253 39.4389C58.2253 39.6849 58.7973 42.1869 57.9593 42.5609H57.1333C57.0493 42.5509 56.9693 42.5399 56.8793 42.5339C55.4263 42.4339 53.9293 42.5339 52.4733 42.5339C51.7643 42.5339 51.0073 42.4779 50.2653 42.4759C49.6371 41.6881 49.4405 40.64 49.7403 39.6779ZM55.0403 58.6439H49.9243C49.0874 58.7699 48.2363 58.7699 47.3993 58.6439C46.6753 58.3439 46.3853 56.3009 46.7283 55.6239C46.9103 55.2639 47.9533 55.1879 49.1003 55.2059C49.3276 55.3022 49.5685 55.3623 49.8143 55.3839C51.4522 55.5112 53.0966 55.5332 54.7373 55.4499C55.3063 55.9819 55.7253 58.2189 55.0383 58.6439H55.0403ZM57.6123 51.3839C58.2523 51.6509 58.7773 54.1769 58.0243 54.6159H54.1463C52.9343 54.5859 51.7063 54.6439 50.5023 54.6439H50.4883C50.4545 54.6369 50.4211 54.6278 50.3883 54.6169C49.6723 54.3169 49.3763 52.3069 49.7283 51.6389C49.7363 51.6229 49.7553 51.6109 49.7673 51.5969C51.4513 51.5969 53.1503 51.5099 54.8093 51.5049H54.8393H54.9253C55.0796 51.5045 55.2308 51.4616 55.3623 51.3809C56.1068 51.2586 56.8662 51.2596 57.6103 51.3839H57.6123ZM54.9613 50.4719C53.8243 50.4309 52.6843 50.4279 51.5813 50.4969H49.7013C48.8653 50.635 48.0123 50.635 47.1763 50.4969C46.6553 50.2229 46.4373 48.2179 46.8453 47.7199C47.1993 47.2889 48.2593 47.5029 48.8313 47.5029H49.4103C51.2162 47.606 53.0265 47.606 54.8323 47.5029C55.3353 47.7819 55.6483 50.0869 54.9593 50.4719H54.9613Z" fill="white"/>
  <path d="M7.41789 15.8801L7.03089 14.3801C6.79266 13.842 6.71253 13.2471 6.79989 12.6651C6.83889 12.5651 7.01289 12.3971 7.01489 12.3401C7.04704 12.3532 7.08059 12.3626 7.11489 12.3681C7.41165 12.4103 7.70278 12.4854 7.98289 12.5921L9.48289 12.9781C9.83174 13.0336 10.1891 12.9695 10.4969 12.7961C10.6189 12.7281 10.9969 12.4961 10.6709 12.4091C9.21689 12.0341 7.57089 11.2861 6.14089 12.0981C4.61789 12.9611 5.64089 14.9761 5.97189 16.2681C6.05389 16.6001 7.50589 16.2211 7.41789 15.8801Z" fill="white"/>
  <path d="M38.0568 13.1752L39.5568 12.7882C40.1208 12.6432 40.8288 12.2552 41.1708 12.9572C41.4068 13.4422 41.0908 14.1482 40.9648 14.6362L40.5778 16.1362C40.4038 16.8112 41.8838 16.6362 42.0438 16.0172C42.3508 14.8262 43.3228 12.8422 42.1248 11.8882C40.9898 10.9882 39.0248 11.8982 37.8018 12.2152C36.9018 12.4432 37.1608 13.4052 38.0568 13.1752Z" fill="white"/>
</svg>
