<svg width="52" height="52" viewBox="0 0 52 52" fill="none"
    xmlns="http://www.w3.org/2000/svg">
    <path d="M24.1686 30.9926C24.0328 30.9926 23.9106 30.9103 23.8597 30.7845C23.8087 30.6586 23.8391 30.5145 23.9366 30.42L25.8133 28.6073L23.3899 30.0073C23.243 30.0915 23.0563 30.052 22.9559 29.9157C22.8555 29.7793 22.8733 29.5893 22.9973 29.474L24.0346 28.5173L23.1326 29.038C23.0091 29.1095 22.8537 29.0945 22.7462 29.0006C22.6387 28.9066 22.6029 28.7547 22.6573 28.6226L22.9866 27.8226L22.8746 27.8893C22.7163 27.9721 22.5209 27.9154 22.4315 27.7608C22.3421 27.6061 22.3905 27.4085 22.5413 27.3126L23.5006 26.7593C23.6241 26.6883 23.7791 26.7036 23.8863 26.7974C23.9936 26.8912 24.0293 27.0428 23.9753 27.1746L23.6466 27.9746L26.3006 26.4413C26.4476 26.3572 26.6343 26.3966 26.7347 26.5329C26.8351 26.6693 26.8173 26.8593 26.6933 26.9746L25.6559 27.9313L27.8306 26.676C27.9764 26.5895 28.1639 26.6263 28.2663 26.7614C28.3687 26.8965 28.3533 27.087 28.2306 27.204L26.3533 29.0166L29.1333 27.41C29.2805 27.3189 29.473 27.3557 29.5762 27.4947C29.6795 27.6338 29.6591 27.8287 29.5293 27.9433L28.4626 28.95L28.7959 28.758C28.9218 28.687 29.079 28.7052 29.1853 28.803C29.2916 28.9009 29.3228 29.056 29.2626 29.1873L28.8073 30.1593C28.8415 30.1855 28.8701 30.2184 28.8913 30.256C28.9833 30.4154 28.9287 30.6193 28.7693 30.7113L28.3753 30.9386C28.2494 31.0096 28.0922 30.9914 27.9859 30.8936C27.8796 30.7958 27.8484 30.6406 27.9086 30.5093L28.2106 29.8653L26.3439 30.9446C26.1967 31.0357 26.0042 30.9989 25.901 30.8599C25.7977 30.7208 25.8181 30.5259 25.9479 30.4113L27.0146 29.4046L24.3333 30.948C24.2833 30.9772 24.2265 30.9926 24.1686 30.9926Z" fill="#BE9468"/>
    <path d="M26.6854 45.5733C26.5419 45.5733 26.4145 45.4815 26.3692 45.3454C26.3238 45.2093 26.3706 45.0594 26.4854 44.9733L27.7361 44.0573L25.2307 45.504C25.077 45.5909 24.8823 45.5428 24.7866 45.3944C24.6909 45.2461 24.7275 45.0488 24.8701 44.9447L27.5141 43.048L23.8014 45.1927C23.6475 45.2819 23.4507 45.2346 23.3542 45.0852C23.2577 44.9358 23.2955 44.7369 23.4401 44.6333L27.6167 41.6333L22.4521 44.6153C22.2956 44.709 22.0929 44.6596 21.9971 44.5044C21.9014 44.3491 21.9481 44.1458 22.1021 44.048L23.1081 43.3893L21.7261 44.1893C21.5716 44.2744 21.3776 44.2244 21.2834 44.0753C21.1892 43.9262 21.2275 43.7296 21.3707 43.6267L25.7281 40.6267L20.8654 43.4333C20.7098 43.5169 20.516 43.4645 20.4236 43.3139C20.3313 43.1633 20.3724 42.9669 20.5174 42.866L21.7907 42.038L20.3347 42.8747C20.179 42.9632 19.9812 42.9129 19.8867 42.7607C19.7922 42.6085 19.8349 42.4089 19.9834 42.3087L23.3167 40.0867L19.8101 42.1107C19.6541 42.2033 19.4526 42.1542 19.3568 42.0001C19.2609 41.846 19.306 41.6436 19.4581 41.5447L22.7487 39.354L19.4001 41.2873C19.2456 41.3776 19.0474 41.3297 18.951 41.179C18.8547 41.0282 18.8946 40.8283 19.0414 40.726L24.5387 36.8667L19.0094 40.0587C18.8547 40.146 18.6588 40.0967 18.5638 39.9466C18.4689 39.7965 18.5082 39.5984 18.6534 39.496L23.1501 36.386L18.8601 38.8627C18.7048 38.9528 18.5061 38.9038 18.4106 38.7518C18.315 38.5999 18.3569 38.3995 18.5054 38.2987L21.8487 36.0147L19.0074 37.654C18.8527 37.74 18.6576 37.6901 18.5633 37.5403C18.469 37.3904 18.5082 37.193 18.6527 37.0907L21.0394 35.458L19.3381 36.44C19.1844 36.5282 18.9887 36.4808 18.8924 36.3322C18.7961 36.1835 18.8328 35.9855 18.9761 35.8813L21.2527 34.2367L20.0234 34.946C19.8762 35.0341 19.6863 34.9961 19.5843 34.8582C19.4823 34.7204 19.5015 34.5276 19.6287 34.4127L22.1234 32.07C22.0005 32.0267 21.9142 31.9158 21.9023 31.7861C21.8904 31.6564 21.9551 31.5316 22.0681 31.4667L23.9201 30.4C24.0672 30.3119 24.2572 30.3499 24.3592 30.4877C24.4612 30.6256 24.442 30.8183 24.3147 30.9333L22.1867 32.9333L26.5714 30.4C26.725 30.3118 26.9207 30.3592 27.017 30.5078C27.1134 30.6565 27.0766 30.8545 26.9334 30.9587L24.6574 32.6L28.2681 30.5127C28.423 30.4241 28.6202 30.4733 28.7154 30.6242C28.8106 30.7752 28.7701 30.9743 28.6234 31.076L26.2321 32.7113L29.1147 31.0447C29.27 30.9546 29.4687 31.0036 29.5642 31.1555C29.6598 31.3075 29.6178 31.5078 29.4694 31.6087L26.1281 33.892L29.9021 31.7133C30.0567 31.626 30.2527 31.6753 30.3476 31.8254C30.4426 31.9754 30.4032 32.1736 30.258 32.276L25.7627 35.3847L30.6907 32.5393C30.845 32.4518 31.0409 32.5004 31.1362 32.65C31.2316 32.7996 31.1932 32.9977 31.0487 33.1007L25.5521 36.9633L31.4721 33.546C31.6277 33.4574 31.8256 33.5078 31.9201 33.6599C32.0145 33.8121 31.9718 34.0118 31.8234 34.112L28.5347 36.304L31.9721 34.3193C32.1277 34.2308 32.3256 34.2811 32.4201 34.4333C32.5145 34.5855 32.4718 34.7851 32.3234 34.8853L28.9901 37.1073L32.3947 35.142C32.5504 35.0585 32.7441 35.1108 32.8365 35.2614C32.9289 35.412 32.8877 35.6085 32.7427 35.7093L31.4681 36.54L32.6761 35.8433C32.8305 35.7582 33.0245 35.8082 33.1187 35.9573C33.2129 36.1064 33.1746 36.3031 33.0314 36.406L28.6741 39.406L32.9987 36.9093C33.1552 36.8156 33.3579 36.8651 33.4537 37.0203C33.5494 37.1755 33.5027 37.3789 33.3487 37.4767L32.3487 38.1307L33.0887 37.704C33.2426 37.6148 33.4394 37.6621 33.5359 37.8115C33.6324 37.9609 33.5946 38.1597 33.45 38.2633L29.272 41.2633L33.0434 39.086C33.1971 38.9991 33.3919 39.0472 33.4875 39.1956C33.5832 39.3439 33.5466 39.5412 33.404 39.6453L30.7601 41.5413L32.7167 40.408C32.87 40.3194 33.0657 40.3661 33.1625 40.5144C33.2593 40.6626 33.2234 40.8606 33.0807 40.9653L31.8267 41.8833L32.0267 41.7673C32.13 41.7016 32.2611 41.6979 32.368 41.7576C32.4749 41.8172 32.5405 41.9307 32.5388 42.0531C32.5372 42.1756 32.4685 42.2872 32.36 42.344L26.8507 45.5247C26.8009 45.5554 26.7439 45.5722 26.6854 45.5733Z" fill="#BE9468"/>
    <path d="M25.4568 18.9174C25.312 18.9174 25.1838 18.8241 25.1394 18.6863C25.095 18.5485 25.1446 18.3978 25.2621 18.3134L26.2294 17.6174L24.4408 18.65C24.286 18.7361 24.091 18.6862 23.9967 18.5363C23.9023 18.3865 23.9416 18.189 24.0861 18.0867L24.6028 17.7334L23.5621 18.3334C23.4085 18.4215 23.2128 18.3742 23.1165 18.2255C23.0201 18.0769 23.0569 17.8789 23.2001 17.7747L26.4668 15.4074L22.5268 17.682C22.3735 17.7706 22.1777 17.7239 22.0809 17.5757C21.9842 17.4275 22.0201 17.2295 22.1628 17.1247L26.5134 13.9334L21.5801 16.7787C21.4255 16.8674 21.2285 16.8188 21.1329 16.6684C21.0373 16.5181 21.0769 16.319 21.2228 16.2167L24.6408 13.828L21.0088 15.9247C20.8532 16.0197 20.6502 15.9721 20.553 15.8179C20.4559 15.6637 20.5006 15.46 20.6534 15.3607L23.2081 13.616L20.6234 15.108C20.4684 15.1952 20.2723 15.1453 20.1777 14.9947C20.0832 14.8441 20.1235 14.6457 20.2694 14.544L22.0981 13.3067L20.3441 14.32C20.1914 14.4082 19.9965 14.3621 19.8993 14.215C19.8022 14.0679 19.8364 13.8705 19.9774 13.7647L24.2288 10.586L20.1914 12.9194C20.0368 13.0086 19.8392 12.9601 19.7434 12.8094C19.6475 12.6584 19.6878 12.4586 19.8348 12.3567L21.1941 11.4147L20.3054 11.928C20.1517 12.0149 19.957 11.9669 19.8613 11.8185C19.7656 11.6701 19.8022 11.4729 19.9448 11.3687L21.2028 10.4607L20.6288 10.794C20.4817 10.8794 20.294 10.8405 20.1931 10.7036C20.0922 10.5668 20.1104 10.3759 20.2354 10.2607L21.9808 8.6367C21.8261 8.64698 21.6848 8.54927 21.6397 8.40095C21.5947 8.25262 21.6578 8.09282 21.7921 8.01536L24.0828 6.6927C24.2299 6.60601 24.4187 6.64448 24.5201 6.78181C24.6216 6.91913 24.6029 7.11091 24.4768 7.22603L22.8448 8.74336L26.7294 6.5007C26.8831 6.41383 27.0779 6.46188 27.1736 6.61025C27.2693 6.75863 27.2327 6.95587 27.0901 7.06003L25.8294 7.96336L27.8628 6.7907C28.0172 6.70443 28.2121 6.75375 28.3068 6.90307C28.4016 7.05239 28.3632 7.24973 28.2194 7.3527L26.8568 8.2967L28.7648 7.19603C28.9174 7.10988 29.1106 7.15655 29.207 7.30285C29.3034 7.44915 29.2701 7.64513 29.1308 7.75136L24.8828 10.928L29.8974 8.0327C30.0528 7.94419 30.2502 7.99395 30.3451 8.14549C30.4399 8.29703 30.3983 8.49639 30.2508 8.59736L28.4201 9.83537L30.4994 8.63537C30.6547 8.54527 30.8534 8.59427 30.9489 8.74622C31.0445 8.89816 31.0026 9.09848 30.8541 9.19936L28.2961 10.946L30.9841 9.3947C31.1387 9.30599 31.3357 9.35456 31.4313 9.50496C31.5269 9.65535 31.4874 9.85436 31.3415 9.9567L27.9221 12.3467L31.4161 10.3294C31.5694 10.2408 31.7652 10.2875 31.8619 10.4357C31.9587 10.5839 31.9228 10.7819 31.7801 10.8867L27.4321 14.082L31.7268 11.6C31.8804 11.5119 32.0761 11.5592 32.1724 11.7079C32.2688 11.8565 32.232 12.0545 32.0888 12.1587L28.8161 14.5334L31.7648 12.8314C31.9195 12.7453 32.1145 12.7952 32.2089 12.9451C32.3032 13.0949 32.2639 13.2924 32.1195 13.3947L31.6154 13.74L31.6628 13.7127C31.8167 13.6235 32.0135 13.6708 32.11 13.8202C32.2065 13.9696 32.1687 14.1684 32.0241 14.272L31.0554 14.9687L31.2668 14.8474C31.4169 14.7619 31.6074 14.8053 31.7057 14.9473C31.804 15.0893 31.7776 15.2829 31.6448 15.3934L30.3508 16.4527C30.4896 16.4756 30.5991 16.5833 30.6243 16.7217C30.6496 16.8601 30.5852 16.9995 30.4635 17.07L27.4928 18.7854C27.3425 18.8712 27.1515 18.8277 27.0531 18.6853C26.9548 18.5428 26.9819 18.3488 27.1154 18.2387L28.0488 17.4747L25.6234 18.8747C25.5726 18.9033 25.5151 18.918 25.4568 18.9174Z" fill="#FFC306"/>
    <path d="M39.0877 25.6187C38.9442 25.6187 38.8169 25.5269 38.7715 25.3908C38.7261 25.2546 38.7729 25.1048 38.8877 25.0187L40.1457 24.09L37.9231 25.3734C37.7678 25.4634 37.5691 25.4144 37.4736 25.2625C37.378 25.1106 37.4199 24.9102 37.5684 24.8094L37.5857 24.7974L37.0977 25.0787C36.9452 25.1648 36.7519 25.1182 36.6555 24.9719C36.5591 24.8256 36.5924 24.6296 36.7317 24.5234L40.5937 21.626L35.8604 24.3594C35.7074 24.4483 35.5116 24.4023 35.4143 24.2545C35.317 24.1067 35.3522 23.9087 35.4944 23.8034L40.1037 20.372L34.8664 23.3934C34.7123 23.4799 34.5175 23.4312 34.4223 23.2824C34.3271 23.1335 34.3646 22.9363 34.5077 22.8327L38.2184 20.2154L34.2804 22.4887C34.1259 22.5738 33.9319 22.5238 33.8377 22.3747C33.7436 22.2256 33.7818 22.0289 33.9251 21.926L36.6464 20.0594L33.9131 21.6387C33.7585 21.7274 33.5615 21.6788 33.4659 21.5284C33.3702 21.378 33.4098 21.179 33.5557 21.0767L36.5491 18.992L33.6404 20.6667C33.4869 20.7527 33.2931 20.7047 33.1975 20.5569C33.102 20.4092 33.1377 20.2127 33.2791 20.108L36.6364 17.6874L33.5364 19.4774C33.3818 19.5661 33.1848 19.5175 33.0892 19.3671C32.9936 19.2167 33.0332 19.0177 33.1791 18.9154L34.7431 17.8207L33.6544 18.4494C33.5019 18.5337 33.3102 18.4865 33.2145 18.3409C33.1187 18.1954 33.1512 18.0006 33.2891 17.894L35.1144 16.5334L34.0777 17.1334C33.9294 17.217 33.7418 17.1753 33.6428 17.0367C33.5438 16.8982 33.5652 16.7073 33.6924 16.594L35.1891 15.2914C35.0629 15.2517 34.9721 15.1412 34.9577 15.0098C34.9433 14.8783 35.0079 14.7508 35.1224 14.6847L37.4117 13.3634C37.5603 13.2782 37.7493 13.3195 37.8488 13.4589C37.9483 13.5984 37.926 13.7905 37.7971 13.9034L36.7304 14.8314L39.6804 13.1287C39.833 13.0425 40.0262 13.0892 40.1226 13.2355C40.219 13.3818 40.1857 13.5778 40.0464 13.684L38.2211 15.0467L41.0537 13.4114C41.2083 13.3226 41.4053 13.3712 41.5009 13.5216C41.5966 13.672 41.557 13.871 41.4111 13.9734L39.8471 15.0667L42.0164 13.8147C42.1698 13.7287 42.3637 13.7767 42.4593 13.9244C42.5548 14.0721 42.5191 14.2687 42.3777 14.3734L39.0197 16.792L43.0137 14.486C43.1685 14.3941 43.3683 14.4417 43.4651 14.5935C43.5618 14.7454 43.5205 14.9466 43.3717 15.048L40.3717 17.1354L43.7257 15.202C43.8807 15.1135 44.0779 15.1626 44.1731 15.3136C44.2683 15.4645 44.2277 15.6637 44.0811 15.7654L41.3637 17.632L44.2484 15.9654C44.4024 15.8788 44.5972 15.9275 44.6925 16.0763C44.7877 16.2252 44.7502 16.4224 44.6071 16.526L40.8951 19.144L44.7237 16.9334C44.8767 16.8444 45.0725 16.8904 45.1698 17.0382C45.2671 17.186 45.2319 17.3841 45.0897 17.4894L40.4811 20.9207L45.0584 18.2787C45.2111 18.1906 45.406 18.2366 45.5032 18.3837C45.6003 18.5309 45.5661 18.7282 45.4251 18.834L41.5637 21.7334L45.0704 19.7087C45.2251 19.6226 45.4202 19.6726 45.5145 19.8224C45.6088 19.9722 45.5696 20.1697 45.4251 20.272L45.0744 20.5107C45.1969 20.5021 45.3149 20.5585 45.3851 20.6594C45.4823 20.8073 45.4469 21.0056 45.3044 21.1107L44.0471 22.0394L44.4591 21.8014C44.6092 21.7132 44.8019 21.7553 44.9014 21.8982C45.0009 22.041 44.9738 22.2364 44.8391 22.3467L43.5477 23.4134C43.5956 23.4422 43.6353 23.4828 43.6631 23.5314C43.7547 23.6906 43.7001 23.894 43.5411 23.986L41.2551 25.3067C41.1052 25.3928 40.9144 25.3502 40.8155 25.2084C40.7166 25.0667 40.7425 24.8729 40.8751 24.762L41.3691 24.3527L39.2544 25.5734C39.2039 25.6031 39.1463 25.6187 39.0877 25.6187Z" fill="#FFC306"/>
    <path d="M13.135 25.5933C12.9916 25.5933 12.8642 25.5015 12.8188 25.3654C12.7734 25.2293 12.8203 25.0794 12.935 24.9933L13.2057 24.7933L11.9777 25.5033C11.8252 25.5907 11.6311 25.5447 11.5341 25.3982C11.4371 25.2517 11.4704 25.055 11.6104 24.9487L14.0224 23.1287L10.5677 25.124C10.415 25.2121 10.2201 25.1661 10.1229 25.019C10.0258 24.8718 10.06 24.6745 10.201 24.5687L13.905 21.794L9.32771 24.4367C9.17476 24.5257 8.97894 24.4796 8.88164 24.3318C8.78435 24.184 8.8195 23.986 8.96171 23.8807L13.4724 20.526L8.31171 23.5053C8.15801 23.5922 7.96324 23.5442 7.86756 23.3958C7.77189 23.2474 7.80849 23.0502 7.95104 22.946L12.023 20.034L7.65504 22.5553C7.50038 22.6427 7.30442 22.5934 7.20946 22.4433C7.1145 22.2932 7.1539 22.095 7.29904 21.9927L10.2884 19.926L7.25771 21.678C7.1024 21.7665 6.90491 21.7168 6.81009 21.5652C6.71526 21.4137 6.75686 21.2143 6.90437 21.1133L8.57104 19.988L7.00171 20.8947C6.84833 20.9721 6.66126 20.9202 6.56962 20.7749C6.47798 20.6296 6.51179 20.4384 6.64771 20.3333L8.33504 19.184L6.89971 20.0113C6.74601 20.0982 6.55124 20.0502 6.45556 19.9018C6.35989 19.7534 6.39649 19.5562 6.53904 19.452L9.22437 17.528L6.94437 18.8447C6.79221 18.9326 6.59795 18.8872 6.50039 18.7411C6.40284 18.5949 6.4355 18.3981 6.57504 18.2913L9.15904 16.3173L7.32571 17.3753C7.17853 17.4603 6.99098 17.421 6.89037 17.284C6.78946 17.1469 6.80815 16.9557 6.93371 16.8407L8.61437 15.3027C8.46557 15.2977 8.33808 15.1947 8.302 15.0503C8.26593 14.9058 8.33002 14.755 8.45904 14.6807L10.7484 13.3593C10.8953 13.2764 11.081 13.3162 11.1809 13.4522C11.2808 13.5881 11.2634 13.7772 11.1404 13.8927L9.63304 15.2733L13.2997 13.1567C13.4519 13.0688 13.6461 13.1141 13.7437 13.2603C13.8412 13.4064 13.8086 13.6032 13.669 13.71L11.0844 15.6847L14.785 13.5513C14.9387 13.4645 15.1335 13.5125 15.2292 13.6609C15.3249 13.8093 15.2883 14.0065 15.1457 14.1107L12.4584 16.0327L15.805 14.0993C15.9601 14.0122 16.1562 14.062 16.2508 14.2127C16.3453 14.3633 16.3049 14.5616 16.159 14.6633L14.4844 15.8033L16.503 14.638C16.6581 14.5521 16.8533 14.6026 16.9473 14.753C17.0412 14.9034 17.001 15.101 16.8557 15.2027L15.1844 16.3333L17.0937 15.2313C17.2479 15.1471 17.441 15.1971 17.5351 15.3455C17.6291 15.494 17.5917 15.6899 17.4497 15.7933L14.4597 17.86L17.6277 16.0313C17.7814 15.9445 17.9762 15.9925 18.0719 16.1409C18.1675 16.2893 18.1309 16.4865 17.9884 16.5907L13.9177 19.5013L18.111 17.0807C18.264 16.9917 18.4598 17.0377 18.5571 17.1855C18.6544 17.3333 18.6192 17.5314 18.477 17.6367L13.9657 20.992L18.4104 18.4267C18.5631 18.3385 18.758 18.3846 18.8552 18.5317C18.9523 18.6788 18.9181 18.8762 18.777 18.982L15.075 21.7513L18.3904 19.8373C18.5429 19.75 18.737 19.796 18.834 19.9425C18.931 20.089 18.8976 20.2857 18.7577 20.392L16.3444 22.212L18.0297 21.2393C18.1827 21.1517 18.3776 21.1984 18.4742 21.3459C18.5709 21.4935 18.5359 21.6907 18.3944 21.796L17.6197 22.368C17.7601 22.3883 17.8722 22.4952 17.8993 22.6344C17.9263 22.7736 17.8623 22.9147 17.7397 22.986L13.3037 25.548C13.2526 25.5781 13.1943 25.5937 13.135 25.5933Z" fill="#FFC306"/>
    <path d="M21.9137 44.636C25.455 46.4819 29.8037 45.6159 32.3677 42.554C35.459 38.6273 33.0257 33.396 29.3177 30.8626H29.6863C29.891 30.8626 30.7783 30.4706 30.313 30.4706H29.073C29.4284 29.5835 29.6725 28.6558 29.7997 27.7086C29.8103 26.3526 26.7423 26.3393 25.827 26.3706C24.9117 26.402 22.1603 26.5313 22.195 27.876C22.3096 28.7663 22.538 29.6383 22.8743 30.4706H22.313C22.1083 30.4706 21.221 30.8626 21.6863 30.8626H22.9997C23.0066 30.8767 23.0163 30.8892 23.0283 30.8993C22.2494 31.2786 21.5521 31.8065 20.9757 32.4533C17.547 36.1047 16.9997 41.9713 21.9137 44.636ZM23.3997 27.4C23.9457 26.8886 25.5917 26.946 26.2737 26.986C26.7723 27.0153 28.2117 27.0746 28.633 27.496C28.9437 27.806 28.7297 28.1913 28.633 28.554C28.4735 29.1558 28.3139 29.7578 28.1543 30.36H23.8877C23.7126 29.6982 23.537 29.036 23.361 28.3733C23.253 27.9586 23.0583 27.72 23.3997 27.4ZM23.4663 31.1333C23.6273 31.0646 23.7939 31.0102 23.9643 30.9706H27.9877C31.1877 32.86 33.8303 36.9747 32.4743 40.7353C30.5637 46.036 23.023 46.32 20.1637 41.78C18.097 38.496 19.759 32.7553 23.4663 31.1333Z" fill="#0F474A"/>
    <path d="M19.5177 12.7646C19.499 16.7646 22.4343 18.7066 25.5177 18.7526V22.8666L25.1103 22.4593C24.809 22.158 23.8943 22.55 24.225 22.8806C24.6694 23.3251 25.1139 23.7695 25.5583 24.214C25.815 24.4179 26.1863 24.3854 26.4037 24.14L27.737 22.8066C27.8066 22.7381 27.8341 22.6375 27.8088 22.5431C27.7836 22.4487 27.7095 22.3752 27.615 22.3506C27.3714 22.2787 27.108 22.3492 26.933 22.5333L26.4857 22.9813V18.7146C29.4523 18.3813 32.2857 16.2986 32.4857 12.6066C32.4857 12.5953 32.4783 12.5893 32.477 12.5786C32.4757 12.568 32.4877 12.556 32.487 12.5433C32.0437 4.3853 19.5543 4.71863 19.5177 12.7646ZM26.3177 18.4086C26.2126 18.3801 26.1024 18.3762 25.9957 18.3973C25.6652 18.3891 25.3362 18.35 25.013 18.2806C22.3707 17.6504 20.5091 15.2851 20.5177 12.5686C20.5177 9.00396 23.9223 5.98263 27.5397 7.2353C29.8936 8.06422 31.4806 10.2733 31.515 12.7686C31.3403 15.662 29.2543 18.3246 26.317 18.4086H26.3177Z" fill="#0F474A"/>
    <path d="M32.8516 19.4627C32.8629 23.4627 35.8009 25.3794 38.8776 25.3961C38.8634 25.4157 38.8545 25.4387 38.8516 25.4627C38.8516 26.6867 39.1649 28.2821 38.3329 29.2627C37.7515 29.9216 37.135 30.5487 36.4863 31.1414V30.0627C36.4863 29.6207 35.5156 29.8054 35.5156 30.1661V32.0514C35.5156 32.2181 35.6623 32.3034 35.8209 32.3034H37.7063C37.9511 32.326 38.1905 32.2219 38.3409 32.0274C38.4429 31.8314 38.2536 31.6941 38.0663 31.6941H36.7196C37.6409 30.8627 38.5175 29.983 39.3456 29.0587C40.1263 28.1187 39.8449 26.5287 39.8216 25.3474C42.7876 24.9934 45.6216 22.8914 45.8169 19.2014C45.3783 11.0527 32.8283 11.4381 32.8516 19.4627ZM43.5403 23.1294C41.9393 24.8582 39.4464 25.4369 37.2476 24.5901C35.1601 23.6063 33.8249 21.5091 33.8169 19.2014C33.8224 17.9699 34.2131 16.771 34.9343 15.7727C36.4308 13.9529 38.8882 13.2339 41.1296 13.9601C43.3595 14.8843 44.8237 17.049 44.8516 19.4627C44.8237 20.796 44.3635 22.0842 43.5403 23.1334V23.1294Z" fill="#0F474A"/>
    <path d="M6.18565 19.4333C6.16499 23.4333 9.11099 25.3726 12.201 25.4106C12.1932 25.4272 12.1875 25.4447 12.1843 25.4626C12.1843 26.672 11.8457 28.3173 12.6663 29.3026C13.4076 30.1392 14.1957 30.9329 15.027 31.68H14.2937C14.0474 31.6544 13.8062 31.7621 13.661 31.9627C13.5643 32.1627 13.7457 32.32 13.9423 32.32H15.8283C16.015 32.32 16.4903 32.2333 16.4903 31.9533V31.9213C16.4913 31.9138 16.4913 31.9062 16.4903 31.8987V30.0667C16.4903 29.6 15.517 29.7733 15.517 30.1593V30.908C14.856 30.3046 14.2282 29.6659 13.6363 28.9947C12.855 28.0733 13.1237 26.542 13.149 25.366C16.1163 25.0326 18.949 22.9533 19.149 19.2613C19.149 19.252 19.1423 19.2466 19.141 19.238C19.1397 19.2293 19.1523 19.2153 19.1517 19.2026C18.7123 11.072 6.22699 11.3886 6.18565 19.4333ZM17.359 22.384C16.203 24.3586 13.3643 25.5673 11.159 24.8126C8.77851 23.9925 7.18155 21.7511 7.18365 19.2333C7.15653 17.9948 7.53717 16.7817 8.26699 15.7806C9.77116 13.9694 12.224 13.2523 14.467 13.968C16.69 14.8878 18.1518 17.043 18.1843 19.4486C18.1559 20.4802 17.8723 21.4887 17.359 22.384Z" fill="#0F474A"/>
    <path d="M25.9423 41.2192C25.824 41.2192 25.7327 41.1344 25.6682 40.9647C25.5564 40.6692 25.3877 40.3196 25.162 39.9158L24.5914 38.8582C24.4667 38.9928 24.2733 39.1815 24.011 39.4243C23.9874 39.8778 23.9756 40.3196 23.9756 40.7496C23.9756 40.8813 23.9455 40.9881 23.8853 41.07C23.8273 41.1519 23.752 41.1929 23.6596 41.1929C23.4425 41.1929 23.334 40.9939 23.334 40.596C23.334 40.3532 23.3458 39.9904 23.3694 39.5077C23.3952 39.022 23.4081 38.6578 23.4081 38.4149C23.4081 37.9702 23.4124 37.4626 23.421 36.8921C23.4318 36.3186 23.4372 35.8125 23.4372 35.3736C23.4372 35.242 23.4318 35.0869 23.421 34.9084C23.4124 34.73 23.4081 34.5749 23.4081 34.4432C23.4081 34.3116 23.4372 34.2048 23.4952 34.1229C23.5554 34.041 23.6317 34 23.7241 34C23.8165 34 23.8917 34.041 23.9498 34.1229C24.01 34.2048 24.0401 34.3116 24.0401 34.4432C24.0401 34.5778 24.0454 34.7373 24.0562 34.9216C24.0669 35.103 24.0723 35.261 24.0723 35.3956L24.0497 36.8087C24.039 37.3178 24.0358 37.8268 24.0401 38.3359C24.3324 38.0317 24.6139 37.6981 24.8848 37.3353L25.5941 36.3391C25.665 36.2396 25.7413 36.1899 25.823 36.1899C25.9068 36.1899 25.982 36.2353 26.0487 36.326C26.1174 36.4166 26.1518 36.522 26.1518 36.6419C26.1518 36.7414 26.1207 36.8394 26.0583 36.936C25.794 37.3573 25.4683 37.8093 25.0814 38.292L25.7843 39.5955C26.1131 40.2069 26.2776 40.6048 26.2776 40.7891C26.2776 40.9062 26.2432 41.0071 26.1744 41.092C26.1078 41.1768 26.0304 41.2192 25.9423 41.2192Z" fill="#0F474A"/>
    <path d="M29.3308 37.7961C29.3157 38.1618 29.2082 38.3447 29.0083 38.3447C28.8235 38.3447 28.7311 38.1999 28.7311 37.9102C28.7311 37.8546 28.7279 37.7522 28.7214 37.603L28.7117 37.2344C28.3721 37.29 28.1002 37.4202 27.896 37.625C27.7048 37.8151 27.5457 38.1019 27.4189 38.4851L27.4253 40.8901C27.4253 41.1856 27.3189 41.3333 27.1061 41.3333C26.917 41.3333 26.8224 41.1856 26.8224 40.8901V37.8093C26.8224 37.7127 26.8246 37.5679 26.8289 37.3748C26.8353 37.1817 26.8385 37.0369 26.8385 36.9404C26.8385 36.6449 26.9331 36.4971 27.1223 36.4971C27.3329 36.4971 27.4393 36.7399 27.4415 37.2256C27.8541 36.6844 28.3119 36.4137 28.8149 36.4137C28.989 36.4137 29.119 36.503 29.205 36.6814C29.291 36.8599 29.334 37.1291 29.334 37.4889C29.334 37.6411 29.3329 37.7435 29.3308 37.7961Z" fill="#0F474A"/>
    <path d="M25.9423 15.8859C25.824 15.8859 25.7327 15.801 25.6682 15.6313C25.5564 15.3358 25.3877 14.9862 25.162 14.5824L24.5914 13.5248C24.4667 13.6594 24.2733 13.8481 24.011 14.0909C23.9874 14.5444 23.9756 14.9862 23.9756 15.4163C23.9756 15.5479 23.9455 15.6547 23.8853 15.7366C23.8273 15.8186 23.752 15.8595 23.6596 15.8595C23.4425 15.8595 23.334 15.6606 23.334 15.2627C23.334 15.0198 23.3458 14.6571 23.3694 14.1743C23.3952 13.6886 23.4081 13.3244 23.4081 13.0815C23.4081 12.6368 23.4124 12.1292 23.421 11.5587C23.4318 10.9853 23.4372 10.4791 23.4372 10.0403C23.4372 9.9086 23.4318 9.75353 23.421 9.57506C23.4124 9.39659 23.4081 9.24153 23.4081 9.10987C23.4081 8.97822 23.4372 8.87143 23.4952 8.78951C23.5554 8.70759 23.6317 8.66663 23.7241 8.66663C23.8165 8.66663 23.8917 8.70759 23.9498 8.78951C24.01 8.87143 24.0401 8.97822 24.0401 9.10987C24.0401 9.24446 24.0454 9.40391 24.0562 9.58823C24.0669 9.76962 24.0723 9.92761 24.0723 10.0622L24.0497 11.4753C24.039 11.9844 24.0358 12.4935 24.0401 13.0026C24.3324 12.6983 24.6139 12.3647 24.8848 12.002L25.5941 11.0057C25.665 10.9063 25.7413 10.8565 25.823 10.8565C25.9068 10.8565 25.982 10.9019 26.0487 10.9926C26.1174 11.0833 26.1518 11.1886 26.1518 11.3086C26.1518 11.408 26.1207 11.506 26.0583 11.6026C25.794 12.0239 25.4683 12.4759 25.0814 12.9587L25.7843 14.2621C26.1131 14.8736 26.2776 15.2715 26.2776 15.4558C26.2776 15.5728 26.2432 15.6737 26.1744 15.7586C26.1078 15.8434 26.0304 15.8859 25.9423 15.8859Z" fill="#0F474A"/>
    <path d="M29.3308 12.4628C29.3157 12.8285 29.2082 13.0113 29.0083 13.0113C28.8235 13.0113 28.7311 12.8665 28.7311 12.5769C28.7311 12.5213 28.7279 12.4189 28.7214 12.2697L28.7117 11.901C28.3721 11.9566 28.1002 12.0868 27.896 12.2916C27.7048 12.4818 27.5457 12.7685 27.4189 13.1518L27.4253 15.5567C27.4253 15.8522 27.3189 16 27.1061 16C26.917 16 26.8224 15.8522 26.8224 15.5567V12.4759C26.8224 12.3794 26.8246 12.2345 26.8289 12.0415C26.8353 11.8484 26.8385 11.7035 26.8385 11.607C26.8385 11.3115 26.9331 11.1637 27.1223 11.1637C27.3329 11.1637 27.4393 11.4066 27.4415 11.8922C27.8541 11.351 28.3119 11.0804 28.8149 11.0804C28.989 11.0804 29.119 11.1696 29.205 11.3481C29.291 11.5265 29.334 11.7957 29.334 12.1556C29.334 12.3077 29.3329 12.4101 29.3308 12.4628Z" fill="#0F474A"/>
    <path d="M39.2762 22.5526C39.158 22.5526 39.0667 22.4678 39.0022 22.2981C38.8904 22.0026 38.7217 21.6529 38.496 21.2492L37.9254 20.1915C37.8007 20.3261 37.6072 20.5148 37.345 20.7577C37.3214 21.2112 37.3096 21.6529 37.3096 22.083C37.3096 22.2147 37.2795 22.3215 37.2193 22.4034C37.1613 22.4853 37.086 22.5263 36.9936 22.5263C36.7765 22.5263 36.668 22.3273 36.668 21.9294C36.668 21.6866 36.6798 21.3238 36.7034 20.8411C36.7292 20.3554 36.7421 19.9911 36.7421 19.7483C36.7421 19.3036 36.7464 18.796 36.755 18.2255C36.7658 17.652 36.7711 17.1459 36.7711 16.707C36.7711 16.5753 36.7658 16.4203 36.755 16.2418C36.7464 16.0633 36.7421 15.9083 36.7421 15.7766C36.7421 15.645 36.7711 15.5382 36.8292 15.4563C36.8894 15.3743 36.9657 15.3334 37.0581 15.3334C37.1505 15.3334 37.2257 15.3743 37.2838 15.4563C37.3439 15.5382 37.374 15.645 37.374 15.7766C37.374 15.9112 37.3794 16.0707 37.3902 16.255C37.4009 16.4364 37.4063 16.5944 37.4063 16.7289L37.3837 18.1421C37.373 18.6511 37.3697 19.1602 37.374 19.6693C37.6664 19.365 37.9479 19.0315 38.2187 18.6687L38.928 17.6725C38.999 17.573 39.0753 17.5233 39.157 17.5233C39.2408 17.5233 39.316 17.5686 39.3826 17.6593C39.4514 17.75 39.4858 17.8553 39.4858 17.9753C39.4858 18.0748 39.4546 18.1728 39.3923 18.2693C39.1279 18.6906 38.8023 19.1427 38.4154 19.6254L39.1183 20.9288C39.4471 21.5403 39.6115 21.9382 39.6115 22.1225C39.6115 22.2396 39.5772 22.3405 39.5084 22.4253C39.4417 22.5102 39.3644 22.5526 39.2762 22.5526Z" fill="#0F474A"/>
    <path d="M42.6647 19.1295C42.6497 19.4952 42.5422 19.6781 42.3423 19.6781C42.1575 19.6781 42.0651 19.5333 42.0651 19.2436C42.0651 19.188 42.0618 19.0856 42.0554 18.9364L42.0457 18.5678C41.7061 18.6234 41.4342 18.7535 41.23 18.9583C41.0387 19.1485 40.8797 19.4352 40.7529 19.8185L40.7593 22.2235C40.7593 22.519 40.6529 22.6667 40.4401 22.6667C40.251 22.6667 40.1564 22.519 40.1564 22.2235V19.1427C40.1564 19.0461 40.1586 18.9013 40.1629 18.7082C40.1693 18.5151 40.1725 18.3703 40.1725 18.2737C40.1725 17.9782 40.2671 17.8305 40.4563 17.8305C40.6669 17.8305 40.7733 18.0733 40.7754 18.559C41.1881 18.0177 41.6459 17.7471 42.1489 17.7471C42.323 17.7471 42.453 17.8363 42.539 18.0148C42.625 18.1933 42.668 18.4624 42.668 18.8223C42.668 18.9744 42.6669 19.0768 42.6647 19.1295Z" fill="#0F474A"/>
    <path d="M12.6083 22.5526C12.4901 22.5526 12.3987 22.4678 12.3342 22.2981C12.2225 22.0026 12.0537 21.6529 11.828 21.2492L11.2574 20.1915C11.1327 20.3261 10.9393 20.5148 10.6771 20.7577C10.6534 21.2112 10.6416 21.6529 10.6416 22.083C10.6416 22.2147 10.6115 22.3215 10.5513 22.4034C10.4933 22.4853 10.4181 22.5263 10.3256 22.5263C10.1085 22.5263 10 22.3273 10 21.9294C10 21.6866 10.0118 21.3238 10.0355 20.8411C10.0613 20.3554 10.0742 19.9911 10.0742 19.7483C10.0742 19.3036 10.0785 18.796 10.087 18.2255C10.0978 17.652 10.1032 17.1459 10.1032 16.707C10.1032 16.5753 10.0978 16.4203 10.087 16.2418C10.0785 16.0633 10.0742 15.9083 10.0742 15.7766C10.0742 15.645 10.1032 15.5382 10.1612 15.4563C10.2214 15.3743 10.2977 15.3334 10.3901 15.3334C10.4825 15.3334 10.5578 15.3743 10.6158 15.4563C10.676 15.5382 10.7061 15.645 10.7061 15.7766C10.7061 15.9112 10.7114 16.0707 10.7222 16.255C10.7329 16.4364 10.7383 16.5944 10.7383 16.7289L10.7157 18.1421C10.705 18.6511 10.7018 19.1602 10.7061 19.6693C10.9984 19.365 11.28 19.0315 11.5508 18.6687L12.2601 17.6725C12.331 17.573 12.4073 17.5233 12.489 17.5233C12.5728 17.5233 12.648 17.5686 12.7147 17.6593C12.7834 17.75 12.8178 17.8553 12.8178 17.9753C12.8178 18.0748 12.7867 18.1728 12.7243 18.2693C12.46 18.6906 12.1343 19.1427 11.7474 19.6254L12.4503 20.9288C12.7792 21.5403 12.9436 21.9382 12.9436 22.1225C12.9436 22.2396 12.9092 22.3405 12.8404 22.4253C12.7738 22.5102 12.6964 22.5526 12.6083 22.5526Z" fill="#0F474A"/>
    <path d="M15.9968 19.1295C15.9817 19.4952 15.8743 19.6781 15.6744 19.6781C15.4895 19.6781 15.3971 19.5333 15.3971 19.2436C15.3971 19.188 15.3939 19.0856 15.3874 18.9364L15.3778 18.5678C15.0382 18.6234 14.7663 18.7535 14.5621 18.9583C14.3708 19.1485 14.2117 19.4352 14.0849 19.8185L14.0913 22.2235C14.0913 22.519 13.985 22.6667 13.7722 22.6667C13.583 22.6667 13.4884 22.519 13.4884 22.2235V19.1427C13.4884 19.0461 13.4906 18.9013 13.4949 18.7082C13.5013 18.5151 13.5046 18.3703 13.5046 18.2737C13.5046 17.9782 13.5991 17.8305 13.7883 17.8305C13.9989 17.8305 14.1053 18.0733 14.1075 18.559C14.5202 18.0177 14.978 17.7471 15.4809 17.7471C15.655 17.7471 15.7851 17.8363 15.871 18.0148C15.957 18.1933 16 18.4624 16 18.8223C16 18.9744 15.9989 19.0768 15.9968 19.1295Z" fill="#0F474A"/>
</svg>
