<svg width="52" height="52" viewBox="0 0 52 52" fill="none"
    xmlns="http://www.w3.org/2000/svg">
    <path d="M24.0539 34.9806C23.9054 34.9808 23.7747 34.8826 23.7334 34.7399C23.6922 34.5973 23.7503 34.4445 23.8759 34.3653L24.0159 34.2773L22.8752 34.9353C22.7186 35.0215 22.5219 34.9687 22.4294 34.8157C22.3369 34.6627 22.3815 34.464 22.5306 34.3653L23.7646 33.588L21.4312 34.9353C21.2748 35.0263 21.0743 34.9758 20.9796 34.8215C20.8849 34.6673 20.9306 34.4657 21.0826 34.3673L27.6826 30.0886L19.2832 34.9333C19.1262 35.0198 18.9288 34.9666 18.8366 34.8128C18.7443 34.659 18.7903 34.4598 18.9406 34.362L20.3526 33.4866L17.8466 34.9333C17.6901 35.0224 17.4911 34.9711 17.3972 34.8174C17.3033 34.6637 17.3485 34.4632 17.4992 34.3646L26.6012 28.52L15.4946 34.9333C15.3385 35.0158 15.1451 34.9622 15.0537 34.8112C14.9623 34.6602 15.0045 34.4641 15.1499 34.364L24.9792 28.1273L14.1426 34.384C13.986 34.4715 13.7882 34.4194 13.6951 34.2661C13.6019 34.1128 13.6468 33.9133 13.7966 33.8146L25.5966 26.2873L13.5759 33.2253C13.4193 33.3128 13.2216 33.2608 13.1284 33.1075C13.0353 32.9542 13.0801 32.7547 13.2299 32.656L25.1632 25.0093L13.5212 31.7333C13.3637 31.8204 13.1655 31.7667 13.0735 31.612C12.9815 31.4573 13.0289 31.2575 13.1806 31.1606L16.0392 29.4006L13.5212 30.85C13.3652 30.9335 13.1711 30.8806 13.0792 30.7294C12.9872 30.5782 13.0294 30.3815 13.1752 30.2813L21.4046 25.02L13.5212 29.5713C13.3652 29.6548 13.1711 29.6019 13.0792 29.4507C12.9872 29.2995 13.0294 29.1028 13.1752 29.0026L19.6012 24.8873L13.5212 28.4C13.3651 28.4872 13.1679 28.4357 13.0744 28.2831C12.981 28.1306 13.0246 27.9315 13.1732 27.832L19.2939 23.8453L13.5206 27.1786C13.3649 27.2672 13.167 27.2169 13.0726 27.0647C12.9781 26.9125 13.0208 26.7129 13.1692 26.6126L18.9499 22.752L13.5206 25.8853C13.3643 25.9712 13.1681 25.919 13.0753 25.7667C12.9825 25.6145 13.026 25.4162 13.1739 25.3166L14.2859 24.6L13.5206 25.042C13.365 25.1322 13.1658 25.0826 13.0706 24.93C12.9754 24.7774 13.0185 24.5768 13.1679 24.4766L16.1412 22.4766L13.5206 23.9886C13.3657 24.0724 13.1723 24.0212 13.0792 23.8718C12.986 23.7223 13.0252 23.5262 13.1686 23.424L14.4186 22.5846L13.5206 23.1026C13.3659 23.1855 13.1735 23.1344 13.0805 22.9856C12.9874 22.8368 13.0257 22.6414 13.1679 22.5386L13.4566 22.3433C13.3047 22.393 13.1388 22.3279 13.0613 22.1881C12.9838 22.0482 13.0165 21.8731 13.1392 21.7706L15.8012 19.5333L13.5239 20.848C13.3744 20.9349 13.1832 20.893 13.0838 20.7515C12.9843 20.61 13.0095 20.4159 13.1419 20.3046L14.0852 19.5046L13.5239 19.828C13.3856 19.9078 13.2101 19.8782 13.1055 19.7575C13.0009 19.6368 12.9966 19.4589 13.0952 19.3333L13.7792 18.486C13.63 18.4822 13.5014 18.3795 13.4647 18.2348C13.4279 18.0901 13.4919 17.9386 13.6212 17.864L14.9106 17.12C15.0495 17.0395 15.226 17.0695 15.3306 17.1913C15.4353 17.3134 15.4378 17.4929 15.3366 17.618L14.7366 18.3586L16.9752 17.0666C17.1245 16.9816 17.314 17.0239 17.4129 17.1644C17.5117 17.3049 17.4877 17.4975 17.3572 17.6093L16.4126 18.4093L18.7346 17.0666C18.8841 16.9797 19.0753 17.0217 19.1747 17.1631C19.2742 17.3046 19.2489 17.4987 19.1166 17.61L16.4579 19.8466L21.2739 17.0666C21.4286 16.9837 21.621 17.0349 21.714 17.1837C21.8071 17.3325 21.7688 17.5279 21.6266 17.6306L21.4306 17.764L22.6426 17.0666C22.7975 16.9829 22.9908 17.0341 23.084 17.1835C23.1772 17.333 23.138 17.5291 22.9946 17.6313L21.7426 18.4666L24.1779 17.0666C24.333 16.9807 24.5282 17.0313 24.6221 17.1817C24.7161 17.332 24.6758 17.5296 24.5306 17.6313L21.5579 19.6313L26.0012 17.0666C26.1575 16.9807 26.3537 17.033 26.4465 17.1852C26.5393 17.3375 26.4959 17.5358 26.3479 17.6353L25.2372 18.3493L27.4619 17.0666C27.6173 16.9795 27.8137 17.03 27.9079 17.1812C28.002 17.3324 27.9607 17.531 27.8139 17.632L22.0339 21.4926L29.7006 17.0666C29.8562 16.9831 30.05 17.0355 30.1424 17.1861C30.2347 17.3366 30.1936 17.5331 30.0486 17.634L23.9286 21.6213L31.8179 17.0666C31.9739 16.9831 32.168 17.0361 32.26 17.1872C32.352 17.3384 32.3098 17.5351 32.1639 17.6353L25.7406 21.7486L33.8512 17.0666C34.0075 16.9807 34.2037 17.033 34.2965 17.1852C34.3893 17.3375 34.3459 17.5358 34.1979 17.6353L25.9632 22.902L36.0679 17.0666C36.2248 16.984 36.419 17.0386 36.5097 17.191C36.6005 17.3433 36.556 17.5401 36.4086 17.6386L33.5539 19.3966L37.2939 17.238C37.4502 17.152 37.6464 17.2043 37.7392 17.3565C37.832 17.5088 37.7885 17.7071 37.6406 17.8066L25.7119 25.4486L38.2739 18.196C38.4305 18.1085 38.6283 18.1605 38.7214 18.3138C38.8146 18.4671 38.7697 18.6666 38.6199 18.7653L26.8199 26.2986L38.4866 19.5653C38.6427 19.4828 38.836 19.5364 38.9275 19.6874C39.0189 19.8384 38.9767 20.0346 38.8312 20.1346L29.0012 26.364L38.4813 20.8926C38.6375 20.8067 38.8337 20.859 38.9265 21.0112C39.0193 21.1635 38.9759 21.3618 38.8279 21.4613L29.7212 27.31L38.4813 22.2526C38.6381 22.1689 38.833 22.2229 38.9243 22.3755C39.0156 22.528 38.9711 22.7253 38.8232 22.824L37.4152 23.6973L38.4819 23.082C38.639 22.9859 38.8442 23.0353 38.9403 23.1923C39.0363 23.3493 38.9869 23.5545 38.8299 23.6506L32.2299 27.9306L38.4813 24.3213C38.6383 24.2333 38.8367 24.2859 38.9297 24.44C39.0226 24.5942 38.9764 24.7942 38.8252 24.892L37.5939 25.6666L38.4819 25.154C38.6389 25.066 38.8374 25.1186 38.9303 25.2727C39.0232 25.4268 38.977 25.6269 38.8259 25.7246L38.5413 25.904C38.6999 25.8496 38.8744 25.9216 38.9484 26.0721C39.0225 26.2226 38.9732 26.4048 38.8333 26.4973L34.9259 29.0973L38.4819 27.0446C38.6361 26.9557 38.833 27.0037 38.9291 27.1535C39.0251 27.3034 38.9865 27.5023 38.8412 27.6053L34.3812 30.764L38.4819 28.3973C38.634 28.3124 38.8259 28.359 38.9222 28.5042C39.0184 28.6494 38.9867 28.8442 38.8492 28.9513L35.2493 31.6753L38.4826 29.8086C38.6326 29.7247 38.8219 29.7686 38.9196 29.91C39.0174 30.0514 38.9915 30.244 38.8599 30.3546L36.4679 32.312L38.4792 31.1513C38.6259 31.0716 38.8089 31.1127 38.9074 31.2475C39.006 31.3822 38.9896 31.569 38.8692 31.6846L37.6592 32.7753L38.4792 32.3026C38.6244 32.22 38.8084 32.2576 38.9095 32.3906C39.0106 32.5235 38.9977 32.7108 38.8792 32.8286L38.4419 33.2593C38.5801 33.283 38.6887 33.3906 38.7137 33.5286C38.7386 33.6666 38.6745 33.8055 38.5532 33.876L36.7259 34.9333C36.5807 35.016 36.3968 34.9784 36.2957 34.8454C36.1945 34.7124 36.2075 34.5251 36.3259 34.4073L36.5472 34.19L35.2586 34.9333C35.1119 35.013 34.9289 34.9719 34.8304 34.8372C34.7319 34.7024 34.7482 34.5156 34.8686 34.4L36.0779 33.3093L33.2606 34.9333C33.1105 35.0187 32.92 34.9754 32.8216 34.8333C32.7233 34.6913 32.7498 34.4977 32.8826 34.3873L35.2719 32.43L30.9346 34.9333C30.7825 35.0182 30.5906 34.9716 30.4943 34.8264C30.3981 34.6812 30.4298 34.4864 30.5672 34.3793L34.1672 31.656L28.4899 34.9333C28.3361 35.019 28.1422 34.9703 28.0472 34.8221C27.9521 34.674 27.9886 34.4774 28.1306 34.3733L32.5906 31.2146L26.1472 34.9333C25.9919 35.0204 25.7954 34.97 25.7013 34.8187C25.6071 34.6675 25.6485 34.469 25.7952 34.368L29.7046 31.768L24.2206 34.9333C24.1702 34.9635 24.1127 34.9798 24.0539 34.9806Z" fill="#FFC306"/>
    <path d="M34.2612 32.2619C34.1284 32.2623 34.008 32.1837 33.9548 32.0619C33.9017 31.9402 33.9259 31.7984 34.0166 31.7013L34.2092 31.4946L33.2759 32.0319C33.129 32.1149 32.9433 32.075 32.8434 31.9391C32.7435 31.8032 32.7609 31.614 32.8839 31.4986L33.3579 31.0653L32.6286 31.4859C32.4843 31.5644 32.3043 31.526 32.2046 31.3955C32.1048 31.265 32.115 31.0813 32.2286 30.9626L33.1986 29.9839L32.2392 30.5373C32.1014 30.6175 31.9261 30.5888 31.821 30.4689C31.7158 30.349 31.7104 30.1714 31.8079 30.0453L32.4986 29.1486C32.3645 29.1667 32.2328 29.1019 32.1652 28.9846C32.0732 28.8252 32.1278 28.6213 32.2872 28.5293L33.5786 27.7839C33.7162 27.7044 33.8909 27.7332 33.9958 27.8527C34.1006 27.9722 34.1066 28.1491 34.0099 28.2753L33.3606 29.1186L35.0146 28.1639C35.1587 28.0865 35.3377 28.125 35.4371 28.2549C35.5366 28.3849 35.527 28.5678 35.4146 28.6866L34.4492 29.6666L35.6639 28.9653C35.8108 28.8823 35.9965 28.9222 36.0964 29.0581C36.1963 29.194 36.1789 29.3832 36.0559 29.4986L35.5826 29.9313L35.7952 29.8093C35.938 29.7265 36.12 29.7607 36.223 29.8897C36.326 30.0187 36.319 30.2037 36.2066 30.3246L35.6872 30.8826C35.7492 30.9108 35.8011 30.9573 35.8359 31.0159C35.9279 31.1754 35.8733 31.3792 35.7139 31.4713L34.4279 32.2139C34.3777 32.2447 34.3201 32.2612 34.2612 32.2619Z" fill="#F49100"/>
    <path d="M14.8 24.3333C14.668 24.3332 14.5485 24.2552 14.4952 24.1344C14.442 24.0136 14.465 23.8728 14.554 23.7753L15.5213 22.7139L13.5213 23.8693C13.3819 23.9484 13.206 23.9171 13.1024 23.7948C12.9988 23.6724 12.997 23.4937 13.098 23.3693L13.7647 22.5626L13.5247 22.7006C13.4057 22.7689 13.257 22.7573 13.1501 22.6714C13.0431 22.5855 12.9997 22.4428 13.0407 22.3119L13.19 21.8353C13.1403 21.8055 13.099 21.7635 13.07 21.7133C12.9783 21.5542 13.0326 21.3509 13.1913 21.2586L13.5247 21.0659C13.6437 20.9972 13.7927 21.0086 13.8999 21.0946C14.0071 21.1805 14.0506 21.3235 14.0093 21.4546L13.934 21.6946L15.02 21.0666C15.1594 20.9866 15.3361 21.0176 15.4401 21.1402C15.544 21.2628 15.5457 21.4421 15.444 21.5666L14.7773 22.3746L17.044 21.0653C17.1862 20.9844 17.366 21.0185 17.4686 21.146C17.5711 21.2734 17.5661 21.4564 17.4567 21.5779L16.4893 22.6393L19.2227 21.0633C19.3725 20.9796 19.5613 21.0234 19.6591 21.1644C19.7568 21.3055 19.7316 21.4977 19.6007 21.6086L19.4907 21.6999L20.5953 21.0626C20.7434 20.9782 20.9313 21.0191 21.0309 21.1574C21.1305 21.2958 21.1097 21.4869 20.9827 21.6006L20.464 22.0599L22.1973 21.0599C22.3404 20.9781 22.5218 21.013 22.6242 21.1422C22.7266 21.2714 22.7191 21.4561 22.6067 21.5766L21.6667 22.5766L24.2967 21.0586C24.4429 20.9691 24.6332 21.0052 24.7366 21.142C24.84 21.2788 24.8227 21.4717 24.6967 21.5879L23.92 22.3239L26.12 21.0573C26.2581 20.9781 26.4328 21.0075 26.5373 21.1276C26.6418 21.2476 26.6468 21.4248 26.5493 21.5506L25.5333 22.8473L28.6413 21.0526C28.7842 20.9698 28.9661 21.004 29.0691 21.133C29.1721 21.262 29.1651 21.447 29.0527 21.5679L28.098 22.5999L30.7847 21.0493C30.9217 20.97 31.0955 20.998 31.2007 21.1163C31.3059 21.2345 31.3134 21.4105 31.2187 21.5373L30.2107 22.8899L33.4 21.0486C33.5399 20.9688 33.7167 21.0004 33.8203 21.1237C33.9239 21.2469 33.9246 21.4266 33.822 21.5506L32.814 22.7606L35.782 21.0466C35.9197 20.9671 36.0943 20.9959 36.1992 21.1154C36.3041 21.2348 36.31 21.4117 36.2133 21.5379L35.202 22.8626L38.3507 21.0446C38.4923 20.9636 38.6716 20.997 38.7746 21.1235C38.8776 21.2499 38.874 21.4324 38.766 21.5546L37.7833 22.6593L38.4867 22.2533C38.6242 22.1744 38.7982 22.2033 38.9028 22.3224C39.0075 22.4414 39.0138 22.6177 38.918 22.7439L38.7133 23.0106C38.8125 23.0257 38.8992 23.0854 38.9487 23.1726C39.0403 23.3319 38.9857 23.5352 38.8267 23.6273L37.7173 24.2679C37.5799 24.346 37.4065 24.3168 37.3022 24.198C37.1979 24.0792 37.1914 23.9034 37.2867 23.7773L37.372 23.6653L36.326 24.2686C36.1846 24.3487 36.0061 24.3152 35.9034 24.1892C35.8007 24.0633 35.8038 23.8816 35.9107 23.7593L36.894 22.6539L34.094 24.2706C33.9565 24.3502 33.7819 24.3216 33.6768 24.2024C33.5718 24.0831 33.5656 23.9063 33.662 23.7799L34.674 22.4553L31.5267 24.2739C31.3868 24.3545 31.2093 24.3233 31.1053 24.1998C31.0013 24.0763 31.0008 23.896 31.104 23.7719L32.1127 22.5626L29.1447 24.2759C29.0078 24.3553 28.834 24.3276 28.7287 24.2095C28.6233 24.0914 28.6155 23.9155 28.71 23.7886L29.718 22.4359L26.5273 24.2779C26.3847 24.3598 26.2037 24.3254 26.1011 24.1969C25.9984 24.0685 26.0047 23.8843 26.116 23.7633L27.072 22.7293L24.386 24.2799C24.248 24.3591 24.0732 24.3297 23.9687 24.2096C23.8642 24.0896 23.8592 23.9124 23.9567 23.7866L24.97 22.4873L21.862 24.2819C21.7157 24.3714 21.5255 24.3354 21.4221 24.1986C21.3187 24.0618 21.336 23.8689 21.462 23.7526L22.2333 23.0139L20.0333 24.2806C19.89 24.3645 19.7068 24.3301 19.6037 24.2C19.5005 24.0698 19.5089 23.8836 19.6233 23.7633L20.564 22.7633L17.9333 24.2819C17.7853 24.3663 17.5974 24.3254 17.4978 24.1871C17.3982 24.0488 17.419 23.8576 17.546 23.7439L18.0647 23.2846L16.3313 24.2846C16.1811 24.3716 15.9893 24.3288 15.8904 24.1861C15.7915 24.0435 15.8186 23.8488 15.9527 23.7386L16.0627 23.6479L14.9587 24.2853C14.9108 24.3147 14.8561 24.3312 14.8 24.3333Z" fill="#49505B"/>
    <path d="M29.9181 32.1633C29.7864 32.1633 29.667 32.0857 29.6136 31.9653C29.5601 31.845 29.5825 31.7044 29.6707 31.6066L30.7341 30.43L29.1874 31.322C29.0453 31.4029 28.8654 31.3687 28.7629 31.2413C28.6603 31.1139 28.6653 30.9309 28.7747 30.8093L29.8614 29.618L28.8761 30.1866C28.7333 30.2685 28.5522 30.2339 28.4496 30.1052C28.347 29.9765 28.3538 29.7922 28.4654 29.6713L28.9807 29.1186C28.8682 29.066 28.7943 28.9551 28.7889 28.831C28.7836 28.7068 28.8478 28.5901 28.9554 28.528L30.2467 27.7826C30.3895 27.7017 30.5698 27.7367 30.672 27.8651C30.7741 27.9935 30.7676 28.1771 30.6567 28.298L30.4741 28.4946L31.3901 27.966C31.5324 27.8841 31.7131 27.9181 31.816 28.0461C31.9189 28.1741 31.9132 28.3579 31.8027 28.4793L30.7167 29.67L32.2301 28.796C32.3721 28.7141 32.5526 28.7477 32.6557 28.8752C32.7587 29.0027 32.7538 29.1862 32.6441 29.308L31.5827 30.4846L32.4227 30C32.581 29.9172 32.7764 29.9739 32.8658 30.1285C32.9552 30.2832 32.9068 30.4808 32.7561 30.5766L30.0847 32.12C30.0341 32.1491 29.9765 32.1641 29.9181 32.1633Z" fill="#EE3A48"/>
    <path d="M32.4603 28.3565C31.095 27.1138 28.1776 27.8018 28.1816 30.0898C28.1856 32.3625 30.823 32.7785 32.255 31.6652C33.7156 32.8652 36.4723 31.9945 36.481 29.8998C36.4903 27.7052 33.933 27.3245 32.4603 28.3565ZM30.6256 31.6752C29.7672 31.5313 29.1434 30.7808 29.159 29.9105C29.1276 29.4638 29.302 29.0273 29.6326 28.7252C29.9631 28.4231 30.4136 28.2885 30.8556 28.3598C31.6289 28.5721 32.1671 29.272 32.1736 30.0738C32.1216 30.9132 31.5796 31.7785 30.6256 31.6752ZM34.8023 31.5645C34.0736 32.0512 33.2943 31.5645 32.8403 30.9958C33.0268 30.6778 33.1338 30.3194 33.1523 29.9512C33.1523 29.9325 33.1436 29.9212 33.141 29.9052C33.1446 29.8939 33.1473 29.8823 33.149 29.8705C33.1335 29.498 33.0263 29.135 32.837 28.8138C33.8783 27.5432 35.5036 28.7418 35.5036 30.1005C35.5202 30.6738 35.2578 31.2195 34.7996 31.5645H34.8023Z" fill="#0F474A"/>
    <path d="M39.153 19.3192C38.7797 16.8832 36.8257 17.0525 34.8864 17.0525H23.5457C20.9457 17.0525 18.179 16.7805 15.589 17.0525C13.151 17.3085 12.8517 18.8999 12.8517 21.0065V21.3579C12.8517 21.3619 12.847 21.3659 12.847 21.3705V22.3085C12.8317 25.4512 12.7744 28.5999 12.853 31.7392C12.9064 33.8459 13.6164 34.8225 15.7977 34.9525C22.643 35.3619 29.6257 34.9525 36.485 34.9525C36.5248 34.9506 36.5641 34.9441 36.6024 34.9332C36.6471 34.9333 36.6917 34.9296 36.7357 34.9219C39.7164 34.3219 39.1517 31.5599 39.1517 29.1545C39.153 25.9999 39.631 22.4399 39.153 19.3192ZM13.6257 21.7472C13.7977 21.7845 14.2257 21.6945 14.6517 21.6945H36.1624C36.8408 21.611 37.5251 21.5867 38.2077 21.6219C38.1617 21.7629 38.1518 21.9133 38.179 22.0592C38.2145 22.585 38.217 23.1125 38.1864 23.6385H15.8424C15.1305 23.7371 14.4094 23.7503 13.6944 23.6779C14.105 23.7145 13.7657 22.2285 13.6257 21.7472ZM13.8197 19.3825C14.5177 16.8799 17.3164 17.6165 19.267 17.6165H28.7804C30.9224 17.6165 33.991 17.0412 36.0637 17.6165C37.677 18.0645 38.1764 19.4272 38.291 20.9719H13.5824C13.6057 20.4352 13.6852 19.9025 13.8197 19.3825ZM36.709 34.3825H22.269C20.3217 34.3825 17.5804 34.9012 15.693 34.3825C12.8604 33.6039 13.8177 29.0285 13.8177 26.9372C13.8177 26.1659 13.745 25.2785 13.6757 24.3605H38.2064C38.1944 24.6045 38.185 24.8419 38.185 25.0612C38.185 26.7605 39.3257 33.6612 36.709 34.3832V34.3825Z" fill="#0F474A"/>
    <path d="M16.7156 30.9919H16.0489C15.8456 30.9919 15.5396 31.1493 15.5156 31.3733C15.4876 31.6233 15.7762 31.6746 15.9582 31.6746H16.6249C16.8282 31.6746 17.1342 31.5173 17.1582 31.2933C17.1862 31.0433 16.8976 30.9919 16.7156 30.9919Z" fill="#0F474A"/>
    <path d="M23.3758 28.3026H16.0424C15.4838 28.3026 15.3091 29.0306 15.9624 29.0306H23.2958C23.8544 29.0306 24.0304 28.3026 23.3758 28.3026Z" fill="#0F474A"/>
    <path d="M20.0477 30.9927H19.381C19.181 30.9927 18.8717 31.15 18.8477 31.374C18.819 31.6233 19.1077 31.674 19.289 31.674H19.9557C20.1557 31.674 20.465 31.5167 20.489 31.2927C20.5177 31.0433 20.229 30.9927 20.0477 30.9927Z" fill="#0F474A"/>
    <path d="M23.5384 31.1206H22.8717C22.634 31.1131 22.4027 31.1988 22.2271 31.3592C22.1084 31.5339 22.3311 31.5459 22.4624 31.5459H23.1291C23.3668 31.5533 23.5981 31.4677 23.7737 31.3072C23.8924 31.1332 23.6671 31.1206 23.5384 31.1206Z" fill="#0F474A"/>
    <path d="M35.8903 8.93327C28.2676 4.61927 18.8676 6.10461 12.4836 11.7946V7.82327C12.4836 7.65727 11.5183 7.79661 11.5183 8.08194V12.7959C11.5183 12.8286 11.5643 12.8466 11.6096 12.8573C11.7646 12.9051 11.9298 12.9092 12.087 12.8693H16.401C16.6136 12.8693 17.4963 12.4639 17.025 12.4639H13.1183C12.9743 12.4639 12.8243 12.4559 12.6783 12.4639C16.4447 8.78435 21.5725 6.83831 26.8318 7.09265C32.0911 7.34699 37.0073 9.77876 40.401 13.8046C44.9068 19.2828 45.9707 26.6463 43.5269 33.022C42.8989 34.6604 42.0393 36.2335 40.947 37.6926C37.8192 41.7131 33.1978 44.2971 28.1347 44.8564C23.0716 45.4158 17.9976 43.9028 14.0676 40.6619C6.7603 34.5693 5.24964 24.1653 9.89964 16.0053C10.1183 15.6219 9.15564 15.7266 9.00297 15.9946C4.7543 23.4506 5.40564 32.7999 11.2776 39.2259C16.5357 44.8628 24.5653 46.976 31.917 44.6579C47.8896 39.6273 50.6723 17.2899 35.8903 8.93327Z" fill="#0F474A"/>
    <path d="M37.696 45.7064C37.5809 45.7064 37.4792 45.6312 37.4456 45.5211C37.4121 45.4109 37.4544 45.2918 37.55 45.2275L37.6615 45.1527L36.8319 45.6316C36.7115 45.7001 36.5586 45.6629 36.4831 45.5467C36.4076 45.4306 36.4357 45.2757 36.5472 45.1935L40.3333 42.4432L35.334 45.3296C35.2125 45.3962 35.0601 45.3565 34.9865 45.2391C34.9129 45.1216 34.9437 44.9671 35.0567 44.8868L38.3309 42.6761L34.3742 44.9601C34.2528 45.0286 34.0989 44.99 34.0244 44.8721C33.9498 44.7543 33.36 44.1815 33.474 44.1011L39.0557 41.1039L33.3662 44.3917C33.2446 44.4575 33.0928 44.4173 33.0196 44.3C32.9465 44.1826 32.9772 44.0287 33.0898 43.9484L33.2358 43.7673H32.6083C32.4855 43.8388 32.3281 43.7991 32.2538 43.678C32.1794 43.5569 32.2153 43.3986 32.3346 43.3214L34.5857 41.5414L32.0808 43.2251C31.9571 43.3 31.7961 43.2604 31.7212 43.1367C31.6464 43.013 31.686 42.852 31.8097 42.7771L33.0966 41.9633L31.7029 42.7693C31.5807 42.8388 31.4253 42.7993 31.3512 42.6798C31.277 42.5603 31.3105 42.4036 31.4271 42.3249L34.0244 40.3413L31.1989 41.9894C31.0752 42.0642 30.9143 42.0244 30.8396 41.9007C30.7649 41.777 30.8046 41.6162 30.9283 41.5414L32.3032 40.6721L30.9178 41.4713C30.7951 41.5378 30.6418 41.4963 30.5694 41.3769C30.497 41.2576 30.531 41.1024 30.6467 41.0243L32.5649 39.8044L30.6808 40.8904C30.557 40.9651 30.3962 40.9254 30.3215 40.8017C30.2467 40.6779 30.2865 40.5171 30.4102 40.4424L31.2204 39.9326L30.5122 40.3413C30.3896 40.4099 30.2348 40.3694 30.1615 40.2496C30.0881 40.1299 30.1223 39.9736 30.239 39.8954L33.3526 37.8778L30.3395 39.617C30.2172 39.6854 30.0628 39.6453 29.9891 39.5261C29.9155 39.4069 29.9488 39.2509 30.0647 39.1721L33.7592 36.7406L30.2526 38.7644C30.1314 38.8322 29.9784 38.7934 29.904 38.6762C29.8296 38.559 29.8598 38.4041 29.9726 38.3232L31.9217 36.6003L30.2971 37.5696C30.1747 37.636 30.0217 37.5949 29.949 37.4761C29.8764 37.3573 29.9095 37.2024 30.0244 37.1237L30.8367 36.6003L30.3809 36.862C30.2584 36.9347 30.1002 36.8962 30.025 36.7752C29.9498 36.6542 29.9851 36.4953 30.1045 36.4176L31.9217 35.2034L30.6713 35.9252C30.5523 35.9918 30.4021 35.9558 30.3261 35.8425C30.2502 35.7292 30.274 35.5766 30.3809 35.4918L32.3346 33.5488L31.5213 34.2331C31.4019 34.2997 31.2512 34.2632 31.1757 34.1492C31.1001 34.0352 31.125 33.8822 31.2329 33.7982L32.5351 32.8101C32.5095 32.7895 32.488 32.7643 32.4717 32.7357C32.3994 32.6107 32.442 32.4507 32.567 32.3783L34.8243 31.0756C34.9439 31.006 35.097 31.0416 35.1737 31.1568C35.2504 31.272 35.2241 31.427 35.1137 31.5105L34.8661 31.6979L36.6074 30.6925C36.7268 30.6225 36.8801 30.6575 36.9571 30.7724C37.0342 30.8874 37.0085 31.0425 36.8984 31.1264L37.3157 31.0039L38.5748 30.7574C38.697 30.6879 38.8523 30.7274 38.9265 30.8468C39.0006 30.9663 38.9671 31.123 38.8506 31.2017L38.6711 31.4503L39.4791 31.0039C39.6024 30.9285 39.7635 30.9672 39.839 31.0905C39.9144 31.2138 39.8756 31.3749 39.7523 31.4503L38.9348 31.9795L40.2003 31.2467C40.3219 31.176 40.4777 31.214 40.553 31.3328C40.6283 31.4516 40.5962 31.6087 40.4803 31.6885L39.4179 32.4178L41.2455 31.813C41.3681 31.7434 41.5238 31.7833 41.5977 31.9033C41.6716 32.0234 41.6371 32.1804 41.5198 32.2584L39.839 33.2638L41.9107 32.3312C42.034 32.2557 42.1951 32.2945 42.2705 32.4178C42.346 32.5411 42.3072 32.7022 42.1839 32.7776L39.0709 34.7973L42.4838 32.8252C42.6066 32.7596 42.7593 32.8016 42.8312 32.9208C42.9031 33.04 42.8691 33.1947 42.7539 33.2727L41.9463 33.7825L42.8455 33.2638C42.9684 33.1951 43.1236 33.236 43.1968 33.3563C43.2699 33.4767 43.2347 33.6333 43.1171 33.7108L43.5169 33.5488L43.2464 33.7485C43.3264 33.7001 43.4261 33.6982 43.508 33.7433C43.5899 33.7884 43.6414 33.8738 43.6433 33.9673C43.6451 34.0608 43.597 34.1481 43.5169 34.1965L42.1447 35.0653L43.5483 34.2551C43.6706 34.1856 43.8259 34.2251 43.9001 34.3445C43.9742 34.464 43.9407 34.6207 43.8242 34.6994L42.2705 35.4918L43.8141 34.5652C43.9371 34.4975 44.268 35.0427 44.3406 35.1628C44.4132 35.2829 44.3782 35.4389 44.2612 35.5164L42.9752 36.3318L44.1722 35.641C44.2945 35.5736 44.4483 35.6142 44.5214 35.7332C44.5945 35.8522 44.5613 36.0076 44.4459 36.0863L42.9752 37.1237L44.3957 36.359C44.5173 36.2933 44.6691 36.3335 44.7422 36.4508C44.8154 36.5681 44.7846 36.7221 44.672 36.8023L41.9463 39.1721L44.5171 37.3477C44.6389 37.2755 44.7961 37.3133 44.8717 37.433C44.9474 37.5527 44.9141 37.7109 44.7966 37.7899L39.835 41.2044L44.5202 38.4996C44.6418 38.433 44.7942 38.4727 44.8678 38.5901C44.9414 38.7076 44.9106 38.8621 44.7976 38.9424L41.5266 41.151L44.4051 39.4898C44.5255 39.4213 44.6784 39.4585 44.7539 39.5747C44.8294 39.6908 44.8013 39.8457 44.6898 39.9279L40.9027 42.6777L43.9194 40.9375C44.0416 40.8667 44.1979 40.9056 44.2727 41.0254C44.3474 41.1452 44.3136 41.3027 44.1963 41.3813L43.5782 41.8C43.6881 41.8061 43.7824 41.8804 43.8141 41.9858C43.8459 42.0912 43.8082 42.2052 43.72 42.271L42.6869 43.0257C42.7514 43.0444 42.8061 43.0876 42.8392 43.1461C42.9112 43.271 42.8686 43.4306 42.7439 43.503L39.4179 45.4233C39.2976 45.4928 39.1439 45.4561 39.0679 45.3398C38.9919 45.2234 39.0201 45.068 39.1321 44.9857L39.5665 44.667L37.8269 45.6714C37.7871 45.6945 37.742 45.7066 37.696 45.7064Z" fill="#EE3A48"/>
    <path d="M34.4839 34.9336L37.5308 38.5892L34.4814 42.2478C34.2574 42.5174 35.1482 42.4311 35.3158 42.2303C36.1915 41.1803 37.0673 40.1305 37.943 39.0808L40.7422 42.4399C41.0087 42.7595 41.8682 42.3961 41.5717 42.0383L38.5247 38.3827L41.5742 34.7241C41.7981 34.4545 40.9074 34.5408 40.7397 34.7416C39.864 35.7916 38.9893 36.8414 38.1157 37.8911L35.3164 34.532C35.0468 34.2124 34.1855 34.5758 34.4839 34.9336Z" fill="#0F474A"/>
    <path d="M29.9785 38.2092C29.9785 48.3614 45.2404 48.0233 45.7397 38.1334C45.2335 28.1121 29.9762 28.1913 29.9785 38.2092ZM37.2456 45.3121C33.6048 44.8718 30.8547 41.8005 30.8176 38.1334C30.7981 34.264 33.8933 31.0981 37.7621 31.0299C41.8192 30.9398 44.7072 34.3834 44.9006 38.2092C44.6963 42.2531 41.5862 45.7557 37.2456 45.3121Z" fill="#0F474A"/>
</svg>
