<svg width="52" height="52" viewBox="0 0 52 52" fill="none"
    xmlns="http://www.w3.org/2000/svg">
    <path d="M22.5419 28.276C22.3952 28.2761 22.2663 28.1786 22.2263 28.0374C22.1864 27.8962 22.2451 27.7456 22.3701 27.6688L25.3479 25.8327L21.1911 28.2294C21.0371 28.3142 20.8436 28.2623 20.7526 28.1118C20.6616 27.9613 20.7055 27.7659 20.8521 27.6688L29.8397 22.0157L19.0757 28.2294C18.9215 28.3118 18.7297 28.2587 18.6399 28.1086C18.5501 27.9586 18.5939 27.7645 18.7393 27.6675L27.2777 22.3619L17.1144 28.2294C16.9606 28.3117 16.7693 28.259 16.6792 28.1097C16.589 27.9603 16.6316 27.7666 16.776 27.6688L30.5642 18.9606L14.5059 28.2294C14.3512 28.311 14.1596 28.2568 14.0707 28.1062C13.9817 27.9556 14.0266 27.7616 14.1728 27.6655L14.8285 27.2721L13.1656 28.2294C13.0111 28.3145 12.8169 28.2621 12.7262 28.1109C12.6355 27.9596 12.6807 27.7637 12.8285 27.6675L27.4515 18.573L10.7374 28.2294C10.582 28.318 10.3843 28.2657 10.293 28.1118C10.2018 27.958 10.2507 27.7594 10.4029 27.6655L20.5013 21.5094L9.75572 27.7114C9.60072 27.7957 9.4068 27.7422 9.31693 27.5904C9.22706 27.4385 9.27347 27.2428 9.42195 27.1475L17.6836 22.1311L9.46064 26.8786C9.30607 26.9624 9.1129 26.9094 9.0228 26.7584C8.9327 26.6074 8.97775 26.4122 9.1249 26.316L22.6115 17.9671L9.46064 25.5593C9.30607 25.6431 9.1129 25.5901 9.0228 25.4391C8.9327 25.2881 8.97775 25.0929 9.1249 24.9967L19.9446 18.3121L9.46064 24.3658C9.3057 24.4515 9.11074 24.3987 9.02022 24.2465C8.92971 24.0944 8.97634 23.8978 9.12556 23.8026L17.1793 18.8432L9.46064 23.299C9.30621 23.3855 9.11097 23.3338 9.01958 23.1822C8.92819 23.0306 8.97365 22.8338 9.12228 22.7376L19.9695 15.9127L9.46064 21.9796C9.3064 22.062 9.11466 22.0088 9.02485 21.8588C8.93505 21.7088 8.97878 21.5147 9.12425 21.4176L15.6908 17.3344L9.4613 20.9317C9.30691 21.02 9.11034 20.969 9.0182 20.817C8.92606 20.6649 8.97194 20.4671 9.12162 20.3711L17.9229 14.7612L9.46392 19.6465C9.30997 19.7341 9.11425 19.6836 9.02192 19.5325C8.92958 19.3813 8.97402 19.1841 9.12228 19.0871L17.1334 13.9147L9.46064 18.3449C9.30703 18.4307 9.11307 18.38 9.02115 18.2299C8.92922 18.0799 8.97212 17.884 9.11834 17.7862L15.5636 13.6065L9.46064 17.1285C9.30816 17.2142 9.11522 17.1651 9.02223 17.017C8.92923 16.8688 8.96893 16.6737 9.11244 16.5737L16.2842 11.6878L9.46064 15.6268C9.3078 15.7125 9.1146 15.6629 9.02199 15.5141C8.92938 15.3654 8.97008 15.1701 9.11441 15.0708L13.5046 12.1199L9.46064 14.4589C9.30928 14.5421 9.11939 14.4936 9.02646 14.348C8.93353 14.2025 8.96941 14.0098 9.10851 13.9075L13.298 10.9619L9.46064 13.1737C9.31152 13.2572 9.12326 13.2122 9.0281 13.0702C8.93294 12.9282 8.9628 12.737 9.09671 12.6308L12.8416 9.74551L9.46064 11.695C9.31097 11.7815 9.11989 11.7369 9.02394 11.5931C8.92798 11.4494 8.96011 11.2558 9.09736 11.1508L10.9164 9.75141L9.46064 10.5901C9.31481 10.6734 9.12965 10.633 9.03172 10.4966C8.9338 10.3601 8.95478 10.1718 9.08031 10.0603L10.3682 8.92321L9.45998 9.4478C9.33104 9.52124 9.16884 9.49892 9.06452 9.39338C8.96021 9.28784 8.93979 9.12539 9.01474 8.99731L9.64818 7.916C9.49085 8.00126 9.29422 7.94463 9.20635 7.78875C9.11847 7.63286 9.17182 7.43531 9.32621 7.34485L10.3918 6.72846C10.5207 6.6536 10.6839 6.67511 10.789 6.78082C10.8941 6.88653 10.9146 7.04983 10.839 7.17829L10.2049 8.25961L12.8738 6.72124C13.0194 6.63823 13.2042 6.67847 13.3022 6.81453C13.4001 6.95059 13.3797 7.13863 13.2547 7.25043L11.9656 8.38682L14.8547 6.72124C15.0042 6.63546 15.1945 6.68 15.2904 6.8232C15.3863 6.96639 15.3549 7.15936 15.2187 7.26485L13.4016 8.66288L16.7682 6.72124C16.9173 6.63774 17.1056 6.68279 17.2007 6.82476C17.2959 6.96673 17.266 7.15799 17.1321 7.2642L13.3892 10.1494L19.3301 6.72124C19.4815 6.63811 19.6714 6.68663 19.7643 6.83217C19.8573 6.97771 19.8214 7.17039 19.6823 7.27272L15.4934 10.217L21.5518 6.72124C21.7042 6.63885 21.8943 6.68921 21.986 6.83621C22.0776 6.9832 22.0391 7.17612 21.898 7.27665L17.5085 10.2275L23.578 6.72124C23.73 6.63866 23.9201 6.68841 24.0121 6.8349C24.1042 6.98139 24.0666 7.17419 23.9262 7.27534L16.7524 12.1639L26.1793 6.72124C26.3332 6.63175 26.5304 6.68142 26.6236 6.83315C26.7167 6.98488 26.6717 7.18321 26.5223 7.27993L20.0797 11.457L28.2862 6.72124C28.4398 6.63542 28.6338 6.68615 28.7257 6.83618C28.8176 6.98622 28.7747 7.18206 28.6285 7.27993L20.6115 12.4517L30.5406 6.72124C30.6944 6.63792 30.8865 6.68994 30.9772 6.83947C31.0679 6.989 31.0253 7.18339 30.8803 7.28124L22.0797 12.8891L32.7662 6.72124C32.9207 6.63615 33.1148 6.68854 33.2056 6.8398C33.2963 6.99106 33.2511 7.18698 33.1033 7.28321L26.5321 11.3671L34.5826 6.72124C34.7364 6.63902 34.9277 6.69165 35.0179 6.841C35.108 6.99034 35.0654 7.18411 34.921 7.2819L24.0738 14.1049L36.8672 6.72124C37.0218 6.63743 37.2149 6.69047 37.305 6.84146C37.3951 6.99245 37.3501 7.18763 37.2029 7.28387L29.1459 12.2432L38.7157 6.72124C38.8703 6.63743 39.0635 6.69047 39.1536 6.84146C39.2437 6.99245 39.1986 7.18763 39.0515 7.28387L28.2318 13.9665L40.7826 6.72124C40.9368 6.63887 41.1286 6.69202 41.2184 6.84205C41.3082 6.99208 41.2645 7.18619 41.119 7.28321L27.6318 15.6308L43.0672 6.72124C43.2226 6.63269 43.4203 6.68503 43.5115 6.83887C43.6028 6.99272 43.5539 7.19129 43.4016 7.28518L35.1367 12.3016L44.0967 7.12846C44.2511 7.04812 44.4414 7.10243 44.5301 7.25217C44.6188 7.40191 44.5751 7.59489 44.4305 7.69174L34.3321 13.8478L44.496 7.98026C44.6505 7.89517 44.8447 7.94755 44.9354 8.09881C45.0261 8.25007 44.9809 8.446 44.8331 8.54223L30.2036 17.638L44.5033 9.38223C44.6587 9.29565 44.8548 9.34882 44.9452 9.50205C45.0356 9.65527 44.9873 9.85264 44.8364 9.94682L44.1911 10.3357L44.5033 10.156C44.6571 10.0738 44.8484 10.1264 44.9385 10.2757C45.0286 10.4251 44.9861 10.6189 44.8416 10.7167L31.0541 19.4268L44.5033 11.6622C44.6575 11.5798 44.8492 11.633 44.939 11.783C45.0289 11.9331 44.9851 12.1272 44.8396 12.2242L36.2895 17.5357L44.5039 12.7947C44.6583 12.7082 44.8536 12.7598 44.945 12.9115C45.0364 13.0631 44.9909 13.2598 44.8423 13.356L35.8619 19.0045L44.5039 14.0157C44.6585 13.9319 44.8516 13.9849 44.9417 14.1359C45.0318 14.2869 44.9868 14.4821 44.8396 14.5783L41.8619 16.4144L44.5039 14.8898C44.6573 14.8065 44.849 14.858 44.94 15.0069C45.0311 15.1558 44.9895 15.3499 44.8456 15.4485L36.1033 21.0963L44.5039 16.2439C44.657 16.1531 44.8547 16.2029 44.9465 16.3553C45.0396 16.5061 44.9961 16.7036 44.8482 16.8012L36.6213 22.2406L44.5019 17.6904C44.6555 17.6046 44.8495 17.6553 44.9414 17.8054C45.0334 17.9554 44.9905 18.1512 44.8442 18.2491L39.9531 21.4262L44.5019 18.8032C44.6543 18.7161 44.8483 18.7645 44.942 18.9129C45.0356 19.0614 44.9957 19.2573 44.8515 19.3573L38.8219 23.5029L44.5019 20.2242C44.6552 20.1385 44.8487 20.1887 44.9409 20.3381C45.0332 20.4874 44.9914 20.6829 44.8462 20.7816L42.8305 22.1094L44.5019 21.1449C44.653 21.0581 44.8456 21.1047 44.9403 21.2509C45.035 21.3971 44.9989 21.5919 44.858 21.6944L41.0016 24.4865L44.5019 22.4649C44.651 22.3802 44.84 22.4247 44.9358 22.5668C45.0315 22.709 45.0016 22.9008 44.8672 23.0071L41.9065 25.3199L44.5019 23.8222C44.6526 23.7372 44.8433 23.7838 44.9377 23.9287C45.0322 24.0736 44.9979 24.2669 44.8593 24.3704L44.4829 24.6465L44.5019 24.6353C44.6485 24.5509 44.8352 24.5918 44.933 24.7298C45.0309 24.8677 45.0077 25.0574 44.8796 25.1678L43.999 25.9271L44.5019 25.6367C44.6407 25.5569 44.8167 25.5889 44.9184 25.7124C45.0201 25.8359 45.0179 26.0148 44.9131 26.1357L44.4351 26.6839C44.5938 26.6062 44.7855 26.6682 44.8686 26.8241C44.9517 26.9801 44.8963 27.1738 44.7433 27.2622L43.0619 28.2294C42.9235 28.3075 42.7489 28.275 42.6478 28.1523C42.5468 28.0296 42.5483 27.852 42.6515 27.7311L43.1269 27.1849L41.3164 28.2294C41.1701 28.3122 40.9849 28.271 40.8876 28.1339C40.7903 27.9969 40.8123 27.8085 40.9387 27.6976L41.8193 26.9383L39.5819 28.2294C39.4313 28.3144 39.2406 28.2678 39.1461 28.123C39.0517 27.9781 39.086 27.7848 39.2246 27.6812L39.601 27.4058L38.1728 28.2294C38.024 28.312 37.8369 28.2671 37.7418 28.1261C37.6467 27.9851 37.6752 27.7947 37.8075 27.6878L40.7662 25.3763L35.8226 28.2294C35.6715 28.3162 35.479 28.2696 35.3843 28.1234C35.2895 27.9772 35.3257 27.7824 35.4665 27.6799L39.3242 24.8878L33.5354 28.2321C33.3822 28.3178 33.1886 28.2676 33.0964 28.1182C33.0041 27.9688 33.0459 27.7733 33.1911 27.6747L35.2082 26.3455L31.9406 28.2294C31.7885 28.3153 31.5958 28.2669 31.5024 28.1192C31.409 27.9716 31.4477 27.7767 31.5905 27.676L37.6233 23.5285L29.4797 28.2294C29.3264 28.3139 29.1338 28.263 29.0422 28.1139C28.9505 27.9648 28.9921 27.77 29.1367 27.6714L34.0259 24.4944L27.5564 28.2321C27.4036 28.3143 27.2133 28.2634 27.1221 28.1158C27.0308 27.9683 27.0703 27.7752 27.2121 27.6753L35.4357 22.2399L25.0554 28.2294C24.902 28.3127 24.7103 28.2612 24.6193 28.1123C24.5282 27.9634 24.5698 27.7693 24.7138 27.6708L33.458 22.0229L22.7059 28.2294C22.6563 28.2591 22.5997 28.2752 22.5419 28.276Z" fill="#92D149"/>
    <path d="M23.6932 25.6531C23.5467 25.653 23.4181 25.5558 23.378 25.4149C23.338 25.2741 23.3962 25.1237 23.5207 25.0466L24.1312 24.6676L22.501 25.6066C22.3476 25.6898 22.1559 25.6383 22.0649 25.4895C21.9739 25.3406 22.0154 25.1465 22.1594 25.0479L30.7607 19.4958L20.1751 25.6066C20.0214 25.6911 19.8285 25.6397 19.7372 25.49C19.6459 25.3402 19.6886 25.1451 19.8341 25.0472L30.4354 18.2276L17.6492 25.6066C17.4952 25.6927 17.3007 25.6414 17.2091 25.4907C17.1174 25.3399 17.1615 25.1436 17.3089 25.0466L28.9922 17.6066L15.1286 25.6066C14.9744 25.6901 14.7818 25.6375 14.6915 25.4873C14.6011 25.3371 14.6449 25.1423 14.7909 25.0453L23.7843 19.4315L13.0879 25.6066C12.9335 25.697 12.7351 25.647 12.6421 25.4942C12.549 25.3414 12.5957 25.1422 12.7469 25.0466L24.9889 17.2302L12.0833 24.6807C11.9292 24.7654 11.7358 24.7135 11.6448 24.563C11.5538 24.4126 11.5977 24.2171 11.7443 24.12L21.4991 17.9449L12.0833 23.3804C11.9831 23.4409 11.8581 23.4434 11.7555 23.3868C11.6529 23.3303 11.5883 23.2233 11.586 23.1062C11.5837 22.9891 11.644 22.8796 11.7443 22.819L19.2092 18.1017L12.0833 22.2158C11.929 22.3062 11.7306 22.2562 11.6375 22.1034C11.5445 21.9506 11.5911 21.7514 11.7423 21.6558L19.2905 16.8033L12.0827 20.9666C11.9297 21.0498 11.7383 20.9989 11.6469 20.8506C11.5554 20.7024 11.5959 20.5085 11.7391 20.4092L19.0079 15.6394L12.0827 19.6394C11.9287 19.7255 11.7341 19.6742 11.6425 19.5234C11.5509 19.3727 11.595 19.1764 11.7423 19.0794L14.7174 17.1777L12.0827 18.6951C11.9299 18.7763 11.7402 18.7248 11.6495 18.5774C11.5589 18.43 11.5983 18.2375 11.7397 18.1377L15.3095 15.8026L12.084 17.6649C11.9322 17.751 11.7396 17.7032 11.6458 17.5561C11.5519 17.4089 11.5898 17.2141 11.7318 17.1128L16.7154 13.6125L12.0827 16.2872C11.9315 16.3696 11.7424 16.3211 11.6496 16.1762C11.5568 16.0313 11.5918 15.8392 11.7299 15.7364L14.8774 13.5161L12.084 15.1285C11.9349 15.2121 11.7466 15.167 11.6514 15.025C11.5563 14.8831 11.5861 14.6918 11.72 14.5856L14.6282 12.3338L12.0827 13.8033C11.9382 13.8849 11.7555 13.8457 11.6572 13.712C11.559 13.5783 11.5761 13.3922 11.6971 13.2787L13.7417 11.402L12.0827 12.3607C11.9362 12.4477 11.7474 12.408 11.6484 12.2693C11.5494 12.1306 11.5731 11.9392 11.703 11.8289L12.0151 11.5561C11.9025 11.5896 11.7806 11.5611 11.6945 11.4813C11.5892 11.3825 11.561 11.2265 11.625 11.0971L11.9771 10.381C11.8282 10.3815 11.6977 10.2817 11.6592 10.1379C11.6208 9.99413 11.684 9.84246 11.8132 9.76855L12.5502 9.34429C12.6753 9.27126 12.8335 9.28897 12.9393 9.38786C13.0452 9.48675 13.0736 9.64337 13.0092 9.77314L12.6912 10.4204L14.5535 9.34429C14.6992 9.26228 14.8833 9.30312 14.9808 9.43906C15.0782 9.575 15.0577 9.76246 14.9332 9.87412L14.6538 10.1181L15.9968 9.34429C16.1412 9.26268 16.3239 9.30188 16.4222 9.43559C16.5205 9.56929 16.5034 9.75534 16.3823 9.86888L14.3391 11.7436L18.4977 9.34429C18.647 9.25911 18.8367 9.30361 18.9325 9.44626C19.0282 9.58892 18.9977 9.78133 18.8623 9.88724L15.9535 12.1371L20.7941 9.34429C20.9458 9.25682 21.1395 9.30398 21.234 9.4514C21.3284 9.59882 21.2904 9.79447 21.1476 9.89576L18 12.1141L22.8014 9.34429C22.9527 9.26115 23.1426 9.30967 23.2355 9.45521C23.3285 9.60075 23.2926 9.79343 23.1535 9.89576L18.1699 13.3967L25.1876 9.34429C25.3404 9.26307 25.53 9.31459 25.6207 9.46198C25.7114 9.60937 25.6719 9.80187 25.5305 9.90166L21.9581 12.2374L26.9725 9.34429C27.1262 9.25977 27.3192 9.31116 27.4104 9.46091C27.5017 9.61067 27.459 9.80575 27.3135 9.90363L24.3404 11.8053L28.6027 9.34494C28.7557 9.26168 28.9471 9.3126 29.0385 9.46088C29.1299 9.60916 29.0894 9.80303 28.9463 9.90232L21.6748 14.6722L30.9069 9.34429C31.0609 9.25665 31.2566 9.30715 31.3489 9.45832C31.4413 9.6095 31.3968 9.80668 31.2486 9.90363L23.703 14.7515L33.0702 9.34429C33.2246 9.25606 33.4212 9.30697 33.5133 9.45906C33.6054 9.61114 33.5596 9.80895 33.4099 9.90494L25.943 14.6263L35.0879 9.34429C35.2423 9.25606 35.4389 9.30697 35.531 9.45906C35.6231 9.61114 35.5773 9.80895 35.4276 9.90494L25.6702 16.0787L37.3423 9.34429C37.4963 9.2582 37.6909 9.30943 37.7825 9.4602C37.8741 9.61098 37.83 9.80723 37.6827 9.90429L25.4387 17.7207L39.9522 9.34429C40.1063 9.26078 40.2989 9.31332 40.3893 9.46355C40.4797 9.61378 40.4359 9.80852 40.2899 9.9056L31.3004 15.5154L41.6702 9.53051C41.824 9.44719 42.0161 9.49921 42.1068 9.64874C42.1975 9.79827 42.1548 9.99266 42.0099 10.0905L30.3259 17.5338L41.88 10.8623C42.0344 10.7719 42.2328 10.8219 42.3259 10.9747C42.4189 11.1275 42.3723 11.3267 42.221 11.4223L31.6177 18.2453L41.88 12.3213C42.0334 12.2381 42.2251 12.2896 42.3162 12.4384C42.4072 12.5873 42.3657 12.7814 42.2217 12.88L33.6223 18.4308L41.8807 13.6636C42.0349 13.5813 42.2267 13.6344 42.3165 13.7844C42.4063 13.9345 42.3626 14.1286 42.2171 14.2256L41.604 14.6059L41.8807 14.4466C42.0336 14.3622 42.2259 14.4125 42.3179 14.5609C42.4099 14.7094 42.3693 14.904 42.2256 15.0033L34.9889 19.8099L41.8807 15.8308C42.0347 15.7448 42.2292 15.796 42.3209 15.9468C42.4125 16.0975 42.3684 16.2938 42.221 16.3908L39.8918 17.8813L41.8807 16.7338C42.0347 16.6477 42.2292 16.6989 42.3209 16.8497C42.4125 17.0005 42.3684 17.1967 42.221 17.2938L41.3955 17.8184L41.8807 17.539C42.0317 17.4556 42.2216 17.5034 42.315 17.6486C42.4084 17.7937 42.3733 17.9863 42.2348 18.0892L37.2702 21.6302L41.8807 18.9685C42.0317 18.8805 42.2253 18.9263 42.3207 19.0728C42.4161 19.2194 42.3797 19.4149 42.2381 19.5174L38.8938 21.9535L41.8787 20.2302C42.029 20.1447 42.2198 20.1907 42.3148 20.3352C42.4097 20.4797 42.3762 20.673 42.2381 20.7771L40.3364 22.1895L41.8794 21.299C42.0239 21.2174 42.2065 21.2566 42.3048 21.3903C42.4031 21.524 42.386 21.7101 42.265 21.8236L40.3895 23.5463L41.8794 22.6859C42.0249 22.6019 42.2105 22.6415 42.309 22.7777C42.4075 22.9139 42.3871 23.1025 42.2617 23.2144L41.9659 23.4767C42.0745 23.4517 42.1884 23.4824 42.2695 23.5587C42.3756 23.6592 42.4024 23.8178 42.3351 23.9476L42.0132 24.5659C42.1571 24.5763 42.2774 24.6795 42.3094 24.8203C42.3414 24.9611 42.2775 25.1062 42.1522 25.1777L41.4158 25.602C41.2894 25.6756 41.1296 25.6565 41.024 25.5554C40.9184 25.4542 40.8926 25.2953 40.9607 25.1659L41.2335 24.6413L39.5718 25.6066C39.4277 25.683 39.2494 25.6418 39.1533 25.51C39.0572 25.3782 39.0727 25.1958 39.1895 25.082L39.4361 24.8623L38.1397 25.6066C37.9952 25.6882 37.8126 25.649 37.7143 25.5153C37.616 25.3816 37.6331 25.1955 37.7541 25.082L39.6282 23.36L35.7358 25.6066C35.5855 25.692 35.3947 25.6461 35.2997 25.5016C35.2048 25.3571 35.2384 25.1637 35.3764 25.0597L37.2781 23.6479L33.8846 25.6066C33.7336 25.6947 33.5401 25.6488 33.4447 25.5023C33.3493 25.3558 33.3856 25.1602 33.5273 25.0577L36.8715 22.6223L31.703 25.6066C31.5516 25.693 31.359 25.6457 31.2647 25.4991C31.1705 25.3524 31.2074 25.1577 31.3489 25.0558L36.3148 21.5148L29.2191 25.6066C29.0656 25.6887 28.8747 25.6367 28.7842 25.4879C28.6937 25.3392 28.7352 25.1458 28.8787 25.0472L29.7043 24.5187L27.8191 25.6066C27.6656 25.6887 27.4747 25.6367 27.3842 25.4879C27.2937 25.3392 27.3352 25.1458 27.4787 25.0472L29.8066 23.5567L26.2558 25.6066C26.1026 25.6937 25.908 25.6442 25.8151 25.4945C25.7222 25.3448 25.7642 25.1484 25.9102 25.0499L33.1456 20.2459L23.8571 25.6066C23.8075 25.6363 23.7509 25.6523 23.6932 25.6531Z" fill="#ABDE62"/>
    <path d="M26.8794 22.36C26.7419 22.36 26.619 22.2743 26.5716 22.1453C26.5241 22.0162 26.5622 21.8713 26.667 21.7823L28.503 20.2177L25.465 21.9711C25.3145 22.0543 25.1254 22.0071 25.0316 21.863C24.9378 21.7189 24.9713 21.5268 25.1083 21.4229L26.2768 20.5738L24.6132 21.5331C24.4641 21.6195 24.2735 21.5756 24.1771 21.4328C24.0807 21.2899 24.1114 21.0968 24.2473 20.9908L27.3273 18.5901L23.6847 20.6951C23.5357 20.7808 23.3459 20.737 23.2495 20.5947C23.1532 20.4524 23.1831 20.2598 23.3181 20.1534L26.7935 17.4347L23.0119 19.6183C22.8606 19.7026 22.6699 19.6547 22.5764 19.509C22.4829 19.3632 22.5188 19.1699 22.6585 19.0675L24.2381 17.9449L22.7188 18.8216C22.5694 18.9086 22.3782 18.8648 22.2817 18.7213C22.1852 18.5779 22.2166 18.3842 22.3535 18.2787L25.103 16.1475L22.5981 17.5934C22.4495 17.6798 22.2594 17.6367 22.1625 17.4947C22.0656 17.3527 22.0949 17.1599 22.2296 17.0531L24.2093 15.4715L22.863 16.2479C22.7184 16.3331 22.5326 16.2953 22.4329 16.1602C22.3331 16.0251 22.3515 15.8365 22.4755 15.7233L23.6965 14.5842C23.5566 14.5672 23.4432 14.4626 23.415 14.3245C23.3867 14.1864 23.4499 14.0457 23.5719 13.9751L25.6466 12.7777C25.7913 12.6924 25.977 12.7303 26.0768 12.8653C26.1766 13.0004 26.1582 13.189 26.0342 13.3023L25.0276 14.2413L27.6427 12.7331C27.791 12.6489 27.9792 12.6925 28.0754 12.8333C28.1716 12.9742 28.1437 13.1653 28.0112 13.2728L26.0329 14.8524L28.9483 13.1705C29.0976 13.0835 29.2889 13.1273 29.3854 13.2708C29.4819 13.4142 29.4504 13.6079 29.3135 13.7134L26.5647 15.8439L29.9555 13.8859C30.1068 13.8016 30.2975 13.8495 30.391 13.9953C30.4845 14.141 30.4486 14.3343 30.3089 14.4367L28.7253 15.5613L30.4958 14.5383C30.6451 14.45 30.8373 14.4932 30.9345 14.6369C31.0316 14.7806 31 14.9751 30.8624 15.0806L27.387 17.7993L31.0899 15.6616C31.2393 15.5746 31.4305 15.6185 31.527 15.7619C31.6235 15.9053 31.5921 16.099 31.4552 16.2046L28.3804 18.6033L31.3476 16.8898C31.4985 16.804 31.6901 16.8506 31.7846 16.9961C31.8792 17.1417 31.844 17.3357 31.7044 17.4387L30.5391 18.2859L31.2998 17.8472C31.4467 17.7621 31.6342 17.8032 31.732 17.942C31.8299 18.0807 31.8056 18.2712 31.6762 18.381L29.8401 19.9456L30.8165 19.3823C30.9722 19.3008 31.1644 19.3566 31.2523 19.5087C31.3402 19.6608 31.2926 19.8552 31.1444 19.9495L27.0466 22.316C26.996 22.3457 26.9381 22.3609 26.8794 22.36Z" fill="#92D149"/>
    <path d="M16.4245 19.6059C16.2947 19.6061 16.177 19.5297 16.1244 19.411C16.0717 19.2924 16.094 19.1538 16.1812 19.0577L17.2075 17.9272L15.7032 18.7954C15.5569 18.8806 15.3699 18.8405 15.2715 18.7028C15.173 18.5651 15.1956 18.3751 15.3235 18.2643L15.6455 17.9836L15.433 18.1062C15.2989 18.1848 15.128 18.1584 15.0239 18.043C14.9198 17.9276 14.911 17.7549 15.0029 17.6295L15.736 16.6197C15.5785 16.6703 15.408 16.5956 15.3383 16.4456C15.2687 16.2956 15.3216 16.1172 15.4619 16.0295L16.7321 15.2964C16.866 15.2192 17.0357 15.246 17.1392 15.3608C17.2428 15.4756 17.2521 15.6471 17.1616 15.7725L16.4402 16.7711L18.2396 15.7325C18.3856 15.6489 18.5711 15.6894 18.669 15.8262C18.7669 15.963 18.7454 16.1517 18.6193 16.263L18.298 16.543L18.698 16.3128C18.8376 16.2332 19.0144 16.2666 19.1154 16.3917C19.2164 16.5168 19.2118 16.6966 19.1045 16.8164L18.0789 17.9469L18.8743 17.4879C19.03 17.4064 19.2222 17.4622 19.3102 17.6143C19.3981 17.7664 19.3505 17.9608 19.2022 18.0551L16.5898 19.5633C16.5395 19.592 16.4824 19.6067 16.4245 19.6059Z" fill="#92D149"/>
    <path d="M36.705 19.7278C36.5808 19.7278 36.4672 19.6576 36.4117 19.5466C36.3562 19.4355 36.3681 19.3026 36.4427 19.2032L37.4387 17.8471L35.4964 18.9684C35.3522 19.0468 35.1722 19.0064 35.0753 18.8739C34.9783 18.7414 34.9944 18.5576 35.1128 18.4439L35.6951 17.9193L35.1345 18.2425C35.0023 18.3189 34.835 18.294 34.7308 18.1824C34.6267 18.0709 34.6132 17.9023 34.6984 17.7757L35.5076 16.5691L35.463 16.5947C35.3613 16.6593 35.2325 16.663 35.1273 16.6043C35.0221 16.5456 34.9576 16.434 34.9593 16.3135C34.9609 16.1931 35.0284 16.0833 35.1351 16.0275L36.4053 15.2943C36.5374 15.218 36.7047 15.2429 36.8089 15.3545C36.9131 15.466 36.9265 15.6346 36.8413 15.7612L36.0322 16.9652L38.0315 15.8111C38.1759 15.7317 38.3567 15.7717 38.4541 15.9046C38.5514 16.0375 38.535 16.222 38.4158 16.3357L37.8328 16.8603L38.465 16.4957C38.5991 16.4187 38.7689 16.446 38.8722 16.5611C38.9754 16.6763 38.9842 16.848 38.8931 16.973L37.8971 18.3298L38.3804 18.0504C38.482 17.9858 38.6109 17.9821 38.716 18.0408C38.8212 18.0995 38.8857 18.2111 38.8841 18.3315C38.8825 18.452 38.8149 18.5618 38.7082 18.6176L36.8722 19.678C36.8221 19.7097 36.7642 19.7269 36.705 19.7278Z" fill="#92D149"/>
    <path d="M25.3131 45.2884C25.1697 45.2884 25.0428 45.1953 25 45.0584C24.9572 44.9215 25.0083 44.7727 25.1262 44.691L27.001 43.3913L24.0613 45.0884C23.9093 45.171 23.7192 45.1212 23.6272 44.9747C23.5351 44.8282 23.5727 44.6354 23.7131 44.5343L26.6141 42.5553L22.8679 44.7192C22.7156 44.8096 22.5191 44.7628 22.4239 44.6134C22.3288 44.4641 22.3694 44.2662 22.5157 44.1664L27.7551 40.5054L21.5544 44.0858C21.4007 44.1703 21.2078 44.1189 21.1165 43.9691C21.0252 43.8194 21.0679 43.6243 21.2134 43.5264L21.8954 43.0897L20.8888 43.67C20.7365 43.7524 20.5463 43.702 20.4547 43.555C20.363 43.4081 20.4015 43.2151 20.5426 43.1146L25.7229 39.6326L19.9984 42.9376C19.8453 43.0282 19.6479 42.9803 19.5534 42.8296C19.459 42.6789 19.5019 42.4804 19.6502 42.3821L25.7059 38.2897L19.2062 42.0431C19.0527 42.1321 18.8563 42.0829 18.763 41.932C18.6696 41.7812 18.7132 41.5834 18.8613 41.4857L23.7524 38.2621L18.6167 41.2274C18.4636 41.3145 18.269 41.265 18.176 41.1153C18.0831 40.9656 18.1251 40.7693 18.2711 40.6707L23.9105 36.9133L18.098 40.268C17.9449 40.3552 17.7503 40.3057 17.6574 40.156C17.5644 40.0063 17.6064 39.8099 17.7524 39.7113L23.3492 35.9671L17.7282 39.2123C17.5762 39.296 17.3854 39.2469 17.2928 39.1002C17.2002 38.9535 17.2378 38.7601 17.3787 38.6589L23.7924 34.2503L17.4456 37.9146C17.2929 38.0032 17.0974 37.955 17.0034 37.8056C16.9095 37.6561 16.9507 37.4591 17.0967 37.3598L22.4954 33.6674L17.3439 36.6412C17.1904 36.7301 16.994 36.6809 16.9007 36.53C16.8073 36.3792 16.8509 36.1814 16.999 36.0838L19.6298 34.3454L17.4482 35.6044C17.2963 35.6893 17.1046 35.6408 17.0114 35.4939C16.9182 35.347 16.9559 35.1529 17.0974 35.0516L20.8849 32.4261L17.7656 34.2267C17.6149 34.3106 17.425 34.2633 17.3311 34.1187C17.2372 33.974 17.2715 33.7813 17.4095 33.6779L20.5203 31.4189L18.4724 32.5992C18.3253 32.6835 18.138 32.6417 18.0408 32.5027C17.9435 32.3637 17.9684 32.1735 18.098 32.0641L20.098 30.3933C19.9624 30.3694 19.8561 30.2633 19.8321 30.1276C19.808 29.992 19.8713 29.8558 19.9905 29.7867L22.721 28.209C22.8683 28.1243 23.056 28.1662 23.1533 28.3057C23.2506 28.4451 23.2251 28.6357 23.0947 28.7448L21.4331 30.131L25.6193 27.7139C25.7702 27.6281 25.9618 27.6747 26.0563 27.8203C26.1509 27.9658 26.1157 28.1598 25.9761 28.2628L22.8606 30.5244L27.3708 27.9218C27.5227 27.837 27.7144 27.8855 27.8076 28.0323C27.9008 28.1792 27.8631 28.3733 27.7216 28.4746L23.9433 31.0975L28.7197 28.3435C28.8731 28.2545 29.0696 28.3037 29.1629 28.4546C29.2563 28.6054 29.2127 28.8032 29.0646 28.9008L26.4351 30.6385L29.6115 28.8025C29.7642 28.7138 29.9596 28.762 30.0536 28.9115C30.1476 29.061 30.1063 29.258 29.9603 29.3572L24.5623 33.049L30.6915 29.508C30.8434 29.4244 31.0342 29.4735 31.1269 29.6202C31.2195 29.7668 31.1818 29.9603 31.041 30.0615L24.6265 34.472L31.6875 30.3933C31.8407 30.3062 32.0353 30.3557 32.1282 30.5054C32.2211 30.6551 32.1791 30.8514 32.0331 30.95L26.4305 34.6943L32.3977 31.251C32.5503 31.1677 32.7415 31.218 32.8333 31.3657C32.9251 31.5134 32.8856 31.7071 32.7433 31.8071L27.1039 35.5664L32.9597 32.1854C33.1126 32.101 33.3048 32.1513 33.3968 32.2998C33.4888 32.4483 33.4483 32.6428 33.3046 32.7421L28.4128 35.969L33.4049 33.0877C33.5572 33.0042 33.7482 33.054 33.8404 33.2011C33.9326 33.3483 33.894 33.5419 33.7524 33.6425L27.6987 37.7376L33.7603 34.2385C33.9127 34.1561 34.1029 34.2065 34.1945 34.3535C34.2861 34.5005 34.2476 34.6934 34.1065 34.7939L28.9229 38.2766L33.9302 35.3861C34.0836 35.3039 34.2745 35.356 34.365 35.5047C34.4555 35.6534 34.414 35.8469 34.2705 35.9454L33.5997 36.3749L34.0062 36.1408C34.1583 36.0536 34.352 36.1014 34.4461 36.2493C34.5401 36.3972 34.5012 36.5929 34.3577 36.6936L29.117 40.3553L33.8718 37.6064C34.0243 37.5207 34.2172 37.5697 34.3102 37.7179C34.4032 37.866 34.3635 38.0611 34.22 38.1612L31.3157 40.1408L33.5511 38.8523C33.703 38.7674 33.8947 38.816 33.9879 38.9628C34.0811 39.1097 34.0434 39.3038 33.902 39.4051L32.0246 40.7061L33.0082 40.1389C33.1597 40.0537 33.3513 40.1016 33.445 40.248C33.5386 40.3944 33.5018 40.5885 33.361 40.6903L32.3662 41.3933C32.5076 41.4077 32.6236 41.5116 32.6535 41.6505C32.6834 41.7895 32.6203 41.9319 32.4974 42.0031L27.0318 45.1585C26.8803 45.2437 26.6887 45.1958 26.595 45.0494C26.5014 44.903 26.5382 44.7089 26.679 44.6071L27.1243 44.2917L25.4751 45.2444C25.4259 45.2731 25.37 45.2882 25.3131 45.2884Z" fill="#FFC306"/>
    <path d="M45.1654 12.4308C45.1654 11.158 45.4467 9.52389 45.1654 8.2734C44.6722 6.07668 42.1037 6.69045 40.3503 6.69045H12.6781C9.80208 6.69045 8.80273 7.01832 8.80273 10.3147C8.80273 10.7423 9.75618 10.5567 9.75618 10.2098C9.75618 6.79996 10.9863 7.27668 13.8218 7.27668H36.9267C38.526 7.27668 41.6211 6.65307 43.1299 7.27668C45.2939 8.17045 44.2119 14.1416 44.2119 15.897C44.2119 19.0754 44.9044 23.1311 44.2119 26.24C43.7398 28.3573 41.7699 27.6741 39.9306 27.6741H15.528C12.4985 27.6741 9.75749 28.6091 9.75749 24.636C9.75749 24.2085 8.80405 24.3941 8.80405 24.7409C8.80405 27.8354 9.5365 28.2603 12.3227 28.2603H23.2303C19.2952 29.0691 16.5217 32.6045 16.6729 36.619C16.6965 48.1803 34.1083 47.5245 34.6716 36.3645C34.6172 32.4463 31.8638 29.0849 28.0329 28.2603H38.4395C39.9476 28.2603 42.9509 28.8675 44.3411 27.9521C46.2526 26.6937 45.1667 21.2518 45.1667 19.377L45.1654 12.4308ZM28.2139 28.699C31.6237 29.9449 33.5444 33.1055 33.7221 36.619C33.4493 42.0209 28.3057 46.4885 22.7385 44.1409C19.6433 42.7912 17.6372 39.7411 17.6237 36.3645C17.6389 32.1886 20.7977 28.6949 24.9509 28.2603H26.2867C26.9451 28.3241 27.5927 28.4716 28.2139 28.699Z" fill="#0F474A"/>
    <path d="M42.5477 10.2307C41.9996 8.86813 40.6061 9.24255 39.311 9.24255H16.3884C15.0114 9.24255 12.111 8.59075 11.4448 10.1993C11.2317 10.7134 12.1871 10.737 12.3576 10.3252C12.7091 9.47599 16.0035 9.97042 16.7838 9.97042H36.1038C37.0874 9.97042 40.4068 9.39403 41.2461 9.97042C42.25 10.6609 41.5825 15.0655 41.5825 16.2032V20.9803C41.5825 21.8327 41.9333 23.5934 41.5825 24.3842C41.111 25.4478 39.3261 24.9803 38.1032 24.9803H17.8625C16.9248 24.9803 12.7989 25.5809 12.3759 24.5612C12.1936 24.1199 11.2487 24.3875 11.4264 24.8157C11.9818 26.158 13.8205 25.7081 15.033 25.7081H37.1071C38.2271 25.7081 41.0881 26.2885 42.0907 25.4458C43.33 24.4045 42.5497 20.4419 42.5497 19.0681V13.4019C42.5477 12.5842 42.8605 11.0052 42.5477 10.2307Z" fill="#0F474A"/>
    <path d="M32.0545 17.434C31.7102 11.0465 21.9562 11.1625 21.9142 17.5166C21.8742 23.9901 31.7168 23.7002 32.0545 17.434ZM22.8742 17.434C22.8408 15.1787 24.6199 13.3121 26.8742 13.2373C29.2735 13.1756 30.9712 15.2615 31.0925 17.5133C30.966 19.8674 29.2178 21.9868 26.6512 21.7101C24.5054 21.4198 22.8973 19.5993 22.8742 17.434Z" fill="#0F474A"/>
    <path d="M14.7071 17.5744C14.6868 20.5416 19.4389 20.154 19.5871 17.4052C19.5871 17.396 19.5799 17.3908 19.5792 17.3829C19.5786 17.375 19.5904 17.3606 19.5897 17.3481C19.4323 14.4144 14.7261 14.7921 14.7071 17.5744ZM16.9097 19.1331C16.1625 18.8729 15.6623 18.1676 15.6638 17.3763C15.6599 16.4301 16.4422 15.4511 17.4796 15.855C18.1737 16.1508 18.6273 16.829 18.6356 17.5836C18.5746 18.459 17.9504 19.4793 16.9097 19.1331Z" fill="#0F474A"/>
    <path d="M34.379 17.573C34.3613 20.5461 39.1114 20.1652 39.2603 17.4071C39.2603 17.3973 39.2531 17.392 39.2517 17.3829C39.2504 17.3737 39.2629 17.3606 39.2622 17.3481C39.1042 14.4084 34.394 14.7822 34.379 17.573ZM36.5809 19.1284C35.8351 18.8703 35.3358 18.1668 35.3383 17.3776C35.3383 16.4189 36.1199 15.4648 37.1547 15.8596C37.8484 16.1512 38.3025 16.8271 38.3101 17.5796C38.2465 18.4675 37.6157 19.4642 36.5809 19.1284Z" fill="#0F474A"/>
    <path d="M22.8318 38.2623C22.5741 38.0046 21.6724 38.3685 21.9544 38.6505L23.9216 40.6177C24.2151 40.8033 24.6021 40.7296 24.8068 40.4492C26.3369 37.8262 27.867 35.2033 29.397 32.5804C29.637 32.1686 28.6796 32.2282 28.5039 32.5292L24.3019 39.7351L22.8318 38.2623Z" fill="#0F474A"/>
    <path d="M13.6827 13.1475C14.0309 13.1475 14.6945 12.6229 14.0565 12.6229H6.84335C6.49515 12.6229 5.83155 13.1475 6.46958 13.1475H13.6827Z" fill="#0F474A"/>
    <path d="M12.7531 17.2544H6.85151C6.55577 17.2544 5.82397 17.6964 6.45807 17.6964H12.3597C12.6541 17.6964 13.3859 17.2544 12.7531 17.2544Z" fill="#0F474A"/>
    <path d="M11.0639 22.3475C11.4383 22.3475 12.0665 21.7836 11.4271 21.7836H6.83698C6.46255 21.7836 5.83435 22.3475 6.4737 22.3475H11.0639Z" fill="#0F474A"/>
</svg>
