<svg width="52" height="52" viewBox="0 0 52 52" fill="none"
    xmlns="http://www.w3.org/2000/svg">
    <path d="M18.609 45.6469C18.5372 45.6467 18.4674 45.6234 18.4099 45.5804C18.3524 45.5374 18.3103 45.477 18.2899 45.4081C18.2696 45.3393 18.272 45.2657 18.2968 45.1983C18.3216 45.1309 18.3675 45.0734 18.4277 45.0342L26.517 39.7769L16.487 45.5682C16.4116 45.6124 16.3218 45.6252 16.237 45.6038C16.1522 45.5825 16.0792 45.5286 16.0338 45.454C15.9883 45.3793 15.974 45.2897 15.9939 45.2046C16.0139 45.1195 16.0664 45.0456 16.1403 44.9989L24.719 39.5142L15.3477 44.9249C15.3102 44.9475 15.2686 44.9625 15.2254 44.9691C15.1821 44.9757 15.1379 44.9736 15.0954 44.9631C15.0529 44.9526 15.0129 44.9339 14.9777 44.9079C14.9424 44.882 14.9126 44.8493 14.89 44.8119C14.8674 44.7744 14.8523 44.7328 14.8458 44.6895C14.8392 44.6463 14.8412 44.6021 14.8517 44.5596C14.8622 44.5171 14.881 44.4771 14.9069 44.4419C14.9329 44.4066 14.9655 44.3768 15.003 44.3542L22.2583 39.7902L14.903 44.0369C14.8277 44.0797 14.7387 44.0916 14.6548 44.0699C14.571 44.0483 14.4988 43.9948 14.4536 43.9209C14.4085 43.847 14.3939 43.7584 14.4129 43.6739C14.432 43.5894 14.4832 43.5156 14.5557 43.4682L25.735 36.2609L14.855 42.5409C14.7795 42.584 14.6902 42.5959 14.606 42.5741C14.5219 42.5523 14.4496 42.4985 14.4045 42.4242C14.3595 42.3498 14.3453 42.2608 14.3649 42.1761C14.3845 42.0914 14.4365 42.0178 14.5097 41.9709L24.3043 35.7289L14.855 41.1835C14.7795 41.2233 14.6915 41.2326 14.6093 41.2095C14.5271 41.1864 14.4569 41.1326 14.4132 41.0592C14.3695 40.9858 14.3556 40.8985 14.3745 40.8152C14.3933 40.7319 14.4433 40.659 14.5143 40.6115L16.6583 39.2922L14.855 40.3335C14.7795 40.3733 14.6915 40.3826 14.6093 40.3595C14.5271 40.3364 14.4569 40.2826 14.4132 40.2092C14.3695 40.1358 14.3556 40.0485 14.3745 39.9652C14.3933 39.8819 14.4433 39.809 14.5143 39.7615L16.9217 38.2795L14.855 39.4722C14.7795 39.512 14.6915 39.5213 14.6093 39.4982C14.5271 39.475 14.4569 39.4212 14.4132 39.3479C14.3695 39.2745 14.3556 39.1871 14.3745 39.1039C14.3933 39.0205 14.4433 38.9477 14.5143 38.9002L16.535 37.6589L14.855 38.6269C14.7795 38.6672 14.6914 38.6769 14.6089 38.6541C14.5264 38.6312 14.4559 38.5775 14.412 38.504C14.368 38.4306 14.354 38.3431 14.3728 38.2596C14.3916 38.1761 14.4418 38.103 14.513 38.0555L19.4497 34.9889L14.855 37.6429C14.7797 37.6857 14.6907 37.6976 14.6068 37.6759C14.523 37.6543 14.4508 37.6008 14.4056 37.5269C14.3605 37.453 14.3459 37.3644 14.3649 37.2799C14.384 37.1954 14.4352 37.1216 14.5077 37.0742L25.7803 29.8002L14.855 36.1095C14.7796 36.1504 14.6913 36.1606 14.6085 36.138C14.5257 36.1154 14.4548 36.0618 14.4106 35.9883C14.3664 35.9148 14.3522 35.827 14.371 35.7433C14.3898 35.6596 14.4402 35.5864 14.5117 35.5389L21.2743 31.3055L14.855 35.0122C14.7791 35.0575 14.6883 35.0707 14.6026 35.049C14.5168 35.0273 14.4433 34.9725 14.398 34.8965C14.3527 34.8206 14.3395 34.7298 14.3612 34.6441C14.3829 34.5584 14.4377 34.4848 14.5137 34.4395L18.237 32.1389L14.855 34.0909C14.7795 34.134 14.6902 34.1459 14.606 34.1241C14.5219 34.1023 14.4496 34.0485 14.4045 33.9742C14.3595 33.8998 14.3453 33.8108 14.3649 33.7261C14.3845 33.6414 14.4365 33.5678 14.5097 33.5209L24.3283 27.2622L14.855 32.7335C14.7795 32.7758 14.6905 32.7871 14.6068 32.765C14.5231 32.7428 14.4513 32.689 14.4066 32.6148C14.3619 32.5407 14.3478 32.452 14.3673 32.3677C14.3868 32.2833 14.4383 32.2099 14.511 32.1629L22.7277 26.9802L14.855 31.5229C14.7799 31.5631 14.6922 31.573 14.61 31.5506C14.5277 31.5281 14.4572 31.4751 14.4129 31.4022C14.3686 31.3294 14.3539 31.2424 14.3718 31.1591C14.3896 31.0758 14.4387 31.0024 14.509 30.9542L24.9137 24.2915L14.855 30.0982C14.7795 30.138 14.6915 30.1473 14.6093 30.1242C14.5271 30.101 14.4569 30.0472 14.4132 29.9739C14.3695 29.9005 14.3556 29.8132 14.3745 29.7299C14.3933 29.6466 14.4433 29.5737 14.5143 29.5262L16.6277 28.2262L14.855 29.2495C14.7795 29.2898 14.6914 29.2996 14.6089 29.2767C14.5264 29.2539 14.4559 29.2001 14.412 29.1267C14.368 29.0533 14.354 28.9657 14.3728 28.8822C14.3916 28.7987 14.4418 28.7257 14.513 28.6782L19.2017 25.7702L14.855 28.2789C14.7795 28.322 14.6902 28.3339 14.606 28.3121C14.5219 28.2903 14.4496 28.2365 14.4045 28.1622C14.3595 28.0878 14.3453 27.9988 14.3649 27.9141C14.3845 27.8294 14.4365 27.7558 14.5097 27.7089L24.4863 21.3422L14.855 26.9029C14.7796 26.9471 14.6898 26.9599 14.605 26.9385C14.5202 26.9171 14.4472 26.8633 14.4018 26.7886C14.3563 26.7139 14.342 26.6244 14.3619 26.5393C14.3819 26.4541 14.4344 26.3802 14.5083 26.3335L25.3917 19.3375L14.855 25.4202C14.7792 25.4656 14.6884 25.4791 14.6026 25.4576C14.5168 25.4361 14.4431 25.3814 14.3977 25.3055C14.3522 25.2297 14.3388 25.1389 14.3603 25.0531C14.3818 24.9673 14.4365 24.8936 14.5123 24.8482L20.379 21.1915L14.855 24.3809C14.7799 24.4211 14.6922 24.431 14.61 24.4086C14.5277 24.3861 14.4572 24.3331 14.4129 24.2602C14.3686 24.1874 14.3539 24.1004 14.3718 24.0171C14.3896 23.9338 14.4387 23.8604 14.509 23.8122L24.709 17.2909L14.855 22.9802C14.7793 23.0259 14.6886 23.0397 14.6028 23.0185C14.5169 22.9973 14.443 22.9429 14.3973 22.8672C14.3516 22.7915 14.3379 22.7008 14.3591 22.615C14.3802 22.5291 14.4347 22.4552 14.5103 22.4095L23.315 16.8355L14.855 21.7195C14.7796 21.761 14.6911 21.7717 14.608 21.7494C14.5249 21.7271 14.4537 21.6735 14.4091 21.5999C14.3646 21.5263 14.3503 21.4383 14.3692 21.3544C14.388 21.2704 14.4386 21.197 14.5103 21.1495L22.6323 16.0162L14.855 20.5055C14.7796 20.5497 14.6898 20.5625 14.605 20.5412C14.5202 20.5198 14.4472 20.466 14.4018 20.3913C14.3563 20.3166 14.342 20.2271 14.3619 20.1419C14.3819 20.0568 14.4344 19.9829 14.5083 19.9362L23.8883 13.8982L14.855 19.1135C14.7798 19.1573 14.6904 19.1699 14.606 19.1486C14.5216 19.1273 14.4489 19.0739 14.4034 18.9998C14.3578 18.9256 14.3431 18.8365 14.3624 18.7517C14.3816 18.6668 14.4333 18.5928 14.5063 18.5455L22.9763 13.0122L14.855 17.6995C14.7796 17.7457 14.6889 17.76 14.603 17.7393C14.517 17.7186 14.4428 17.6646 14.3967 17.5892C14.3505 17.5138 14.3362 17.4231 14.3569 17.3372C14.3776 17.2512 14.4316 17.177 14.507 17.1309L20.2363 13.4162L14.855 16.5222C14.7802 16.5625 14.6929 16.5727 14.6108 16.5507C14.5287 16.5287 14.4581 16.4763 14.4134 16.404C14.3688 16.3318 14.3534 16.2452 14.3704 16.1619C14.3874 16.0787 14.4356 16.0051 14.505 15.9562L19.6443 12.5655L14.855 15.3295C14.7803 15.3703 14.6927 15.381 14.6104 15.3593C14.528 15.3376 14.4571 15.2852 14.4122 15.2129C14.3672 15.1406 14.3516 15.0538 14.3687 14.9703C14.3857 14.8869 14.434 14.8131 14.5037 14.7642L18.335 12.2142L14.855 14.2229C14.7798 14.2666 14.6904 14.2792 14.606 14.2579C14.5216 14.2367 14.4489 14.1833 14.4034 14.1091C14.3578 14.0349 14.3431 13.9459 14.3624 13.861C14.3816 13.7761 14.4333 13.7021 14.5063 13.6549L15.4397 13.0455L14.8557 13.3829C14.7818 13.4249 14.6947 13.4371 14.6121 13.417C14.5295 13.3969 14.4577 13.346 14.4114 13.2748C14.3651 13.2035 14.3477 13.1172 14.3629 13.0336C14.3781 12.95 14.4246 12.8753 14.493 12.8249L18.2017 10.1229L14.853 12.0562C14.7795 12.0983 14.6928 12.1108 14.6104 12.0913C14.528 12.0718 14.4561 12.0216 14.4094 11.951C14.3626 11.8804 14.3445 11.7947 14.3587 11.7112C14.3728 11.6277 14.4182 11.5527 14.4857 11.5015L16.8417 9.73352L14.855 10.8789C14.784 10.9189 14.7008 10.9316 14.6211 10.9145C14.5414 10.8974 14.4708 10.8517 14.4225 10.786C14.3742 10.7203 14.3517 10.6393 14.3591 10.5581C14.3666 10.4769 14.4036 10.4013 14.463 10.3455L16.483 8.49152L14.855 9.43085C14.7891 9.46873 14.7121 9.4829 14.637 9.47103C14.5619 9.45917 14.4931 9.42196 14.442 9.3656C14.3909 9.30924 14.3607 9.23711 14.3563 9.16118C14.3518 9.08526 14.3735 9.0101 14.4177 8.94819L15.2683 7.76485L15.2443 7.77885C15.1682 7.81871 15.0795 7.82758 14.997 7.80363C14.9144 7.77967 14.8443 7.72474 14.8012 7.65031C14.7582 7.57587 14.7456 7.48769 14.7661 7.40419C14.7865 7.32068 14.8385 7.24831 14.911 7.20219L16.2757 6.41352C16.3417 6.37536 16.4188 6.361 16.4941 6.37282C16.5695 6.38464 16.6385 6.42193 16.6896 6.47847C16.7408 6.53502 16.771 6.6074 16.7753 6.68353C16.7795 6.75967 16.7576 6.83496 16.713 6.89685L15.8623 8.08019L18.7757 6.40019C18.8466 6.3601 18.9299 6.34741 19.0095 6.36451C19.0892 6.38162 19.1599 6.42733 19.2082 6.49301C19.2565 6.55869 19.279 6.63979 19.2715 6.72096C19.2641 6.80213 19.2271 6.87775 19.1677 6.93352L17.149 8.78685L21.283 6.40019C21.3565 6.35809 21.4432 6.34554 21.5256 6.36507C21.608 6.3846 21.6799 6.43476 21.7266 6.50536C21.7734 6.57596 21.7915 6.66171 21.7773 6.74519C21.7632 6.82867 21.7178 6.90364 21.6503 6.95485L19.295 8.72285L23.321 6.40019C23.3949 6.35816 23.482 6.34595 23.5646 6.36604C23.6472 6.38613 23.719 6.43701 23.7653 6.50828C23.8116 6.57954 23.829 6.66581 23.8138 6.74944C23.7986 6.83306 23.7521 6.90774 23.6837 6.95819L19.9743 9.65752L25.6203 6.40019C25.6954 6.35887 25.7834 6.34801 25.8662 6.36988C25.9491 6.39175 26.0203 6.44466 26.0651 6.51764C26.11 6.59061 26.125 6.67805 26.1071 6.76182C26.0892 6.84559 26.0398 6.91925 25.969 6.96752L25.0357 7.57819L27.075 6.40019C27.1498 6.35826 27.2379 6.34676 27.3209 6.3681C27.404 6.38944 27.4756 6.44197 27.521 6.51476C27.5663 6.58756 27.5818 6.67502 27.5643 6.75897C27.5468 6.84292 27.4976 6.9169 27.427 6.96552L23.5977 9.51352L28.9917 6.40019C29.0665 6.35886 29.1544 6.34788 29.2371 6.36952C29.3199 6.39116 29.3911 6.44376 29.4361 6.51645C29.4812 6.58914 29.4965 6.67635 29.4791 6.76006C29.4616 6.84376 29.4127 6.91756 29.3423 6.96619L24.2017 10.3555L31.0577 6.40019C31.1328 6.3582 31.2213 6.34691 31.3046 6.36869C31.3879 6.39047 31.4595 6.44363 31.5045 6.51704C31.5495 6.59045 31.5643 6.67841 31.5459 6.7625C31.5275 6.84659 31.4772 6.9203 31.4057 6.96819L25.679 10.6822L33.0963 6.40019C33.1714 6.35887 33.2594 6.34801 33.3422 6.36988C33.4251 6.39175 33.4963 6.44466 33.5411 6.51764C33.586 6.59061 33.601 6.67805 33.5831 6.76182C33.5652 6.84559 33.5158 6.91925 33.445 6.96752L24.9783 12.5009L35.4943 6.42819C35.5696 6.38533 35.6586 6.37347 35.7425 6.39511C35.8264 6.41675 35.8986 6.4702 35.9437 6.54413C35.9889 6.61805 36.0035 6.70666 35.9844 6.79116C35.9654 6.87567 35.9142 6.94944 35.8417 6.99685L26.4603 13.0355L36.699 7.12485C36.7744 7.0834 36.8629 7.07269 36.946 7.09499C37.0291 7.11728 37.1003 7.17083 37.1449 7.24446C37.1894 7.31808 37.2037 7.40606 37.1849 7.49001C37.166 7.57395 37.1154 7.64735 37.0437 7.69485L28.919 12.8282L37.1263 8.09219C37.2018 8.04905 37.2912 8.03711 37.3753 8.05891C37.4595 8.08071 37.5318 8.13452 37.5768 8.20887C37.6219 8.28322 37.6361 8.37223 37.6164 8.45692C37.5968 8.5416 37.5449 8.61526 37.4717 8.66219L28.6683 14.2362L37.1483 9.34019C37.2235 9.29996 37.3112 9.29005 37.3934 9.31248C37.4756 9.33491 37.5461 9.38798 37.5904 9.4608C37.6347 9.53361 37.6495 9.62062 37.6316 9.70396C37.6137 9.78729 37.5646 9.86061 37.4943 9.90885L27.2943 16.4309L37.1483 10.7409C37.2242 10.6954 37.315 10.682 37.4008 10.7035C37.4865 10.725 37.5602 10.7797 37.6057 10.8555C37.6511 10.9314 37.6646 11.0222 37.6431 11.1079C37.6216 11.1937 37.5669 11.2674 37.491 11.3129L31.6243 14.9695L37.1483 11.7802C37.2235 11.7388 37.3118 11.7281 37.3947 11.7502C37.4777 11.7722 37.5489 11.8255 37.5936 11.8988C37.6383 11.972 37.653 12.0597 37.6346 12.1436C37.6162 12.2274 37.5662 12.301 37.495 12.3489L26.617 19.3422L37.1503 13.2622C37.2256 13.2214 37.3137 13.2111 37.3963 13.2335C37.4789 13.2559 37.5498 13.3092 37.5942 13.3824C37.6386 13.4556 37.6531 13.543 37.6348 13.6267C37.6164 13.7103 37.5666 13.7836 37.4957 13.8315L27.511 20.2002L37.1483 14.6389C37.2238 14.5985 37.3119 14.5888 37.3944 14.6117C37.4769 14.6345 37.5474 14.6882 37.5914 14.7617C37.6353 14.8351 37.6494 14.9226 37.6306 15.0061C37.6118 15.0896 37.5615 15.1627 37.4903 15.2102L32.8017 18.1182L37.147 15.6095C37.2226 15.5697 37.3105 15.5604 37.3927 15.5835C37.4749 15.6067 37.5451 15.6605 37.5888 15.7338C37.6325 15.8072 37.6464 15.8946 37.6276 15.9779C37.6087 16.0612 37.5587 16.1341 37.4877 16.1815L35.3903 17.4715L37.147 16.4582C37.2221 16.418 37.3098 16.408 37.3921 16.4305C37.4743 16.4529 37.5448 16.506 37.5891 16.5788C37.6334 16.6516 37.6481 16.7386 37.6303 16.822C37.6124 16.9053 37.5633 16.9786 37.493 17.0269L27.0897 23.6895L37.1483 17.8822C37.2239 17.8399 37.3129 17.8286 37.3966 17.8508C37.4803 17.8729 37.5521 17.9268 37.5968 18.0009C37.6414 18.075 37.6555 18.1637 37.6361 18.248C37.6166 18.3324 37.565 18.4058 37.4923 18.4529L29.2757 23.6355L37.1483 19.0909C37.2236 19.0501 37.3117 19.0398 37.3943 19.0622C37.4769 19.0846 37.5478 19.1379 37.5922 19.2111C37.6366 19.2842 37.6511 19.3717 37.6328 19.4553C37.6144 19.5389 37.5646 19.6123 37.4937 19.6602L27.6683 25.9235L37.1483 20.4509C37.224 20.4098 37.3125 20.3997 37.3955 20.4224C37.4784 20.4452 37.5494 20.4992 37.5935 20.5731C37.6376 20.6469 37.6514 20.735 37.632 20.8188C37.6127 20.9027 37.5617 20.9758 37.4897 21.0229L33.7803 23.3155L37.1483 21.3715C37.2238 21.3307 37.3121 21.3205 37.3948 21.343C37.4776 21.3656 37.5485 21.4193 37.5927 21.4928C37.637 21.5663 37.6511 21.654 37.6323 21.7377C37.6135 21.8215 37.5631 21.8947 37.4917 21.9422L30.729 26.1755L37.1483 22.4669C37.2236 22.424 37.3126 22.4121 37.3965 22.4338C37.4804 22.4554 37.5526 22.5089 37.5977 22.5828C37.6429 22.6567 37.6575 22.7453 37.6384 22.8298C37.6194 22.9143 37.5682 22.9881 37.4957 23.0355L26.2177 30.3135L37.1483 24.0002C37.2238 23.9599 37.3119 23.9501 37.3944 23.973C37.4769 23.9959 37.5474 24.0496 37.5914 24.123C37.6353 24.1964 37.6494 24.284 37.6306 24.3675C37.6118 24.451 37.5615 24.524 37.4903 24.5715L32.557 27.6382L37.1483 24.9869C37.2241 24.945 37.3132 24.9342 37.3968 24.9568C37.4804 24.9795 37.5518 25.0337 37.5961 25.1082C37.6404 25.1826 37.6539 25.2713 37.634 25.3555C37.614 25.4398 37.562 25.5129 37.489 25.5595L35.489 26.7909L37.1503 25.8315C37.2259 25.7917 37.3138 25.7824 37.396 25.8055C37.4782 25.8287 37.5484 25.8825 37.5921 25.9558C37.6358 26.0292 37.6497 26.1166 37.6309 26.1999C37.6121 26.2832 37.562 26.3561 37.491 26.4035L35.0817 27.8855L37.1483 26.6929C37.2239 26.653 37.3118 26.6437 37.394 26.6669C37.4762 26.69 37.5464 26.7438 37.5901 26.8172C37.6338 26.8905 37.6477 26.9779 37.6289 27.0612C37.6101 27.1445 37.56 27.2174 37.489 27.2649L35.3283 28.5942L37.1483 27.5435C37.2238 27.5004 37.3132 27.4884 37.3973 27.5102C37.4815 27.532 37.5538 27.5859 37.5988 27.6602C37.6439 27.7346 37.6581 27.8236 37.6384 27.9082C37.6188 27.9929 37.5668 28.0666 37.4937 28.1135L27.699 34.3555L37.1483 28.9009C37.2234 28.8611 37.3107 28.8515 37.3926 28.874C37.4745 28.8964 37.5447 28.9493 37.5889 29.0218C37.6331 29.0942 37.648 29.1808 37.6306 29.2639C37.6131 29.347 37.5646 29.4203 37.495 29.4689L26.319 36.6762L37.1483 30.4242C37.2237 30.3839 37.3115 30.3741 37.3939 30.3968C37.4762 30.4194 37.5467 30.4728 37.5908 30.5459C37.635 30.619 37.6494 30.7063 37.631 30.7897C37.6127 30.8731 37.5631 30.9463 37.4923 30.9942L30.2397 35.5569L37.1483 31.5689C37.2235 31.5286 37.3112 31.5187 37.3934 31.5411C37.4756 31.5636 37.5461 31.6167 37.5904 31.6895C37.6347 31.7623 37.6495 31.8493 37.6316 31.9326C37.6137 32.016 37.5646 32.0893 37.4943 32.1375L28.9177 37.6209L37.1483 32.8669C37.2233 32.8266 37.3108 32.8166 37.393 32.8388C37.4751 32.861 37.5456 32.9137 37.5901 32.9863C37.6346 33.0588 37.6497 33.1456 37.6322 33.2289C37.6148 33.3121 37.5662 33.3856 37.4963 33.4342L29.4017 38.6975L37.1483 34.2255C37.2232 34.1821 37.312 34.1696 37.396 34.1905C37.4799 34.2113 37.5525 34.2641 37.5983 34.3375C37.6441 34.4109 37.6596 34.4993 37.6414 34.5839C37.6232 34.6685 37.5729 34.7427 37.501 34.7909L29.4883 40.1829L37.1483 35.7615C37.2227 35.7214 37.3095 35.7111 37.3912 35.7326C37.4729 35.7541 37.5434 35.8058 37.5885 35.8772C37.6335 35.9487 37.6497 36.0346 37.6339 36.1176C37.618 36.2005 37.5712 36.2744 37.503 36.3242L31.1123 40.7035L37.1483 37.2189C37.223 37.1755 37.3116 37.1628 37.3955 37.1835C37.4793 37.2042 37.5519 37.2566 37.5978 37.3297C37.6438 37.4028 37.6596 37.4909 37.6419 37.5754C37.6242 37.66 37.5744 37.7343 37.503 37.7829L33.3663 40.6062L37.1483 38.4235C37.2227 38.3808 37.3108 38.3685 37.394 38.389C37.4773 38.4095 37.5495 38.4614 37.5955 38.5338C37.6416 38.6062 37.6579 38.6935 37.6412 38.7777C37.6244 38.8618 37.5759 38.9363 37.5057 38.9855L34.367 41.1802L37.1483 39.5742C37.2216 39.5327 37.3079 39.5205 37.3898 39.5401C37.4717 39.5596 37.5432 39.6094 37.5899 39.6795C37.6366 39.7496 37.655 39.8347 37.6415 39.9178C37.628 40.0009 37.5835 40.0759 37.517 40.1275L34.4697 42.4609L37.1483 40.9149C37.2205 40.8742 37.3053 40.8618 37.386 40.8802C37.4668 40.8986 37.5379 40.9464 37.5853 41.0143C37.6328 41.0822 37.6532 41.1654 37.6427 41.2476C37.6322 41.3298 37.5914 41.4051 37.5283 41.4589L35.565 43.1015L37.1483 42.1875C37.2185 42.1476 37.3008 42.1344 37.38 42.1506C37.4591 42.1668 37.5297 42.2111 37.5786 42.2754C37.6275 42.3397 37.6514 42.4196 37.6458 42.5002C37.6402 42.5807 37.6056 42.6566 37.5483 42.7135L36.5323 43.7135L37.1183 43.3762C37.1945 43.3363 37.2832 43.3275 37.3657 43.3514C37.4483 43.3754 37.5184 43.4303 37.5614 43.5047C37.6045 43.5792 37.6171 43.6674 37.5966 43.7509C37.5762 43.8344 37.5242 43.9067 37.4517 43.9529L34.591 45.6002C34.5208 45.6402 34.4385 45.6533 34.3594 45.6371C34.2802 45.6209 34.2096 45.5766 34.1608 45.5123C34.1119 45.448 34.088 45.3681 34.0935 45.2876C34.0991 45.207 34.1337 45.1312 34.191 45.0742L35.2077 44.0742L32.5677 45.6002C32.4955 45.6416 32.4104 45.6544 32.3292 45.6363C32.248 45.6181 32.1765 45.5703 32.1288 45.5021C32.0811 45.4339 32.0606 45.3504 32.0714 45.2679C32.0822 45.1853 32.1234 45.1098 32.187 45.0562L34.151 43.4135L30.363 45.6002C30.2897 45.6425 30.203 45.6554 30.1205 45.6362C30.0381 45.6169 29.966 45.567 29.919 45.4966C29.872 45.4262 29.8536 45.3405 29.8674 45.257C29.8813 45.1734 29.9264 45.0983 29.9937 45.0469L33.0423 42.7135L28.0423 45.6009C27.968 45.643 27.8804 45.655 27.7975 45.6344C27.7146 45.6138 27.6427 45.5622 27.5968 45.4902C27.5509 45.4181 27.5343 45.3312 27.5506 45.2474C27.5669 45.1635 27.6148 45.0891 27.6843 45.0395L30.8223 42.8455L26.047 45.6002C25.9725 45.6416 25.8849 45.6529 25.8023 45.6318C25.7197 45.6106 25.6483 45.5586 25.6029 45.4865C25.5575 45.4143 25.5414 45.3275 25.5581 45.2439C25.5747 45.1602 25.6228 45.0861 25.6923 45.0369L29.8303 42.2115L23.9603 45.6002C23.886 45.6403 23.7992 45.6506 23.7175 45.6291C23.6358 45.6077 23.5653 45.556 23.5202 45.4845C23.4752 45.413 23.4589 45.3271 23.4748 45.2442C23.4907 45.1612 23.5374 45.0873 23.6057 45.0375L29.9963 40.6582L21.4357 45.6002C21.361 45.6416 21.2733 45.6527 21.1906 45.6313C21.108 45.6099 21.0367 45.5576 20.9914 45.4852C20.9462 45.4128 20.9305 45.3257 20.9475 45.2421C20.9646 45.1584 21.0131 45.0845 21.083 45.0355L29.0957 39.6429L18.7757 45.6002C18.7252 45.6301 18.6677 45.6462 18.609 45.6469Z" fill="#346E94"/>
    <path d="M26.1005 10.9801C26.0299 10.9801 25.9612 10.9577 25.9042 10.9162C25.8471 10.8747 25.8047 10.8161 25.7831 10.749C25.7615 10.6819 25.7617 10.6096 25.7837 10.5426C25.8058 10.4755 25.8485 10.4173 25.9058 10.3761L26.0858 10.2427L24.8918 10.9334C24.8188 10.9749 24.7328 10.9872 24.651 10.968C24.5692 10.9488 24.4977 10.8994 24.4508 10.8297C24.4038 10.7601 24.385 10.6753 24.3979 10.5922C24.4108 10.5092 24.4546 10.4342 24.5205 10.3821L25.8112 9.37808L23.1165 10.9334C23.0451 10.9741 22.9611 10.9869 22.8808 10.9694C22.8005 10.952 22.7295 10.9055 22.6814 10.8388C22.6333 10.7722 22.6115 10.6902 22.6202 10.6084C22.6289 10.5267 22.6674 10.4511 22.7285 10.3961L24.7518 8.59608L20.9365 10.8001C20.8647 10.8413 20.7801 10.8544 20.6992 10.8367C20.6182 10.819 20.5468 10.7718 20.4988 10.7043C20.4508 10.6368 20.4296 10.5539 20.4394 10.4716C20.4492 10.3894 20.4893 10.3137 20.5518 10.2594L22.3185 8.73808L20.2372 9.93808C20.1656 9.97883 20.0816 9.99169 20.0012 9.97418C19.9208 9.95667 19.8497 9.91003 19.8016 9.84324C19.7535 9.77644 19.7318 9.69422 19.7407 9.61241C19.7496 9.53059 19.7885 9.45496 19.8498 9.40008L20.6192 8.73341L20.1898 8.98141C20.1195 9.02194 20.0369 9.03545 19.9574 9.01941C19.8778 9.00336 19.8069 8.95887 19.7578 8.89427C19.7088 8.82966 19.6849 8.74938 19.6908 8.66847C19.6967 8.58755 19.7319 8.51157 19.7898 8.45474L20.0478 8.20274C19.9657 8.21054 19.8837 8.18669 19.8185 8.13608C19.7661 8.09546 19.727 8.04014 19.7063 7.97721C19.6855 7.91427 19.6839 7.84657 19.7018 7.78274L19.8725 7.17608C19.814 7.14666 19.7659 7.10016 19.7345 7.04274C19.6913 6.96649 19.6799 6.87631 19.7028 6.79172C19.7256 6.70713 19.7808 6.63493 19.8565 6.59074L20.1898 6.39808C20.2472 6.36489 20.3132 6.34958 20.3793 6.35409C20.4455 6.3586 20.5088 6.38274 20.5612 6.42341C20.6135 6.46403 20.6526 6.51935 20.6734 6.58228C20.6942 6.64522 20.6957 6.71292 20.6778 6.77674L20.5658 7.17674L21.9185 6.39474C21.9888 6.35422 22.0714 6.34071 22.1509 6.35675C22.2305 6.37279 22.3014 6.41729 22.3505 6.48189C22.3995 6.5465 22.4234 6.62678 22.4175 6.70769C22.4116 6.7886 22.3764 6.86459 22.3185 6.92141L22.1545 7.08208L23.3485 6.39274C23.4203 6.35212 23.5046 6.33956 23.5851 6.3575C23.6656 6.37543 23.7366 6.42259 23.7844 6.48984C23.8322 6.5571 23.8533 6.63967 23.8437 6.72161C23.8341 6.80354 23.7945 6.879 23.7325 6.93341L22.9645 7.59608L25.0538 6.38941C25.1257 6.348 25.2105 6.33489 25.2915 6.35264C25.3726 6.37039 25.4441 6.41772 25.4921 6.48539C25.5401 6.55306 25.5611 6.6362 25.5511 6.71856C25.5411 6.80092 25.5007 6.87658 25.4378 6.93074L23.6698 8.45208L27.2498 6.38608C27.3213 6.3447 27.4057 6.33136 27.4865 6.34864C27.5673 6.36593 27.6388 6.41261 27.6871 6.47962C27.7354 6.54664 27.7572 6.62922 27.748 6.71134C27.7389 6.79346 27.6997 6.86928 27.6378 6.92408L25.6132 8.72408L29.6698 6.38208C29.7429 6.3406 29.8289 6.32824 29.9107 6.34746C29.9924 6.36668 30.0639 6.41607 30.1109 6.48574C30.1578 6.55542 30.1767 6.64024 30.1638 6.72324C30.1508 6.80624 30.107 6.88131 30.0412 6.93341L28.7518 7.93674L31.4512 6.37874C31.5251 6.3373 31.612 6.32558 31.6943 6.34597C31.7766 6.36635 31.848 6.41732 31.894 6.48849C31.9401 6.55966 31.9572 6.64569 31.9421 6.72909C31.927 6.81248 31.8806 6.88697 31.8125 6.93741L31.6338 7.06674L31.8165 6.96141C31.8879 6.92027 31.9719 6.90701 32.0525 6.9242C32.133 6.94138 32.2044 6.98778 32.2528 7.05446C32.3011 7.12114 32.3231 7.20336 32.3144 7.28528C32.3058 7.3672 32.2671 7.443 32.2058 7.49808L30.7945 8.76474L31.8165 8.17541C31.8858 8.13577 31.9671 8.12236 32.0456 8.13762C32.124 8.15288 32.1943 8.1958 32.2437 8.25856C32.2932 8.32132 32.3184 8.39975 32.3149 8.47956C32.3114 8.55938 32.2793 8.63527 32.2245 8.69341L31.7392 9.20408L31.8058 9.16541C31.8438 9.14129 31.8862 9.1251 31.9305 9.1178C31.9749 9.11051 32.0203 9.11226 32.0639 9.12295C32.1076 9.13365 32.1487 9.15307 32.1846 9.18004C32.2206 9.20701 32.2507 9.24098 32.2732 9.2799C32.2957 9.31882 32.3101 9.36189 32.3155 9.40652C32.321 9.45115 32.3173 9.49641 32.3048 9.53959C32.2923 9.58277 32.2711 9.62296 32.2427 9.65776C32.2142 9.69256 32.179 9.72124 32.1392 9.74208L30.0765 10.9334C30.0071 10.9731 29.9258 10.9865 29.8474 10.9712C29.769 10.9559 29.6987 10.913 29.6492 10.8503C29.5998 10.7875 29.5745 10.7091 29.5781 10.6293C29.5816 10.5494 29.6137 10.4736 29.6685 10.4154L30.1538 9.90474L28.3718 10.9334C28.3009 10.9715 28.2187 10.9826 28.1402 10.9647C28.0618 10.9468 27.9924 10.9012 27.945 10.8362C27.8975 10.7712 27.8752 10.6913 27.8821 10.6111C27.889 10.531 27.9247 10.456 27.9825 10.4001L29.3932 9.13341L26.2698 10.9334C26.2186 10.9638 26.1601 10.9799 26.1005 10.9801Z" fill="#E1EFFF"/>
    <path d="M14.5998 38.3135C14.5271 38.3133 14.4564 38.2893 14.3986 38.2451C14.3408 38.201 14.299 38.1392 14.2796 38.0691C14.2602 37.999 14.2642 37.9245 14.2911 37.8569C14.318 37.7893 14.3662 37.7324 14.4285 37.6948L15.3332 37.1488L13.3932 38.2668C13.3172 38.3101 13.2273 38.3218 13.1428 38.2994C13.0583 38.2771 12.986 38.2224 12.9414 38.1472C12.8968 38.072 12.8836 37.9824 12.9045 37.8975C12.9254 37.8126 12.9788 37.7393 13.0532 37.6935L19.3832 33.8501L11.7332 38.2668C11.6575 38.3095 11.5681 38.3209 11.4841 38.2986C11.4 38.2763 11.3281 38.222 11.2835 38.1474C11.2389 38.0728 11.2252 37.9838 11.2453 37.8992C11.2654 37.8147 11.3178 37.7413 11.3912 37.6948L25.7005 28.8668L9.41784 38.2668C9.34226 38.3084 9.25349 38.3191 9.17019 38.2966C9.08689 38.2742 9.01555 38.2203 8.97117 38.1463C8.92679 38.0723 8.91283 37.984 8.93223 37.8999C8.95163 37.8158 9.00287 37.7425 9.07517 37.6955L27.0365 26.5595L7.06117 38.0921C6.98515 38.1373 6.89429 38.1504 6.80858 38.1286C6.72288 38.1068 6.64935 38.0518 6.60417 37.9758C6.559 37.8998 6.54588 37.8089 6.56769 37.7232C6.58951 37.6375 6.64448 37.564 6.72051 37.5188L20.1998 29.2915L6.85317 37.0001C6.77735 37.0414 6.68849 37.0516 6.60529 37.0286C6.52209 37.0057 6.45103 36.9514 6.40707 36.8771C6.36311 36.8028 6.34967 36.7144 6.36959 36.6304C6.3895 36.5464 6.44121 36.4734 6.51384 36.4268L13.1198 32.4355L6.85317 36.0535C6.77763 36.0933 6.68968 36.1026 6.60747 36.0795C6.52526 36.0563 6.45507 36.0025 6.41137 35.9291C6.36768 35.8558 6.35381 35.7684 6.37262 35.6851C6.39144 35.6018 6.44151 35.5289 6.51251 35.4815L18.5078 28.1215L6.85317 34.8468C6.77706 34.8918 6.68618 34.9047 6.60054 34.8827C6.5149 34.8607 6.44151 34.8056 6.39651 34.7295C6.35151 34.6534 6.33859 34.5625 6.3606 34.4768C6.3826 34.3912 6.43772 34.3178 6.51384 34.2728L9.76451 32.3088L6.85317 33.9888C6.77773 34.0297 6.68944 34.0399 6.60666 34.0173C6.52389 33.9947 6.45301 33.9411 6.40878 33.8676C6.36455 33.794 6.35037 33.7063 6.36919 33.6226C6.38802 33.5389 6.43839 33.4656 6.50984 33.4181L20.2812 24.7835L6.85317 32.5335C6.7776 32.5751 6.68883 32.5858 6.60552 32.5633C6.52222 32.5408 6.45088 32.4869 6.4065 32.4129C6.36212 32.3389 6.34817 32.2506 6.36756 32.1666C6.38696 32.0825 6.4382 32.0092 6.51051 31.9621L17.4785 25.1055L6.85317 31.2395C6.77723 31.285 6.68632 31.2985 6.60043 31.277C6.51453 31.2555 6.4407 31.2007 6.39517 31.1248C6.34965 31.0489 6.33615 30.9579 6.35765 30.8721C6.37916 30.7862 6.4339 30.7123 6.50984 30.6668L15.4785 25.0568L6.85317 30.0381C6.77775 30.0774 6.69017 30.0864 6.60835 30.0632C6.52653 30.04 6.45667 29.9864 6.41306 29.9134C6.36944 29.8404 6.35538 29.7535 6.37374 29.6705C6.39211 29.5875 6.44151 29.5146 6.51184 29.4668L10.9818 26.7035L6.85317 29.0855C6.77768 29.1258 6.68957 29.1355 6.60709 29.1127C6.52461 29.0898 6.45409 29.0361 6.41013 28.9626C6.36617 28.8892 6.35214 28.8017 6.37095 28.7182C6.38976 28.6347 6.43997 28.5616 6.51117 28.5141L10.0938 26.2928L6.85317 28.1635C6.77804 28.2037 6.69034 28.2136 6.60812 28.1912C6.52589 28.1687 6.45539 28.1157 6.41108 28.0429C6.36678 27.97 6.35206 27.883 6.36993 27.7997C6.3878 27.7164 6.43691 27.643 6.50717 27.5948L14.0538 22.7521L6.85317 26.9088C6.77797 26.9502 6.6897 26.9609 6.60676 26.9388C6.52382 26.9167 6.4526 26.8635 6.40792 26.7902C6.36325 26.7169 6.34856 26.6293 6.36693 26.5454C6.38529 26.4616 6.43529 26.388 6.50651 26.3401L12.3845 22.5575L6.85117 25.7508C6.77589 25.7937 6.68688 25.8055 6.603 25.7839C6.51912 25.7622 6.44696 25.7088 6.40181 25.6349C6.35665 25.5609 6.34205 25.4723 6.3611 25.3878C6.38014 25.3033 6.43134 25.2295 6.50384 25.1821L11.0032 22.2741L6.85317 24.6708C6.77849 24.7122 6.69077 24.7233 6.60812 24.7019C6.52546 24.6805 6.45417 24.6282 6.40894 24.5558C6.36372 24.4834 6.348 24.3964 6.36504 24.3127C6.38207 24.229 6.43056 24.1551 6.50051 24.1061L12.0052 20.3901L6.85317 23.3641C6.77802 23.4061 6.68954 23.4174 6.60625 23.3956C6.52296 23.3738 6.45133 23.3207 6.40636 23.2473C6.36138 23.1739 6.34655 23.0859 6.36497 23.0018C6.38339 22.9177 6.43363 22.844 6.50517 22.7961L7.94584 21.8581L6.85317 22.4881C6.77928 22.5287 6.69276 22.5397 6.61104 22.5191C6.52932 22.4984 6.45847 22.4475 6.41275 22.3767C6.36703 22.3059 6.34984 22.2204 6.36464 22.1374C6.37944 22.0544 6.42513 21.9801 6.49251 21.9295L10.5505 19.0181L6.85317 21.1515C6.77877 21.1942 6.69076 21.2065 6.60747 21.186C6.52417 21.1655 6.452 21.1136 6.40597 21.0412C6.35994 20.9688 6.34359 20.8815 6.36033 20.7973C6.37707 20.7132 6.42561 20.6387 6.49584 20.5895L8.06651 19.4921L6.85317 20.1928C6.78006 20.2337 6.69422 20.2456 6.61273 20.2261C6.53123 20.2066 6.46008 20.1572 6.41342 20.0876C6.36677 20.018 6.34804 19.9333 6.36097 19.8505C6.37389 19.7678 6.41752 19.6929 6.48317 19.6408L8.45784 18.1128L6.85317 19.0395C6.7836 19.0796 6.70185 19.0933 6.62298 19.078C6.54411 19.0627 6.47343 19.0194 6.42393 18.9561C6.37444 18.8929 6.34947 18.8138 6.35362 18.7336C6.35777 18.6534 6.39075 18.5773 6.44651 18.5195L8.08117 16.8228L6.85317 17.5335C6.79255 17.5686 6.72241 17.5837 6.6527 17.5767C6.583 17.5697 6.51728 17.5408 6.46488 17.4943C6.41248 17.4479 6.37606 17.386 6.3608 17.3177C6.34553 17.2493 6.35219 17.1778 6.37984 17.1135L6.80384 16.1261C6.73313 16.1437 6.65861 16.1377 6.59166 16.1089C6.52472 16.0801 6.46905 16.0302 6.43317 15.9668C6.38918 15.8903 6.37732 15.7995 6.40019 15.7143C6.42306 15.629 6.4788 15.5563 6.55517 15.5121L7.32917 15.0655C7.38972 15.0304 7.45978 15.0152 7.52942 15.0222C7.59906 15.0291 7.66475 15.0578 7.71717 15.1041C7.76972 15.1506 7.80626 15.2125 7.82158 15.281C7.8369 15.3495 7.83023 15.421 7.80251 15.4855L7.38717 16.4535L9.79251 15.0668C9.86202 15.0267 9.94368 15.0129 10.0225 15.0282C10.1013 15.0434 10.172 15.0866 10.2215 15.1497C10.2711 15.2129 10.2961 15.2918 10.2922 15.372C10.2882 15.4521 10.2554 15.5282 10.1998 15.5861L8.56517 17.2815L12.4038 15.0668C12.477 15.0251 12.5632 15.0125 12.6452 15.0318C12.7272 15.051 12.7989 15.1006 12.8458 15.1705C12.8927 15.2404 12.9115 15.3255 12.8983 15.4087C12.885 15.4918 12.8408 15.5669 12.7745 15.6188L10.7998 17.1461L14.3998 15.0668C14.4741 15.0246 14.5618 15.0126 14.6447 15.0332C14.7276 15.0538 14.7994 15.1055 14.8454 15.1775C14.8913 15.2495 14.9078 15.3364 14.8915 15.4203C14.8753 15.5041 14.8274 15.5785 14.7578 15.6281L13.1892 16.7248L16.0665 15.0668C16.1405 15.025 16.2278 15.013 16.3103 15.0334C16.3929 15.0537 16.4646 15.1049 16.5107 15.1764C16.5567 15.2478 16.5738 15.3342 16.5582 15.4178C16.5427 15.5014 16.4958 15.576 16.4272 15.6261L12.3678 18.5335L18.3778 15.0668C18.4529 15.0255 18.5409 15.0146 18.6237 15.0365C18.7066 15.0584 18.7778 15.1113 18.8226 15.1843C18.8675 15.2572 18.8825 15.3447 18.8646 15.4284C18.8467 15.5122 18.7973 15.5859 18.7265 15.6341L17.2838 16.5735L19.8952 15.0668C19.9697 15.0268 20.0566 15.0167 20.1383 15.0384C20.2201 15.0602 20.2905 15.1122 20.3353 15.1839C20.3801 15.2556 20.396 15.3416 20.3798 15.4246C20.3636 15.5076 20.3164 15.5813 20.2478 15.6308L14.7438 19.3475L22.1578 15.0668C22.233 15.0248 22.3215 15.0135 22.4048 15.0353C22.4881 15.0571 22.5597 15.1102 22.6047 15.1837C22.6496 15.2571 22.6645 15.345 22.646 15.4291C22.6276 15.5132 22.5774 15.5869 22.5058 15.6348L18.0078 18.5428L24.0285 15.0668C24.1037 15.0254 24.192 15.0147 24.2749 15.0368C24.3579 15.0589 24.4291 15.1121 24.4738 15.1854C24.5184 15.2587 24.5331 15.3464 24.5148 15.4302C24.4964 15.514 24.4464 15.5876 24.3752 15.6355L18.4945 19.4195L26.0352 15.0668C26.1103 15.0266 26.198 15.0167 26.2802 15.0391C26.3625 15.0615 26.433 15.1146 26.4773 15.1874C26.5216 15.2602 26.5363 15.3472 26.5184 15.4306C26.5006 15.5139 26.4514 15.5872 26.3812 15.6355L18.8298 20.4795L28.2085 15.0668C28.2841 15.0252 28.3729 15.0145 28.4562 15.037C28.5395 15.0594 28.6108 15.1133 28.6552 15.1873C28.6996 15.2613 28.7135 15.3496 28.6941 15.4337C28.6747 15.5178 28.6235 15.5911 28.5512 15.6381L24.9738 17.8555L29.8052 15.0668C29.8807 15.0265 29.9688 15.0167 30.0513 15.0396C30.1337 15.0625 30.2043 15.1162 30.2482 15.1896C30.2922 15.2631 30.3062 15.3506 30.2874 15.4341C30.2686 15.5176 30.2184 15.5906 30.1472 15.6381L25.6805 18.4021L31.4578 15.0688C31.5333 15.0279 31.6216 15.0177 31.7044 15.0403C31.7871 15.0629 31.858 15.1165 31.9022 15.1901C31.9465 15.2636 31.9606 15.3513 31.9418 15.435C31.923 15.5187 31.8726 15.592 31.8012 15.6395L22.8365 21.2421L33.5332 15.0668C33.6085 15.0271 33.6963 15.0177 33.7783 15.0406C33.8604 15.0635 33.9306 15.117 33.9745 15.19C34.0183 15.2631 34.0325 15.3502 34.0142 15.4334C33.9959 15.5166 33.9464 15.5896 33.8758 15.6375L22.9045 22.4981L35.7805 15.0668C35.856 15.0245 35.9451 15.0132 36.0288 15.0354C36.1124 15.0575 36.1842 15.1114 36.2289 15.1855C36.2736 15.2597 36.2877 15.3483 36.2682 15.4326C36.2487 15.517 36.1972 15.5904 36.1245 15.6375L22.3512 24.2721L38.2985 15.0668C38.3743 15.0256 38.4632 15.0154 38.5464 15.0383C38.6296 15.0613 38.7007 15.1156 38.7446 15.1899C38.7886 15.2641 38.802 15.3526 38.7821 15.4365C38.7622 15.5205 38.7105 15.5935 38.6378 15.6401L35.3998 17.5948L39.7832 15.0668C39.8588 15.0258 39.9474 15.0156 40.0303 15.0384C40.1133 15.0612 40.1842 15.1151 40.2283 15.189C40.2724 15.2629 40.2862 15.351 40.2669 15.4348C40.2475 15.5186 40.1965 15.5917 40.1245 15.6388L28.1332 22.9955L41.8665 15.0668C41.9423 15.0256 42.0312 15.0154 42.1144 15.0383C42.1976 15.0613 42.2687 15.1156 42.3126 15.1899C42.3566 15.2641 42.37 15.3526 42.3501 15.4365C42.3302 15.5205 42.2785 15.5935 42.2058 15.6401L35.5952 19.6335L43.5078 15.0668C43.5835 15.0264 43.6719 15.0166 43.7545 15.0397C43.8372 15.0628 43.9078 15.1168 43.9516 15.1906C43.9954 15.2644 44.0091 15.3522 43.9897 15.4358C43.9704 15.5195 43.9196 15.5924 43.8478 15.6395L30.3665 23.8668L45.0552 15.3868C45.131 15.3414 45.2218 15.3279 45.3076 15.3494C45.3934 15.3709 45.4671 15.4256 45.5125 15.5015C45.558 15.5773 45.5714 15.6681 45.5499 15.7539C45.5284 15.8396 45.4737 15.9134 45.3978 15.9588L27.4378 27.0921L45.1465 16.8715C45.2221 16.8305 45.3107 16.8203 45.3937 16.8431C45.4766 16.8658 45.5476 16.9198 45.5916 16.9937C45.6357 17.0676 45.6495 17.1556 45.6302 17.2395C45.6109 17.3233 45.5598 17.3964 45.4878 17.4435L31.1732 26.2748L45.1465 18.2081C45.2223 18.1669 45.3112 18.1567 45.3944 18.1796C45.4776 18.2026 45.5487 18.2569 45.5926 18.3312C45.6366 18.4055 45.65 18.4939 45.6301 18.5779C45.6102 18.6619 45.5585 18.7348 45.4858 18.7815L39.1525 22.6268L45.1465 19.1668C45.2222 19.1269 45.3104 19.1176 45.3928 19.1409C45.4752 19.1643 45.5454 19.2184 45.589 19.2921C45.6325 19.3658 45.646 19.4535 45.6267 19.5369C45.6074 19.6203 45.5567 19.6931 45.4852 19.7401L44.5852 20.2835L45.1465 19.9595C45.2221 19.9178 45.3109 19.9071 45.3942 19.9296C45.4775 19.9521 45.5488 20.006 45.5932 20.08C45.6376 20.154 45.6515 20.2423 45.6321 20.3264C45.6127 20.4105 45.5615 20.4837 45.4892 20.5308L33.6225 27.9308L45.1465 21.2808C45.2219 21.2411 45.3096 21.2317 45.3917 21.2546C45.4737 21.2775 45.5439 21.331 45.5878 21.404C45.6317 21.4771 45.6459 21.5642 45.6275 21.6474C45.6092 21.7306 45.5597 21.8036 45.4892 21.8515L35.3418 28.1961L45.1465 22.5335C45.2216 22.4932 45.3093 22.4833 45.3916 22.5058C45.4738 22.5282 45.5443 22.5813 45.5886 22.6541C45.6329 22.7269 45.6476 22.8139 45.6298 22.8972C45.6119 22.9806 45.5628 23.0539 45.4925 23.1021L33.9532 30.5001L45.1465 24.0381C45.2218 23.9973 45.3098 23.9871 45.3925 24.0095C45.4751 24.0318 45.5459 24.0851 45.5903 24.1583C45.6347 24.2315 45.6493 24.319 45.6309 24.4026C45.6126 24.4862 45.5628 24.5596 45.4918 24.6075L36.9865 30.0235L45.1465 25.3135C45.2219 25.2742 45.3095 25.2652 45.3913 25.2884C45.4732 25.3116 45.543 25.3652 45.5866 25.4382C45.6302 25.5112 45.6443 25.5981 45.6259 25.6811C45.6076 25.7641 45.5582 25.837 45.4878 25.8848L44.1332 26.7235L45.1465 26.1388C45.2219 26.0927 45.3126 26.0784 45.3985 26.099C45.4845 26.1197 45.5587 26.1737 45.6048 26.2491C45.651 26.3245 45.6653 26.4152 45.6446 26.5012C45.6239 26.5871 45.5699 26.6613 45.4945 26.7075L38.4765 31.2595L45.1432 27.4081C45.2187 27.365 45.308 27.3531 45.3922 27.3749C45.4763 27.3967 45.5486 27.4505 45.5937 27.5248C45.6387 27.5992 45.6529 27.6882 45.6333 27.7729C45.6136 27.8575 45.5617 27.9312 45.4885 27.9781L42.2745 30.0268L45.1465 28.3695C45.2209 28.3285 45.3082 28.3175 45.3905 28.3386C45.4727 28.3598 45.5438 28.4116 45.5892 28.4835C45.6345 28.5553 45.6507 28.6417 45.6345 28.7251C45.6183 28.8085 45.5708 28.8826 45.5018 28.9321L38.9332 33.4468L45.1472 29.8595C45.2214 29.8159 45.3095 29.8028 45.3932 29.8227C45.4768 29.8426 45.5496 29.8942 45.5961 29.9665C45.6427 30.0388 45.6595 30.1263 45.6431 30.2107C45.6266 30.2951 45.5782 30.3699 45.5078 30.4195L40.1398 34.2555L45.1465 31.3648C45.2214 31.3222 45.3099 31.3102 45.3935 31.3315C45.477 31.3527 45.5491 31.4055 45.5945 31.4787C45.64 31.552 45.6553 31.64 45.6373 31.7243C45.6193 31.8085 45.5693 31.8826 45.4978 31.9308L44.6825 32.4728L45.1492 32.2061C45.2232 32.1658 45.3098 32.155 45.3915 32.1759C45.4732 32.1968 45.544 32.248 45.5894 32.319C45.6349 32.39 45.6518 32.4757 45.6367 32.5586C45.6215 32.6416 45.5755 32.7158 45.5078 32.7661L43.6998 34.0435L45.1492 33.2075C45.2233 33.1667 45.3102 33.1557 45.3922 33.1767C45.4741 33.1976 45.5451 33.2489 45.5906 33.3202C45.6361 33.3915 45.6528 33.4775 45.6373 33.5607C45.6219 33.6438 45.5753 33.718 45.5072 33.7681L45.2105 33.9768C45.2856 33.9516 45.3672 33.954 45.4407 33.9835C45.5142 34.0131 45.5747 34.0678 45.6115 34.1379C45.6484 34.208 45.659 34.2889 45.6416 34.3662C45.6242 34.4434 45.5798 34.5119 45.5165 34.5595L44.9672 34.9735L45.1492 34.8688C45.2219 34.8275 45.3075 34.8151 45.389 34.8339C45.4705 34.8528 45.5419 34.9016 45.589 34.9707C45.6362 35.0398 45.6557 35.124 45.6436 35.2068C45.6315 35.2896 45.5888 35.3648 45.5238 35.4175L45.2852 35.6081C45.335 35.6049 45.3849 35.6123 45.4317 35.6297C45.4785 35.6472 45.521 35.6744 45.5565 35.7095C45.6083 35.7634 45.6404 35.8331 45.6478 35.9074C45.6552 35.9818 45.6373 36.0565 45.5972 36.1195L45.0278 37.0101L45.1498 36.9395C45.2265 36.8953 45.3176 36.8833 45.403 36.9063C45.4885 36.9292 45.5613 36.9852 45.6055 37.0618C45.6497 37.1384 45.6617 37.2295 45.6387 37.315C45.6158 37.4004 45.5598 37.4733 45.4832 37.5175L44.1778 38.2668C44.1133 38.3038 44.0383 38.3182 43.9646 38.3076C43.891 38.2971 43.823 38.2622 43.7715 38.2085C43.72 38.1549 43.6879 38.0855 43.6804 38.0115C43.6728 37.9375 43.6902 37.8631 43.7298 37.8001L44.2972 36.9108L41.9472 38.2668C41.8744 38.3089 41.7885 38.3219 41.7065 38.3033C41.6245 38.2847 41.5526 38.2358 41.5052 38.1665C41.4577 38.0971 41.4382 38.0124 41.4506 37.9292C41.4629 37.8461 41.5063 37.7707 41.5718 37.7181L41.6538 37.6515L40.5872 38.2661C40.5137 38.3082 40.427 38.3208 40.3446 38.3013C40.2622 38.2817 40.1903 38.2316 40.1436 38.161C40.0968 38.0904 40.0787 38.0046 40.0928 37.9211C40.107 37.8377 40.1524 37.7627 40.2198 37.7115L40.7658 37.2995L39.0945 38.2668C39.0203 38.3085 38.933 38.3202 38.8504 38.2996C38.7679 38.2789 38.6963 38.2275 38.6505 38.1558C38.6046 38.0841 38.5879 37.9976 38.6038 37.914C38.6196 37.8304 38.6669 37.756 38.7358 37.7061L38.9732 37.5395L37.7118 38.2668C37.6378 38.3072 37.5512 38.318 37.4695 38.297C37.3878 38.2761 37.3171 38.225 37.2716 38.1539C37.2261 38.0829 37.2092 37.9973 37.2244 37.9143C37.2395 37.8313 37.2855 37.7572 37.3532 37.7068L39.1592 36.4301L35.9785 38.2668C35.9037 38.3087 35.8156 38.3202 35.7326 38.2989C35.6495 38.2775 35.5779 38.225 35.5325 38.1522C35.4872 38.0794 35.4717 37.992 35.4892 37.908C35.5067 37.8241 35.5559 37.7501 35.6265 37.7015L36.4425 37.1581L34.5212 38.2668C34.4471 38.3086 34.3599 38.3206 34.2773 38.3002C34.1948 38.2799 34.1231 38.2287 34.077 38.1572C34.0309 38.0858 34.0139 37.9994 34.0294 37.9158C34.045 37.8322 34.0918 37.7576 34.1605 37.7075L39.5285 33.8715L31.9138 38.2668C31.8394 38.3078 31.7522 38.3188 31.6699 38.2976C31.5876 38.2764 31.5166 38.2246 31.4712 38.1528C31.4258 38.081 31.4096 37.9945 31.4258 37.9111C31.4421 37.8278 31.4895 37.7537 31.5585 37.7041L38.1258 33.1901L29.3332 38.2668C29.2578 38.3089 29.1691 38.3202 29.0856 38.2982C29.0022 38.2762 28.9305 38.2227 28.8857 38.149C28.8409 38.0752 28.8264 37.9869 28.8453 37.9027C28.8642 37.8185 28.9151 37.7449 28.9872 37.6975L32.2032 35.6501L27.6665 38.2668C27.5913 38.3106 27.5019 38.3231 27.4175 38.3019C27.3331 38.2806 27.2604 38.2272 27.2149 38.153C27.1693 38.0789 27.1546 37.9898 27.1739 37.9049C27.1931 37.8201 27.2448 37.7461 27.3178 37.6988L34.3385 33.1461L25.4698 38.2668C25.3943 38.3071 25.3062 38.3169 25.2238 38.294C25.1413 38.2711 25.0708 38.2174 25.0268 38.144C24.9828 38.0705 24.9688 37.983 24.9876 37.8995C25.0064 37.816 25.0566 37.743 25.1278 37.6955L26.4812 36.8581L24.0405 38.2668C23.9652 38.3089 23.8764 38.3202 23.793 38.2982C23.7095 38.2762 23.6378 38.2227 23.593 38.149C23.5482 38.0752 23.5337 37.9869 23.5527 37.9027C23.5716 37.8185 23.6224 37.7449 23.6945 37.6975L32.2032 32.2801L21.8305 38.2668C21.7554 38.307 21.6677 38.3169 21.5855 38.2945C21.5032 38.2721 21.4327 38.219 21.3884 38.1462C21.3441 38.0734 21.3294 37.9864 21.3473 37.903C21.3651 37.8197 21.4142 37.7464 21.4845 37.6981L33.0218 30.3048L19.2285 38.2668C19.1531 38.3077 19.0648 38.3179 18.982 38.2953C18.8992 38.2727 18.8283 38.2191 18.7841 38.1456C18.7399 38.072 18.7257 37.9843 18.7445 37.9006C18.7634 37.8169 18.8137 37.7436 18.8852 37.6961L29.0398 31.3488L17.0545 38.2668C16.9791 38.3077 16.8908 38.3179 16.808 38.2953C16.7252 38.2727 16.6543 38.2191 16.6101 38.1456C16.5659 38.072 16.5517 37.9843 16.5705 37.9006C16.5893 37.8169 16.6397 37.7436 16.7112 37.6961L28.5778 30.2961L14.7665 38.2668C14.716 38.2968 14.6585 38.3129 14.5998 38.3135Z" fill="#AADE62"/>
    <path d="M16.9892 35.6468C16.9166 35.6468 16.8459 35.6231 16.788 35.5793C16.7301 35.5356 16.6881 35.4741 16.6683 35.4042C16.6485 35.3343 16.6521 35.2599 16.6785 35.1923C16.7049 35.1246 16.7527 35.0675 16.8145 35.0294L20.4812 32.7681L15.5712 35.6001C15.4958 35.6399 15.4081 35.6492 15.326 35.6263C15.2439 35.6034 15.1738 35.5499 15.1299 35.4769C15.086 35.4038 15.0718 35.3167 15.0902 35.2335C15.1085 35.1503 15.158 35.0773 15.2285 35.0294L22.8592 30.2668L13.7839 35.5068C13.7083 35.5527 13.6175 35.5666 13.5317 35.5456C13.4458 35.5246 13.3717 35.4704 13.3259 35.3948C13.28 35.3192 13.266 35.2285 13.287 35.1426C13.308 35.0567 13.3623 34.9827 13.4379 34.9368L25.9112 26.9821L13.2865 34.2668C13.2109 34.3078 13.1223 34.318 13.0394 34.2952C12.9564 34.2724 12.8855 34.2184 12.8414 34.1446C12.7973 34.0707 12.7835 33.9826 12.8028 33.8988C12.8222 33.815 12.8732 33.7419 12.9452 33.6948L17.5945 30.8388L12.9339 33.5334C12.8582 33.5771 12.7684 33.5893 12.6838 33.5674C12.5992 33.5455 12.5266 33.4913 12.4816 33.4164C12.4366 33.3415 12.4228 33.2519 12.4432 33.167C12.4636 33.082 12.5165 33.0085 12.5905 32.9621L21.2472 27.5388L12.2732 32.7168C12.1977 32.7571 12.1096 32.7668 12.0271 32.744C11.9446 32.7211 11.8741 32.6674 11.8301 32.594C11.7862 32.5205 11.7722 32.433 11.791 32.3495C11.8098 32.266 11.86 32.1929 11.9312 32.1454L17.3159 28.8041L11.5199 32.1501C11.4446 32.193 11.3556 32.2048 11.2717 32.1832C11.1878 32.1615 11.1156 32.1081 11.0705 32.0342C11.0253 31.9602 11.0107 31.8716 11.0298 31.7871C11.0488 31.7026 11.1 31.6289 11.1725 31.5814L21.2719 25.0668L9.94185 31.6074C9.86659 31.6482 9.77852 31.6585 9.6959 31.6361C9.61327 31.6137 9.54242 31.5604 9.49803 31.4872C9.45363 31.4141 9.4391 31.3266 9.45743 31.243C9.47577 31.1594 9.52557 31.086 9.59652 31.0381L17.7039 25.8668L9.52052 30.5921C9.44542 30.6348 9.35668 30.6467 9.273 30.6252C9.18932 30.6038 9.11723 30.5507 9.07194 30.4771C9.02664 30.4035 9.01168 30.3153 9.03019 30.2309C9.0487 30.1465 9.09925 30.0726 9.17119 30.0248L18.2279 24.0728L9.52052 29.0994C9.44554 29.1414 9.35727 29.1527 9.27412 29.1312C9.19096 29.1096 9.11934 29.0568 9.0742 28.9837C9.02906 28.9106 9.01387 28.8229 9.03182 28.7389C9.04977 28.6549 9.09945 28.581 9.17052 28.5328L16.0672 23.9941L9.52052 27.7721C9.44531 27.8135 9.35705 27.8242 9.27411 27.8021C9.19117 27.7801 9.11995 27.7268 9.07527 27.6535C9.03059 27.5803 9.01591 27.4926 9.03427 27.4087C9.05264 27.3249 9.10263 27.2513 9.17385 27.2034L12.2625 25.2154L9.52052 26.8001C9.44583 26.8415 9.35812 26.8526 9.27546 26.8312C9.19281 26.8098 9.12152 26.7575 9.07629 26.6851C9.03106 26.6127 9.01535 26.5257 9.03238 26.442C9.04942 26.3583 9.09791 26.2844 9.16785 26.2354L13.7739 23.1334L9.52052 25.5868C9.44611 25.6295 9.35811 25.6418 9.27481 25.6213C9.19152 25.6008 9.11935 25.5489 9.07331 25.4765C9.02728 25.4041 9.01094 25.3168 9.02768 25.2326C9.04442 25.1485 9.09295 25.074 9.16319 25.0248L13.1632 22.2394L9.52052 24.3421C9.446 24.3855 9.35758 24.3983 9.27382 24.3778C9.19007 24.3574 9.11749 24.3053 9.07133 24.2325C9.02517 24.1596 9.00902 24.0718 9.02627 23.9873C9.04353 23.9028 9.09284 23.8283 9.16385 23.7794L11.2619 22.3241L9.51985 23.3294C9.44712 23.3707 9.36152 23.3832 9.28004 23.3643C9.19856 23.3454 9.12715 23.2966 9.07999 23.2276C9.03282 23.1585 9.01335 23.0742 9.02542 22.9914C9.0375 22.9087 9.08025 22.8335 9.14519 22.7808L12.8859 19.7848C12.8589 19.768 12.8343 19.7478 12.8125 19.7248C12.7613 19.6684 12.7308 19.5962 12.7264 19.5201C12.7219 19.4441 12.7436 19.3688 12.7879 19.3068L13.1799 18.7554C13.1285 18.7267 13.0857 18.6848 13.0558 18.6342C13.0258 18.5835 13.0099 18.5258 13.0094 18.4669C13.009 18.4081 13.0242 18.3502 13.0535 18.2991C13.0827 18.248 13.1249 18.2056 13.1759 18.1761L13.9445 17.7321C14.0104 17.6944 14.0871 17.6804 14.162 17.6922C14.2369 17.704 14.3055 17.741 14.3566 17.7971C14.4076 17.8532 14.438 17.925 14.4427 18.0007C14.4474 18.0764 14.4262 18.1514 14.3825 18.2134L14.2172 18.4468L15.4559 17.7334C15.5286 17.6921 15.6142 17.6797 15.6957 17.6986C15.7771 17.7174 15.8486 17.7663 15.8957 17.8353C15.9429 17.9044 15.9624 17.9887 15.9503 18.0714C15.9382 18.1542 15.8955 18.2294 15.8305 18.2821L12.9845 20.5601L17.8839 17.7334C17.9582 17.6919 18.0457 17.6804 18.1282 17.7013C18.2108 17.7222 18.2822 17.7739 18.3279 17.8458C18.3735 17.9177 18.3899 18.0044 18.3737 18.088C18.3574 18.1716 18.3098 18.2458 18.2405 18.2954L16.1445 19.7501L19.6379 17.7334C19.7121 17.6923 19.7992 17.6811 19.8815 17.702C19.9638 17.7229 20.0349 17.7745 20.0805 17.8461C20.1261 17.9177 20.1426 18.0039 20.1268 18.0873C20.1109 18.1707 20.0639 18.2449 19.9952 18.2948L15.9952 21.0794L21.7932 17.7334C21.8679 17.6908 21.9563 17.6788 22.0397 17.6998C22.1231 17.7208 22.1952 17.7733 22.2408 17.8462C22.2864 17.9192 22.3021 18.0069 22.2845 18.0911C22.267 18.1753 22.2175 18.2495 22.1465 18.2981L17.5432 21.4001L23.8912 17.7334C23.9664 17.6921 24.0547 17.6813 24.1376 17.7034C24.2205 17.7255 24.2918 17.7787 24.3364 17.852C24.3811 17.9253 24.3958 18.013 24.3774 18.0968C24.3591 18.1807 24.3091 18.2542 24.2379 18.3021L21.1412 20.2934L25.5792 17.7334C25.6542 17.6899 25.7433 17.6774 25.8274 17.6985C25.9116 17.7196 25.9842 17.7726 26.0298 17.8464C26.0755 17.9202 26.0906 18.0088 26.0719 18.0935C26.0532 18.1783 26.0023 18.2524 25.9299 18.3001L19.0365 22.8374L27.8779 17.7334C27.9528 17.6915 28.0411 17.6801 28.1243 17.7017C28.2074 17.7233 28.279 17.7761 28.3242 17.8492C28.3693 17.9223 28.3845 18.01 28.3666 18.094C28.3486 18.178 28.2989 18.2518 28.2279 18.3001L19.1692 24.2534L30.4632 17.7334C30.5385 17.6913 30.6273 17.6801 30.7107 17.7021C30.7942 17.724 30.8659 17.7775 30.9107 17.8513C30.9555 17.925 30.97 18.0133 30.951 18.0975C30.9321 18.1817 30.8813 18.2553 30.8092 18.3028L22.7059 23.4668L32.6432 17.7334C32.7183 17.6927 32.8061 17.6823 32.8886 17.7045C32.9712 17.7266 33.042 17.7796 33.0866 17.8525C33.1311 17.9254 33.146 18.0126 33.1282 18.0961C33.1103 18.1797 33.061 18.2532 32.9905 18.3014L22.8879 24.8174L35.1612 17.7334C35.2368 17.6918 35.3255 17.6811 35.4088 17.7036C35.4921 17.7261 35.5635 17.78 35.6079 17.854C35.6522 17.928 35.6662 18.0163 35.6468 18.1004C35.6274 18.1844 35.5762 18.2577 35.5039 18.3048L30.1239 21.6434L36.8965 17.7334C36.972 17.6926 37.0603 17.6824 37.143 17.705C37.2258 17.7275 37.2967 17.7812 37.3409 17.8547C37.3851 17.9282 37.3993 18.016 37.3805 18.0997C37.3617 18.1834 37.3113 18.2566 37.2399 18.3041L28.5885 23.7234L38.4299 18.0421C38.5054 18.0023 38.5933 17.993 38.6756 18.0161C38.7578 18.0393 38.828 18.0931 38.8717 18.1664C38.9154 18.2398 38.9292 18.3271 38.9104 18.4104C38.8916 18.4937 38.8415 18.5666 38.7705 18.6141L34.1185 21.4721L38.6519 18.8554C38.7273 18.8123 38.8167 18.8004 38.9008 18.8222C38.985 18.844 39.0573 18.8978 39.1023 18.9721C39.1474 19.0465 39.1616 19.1355 39.142 19.2202C39.1223 19.3049 39.0704 19.3785 38.9972 19.4254L26.5245 27.3794L39.2305 20.0461C39.3061 20.0045 39.3949 19.9938 39.4782 20.0163C39.5615 20.0387 39.6328 20.0926 39.6772 20.1666C39.7216 20.2406 39.7355 20.3289 39.7161 20.413C39.6967 20.4971 39.6455 20.5704 39.5732 20.6174L31.9339 25.3868L39.9139 20.7801C39.9896 20.7374 40.079 20.7261 40.163 20.7483C40.247 20.7706 40.319 20.8249 40.3636 20.8995C40.4082 20.9741 40.4219 21.0631 40.4017 21.1477C40.3816 21.2322 40.3293 21.3056 40.2559 21.3521L36.6005 23.6061L40.6439 21.2728C40.7199 21.2276 40.8107 21.2145 40.8964 21.2363C40.9822 21.2581 41.0557 21.3131 41.1009 21.3891C41.146 21.4651 41.1592 21.556 41.1373 21.6417C41.1155 21.7274 41.0606 21.8009 40.9845 21.8461L40.5845 22.0921L41.4512 21.5914C41.5263 21.5512 41.614 21.5413 41.6962 21.5637C41.7785 21.5862 41.849 21.6392 41.8933 21.712C41.9376 21.7849 41.9523 21.8719 41.9344 21.9552C41.9166 22.0385 41.8674 22.1119 41.7972 22.1601L33.2972 27.5894L42.4672 22.2921C42.5429 22.2485 42.6327 22.2363 42.7172 22.2582C42.8018 22.2801 42.8744 22.3343 42.9194 22.4092C42.9644 22.4841 42.9782 22.5736 42.9578 22.6586C42.9375 22.7435 42.8846 22.8171 42.8105 22.8634L38.8452 25.3388L42.4779 23.2414C42.553 23.1987 42.6417 23.1869 42.7254 23.2083C42.8091 23.2298 42.8811 23.2829 42.9264 23.3564C42.9717 23.43 42.9867 23.5183 42.9682 23.6027C42.9497 23.687 42.8991 23.7609 42.8272 23.8088L34.6272 29.1914L42.4812 24.6581C42.556 24.6162 42.6441 24.6047 42.7271 24.626C42.8102 24.6474 42.8818 24.6999 42.9271 24.7727C42.9725 24.8455 42.988 24.9329 42.9705 25.0169C42.953 25.1008 42.9038 25.1748 42.8332 25.2234L35.6005 30.0768L42.4832 26.1034C42.5579 26.0608 42.6463 26.0488 42.7297 26.0698C42.8131 26.0908 42.8852 26.1433 42.9308 26.2162C42.9764 26.2892 42.9921 26.3769 42.9745 26.4611C42.957 26.5453 42.9075 26.6195 42.8365 26.6681L37.4319 30.3214L42.4832 27.4054C42.5579 27.3641 42.6456 27.3529 42.7282 27.3743C42.8109 27.3957 42.8822 27.448 42.9274 27.5205C42.9726 27.5929 42.9884 27.6799 42.9713 27.7635C42.9543 27.8472 42.9058 27.9211 42.8359 27.9701L39.4272 30.2714L42.4832 28.5074C42.5571 28.466 42.6441 28.4543 42.7263 28.4747C42.8086 28.495 42.88 28.546 42.9261 28.6172C42.9721 28.6884 42.9893 28.7744 42.9741 28.8578C42.959 28.9412 42.9126 29.0157 42.8445 29.0661L39.1699 31.7128L42.4805 29.8001C42.5549 29.7567 42.6431 29.7437 42.7268 29.7639C42.8105 29.7841 42.8832 29.8359 42.9295 29.9085C42.9759 29.981 42.9924 30.0687 42.9755 30.1531C42.9587 30.2376 42.9098 30.3122 42.8392 30.3614L41.4545 31.3368L42.2865 30.8568C42.3593 30.816 42.4447 30.804 42.526 30.8232C42.6072 30.8423 42.6782 30.8912 42.7251 30.9602C42.772 31.0292 42.7913 31.1133 42.7793 31.1959C42.7672 31.2784 42.7246 31.3534 42.6599 31.4061L39.0552 34.2601C39.0925 34.3361 39.0995 34.4235 39.0747 34.5045C39.05 34.5854 38.9953 34.654 38.9219 34.6961L37.3545 35.6001C37.2817 35.6409 37.1963 35.6529 37.1151 35.6337C37.0339 35.6146 36.9628 35.5657 36.9159 35.4967C36.869 35.4277 36.8497 35.3436 36.8618 35.261C36.8739 35.1785 36.9165 35.1034 36.9812 35.0508L38.6732 33.7108L35.4005 35.6001C35.3263 35.6418 35.239 35.6535 35.1564 35.6329C35.0739 35.6122 35.0023 35.5608 34.9565 35.4891C34.9106 35.4174 34.8939 35.3309 34.9098 35.2473C34.9256 35.1637 34.9729 35.0893 35.0419 35.0394L36.4239 34.0661L33.7645 35.5994C33.6906 35.6409 33.6036 35.6526 33.5214 35.6322C33.4391 35.6118 33.3677 35.5609 33.3216 35.4897C33.2756 35.4185 33.2584 35.3325 33.2736 35.2491C33.2887 35.1657 33.3351 35.0912 33.4032 35.0408L37.0785 32.3934L31.5252 35.6001C31.4507 35.6401 31.3637 35.6502 31.282 35.6285C31.2003 35.6067 31.1299 35.5548 31.0851 35.4831C31.0402 35.4114 31.0243 35.3253 31.0406 35.2423C31.0568 35.1593 31.104 35.0856 31.1725 35.0361L34.5852 32.7334L29.6165 35.6001C29.5419 35.641 29.4546 35.6518 29.3723 35.6304C29.29 35.6089 29.219 35.5569 29.1738 35.4848C29.1287 35.4127 29.1128 35.3261 29.1294 35.2427C29.146 35.1593 29.1939 35.0854 29.2632 35.0361L34.6672 31.3848L27.3619 35.6001C27.2872 35.6405 27.2 35.6508 27.118 35.6291C27.036 35.6074 26.9653 35.5552 26.9204 35.4832C26.8755 35.4112 26.8598 35.3248 26.8764 35.2416C26.893 35.1584 26.9408 35.0847 27.0099 35.0354L34.2465 30.1794L24.8565 35.6001C24.7816 35.6409 24.6939 35.6514 24.6115 35.6294C24.5291 35.6075 24.4582 35.5548 24.4134 35.4822C24.3687 35.4096 24.3535 35.3226 24.3709 35.2392C24.3883 35.1557 24.4371 35.0821 24.5072 35.0334L32.7072 29.6514L22.4039 35.6001C22.3285 35.6399 22.2408 35.6492 22.1587 35.6263C22.0766 35.6034 22.0064 35.5499 21.9626 35.4769C21.9187 35.4038 21.9045 35.3167 21.9228 35.2335C21.9412 35.1503 21.9907 35.0773 22.0612 35.0294L26.0232 32.5561L20.7499 35.6001C20.6746 35.6415 20.5864 35.6522 20.5034 35.6301C20.4205 35.6081 20.3493 35.5548 20.3046 35.4815C20.2599 35.4083 20.2452 35.3206 20.2636 35.2367C20.282 35.1529 20.332 35.0793 20.4032 35.0314L28.9032 29.6021L18.5139 35.6021C18.4381 35.644 18.349 35.6548 18.2654 35.6321C18.1818 35.6095 18.1104 35.5552 18.0661 35.4808C18.0218 35.4064 18.0083 35.3177 18.0282 35.2334C18.0482 35.1492 18.1002 35.076 18.1732 35.0294L18.5732 34.7834L17.1559 35.6001C17.1054 35.6301 17.0479 35.6462 16.9892 35.6468Z" fill="#AADE62"/>
    <path d="M14.1454 28.9708C14.0835 28.9708 14.0228 28.9536 13.9701 28.921C13.9175 28.8885 13.8749 28.8419 13.8472 28.7866C13.8195 28.7312 13.8078 28.6692 13.8134 28.6075C13.8189 28.5459 13.8416 28.487 13.8787 28.4375L14.688 27.3608L12.8467 28.4241C12.7783 28.4638 12.6981 28.4779 12.6203 28.4639C12.5425 28.4499 12.4722 28.4087 12.422 28.3476C12.3718 28.2866 12.3449 28.2097 12.3461 28.1307C12.3473 28.0516 12.3766 27.9756 12.4287 27.9161L13.71 26.4495L12.224 27.3048C12.1576 27.343 12.0801 27.3571 12.0046 27.3448C11.929 27.3326 11.8599 27.2947 11.809 27.2375C11.7581 27.1803 11.7284 27.1073 11.7249 27.0309C11.7215 26.9544 11.7445 26.879 11.79 26.8175L12.5507 25.7935C12.4733 25.8266 12.3862 25.8293 12.3069 25.8008C12.2276 25.7724 12.162 25.715 12.1234 25.6401C12.0847 25.5653 12.0758 25.4786 12.0984 25.3975C12.121 25.3164 12.1735 25.2468 12.2454 25.2028L13.612 24.4135C13.6785 24.375 13.7562 24.3607 13.832 24.3729C13.9078 24.3851 13.977 24.4231 14.0281 24.4805C14.0791 24.5378 14.1087 24.6111 14.112 24.6878C14.1153 24.7645 14.092 24.84 14.046 24.9015L13.2874 25.9215L15.1114 24.8668C15.1797 24.8275 15.2597 24.8137 15.3372 24.8278C15.4147 24.8419 15.4847 24.883 15.5348 24.9438C15.5849 25.0046 15.6118 25.0812 15.6108 25.16C15.6098 25.2387 15.581 25.3146 15.5294 25.3741L14.248 26.8408L15.7687 25.9628C15.8353 25.9241 15.9132 25.9096 15.9892 25.9219C16.0653 25.9341 16.1347 25.9723 16.1858 26.03C16.2369 26.0876 16.2664 26.1612 16.2693 26.2382C16.2723 26.3151 16.2485 26.3907 16.202 26.4521L15.3927 27.5335L15.4727 27.4875C15.5106 27.4652 15.5526 27.4507 15.5961 27.4448C15.6397 27.4388 15.684 27.4415 15.7265 27.4528C15.769 27.464 15.8088 27.4835 15.8438 27.5102C15.8787 27.537 15.908 27.5703 15.9299 27.6084C15.9519 27.6464 15.9662 27.6885 15.9718 27.7321C15.9775 27.7757 15.9745 27.82 15.963 27.8624C15.9514 27.9048 15.9317 27.9445 15.9047 27.9793C15.8778 28.014 15.8442 28.0431 15.806 28.0648L14.312 28.9275C14.2614 28.9566 14.2038 28.9716 14.1454 28.9708Z" fill="#AADE62"/>
    <path d="M37.6746 28.9501C37.6116 28.9502 37.5498 28.9324 37.4965 28.8988C37.4432 28.8653 37.4004 28.8172 37.3733 28.7604C37.3461 28.7035 37.3357 28.6401 37.3431 28.5775C37.3505 28.5149 37.3755 28.4557 37.4152 28.4068L38.4499 27.1295L36.6192 28.1861C36.5491 28.2255 36.4671 28.2383 36.3884 28.222C36.3096 28.2057 36.2394 28.1615 36.1907 28.0975C36.1419 28.0335 36.118 27.9541 36.1232 27.8738C36.1285 27.7935 36.1626 27.7179 36.2193 27.6608L37.1846 26.7041L36.2159 27.2635C36.1492 27.3017 36.0714 27.3157 35.9955 27.3031C35.9197 27.2905 35.8505 27.2521 35.7998 27.1944C35.749 27.1366 35.7198 27.0631 35.717 26.9863C35.7142 26.9095 35.7381 26.834 35.7846 26.7728L36.5179 25.8068C36.4398 25.8327 36.3548 25.8287 36.2794 25.7956C36.204 25.7626 36.1435 25.7028 36.1095 25.6278C36.0756 25.5528 36.0706 25.4678 36.0955 25.3894C36.1205 25.3109 36.1736 25.2444 36.2446 25.2028L37.6112 24.4135C37.6779 24.3752 37.7557 24.3611 37.8315 24.3736C37.9074 24.3861 37.9765 24.4244 38.0274 24.482C38.0782 24.5397 38.1075 24.6131 38.1104 24.6899C38.1133 24.7667 38.0896 24.8421 38.0432 24.9035L37.3179 25.8568L39.0786 24.8408C39.1487 24.8014 39.2307 24.7886 39.3095 24.8049C39.3882 24.8212 39.4584 24.8654 39.5072 24.9294C39.5559 24.9934 39.5798 25.0729 39.5746 25.1531C39.5693 25.2334 39.5352 25.309 39.4786 25.3661L38.5139 26.3221L39.6732 25.6555C39.7407 25.6166 39.8196 25.6026 39.8963 25.6159C39.973 25.6291 40.0426 25.6688 40.0931 25.728C40.1436 25.7873 40.1718 25.8623 40.1728 25.9401C40.1738 26.0179 40.1476 26.0936 40.0986 26.1541L39.0679 27.4288L39.6879 27.0701C39.7644 27.0266 39.8551 27.0151 39.94 27.0382C40.0249 27.0613 40.0973 27.117 40.1413 27.1932C40.1853 27.2695 40.1974 27.36 40.1749 27.4451C40.1524 27.5302 40.0972 27.6029 40.0212 27.6475L37.8412 28.9048C37.7908 28.9346 37.7332 28.9502 37.6746 28.9501Z" fill="#AADE62"/>
    <path d="M26.1831 32.9721C26.1141 32.9721 26.0467 32.9507 25.9904 32.9108C25.934 32.8709 25.8915 32.8145 25.8686 32.7494C25.8457 32.6843 25.8435 32.6136 25.8625 32.5472C25.8815 32.4809 25.9206 32.422 25.9744 32.3788L28.2538 30.5421L24.5158 32.6995C24.4414 32.7429 24.3531 32.7559 24.2694 32.7357C24.1857 32.7155 24.1131 32.6637 24.0667 32.5911C24.0204 32.5186 24.0039 32.4309 24.0207 32.3464C24.0376 32.262 24.0864 32.1873 24.1571 32.1381L25.7071 31.0475L23.5151 32.3141C23.4416 32.3557 23.355 32.3677 23.2729 32.3479C23.1908 32.3281 23.1193 32.2778 23.0729 32.2073C23.0264 32.1368 23.0084 32.0513 23.0226 31.968C23.0367 31.8848 23.0819 31.81 23.1491 31.7588L27.2384 28.6921L22.3204 31.5335C22.2465 31.5766 22.1588 31.5896 22.0756 31.5699C21.9923 31.5501 21.9198 31.4991 21.8731 31.4274C21.8264 31.3557 21.8091 31.2688 21.8247 31.1847C21.8404 31.1005 21.8878 31.0256 21.9571 30.9755L26.3098 27.7975L21.4384 30.6068C21.3642 30.6496 21.2763 30.6622 21.193 30.6419C21.1098 30.6216 21.0375 30.57 20.9913 30.4979C20.945 30.4257 20.9284 30.3385 20.9447 30.2544C20.9611 30.1703 21.0092 30.0957 21.0791 30.0461L24.9391 27.3128L20.8471 29.6755C20.7726 29.7188 20.6842 29.7316 20.6004 29.7112C20.5166 29.6907 20.4441 29.6386 20.3979 29.5658C20.3518 29.493 20.3356 29.4051 20.3529 29.3207C20.3701 29.2362 20.4194 29.1617 20.4904 29.1128L23.4471 27.0708L20.4791 28.7848C20.4047 28.8263 20.3173 28.8379 20.2347 28.817C20.1521 28.7961 20.0807 28.7443 20.0351 28.6724C19.9894 28.6005 19.973 28.5138 19.9893 28.4302C20.0055 28.3466 20.0532 28.2724 20.1224 28.2228L23.0091 26.2141L20.2538 27.8048C20.1804 27.8475 20.0934 27.8606 20.0107 27.8413C19.928 27.8221 19.8557 27.772 19.8086 27.7013C19.7616 27.6306 19.7433 27.5446 19.7575 27.4609C19.7717 27.3772 19.8174 27.302 19.8851 27.2508L24.0138 24.1121L20.2278 26.2988C20.1532 26.3402 20.0657 26.3515 19.9831 26.3304C19.9005 26.3092 19.8291 26.2572 19.7837 26.1851C19.7382 26.1129 19.7222 26.0261 19.7388 25.9425C19.7555 25.8588 19.8035 25.7847 19.8731 25.7355L20.2904 25.4501C20.215 25.4664 20.1363 25.4561 20.0677 25.4208C19.9991 25.3856 19.9448 25.3276 19.9141 25.2569C19.8835 25.1861 19.8783 25.1068 19.8995 25.0327C19.9207 24.9585 19.967 24.894 20.0304 24.8501L20.8598 24.2501L20.8238 24.2701C20.7517 24.3107 20.6671 24.323 20.5864 24.3046C20.5058 24.2863 20.4348 24.2386 20.3874 24.1709C20.3399 24.1031 20.3193 24.0201 20.3296 23.9381C20.3399 23.856 20.3804 23.7807 20.4431 23.7268L21.7638 22.6208C21.7078 22.5956 21.66 22.5554 21.6254 22.5047C21.5908 22.454 21.571 22.3947 21.5679 22.3334C21.5649 22.2721 21.5788 22.2112 21.6082 22.1573C21.6376 22.1035 21.6813 22.0588 21.7344 22.0281L24.1291 20.6455C24.2012 20.6042 24.2861 20.5914 24.3672 20.6096C24.4482 20.6277 24.5196 20.6754 24.5673 20.7434C24.615 20.8114 24.6356 20.8947 24.6251 20.9771C24.6146 21.0595 24.5737 21.135 24.5104 21.1888L23.8064 21.7788L26.1804 20.4081C26.2544 20.3657 26.3418 20.3532 26.4247 20.3732C26.5076 20.3933 26.5797 20.4444 26.6261 20.516C26.6725 20.5875 26.6896 20.6742 26.6741 20.758C26.6585 20.8419 26.6114 20.9166 26.5424 20.9668L25.7104 21.5668L27.3851 20.6001C27.4598 20.5568 27.5484 20.5441 27.6322 20.5648C27.7161 20.5855 27.7886 20.6379 27.8346 20.711C27.8806 20.7841 27.8964 20.8722 27.8787 20.9567C27.861 21.0412 27.8112 21.1156 27.7398 21.1641L27.5171 21.3161L28.2384 20.8995C28.312 20.8552 28.3997 20.8409 28.4835 20.8597C28.5673 20.8786 28.6405 20.929 28.6881 21.0005C28.7356 21.0719 28.7537 21.159 28.7386 21.2435C28.7235 21.328 28.6764 21.4035 28.6071 21.4541L24.4784 24.6001L29.5291 21.6841C29.6035 21.6426 29.6909 21.6311 29.7735 21.652C29.856 21.6729 29.9275 21.7246 29.9731 21.7965C30.0188 21.8684 30.0352 21.9551 30.0189 22.0387C30.0027 22.1223 29.955 22.1965 29.8858 22.2461L27.0011 24.2535L30.2678 22.3681C30.3422 22.3261 30.43 22.3143 30.5129 22.3351C30.5959 22.356 30.6676 22.4079 30.7133 22.4802C30.7591 22.5524 30.7753 22.6395 30.7586 22.7234C30.7419 22.8072 30.6936 22.8815 30.6238 22.9308L27.6678 24.9708L30.8504 23.1335C30.9247 23.0906 31.0125 23.0781 31.0958 23.0984C31.1791 23.1186 31.2513 23.1702 31.2976 23.2424C31.3438 23.3145 31.3605 23.4017 31.3441 23.4858C31.3278 23.57 31.2797 23.6445 31.2098 23.6941L27.3484 26.4275L31.3631 24.1095C31.437 24.0663 31.5247 24.0533 31.6079 24.073C31.6912 24.0928 31.7637 24.1438 31.8104 24.2155C31.8571 24.2872 31.8744 24.3741 31.8588 24.4583C31.8432 24.5424 31.7958 24.6173 31.7264 24.6675L27.3751 27.8448L31.7218 25.3335C31.7953 25.291 31.8823 25.2782 31.965 25.2977C32.0477 25.3173 32.1197 25.3676 32.1665 25.4385C32.2133 25.5094 32.2313 25.5955 32.2168 25.6791C32.2023 25.7628 32.1564 25.8378 32.0884 25.8888L27.9971 28.9555L31.7971 26.7608C31.8713 26.7191 31.9586 26.7074 32.0412 26.728C32.1237 26.7487 32.1953 26.8001 32.2411 26.8718C32.287 26.9435 32.3037 27.03 32.2878 27.1136C32.272 27.1972 32.2247 27.2716 32.1558 27.3215L30.6071 28.4115L31.6384 27.8168C31.7111 27.7757 31.7965 27.7634 31.8778 27.7822C31.9591 27.8011 32.0304 27.8497 32.0775 27.9186C32.1247 27.9874 32.1443 28.0715 32.1325 28.1541C32.1207 28.2367 32.0783 28.3119 32.0138 28.3648L29.7344 30.2001L30.9231 29.5141C30.9996 29.4706 31.0902 29.4591 31.1752 29.4822C31.2601 29.5053 31.3325 29.561 31.3765 29.6372C31.4205 29.7135 31.4326 29.804 31.4101 29.8891C31.3876 29.9742 31.3324 30.0469 31.2564 30.0915L26.3471 32.9255C26.2975 32.9552 26.2409 32.9713 26.1831 32.9721Z" fill="#AADE62"/>
    <path d="M43.8407 38.2621H44.3801C44.4083 38.2642 44.4366 38.2642 44.4647 38.2621H44.4767H44.4847C44.5229 38.263 44.561 38.2607 44.5987 38.2555C44.7745 38.2493 44.9471 38.2068 45.1057 38.1305C45.2642 38.0543 45.4051 37.9459 45.5197 37.8124C45.6342 37.6789 45.7198 37.5231 45.771 37.3548C45.8223 37.1866 45.8381 37.0095 45.8174 36.8348V16.2901C45.8174 15.6348 45.6494 15.1301 44.8567 15.0715C43.9767 15.0048 43.0667 15.0715 42.1854 15.0715H37.8174V9.21014C37.8673 8.7032 37.8068 8.19147 37.6401 7.71014C37.1387 6.60748 36.0681 6.42548 34.9967 6.42548H32.3907C32.2899 6.35916 32.1705 6.32692 32.0501 6.33348H20.0501C19.9439 6.34133 19.8408 6.37251 19.7481 6.42481H17.7041C16.7975 6.31727 15.8811 6.51957 15.1041 6.99881C13.8587 7.93214 14.1834 9.71614 14.1834 11.0795V15.0401C12.0121 15.0188 9.84007 15.0035 7.67541 15.0708C6.97874 15.0921 6.26007 15.3415 6.18341 16.1308C6.14407 16.5308 6.18341 16.9555 6.18341 17.3575V36.0628C6.15241 36.5238 6.15241 36.9864 6.18341 37.4475C6.33474 38.5415 7.90941 38.2621 8.71007 38.2621H14.1834V41.7755C14.1834 43.0715 13.9561 44.6561 15.3834 45.3208C16.0149 45.5313 16.6843 45.6032 17.3461 45.5315H33.9047C34.5174 45.5699 35.1324 45.5433 35.7394 45.4521C36.2287 45.3789 36.6848 45.1607 37.0489 44.8257C37.413 44.4907 37.6684 44.0543 37.7821 43.5728C37.8359 43.0858 37.8478 42.5951 37.8174 42.1061V38.2621H43.8407ZM30.7167 10.3335H22.4014C21.6567 10.3335 20.7541 10.4741 20.5207 9.50881C20.4567 9.03325 20.4467 8.55197 20.4907 8.07414V7.00014H31.5134V8.50481C31.5134 9.17148 31.6581 10.2795 30.7167 10.3335ZM15.1507 8.54281C15.138 8.14232 15.2766 7.75173 15.5389 7.44881C15.8011 7.14589 16.1679 6.95285 16.5661 6.90814C16.8266 6.89414 17.0876 6.89414 17.3481 6.90814H19.5121C19.5121 7.72881 19.4907 8.55214 19.5121 9.37481C19.5467 10.5915 20.5527 11.0015 21.6047 11.0015H30.6181C30.8739 10.9984 31.1264 10.9437 31.3605 10.8404C31.5946 10.7372 31.8054 10.5876 31.9801 10.4007C32.1548 10.2139 32.2899 9.99354 32.3772 9.75306C32.4645 9.51258 32.5022 9.25692 32.4881 9.00148V6.90814H33.9347C34.7347 6.90814 35.5721 6.78814 36.2234 7.36014C37.2294 8.24281 36.8514 10.3761 36.8514 11.5601V15.0735H18.4101C17.3247 15.0735 16.2374 15.0635 15.1494 15.0521C15.1441 12.8895 15.0314 10.6981 15.1507 8.54281ZM8.18607 37.7381C7.84407 37.7381 7.60741 37.8048 7.35607 37.5761C7.03741 37.2828 7.15074 36.6955 7.15074 36.2875V29.9021C7.15074 25.3181 7.16474 20.7348 7.15074 16.1508C7.13566 15.9661 7.13365 15.7805 7.14474 15.5955C7.16807 15.5715 7.28807 15.6061 7.32007 15.5955C7.7351 15.5398 8.15571 15.5398 8.57074 15.5955H43.1187C43.8754 15.5955 44.8261 15.3361 44.8521 16.3688C44.8947 18.1061 44.8521 19.8495 44.8521 21.5868V36.4335C44.8521 36.5321 44.9461 37.6688 44.7461 37.7381H8.18607ZM35.6461 45.1381C35.1708 45.1758 34.6933 45.1758 34.2181 45.1381H21.9694C20.3167 45.1381 18.6401 45.2201 16.9887 45.1381C15.0474 45.0428 15.1507 43.1515 15.1507 41.7488V38.2621H36.8521V41.3755C36.8521 42.4941 37.2241 44.8721 35.6461 45.1335V45.1381Z" fill="#0F474A"/>
    <path d="M37.6239 35.6375C37.9321 35.6579 38.241 35.6101 38.5286 35.4975C38.7289 35.3995 38.9001 35.2508 39.0251 35.0661C39.1502 34.8814 39.2247 34.6672 39.2412 34.4448C39.4418 33.5283 39.9805 32.7211 40.7499 32.1841C41.5406 31.6508 43.0119 31.8141 43.1532 30.6275C43.1812 30.1441 43.1812 29.6595 43.1532 29.1761V22.5635C43.1532 22.5501 43.1452 22.5428 43.1439 22.5315C43.1426 22.5201 43.1532 22.5015 43.1506 22.4855C43.0612 21.8768 42.6579 21.7601 42.1286 21.6268C41.2768 21.4313 40.5159 20.954 39.9692 20.2721C39.7173 19.954 39.5191 19.5969 39.3826 19.2148C39.2752 18.9115 39.2739 18.5481 39.1372 18.2595C39.0523 18.0911 38.9227 17.9495 38.7625 17.8501C38.6023 17.7507 38.4177 17.6974 38.2292 17.6961C37.6212 17.6388 36.9799 17.6961 36.3699 17.6961H16.1846C15.5106 17.6961 14.8272 17.6648 14.1532 17.6961C13.1459 17.7428 12.9466 18.2715 12.7012 19.1308C12.4747 19.9379 11.9764 20.6421 11.2906 21.1241C10.6666 21.5488 9.83655 21.4921 9.25722 21.9415C8.80522 22.2921 8.84922 22.7481 8.84922 23.2515V25.5668C8.84922 27.2115 8.84255 28.8555 8.84922 30.5001C8.82885 30.637 8.836 30.7765 8.87024 30.9106C8.90449 31.0447 8.96514 31.1705 9.04864 31.2809C9.13215 31.3912 9.23683 31.4837 9.35655 31.5531C9.47628 31.6225 9.60864 31.6672 9.74589 31.6848C10.5596 31.8468 11.3018 32.2603 11.8679 32.8668C12.1391 33.167 12.3606 33.5086 12.5239 33.8788C12.6892 34.2595 12.6899 34.7121 12.8652 35.0788C13.2139 35.8061 14.1692 35.6421 14.8332 35.6421H34.8012C35.7406 35.6375 36.6826 35.6415 37.6239 35.6375ZM14.4586 35.0295C14.1579 35.0128 14.0326 35.0961 13.8359 34.7675C13.7115 34.4323 13.6119 34.0885 13.5379 33.7388C13.4326 33.4738 13.3018 33.2197 13.1472 32.9801C12.787 32.4232 12.3002 31.9592 11.7266 31.6261C11.2599 31.3548 10.0039 31.2015 9.83255 30.7215C9.80798 30.5918 9.80371 30.4591 9.81989 30.3281V23.3435C9.81989 22.6768 9.71655 22.3435 10.5026 22.1248C11.0913 21.9624 11.642 21.6847 12.1227 21.3079C12.6033 20.931 13.0044 20.4625 13.3026 19.9295C13.4369 19.6808 13.5469 19.4199 13.6312 19.1501C13.6586 19.0628 13.7306 18.3415 13.7706 18.3041C13.7939 18.2821 13.8859 18.3168 13.9152 18.3041C14.2062 18.2591 14.5023 18.2591 14.7932 18.3041H37.1186C37.3513 18.2765 37.5865 18.2765 37.8192 18.3041C38.0566 18.3708 38.1099 18.4441 38.2259 18.7041C38.3639 19.0115 38.3739 19.3948 38.5126 19.7161C38.6428 20.0168 38.8067 20.3017 39.0012 20.5655C39.3701 21.0616 39.8429 21.4711 40.3866 21.7655C40.8919 22.0395 42.0839 22.1235 42.1826 22.7355V28.8668C42.2266 29.4498 42.2266 30.0352 42.1826 30.6181C42.175 30.7382 42.131 30.8532 42.0564 30.9476C41.9818 31.0421 41.8803 31.1115 41.7652 31.1468C41.1236 31.3559 40.508 31.6377 39.9306 31.9868C39.4679 32.3341 39.0764 32.767 38.7772 33.2621C38.63 33.5098 38.5085 33.7718 38.4146 34.0441C38.3723 34.3771 38.3104 34.7072 38.2292 35.0328C38.1752 35.0835 37.8292 35.0328 37.7626 35.0328H17.2012C16.2932 35.0295 15.3672 35.0795 14.4586 35.0295Z" fill="#0F474A"/>
    <path d="M28.2891 20.7128C27.0247 20.2842 25.6616 20.2399 24.372 20.5855C23.0825 20.9311 21.9243 21.6512 21.0437 22.6548C20.19 23.6507 19.669 24.8886 19.5537 26.1953C19.4383 27.502 19.7344 28.812 20.4004 29.9421C21.1535 31.1249 22.266 32.0351 23.5744 32.5392C24.8828 33.0433 26.3184 33.1148 27.6704 32.7431C29.0225 32.3714 30.2198 31.5762 31.0867 30.4741C31.9535 29.372 32.4443 28.021 32.4871 26.6195C32.479 25.3229 32.0716 24.0603 31.3205 23.0034C30.5694 21.9466 29.5109 21.1468 28.2891 20.7128ZM27.9337 32.0275C26.8371 32.4058 25.6495 32.4314 24.5376 32.1006C23.4256 31.7698 22.4452 31.0991 21.7337 30.1828C21.029 29.2807 20.6047 28.1915 20.5137 27.0504C20.4227 25.9092 20.6689 24.7665 21.2217 23.7641C21.7782 22.76 22.6414 21.9604 23.685 21.4823C24.7286 21.0041 25.8979 20.8725 27.0217 21.1068C28.2894 21.4049 29.4206 22.1192 30.2347 23.1357C31.0488 24.1521 31.4989 25.4119 31.5131 26.7141C31.5203 27.8571 31.1826 28.9756 30.544 29.9236C29.9054 30.8715 28.9957 31.6048 27.9337 32.0275Z" fill="#0F474A"/>
    <path d="M11.6113 26.7102C11.6215 27.3191 11.8722 27.8992 12.3086 28.3239C12.745 28.7485 13.3317 28.9833 13.9407 28.9769C14.574 28.9769 15.1828 28.7322 15.64 28.2939C16.0972 27.8556 16.3673 27.2576 16.394 26.6249C16.232 23.6129 11.626 23.7429 11.6113 26.7102ZM13.8967 28.3462C13.481 28.2874 13.1005 28.081 12.8245 27.7647C12.5486 27.4484 12.3958 27.0433 12.394 26.6235C12.3841 26.202 12.541 25.7935 12.8307 25.4871C13.1203 25.1806 13.5192 25.0008 13.9407 24.9869C14.3877 25.003 14.8112 25.1914 15.1225 25.5126C15.4339 25.8338 15.609 26.2629 15.6113 26.7102C15.6162 26.9331 15.5746 27.1546 15.4891 27.3606C15.4036 27.5665 15.2761 27.7524 15.1148 27.9063C14.9534 28.0603 14.7618 28.1789 14.5521 28.2546C14.3423 28.3304 14.1191 28.3615 13.8967 28.3462Z" fill="#0F474A"/>
    <path d="M40.392 26.6235C40.23 23.6128 35.624 23.7428 35.6094 26.7101C35.6196 27.319 35.8702 27.8991 36.3066 28.3238C36.7431 28.7485 37.3298 28.9832 37.9387 28.9768C38.5723 28.9768 39.1813 28.732 39.6385 28.2934C40.0957 27.8548 40.3657 27.2565 40.392 26.6235ZM36.392 26.6235C36.3821 26.2019 36.5391 25.7935 36.8287 25.487C37.1183 25.1805 37.5173 25.0007 37.9387 24.9868C38.3857 25.003 38.8092 25.1913 39.1206 25.5125C39.4319 25.8337 39.6071 26.2628 39.6094 26.7101C39.6143 26.9331 39.5726 27.1546 39.4871 27.3605C39.4016 27.5665 39.2742 27.7523 39.1128 27.9063C38.9515 28.0602 38.7598 28.1788 38.5501 28.2545C38.3404 28.3303 38.1172 28.3615 37.8947 28.3461C37.4791 28.2874 37.0985 28.0809 36.8226 27.7646C36.5467 27.4483 36.3938 27.0432 36.392 26.6235Z" fill="#0F474A"/>
    <path d="M17.7084 9.06687C17.6095 9.01031 17.495 8.98694 17.3818 9.0002C17.2509 9.01131 17.1254 9.05736 17.0184 9.13354L16.9331 9.20754C16.8877 9.25395 16.8572 9.31295 16.8458 9.37687V10.0435C16.8409 10.0648 16.8405 10.0869 16.8446 10.1084C16.8488 10.1299 16.8573 10.1502 16.8698 10.1682C16.8855 10.2111 16.9169 10.2464 16.9578 10.2669C17.0567 10.3234 17.1712 10.3468 17.2844 10.3335C17.4153 10.3224 17.5408 10.2764 17.6478 10.2002L17.7331 10.1262C17.7785 10.0798 17.8089 10.0208 17.8204 9.95687V9.2902C17.8253 9.2689 17.8257 9.24681 17.8216 9.22534C17.8174 9.20388 17.8089 9.18351 17.7964 9.16554C17.7807 9.12264 17.7493 9.08735 17.7084 9.06687Z" fill="#0F474A"/>
    <path d="M34.2942 10.2715C34.3931 10.3288 34.5081 10.3522 34.6215 10.3381C34.7526 10.3278 34.8782 10.2817 34.9849 10.2048L35.0682 10.1335C35.1135 10.0857 35.1436 10.0256 35.1549 9.96079V9.29412C35.1596 9.27212 35.1599 9.24938 35.1556 9.22728C35.1514 9.20517 35.1427 9.18414 35.1302 9.16546C35.1139 9.12166 35.0821 9.08536 35.0409 9.06346C34.9419 9.00612 34.827 8.98271 34.7135 8.99679C34.5825 9.00711 34.4568 9.05323 34.3502 9.13012L34.2682 9.20012C34.2229 9.24786 34.1927 9.30794 34.1815 9.37279V10.0395C34.1768 10.0615 34.1765 10.0842 34.1807 10.1063C34.185 10.1284 34.1936 10.1494 34.2062 10.1681C34.2218 10.2122 34.2532 10.249 34.2942 10.2715Z" fill="#0F474A"/>
    <path d="M30.8429 42.3455H21.5096C21.2969 42.3455 20.9762 42.4041 20.8769 42.6288C20.7916 42.8288 20.9522 42.9881 21.1589 42.9881H30.4922C30.7049 42.9881 31.0256 42.9295 31.1249 42.7048C31.2102 42.5048 31.0496 42.3455 30.8429 42.3455Z" fill="#0F474A"/>
    <path d="M25.9423 29.886C25.824 29.886 25.7327 29.8011 25.6682 29.6314C25.5564 29.3359 25.3877 28.9863 25.162 28.5826L24.5914 27.5249C24.4667 27.6595 24.2733 27.8482 24.011 28.091C23.9874 28.5445 23.9756 28.9863 23.9756 29.4164C23.9756 29.5481 23.9455 29.6548 23.8853 29.7368C23.8273 29.8187 23.752 29.8596 23.6596 29.8596C23.4425 29.8596 23.334 29.6607 23.334 29.2628C23.334 29.02 23.3458 28.6572 23.3694 28.1744C23.3952 27.6888 23.4081 27.3245 23.4081 27.0817C23.4081 26.637 23.4124 26.1293 23.421 25.5588C23.4318 24.9854 23.4372 24.4792 23.4372 24.0404C23.4372 23.9087 23.4318 23.7537 23.421 23.5752C23.4124 23.3967 23.4081 23.2417 23.4081 23.11C23.4081 22.9783 23.4372 22.8715 23.4952 22.7896C23.5554 22.7077 23.6317 22.6667 23.7241 22.6667C23.8165 22.6667 23.8917 22.7077 23.9498 22.7896C24.01 22.8715 24.0401 22.9783 24.0401 23.11C24.0401 23.2446 24.0454 23.404 24.0562 23.5884C24.0669 23.7697 24.0723 23.9277 24.0723 24.0623L24.0497 25.4754C24.039 25.9845 24.0358 26.4936 24.0401 27.0027C24.3324 26.6984 24.6139 26.3649 24.8848 26.0021L25.5941 25.0059C25.665 24.9064 25.7413 24.8567 25.823 24.8567C25.9068 24.8567 25.982 24.902 26.0487 24.9927C26.1174 25.0834 26.1518 25.1887 26.1518 25.3087C26.1518 25.4082 26.1207 25.5062 26.0583 25.6027C25.794 26.024 25.4683 26.476 25.0814 26.9588L25.7843 28.2622C26.1131 28.8737 26.2776 29.2716 26.2776 29.4559C26.2776 29.5729 26.2432 29.6739 26.1744 29.7587C26.1078 29.8436 26.0304 29.886 25.9423 29.886Z" fill="#0F474A"/>
    <path d="M29.3308 26.4629C29.3157 26.8286 29.2082 27.0115 29.0084 27.0115C28.8235 27.0115 28.7311 26.8666 28.7311 26.577C28.7311 26.5214 28.7279 26.419 28.7214 26.2698L28.7117 25.9011C28.3721 25.9567 28.1002 26.0869 27.896 26.2917C27.7048 26.4819 27.5457 26.7686 27.4189 27.1519L27.4253 29.5568C27.4253 29.8523 27.3189 30.0001 27.1061 30.0001C26.917 30.0001 26.8224 29.8523 26.8224 29.5568V26.476C26.8224 26.3795 26.8246 26.2347 26.8289 26.0416C26.8353 25.8485 26.8386 25.7037 26.8386 25.6071C26.8386 25.3116 26.9331 25.1639 27.1223 25.1639C27.3329 25.1639 27.4393 25.4067 27.4415 25.8924C27.8541 25.3511 28.312 25.0805 28.8149 25.0805C28.989 25.0805 29.119 25.1697 29.205 25.3482C29.291 25.5266 29.334 25.7958 29.334 26.1557C29.334 26.3078 29.3329 26.4102 29.3308 26.4629Z" fill="#0F474A"/>
</svg>
